<svg width="409" height="286" viewBox="0 0 409 286" fill="none" xmlns="http://www.w3.org/2000/svg">
<g clip-path="url(#clip0_32171_14344)">
<path d="M215.237 0H12.2129C5.74405 0 0.5 5.26219 0.5 11.7534V52.8904C0.5 59.3816 5.74405 64.6438 12.2129 64.6438H215.237C221.706 64.6438 226.95 59.3816 226.95 52.8904V11.7534C226.95 5.26219 221.706 0 215.237 0Z" fill="white" fill-opacity="0.15"/>
<path d="M19.7004 28.8941V24.7363L16.2842 19.2326H17.652L20.2809 23.5713H20.321L22.9499 19.2326H24.3177L20.9015 24.7363V28.8941H19.7004ZM26.8466 29.028C24.9183 29.028 23.6305 27.6287 23.6305 25.4125V25.3991C23.6305 23.1829 24.9249 21.7969 26.8399 21.7969C28.7549 21.7969 30.056 23.1762 30.056 25.3991V25.4125C30.056 27.6354 28.7616 29.028 26.8466 29.028ZM26.8532 27.997C28.0743 27.997 28.8683 27.0462 28.8683 25.4125V25.3991C28.8683 23.7654 28.0676 22.828 26.8399 22.828C25.6322 22.828 24.8182 23.7721 24.8182 25.3991V25.4125C24.8182 27.0529 25.6255 27.997 26.8532 27.997ZM33.599 29.028C32.0777 29.028 31.197 28.0371 31.197 26.4503V21.9308H32.358V26.2427C32.358 27.3743 32.8851 27.997 33.9527 27.997C35.047 27.997 35.7609 27.2136 35.7609 26.0285V21.9308H36.9219V28.8941H35.7609V27.9032H35.7342C35.3606 28.5526 34.6533 29.028 33.599 29.028ZM42.6135 28.8941L40.6718 21.9308H41.8261L43.214 27.5952H43.2407L44.8087 21.9308H45.9296L47.5043 27.5952H47.531L48.9189 21.9308H50.0663L48.1316 28.8941H46.9505L45.3825 23.5043H45.3558L43.7945 28.8941H42.6135ZM51.6744 20.7524C51.2742 20.7524 50.9472 20.4244 50.9472 20.0226C50.9472 19.6142 51.2742 19.2928 51.6744 19.2928C52.0814 19.2928 52.402 19.6142 52.402 20.0226C52.402 20.4244 52.0814 20.7524 51.6744 20.7524ZM51.0941 28.8941V21.9308H52.2551V28.8941H51.0941ZM53.8964 28.8941V19.2326H55.0575V28.8941H53.8964ZM56.6856 28.8941V19.2326H57.8466V28.8941H56.6856ZM62.217 28.8941V21.9308H63.378V23.1092H63.4049C63.6381 22.3058 64.2389 21.7969 65.0193 21.7969C65.2194 21.7969 65.3931 21.8304 65.4863 21.8438V22.9754C65.3931 22.9419 65.1462 22.9084 64.866 22.9084C63.9651 22.9084 63.378 23.5378 63.378 24.5957V28.8941H62.217ZM68.9563 29.028C66.9612 29.028 65.7601 27.6287 65.7601 25.4393V25.4326C65.7601 23.2766 66.9876 21.7969 68.8826 21.7969C70.7777 21.7969 71.9319 23.2097 71.9319 25.2987V25.7272H66.9344C66.9612 27.16 67.7484 27.997 68.9827 27.997C69.8636 27.997 70.4839 27.555 70.6844 26.9591L70.7045 26.8989H71.8455L71.8318 26.9658C71.6049 28.1175 70.4707 29.028 68.9563 29.028ZM68.8763 22.828C67.8685 22.828 67.0813 23.5177 66.9544 24.8166H70.7508C70.6376 23.4641 69.8904 22.828 68.8763 22.828ZM75.3618 29.028C74.087 29.028 73.4599 28.4523 73.4599 27.1199V22.895H72.4458V21.9308H73.4599V20.0494H74.661V21.9308H75.9821V22.895H74.661V27.1131C74.661 27.8564 74.988 28.0639 75.6083 28.0639C75.7488 28.0639 75.882 28.0438 75.9821 28.0371V28.9812C75.8352 29.0013 75.5883 29.028 75.3618 29.028ZM79.5985 29.028C78.0772 29.028 77.1963 28.0371 77.1963 26.4503V21.9308H78.3574V26.2427C78.3574 27.3743 78.8845 27.997 79.9523 27.997C81.0465 27.997 81.7605 27.2136 81.7605 26.0285V21.9308H82.9215V28.8941H81.7605V27.9032H81.7336C81.3603 28.5526 80.6526 29.028 79.5985 29.028ZM84.4359 28.8941V21.9308H85.5969V23.1092H85.6238C85.8571 22.3058 86.4578 21.7969 87.2387 21.7969C87.4388 21.7969 87.6121 21.8304 87.7058 21.8438V22.9754C87.6121 22.9419 87.3651 22.9084 87.085 22.9084C86.1841 22.9084 85.5969 23.5378 85.5969 24.5957V28.8941H84.4359ZM88.653 28.8941V21.9308H89.8141V22.9218H89.8409C90.2143 22.2723 90.9214 21.7969 91.9761 21.7969C93.4973 21.7969 94.3777 22.7878 94.3777 24.3747V28.8941H93.2172V24.5822C93.2172 23.4507 92.6896 22.828 91.6223 22.828C90.5281 22.828 89.8141 23.6114 89.8141 24.7965V28.8941H88.653ZM138.022 29.028C136.094 29.028 134.806 27.6287 134.806 25.4125V25.3991C134.806 23.1829 136.101 21.7969 138.015 21.7969C139.93 21.7969 141.231 23.1762 141.231 25.3991V25.4125C141.231 27.6354 139.937 29.028 138.022 29.028ZM138.029 27.997C139.25 27.997 140.044 27.0462 140.044 25.4125V25.3991C140.044 23.7654 139.243 22.828 138.015 22.828C136.808 22.828 135.994 23.7721 135.994 25.3991V25.4125C135.994 27.0529 136.801 27.997 138.029 27.997ZM142.779 28.8941V22.895H141.812V21.9308H142.779V21.0738C142.779 19.7347 143.4 19.0986 144.681 19.0986C144.941 19.0986 145.215 19.1188 145.388 19.1455V20.0896C145.248 20.0695 145.068 20.0628 144.888 20.0628C144.247 20.0628 143.927 20.3909 143.927 21.0805V21.9308H145.355V22.895H143.94V28.8941H142.779ZM150.026 31.2376C149.799 31.2376 149.552 31.2108 149.405 31.184V30.2332C149.505 30.2533 149.639 30.2734 149.779 30.2734C150.513 30.2734 150.92 30.0859 151.2 29.2959L151.34 28.9008L148.765 21.9308H150.006L151.921 27.7291H151.947L153.869 21.9308H155.09L152.381 29.3294C151.887 30.6617 151.28 31.2376 150.026 31.2376ZM158.613 29.028C156.685 29.028 155.397 27.6287 155.397 25.4125V25.3991C155.397 23.1829 156.691 21.7969 158.606 21.7969C160.522 21.7969 161.823 23.1762 161.823 25.3991V25.4125C161.823 27.6354 160.528 29.028 158.613 29.028ZM158.62 27.997C159.841 27.997 160.635 27.0462 160.635 25.4125V25.3991C160.635 23.7654 159.834 22.828 158.606 22.828C157.399 22.828 156.585 23.7721 156.585 25.3991V25.4125C156.585 27.0529 157.392 27.997 158.62 27.997ZM165.365 29.028C163.844 29.028 162.964 28.0371 162.964 26.4503V21.9308H164.125V26.2427C164.125 27.3743 164.652 27.997 165.719 27.997C166.813 27.997 167.527 27.2136 167.527 26.0285V21.9308H168.688V28.8941H167.527V27.9032H167.501C167.127 28.5526 166.42 29.028 165.365 29.028ZM170.203 28.8941V21.9308H171.364V23.1092H171.391C171.624 22.3058 172.225 21.7969 173.006 21.7969C173.206 21.7969 173.379 21.8304 173.473 21.8438V22.9754C173.379 22.9419 173.132 22.9084 172.852 22.9084C171.951 22.9084 171.364 23.5378 171.364 24.5957V28.8941H170.203ZM17.5253 37.4031C17.1249 37.4031 16.7979 37.0751 16.7979 36.6733C16.7979 36.2649 17.1249 35.9435 17.5253 35.9435C17.9323 35.9435 18.2525 36.2649 18.2525 36.6733C18.2525 37.0751 17.9323 37.4031 17.5253 37.4031ZM16.9447 45.5448V38.5815H18.1057V45.5448H16.9447ZM19.6871 45.5448V38.5815H20.8481V39.5725H20.8748C21.2485 38.923 21.9557 38.4476 23.0099 38.4476C24.5312 38.4476 25.412 39.4385 25.412 41.0254V45.5448H24.251V41.2329C24.251 40.1014 23.7239 39.4787 22.6563 39.4787C21.562 39.4787 20.8481 40.2621 20.8481 41.4472V45.5448H19.6871ZM28.8483 45.5448L26.2928 38.5815H27.5138L29.4288 44.3062H29.4555L31.3772 38.5815H32.5849L30.036 45.5448H28.8483ZM36.0878 45.6787C34.0928 45.6787 32.8918 44.2794 32.8918 42.0899V42.0832C32.8918 39.9273 34.1195 38.4476 36.0144 38.4476C37.9094 38.4476 39.0638 39.8604 39.0638 41.9493V42.3779H34.0661C34.0928 43.8107 34.8801 44.6476 36.1145 44.6476C36.9953 44.6476 37.6158 44.2057 37.816 43.6098L37.836 43.5496H38.977L38.9637 43.6165C38.7368 44.7682 37.6025 45.6787 36.0878 45.6787ZM36.0078 39.4787C35.0002 39.4787 34.2129 40.1684 34.0862 41.4673H37.8828C37.7693 40.1148 37.022 39.4787 36.0078 39.4787ZM42.7002 45.6787C41.0654 45.6787 40.0779 44.8418 39.9378 43.5964L39.9311 43.5362H41.0921L41.1055 43.6032C41.2456 44.2994 41.7594 44.7079 42.7069 44.7079C43.6477 44.7079 44.2082 44.3129 44.2082 43.6835V43.6768C44.2082 43.1746 43.9479 42.8934 43.1606 42.6993L42.0596 42.4314C40.7519 42.1167 40.118 41.5075 40.118 40.5031V40.4964C40.118 39.2979 41.1655 38.4476 42.6668 38.4476C44.1882 38.4476 45.1556 39.3381 45.2424 40.5031L45.2491 40.5902H44.1415L44.1348 40.5433C44.0414 39.867 43.5276 39.4184 42.6668 39.4184C41.8261 39.4184 41.3057 39.8269 41.3057 40.4429V40.4496C41.3057 40.9249 41.6193 41.253 42.3866 41.4405L43.4875 41.7083C44.8887 42.0498 45.3959 42.6055 45.3959 43.5964V43.6032C45.3959 44.8217 44.2482 45.6787 42.7002 45.6787ZM48.8588 45.6787C47.5844 45.6787 46.9572 45.1029 46.9572 43.7705V39.5457H45.943V38.5815H46.9572V36.7001H48.1582V38.5815H49.4792V39.5457H48.1582V43.7638C48.1582 44.507 48.4852 44.7146 49.1057 44.7146C49.2458 44.7146 49.3791 44.6945 49.4792 44.6878V45.6318C49.3328 45.652 49.0857 45.6787 48.8588 45.6787ZM50.7271 45.5448V38.5815H51.8881V39.5992H51.915C52.2283 38.9096 52.9223 38.4476 53.8164 38.4476C54.7641 38.4476 55.4645 38.9364 55.7646 39.7867H55.7915C56.1785 38.9498 56.9925 38.4476 57.9667 38.4476C59.341 38.4476 60.2287 39.3515 60.2287 40.7375V45.5448H59.0677V41.0053C59.0677 40.0478 58.5406 39.4787 57.6265 39.4787C56.7056 39.4787 56.0584 40.1684 56.0584 41.1191V45.5448H54.8974V40.8781C54.8974 40.0344 54.3366 39.4787 53.4762 39.4787C52.5553 39.4787 51.8881 40.2085 51.8881 41.1793V45.5448H50.7271ZM64.5654 45.6787C62.5708 45.6787 61.3697 44.2794 61.3697 42.0899V42.0832C61.3697 39.9273 62.5972 38.4476 64.4922 38.4476C66.3873 38.4476 67.5415 39.8604 67.5415 41.9493V42.3779H62.544C62.5708 43.8107 63.358 44.6476 64.5923 44.6476C65.4732 44.6476 66.0935 44.2057 66.2936 43.6098L66.3141 43.5496H67.4546L67.4414 43.6165C67.2145 44.7682 66.0803 45.6787 64.5654 45.6787ZM64.4854 39.4787C63.4781 39.4787 62.6909 40.1684 62.564 41.4673H66.3604C66.2472 40.1148 65.5 39.4787 64.4854 39.4787ZM68.7157 45.5448V38.5815H69.8767V39.5725H69.9036C70.2774 38.923 70.9846 38.4476 72.0387 38.4476C73.56 38.4476 74.4409 39.4385 74.4409 41.0254V45.5448H73.2798V41.2329C73.2798 40.1014 72.7527 39.4787 71.6849 39.4787C70.5907 39.4787 69.8767 40.2621 69.8767 41.4472V45.5448H68.7157ZM78.1773 45.6787C76.903 45.6787 76.2759 45.1029 76.2759 43.7705V39.5457H75.2618V38.5815H76.2759V36.7001H77.477V38.5815H78.7981V39.5457H77.477V43.7638C77.477 44.507 77.8035 44.7146 78.4242 44.7146C78.5643 44.7146 78.698 44.6945 78.7981 44.6878V45.6318C78.6512 45.652 78.4042 45.6787 78.1773 45.6787ZM82.5077 45.6787C80.8732 45.6787 79.8854 44.8418 79.7454 43.5964L79.7385 43.5362H80.8996L80.9132 43.6032C81.0533 44.2994 81.5667 44.7079 82.5145 44.7079C83.4554 44.7079 84.0157 44.3129 84.0157 43.6835V43.6768C84.0157 43.1746 83.7556 42.8934 82.9684 42.6993L81.8674 42.4314C80.5594 42.1167 79.9254 41.5075 79.9254 40.5031V40.4964C79.9254 39.2979 80.9733 38.4476 82.4745 38.4476C83.9957 38.4476 84.963 39.3381 85.0499 40.5031L85.0567 40.5902H83.9488L83.9425 40.5433C83.8488 39.867 83.3349 39.4184 82.4745 39.4184C81.6336 39.4184 81.1133 39.8269 81.1133 40.4429V40.4496C81.1133 40.9249 81.4267 41.253 82.1943 41.4405L83.2949 41.7083C84.6965 42.0498 85.2036 42.6055 85.2036 43.5964V43.6032C85.2036 44.8217 84.0557 45.6787 82.5077 45.6787ZM87.125 45.6385C86.698 45.6385 86.3646 45.3038 86.3646 44.8753C86.3646 44.4468 86.698 44.112 87.125 44.112C87.552 44.112 87.8858 44.4468 87.8858 44.8753C87.8858 45.3038 87.552 45.6385 87.125 45.6385Z" fill="white"/>
<path d="M101.144 28.8935V20.5108H101.117L98.5679 22.2918V21.0799L101.13 19.232H102.305V28.8935H101.144ZM108.103 29.0542C105.887 29.0542 104.573 27.1326 104.573 24.0661V24.0527C104.573 20.9862 105.887 19.0713 108.103 19.0713C110.318 19.0713 111.646 20.9862 111.646 24.0527V24.0661C111.646 27.1326 110.318 29.0542 108.103 29.0542ZM108.103 28.003C109.571 28.003 110.438 26.4899 110.438 24.0661V24.0527C110.438 21.6289 109.571 20.1291 108.103 20.1291C106.635 20.1291 105.781 21.6289 105.781 24.0527V24.0661C105.781 26.4899 106.635 28.003 108.103 28.003ZM116.39 29.0542C114.175 29.0542 112.861 27.1326 112.861 24.0661V24.0527C112.861 20.9862 114.175 19.0713 116.39 19.0713C118.605 19.0713 119.933 20.9862 119.933 24.0527V24.0661C119.933 27.1326 118.605 29.0542 116.39 29.0542ZM116.39 28.003C117.858 28.003 118.725 26.4899 118.725 24.0661V24.0527C118.725 21.6289 117.858 20.1291 116.39 20.1291C114.922 20.1291 114.068 21.6289 114.068 24.0527V24.0661C114.068 26.4899 114.922 28.003 116.39 28.003ZM123.096 23.9992C121.881 23.9992 121.147 23.0685 121.147 21.5754V21.5687C121.147 20.0823 121.881 19.1516 123.096 19.1516C124.31 19.1516 125.044 20.0823 125.044 21.5687V21.5754C125.044 23.0685 124.31 23.9992 123.096 23.9992ZM123.53 28.8935H122.435L128.614 19.232H129.695L123.53 28.8935ZM123.096 23.1957C123.743 23.1957 124.117 22.5931 124.117 21.5754V21.5687C124.117 20.5509 123.743 19.955 123.096 19.955C122.449 19.955 122.075 20.5509 122.075 21.5687V21.5754C122.075 22.5931 122.449 23.1957 123.096 23.1957ZM129.027 28.9739C127.813 28.9739 127.079 28.0432 127.079 26.5501V26.5434C127.079 25.057 127.813 24.1263 129.027 24.1263C130.242 24.1263 130.976 25.057 130.976 26.5434V26.5501C130.976 28.0432 130.242 28.9739 129.027 28.9739ZM129.027 28.1704C129.675 28.1704 130.048 27.5678 130.048 26.5501V26.5434C130.048 25.5257 129.675 24.9298 129.027 24.9298C128.38 24.9298 128.007 25.5257 128.007 26.5434V26.5501C128.007 27.5678 128.38 28.1704 129.027 28.1704Z" fill="#17EC20"/>
<path d="M75.6579 172.873H8.30861C3.99604 172.873 0.5 176.381 0.5 180.709V278.164C0.5 282.492 3.99604 286 8.30861 286H75.6579C79.9705 286 83.4665 282.492 83.4665 278.164V180.709C83.4665 176.381 79.9705 172.873 75.6579 172.873Z" fill="#17EC20"/>
<path d="M11.2036 226.008V216.347H12.4047V226.008H11.2036ZM14.0928 226.008V219.045H15.2538V220.036H15.2805C15.6541 219.387 16.3614 218.911 17.4157 218.911C18.9369 218.911 19.8177 219.902 19.8177 221.489V226.008H18.6567V221.696C18.6567 220.565 18.1296 219.942 17.062 219.942C15.9677 219.942 15.2538 220.726 15.2538 221.911V226.008H14.0928ZM23.254 226.008L20.6984 219.045H21.9195L23.8345 224.77H23.8612L25.7828 219.045H26.9905L24.4417 226.008H23.254ZM30.4935 226.142C28.4985 226.142 27.2975 224.743 27.2975 222.553V222.547C27.2975 220.391 28.5252 218.911 30.4201 218.911C32.3151 218.911 33.4694 220.324 33.4694 222.413V222.841H28.4718C28.4985 224.274 29.2858 225.111 30.5202 225.111C31.401 225.111 32.0215 224.67 32.2217 224.074L32.2417 224.013H33.3827L33.3693 224.08C33.1425 225.232 32.0081 226.142 30.4935 226.142ZM30.4135 219.942C29.4059 219.942 28.6186 220.632 28.4918 221.931H32.2884C32.175 220.578 31.4277 219.942 30.4135 219.942ZM37.1059 226.142C35.4711 226.142 34.4836 225.305 34.3435 224.06L34.3368 224H35.4978L35.5112 224.067C35.6513 224.763 36.1651 225.172 37.1125 225.172C38.0534 225.172 38.6138 224.776 38.6138 224.147V224.141C38.6138 223.638 38.3536 223.357 37.5663 223.163L36.4654 222.895C35.1576 222.58 34.5236 221.971 34.5236 220.967V220.96C34.5236 219.762 35.5712 218.911 37.0725 218.911C38.5938 218.911 39.5613 219.802 39.648 220.967L39.6547 221.054H38.5471L38.5404 221.007C38.447 220.331 37.9333 219.882 37.0725 219.882C36.2318 219.882 35.7113 220.29 35.7113 220.907V220.913C35.7113 221.388 36.0249 221.717 36.7923 221.904L37.8932 222.172C39.2944 222.513 39.8015 223.069 39.8015 224.06V224.067C39.8015 225.285 38.6539 226.142 37.1059 226.142ZM43.2645 226.142C41.9901 226.142 41.3629 225.567 41.3629 224.234V220.009H40.3487V219.045H41.3629V217.164H42.5639V219.045H43.885V220.009H42.5639V224.227C42.5639 224.971 42.8909 225.178 43.5114 225.178C43.6515 225.178 43.785 225.158 43.885 225.151V226.096C43.7382 226.116 43.4913 226.142 43.2645 226.142ZM45.1328 226.008V219.045H46.2938V220.063H46.3205C46.6341 219.373 47.328 218.911 48.2221 218.911C49.1696 218.911 49.8701 219.4 50.1702 220.25H50.1971C50.5841 219.413 51.3982 218.911 52.3723 218.911C53.7471 218.911 54.6343 219.815 54.6343 221.201V226.008H53.4733V221.469C53.4733 220.511 52.9462 219.942 52.0321 219.942C51.1112 219.942 50.464 220.632 50.464 221.583V226.008H49.303V221.342C49.303 220.498 48.7425 219.942 47.8818 219.942C46.961 219.942 46.2938 220.672 46.2938 221.643V226.008H45.1328ZM58.9715 226.142C56.9764 226.142 55.7754 224.743 55.7754 222.553V222.547C55.7754 220.391 57.0028 218.911 58.8978 218.911C60.7929 218.911 61.9471 220.324 61.9471 222.413V222.841H56.9496C56.9764 224.274 57.7636 225.111 58.9979 225.111C59.8788 225.111 60.4991 224.67 60.6997 224.074L60.7197 224.013H61.8607L61.8471 224.08C61.6201 225.232 60.4859 226.142 58.9715 226.142ZM58.8915 219.942C57.8837 219.942 57.0965 220.632 56.9696 221.931H60.766C60.6528 220.578 59.9056 219.942 58.8915 219.942ZM63.1213 226.008V219.045H64.2824V220.036H64.3092C64.683 219.387 65.3902 218.911 66.4444 218.911C67.9656 218.911 68.8465 219.902 68.8465 221.489V226.008H67.6855V221.696C67.6855 220.565 67.1584 219.942 66.0905 219.942C64.9964 219.942 64.2824 220.726 64.2824 221.911V226.008H63.1213ZM72.5829 226.142C71.3087 226.142 70.6815 225.567 70.6815 224.234V220.009H69.6674V219.045H70.6815V217.164H71.8826V219.045H73.2037V220.009H71.8826V224.227C71.8826 224.971 72.2096 225.178 72.8299 225.178C72.9699 225.178 73.1037 225.158 73.2037 225.151V226.096C73.0568 226.116 72.8099 226.142 72.5829 226.142ZM19.4173 242.659L23.0004 232.997H24.1881L27.7645 242.659H26.5034L25.5293 239.894H21.6526L20.6784 242.659H19.4173ZM23.5809 234.444L22.0196 238.87H25.169L23.6076 234.444H23.5809ZM28.692 242.659V235.696H29.853V236.713H29.8797C30.1933 236.024 30.8872 235.562 31.7813 235.562C32.7288 235.562 33.4294 236.051 33.7297 236.901H33.7563C34.1433 236.064 34.9574 235.562 35.9315 235.562C37.306 235.562 38.1935 236.466 38.1935 237.852V242.659H37.0325V238.119C37.0325 237.162 36.5054 236.593 35.5912 236.593C34.6704 236.593 34.0233 237.282 34.0233 238.234V242.659H32.8622V237.993C32.8622 237.149 32.3018 236.593 31.441 236.593C30.5202 236.593 29.853 237.323 29.853 238.294V242.659H28.692ZM42.5506 242.793C40.6222 242.793 39.3345 241.394 39.3345 239.178V239.164C39.3345 236.948 40.6289 235.562 42.5439 235.562C44.4589 235.562 45.76 236.941 45.76 239.164V239.178C45.76 241.401 44.4655 242.793 42.5506 242.793ZM42.5572 241.762C43.7783 241.762 44.5723 240.811 44.5723 239.178V239.164C44.5723 237.53 43.7716 236.593 42.5439 236.593C41.3362 236.593 40.5222 237.537 40.5222 239.164V239.178C40.5222 240.818 41.3295 241.762 42.5572 241.762ZM49.303 242.793C47.7817 242.793 46.901 241.802 46.901 240.215V235.696H48.062V240.008C48.062 241.139 48.5891 241.762 49.6568 241.762C50.751 241.762 51.465 240.978 51.465 239.793V235.696H52.6261V242.659H51.465V241.668H51.4382C51.0643 242.318 50.3572 242.793 49.303 242.793ZM54.1404 242.659V235.696H55.3015V236.687H55.3283C55.7017 236.038 56.4093 235.562 57.4635 235.562C58.9847 235.562 59.8656 236.553 59.8656 238.139V242.659H58.7046V238.347C58.7046 237.216 58.1775 236.593 57.1097 236.593C56.0155 236.593 55.3015 237.376 55.3015 238.562V242.659H54.1404ZM63.602 242.793C62.3278 242.793 61.7002 242.217 61.7002 240.885V236.66H60.686V235.696H61.7002V233.814H62.9012V235.696H64.2223V236.66H62.9012V240.878C62.9012 241.621 63.2282 241.829 63.849 241.829C63.9891 241.829 64.1223 241.809 64.2223 241.802V242.746C64.0759 242.766 63.829 242.793 63.602 242.793Z" fill="#0B0528"/>
<path d="M83.4664 171.159C83.0623 171.159 82.7344 171.488 82.7344 171.893C82.7344 172.299 83.0623 172.628 83.4664 172.628V171.159ZM321.629 171.893C321.629 174.057 323.377 175.811 325.533 175.811C327.69 175.811 329.438 174.057 329.438 171.893C329.438 169.73 327.69 167.976 325.533 167.976C323.377 167.976 321.629 169.73 321.629 171.893ZM85.3005 172.628C85.7046 172.628 86.0325 172.299 86.0325 171.893C86.0325 171.488 85.7046 171.159 85.3005 171.159V172.628ZM88.9681 171.159C88.5635 171.159 88.236 171.488 88.236 171.893C88.236 172.299 88.5635 172.628 88.9681 172.628V171.159ZM92.6357 172.628C93.0398 172.628 93.3678 172.299 93.3678 171.893C93.3678 171.488 93.0398 171.159 92.6357 171.159V172.628ZM96.3033 171.159C95.8992 171.159 95.5712 171.488 95.5712 171.893C95.5712 172.299 95.8992 172.628 96.3033 172.628V171.159ZM99.9709 172.628C100.375 172.628 100.703 172.299 100.703 171.893C100.703 171.488 100.375 171.159 99.9709 171.159V172.628ZM103.639 171.159C103.234 171.159 102.906 171.488 102.906 171.893C102.906 172.299 103.234 172.628 103.639 172.628V171.159ZM107.306 172.628C107.711 172.628 108.038 172.299 108.038 171.893C108.038 171.488 107.711 171.159 107.306 171.159V172.628ZM110.974 171.159C110.57 171.159 110.242 171.488 110.242 171.893C110.242 172.299 110.57 172.628 110.974 172.628V171.159ZM114.642 172.628C115.046 172.628 115.374 172.299 115.374 171.893C115.374 171.488 115.046 171.159 114.642 171.159V172.628ZM118.309 171.159C117.905 171.159 117.577 171.488 117.577 171.893C117.577 172.299 117.905 172.628 118.309 172.628V171.159ZM121.977 172.628C122.382 172.628 122.709 172.299 122.709 171.893C122.709 171.488 122.382 171.159 121.977 171.159V172.628ZM125.645 171.159C125.241 171.159 124.913 171.488 124.913 171.893C124.913 172.299 125.241 172.628 125.645 172.628V171.159ZM129.312 172.628C129.717 172.628 130.044 172.299 130.044 171.893C130.044 171.488 129.717 171.159 129.312 171.159V172.628ZM132.98 171.159C132.576 171.159 132.248 171.488 132.248 171.893C132.248 172.299 132.576 172.628 132.98 172.628V171.159ZM136.648 172.628C137.052 172.628 137.38 172.299 137.38 171.893C137.38 171.488 137.052 171.159 136.648 171.159V172.628ZM140.316 171.159C139.911 171.159 139.584 171.488 139.584 171.893C139.584 172.299 139.911 172.628 140.316 172.628V171.159ZM143.983 172.628C144.387 172.628 144.715 172.299 144.715 171.893C144.715 171.488 144.387 171.159 143.983 171.159V172.628ZM147.651 171.159C147.247 171.159 146.919 171.488 146.919 171.893C146.919 172.299 147.247 172.628 147.651 172.628V171.159ZM151.318 172.628C151.723 172.628 152.05 172.299 152.05 171.893C152.05 171.488 151.723 171.159 151.318 171.159V172.628ZM154.986 171.159C154.582 171.159 154.254 171.488 154.254 171.893C154.254 172.299 154.582 172.628 154.986 172.628V171.159ZM158.654 172.628C159.058 172.628 159.386 172.299 159.386 171.893C159.386 171.488 159.058 171.159 158.654 171.159V172.628ZM162.322 171.159C161.917 171.159 161.59 171.488 161.59 171.893C161.59 172.299 161.917 172.628 162.322 172.628V171.159ZM165.989 172.628C166.393 172.628 166.721 172.299 166.721 171.893C166.721 171.488 166.393 171.159 165.989 171.159V172.628ZM169.657 171.159C169.253 171.159 168.925 171.488 168.925 171.893C168.925 172.299 169.253 172.628 169.657 172.628V171.159ZM173.325 172.628C173.729 172.628 174.057 172.299 174.057 171.893C174.057 171.488 173.729 171.159 173.325 171.159V172.628ZM176.992 171.159C176.588 171.159 176.26 171.488 176.26 171.893C176.26 172.299 176.588 172.628 176.992 172.628V171.159ZM180.66 172.628C181.064 172.628 181.392 172.299 181.392 171.893C181.392 171.488 181.064 171.159 180.66 171.159V172.628ZM184.328 171.159C183.923 171.159 183.596 171.488 183.596 171.893C183.596 172.299 183.923 172.628 184.328 172.628V171.159ZM187.995 172.628C188.4 172.628 188.728 172.299 188.728 171.893C188.728 171.488 188.4 171.159 187.995 171.159V172.628ZM191.663 171.159C191.259 171.159 190.931 171.488 190.931 171.893C190.931 172.299 191.259 172.628 191.663 172.628V171.159ZM195.331 172.628C195.735 172.628 196.063 172.299 196.063 171.893C196.063 171.488 195.735 171.159 195.331 171.159V172.628ZM198.998 171.159C198.594 171.159 198.266 171.488 198.266 171.893C198.266 172.299 198.594 172.628 198.998 172.628V171.159ZM202.666 172.628C203.07 172.628 203.398 172.299 203.398 171.893C203.398 171.488 203.07 171.159 202.666 171.159V172.628ZM206.334 171.159C205.929 171.159 205.602 171.488 205.602 171.893C205.602 172.299 205.929 172.628 206.334 172.628V171.159ZM210.002 172.628C210.406 172.628 210.734 172.299 210.734 171.893C210.734 171.488 210.406 171.159 210.002 171.159V172.628ZM213.669 171.159C213.265 171.159 212.937 171.488 212.937 171.893C212.937 172.299 213.265 172.628 213.669 172.628V171.159ZM217.337 172.628C217.741 172.628 218.069 172.299 218.069 171.893C218.069 171.488 217.741 171.159 217.337 171.159V172.628ZM221.004 171.159C220.6 171.159 220.272 171.488 220.272 171.893C220.272 172.299 220.6 172.628 221.004 172.628V171.159ZM224.672 172.628C225.077 172.628 225.404 172.299 225.404 171.893C225.404 171.488 225.077 171.159 224.672 171.159V172.628ZM228.34 171.159C227.936 171.159 227.608 171.488 227.608 171.893C227.608 172.299 227.936 172.628 228.34 172.628V171.159ZM232.008 172.628C232.412 172.628 232.74 172.299 232.74 171.893C232.74 171.488 232.412 171.159 232.008 171.159V172.628ZM235.675 171.159C235.271 171.159 234.943 171.488 234.943 171.893C234.943 172.299 235.271 172.628 235.675 172.628V171.159ZM239.343 172.628C239.747 172.628 240.075 172.299 240.075 171.893C240.075 171.488 239.747 171.159 239.343 171.159V172.628ZM243.011 171.159C242.606 171.159 242.278 171.488 242.278 171.893C242.278 172.299 242.606 172.628 243.011 172.628V171.159ZM246.678 172.628C247.083 172.628 247.41 172.299 247.41 171.893C247.41 171.488 247.083 171.159 246.678 171.159V172.628ZM250.346 171.159C249.942 171.159 249.614 171.488 249.614 171.893C249.614 172.299 249.942 172.628 250.346 172.628V171.159ZM254.013 172.628C254.418 172.628 254.745 172.299 254.745 171.893C254.745 171.488 254.418 171.159 254.013 171.159V172.628ZM257.681 171.159C257.277 171.159 256.949 171.488 256.949 171.893C256.949 172.299 257.277 172.628 257.681 172.628V171.159ZM261.349 172.628C261.753 172.628 262.081 172.299 262.081 171.893C262.081 171.488 261.753 171.159 261.349 171.159V172.628ZM265.017 171.159C264.612 171.159 264.285 171.488 264.285 171.893C264.285 172.299 264.612 172.628 265.017 172.628V171.159ZM268.684 172.628C269.088 172.628 269.416 172.299 269.416 171.893C269.416 171.488 269.088 171.159 268.684 171.159V172.628ZM272.352 171.159C271.948 171.159 271.62 171.488 271.62 171.893C271.62 172.299 271.948 172.628 272.352 172.628V171.159ZM276.02 172.628C276.424 172.628 276.752 172.299 276.752 171.893C276.752 171.488 276.424 171.159 276.02 171.159V172.628ZM279.687 171.159C279.283 171.159 278.955 171.488 278.955 171.893C278.955 172.299 279.283 172.628 279.687 172.628V171.159ZM283.355 172.628C283.759 172.628 284.087 172.299 284.087 171.893C284.087 171.488 283.759 171.159 283.355 171.159V172.628ZM287.023 171.159C286.618 171.159 286.291 171.488 286.291 171.893C286.291 172.299 286.618 172.628 287.023 172.628V171.159ZM290.69 172.628C291.095 172.628 291.422 172.299 291.422 171.893C291.422 171.488 291.095 171.159 290.69 171.159V172.628ZM294.358 171.159C293.953 171.159 293.626 171.488 293.626 171.893C293.626 172.299 293.953 172.628 294.358 172.628V171.159ZM298.026 172.628C298.43 172.628 298.758 172.299 298.758 171.893C298.758 171.488 298.43 171.159 298.026 171.159V172.628ZM301.693 171.159C301.289 171.159 300.961 171.488 300.961 171.893C300.961 172.299 301.289 172.628 301.693 172.628V171.159ZM305.361 172.628C305.765 172.628 306.093 172.299 306.093 171.893C306.093 171.488 305.765 171.159 305.361 171.159V172.628ZM309.028 171.159C308.624 171.159 308.296 171.488 308.296 171.893C308.296 172.299 308.624 172.628 309.028 172.628V171.159ZM312.697 172.628C313.101 172.628 313.429 172.299 313.429 171.893C313.429 171.488 313.101 171.159 312.697 171.159V172.628ZM316.364 171.159C315.96 171.159 315.632 171.488 315.632 171.893C315.632 172.299 315.96 172.628 316.364 172.628V171.159ZM320.032 172.628C320.436 172.628 320.764 172.299 320.764 171.893C320.764 171.488 320.436 171.159 320.032 171.159V172.628ZM323.699 171.159C323.295 171.159 322.967 171.488 322.967 171.893C322.967 172.299 323.295 172.628 323.699 172.628V171.159ZM83.4664 172.628H85.3005V171.159H83.4664V172.628ZM88.9681 172.628H92.6357V171.159H88.9681V172.628ZM96.3033 172.628H99.9709V171.159H96.3033V172.628ZM103.639 172.628H107.306V171.159H103.639V172.628ZM110.974 172.628H114.642V171.159H110.974V172.628ZM118.309 172.628H121.977V171.159H118.309V172.628ZM125.645 172.628H129.312V171.159H125.645V172.628ZM132.98 172.628H136.648V171.159H132.98V172.628ZM140.316 172.628H143.983V171.159H140.316V172.628ZM147.651 172.628H151.318V171.159H147.651V172.628ZM154.986 172.628H158.654V171.159H154.986V172.628ZM162.322 172.628H165.989V171.159H162.322V172.628ZM169.657 172.628H173.325V171.159H169.657V172.628ZM176.992 172.628H180.66V171.159H176.992V172.628ZM184.328 172.628H187.995V171.159H184.328V172.628ZM191.663 172.628H195.331V171.159H191.663V172.628ZM198.998 172.628H202.666V171.159H198.998V172.628ZM206.334 172.628H210.002V171.159H206.334V172.628ZM213.669 172.628H217.337V171.159H213.669V172.628ZM221.004 172.628H224.672V171.159H221.004V172.628ZM228.34 172.628H232.008V171.159H228.34V172.628ZM235.675 172.628H239.343V171.159H235.675V172.628ZM243.011 172.628H246.678V171.159H243.011V172.628ZM250.346 172.628H254.013V171.159H250.346V172.628ZM257.681 172.628H261.349V171.159H257.681V172.628ZM265.017 172.628H268.684V171.159H265.017V172.628ZM272.352 172.628H276.02V171.159H272.352V172.628ZM279.687 172.628H283.355V171.159H279.687V172.628ZM287.023 172.628H290.69V171.159H287.023V172.628ZM294.358 172.628H298.026V171.159H294.358V172.628ZM301.693 172.628H305.361V171.159H301.693V172.628ZM309.028 172.628H312.697V171.159H309.028V172.628ZM316.364 172.628H320.032V171.159H316.364V172.628ZM323.699 172.628H325.533V171.159H323.699V172.628Z" fill="#17EC20"/>
<path d="M139.154 97.9453H98.5957C92.1269 97.9453 86.8828 103.207 86.8828 109.699V119.562C86.8828 126.053 92.1269 131.315 98.5957 131.315H139.154C145.623 131.315 150.867 126.053 150.867 119.562V109.699C150.867 103.207 145.623 97.9453 139.154 97.9453Z" fill="white" fill-opacity="0.15"/>
<path d="M103.254 103.822L103.11 104.315V118.608L103.254 118.753L109.866 114.831L103.254 103.822Z" fill="#17EC20"/>
<path d="M103.255 103.822L96.6436 114.831L103.255 118.753V111.816V103.822Z" fill="#17EC20"/>
<path d="M103.254 120.009L103.173 120.109V125.2L103.254 125.439L109.87 116.089L103.254 120.009Z" fill="#17EC20"/>
<path d="M103.255 125.439V120.009L96.6436 116.089L103.255 125.439Z" fill="#17EC20"/>
<path d="M116.827 119.528V109.866H122.792V110.95H118.028V114.05H122.545V115.122H118.028V118.443H122.792V119.528H116.827ZM126.816 119.528V110.95H123.78V109.866H131.053V110.95H128.017V119.528H126.816ZM132.321 119.528V109.866H133.521V114.044H138.806V109.866H140.008V119.528H138.806V115.129H133.521V119.528H132.321Z" fill="white"/>
<path d="M171.914 278.164V271.953H172.686V278.164H171.914ZM173.771 278.164V273.688H174.517V274.325H174.535C174.775 273.908 175.229 273.602 175.907 273.602C176.885 273.602 177.451 274.239 177.451 275.259V278.164H176.705V275.392C176.705 274.665 176.366 274.265 175.68 274.265C174.976 274.265 174.517 274.768 174.517 275.53V278.164H173.771ZM179.661 278.164L178.017 273.688H178.803L180.034 277.368H180.051L181.286 273.688H182.062L180.424 278.164H179.661ZM184.315 278.251C183.032 278.251 182.26 277.351 182.26 275.943V275.939C182.26 274.553 183.049 273.602 184.267 273.602C185.485 273.602 186.228 274.51 186.228 275.853V276.129H183.015C183.032 277.05 183.538 277.587 184.332 277.587C184.898 277.587 185.297 277.303 185.425 276.92L185.438 276.882H186.172L186.163 276.925C186.017 277.665 185.288 278.251 184.315 278.251ZM184.263 274.265C183.615 274.265 183.109 274.708 183.028 275.543H185.468C185.395 274.674 184.915 274.265 184.263 274.265ZM188.565 278.251C187.514 278.251 186.88 277.712 186.789 276.912L186.785 276.873H187.531L187.54 276.916C187.63 277.364 187.96 277.626 188.569 277.626C189.175 277.626 189.535 277.372 189.535 276.968V276.963C189.535 276.641 189.367 276.46 188.861 276.335L188.154 276.163C187.313 275.961 186.905 275.569 186.905 274.923V274.919C186.905 274.149 187.579 273.602 188.544 273.602C189.522 273.602 190.144 274.175 190.199 274.923L190.204 274.979H189.492L189.487 274.949C189.427 274.514 189.097 274.226 188.544 274.226C188.003 274.226 187.669 274.488 187.669 274.885V274.889C187.669 275.195 187.87 275.405 188.364 275.526L189.072 275.698C189.972 275.917 190.298 276.275 190.298 276.912V276.916C190.298 277.7 189.561 278.251 188.565 278.251ZM192.524 278.251C191.705 278.251 191.302 277.88 191.302 277.024V274.308H190.65V273.688H191.302V272.479H192.074V273.688H192.923V274.308H192.074V277.019C192.074 277.497 192.284 277.63 192.683 277.63C192.773 277.63 192.859 277.618 192.923 277.613V278.22C192.829 278.233 192.67 278.251 192.524 278.251ZM193.725 278.164V273.688H194.472V274.342H194.489C194.69 273.899 195.136 273.602 195.711 273.602C196.32 273.602 196.771 273.916 196.964 274.462H196.981C197.23 273.925 197.753 273.602 198.379 273.602C199.263 273.602 199.833 274.183 199.833 275.074V278.164H199.087V275.246C199.087 274.63 198.748 274.265 198.161 274.265C197.569 274.265 197.152 274.708 197.152 275.319V278.164H196.406V275.164C196.406 274.622 196.046 274.265 195.493 274.265C194.901 274.265 194.472 274.734 194.472 275.358V278.164H193.725ZM202.621 278.251C201.339 278.251 200.567 277.351 200.567 275.943V275.939C200.567 274.553 201.356 273.602 202.575 273.602C203.793 273.602 204.535 274.51 204.535 275.853V276.129H201.322C201.339 277.05 201.845 277.587 202.639 277.587C203.205 277.587 203.604 277.303 203.733 276.92L203.745 276.882H204.479L204.47 276.925C204.325 277.665 203.595 278.251 202.621 278.251ZM202.57 274.265C201.923 274.265 201.416 274.708 201.335 275.543H203.776C203.702 274.674 203.222 274.265 202.57 274.265ZM205.29 278.164V273.688H206.036V274.325H206.053C206.293 273.908 206.748 273.602 207.426 273.602C208.404 273.602 208.97 274.239 208.97 275.259V278.164H208.224V275.392C208.224 274.665 207.885 274.265 207.198 274.265C206.495 274.265 206.036 274.768 206.036 275.53V278.164H205.29ZM211.372 278.251C210.553 278.251 210.149 277.88 210.149 277.024V274.308H209.497V273.688H210.149V272.479H210.921V273.688H211.771V274.308H210.921V277.019C210.921 277.497 211.132 277.63 211.531 277.63C211.621 277.63 211.707 277.618 211.771 277.613V278.22C211.676 278.233 211.518 278.251 211.372 278.251ZM214.374 279.671V273.688H215.121V274.445H215.138C215.417 273.925 215.915 273.602 216.553 273.602C217.694 273.602 218.449 274.514 218.449 275.926V275.93C218.449 277.342 217.686 278.251 216.567 278.251C215.936 278.251 215.417 277.932 215.138 277.416H215.121V279.671H214.374ZM216.408 277.587C217.197 277.587 217.686 276.95 217.686 275.93V275.926C217.686 274.897 217.197 274.265 216.408 274.265C215.653 274.265 215.117 274.923 215.117 275.926V275.93C215.117 276.929 215.657 277.587 216.408 277.587ZM221.04 278.251C219.758 278.251 218.986 277.351 218.986 275.943V275.939C218.986 274.553 219.775 273.602 220.993 273.602C222.211 273.602 222.954 274.51 222.954 275.853V276.129H219.741C219.758 277.05 220.264 277.587 221.058 277.587C221.624 277.587 222.022 277.303 222.151 276.92L222.164 276.882H222.897L222.889 276.925C222.743 277.665 222.014 278.251 221.04 278.251ZM220.989 274.265C220.341 274.265 219.835 274.708 219.754 275.543H222.194C222.121 274.674 221.641 274.265 220.989 274.265ZM223.708 278.164V273.688H224.455V274.445H224.472C224.622 273.929 225.008 273.602 225.51 273.602C225.638 273.602 225.75 273.624 225.81 273.632V274.359C225.75 274.338 225.591 274.317 225.411 274.317C224.832 274.317 224.455 274.721 224.455 275.401V278.164H223.708ZM226.839 272.93C226.582 272.93 226.372 272.72 226.372 272.461C226.372 272.198 226.582 271.992 226.839 271.992C227.101 271.992 227.307 272.198 227.307 272.461C227.307 272.72 227.101 272.93 226.839 272.93ZM226.466 278.164V273.688H227.213V278.164H226.466ZM230.078 278.251C228.838 278.251 228.011 277.351 228.011 275.926V275.917C228.011 274.493 228.843 273.602 230.074 273.602C231.305 273.602 232.141 274.488 232.141 275.917V275.926C232.141 277.355 231.309 278.251 230.078 278.251ZM230.082 277.587C230.867 277.587 231.378 276.976 231.378 275.926V275.917C231.378 274.867 230.863 274.265 230.074 274.265C229.298 274.265 228.774 274.871 228.774 275.917V275.926C228.774 276.981 229.293 277.587 230.082 277.587ZM234.573 278.251C233.432 278.251 232.677 277.338 232.677 275.926V275.922C232.677 274.51 233.441 273.602 234.561 273.602C235.191 273.602 235.71 273.92 235.989 274.437H236.006V271.953H236.752V278.164H236.006V277.407H235.989C235.71 277.928 235.213 278.251 234.573 278.251ZM234.719 277.587C235.474 277.587 236.01 276.929 236.01 275.926V275.922C236.01 274.923 235.47 274.265 234.719 274.265C233.93 274.265 233.441 274.902 233.441 275.922V275.926C233.441 276.955 233.93 277.587 234.719 277.587Z" fill="white" fill-opacity="0.3"/>
<path d="M226.953 12.9775C226.953 13.5 226.953 13.3209 226.953 13.7266C226.953 14.1323 226.953 14.1279 226.953 14.4467L226.953 13.7121V12.9775ZM345.025 168.985C345.311 169.272 345.775 169.272 346.061 168.985L350.719 164.31C351.005 164.023 351.005 163.558 350.719 163.271C350.433 162.985 349.97 162.985 349.684 163.271L345.543 167.427L341.402 163.271C341.116 162.985 340.652 162.985 340.366 163.271C340.081 163.558 340.081 164.023 340.366 164.31L345.025 168.985ZM226.953 14.4467H344.567V12.9775H226.953V13.7121L226.953 14.4467ZM344.811 14.6916V168.466H346.275V14.6916H344.811ZM344.567 14.4467C344.701 14.4467 344.811 14.5564 344.811 14.6916H346.275C346.275 13.7449 345.51 12.9775 344.567 12.9775V14.4467Z" fill="white" fill-opacity="0.3"/>
<path d="M78.2607 173.413C78.2607 176.298 80.5916 178.637 83.4666 178.637C86.3417 178.637 88.6726 176.298 88.6726 173.413C88.6726 170.528 86.3417 168.189 83.4666 168.189C80.5916 168.189 78.2607 170.528 78.2607 173.413ZM320.328 197.849C320.328 200.734 322.659 203.073 325.534 203.073C328.409 203.073 330.74 200.734 330.74 197.849C330.74 194.964 328.409 192.625 325.534 192.625C322.659 192.625 320.328 194.964 320.328 197.849ZM83.0723 174.308L103.843 183.518L104.632 181.726L83.861 172.517L83.0723 174.308ZM106.701 182.53L116.78 163.641L115.058 162.717L104.98 181.606L106.701 182.53ZM117.089 163.508L131.213 167.366L131.726 165.476L117.602 161.617L117.089 163.508ZM133.298 166.859L170.37 132.789L169.052 131.344L131.98 165.414L133.298 166.859ZM170.81 132.905L187.535 184.191L189.39 183.582L172.665 132.296L170.81 132.905ZM189.056 185.648L214.745 192.758L215.264 190.87L189.575 183.759L189.056 185.648ZM217.176 191.858L233.554 167.591L231.937 166.493L215.56 190.76L217.176 191.858ZM233.731 167.476L257.064 163.412L256.73 161.482L233.397 165.546L233.731 167.476ZM257.341 163.537L266.691 178.946L268.358 177.928L259.009 162.519L257.341 163.537ZM270.656 178.608L288.003 134.691L286.188 133.969L268.841 177.886L270.656 178.608ZM288.517 134.723L303.815 194.355L305.706 193.867L290.408 134.235L288.517 134.723ZM305.655 196.007L325.396 198.819L325.671 196.879L305.93 194.067L305.655 196.007ZM303.815 194.355C304.039 195.228 304.765 195.88 305.655 196.007L305.93 194.067C305.821 194.052 305.732 193.973 305.706 193.867L303.815 194.355ZM288.003 134.691C288.034 134.612 288.075 134.576 288.109 134.555C288.15 134.531 288.207 134.516 288.272 134.52C288.337 134.524 288.391 134.547 288.429 134.576C288.46 134.6 288.496 134.641 288.517 134.723L290.408 134.235C289.871 132.143 286.982 131.961 286.188 133.969L288.003 134.691ZM266.691 178.946C267.645 180.519 269.98 180.319 270.656 178.608L268.841 177.886C268.759 178.095 268.475 178.119 268.358 177.928L266.691 178.946ZM257.064 163.412C257.173 163.392 257.283 163.442 257.341 163.537L259.009 162.519C258.533 161.736 257.629 161.324 256.73 161.482L257.064 163.412ZM233.554 167.591C233.595 167.53 233.659 167.489 233.731 167.476L233.397 165.546C232.803 165.65 232.276 165.991 231.937 166.493L233.554 167.591ZM214.745 192.758C215.664 193.012 216.642 192.65 217.176 191.858L215.56 190.76C215.495 190.856 215.376 190.9 215.264 190.87L214.745 192.758ZM187.535 184.191C187.767 184.902 188.338 185.449 189.056 185.648L189.575 183.759C189.488 183.735 189.418 183.669 189.39 183.582L187.535 184.191ZM170.37 132.789C170.516 132.656 170.749 132.718 170.81 132.905L172.665 132.296C172.163 130.755 170.243 130.25 169.052 131.344L170.37 132.789ZM131.213 167.366C131.949 167.567 132.736 167.375 133.298 166.859L131.98 165.414C131.911 165.477 131.816 165.5 131.726 165.476L131.213 167.366ZM116.78 163.641C116.839 163.53 116.968 163.474 117.089 163.508L117.602 161.617C116.602 161.344 115.547 161.8 115.058 162.717L116.78 163.641ZM103.843 183.518C104.906 183.989 106.152 183.559 106.701 182.53L104.98 181.606C104.913 181.731 104.761 181.784 104.632 181.726L103.843 183.518Z" fill="white"/>
<path d="M400.692 172.873H333.342C329.03 172.873 325.534 176.381 325.534 180.709V278.164C325.534 282.492 329.03 286 333.342 286H400.692C405.004 286 408.5 282.492 408.5 278.164V180.709C408.5 176.381 405.004 172.873 400.692 172.873Z" fill="#17EC20"/>
<path d="M353.412 226.009V217.626H353.385L350.836 219.407V218.195L353.399 216.347H354.573V226.009H353.412ZM360.371 226.17C358.156 226.17 356.841 224.248 356.841 221.182V221.168C356.841 218.102 358.156 216.187 360.371 216.187C362.586 216.187 363.914 218.102 363.914 221.168V221.182C363.914 224.248 362.586 226.17 360.371 226.17ZM360.371 225.119C361.839 225.119 362.707 223.605 362.707 221.182V221.168C362.707 218.744 361.839 217.245 360.371 217.245C358.903 217.245 358.049 218.744 358.049 221.168V221.182C358.049 223.605 358.903 225.119 360.371 225.119ZM368.658 226.17C366.443 226.17 365.129 224.248 365.129 221.182V221.168C365.129 218.102 366.443 216.187 368.658 216.187C370.873 216.187 372.201 218.102 372.201 221.168V221.182C372.201 224.248 370.873 226.17 368.658 226.17ZM368.658 225.119C370.126 225.119 370.993 223.605 370.993 221.182V221.168C370.993 218.744 370.126 217.245 368.658 217.245C367.19 217.245 366.336 218.744 366.336 221.168V221.182C366.336 223.605 367.19 225.119 368.658 225.119ZM375.364 221.115C374.15 221.115 373.416 220.184 373.416 218.691V218.684C373.416 217.198 374.15 216.267 375.364 216.267C376.579 216.267 377.313 217.198 377.313 218.684V218.691C377.313 220.184 376.579 221.115 375.364 221.115ZM375.798 226.009H374.703L380.882 216.347H381.963L375.798 226.009ZM375.364 220.311C376.011 220.311 376.385 219.709 376.385 218.691V218.684C376.385 217.666 376.011 217.07 375.364 217.07C374.717 217.07 374.343 217.666 374.343 218.684V218.691C374.343 219.709 374.717 220.311 375.364 220.311ZM381.296 226.089C380.082 226.089 379.348 225.159 379.348 223.666V223.659C379.348 222.172 380.082 221.242 381.296 221.242C382.51 221.242 383.244 222.172 383.244 223.659V223.666C383.244 225.159 382.51 226.089 381.296 226.089ZM381.296 225.286C381.943 225.286 382.317 224.683 382.317 223.666V223.659C382.317 222.641 381.943 222.045 381.296 222.045C380.649 222.045 380.275 222.641 380.275 223.659V223.666C380.275 224.683 380.649 225.286 381.296 225.286ZM348.975 242.66V232.998H352.585C354.44 232.998 355.654 234.136 355.654 235.877V235.891C355.654 237.23 354.92 238.267 353.719 238.649L355.947 242.66H354.54L352.478 238.836H350.176V242.66H348.975ZM350.176 237.772H352.478C353.712 237.772 354.413 237.102 354.413 235.917V235.904C354.413 234.753 353.659 234.069 352.425 234.069H350.176V237.772ZM359.844 242.793C357.849 242.793 356.648 241.394 356.648 239.205V239.198C356.648 237.042 357.876 235.563 359.77 235.563C361.666 235.563 362.82 236.975 362.82 239.064V239.493H357.822C357.849 240.926 358.636 241.762 359.871 241.762C360.751 241.762 361.372 241.321 361.572 240.725L361.592 240.664H362.733L362.72 240.731C362.493 241.883 361.359 242.793 359.844 242.793ZM359.764 236.593C358.756 236.593 357.969 237.283 357.842 238.582H361.639C361.525 237.23 360.778 236.593 359.764 236.593ZM366.25 242.793C364.975 242.793 364.348 242.218 364.348 240.885V236.661H363.334V235.696H364.348V233.815H365.549V235.696H366.87V236.661H365.549V240.879C365.549 241.622 365.876 241.83 366.497 241.83C366.637 241.83 366.77 241.809 366.87 241.803V242.747C366.723 242.767 366.477 242.793 366.25 242.793ZM370.486 242.793C368.965 242.793 368.085 241.803 368.085 240.216V235.696H369.245V240.008C369.245 241.14 369.772 241.762 370.84 241.762C371.934 241.762 372.648 240.979 372.648 239.794V235.696H373.809V242.66H372.648V241.669H372.622C372.248 242.318 371.541 242.793 370.486 242.793ZM375.324 242.66V235.696H376.485V236.875H376.512C376.745 236.071 377.346 235.563 378.127 235.563C378.327 235.563 378.5 235.596 378.594 235.61V236.741C378.5 236.708 378.253 236.674 377.973 236.674C377.072 236.674 376.485 237.303 376.485 238.361V242.66H375.324ZM379.541 242.66V235.696H380.702V236.687H380.729C381.102 236.038 381.81 235.563 382.864 235.563C384.385 235.563 385.266 236.553 385.266 238.14V242.66H384.105V238.348C384.105 237.216 383.578 236.593 382.51 236.593C381.416 236.593 380.702 237.377 380.702 238.562V242.66H379.541Z" fill="#0B0528"/>
</g>
<defs>
<clipPath id="clip0_32171_14344">
<rect width="408" height="286" fill="white" transform="translate(0.5)"/>
</clipPath>
</defs>
</svg>
