<svg width="409" height="286" viewBox="0 0 409 286" fill="none" xmlns="http://www.w3.org/2000/svg">
<g clip-path="url(#clip0_32171_14322)">
<path d="M215.263 0H11.7416C5.25691 0 0 5.26219 0 11.7534V52.8904C0 59.3816 5.25691 64.6438 11.7416 64.6438H215.263C221.748 64.6438 227.005 59.3816 227.005 52.8904V11.7534C227.005 5.26219 221.748 0 215.263 0Z" fill="white" fill-opacity="0.15"/>
<path d="M19.2474 28.8941V24.7363L15.8228 19.2326H17.1939L19.8293 23.5713H19.8695L22.5048 19.2326H23.876L20.4514 24.7363V28.8941H19.2474ZM26.4111 29.028C24.478 29.028 23.1871 27.6287 23.1871 25.4125V25.3991C23.1871 23.1829 24.4847 21.7969 26.4044 21.7969C28.324 21.7969 29.6283 23.1762 29.6283 25.3991V25.4125C29.6283 27.6354 28.3307 29.028 26.4111 29.028ZM26.4177 27.997C27.6418 27.997 28.4378 27.0462 28.4378 25.4125V25.3991C28.4378 23.7654 27.6351 22.828 26.4044 22.828C25.1937 22.828 24.3777 23.7721 24.3777 25.3991V25.4125C24.3777 27.0529 25.187 27.997 26.4177 27.997ZM33.1801 29.028C31.655 29.028 30.7721 28.0371 30.7721 26.4503V21.9308H31.9359V26.2427C31.9359 27.3743 32.4644 27.997 33.5346 27.997C34.6315 27.997 35.3472 27.2136 35.3472 26.0285V21.9308H36.5111V28.8941H35.3472V27.9032H35.3205C34.9459 28.5526 34.2369 29.028 33.1801 29.028ZM38.0294 28.8941V21.9308H39.1932V23.1092H39.22C39.4541 22.3058 40.0561 21.7969 40.8387 21.7969C41.0394 21.7969 41.2132 21.8304 41.3069 21.8438V22.9754C41.2132 22.9419 40.9658 22.9084 40.6849 22.9084C39.7819 22.9084 39.1932 23.5378 39.1932 24.5957V28.8941H38.0294ZM45.066 31.2376V21.9308H46.2298V23.1092H46.2566C46.6913 22.2991 47.4672 21.7969 48.4638 21.7969C50.2429 21.7969 51.4205 23.2163 51.4205 25.4125V25.4192C51.4205 27.6153 50.2297 29.028 48.4839 29.028C47.5007 29.028 46.6913 28.5326 46.2566 27.7291H46.2298V31.2376H45.066ZM48.2364 27.997C49.467 27.997 50.2297 27.006 50.2297 25.4192V25.4125C50.2297 23.8122 49.467 22.828 48.2364 22.828C47.0593 22.828 46.2231 23.8525 46.2231 25.4125V25.4192C46.2231 26.9725 47.0659 27.997 48.2364 27.997ZM52.5976 28.8941V21.9308H53.7615V23.1092H53.7879C54.0223 22.3058 54.624 21.7969 55.4068 21.7969C55.6074 21.7969 55.7816 21.8304 55.875 21.8438V22.9754C55.7816 22.9419 55.534 22.9084 55.2532 22.9084C54.3501 22.9084 53.7615 23.5378 53.7615 24.5957V28.8941H52.5976ZM59.373 29.028C57.4401 29.028 56.1495 27.6287 56.1495 25.4125V25.3991C56.1495 23.1829 57.4469 21.7969 59.3667 21.7969C61.2864 21.7969 62.5907 23.1762 62.5907 25.3991V25.4125C62.5907 27.6354 61.2928 29.028 59.373 29.028ZM59.3799 27.997C60.604 27.997 61.3999 27.0462 61.3999 25.4125V25.3991C61.3999 23.7654 60.5971 22.828 59.3667 22.828C58.1558 22.828 57.3398 23.7721 57.3398 25.3991V25.4125C57.3398 27.0529 58.149 27.997 59.3799 27.997ZM64.1421 28.8941V22.895H63.1724V21.9308H64.1421V21.0738C64.1421 19.7347 64.7644 19.0986 66.0486 19.0986C66.3094 19.0986 66.5839 19.1188 66.7575 19.1455V20.0896C66.6171 20.0695 66.4366 20.0628 66.2561 20.0628C65.6137 20.0628 65.2928 20.3909 65.2928 21.0805V21.9308H66.7243V22.895H65.306V28.8941H64.1421ZM68.5839 20.7524C68.1822 20.7524 67.8544 20.4244 67.8544 20.0226C67.8544 19.6142 68.1822 19.2928 68.5839 19.2928C68.9919 19.2928 69.3128 19.6142 69.3128 20.0226C69.3128 20.4244 68.9919 20.7524 68.5839 20.7524ZM68.0017 28.8941V21.9308H69.1656V28.8941H68.0017ZM73.0114 29.028C71.734 29.028 71.1054 28.4523 71.1054 27.1199V22.895H70.0887V21.9308H71.1054V20.0494H72.3094V21.9308H73.6337V22.895H72.3094V27.1131C72.3094 27.8564 72.6372 28.0639 73.259 28.0639C73.3994 28.0639 73.5334 28.0438 73.6337 28.0371V28.9812C73.4865 29.0013 73.2389 29.028 73.0114 29.028ZM78.349 20.7524C77.9478 20.7524 77.62 20.4244 77.62 20.0226C77.62 19.6142 77.9478 19.2928 78.349 19.2928C78.757 19.2928 79.0784 19.6142 79.0784 20.0226C79.0784 20.4244 78.757 20.7524 78.349 20.7524ZM77.7673 28.8941V21.9308H78.9312V28.8941H77.7673ZM82.9845 29.028C81.3455 29.028 80.3558 28.1911 80.2154 26.9458L80.2086 26.8855H81.3724L81.3861 26.9525C81.5266 27.6488 82.0412 28.0572 82.9913 28.0572C83.9341 28.0572 84.4962 27.6622 84.4962 27.0328V27.0261C84.4962 26.524 84.2354 26.2427 83.4458 26.0486L82.3426 25.7807C81.0314 25.4661 80.3959 24.8568 80.3959 23.8525V23.8457C80.3959 22.6472 81.4463 21.7969 82.9512 21.7969C84.4761 21.7969 85.4458 22.6874 85.5329 23.8525L85.5397 23.9395H84.4292L84.4228 23.8926C84.3289 23.2163 83.8137 22.7678 82.9512 22.7678C82.1082 22.7678 81.5867 23.1762 81.5867 23.7922V23.7989C81.5867 24.2743 81.9008 24.6023 82.6704 24.7898L83.7736 25.0576C85.1782 25.3991 85.687 25.9548 85.687 26.9458V26.9525C85.687 28.171 84.5363 29.028 82.9845 29.028ZM122.769 29.028C120.836 29.028 119.545 27.6287 119.545 25.4125V25.3991C119.545 23.1829 120.843 21.7969 122.763 21.7969C124.682 21.7969 125.987 23.1762 125.987 25.3991V25.4125C125.987 27.6354 124.689 29.028 122.769 29.028ZM122.776 27.997C124 27.997 124.796 27.0462 124.796 25.4125V25.3991C124.796 23.7654 123.993 22.828 122.763 22.828C121.552 22.828 120.736 23.7721 120.736 25.3991V25.4125C120.736 27.0529 121.545 27.997 122.776 27.997ZM127.538 28.8941V22.895H126.568V21.9308H127.538V21.0738C127.538 19.7347 128.16 19.0986 129.445 19.0986C129.705 19.0986 129.98 19.1188 130.154 19.1455V20.0896C130.013 20.0695 129.833 20.0628 129.652 20.0628C129.01 20.0628 128.689 20.3909 128.689 21.0805V21.9308H130.12V22.895H128.702V28.8941H127.538ZM136.394 29.028C135.117 29.028 134.488 28.4523 134.488 27.1199V22.895H133.471V21.9308H134.488V20.0494H135.692V21.9308H137.016V22.895H135.692V27.1131C135.692 27.8564 136.019 28.0639 136.642 28.0639C136.782 28.0639 136.916 28.0438 137.016 28.0371V28.9812C136.869 29.0013 136.622 29.028 136.394 29.028ZM138.327 28.8941V19.2326H139.491V23.0423H139.518C139.892 22.2589 140.648 21.7969 141.685 21.7969C143.163 21.7969 144.173 22.9419 144.173 24.6291V28.8941H143.009V24.83C143.009 23.5713 142.367 22.828 141.284 22.828C140.207 22.828 139.491 23.6449 139.491 24.83V28.8941H138.327ZM148.514 29.028C146.514 29.028 145.31 27.6287 145.31 25.4393V25.4326C145.31 23.2766 146.541 21.7969 148.441 21.7969C150.34 21.7969 151.497 23.2097 151.497 25.2987V25.7272H146.488C146.514 27.16 147.304 27.997 148.541 27.997C149.424 27.997 150.046 27.555 150.246 26.9591L150.266 26.8989H151.41L151.397 26.9658C151.17 28.1175 150.033 29.028 148.514 29.028ZM148.434 22.828C147.424 22.828 146.635 23.5177 146.508 24.8166H150.313C150.2 23.4641 149.451 22.828 148.434 22.828ZM18.7859 45.6787C17.2608 45.6787 16.3779 44.6878 16.3779 43.101V38.5815H17.5418V42.8934C17.5418 44.025 18.0702 44.6476 19.1404 44.6476C20.2373 44.6476 20.953 43.8643 20.953 42.6791V38.5815H22.1169V45.5448H20.953V44.5539H20.9263C20.5517 45.2033 19.8427 45.6787 18.7859 45.6787ZM23.6352 45.5448V38.5815H24.7991V39.5725H24.8258C25.2004 38.923 25.9094 38.4476 26.9662 38.4476C28.4912 38.4476 29.3742 39.4385 29.3742 41.0254V45.5448H28.2103V41.2329C28.2103 40.1014 27.6819 39.4787 26.6117 39.4787C25.5147 39.4787 24.7991 40.2621 24.7991 41.4472V45.5448H23.6352ZM33.4744 45.6787C31.6952 45.6787 30.5179 44.2593 30.5179 42.0632V42.0565C30.5179 39.8604 31.7085 38.4476 33.4543 38.4476C34.4375 38.4476 35.2469 38.9431 35.6817 39.7466H35.7084V35.8833H36.8723V45.5448H35.7084V44.3664H35.6817C35.2469 45.1765 34.471 45.6787 33.4744 45.6787ZM33.7018 44.6476C34.879 44.6476 35.7151 43.6232 35.7151 42.0632V42.0565C35.7151 40.5031 34.8723 39.4787 33.7018 39.4787C32.4711 39.4787 31.7085 40.4696 31.7085 42.0565V42.0632C31.7085 43.6634 32.4711 44.6476 33.7018 44.6476ZM41.3069 45.6787C39.307 45.6787 38.103 44.2794 38.103 42.0899V42.0832C38.103 39.9273 39.3337 38.4476 41.2333 38.4476C43.1329 38.4476 44.2901 39.8604 44.2901 41.9493V42.3779H39.2802C39.307 43.8107 40.0962 44.6476 41.3336 44.6476C42.2166 44.6476 42.8386 44.2057 43.0393 43.6098L43.0594 43.5496H44.2031L44.1897 43.6165C43.9623 44.7682 42.8253 45.6787 41.3069 45.6787ZM41.2266 39.4787C40.2166 39.4787 39.4273 40.1684 39.3003 41.4673H43.1062C42.9925 40.1148 42.2433 39.4787 41.2266 39.4787ZM45.4673 45.5448V38.5815H46.6312V39.7599H46.6579C46.892 38.9565 47.494 38.4476 48.2766 38.4476C48.4772 38.4476 48.6512 38.4811 48.7448 38.4945V39.626C48.6512 39.5925 48.4037 39.559 48.1227 39.559C47.2198 39.559 46.6312 40.1884 46.6312 41.2463V45.5448H45.4673ZM49.7547 45.5448V35.8833H50.9186V45.5448H49.7547ZM53.1593 47.8883C52.9318 47.8883 52.6847 47.8615 52.5374 47.8347V46.8839C52.6377 46.904 52.7713 46.9241 52.9117 46.9241C53.6475 46.9241 54.0555 46.7366 54.3364 45.9465L54.4773 45.5515L51.8951 38.5815H53.1392L55.059 44.3798H55.0859L57.012 38.5815H58.2361L55.5203 45.98C55.0257 47.3124 54.4171 47.8883 53.1593 47.8883ZM59.808 37.4031C59.4068 37.4031 59.079 37.0751 59.079 36.6733C59.079 36.2649 59.4068 35.9435 59.808 35.9435C60.216 35.9435 60.5369 36.2649 60.5369 36.6733C60.5369 37.0751 60.216 37.4031 59.808 37.4031ZM59.2263 45.5448V38.5815H60.3902V45.5448H59.2263ZM61.9753 45.5448V38.5815H63.1392V39.5725H63.1656C63.5403 38.923 64.2492 38.4476 65.306 38.4476C66.8314 38.4476 67.714 39.4385 67.714 41.0254V45.5448H66.5501V41.2329C66.5501 40.1014 66.0217 39.4787 64.9518 39.4787C63.8549 39.4787 63.1392 40.2621 63.1392 41.4472V45.5448H61.9753ZM72.1421 48.0221C70.4229 48.0221 69.3392 47.212 69.1122 46.1809L69.0985 46.1206H70.2693L70.2962 46.1809C70.5168 46.683 71.1788 46.991 72.1288 46.991C73.3529 46.991 74.0481 46.3148 74.0481 45.2368V44.3463H74.0217C73.6068 45.1163 72.804 45.6118 71.8074 45.6118C70.055 45.6118 68.8578 44.1991 68.8578 42.023V42.0163C68.8578 39.8537 70.0687 38.4476 71.8343 38.4476C72.8177 38.4476 73.5936 38.9833 74.0217 39.7599H74.0481V38.5815H75.212V45.3506C75.212 46.9642 74.0281 48.0221 72.1421 48.0221ZM72.0618 44.5806C73.2458 44.5806 74.0481 43.5697 74.0481 42.023V42.0163C74.0481 40.4831 73.2389 39.4787 72.0618 39.4787C70.8245 39.4787 70.0486 40.4696 70.0486 42.0163V42.023C70.0486 43.6032 70.8245 44.5806 72.0618 44.5806ZM81.5598 45.6787C80.1753 45.6787 79.2457 44.8418 79.2457 43.5764V43.5629C79.2457 42.3779 80.1684 41.6347 81.7673 41.5409L83.7604 41.4271V40.8446C83.7604 39.9943 83.2051 39.4787 82.2355 39.4787C81.3392 39.4787 80.777 39.9072 80.6435 40.5299L80.6303 40.5902H79.5065L79.5129 40.5165C79.6132 39.3716 80.6102 38.4476 82.2487 38.4476C83.894 38.4476 84.9243 39.3381 84.9243 40.7308V45.5448H83.7604V44.4133H83.7335C83.3255 45.1765 82.4894 45.6787 81.5598 45.6787ZM80.4361 43.5764C80.4361 44.2459 80.9845 44.6677 81.8206 44.6677C82.9174 44.6677 83.7604 43.9111 83.7604 42.9001V42.331L81.9008 42.4448C80.9713 42.4984 80.4361 42.9135 80.4361 43.5629V43.5764ZM88.8704 45.6787C87.232 45.6787 86.2418 44.8418 86.1014 43.5964L86.095 43.5362H87.2584L87.2721 43.6032C87.4125 44.2994 87.9277 44.7079 88.8773 44.7079C89.8205 44.7079 90.3822 44.3129 90.3822 43.6835V43.6768C90.3822 43.1746 90.1214 42.8934 89.3323 42.6993L88.2286 42.4314C86.9174 42.1167 86.2819 41.5075 86.2819 40.5031V40.4964C86.2819 39.2979 87.3323 38.4476 88.8372 38.4476C90.3621 38.4476 91.3323 39.3381 91.4189 40.5031L91.4257 40.5902H90.3152L90.3088 40.5433C90.2149 39.867 89.7002 39.4184 88.8372 39.4184C87.9942 39.4184 87.4727 39.8269 87.4727 40.4429V40.4496C87.4727 40.9249 87.7873 41.253 88.5564 41.4405L89.6601 41.7083C91.0647 42.0498 91.573 42.6055 91.573 43.5964V43.6032C91.573 44.8217 90.4223 45.6787 88.8704 45.6787ZM95.2515 45.6787C93.6131 45.6787 92.6229 44.8418 92.4825 43.5964L92.4756 43.5362H93.6395L93.6532 43.6032C93.7936 44.2994 94.3088 44.7079 95.2584 44.7079C96.2016 44.7079 96.7633 44.3129 96.7633 43.6835V43.6768C96.7633 43.1746 96.5025 42.8934 95.7134 42.6993L94.6097 42.4314C93.2985 42.1167 92.663 41.5075 92.663 40.5031V40.4964C92.663 39.2979 93.7134 38.4476 95.2183 38.4476C96.7432 38.4476 97.7134 39.3381 97.8 40.5031L97.8068 40.5902H96.6962L96.6899 40.5433C96.5959 39.867 96.0813 39.4184 95.2183 39.4184C94.3753 39.4184 93.8538 39.8269 93.8538 40.4429V40.4496C93.8538 40.9249 94.1679 41.253 94.9374 41.4405L96.0412 41.7083C97.4458 42.0498 97.9541 42.6055 97.9541 43.5964V43.6032C97.9541 44.8217 96.8034 45.6787 95.2515 45.6787ZM102.027 45.6787C100.027 45.6787 98.8234 44.2794 98.8234 42.0899V42.0832C98.8234 39.9273 100.054 38.4476 101.954 38.4476C103.853 38.4476 105.011 39.8604 105.011 41.9493V42.3779H100.001C100.027 43.8107 100.817 44.6476 102.054 44.6476C102.937 44.6476 103.559 44.2057 103.76 43.6098L103.78 43.5496H104.924L104.91 43.6165C104.683 44.7682 103.546 45.6787 102.027 45.6787ZM101.947 39.4787C100.937 39.4787 100.148 40.1684 100.021 41.4673H103.827C103.713 40.1148 102.964 39.4787 101.947 39.4787ZM108.449 45.6787C107.171 45.6787 106.542 45.1029 106.542 43.7705V39.5457H105.525V38.5815H106.542V36.7001H107.746V38.5815H109.07V39.5457H107.746V43.7638C107.746 44.507 108.074 44.7146 108.696 44.7146C108.837 44.7146 108.97 44.6945 109.07 44.6878V45.6318C108.924 45.652 108.676 45.6787 108.449 45.6787ZM110.883 39.2913L110.75 35.8833H111.86L111.726 39.2913H110.883ZM116.268 45.6787C114.629 45.6787 113.639 44.8418 113.499 43.5964L113.492 43.5362H114.656L114.669 43.6032C114.81 44.2994 115.325 44.7079 116.274 44.7079C117.218 44.7079 117.779 44.3129 117.779 43.6835V43.6768C117.779 43.1746 117.519 42.8934 116.729 42.6993L115.626 42.4314C114.315 42.1167 113.679 41.5075 113.679 40.5031V40.4964C113.679 39.2979 114.729 38.4476 116.234 38.4476C117.759 38.4476 118.729 39.3381 118.816 40.5031L118.823 40.5902H117.712L117.706 40.5433C117.612 39.867 117.097 39.4184 116.234 39.4184C115.391 39.4184 114.87 39.8269 114.87 40.4429V40.4496C114.87 40.9249 115.184 41.253 115.953 41.4405L117.057 41.7083C118.462 42.0498 118.97 42.6055 118.97 43.5964V43.6032C118.97 44.8217 117.819 45.6787 116.268 45.6787ZM124.95 45.5448L122.388 38.5815H123.612L125.532 44.3062H125.559L127.485 38.5815H128.696L126.14 45.5448H124.95ZM131.512 45.6787C130.127 45.6787 129.197 44.8418 129.197 43.5764V43.5629C129.197 42.3779 130.12 41.6347 131.719 41.5409L133.712 41.4271V40.8446C133.712 39.9943 133.157 39.4787 132.187 39.4787C131.291 39.4787 130.729 39.9072 130.595 40.5299L130.582 40.5902H129.458L129.465 40.5165C129.565 39.3716 130.562 38.4476 132.2 38.4476C133.846 38.4476 134.876 39.3381 134.876 40.7308V45.5448H133.712V44.4133H133.685C133.277 45.1765 132.441 45.6787 131.512 45.6787ZM130.388 43.5764C130.388 44.2459 130.936 44.6677 131.772 44.6677C132.869 44.6677 133.712 43.9111 133.712 42.9001V42.331L131.853 42.4448C130.923 42.4984 130.388 42.9135 130.388 43.5629V43.5764ZM136.414 45.5448V35.8833H137.578V45.5448H136.414ZM141.524 45.6787C139.999 45.6787 139.116 44.6878 139.116 43.101V38.5815H140.28V42.8934C140.28 44.025 140.809 44.6476 141.879 44.6476C142.976 44.6476 143.692 43.8643 143.692 42.6791V38.5815H144.855V45.5448H143.692V44.5539H143.665C143.29 45.2033 142.582 45.6787 141.524 45.6787ZM149.237 45.6787C147.237 45.6787 146.033 44.2794 146.033 42.0899V42.0832C146.033 39.9273 147.264 38.4476 149.163 38.4476C151.062 38.4476 152.22 39.8604 152.22 41.9493V42.3779H147.21C147.237 43.8107 148.026 44.6476 149.264 44.6476C150.146 44.6476 150.768 44.2057 150.969 43.6098L150.989 43.5496H152.133L152.12 43.6165C151.892 44.7682 150.755 45.6787 149.237 45.6787ZM149.156 39.4787C148.146 39.4787 147.357 40.1684 147.23 41.4673H151.036C150.922 40.1148 150.173 39.4787 149.156 39.4787ZM159.149 48.0221C157.43 48.0221 156.347 47.212 156.119 46.1809L156.106 46.1206H157.277L157.303 46.1809C157.524 46.683 158.186 46.991 159.136 46.991C160.36 46.991 161.056 46.3148 161.056 45.2368V44.3463H161.029C160.614 45.1163 159.811 45.6118 158.815 45.6118C157.062 45.6118 155.865 44.1991 155.865 42.023V42.0163C155.865 39.8537 157.076 38.4476 158.842 38.4476C159.825 38.4476 160.601 38.9833 161.029 39.7599H161.056V38.5815H162.219V45.3506C162.219 46.9642 161.035 48.0221 159.149 48.0221ZM159.069 44.5806C160.253 44.5806 161.056 43.5697 161.056 42.023V42.0163C161.056 40.4831 160.246 39.4787 159.069 39.4787C157.831 39.4787 157.056 40.4696 157.056 42.0163V42.023C157.056 43.6032 157.831 44.5806 159.069 44.5806ZM163.724 45.5448V38.5815H164.888V39.7599H164.915C165.149 38.9565 165.751 38.4476 166.533 38.4476C166.735 38.4476 166.908 38.4811 167.002 38.4945V39.626C166.908 39.5925 166.661 39.559 166.38 39.559C165.477 39.559 164.888 40.1884 164.888 41.2463V45.5448H163.724ZM170.5 45.6787C168.567 45.6787 167.276 44.2794 167.276 42.0632V42.0498C167.276 39.8336 168.574 38.4476 170.493 38.4476C172.413 38.4476 173.717 39.8269 173.717 42.0498V42.0632C173.717 44.2861 172.42 45.6787 170.5 45.6787ZM170.507 44.6476C171.731 44.6476 172.527 43.6969 172.527 42.0632V42.0498C172.527 40.4161 171.724 39.4787 170.493 39.4787C169.283 39.4787 168.467 40.4228 168.467 42.0498V42.0632C168.467 43.7035 169.276 44.6476 170.507 44.6476ZM176.273 45.5448L174.326 38.5815H175.483L176.874 44.2459H176.901L178.473 38.5815H179.597L181.175 44.2459H181.202L182.594 38.5815H183.744L181.804 45.5448H180.62L179.049 40.1549H179.022L177.457 45.5448H176.273ZM186.961 45.6787C185.684 45.6787 185.055 45.1029 185.055 43.7705V39.5457H184.038V38.5815H185.055V36.7001H186.259V38.5815H187.583V39.5457H186.259V43.7638C186.259 44.507 186.587 44.7146 187.209 44.7146C187.349 44.7146 187.483 44.6945 187.583 44.6878V45.6318C187.436 45.652 187.188 45.6787 186.961 45.6787ZM188.894 45.5448V35.8833H190.058V39.693H190.085C190.459 38.9096 191.215 38.4476 192.252 38.4476C193.73 38.4476 194.74 39.5925 194.74 41.2798V45.5448H193.576V41.4807C193.576 40.2219 192.934 39.4787 191.851 39.4787C190.774 39.4787 190.058 40.2955 190.058 41.4807V45.5448H188.894ZM196.934 45.6385C196.506 45.6385 196.172 45.3038 196.172 44.8753C196.172 44.4468 196.506 44.112 196.934 44.112C197.362 44.112 197.697 44.4468 197.697 44.8753C197.697 45.3038 197.362 45.6385 196.934 45.6385Z" fill="white"/>
<path d="M93.0509 29.0549C91.205 29.0549 89.887 27.9034 89.7466 26.3299L89.7402 26.2563H90.9242L90.9305 26.3098C91.0509 27.2673 91.9071 27.9971 93.0646 27.9971C94.3752 27.9971 95.2852 27.0865 95.2852 25.7875V25.7742C95.2784 24.502 94.362 23.5915 93.0846 23.5915C92.4291 23.5915 91.8669 23.7856 91.4389 24.1739C91.2652 24.3347 91.1111 24.5221 90.9844 24.7431H89.9208L90.4159 19.2327H95.9408V20.304H91.4056L91.0778 23.5513H91.1047C91.5592 22.9018 92.362 22.5536 93.2984 22.5536C95.1512 22.5536 96.4892 23.8995 96.4892 25.7541V25.7675C96.4824 27.7025 95.0577 29.0549 93.0509 29.0549ZM102.335 28.8943V26.8856H97.4858V25.7943L101.72 19.2327H103.499V25.8278H104.863V26.8856H103.499V28.8943H102.335ZM98.6761 25.8278H102.335V20.2638H102.295L98.6761 25.801V25.8278ZM107.806 23.9999C106.589 23.9999 105.853 23.0692 105.853 21.5761V21.5694C105.853 20.083 106.589 19.1523 107.806 19.1523C109.024 19.1523 109.76 20.083 109.76 21.5694V21.5761C109.76 23.0692 109.024 23.9999 107.806 23.9999ZM108.241 28.8943H107.144L113.338 19.2327H114.422L108.241 28.8943ZM107.806 23.1964C108.455 23.1964 108.83 22.5938 108.83 21.5761V21.5694C108.83 20.5517 108.455 19.9558 107.806 19.9558C107.157 19.9558 106.783 20.5517 106.783 21.5694V21.5761C106.783 22.5938 107.157 23.1964 107.806 23.1964ZM113.753 28.9746C112.535 28.9746 111.8 28.044 111.8 26.5508V26.5442C111.8 25.0578 112.535 24.1271 113.753 24.1271C114.97 24.1271 115.706 25.0578 115.706 26.5442V26.5508C115.706 28.044 114.97 28.9746 113.753 28.9746ZM113.753 28.1711C114.402 28.1711 114.776 27.5686 114.776 26.5508V26.5442C114.776 25.5264 114.402 24.9305 113.753 24.9305C113.104 24.9305 112.729 25.5264 112.729 26.5442V26.5508C112.729 27.5686 113.104 28.1711 113.753 28.1711Z" fill="#17EC20"/>
<path d="M75.3421 172.873H7.82775C3.5046 172.873 0 176.381 0 180.709V278.164C0 282.492 3.5046 286 7.82775 286H75.3421C79.6652 286 83.1699 282.492 83.1699 278.164V180.709C83.1699 176.381 79.6652 172.873 75.3421 172.873Z" fill="#17EC20"/>
<path d="M10.7295 226.008V216.347H11.9335V226.008H10.7295ZM13.6258 226.008V219.045H14.7896V220.036H14.8164C15.1909 219.387 15.8999 218.911 16.9568 218.911C18.4818 218.911 19.3647 219.902 19.3647 221.489V226.008H18.2008V221.696C18.2008 220.565 17.6724 219.942 16.6022 219.942C15.5053 219.942 14.7896 220.726 14.7896 221.911V226.008H13.6258ZM22.8094 226.008L20.2476 219.045H21.4717L23.3913 224.77H23.4181L25.3444 219.045H26.5551L24 226.008H22.8094ZM30.0667 226.142C28.0667 226.142 26.8628 224.743 26.8628 222.553V222.547C26.8628 220.391 28.0935 218.911 29.9931 218.911C31.8927 218.911 33.0499 220.324 33.0499 222.413V222.841H28.04C28.0667 224.274 28.856 225.111 30.0934 225.111C30.9764 225.111 31.5984 224.67 31.7991 224.074L31.8192 224.013H32.9629L32.9495 224.08C32.7221 225.232 31.585 226.142 30.0667 226.142ZM29.9864 219.942C28.9764 219.942 28.1871 220.632 28.0601 221.931H31.866C31.7522 220.578 31.0031 219.942 29.9864 219.942ZM36.6953 226.142C35.0565 226.142 34.0666 225.305 33.9261 224.06L33.9194 224H35.0832L35.0966 224.067C35.2371 224.763 35.7521 225.172 36.7019 225.172C37.6451 225.172 38.2069 224.776 38.2069 224.147V224.141C38.2069 223.638 37.946 223.357 37.1568 223.163L36.0531 222.895C34.7421 222.58 34.1067 221.971 34.1067 220.967V220.96C34.1067 219.762 35.1568 218.911 36.6618 218.911C38.1868 218.911 39.1567 219.802 39.2436 220.967L39.2503 221.054H38.14L38.1333 221.007C38.0397 220.331 37.5247 219.882 36.6618 219.882C35.819 219.882 35.2973 220.29 35.2973 220.907V220.913C35.2973 221.388 35.6117 221.717 36.3809 221.904L37.4845 222.172C38.8891 222.513 39.3975 223.069 39.3975 224.06V224.067C39.3975 225.285 38.247 226.142 36.6953 226.142ZM42.869 226.142C41.5914 226.142 40.9627 225.567 40.9627 224.234V220.009H39.946V219.045H40.9627V217.164H42.1667V219.045H43.491V220.009H42.1667V224.227C42.1667 224.971 42.4944 225.178 43.1165 225.178C43.2569 225.178 43.3907 225.158 43.491 225.151V226.096C43.3439 226.116 43.0964 226.142 42.869 226.142ZM44.7418 226.008V219.045H45.9056V220.063H45.9324C46.2468 219.373 46.9424 218.911 47.8387 218.911C48.7885 218.911 49.4908 219.4 49.7916 220.25H49.8185C50.2065 219.413 51.0225 218.911 51.9991 218.911C53.3772 218.911 54.2667 219.815 54.2667 221.201V226.008H53.1028V221.469C53.1028 220.511 52.5744 219.942 51.6581 219.942C50.7349 219.942 50.0862 220.632 50.0862 221.583V226.008H48.9223V221.342C48.9223 220.498 48.3604 219.942 47.4976 219.942C46.5745 219.942 45.9056 220.672 45.9056 221.643V226.008H44.7418ZM58.6145 226.142C56.6145 226.142 55.4105 224.743 55.4105 222.553V222.547C55.4105 220.391 56.6409 218.911 58.5406 218.911C60.4403 218.911 61.5974 220.324 61.5974 222.413V222.841H56.5876C56.6145 224.274 57.4036 225.111 58.6409 225.111C59.524 225.111 60.1458 224.67 60.3469 224.074L60.3669 224.013H61.5108L61.4971 224.08C61.2696 225.232 60.1326 226.142 58.6145 226.142ZM58.5343 219.942C57.524 219.942 56.7349 220.632 56.6077 221.931H60.4134C60.2999 220.578 59.5509 219.942 58.5343 219.942ZM62.7744 226.008V219.045H63.9383V220.036H63.9652C64.34 219.387 65.0489 218.911 66.1056 218.911C67.6306 218.911 68.5137 219.902 68.5137 221.489V226.008H67.3498V221.696C67.3498 220.565 66.8214 219.942 65.7509 219.942C64.6541 219.942 63.9383 220.726 63.9383 221.911V226.008H62.7744ZM72.2592 226.142C70.9818 226.142 70.3532 225.567 70.3532 224.234V220.009H69.3366V219.045H70.3532V217.164H71.5572V219.045H72.8815V220.009H71.5572V224.227C71.5572 224.971 71.885 225.178 72.5068 225.178C72.6472 225.178 72.7812 225.158 72.8815 225.151V226.096C72.7343 226.116 72.4867 226.142 72.2592 226.142ZM18.9634 242.659L22.5552 232.997H23.7458L27.331 242.659H26.0668L25.0903 239.894H21.2041L20.2275 242.659H18.9634ZM23.1372 234.444L21.572 238.87H24.7291L23.1639 234.444H23.1372ZM28.2607 242.659V235.696H29.4246V236.713H29.4513C29.7657 236.024 30.4613 235.562 31.3576 235.562C32.3074 235.562 33.0098 236.051 33.3107 236.901H33.3375C33.7254 236.064 34.5415 235.562 35.518 235.562C36.8959 235.562 37.7855 236.466 37.7855 237.852V242.659H36.6217V238.119C36.6217 237.162 36.0933 236.593 35.1769 236.593C34.2538 236.593 33.6051 237.282 33.6051 238.234V242.659H32.4412V237.993C32.4412 237.149 31.8793 236.593 31.0165 236.593C30.0934 236.593 29.4246 237.323 29.4246 238.294V242.659H28.2607ZM42.1533 242.793C40.2202 242.793 38.9293 241.394 38.9293 239.178V239.164C38.9293 236.948 40.2269 235.562 42.1466 235.562C44.0663 235.562 45.3706 236.941 45.3706 239.164V239.178C45.3706 241.401 44.0729 242.793 42.1533 242.793ZM42.16 241.762C43.384 241.762 44.18 240.811 44.18 239.178V239.164C44.18 237.53 43.3773 236.593 42.1466 236.593C40.9359 236.593 40.1199 237.537 40.1199 239.164V239.178C40.1199 240.818 40.9292 241.762 42.16 241.762ZM48.9223 242.793C47.3973 242.793 46.5144 241.802 46.5144 240.215V235.696H47.6782V240.008C47.6782 241.139 48.2066 241.762 49.277 241.762C50.3738 241.762 51.0896 240.978 51.0896 239.793V235.696H52.2535V242.659H51.0896V241.668H51.0627C50.6879 242.318 49.979 242.793 48.9223 242.793ZM53.7716 242.659V235.696H54.9354V236.687H54.9624C55.3366 236.038 56.046 235.562 57.1028 235.562C58.6277 235.562 59.5108 236.553 59.5108 238.139V242.659H58.3469V238.347C58.3469 237.216 57.8185 236.593 56.7481 236.593C55.6512 236.593 54.9354 237.376 54.9354 238.562V242.659H53.7716ZM63.2563 242.793C61.979 242.793 61.3498 242.217 61.3498 240.885V236.66H60.3332V235.696H61.3498V233.814H62.5538V235.696H63.8782V236.66H62.5538V240.878C62.5538 241.621 62.8816 241.829 63.5039 241.829C63.6443 241.829 63.7779 241.809 63.8782 241.802V242.746C63.7314 242.766 63.4838 242.793 63.2563 242.793Z" fill="#0B0528"/>
<path d="M326.564 52.4006C326.564 51.9951 326.235 51.666 325.83 51.666C325.425 51.666 325.097 51.9951 325.097 52.4006H326.564ZM325.83 167.976C323.669 167.976 321.917 169.73 321.917 171.894C321.917 174.057 323.669 175.812 325.83 175.812C327.992 175.812 329.744 174.057 329.744 171.894C329.744 169.73 327.992 167.976 325.83 167.976ZM325.097 54.2674C325.097 54.6734 325.425 55.002 325.83 55.002C326.235 55.0025 326.564 54.6734 326.564 54.2679L325.097 54.2674ZM326.564 58.0021C326.564 57.5961 326.235 57.2675 325.83 57.267C325.425 57.267 325.097 57.5961 325.097 58.0016L326.564 58.0021ZM325.097 61.7358C325.097 62.1417 325.425 62.4703 325.83 62.4703C326.235 62.4708 326.564 62.1417 326.564 61.7363L325.097 61.7358ZM326.564 65.4704C326.564 65.0644 326.235 64.7358 325.83 64.7353C325.425 64.7353 325.097 65.0644 325.097 65.4699L326.564 65.4704ZM325.097 69.2041C325.097 69.6101 325.425 69.9387 325.83 69.9387C326.235 69.9392 326.564 69.6101 326.564 69.2046L325.097 69.2041ZM326.564 72.9387C326.564 72.5328 326.235 72.2041 325.83 72.2037C325.425 72.2037 325.097 72.5328 325.097 72.9382L326.564 72.9387ZM325.097 76.6724C325.097 77.0784 325.425 77.407 325.83 77.407C326.235 77.4075 326.564 77.0784 326.564 76.6729L325.097 76.6724ZM326.564 80.4071C326.564 80.0011 326.235 79.6725 325.83 79.672C325.425 79.672 325.097 80.0011 325.097 80.4066L326.564 80.4071ZM325.097 84.1407C325.097 84.5467 325.425 84.8753 325.83 84.8753C326.235 84.8758 326.564 84.5467 326.564 84.1412L325.097 84.1407ZM326.564 87.8754C326.564 87.4694 326.235 87.1408 325.83 87.1403C325.425 87.1403 325.097 87.4694 325.097 87.8749L326.564 87.8754ZM325.097 91.6091C325.097 92.015 325.425 92.3436 325.83 92.3436C326.235 92.3441 326.564 92.015 326.564 91.6095L325.097 91.6091ZM326.564 95.3437C326.564 94.9377 326.235 94.6091 325.83 94.6086C325.425 94.6086 325.097 94.9377 325.097 95.3432L326.564 95.3437ZM325.097 99.0774C325.097 99.4834 325.425 99.812 325.83 99.812C326.235 99.8125 326.564 99.4834 326.564 99.0779L325.097 99.0774ZM326.564 102.812C326.564 102.406 326.235 102.077 325.83 102.077C325.425 102.077 325.097 102.406 325.097 102.812L326.564 102.812ZM325.097 106.546C325.097 106.952 325.425 107.28 325.83 107.28C326.235 107.281 326.564 106.952 326.564 106.546L325.097 106.546ZM326.564 110.28C326.564 109.874 326.235 109.546 325.83 109.545C325.425 109.545 325.097 109.874 325.097 110.28L326.564 110.28ZM325.097 114.014C325.097 114.42 325.425 114.749 325.83 114.749C326.235 114.749 326.564 114.42 326.564 114.015L325.097 114.014ZM326.564 117.749C326.564 117.343 326.235 117.014 325.83 117.014C325.425 117.014 325.097 117.343 325.097 117.748L326.564 117.749ZM325.097 121.482C325.097 121.888 325.425 122.217 325.83 122.217C326.235 122.217 326.564 121.888 326.564 121.483L325.097 121.482ZM326.564 125.217C326.564 124.811 326.235 124.482 325.83 124.482C325.425 124.482 325.097 124.811 325.097 125.216L326.564 125.217ZM325.097 128.951C325.097 129.357 325.425 129.685 325.83 129.685C326.235 129.686 326.564 129.357 326.564 128.951L325.097 128.951ZM326.564 132.685C326.564 132.279 326.235 131.951 325.83 131.95C325.425 131.95 325.097 132.279 325.097 132.685L326.564 132.685ZM325.097 136.419C325.097 136.825 325.425 137.154 325.83 137.154C326.235 137.154 326.564 136.825 326.564 136.419L325.097 136.419ZM326.564 140.154C326.564 139.748 326.235 139.419 325.83 139.419C325.425 139.419 325.097 139.748 325.097 140.153L326.564 140.154ZM325.097 143.887C325.097 144.293 325.425 144.622 325.83 144.622C326.235 144.622 326.564 144.293 326.564 143.888L325.097 143.887ZM326.564 147.622C326.564 147.216 326.235 146.887 325.83 146.887C325.425 146.887 325.097 147.216 325.097 147.621L326.564 147.622ZM325.097 151.356C325.097 151.762 325.425 152.09 325.83 152.09C326.235 152.091 326.564 151.762 326.564 151.356L325.097 151.356ZM326.564 155.09C326.564 154.684 326.235 154.356 325.83 154.355C325.425 154.355 325.097 154.684 325.097 155.09L326.564 155.09ZM325.097 158.824C325.097 159.23 325.425 159.559 325.83 159.559C326.235 159.559 326.564 159.23 326.564 158.824L325.097 158.824ZM326.564 162.559C326.564 162.153 326.235 161.824 325.83 161.824C325.425 161.824 325.097 162.153 325.097 162.558L326.564 162.559ZM325.097 166.292C325.097 166.698 325.425 167.027 325.83 167.027C326.235 167.027 326.564 166.698 326.564 166.293L325.097 166.292ZM326.564 170.027C326.564 169.621 326.235 169.292 325.83 169.292C325.425 169.292 325.097 169.621 325.097 170.026L326.564 170.027ZM325.097 52.4006V54.2674L326.564 54.2679V52.4006H325.097ZM325.097 58.0016V61.7358L326.564 61.7363V58.0021L325.097 58.0016ZM325.097 65.4699V69.2041L326.564 69.2046V65.4704L325.097 65.4699ZM325.097 72.9382V76.6724L326.564 76.6729V72.9387L325.097 72.9382ZM325.097 80.4066V84.1407L326.564 84.1412V80.4071L325.097 80.4066ZM325.097 87.8749V91.6091L326.564 91.6095V87.8754L325.097 87.8749ZM325.097 95.3432V99.0774L326.564 99.0779V95.3437L325.097 95.3432ZM325.097 102.812V106.546L326.564 106.546V102.812L325.097 102.812ZM325.097 110.28V114.014L326.564 114.015V110.28L325.097 110.28ZM325.097 117.748V121.482L326.564 121.483V117.749L325.097 117.748ZM325.097 125.216V128.951L326.564 128.951V125.217L325.097 125.216ZM325.097 132.685V136.419L326.564 136.419V132.685L325.097 132.685ZM325.097 140.153V143.887L326.564 143.888V140.154L325.097 140.153ZM325.097 147.621V151.356L326.564 151.356V147.622L325.097 147.621ZM325.097 155.09V158.824L326.564 158.824V155.09L325.097 155.09ZM325.097 162.558V166.292L326.564 166.293V162.559L325.097 162.558ZM325.097 170.026V171.894H326.564V170.027L325.097 170.026Z" fill="#17EC20"/>
<path d="M83.1699 171.159C82.7648 171.159 82.436 171.488 82.436 171.893C82.436 172.299 82.7648 172.628 83.1699 172.628V171.159ZM321.916 171.893C321.916 174.057 323.669 175.811 325.83 175.811C327.992 175.811 329.744 174.057 329.744 171.893C329.744 169.73 327.992 167.976 325.83 167.976C323.669 167.976 321.916 169.73 321.916 171.893ZM85.0084 172.628C85.4135 172.628 85.7423 172.299 85.7423 171.893C85.7423 171.488 85.4135 171.159 85.0084 171.159V172.628ZM88.685 171.159C88.2794 171.159 87.9512 171.488 87.9512 171.893C87.9512 172.299 88.2794 172.628 88.685 172.628V171.159ZM92.3616 172.628C92.7667 172.628 93.0955 172.299 93.0955 171.893C93.0955 171.488 92.7667 171.159 92.3616 171.159V172.628ZM96.0382 171.159C95.6331 171.159 95.3044 171.488 95.3044 171.893C95.3044 172.299 95.6331 172.628 96.0382 172.628V171.159ZM99.7148 172.628C100.12 172.628 100.449 172.299 100.449 171.893C100.449 171.488 100.12 171.159 99.7148 171.159V172.628ZM103.391 171.159C102.986 171.159 102.658 171.488 102.658 171.893C102.658 172.299 102.986 172.628 103.391 172.628V171.159ZM107.068 172.628C107.474 172.628 107.802 172.299 107.802 171.893C107.802 171.488 107.474 171.159 107.068 171.159V172.628ZM110.745 171.159C110.34 171.159 110.011 171.488 110.011 171.893C110.011 172.299 110.34 172.628 110.745 172.628V171.159ZM114.422 172.628C114.827 172.628 115.156 172.299 115.156 171.893C115.156 171.488 114.827 171.159 114.422 171.159V172.628ZM118.098 171.159C117.693 171.159 117.364 171.488 117.364 171.893C117.364 172.299 117.693 172.628 118.098 172.628V171.159ZM121.775 172.628C122.18 172.628 122.509 172.299 122.509 171.893C122.509 171.488 122.18 171.159 121.775 171.159V172.628ZM125.451 171.159C125.046 171.159 124.718 171.488 124.718 171.893C124.718 172.299 125.046 172.628 125.451 172.628V171.159ZM129.128 172.628C129.534 172.628 129.862 172.299 129.862 171.893C129.862 171.488 129.534 171.159 129.128 171.159V172.628ZM132.805 171.159C132.4 171.159 132.071 171.488 132.071 171.893C132.071 172.299 132.4 172.628 132.805 172.628V171.159ZM136.482 172.628C136.887 172.628 137.216 172.299 137.216 171.893C137.216 171.488 136.887 171.159 136.482 171.159V172.628ZM140.158 171.159C139.753 171.159 139.424 171.488 139.424 171.893C139.424 172.299 139.753 172.628 140.158 172.628V171.159ZM143.835 172.628C144.24 172.628 144.569 172.299 144.569 171.893C144.569 171.488 144.24 171.159 143.835 171.159V172.628ZM147.512 171.159C147.106 171.159 146.778 171.488 146.778 171.893C146.778 172.299 147.106 172.628 147.512 172.628V171.159ZM151.188 172.628C151.594 172.628 151.922 172.299 151.922 171.893C151.922 171.488 151.594 171.159 151.188 171.159V172.628ZM154.865 171.159C154.46 171.159 154.131 171.488 154.131 171.893C154.131 172.299 154.46 172.628 154.865 172.628V171.159ZM158.542 172.628C158.947 172.628 159.276 172.299 159.276 171.893C159.276 171.488 158.947 171.159 158.542 171.159V172.628ZM162.218 171.159C161.813 171.159 161.485 171.488 161.485 171.893C161.485 172.299 161.813 172.628 162.218 172.628V171.159ZM165.895 172.628C166.3 172.628 166.629 172.299 166.629 171.893C166.629 171.488 166.3 171.159 165.895 171.159V172.628ZM169.572 171.159C169.167 171.159 168.838 171.488 168.838 171.893C168.838 172.299 169.167 172.628 169.572 172.628V171.159ZM173.248 172.628C173.654 172.628 173.982 172.299 173.982 171.893C173.982 171.488 173.654 171.159 173.248 171.159V172.628ZM176.925 171.159C176.52 171.159 176.191 171.488 176.191 171.893C176.191 172.299 176.52 172.628 176.925 172.628V171.159ZM180.602 172.628C181.007 172.628 181.336 172.299 181.336 171.893C181.336 171.488 181.007 171.159 180.602 171.159V172.628ZM184.278 171.159C183.873 171.159 183.545 171.488 183.545 171.893C183.545 172.299 183.873 172.628 184.278 172.628V171.159ZM187.955 172.628C188.36 172.628 188.689 172.299 188.689 171.893C188.689 171.488 188.36 171.159 187.955 171.159V172.628ZM191.632 171.159C191.227 171.159 190.898 171.488 190.898 171.893C190.898 172.299 191.227 172.628 191.632 172.628V171.159ZM195.308 172.628C195.714 172.628 196.042 172.299 196.042 171.893C196.042 171.488 195.714 171.159 195.308 171.159V172.628ZM198.985 171.159C198.58 171.159 198.251 171.488 198.251 171.893C198.251 172.299 198.58 172.628 198.985 172.628V171.159ZM202.661 172.628C203.067 172.628 203.395 172.299 203.395 171.893C203.395 171.488 203.067 171.159 202.661 171.159V172.628ZM206.339 171.159C205.933 171.159 205.605 171.488 205.605 171.893C205.605 172.299 205.933 172.628 206.339 172.628V171.159ZM210.015 172.628C210.42 172.628 210.749 172.299 210.749 171.893C210.749 171.488 210.42 171.159 210.015 171.159V172.628ZM213.692 171.159C213.286 171.159 212.958 171.488 212.958 171.893C212.958 172.299 213.286 172.628 213.692 172.628V171.159ZM217.368 172.628C217.773 172.628 218.102 172.299 218.102 171.893C218.102 171.488 217.773 171.159 217.368 171.159V172.628ZM221.045 171.159C220.64 171.159 220.311 171.488 220.311 171.893C220.311 172.299 220.64 172.628 221.045 172.628V171.159ZM224.722 172.628C225.127 172.628 225.455 172.299 225.455 171.893C225.455 171.488 225.127 171.159 224.722 171.159V172.628ZM228.398 171.159C227.993 171.159 227.664 171.488 227.664 171.893C227.664 172.299 227.993 172.628 228.398 172.628V171.159ZM232.075 172.628C232.48 172.628 232.809 172.299 232.809 171.893C232.809 171.488 232.48 171.159 232.075 171.159V172.628ZM235.752 171.159C235.346 171.159 235.018 171.488 235.018 171.893C235.018 172.299 235.346 172.628 235.752 172.628V171.159ZM239.428 172.628C239.834 172.628 240.162 172.299 240.162 171.893C240.162 171.488 239.834 171.159 239.428 171.159V172.628ZM243.105 171.159C242.7 171.159 242.371 171.488 242.371 171.893C242.371 172.299 242.7 172.628 243.105 172.628V171.159ZM246.782 172.628C247.187 172.628 247.515 172.299 247.515 171.893C247.515 171.488 247.187 171.159 246.782 171.159V172.628ZM250.458 171.159C250.053 171.159 249.724 171.488 249.724 171.893C249.724 172.299 250.053 172.628 250.458 172.628V171.159ZM254.135 172.628C254.54 172.628 254.869 172.299 254.869 171.893C254.869 171.488 254.54 171.159 254.135 171.159V172.628ZM257.812 171.159C257.406 171.159 257.078 171.488 257.078 171.893C257.078 172.299 257.406 172.628 257.812 172.628V171.159ZM261.488 172.628C261.894 172.628 262.222 172.299 262.222 171.893C262.222 171.488 261.894 171.159 261.488 171.159V172.628ZM265.165 171.159C264.76 171.159 264.431 171.488 264.431 171.893C264.431 172.299 264.76 172.628 265.165 172.628V171.159ZM268.842 172.628C269.247 172.628 269.576 172.299 269.576 171.893C269.576 171.488 269.247 171.159 268.842 171.159V172.628ZM272.518 171.159C272.113 171.159 271.784 171.488 271.784 171.893C271.784 172.299 272.113 172.628 272.518 172.628V171.159ZM276.195 172.628C276.6 172.628 276.929 172.299 276.929 171.893C276.929 171.488 276.6 171.159 276.195 171.159V172.628ZM279.871 171.159C279.466 171.159 279.138 171.488 279.138 171.893C279.138 172.299 279.466 172.628 279.871 172.628V171.159ZM283.548 172.628C283.954 172.628 284.282 172.299 284.282 171.893C284.282 171.488 283.954 171.159 283.548 171.159V172.628ZM287.225 171.159C286.82 171.159 286.491 171.488 286.491 171.893C286.491 172.299 286.82 172.628 287.225 172.628V171.159ZM290.902 172.628C291.307 172.628 291.636 172.299 291.636 171.893C291.636 171.488 291.307 171.159 290.902 171.159V172.628ZM294.578 171.159C294.173 171.159 293.844 171.488 293.844 171.893C293.844 172.299 294.173 172.628 294.578 172.628V171.159ZM298.255 172.628C298.66 172.628 298.989 172.299 298.989 171.893C298.989 171.488 298.66 171.159 298.255 171.159V172.628ZM301.932 171.159C301.526 171.159 301.198 171.488 301.198 171.893C301.198 172.299 301.526 172.628 301.932 172.628V171.159ZM305.608 172.628C306.014 172.628 306.342 172.299 306.342 171.893C306.342 171.488 306.014 171.159 305.608 171.159V172.628ZM309.285 171.159C308.88 171.159 308.551 171.488 308.551 171.893C308.551 172.299 308.88 172.628 309.285 172.628V171.159ZM312.962 172.628C313.367 172.628 313.696 172.299 313.696 171.893C313.696 171.488 313.367 171.159 312.962 171.159V172.628ZM316.638 171.159C316.233 171.159 315.905 171.488 315.905 171.893C315.905 172.299 316.233 172.628 316.638 172.628V171.159ZM320.315 172.628C320.72 172.628 321.049 172.299 321.049 171.893C321.049 171.488 320.72 171.159 320.315 171.159V172.628ZM323.992 171.159C323.587 171.159 323.258 171.488 323.258 171.893C323.258 172.299 323.587 172.628 323.992 172.628V171.159ZM83.1699 172.628H85.0084V171.159H83.1699V172.628ZM88.685 172.628H92.3616V171.159H88.685V172.628ZM96.0382 172.628H99.7148V171.159H96.0382V172.628ZM103.391 172.628H107.068V171.159H103.391V172.628ZM110.745 172.628H114.422V171.159H110.745V172.628ZM118.098 172.628H121.775V171.159H118.098V172.628ZM125.451 172.628H129.128V171.159H125.451V172.628ZM132.805 172.628H136.482V171.159H132.805V172.628ZM140.158 172.628H143.835V171.159H140.158V172.628ZM147.512 172.628H151.188V171.159H147.512V172.628ZM154.865 172.628H158.542V171.159H154.865V172.628ZM162.218 172.628H165.895V171.159H162.218V172.628ZM169.572 172.628H173.248V171.159H169.572V172.628ZM176.925 172.628H180.602V171.159H176.925V172.628ZM184.278 172.628H187.955V171.159H184.278V172.628ZM191.632 172.628H195.308V171.159H191.632V172.628ZM198.985 172.628H202.661V171.159H198.985V172.628ZM206.339 172.628H210.015V171.159H206.339V172.628ZM213.692 172.628H217.368V171.159H213.692V172.628ZM221.045 172.628H224.722V171.159H221.045V172.628ZM228.398 172.628H232.075V171.159H228.398V172.628ZM235.752 172.628H239.428V171.159H235.752V172.628ZM243.105 172.628H246.782V171.159H243.105V172.628ZM250.458 172.628H254.135V171.159H250.458V172.628ZM257.812 172.628H261.488V171.159H257.812V172.628ZM265.165 172.628H268.842V171.159H265.165V172.628ZM272.518 172.628H276.195V171.159H272.518V172.628ZM279.871 172.628H283.548V171.159H279.871V172.628ZM287.225 172.628H290.902V171.159H287.225V172.628ZM294.578 172.628H298.255V171.159H294.578V172.628ZM301.932 172.628H305.608V171.159H301.932V172.628ZM309.285 172.628H312.962V171.159H309.285V172.628ZM316.638 172.628H320.315V171.159H316.638V172.628ZM323.992 172.628H325.83V171.159H323.992V172.628Z" fill="#17EC20"/>
<path d="M138.994 97.9453H98.3364C91.8516 97.9453 86.5947 103.207 86.5947 109.699V119.562C86.5947 126.053 91.8516 131.315 98.3364 131.315H138.994C145.478 131.315 150.735 126.053 150.735 119.562V109.699C150.735 103.207 145.478 97.9453 138.994 97.9453Z" fill="white" fill-opacity="0.15"/>
<path d="M103.006 103.822L102.861 104.315V118.608L103.006 118.753L109.634 114.831L103.006 103.822Z" fill="#17EC20"/>
<path d="M103.008 103.822L96.3794 114.831L103.008 118.753V111.816V103.822Z" fill="#17EC20"/>
<path d="M103.007 120.009L102.925 120.109V125.2L103.007 125.439L109.639 116.089L103.007 120.009Z" fill="#17EC20"/>
<path d="M103.008 125.439V120.009L96.3794 116.089L103.008 125.439Z" fill="#17EC20"/>
<path d="M116.612 119.528V109.866H122.592V110.95H117.816V114.05H122.345V115.122H117.816V118.443H122.592V119.528H116.612ZM126.625 119.528V110.95H123.582V109.866H130.873V110.95H127.829V119.528H126.625ZM132.144 119.528V109.866H133.348V114.044H138.645V109.866H139.849V119.528H138.645V115.129H133.348V119.528H132.144Z" fill="white"/>
<path d="M171.834 278.164V271.953H172.608V278.164H171.834ZM173.696 278.164V273.688H174.444V274.325H174.462C174.702 273.908 175.158 273.602 175.837 273.602C176.818 273.602 177.385 274.239 177.385 275.259V278.164H176.637V275.392C176.637 274.665 176.298 274.265 175.609 274.265C174.904 274.265 174.444 274.768 174.444 275.53V278.164H173.696ZM179.6 278.164L177.953 273.688H178.74L179.974 277.368H179.991L181.23 273.688H182.008L180.365 278.164H179.6ZM184.265 278.251C182.98 278.251 182.206 277.351 182.206 275.943V275.939C182.206 274.553 182.997 273.602 184.218 273.602C185.439 273.602 186.183 274.51 186.183 275.853V276.129H182.963C182.98 277.05 183.487 277.587 184.283 277.587C184.85 277.587 185.25 277.303 185.379 276.92L185.392 276.882H186.127L186.119 276.925C185.972 277.665 185.241 278.251 184.265 278.251ZM184.214 274.265C183.564 274.265 183.057 274.708 182.975 275.543H185.422C185.349 274.674 184.867 274.265 184.214 274.265ZM188.527 278.251C187.473 278.251 186.837 277.712 186.746 276.912L186.742 276.873H187.49L187.499 276.916C187.589 277.364 187.92 277.626 188.531 277.626C189.137 277.626 189.498 277.372 189.498 276.968V276.963C189.498 276.641 189.33 276.46 188.823 276.335L188.114 276.163C187.271 275.961 186.862 275.569 186.862 274.923V274.919C186.862 274.149 187.537 273.602 188.505 273.602C189.486 273.602 190.109 274.175 190.165 274.923L190.169 274.979H189.455L189.451 274.949C189.391 274.514 189.059 274.226 188.505 274.226C187.963 274.226 187.628 274.488 187.628 274.885V274.889C187.628 275.195 187.83 275.405 188.325 275.526L189.034 275.698C189.937 275.917 190.263 276.275 190.263 276.912V276.916C190.263 277.7 189.524 278.251 188.527 278.251ZM192.495 278.251C191.674 278.251 191.27 277.88 191.27 277.024V274.308H190.616V273.688H191.27V272.479H192.044V273.688H192.895V274.308H192.044V277.019C192.044 277.497 192.255 277.63 192.654 277.63C192.745 277.63 192.83 277.618 192.895 277.613V278.22C192.801 278.233 192.642 278.251 192.495 278.251ZM193.699 278.164V273.688H194.447V274.342H194.464C194.667 273.899 195.114 273.602 195.69 273.602C196.301 273.602 196.752 273.916 196.946 274.462H196.963C197.213 273.925 197.737 273.602 198.365 273.602C199.251 273.602 199.822 274.183 199.822 275.074V278.164H199.074V275.246C199.074 274.63 198.735 274.265 198.145 274.265C197.552 274.265 197.135 274.708 197.135 275.319V278.164H196.387V275.164C196.387 274.622 196.026 274.265 195.471 274.265C194.877 274.265 194.447 274.734 194.447 275.358V278.164H193.699ZM202.617 278.251C201.331 278.251 200.557 277.351 200.557 275.943V275.939C200.557 274.553 201.349 273.602 202.57 273.602C203.791 273.602 204.535 274.51 204.535 275.853V276.129H201.314C201.331 277.05 201.839 277.587 202.635 277.587C203.202 277.587 203.602 277.303 203.731 276.92L203.744 276.882H204.479L204.47 276.925C204.325 277.665 203.593 278.251 202.617 278.251ZM202.566 274.265C201.917 274.265 201.409 274.708 201.327 275.543H203.774C203.701 274.674 203.219 274.265 202.566 274.265ZM205.292 278.164V273.688H206.04V274.325H206.057C206.298 273.908 206.754 273.602 207.433 273.602C208.414 273.602 208.981 274.239 208.981 275.259V278.164H208.233V275.392C208.233 274.665 207.893 274.265 207.205 274.265C206.5 274.265 206.04 274.768 206.04 275.53V278.164H205.292ZM211.389 278.251C210.568 278.251 210.164 277.88 210.164 277.024V274.308H209.51V273.688H210.164V272.479H210.938V273.688H211.789V274.308H210.938V277.019C210.938 277.497 211.148 277.63 211.548 277.63C211.639 277.63 211.725 277.618 211.789 277.613V278.22C211.694 278.233 211.535 278.251 211.389 278.251ZM214.399 279.671V273.688H215.147V274.445H215.164C215.444 273.925 215.943 273.602 216.583 273.602C217.727 273.602 218.484 274.514 218.484 275.926V275.93C218.484 277.342 217.719 278.251 216.596 278.251C215.964 278.251 215.444 277.932 215.164 277.416H215.147V279.671H214.399ZM216.437 277.587C217.229 277.587 217.719 276.95 217.719 275.93V275.926C217.719 274.897 217.229 274.265 216.437 274.265C215.681 274.265 215.143 274.923 215.143 275.926V275.93C215.143 276.929 215.685 277.587 216.437 277.587ZM221.081 278.251C219.796 278.251 219.022 277.351 219.022 275.943V275.939C219.022 274.553 219.813 273.602 221.034 273.602C222.255 273.602 222.999 274.51 222.999 275.853V276.129H219.778C219.796 277.05 220.303 277.587 221.098 277.587C221.666 277.587 222.066 277.303 222.195 276.92L222.208 276.882H222.943L222.935 276.925C222.788 277.665 222.057 278.251 221.081 278.251ZM221.029 274.265C220.38 274.265 219.873 274.708 219.791 275.543H222.238C222.164 274.674 221.683 274.265 221.029 274.265ZM223.755 278.164V273.688H224.504V274.445H224.521C224.671 273.929 225.058 273.602 225.562 273.602C225.69 273.602 225.802 273.624 225.863 273.632V274.359C225.802 274.338 225.643 274.317 225.463 274.317C224.882 274.317 224.504 274.721 224.504 275.401V278.164H223.755ZM226.894 272.93C226.637 272.93 226.426 272.72 226.426 272.461C226.426 272.198 226.637 271.992 226.894 271.992C227.157 271.992 227.363 272.198 227.363 272.461C227.363 272.72 227.157 272.93 226.894 272.93ZM226.521 278.164V273.688H227.269V278.164H226.521ZM230.141 278.251C228.898 278.251 228.069 277.351 228.069 275.926V275.917C228.069 274.493 228.903 273.602 230.137 273.602C231.371 273.602 232.209 274.488 232.209 275.917V275.926C232.209 277.355 231.375 278.251 230.141 278.251ZM230.145 277.587C230.932 277.587 231.444 276.976 231.444 275.926V275.917C231.444 274.867 230.928 274.265 230.137 274.265C229.359 274.265 228.834 274.871 228.834 275.917V275.926C228.834 276.981 229.354 277.587 230.145 277.587ZM234.647 278.251C233.503 278.251 232.747 277.338 232.747 275.926V275.922C232.747 274.51 233.512 273.602 234.635 273.602C235.267 273.602 235.787 273.92 236.066 274.437H236.084V271.953H236.832V278.164H236.084V277.407H236.066C235.787 277.928 235.288 278.251 234.647 278.251ZM234.794 277.587C235.55 277.587 236.088 276.929 236.088 275.926V275.922C236.088 274.923 235.546 274.265 234.794 274.265C234.002 274.265 233.512 274.902 233.512 275.922V275.926C233.512 276.955 234.002 277.587 234.794 277.587Z" fill="white" fill-opacity="0.3"/>
<path d="M227 12.978C227 12.5723 227 13.5 227 12.978C226.985 12.8667 227 13.9998 227 14.4472V12.978ZM345.369 84.263C345.656 84.5495 346.121 84.5495 346.408 84.263L351.078 79.5881C351.364 79.3011 351.364 78.8359 351.078 78.5489C350.791 78.2624 350.326 78.2624 350.04 78.5489L345.889 82.7047L341.737 78.5489C341.451 78.2624 340.986 78.2624 340.699 78.5489C340.413 78.8359 340.413 79.3011 340.699 79.5881L345.369 84.263ZM227 14.4472H344.91V12.978H227V14.4472ZM345.155 14.692V83.7434H346.622V14.692H345.155ZM344.91 14.4472C345.045 14.4472 345.155 14.5568 345.155 14.692H346.622C346.622 13.7454 345.856 12.978 344.91 12.978V14.4472Z" fill="white" fill-opacity="0.15"/>
<path d="M78.4404 174.343C78.4404 177.228 80.777 179.567 83.6591 179.567C86.5412 179.567 88.8778 177.228 88.8778 174.343C88.8778 171.458 86.5412 169.119 83.6591 169.119C80.777 169.119 78.4404 171.458 78.4404 174.343ZM328.439 14.2023C328.439 17.0873 330.776 19.426 333.658 19.426C336.54 19.426 338.877 17.0873 338.877 14.2023C338.877 11.3173 336.54 8.97852 333.658 8.97852C330.776 8.97852 328.439 11.3173 328.439 14.2023ZM84.2002 175.159L98.5563 165.624L97.4746 163.992L83.118 173.526L84.2002 175.159ZM98.8645 165.672L116.762 188.068L118.29 186.844L100.392 164.449L98.8645 165.672ZM119.763 188.467L147.79 167.932L146.634 166.351L118.607 186.887L119.763 188.467ZM147.831 167.908L167.932 158.885L167.131 157.097L147.031 166.12L147.831 167.908ZM169.182 157.32L184.435 81.614L182.517 81.2267L167.263 156.932L169.182 157.32ZM184.886 81.6077L214.262 209.414L216.17 208.975L186.794 81.1684L184.886 81.6077ZM218.07 210.331L238.901 185.499L237.402 184.239L216.571 209.072L218.07 210.331ZM239.355 184.596L254.658 119.969L252.754 119.517L237.45 184.144L239.355 184.596ZM255.106 119.964L265.866 160.844L267.759 160.345L256.998 119.464L255.106 119.964ZM267.552 162.434L280.041 164.94L280.425 163.019L267.937 160.513L267.552 162.434ZM282.565 163.428L298.673 110.221L296.8 109.653L280.692 162.86L282.565 163.428ZM298.729 110.126L318.697 89.7807L317.301 88.408L297.333 108.754L298.729 110.126ZM319.279 88.6891L334.616 14.4005L332.699 14.004L317.362 88.2929L319.279 88.6891ZM318.697 89.7807C318.992 89.4805 319.194 89.1015 319.279 88.6891L317.362 88.2929C317.354 88.336 317.332 88.3762 317.301 88.408L318.697 89.7807ZM298.673 110.221C298.684 110.186 298.703 110.153 298.729 110.126L297.333 108.754C297.086 109.006 296.903 109.315 296.8 109.653L298.673 110.221ZM280.041 164.94C281.145 165.162 282.238 164.507 282.565 163.428L280.692 162.86C280.657 162.974 280.542 163.043 280.425 163.019L280.041 164.94ZM265.866 160.844C266.079 161.653 266.733 162.269 267.552 162.434L267.937 160.513C267.85 160.496 267.781 160.431 267.759 160.345L265.866 160.844ZM254.658 119.969C254.677 119.886 254.71 119.853 254.734 119.836C254.765 119.812 254.816 119.792 254.879 119.791C254.943 119.79 254.994 119.809 255.026 119.832C255.05 119.849 255.084 119.881 255.106 119.964L256.998 119.464C256.418 117.26 253.279 117.299 252.754 119.517L254.658 119.969ZM238.901 185.499C239.121 185.237 239.276 184.928 239.355 184.596L237.45 184.144C237.442 184.179 237.425 184.212 237.402 184.239L238.901 185.499ZM214.262 209.414C214.667 211.175 216.909 211.716 218.07 210.331L216.571 209.072C216.449 209.218 216.212 209.161 216.17 208.975L214.262 209.414ZM184.435 81.614C184.453 81.5249 184.486 81.4916 184.508 81.475C184.54 81.451 184.592 81.4294 184.658 81.4284C184.725 81.4275 184.777 81.4475 184.809 81.4706C184.831 81.4872 184.866 81.5195 184.886 81.6077L186.794 81.1684C186.265 78.8716 182.982 78.9161 182.517 81.2267L184.435 81.614ZM167.932 158.885C168.576 158.596 169.042 158.013 169.182 157.32L167.263 156.932C167.248 157.005 167.199 157.067 167.131 157.097L167.932 158.885ZM147.79 167.932C147.803 167.922 147.817 167.915 147.831 167.908L147.031 166.12C146.891 166.183 146.758 166.261 146.634 166.351L147.79 167.932ZM116.762 188.068C117.494 188.984 118.817 189.16 119.763 188.467L118.607 186.887C118.507 186.96 118.367 186.941 118.29 186.844L116.762 188.068ZM98.5563 165.624C98.6561 165.558 98.7897 165.579 98.8645 165.672L100.392 164.449C99.685 163.563 98.4188 163.365 97.4746 163.992L98.5563 165.624Z" fill="white"/>
<path d="M401.172 88.1504H333.658C329.335 88.1504 325.83 91.6585 325.83 95.986V163.078C325.83 167.406 329.335 170.914 333.658 170.914H401.172C405.495 170.914 409 167.406 409 163.078V95.986C409 91.6585 405.495 88.1504 401.172 88.1504Z" fill="#17EC20"/>
<path d="M353.249 134.43V124.768H356.686C358.499 124.768 359.783 126.021 359.783 127.855V127.869C359.783 129.703 358.499 130.982 356.686 130.982H354.453V134.43H353.249ZM356.379 125.84H354.453V129.911H356.379C357.757 129.911 358.553 129.154 358.553 127.882V127.869C358.553 126.597 357.757 125.84 356.379 125.84ZM360.987 134.43V127.467H362.151V128.646H362.178C362.412 127.842 363.014 127.333 363.797 127.333C363.997 127.333 364.171 127.366 364.265 127.38V128.511C364.171 128.478 363.924 128.444 363.643 128.444C362.74 128.444 362.151 129.074 362.151 130.132V134.43H360.987ZM367.763 134.564C365.83 134.564 364.539 133.165 364.539 130.949V130.935C364.539 128.719 365.837 127.333 367.756 127.333C369.676 127.333 370.98 128.712 370.98 130.935V130.949C370.98 133.172 369.683 134.564 367.763 134.564ZM367.77 133.533C368.994 133.533 369.79 132.583 369.79 130.949V130.935C369.79 129.301 368.987 128.364 367.756 128.364C366.546 128.364 365.73 129.308 365.73 130.935V130.949C365.73 132.589 366.539 133.533 367.77 133.533ZM372.532 134.43V128.431H371.563V127.467H372.532V126.61C372.532 125.271 373.154 124.635 374.438 124.635C374.699 124.635 374.973 124.655 375.148 124.682V125.625C375.007 125.605 374.826 125.599 374.646 125.599C374.004 125.599 373.683 125.927 373.683 126.617V127.467H375.114V128.431H373.696V134.43H372.532ZM376.973 126.289C376.572 126.289 376.244 125.96 376.244 125.559C376.244 125.15 376.572 124.829 376.973 124.829C377.381 124.829 377.702 125.15 377.702 125.559C377.702 125.96 377.381 126.289 376.973 126.289ZM376.392 134.43V127.467H377.556V134.43H376.392ZM381.402 134.564C380.124 134.564 379.495 133.989 379.495 132.656V128.431H378.478V127.467H379.495V125.585H380.699V127.467H382.023V128.431H380.699V132.649C380.699 133.393 381.027 133.6 381.649 133.6C381.789 133.6 381.923 133.58 382.023 133.573V134.517C381.877 134.538 381.629 134.564 381.402 134.564Z" fill="#0B0528"/>
<path d="M401.172 172.873H333.658C329.335 172.873 325.83 176.381 325.83 180.709V278.164C325.83 282.492 329.335 286 333.658 286H401.172C405.495 286 409 282.492 409 278.164V180.709C409 176.381 405.495 172.873 401.172 172.873Z" fill="#17EC20"/>
<path d="M336.56 226.008V216.347H337.764V226.008H336.56ZM339.456 226.008V219.045H340.62V220.036H340.647C341.021 219.387 341.73 218.911 342.787 218.911C344.312 218.911 345.195 219.902 345.195 221.489V226.008H344.031V221.696C344.031 220.565 343.503 219.942 342.433 219.942C341.335 219.942 340.62 220.726 340.62 221.911V226.008H339.456ZM348.64 226.008L346.078 219.045H347.302L349.221 224.77H349.248L351.175 219.045H352.385L349.831 226.008H348.64ZM355.897 226.142C353.897 226.142 352.693 224.743 352.693 222.553V222.547C352.693 220.391 353.924 218.911 355.824 218.911C357.723 218.911 358.88 220.324 358.88 222.413V222.841H353.87C353.897 224.274 354.686 225.111 355.924 225.111C356.807 225.111 357.429 224.67 357.629 224.074L357.649 224.013H358.793L358.78 224.08C358.553 225.232 357.416 226.142 355.897 226.142ZM355.817 219.942C354.807 219.942 354.017 220.632 353.89 221.931H357.696C357.582 220.578 356.833 219.942 355.817 219.942ZM362.526 226.142C360.887 226.142 359.897 225.305 359.757 224.06L359.75 224H360.914L360.927 224.067C361.067 224.763 361.582 225.172 362.533 225.172C363.475 225.172 364.037 224.776 364.037 224.147V224.141C364.037 223.638 363.776 223.357 362.987 223.163L361.883 222.895C360.573 222.58 359.937 221.971 359.937 220.967V220.96C359.937 219.762 360.987 218.911 362.492 218.911C364.017 218.911 364.987 219.802 365.074 220.967L365.081 221.054H363.97L363.964 221.007C363.87 220.331 363.355 219.882 362.492 219.882C361.649 219.882 361.127 220.29 361.127 220.907V220.913C361.127 221.388 361.442 221.717 362.211 221.904L363.315 222.172C364.719 222.513 365.228 223.069 365.228 224.06V224.067C365.228 225.285 364.078 226.142 362.526 226.142ZM368.699 226.142C367.422 226.142 366.793 225.567 366.793 224.234V220.009H365.776V219.045H366.793V217.164H367.997V219.045H369.321V220.009H367.997V224.227C367.997 224.971 368.325 225.178 368.947 225.178C369.087 225.178 369.221 225.158 369.321 225.151V226.096C369.174 226.116 368.927 226.142 368.699 226.142ZM370.572 226.008V219.045H371.736V220.063H371.763C372.077 219.373 372.773 218.911 373.669 218.911C374.619 218.911 375.321 219.4 375.622 220.25H375.649C376.037 219.413 376.853 218.911 377.829 218.911C379.208 218.911 380.097 219.815 380.097 221.201V226.008H378.933V221.469C378.933 220.511 378.405 219.942 377.488 219.942C376.565 219.942 375.917 220.632 375.917 221.583V226.008H374.753V221.342C374.753 220.498 374.191 219.942 373.328 219.942C372.405 219.942 371.736 220.672 371.736 221.643V226.008H370.572ZM384.445 226.142C382.445 226.142 381.241 224.743 381.241 222.553V222.547C381.241 220.391 382.471 218.911 384.371 218.911C386.271 218.911 387.428 220.324 387.428 222.413V222.841H382.418C382.445 224.274 383.234 225.111 384.471 225.111C385.354 225.111 385.976 224.67 386.177 224.074L386.197 224.013H387.341L387.327 224.08C387.1 225.232 385.963 226.142 384.445 226.142ZM384.365 219.942C383.354 219.942 382.565 220.632 382.438 221.931H386.244C386.13 220.578 385.381 219.942 384.365 219.942ZM388.605 226.008V219.045H389.769V220.036H389.796C390.17 219.387 390.879 218.911 391.936 218.911C393.461 218.911 394.344 219.902 394.344 221.489V226.008H393.18V221.696C393.18 220.565 392.652 219.942 391.581 219.942C390.484 219.942 389.769 220.726 389.769 221.911V226.008H388.605ZM398.09 226.142C396.812 226.142 396.184 225.567 396.184 224.234V220.009H395.167V219.045H396.184V217.164H397.388V219.045H398.712V220.009H397.388V224.227C397.388 224.971 397.715 225.178 398.337 225.178C398.478 225.178 398.612 225.158 398.712 225.151V226.096C398.565 226.116 398.317 226.142 398.09 226.142ZM344.794 242.659L348.386 232.997H349.576L353.161 242.659H351.897L350.921 239.894H347.035L346.058 242.659H344.794ZM348.968 234.444L347.402 238.87H350.559L348.994 234.444H348.968ZM354.091 242.659V235.696H355.255V236.713H355.282C355.596 236.024 356.292 235.562 357.188 235.562C358.138 235.562 358.84 236.051 359.141 236.901H359.168C359.556 236.064 360.372 235.562 361.349 235.562C362.726 235.562 363.616 236.466 363.616 237.852V242.659H362.452V238.119C362.452 237.162 361.923 236.593 361.007 236.593C360.084 236.593 359.435 237.282 359.435 238.234V242.659H358.272V237.993C358.272 237.149 357.71 236.593 356.847 236.593C355.924 236.593 355.255 237.323 355.255 238.294V242.659H354.091ZM367.984 242.793C366.051 242.793 364.76 241.394 364.76 239.178V239.164C364.76 236.948 366.057 235.562 367.977 235.562C369.896 235.562 371.201 236.941 371.201 239.164V239.178C371.201 241.401 369.903 242.793 367.984 242.793ZM367.99 241.762C369.215 241.762 370.01 240.811 370.01 239.178V239.164C370.01 237.53 369.208 236.593 367.977 236.593C366.766 236.593 365.95 237.537 365.95 239.164V239.178C365.95 240.818 366.76 241.762 367.99 241.762ZM374.753 242.793C373.228 242.793 372.345 241.802 372.345 240.215V235.696H373.509V240.008C373.509 241.139 374.037 241.762 375.107 241.762C376.204 241.762 376.92 240.978 376.92 239.793V235.696H378.084V242.659H376.92V241.668H376.893C376.518 242.318 375.809 242.793 374.753 242.793ZM379.602 242.659V235.696H380.766V236.687H380.793C381.167 236.038 381.876 235.562 382.933 235.562C384.458 235.562 385.341 236.553 385.341 238.139V242.659H384.177V238.347C384.177 237.216 383.649 236.593 382.578 236.593C381.482 236.593 380.766 237.376 380.766 238.562V242.659H379.602ZM389.087 242.793C387.809 242.793 387.18 242.217 387.18 240.885V236.66H386.164V235.696H387.18V233.814H388.384V235.696H389.709V236.66H388.384V240.878C388.384 241.621 388.712 241.829 389.334 241.829C389.475 241.829 389.608 241.809 389.709 241.802V242.746C389.562 242.766 389.314 242.793 389.087 242.793Z" fill="#0B0528"/>
</g>
<defs>
<clipPath id="clip0_32171_14322">
<rect width="409" height="286" fill="white"/>
</clipPath>
</defs>
</svg>
