<svg width="448" height="264" viewBox="0 0 448 264" fill="none" xmlns="http://www.w3.org/2000/svg">
<rect x="2.82324" y="4.23535" width="0.941176" height="26.3529" rx="0.470588" fill="#17EC20"/>
<rect x="27.2939" y="22.1172" width="0.941176" height="16.9412" rx="0.470588" fill="#17EC20"/>
<rect x="50.8242" y="22.1172" width="0.941176" height="10.3529" rx="0.470588" fill="#17EC20"/>
<rect x="289.882" y="137.882" width="0.941176" height="19.7647" rx="0.470588" fill="#17EC20"/>
<rect x="397.176" y="97.4121" width="0.941176" height="19.7647" rx="0.470588" fill="#17EC20"/>
<rect x="408.471" y="91.7646" width="0.941176" height="23.5294" rx="0.470588" fill="#17EC20"/>
<rect x="15.0586" y="0.470703" width="0.941176" height="18.8235" rx="0.470588" fill="#E03F00"/>
<rect x="110.118" y="84.2354" width="0.941176" height="19.7647" rx="0.470588" fill="#E03F00"/>
<rect x="134.588" y="100.234" width="0.941176" height="15.0588" rx="0.470588" fill="#E03F00"/>
<rect x="122.353" y="99.2939" width="0.941176" height="19.7647" rx="0.470588" fill="#E03F00"/>
<rect x="253.176" y="126.588" width="0.941176" height="34.8235" rx="0.470588" fill="#E03F00"/>
<rect x="444.235" y="68.2354" width="0.941176" height="23.5294" rx="0.470588" fill="#E03F00"/>
<rect y="16.4707" width="6.58823" height="3.76471" rx="1" fill="#17EC20"/>
<rect x="23.5293" y="24.9404" width="8.47059" height="7.52941" rx="1" fill="#17EC20"/>
<rect x="47.0586" y="24.9404" width="8.47059" height="7.52941" rx="1" fill="#17EC20"/>
<rect x="286.118" y="148.235" width="8.47059" height="9.41176" rx="1" fill="#17EC20"/>
<rect x="393.412" y="100.234" width="8.47059" height="1.88235" rx="0.941176" fill="#17EC20"/>
<rect x="404.706" y="98.3525" width="8.47059" height="1.88235" rx="0.941176" fill="#17EC20"/>
<rect x="35.7646" y="31.5293" width="8.47059" height="2.82353" rx="1" fill="#17EC20"/>
<rect x="82.8232" y="35.2939" width="8.47059" height="2.82353" rx="1" fill="#17EC20"/>
<rect x="154.353" y="104" width="8.47059" height="7.52941" rx="1" fill="#17EC20"/>
<path d="M23.5293 258.412C23.5293 257.86 23.977 257.412 24.5293 257.412H30.9999C31.5522 257.412 31.9999 257.86 31.9999 258.412V264H23.5293V258.412Z" fill="#17EC20"/>
<path d="M34.8232 262.177C34.8232 261.624 35.271 261.177 35.8232 261.177H42.2938C42.8461 261.177 43.2938 261.624 43.2938 262.177V264H34.8232V262.177Z" fill="#17EC20"/>
<path d="M47.0586 257.471C47.0586 256.918 47.5063 256.471 48.0586 256.471H54.5292C55.0815 256.471 55.5292 256.918 55.5292 257.471V264H47.0586V257.471Z" fill="#17EC20"/>
<path d="M154.353 257.471C154.353 256.918 154.801 256.471 155.353 256.471H161.824C162.376 256.471 162.824 256.918 162.824 257.471V264H154.353V257.471Z" fill="#17EC20"/>
<path d="M190.118 263.117C190.118 262.565 190.565 262.117 191.118 262.117H197.588C198.141 262.117 198.588 262.565 198.588 263.117V264H190.118V263.117Z" fill="#17EC20"/>
<path d="M225.882 263.117C225.882 262.565 226.33 262.117 226.882 262.117H233.353C233.905 262.117 234.353 262.565 234.353 263.117V264H225.882V263.117Z" fill="#17EC20"/>
<path d="M273.882 258.412C273.882 257.86 274.33 257.412 274.882 257.412H281.353C281.905 257.412 282.353 257.86 282.353 258.412V264H273.882V258.412Z" fill="#17EC20"/>
<path d="M286.118 255.588C286.118 255.036 286.565 254.588 287.118 254.588H293.588C294.141 254.588 294.588 255.036 294.588 255.588V264H286.118V255.588Z" fill="#17EC20"/>
<path d="M320.941 260.294C320.941 259.742 321.389 259.294 321.941 259.294H328.412C328.964 259.294 329.412 259.742 329.412 260.294V264H320.941V260.294Z" fill="#17EC20"/>
<path d="M333.176 262.177C333.176 261.624 333.624 261.177 334.176 261.177H340.647C341.199 261.177 341.647 261.624 341.647 262.177V264H333.176V262.177Z" fill="#17EC20"/>
<path d="M368.941 258.412C368.941 257.86 369.389 257.412 369.941 257.412H376.412C376.964 257.412 377.412 257.86 377.412 258.412V264H368.941V258.412Z" fill="#17EC20"/>
<path d="M381.176 258.412C381.176 257.86 381.624 257.412 382.176 257.412H388.647C389.199 257.412 389.647 257.86 389.647 258.412V264H381.176V258.412Z" fill="#17EC20"/>
<path d="M392.471 263.117C392.471 262.565 392.918 262.117 393.471 262.117H399.941C400.494 262.117 400.941 262.565 400.941 263.117V264H392.471V263.117Z" fill="#17EC20"/>
<path d="M404.706 263.117C404.706 262.565 405.153 262.117 405.706 262.117H412.176C412.728 262.117 413.176 262.565 413.176 263.117V264H404.706V263.117Z" fill="#17EC20"/>
<path d="M416.941 258.412C416.941 257.86 417.389 257.412 417.941 257.412H424.412C424.964 257.412 425.412 257.86 425.412 258.412V264H416.941V258.412Z" fill="#17EC20"/>
<path d="M82.8232 263.117C82.8232 262.565 83.271 262.117 83.8232 262.117H90.2938C90.8461 262.117 91.2938 262.565 91.2938 263.117V264H82.8232V263.117Z" fill="#17EC20"/>
<rect x="190.118" y="57.8818" width="8.47059" height="2.82353" rx="1" fill="#17EC20"/>
<rect x="225.882" y="129.411" width="8.47059" height="2.82353" rx="1" fill="#17EC20"/>
<rect x="273.882" y="152.94" width="8.47059" height="7.52941" rx="1" fill="#17EC20"/>
<rect x="320.941" y="121.882" width="8.47059" height="5.64706" rx="1" fill="#17EC20"/>
<rect x="333.176" y="97.4121" width="8.47059" height="3.76471" rx="1" fill="#17EC20"/>
<rect x="368.941" y="89.8818" width="8.47059" height="7.52941" rx="1" fill="#17EC20"/>
<rect x="380.235" y="109.646" width="8.47059" height="7.52941" rx="1" fill="#17EC20"/>
<rect x="416.941" y="121.882" width="8.47059" height="7.52941" rx="1" fill="#17EC20"/>
<rect x="12.2354" y="6.11816" width="6.58823" height="6.58823" rx="1" fill="#E03F00"/>
<rect x="107.294" y="97.4121" width="6.58823" height="1.88235" rx="0.941176" fill="#E03F00"/>
<rect x="131.765" y="113.411" width="6.58823" height="1.88235" rx="0.941176" fill="#E03F00"/>
<rect x="143.059" y="127.529" width="6.58823" height="1.88235" rx="0.941176" fill="#E03F00"/>
<rect x="167.529" y="92.7061" width="6.58823" height="1.88235" rx="0.941176" fill="#E03F00"/>
<rect x="178.824" y="85.1768" width="6.58823" height="1.88235" rx="0.941176" fill="#E03F00"/>
<rect x="203.294" y="60.7051" width="6.58823" height="1.88235" rx="0.941176" fill="#E03F00"/>
<rect x="214.588" y="74.8232" width="7.52941" height="4.70588" rx="1" fill="#E03F00"/>
<rect x="262.588" y="178.353" width="7.52941" height="2.82353" rx="1" fill="#E03F00"/>
<rect x="297.412" y="145.412" width="7.52941" height="2.82353" rx="1" fill="#E03F00"/>
<rect x="345.412" y="102.117" width="7.52941" height="2.82353" rx="1" fill="#E03F00"/>
<rect x="357.647" y="101.177" width="7.52941" height="2.82353" rx="1" fill="#E03F00"/>
<rect x="309.647" y="118.117" width="7.52941" height="6.58823" rx="1" fill="#E03F00"/>
<rect x="429.177" y="117.177" width="7.52941" height="4.70588" rx="1" fill="#E03F00"/>
<rect x="238.118" y="117.177" width="7.52941" height="9.41176" rx="1" fill="#E03F00"/>
<rect x="119.529" y="99.2939" width="6.58823" height="8.47059" rx="1" fill="#E03F00"/>
<rect x="250.353" y="141.646" width="6.58823" height="8.47059" rx="1" fill="#E03F00"/>
<rect x="441.412" y="84.2354" width="6.58823" height="9.41176" rx="1" fill="#E03F00"/>
<rect x="59.2939" y="34.3525" width="7.52941" height="8.47059" rx="1" fill="#E03F00"/>
<rect x="71.5293" y="46.5879" width="7.52941" height="2.82353" rx="1" fill="#E03F00"/>
<rect x="95.0586" y="79.5293" width="7.52941" height="7.52941" rx="1" fill="#E03F00"/>
<path d="M11.2939 261.234C11.2939 260.682 11.7417 260.234 12.2939 260.234H17.8234C18.3756 260.234 18.8234 260.682 18.8234 261.234V263.999H11.2939V261.234Z" fill="#E03F00"/>
<path d="M59.2939 256.529C59.2939 255.977 59.7417 255.529 60.2939 255.529H65.8234C66.3756 255.529 66.8234 255.977 66.8234 256.529V264H59.2939V256.529Z" fill="#E03F00"/>
<path d="M95.0586 258.412C95.0586 257.86 95.5063 257.412 96.0586 257.412H101.588C102.14 257.412 102.588 257.86 102.588 258.412V264H95.0586V258.412Z" fill="#E03F00"/>
<path d="M107.294 263.117C107.294 262.565 107.742 262.117 108.294 262.117H113.823C114.376 262.117 114.823 262.565 114.823 263.117V264H107.294V263.117Z" fill="#E03F00"/>
<path d="M119.529 256.529C119.529 255.977 119.977 255.529 120.529 255.529H126.059C126.611 255.529 127.059 255.977 127.059 256.529V264H119.529V256.529Z" fill="#E03F00"/>
<path d="M130.823 263.117C130.823 262.565 131.271 262.117 131.823 262.117H137.353C137.905 262.117 138.353 262.565 138.353 263.117V264H130.823V263.117Z" fill="#E03F00"/>
<path d="M143.059 263.117C143.059 262.565 143.506 262.117 144.059 262.117H149.588C150.14 262.117 150.588 262.565 150.588 263.117V264H143.059V263.117Z" fill="#E03F00"/>
<path d="M166.588 263.117C166.588 262.565 167.036 262.117 167.588 262.117H173.118C173.67 262.117 174.118 262.565 174.118 263.117V264H166.588V263.117Z" fill="#E03F00"/>
<path d="M178.824 263.117C178.824 262.565 179.271 262.117 179.824 262.117H185.353C185.905 262.117 186.353 262.565 186.353 263.117V264H178.824V263.117Z" fill="#E03F00"/>
<path d="M202.353 263.117C202.353 262.565 202.801 262.117 203.353 262.117H208.882C209.435 262.117 209.882 262.565 209.882 263.117V264H202.353V263.117Z" fill="#E03F00"/>
<path d="M214.588 260.294C214.588 259.742 215.036 259.294 215.588 259.294H221.118C221.67 259.294 222.118 259.742 222.118 260.294V264H214.588V260.294Z" fill="#E03F00"/>
<path d="M238.118 256.529C238.118 255.977 238.565 255.529 239.118 255.529H244.647C245.199 255.529 245.647 255.977 245.647 256.529V264H238.118V256.529Z" fill="#E03F00"/>
<path d="M250.353 258.412C250.353 257.86 250.801 257.412 251.353 257.412H256.882C257.435 257.412 257.882 257.86 257.882 258.412V264H250.353V258.412Z" fill="#E03F00"/>
<path d="M262.588 263.117C262.588 262.565 263.036 262.117 263.588 262.117H269.117C269.67 262.117 270.117 262.565 270.117 263.117V264H262.588V263.117Z" fill="#E03F00"/>
<path d="M298.353 263.117C298.353 262.565 298.8 262.117 299.353 262.117H304.882C305.434 262.117 305.882 262.565 305.882 263.117V264H298.353V263.117Z" fill="#E03F00"/>
<path d="M309.647 258.412C309.647 257.86 310.095 257.412 310.647 257.412H316.176C316.729 257.412 317.176 257.86 317.176 258.412V264H309.647V258.412Z" fill="#E03F00"/>
<path d="M345.412 263.117C345.412 262.565 345.859 262.117 346.412 262.117H351.941C352.493 262.117 352.941 262.565 352.941 263.117V264H345.412V263.117Z" fill="#E03F00"/>
<path d="M357.647 263.117C357.647 262.565 358.095 262.117 358.647 262.117H364.176C364.729 262.117 365.176 262.565 365.176 263.117V264H357.647V263.117Z" fill="#E03F00"/>
<path d="M429.177 260.294C429.177 259.742 429.624 259.294 430.177 259.294H435.706C436.258 259.294 436.706 259.742 436.706 260.294V264H429.177V260.294Z" fill="#E03F00"/>
<path d="M440.471 255.588C440.471 255.036 440.918 254.588 441.471 254.588H447C447.552 254.588 448 255.036 448 255.588V264H440.471V255.588Z" fill="#E03F00"/>
<path d="M71.5293 263.117C71.5293 262.565 71.977 262.117 72.5293 262.117H78.0587C78.611 262.117 79.0587 262.565 79.0587 263.117V264H71.5293V263.117Z" fill="#E03F00"/>
</svg>
