<svg width="448" height="275" viewBox="0 0 448 275" fill="none" xmlns="http://www.w3.org/2000/svg">
<rect x="4.67627" y="177.138" width="0.935282" height="32.8032" rx="0.467641" fill="#17EC20"/>
<rect x="15.8999" y="163.079" width="0.935282" height="26.2426" rx="0.467641" fill="#17EC20"/>
<rect x="28.0586" y="152.77" width="0.935282" height="26.2426" rx="0.467641" fill="#17EC20"/>
<rect x="63.5991" y="101.222" width="0.935282" height="17.8075" rx="0.467641" fill="#17EC20"/>
<rect x="86.9814" y="131.213" width="0.935282" height="15.933" rx="0.467641" fill="#17EC20"/>
<rect x="99.1396" y="103.097" width="0.935282" height="66.5436" rx="0.467641" fill="#17EC20"/>
<rect x="111.298" y="113.405" width="0.935282" height="16.8702" rx="0.467641" fill="#17EC20"/>
<rect x="122.522" y="78.7275" width="0.935282" height="16.8702" rx="0.467641" fill="#17EC20"/>
<rect x="134.681" y="101.222" width="0.935282" height="10.3096" rx="0.467641" fill="#17EC20"/>
<rect x="170.221" y="108.72" width="0.935282" height="41.2383" rx="0.467641" fill="#17EC20"/>
<rect x="193.603" y="104.033" width="0.935282" height="39.3638" rx="0.467641" fill="#17EC20"/>
<rect x="229.144" y="121.841" width="0.935282" height="39.3638" rx="0.467641" fill="#17EC20"/>
<rect x="241.303" y="74.042" width="0.935282" height="39.3638" rx="0.467641" fill="#17EC20"/>
<rect x="252.526" y="72.167" width="0.935282" height="40.3011" rx="0.467641" fill="#17EC20"/>
<rect x="264.685" y="2.8125" width="0.935282" height="96.5351" rx="0.467641" fill="#17EC20"/>
<rect x="276.843" width="0.935282" height="38.4266" rx="0.467641" fill="#17EC20"/>
<rect x="300.226" y="85.2881" width="0.935282" height="29.9915" rx="0.467641" fill="#17EC20"/>
<rect x="324.542" y="89.9746" width="0.935282" height="29.0543" rx="0.467641" fill="#17EC20"/>
<rect x="335.766" y="52.4854" width="0.935282" height="44.9872" rx="0.467641" fill="#17EC20"/>
<rect x="360.083" y="19.6816" width="0.935282" height="53.4224" rx="0.467641" fill="#17EC20"/>
<rect x="394.689" y="27.1797" width="0.935282" height="64.6692" rx="0.467641" fill="#17EC20"/>
<rect x="430.229" y="38.4268" width="0.935282" height="72.167" rx="0.467641" fill="#17EC20"/>
<rect x="442.388" y="49.6738" width="0.935282" height="23.4309" rx="0.467641" fill="#17EC20"/>
<rect x="40.2173" y="152.77" width="0.935282" height="14.0585" rx="0.467641" fill="#E03F00"/>
<rect x="74.8223" y="119.029" width="0.935282" height="25.3053" rx="0.467641" fill="#E03F00"/>
<rect x="145.904" y="102.159" width="0.935282" height="9.37234" rx="0.467641" fill="#E03F00"/>
<rect x="181.445" y="124.652" width="0.935282" height="10.3096" rx="0.467641" fill="#E03F00"/>
<rect x="205.762" y="108.72" width="0.935282" height="21.5564" rx="0.467641" fill="#E03F00"/>
<rect x="216.985" y="121.841" width="0.935282" height="11.2468" rx="0.467641" fill="#E03F00"/>
<rect x="289.002" y="18.7451" width="0.935282" height="11.2468" rx="0.467641" fill="#E03F00"/>
<rect x="312.384" y="86.2256" width="0.935282" height="20.6192" rx="0.467641" fill="#E03F00"/>
<rect x="372.242" y="20.6191" width="0.935282" height="37.4894" rx="0.467641" fill="#E03F00"/>
<rect x="383.466" y="45.9248" width="0.935282" height="36.5521" rx="0.467641" fill="#E03F00"/>
<rect x="406.848" y="32.8037" width="0.935282" height="29.0543" rx="0.467641" fill="#E03F00"/>
<rect x="419.006" y="44.9883" width="0.935282" height="44.9872" rx="0.467641" fill="#E03F00"/>
<rect x="0.935059" y="183.698" width="8.41754" height="16.8702" rx="1" fill="#17EC20"/>
<rect x="12.1587" y="161.205" width="8.41754" height="22.4936" rx="1" fill="#17EC20"/>
<rect x="24.3174" y="163.079" width="8.41754" height="47.7989" rx="1" fill="#17EC20"/>
<rect x="59.8579" y="103.097" width="8.41754" height="51.5479" rx="1" fill="#17EC20"/>
<rect x="47.6992" y="141.522" width="8.41754" height="21.5564" rx="1" fill="#17EC20"/>
<rect x="83.2402" y="135.899" width="8.41754" height="5.62341" rx="1" fill="#17EC20"/>
<rect x="95.3984" y="123.716" width="8.41754" height="25.3053" rx="1" fill="#17EC20"/>
<rect x="107.557" y="119.029" width="8.41754" height="9.37234" rx="1" fill="#17EC20"/>
<rect x="118.781" y="87.1631" width="8.41754" height="33.7404" rx="1" fill="#17EC20"/>
<rect x="130.939" y="104.971" width="8.41754" height="2.8117" rx="1" fill="#17EC20"/>
<rect x="166.48" y="120.903" width="8.41754" height="20.6192" rx="1" fill="#17EC20"/>
<rect x="189.862" y="116.218" width="8.41754" height="23.4309" rx="1" fill="#17EC20"/>
<rect x="225.403" y="116.218" width="8.41754" height="40.3011" rx="1" fill="#17EC20"/>
<rect x="237.562" y="76.8535" width="8.41754" height="23.4309" rx="1" fill="#17EC20"/>
<rect x="248.785" y="75.916" width="8.41754" height="49.6734" rx="1" fill="#17EC20"/>
<rect x="260.943" y="26.2422" width="8.41754" height="49.6734" rx="1" fill="#17EC20"/>
<rect x="273.102" y="19.6816" width="8.41754" height="11.2468" rx="1" fill="#17EC20"/>
<rect x="296.484" y="88.1006" width="8.41754" height="24.3681" rx="1" fill="#17EC20"/>
<rect x="320.802" y="96.5361" width="8.41754" height="10.3096" rx="1" fill="#17EC20"/>
<rect x="332.025" y="77.791" width="8.41754" height="17.8075" rx="1" fill="#17EC20"/>
<rect x="356.342" y="29.9922" width="8.41754" height="41.2383" rx="1" fill="#17EC20"/>
<rect x="390.948" y="41.2383" width="8.41754" height="21.5564" rx="1" fill="#17EC20"/>
<rect x="426.488" y="58.1094" width="8.41754" height="28.117" rx="1" fill="#17EC20"/>
<rect x="438.647" y="52.4854" width="8.41754" height="13.1213" rx="1" fill="#17EC20"/>
<rect x="344.184" y="65.6064" width="8.41754" height="34.6777" rx="1" fill="#17EC20"/>
<path d="M0 239.995C0 239.443 0.447715 238.995 1 238.995H7.41754C7.96982 238.995 8.41754 239.443 8.41754 239.995V274.61H0V239.995Z" fill="#17EC20"/>
<path d="M12.1587 256.865C12.1587 256.313 12.6064 255.865 13.1587 255.865H19.5762C20.1285 255.865 20.5762 256.313 20.5762 256.865V274.61H12.1587V256.865Z" fill="#17EC20"/>
<path d="M24.3174 269.05C24.3174 268.498 24.7651 268.05 25.3174 268.05H31.7349C32.2872 268.05 32.7349 268.498 32.7349 269.05V274.61H24.3174V269.05Z" fill="#17EC20"/>
<path d="M47.6992 269.05C47.6992 268.498 48.1469 268.05 48.6992 268.05H55.1168C55.669 268.05 56.1168 268.498 56.1168 269.05V274.61H47.6992V269.05Z" fill="#17EC20"/>
<path d="M59.8579 226.874C59.8579 226.322 60.3056 225.874 60.8579 225.874H67.2754C67.8277 225.874 68.2754 226.322 68.2754 226.874V274.61H59.8579V226.874Z" fill="#17EC20"/>
<path d="M83.2402 258.739C83.2402 258.187 83.6879 257.739 84.2402 257.739H90.6578C91.2101 257.739 91.6578 258.187 91.6578 258.739V274.609H83.2402V258.739Z" fill="#17EC20"/>
<path d="M95.3984 248.431C95.3984 247.878 95.8462 247.431 96.3984 247.431H102.816C103.368 247.431 103.816 247.878 103.816 248.431V274.61H95.3984V248.431Z" fill="#17EC20"/>
<path d="M107.557 258.739C107.557 258.187 108.005 257.739 108.557 257.739H114.975C115.527 257.739 115.975 258.187 115.975 258.739V274.609H107.557V258.739Z" fill="#17EC20"/>
<path d="M119.716 270.924C119.716 270.372 120.164 269.924 120.716 269.924H127.134C127.686 269.924 128.134 270.372 128.134 270.924V274.61H119.716V270.924Z" fill="#17EC20"/>
<path d="M131.875 268.112C131.875 267.56 132.322 267.112 132.875 267.112H139.292C139.844 267.112 140.292 267.56 140.292 268.112V274.61H131.875V268.112Z" fill="#17EC20"/>
<path d="M166.48 250.305C166.48 249.752 166.928 249.305 167.48 249.305H173.898C174.45 249.305 174.898 249.752 174.898 250.305V274.61H166.48V250.305Z" fill="#17EC20"/>
<path d="M190.797 259.677C190.797 259.124 191.245 258.677 191.797 258.677H198.215C198.767 258.677 199.215 259.124 199.215 259.677V274.61H190.797V259.677Z" fill="#17EC20"/>
<path d="M225.403 227.812C225.403 227.259 225.851 226.812 226.403 226.812H232.82C233.373 226.812 233.82 227.259 233.82 227.812V274.61H225.403V227.812Z" fill="#17EC20"/>
<path d="M237.562 255.929C237.562 255.376 238.009 254.929 238.562 254.929H244.979C245.531 254.929 245.979 255.376 245.979 255.929V274.611H237.562V255.929Z" fill="#17EC20"/>
<path d="M249.72 252.179C249.72 251.626 250.168 251.179 250.72 251.179H257.138C257.69 251.179 258.138 251.626 258.138 252.179V274.61H249.72V252.179Z" fill="#17EC20"/>
<path d="M260.943 190.322C260.943 189.77 261.391 189.322 261.943 189.322H268.361C268.913 189.322 269.361 189.77 269.361 190.322V274.611H260.943V190.322Z" fill="#17EC20"/>
<path d="M273.102 242.807C273.102 242.254 273.55 241.807 274.102 241.807H280.52C281.072 241.807 281.52 242.254 281.52 242.807V274.61H273.102V242.807Z" fill="#17EC20"/>
<path d="M296.484 219.376C296.484 218.824 296.932 218.376 297.484 218.376H303.902C304.454 218.376 304.902 218.824 304.902 219.376V274.61H296.484V219.376Z" fill="#17EC20"/>
<path d="M320.802 251.242C320.802 250.69 321.249 250.242 321.802 250.242H328.219C328.772 250.242 329.219 250.69 329.219 251.242V274.61H320.802V251.242Z" fill="#17EC20"/>
<path d="M332.025 265.301C332.025 264.748 332.473 264.301 333.025 264.301H339.442C339.995 264.301 340.442 264.748 340.442 265.301V274.61H332.025V265.301Z" fill="#17EC20"/>
<path d="M344.184 253.116C344.184 252.564 344.631 252.116 345.184 252.116H351.601C352.153 252.116 352.601 252.564 352.601 253.116V274.61H344.184V253.116Z" fill="#17EC20"/>
<path d="M356.342 239.995C356.342 239.443 356.79 238.995 357.342 238.995H363.76C364.312 238.995 364.76 239.443 364.76 239.995V274.61H356.342V239.995Z" fill="#17EC20"/>
<path d="M391.883 225.937C391.883 225.384 392.331 224.937 392.883 224.937H399.3C399.853 224.937 400.3 225.384 400.3 225.937V274.61H391.883V225.937Z" fill="#17EC20"/>
<path d="M427.424 264.363C427.424 263.811 427.872 263.363 428.424 263.363H434.841C435.394 263.363 435.841 263.811 435.841 264.363V274.61H427.424V264.363Z" fill="#17EC20"/>
<path d="M439.583 245.618C439.583 245.066 440.03 244.618 440.583 244.618H447C447.552 244.618 448 245.066 448 245.618V274.61H439.583V245.618Z" fill="#17EC20"/>
<rect x="36.4761" y="154.645" width="8.41754" height="14.0585" rx="1" fill="#E03F00"/>
<rect x="71.0815" y="120.903" width="8.41754" height="20.6192" rx="1" fill="#E03F00"/>
<rect x="142.163" y="106.845" width="8.41754" height="2.8117" rx="1" fill="#E03F00"/>
<rect x="177.704" y="127.464" width="8.41754" height="2.8117" rx="1" fill="#E03F00"/>
<rect x="202.021" y="115.28" width="8.41754" height="7.49787" rx="1" fill="#E03F00"/>
<rect x="213.244" y="119.966" width="8.41754" height="6.56064" rx="1" fill="#E03F00"/>
<rect x="285.261" y="24.3682" width="8.41754" height="85.2883" rx="1" fill="#E03F00"/>
<rect x="308.643" y="90.9121" width="8.41754" height="14.0585" rx="1" fill="#E03F00"/>
<rect x="368.501" y="27.1797" width="8.41754" height="29.0543" rx="1" fill="#E03F00"/>
<rect x="379.725" y="52.4854" width="8.41754" height="7.49787" rx="1" fill="#E03F00"/>
<rect x="403.106" y="36.5527" width="8.41754" height="7.49787" rx="1" fill="#E03F00"/>
<rect x="415.265" y="42.1758" width="8.41754" height="29.0543" rx="1" fill="#E03F00"/>
<rect x="154.321" y="106.845" width="8.41754" height="28.117" rx="1" fill="#E03F00"/>
<path d="M36.4761 263.426C36.4761 262.873 36.9238 262.426 37.4761 262.426H42.9583C43.5106 262.426 43.9583 262.873 43.9583 263.426V274.61H36.4761V263.426Z" fill="#E03F00"/>
<path d="M72.0166 253.116C72.0166 252.564 72.4643 252.116 73.0166 252.116H78.4989C79.0511 252.116 79.4989 252.564 79.4989 253.116V274.61H72.0166V253.116Z" fill="#E03F00"/>
<path d="M144.033 263.426C144.033 262.873 144.481 262.426 145.033 262.426H150.515C151.068 262.426 151.515 262.873 151.515 263.426V274.61H144.033V263.426Z" fill="#E03F00"/>
<path d="M155.257 261.552C155.257 260.999 155.705 260.552 156.257 260.552H161.739C162.291 260.552 162.739 260.999 162.739 261.552V274.61H155.257V261.552Z" fill="#E03F00"/>
<path d="M178.639 265.301C178.639 264.748 179.086 264.301 179.639 264.301H185.121C185.673 264.301 186.121 264.748 186.121 265.301V274.61H178.639V265.301Z" fill="#E03F00"/>
<path d="M202.956 266.237C202.956 265.685 203.404 265.237 203.956 265.237H209.438C209.991 265.237 210.438 265.685 210.438 266.237V274.61H202.956V266.237Z" fill="#E03F00"/>
<path d="M214.18 254.991C214.18 254.439 214.627 253.991 215.18 253.991H220.662C221.214 253.991 221.662 254.439 221.662 254.991V274.61H214.18V254.991Z" fill="#E03F00"/>
<path d="M285.261 181.887C285.261 181.334 285.708 180.887 286.261 180.887H291.743C292.295 180.887 292.743 181.334 292.743 181.887V274.61H285.261V181.887Z" fill="#E03F00"/>
<path d="M308.643 257.803C308.643 257.25 309.091 256.803 309.643 256.803H315.125C315.678 256.803 316.125 257.25 316.125 257.803V274.61H308.643V257.803Z" fill="#E03F00"/>
<path d="M368.501 250.305C368.501 249.752 368.949 249.305 369.501 249.305H374.983C375.536 249.305 375.983 249.752 375.983 250.305V274.61H368.501V250.305Z" fill="#E03F00"/>
<path d="M379.725 204.38C379.725 203.828 380.172 203.38 380.725 203.38H386.207C386.759 203.38 387.207 203.828 387.207 204.38V274.61H379.725V204.38Z" fill="#E03F00"/>
<path d="M404.042 214.689C404.042 214.137 404.49 213.689 405.042 213.689H410.524C411.077 213.689 411.524 214.137 411.524 214.689V274.61H404.042V214.689Z" fill="#E03F00"/>
<path d="M416.201 232.497C416.201 231.945 416.648 231.497 417.201 231.497H422.683C423.235 231.497 423.683 231.945 423.683 232.497V274.61H416.201V232.497Z" fill="#E03F00"/>
</svg>
