<svg width="409" height="300" viewBox="0 0 409 300" fill="none" xmlns="http://www.w3.org/2000/svg">
<path d="M20.3772 275.721C19.9753 275.721 19.6494 276.044 19.6494 276.442C19.6494 276.84 19.9753 277.163 20.3772 277.163V275.721ZM408.544 276.952C408.828 276.671 408.828 276.214 408.544 275.932L403.913 271.343C403.629 271.062 403.168 271.062 402.883 271.343C402.6 271.625 402.6 272.081 402.883 272.363L407.001 276.442L402.883 280.522C402.6 280.803 402.6 281.26 402.883 281.542C403.168 281.823 403.629 281.823 403.913 281.542L408.544 276.952ZM20.3772 277.163H408.03V275.721H20.3772V277.163Z" fill="white" fill-opacity="0.3"/>
<path d="M19.6495 276.442C19.6495 276.84 19.9753 277.163 20.3773 277.163C20.7792 277.163 21.105 276.84 21.105 276.442H19.6495ZM20.8919 3.8167C20.6077 3.53506 20.1469 3.53506 19.8627 3.8167L15.2312 8.40611C14.947 8.68769 14.947 9.14433 15.2312 9.42596C15.5154 9.7076 15.9763 9.7076 16.2604 9.42596L20.3773 5.34649L24.4941 9.42596C24.7783 9.7076 25.2391 9.7076 25.5233 9.42596C25.8075 9.14433 25.8075 8.68769 25.5233 8.40611L20.8919 3.8167ZM21.105 276.442V4.32664H19.6495V276.442H21.105Z" fill="white" fill-opacity="0.3"/>
<path d="M127.579 76.7217C131.715 80.6812 138.307 80.5685 142.303 76.4698C146.299 72.3712 146.185 65.8388 142.049 61.8793C137.913 57.9198 131.32 58.0325 127.325 62.1312C123.329 66.2298 123.443 72.7622 127.579 76.7217Z" fill="#E03F00"/>
<path d="M228.106 75.0938C232.242 79.0533 238.834 78.9405 242.83 74.8419C246.826 70.7433 246.712 64.2109 242.576 60.2514C238.44 56.2918 231.848 56.4046 227.852 60.5032C223.856 64.6018 223.97 71.1342 228.106 75.0938Z" fill="#3A65FE"/>
<path d="M255.285 101.112C259.421 105.072 266.013 104.959 270.009 100.86C274.005 96.7619 273.891 90.2295 269.755 86.2699C265.619 82.3104 259.026 82.4232 255.031 86.5218C251.035 90.6204 251.149 97.1528 255.285 101.112Z" fill="#3A65FE"/>
<path d="M282.462 127.13C286.598 131.089 293.19 130.977 297.186 126.878C301.182 122.779 301.068 116.247 296.932 112.288C292.796 108.328 286.204 108.441 282.208 112.539C278.212 116.638 278.326 123.17 282.462 127.13Z" fill="#3A65FE"/>
<path d="M284.522 78.2617C288.658 82.2213 295.25 82.1085 299.246 78.0099C303.242 73.9113 303.128 67.3789 298.992 63.4193C294.856 59.4598 288.264 59.5726 284.268 63.6712C280.272 67.7698 280.386 74.3022 284.522 78.2617Z" fill="#3A65FE"/>
<path d="M311.702 104.28C315.838 108.24 322.43 108.127 326.426 104.028C330.422 99.9298 330.308 93.3974 326.172 89.4379C322.036 85.4784 315.443 85.5911 311.448 89.6898C307.452 93.7884 307.566 100.321 311.702 104.28Z" fill="#3A65FE"/>
<path d="M338.879 130.298C343.015 134.257 349.607 134.145 353.603 130.046C357.598 125.947 357.485 119.415 353.349 115.455C349.212 111.496 342.62 111.609 338.624 115.707C334.629 119.806 334.742 126.338 338.879 130.298Z" fill="#3A65FE"/>
<path d="M178.865 80.1279C183.001 84.0875 189.593 83.9747 193.589 79.8761C197.585 75.7775 197.471 69.2451 193.335 65.2856C189.199 61.326 182.606 61.4388 178.611 65.5374C174.615 69.636 174.729 76.1684 178.865 80.1279Z" fill="#3A65FE"/>
<path d="M206.258 106.352C210.394 110.311 216.986 110.198 220.982 106.1C224.978 102.001 224.864 95.4687 220.728 91.5092C216.592 87.5497 210 87.6624 206.004 91.761C202.008 95.8597 202.122 102.392 206.258 106.352Z" fill="#3A65FE"/>
<path d="M233.653 132.576C237.789 136.536 244.381 136.423 248.377 132.324C252.373 128.226 252.259 121.693 248.123 117.734C243.987 113.774 237.395 113.887 233.399 117.986C229.403 122.084 229.517 128.617 233.653 132.576Z" fill="#3A65FE"/>
<path d="M261.046 158.801C265.182 162.76 271.774 162.648 275.77 158.549C279.766 154.45 279.652 147.918 275.516 143.958C271.38 139.999 264.788 140.112 260.792 144.21C256.796 148.309 256.91 154.841 261.046 158.801Z" fill="#3A65FE"/>
<path d="M288.44 185.024C292.576 188.984 299.168 188.871 303.164 184.773C307.16 180.674 307.046 174.142 302.91 170.182C298.773 166.223 292.181 166.335 288.185 170.434C284.19 174.533 284.303 181.065 288.44 185.024Z" fill="#3A65FE"/>
<path d="M315.835 211.249C319.971 215.209 326.563 215.096 330.559 210.997C334.555 206.899 334.441 200.366 330.305 196.407C326.168 192.447 319.576 192.56 315.58 196.659C311.585 200.757 311.698 207.29 315.835 211.249Z" fill="#E08A00"/>
<path d="M157.782 112.757C161.918 116.716 168.511 116.604 172.507 112.505C176.502 108.406 176.388 101.874 172.252 97.9145C168.116 93.9549 161.524 94.0677 157.528 98.1663C153.532 102.265 153.646 108.797 157.782 112.757Z" fill="#3A65FE"/>
<path d="M186.163 139.925C190.299 143.884 196.892 143.772 200.887 139.673C204.883 135.574 204.769 129.042 200.633 125.082C196.497 121.123 189.905 121.236 185.909 125.334C181.913 129.433 182.027 135.965 186.163 139.925Z" fill="#3A65FE"/>
<path d="M214.542 167.093C218.678 171.052 225.27 170.94 229.266 166.841C233.262 162.742 233.148 156.21 229.012 152.25C224.876 148.291 218.284 148.404 214.288 152.502C210.292 156.601 210.406 163.133 214.542 167.093Z" fill="#3A65FE"/>
<path d="M242.922 194.261C247.059 198.22 253.651 198.108 257.647 194.009C261.642 189.91 261.529 183.378 257.392 179.418C253.256 175.459 246.664 175.572 242.668 179.67C238.673 183.769 238.786 190.301 242.922 194.261Z" fill="#3A65FE"/>
<path d="M271.301 221.429C275.438 225.388 282.03 225.275 286.026 221.177C290.021 217.078 289.908 210.546 285.771 206.586C281.635 202.627 275.043 202.74 271.047 206.838C267.051 210.937 267.165 217.469 271.301 221.429Z" fill="#3A65FE"/>
<path d="M124.281 132.937C128.417 136.896 135.009 136.783 139.005 132.685C143.001 128.586 142.887 122.054 138.751 118.094C134.615 114.135 128.023 114.247 124.027 118.346C120.031 122.445 120.145 128.977 124.281 132.937Z" fill="#3A65FE"/>
<path d="M152.277 159.736C156.413 163.696 163.005 163.583 167.001 159.484C170.997 155.386 170.883 148.853 166.747 144.894C162.611 140.934 156.019 141.047 152.023 145.146C148.027 149.244 148.141 155.777 152.277 159.736Z" fill="#3A65FE"/>
<path d="M180.271 186.536C184.407 190.496 190.999 190.383 194.995 186.284C198.991 182.186 198.877 175.653 194.741 171.694C190.605 167.734 184.013 167.847 180.017 171.946C176.021 176.044 176.135 182.577 180.271 186.536Z" fill="#3A65FE"/>
<path d="M208.267 213.336C212.403 217.295 218.995 217.183 222.991 213.084C226.987 208.985 226.873 202.453 222.737 198.494C218.601 194.534 212.008 194.647 208.013 198.745C204.017 202.844 204.131 209.376 208.267 213.336Z" fill="#3A65FE"/>
<path d="M236.263 240.136C240.399 244.095 246.991 243.983 250.987 239.884C254.983 235.785 254.869 229.253 250.733 225.293C246.597 221.334 240.004 221.447 236.009 225.545C232.013 229.644 232.127 236.176 236.263 240.136Z" fill="#3A65FE"/>
<path d="M95.629 156.963C99.7652 160.922 106.357 160.81 110.353 156.711C114.349 152.612 114.235 146.08 110.099 142.121C105.963 138.161 99.3707 138.274 95.3749 142.372C91.3791 146.471 91.4929 153.003 95.629 156.963Z" fill="#17EC20"/>
<path d="M124.893 184.976C129.029 188.935 135.621 188.822 139.617 184.724C143.613 180.625 143.499 174.093 139.363 170.133C135.227 166.174 128.634 166.286 124.639 170.385C120.643 174.484 120.757 181.016 124.893 184.976Z" fill="#3A65FE"/>
<path d="M154.155 212.99C158.291 216.95 164.883 216.837 168.879 212.738C172.875 208.64 172.761 202.107 168.625 198.148C164.489 194.188 157.897 194.301 153.901 198.4C149.905 202.498 150.019 209.031 154.155 212.99Z" fill="#3A65FE"/>
<path d="M183.419 241.003C187.555 244.962 194.147 244.85 198.143 240.751C202.139 236.652 202.025 230.12 197.889 226.161C193.752 222.201 187.16 222.314 183.164 226.412C179.169 230.511 179.282 237.043 183.419 241.003Z" fill="#3A65FE"/>
<path d="M226.26 32.6924H135.368C129.738 32.6924 125.174 37.2149 125.174 42.7937C125.174 48.3726 129.738 52.8951 135.368 52.8951H226.26C231.89 52.8951 236.454 48.3726 236.454 42.7937C236.454 37.2149 231.89 32.6924 226.26 32.6924Z" fill="#E03F00"/>
<path d="M132.508 45.6782L134.562 40.0834H135.509L137.559 45.6782H136.64L136.123 44.1661H133.947L133.427 45.6782H132.508ZM135.027 41.01L134.182 43.4682H135.884L135.043 41.01H135.027ZM139.21 45.6782V40.9441H139.191L137.716 41.9522V41.1302L139.202 40.0834H140.067V45.6782H139.21ZM142.845 43.7861V43.03H146.789V43.7861H142.845ZM150.815 45.7596C149.633 45.7596 148.862 44.9493 148.862 43.6388V43.6311C148.862 42.3283 149.641 41.5218 150.811 41.5218C151.985 41.5218 152.768 42.3244 152.768 43.6311V43.6388C152.768 44.9532 151.993 45.7596 150.815 45.7596ZM150.819 45.0578C151.48 45.0578 151.903 44.5383 151.903 43.6388V43.6311C151.903 42.7393 151.473 42.2236 150.811 42.2236C150.162 42.2236 149.728 42.7393 149.728 43.6311V43.6388C149.728 44.5422 150.158 45.0578 150.819 45.0578ZM153.421 47.0352V41.5994H154.266V42.3011H154.286C154.532 41.8165 154.986 41.5218 155.573 41.5218C156.622 41.5218 157.295 42.336 157.295 43.6388V43.6426C157.295 44.9415 156.617 45.7596 155.585 45.7596C155.002 45.7596 154.528 45.4649 154.286 44.9919H154.266V47.0352H153.421ZM155.354 45.0385C156.019 45.0385 156.434 44.5034 156.434 43.6426V43.6388C156.434 42.7703 156.015 42.2391 155.354 42.2391C154.712 42.2391 154.262 42.7897 154.262 43.6388V43.6426C154.262 44.4879 154.716 45.0385 155.354 45.0385ZM159.396 45.7596C158.582 45.7596 158.19 45.4184 158.19 44.6042V42.2662H157.6V41.5994H158.19V40.537H159.055V41.5994H159.826V42.2662H159.055V44.5538C159.055 44.9686 159.243 45.0927 159.599 45.0927C159.689 45.0927 159.763 45.085 159.826 45.0772V45.7247C159.728 45.7402 159.568 45.7596 159.396 45.7596ZM160.984 40.9713C160.71 40.9713 160.491 40.7542 160.491 40.4905C160.491 40.223 160.71 40.0059 160.984 40.0059C161.262 40.0059 161.477 40.223 161.477 40.4905C161.477 40.7542 161.262 40.9713 160.984 40.9713ZM160.562 45.6782V41.5994H161.407V45.6782H160.562ZM162.279 45.6782V41.5994H163.125V42.2313H163.144C163.32 41.8048 163.739 41.5218 164.279 41.5218C164.846 41.5218 165.261 41.8126 165.425 42.3244H165.445C165.656 41.8281 166.141 41.5218 166.728 41.5218C167.542 41.5218 168.074 42.0569 168.074 42.875V45.6782H167.225V43.0766C167.225 42.5454 166.939 42.2391 166.438 42.2391C165.938 42.2391 165.589 42.6113 165.589 43.127V45.6782H164.76V43.0146C164.76 42.5415 164.459 42.2391 163.981 42.2391C163.481 42.2391 163.125 42.6307 163.125 43.158V45.6782H162.279ZM170.101 45.7519C169.279 45.7519 168.727 45.2517 168.727 44.5189V44.5111C168.727 43.8016 169.283 43.3674 170.258 43.3092L171.376 43.2433V42.937C171.376 42.4873 171.083 42.2159 170.558 42.2159C170.069 42.2159 169.768 42.4446 169.698 42.7703L169.69 42.8052H168.892L168.896 42.7625C168.954 42.0608 169.569 41.5218 170.582 41.5218C171.587 41.5218 172.225 42.0491 172.225 42.8672V45.6782H171.376V45.0346H171.361C171.122 45.4727 170.645 45.7519 170.101 45.7519ZM169.58 44.4995C169.58 44.8562 169.878 45.0811 170.332 45.0811C170.927 45.0811 171.376 44.6818 171.376 44.1506V43.8326L170.371 43.8947C169.862 43.9257 169.58 44.1467 169.58 44.4918V44.4995ZM173.078 45.6782V40.0834H173.924V45.6782H173.078ZM176.42 45.6782V41.5994H177.265V42.2973H177.284C177.418 41.8204 177.762 41.5218 178.231 41.5218C178.353 41.5218 178.458 41.5412 178.525 41.5529V42.3322C178.458 42.305 178.31 42.2857 178.146 42.2857C177.602 42.2857 177.265 42.6385 177.265 43.2472V45.6782H176.42ZM179.507 40.9713C179.233 40.9713 179.014 40.7542 179.014 40.4905C179.014 40.223 179.233 40.0059 179.507 40.0059C179.785 40.0059 180 40.223 180 40.4905C180 40.7542 179.785 40.9713 179.507 40.9713ZM179.084 45.6782V41.5994H179.929V45.6782H179.084ZM182.344 45.7596C181.315 45.7596 180.712 45.2556 180.626 44.5111L180.622 44.4762H181.459L181.467 44.515C181.546 44.8911 181.827 45.1121 182.348 45.1121C182.856 45.1121 183.161 44.9027 183.161 44.5732V44.5693C183.161 44.3057 183.013 44.1545 182.571 44.0498L181.898 43.8985C181.115 43.7202 180.728 43.348 180.728 42.7548V42.7509C180.728 42.022 181.369 41.5218 182.316 41.5218C183.291 41.5218 183.877 42.0608 183.921 42.7548L183.924 42.8013H183.13L183.126 42.7742C183.075 42.4174 182.793 42.1693 182.316 42.1693C181.862 42.1693 181.577 42.3826 181.577 42.7083V42.7122C181.577 42.9641 181.745 43.1348 182.187 43.2394L182.856 43.3907C183.697 43.5845 184.019 43.9141 184.019 44.4995V44.5034C184.019 45.2478 183.314 45.7596 182.344 45.7596ZM184.723 45.6782V40.0834H185.568V43.3402H185.587L187.239 41.5994H188.232L186.542 43.3596L188.299 45.6782H187.317L185.92 43.8636L185.568 44.2087V45.6782H184.723ZM188.577 43.7861V43.03H191.092V43.7861H188.577ZM191.992 45.6782V41.5994H192.838V42.2973H192.857C192.99 41.8204 193.334 41.5218 193.804 41.5218C193.925 41.5218 194.031 41.5412 194.097 41.5529V42.3322C194.031 42.305 193.882 42.2857 193.718 42.2857C193.174 42.2857 192.838 42.6385 192.838 43.2472V45.6782H191.992ZM196.199 45.7596C194.99 45.7596 194.258 44.9415 194.258 43.6543V43.6504C194.258 42.3748 195.001 41.5218 196.156 41.5218C197.31 41.5218 198.018 42.3438 198.018 43.569V43.852H195.103C195.119 44.6236 195.545 45.0734 196.218 45.0734C196.719 45.0734 197.052 44.8174 197.157 44.5111L197.169 44.4801H197.971L197.963 44.5228C197.83 45.1703 197.196 45.7596 196.199 45.7596ZM196.159 42.2081C195.612 42.2081 195.189 42.5764 195.115 43.2588H197.181C197.11 42.5532 196.711 42.2081 196.159 42.2081ZM200.119 45.7596C199.305 45.7596 198.914 45.4184 198.914 44.6042V42.2662H198.323V41.5994H198.914V40.537H199.779V41.5994H200.549V42.2662H199.779V44.5538C199.779 44.9686 199.967 45.0927 200.323 45.0927C200.412 45.0927 200.487 45.085 200.549 45.0772V45.7247C200.452 45.7402 200.291 45.7596 200.119 45.7596ZM202.651 45.7596C201.747 45.7596 201.23 45.1819 201.23 44.2436V41.5994H202.076V44.0808C202.076 44.6973 202.365 45.0385 202.952 45.0385C203.547 45.0385 203.93 44.6159 203.93 43.98V41.5994H204.779V45.6782H203.93V45.0656H203.911C203.695 45.4766 203.276 45.7596 202.651 45.7596ZM205.616 45.6782V41.5994H206.462V42.2973H206.481C206.614 41.8204 206.958 41.5218 207.428 41.5218C207.549 41.5218 207.655 41.5412 207.722 41.5529V42.3322C207.655 42.305 207.506 42.2857 207.342 42.2857C206.798 42.2857 206.462 42.6385 206.462 43.2472V45.6782H205.616ZM208.246 45.6782V41.5994H209.091V42.2159H209.111C209.326 41.801 209.748 41.5218 210.37 41.5218C211.274 41.5218 211.795 42.0996 211.795 43.0378V45.6782H210.946V43.1968C210.946 42.5842 210.656 42.2391 210.069 42.2391C209.475 42.2391 209.091 42.6656 209.091 43.3015V45.6782H208.246ZM214.24 45.6782V41.5994H215.085V42.2973H215.104C215.238 41.8204 215.582 41.5218 216.052 41.5218C216.173 41.5218 216.279 41.5412 216.345 41.5528V42.3322C216.279 42.305 216.13 42.2857 215.966 42.2857C215.422 42.2857 215.085 42.6385 215.085 43.2472V45.6782H214.24ZM217.992 45.7519C217.171 45.7519 216.619 45.2517 216.619 44.5189V44.5111C216.619 43.8016 217.175 43.3674 218.149 43.3092L219.268 43.2433V42.937C219.268 42.4873 218.974 42.2159 218.45 42.2159C217.961 42.2159 217.66 42.4446 217.589 42.7703L217.581 42.8052H216.783L216.787 42.7625C216.846 42.0608 217.46 41.5218 218.474 41.5218C219.479 41.5218 220.117 42.0491 220.117 42.8672V45.6782H219.268V45.0346H219.252C219.014 45.4727 218.536 45.7519 217.992 45.7519ZM217.472 44.4995C217.472 44.8562 217.769 45.0811 218.223 45.0811C218.818 45.0811 219.268 44.6817 219.268 44.1506V43.8326L218.262 43.8947C217.754 43.9257 217.472 44.1467 217.472 44.4918V44.4995ZM222.383 45.7596C221.568 45.7596 221.177 45.4184 221.177 44.6042V42.2662H220.586V41.5994H221.177V40.537H222.042V41.5994H222.813V42.2662H222.042V44.5538C222.042 44.9686 222.23 45.0927 222.586 45.0927C222.676 45.0927 222.75 45.085 222.813 45.0772V45.7247C222.715 45.7402 222.554 45.7596 222.383 45.7596ZM223.971 40.9713C223.697 40.9713 223.478 40.7542 223.478 40.4905C223.478 40.223 223.697 40.0059 223.971 40.0059C224.248 40.0059 224.464 40.223 224.464 40.4905C224.464 40.7542 224.248 40.9713 223.971 40.9713ZM223.548 45.6782V41.5994H224.394V45.6782H223.548ZM227.034 45.7596C225.853 45.7596 225.082 44.9493 225.082 43.6388V43.6311C225.082 42.3283 225.861 41.5218 227.03 41.5218C228.205 41.5218 228.987 42.3244 228.987 43.6311V43.6388C228.987 44.9532 228.212 45.7596 227.034 45.7596ZM227.038 45.0578C227.7 45.0578 228.122 44.5383 228.122 43.6388V43.6311C228.122 42.7393 227.692 42.2236 227.03 42.2236C226.381 42.2236 225.947 42.7393 225.947 43.6311V43.6388C225.947 44.5422 226.377 45.0578 227.038 45.0578Z" fill="white"/>
<path d="M395.586 220.192H318.763C313.133 220.192 308.569 224.715 308.569 230.294C308.569 235.873 313.133 240.395 318.763 240.395H395.586C401.215 240.395 405.779 235.873 405.779 230.294C405.779 224.715 401.215 220.192 395.586 220.192Z" fill="#E08A00"/>
<path d="M316.353 233.178V227.584H319.937V228.332H317.229V229.964H319.792V230.693H317.229V232.43H319.937V233.178H316.353ZM320.426 233.178L321.787 231.143L320.445 229.1H321.396L322.292 230.576H322.311L323.196 229.1H324.131L322.777 231.115L324.115 233.178H323.184L322.273 231.678H322.253L321.341 233.178H320.426ZM326.107 233.26C325.293 233.26 324.902 232.918 324.902 232.104V229.766H324.311V229.1H324.902V228.037H325.766V229.1H326.537V229.766H325.766V232.054C325.766 232.469 325.955 232.593 326.31 232.593C326.4 232.593 326.475 232.585 326.537 232.577V233.225C326.44 233.24 326.279 233.26 326.107 233.26ZM327.238 233.178V229.1H328.083V229.797H328.102C328.235 229.321 328.58 229.022 329.049 229.022C329.171 229.022 329.276 229.041 329.343 229.053V229.832C329.276 229.805 329.128 229.786 328.963 229.786C328.419 229.786 328.083 230.138 328.083 230.747V233.178H327.238ZM331.444 233.26C330.235 233.26 329.503 232.441 329.503 231.154V231.151C329.503 229.875 330.246 229.022 331.401 229.022C332.555 229.022 333.263 229.844 333.263 231.069V231.352H330.348C330.364 232.124 330.79 232.574 331.463 232.574C331.964 232.574 332.297 232.317 332.403 232.011L332.414 231.98H333.216L333.208 232.023C333.075 232.67 332.442 233.26 331.444 233.26ZM331.405 229.708C330.857 229.708 330.434 230.076 330.36 230.759H332.426C332.355 230.053 331.957 229.708 331.405 229.708ZM333.921 233.178V229.1H334.766V229.731H334.785C334.961 229.305 335.38 229.022 335.92 229.022C336.487 229.022 336.902 229.313 337.066 229.825H337.086C337.297 229.328 337.783 229.022 338.369 229.022C339.183 229.022 339.716 229.557 339.716 230.375V233.178H338.866V230.576C338.866 230.046 338.581 229.739 338.08 229.739C337.579 229.739 337.231 230.112 337.231 230.627V233.178H336.401V230.514C336.401 230.042 336.1 229.739 335.623 229.739C335.122 229.739 334.766 230.131 334.766 230.658V233.178H333.921ZM342.29 233.26C341.081 233.26 340.349 232.441 340.349 231.154V231.151C340.349 229.875 341.092 229.022 342.247 229.022C343.401 229.022 344.109 229.844 344.109 231.069V231.352H341.194C341.21 232.124 341.636 232.574 342.309 232.574C342.81 232.574 343.143 232.317 343.249 232.011L343.26 231.98H344.062L344.054 232.023C343.921 232.67 343.288 233.26 342.29 233.26ZM342.251 229.708C341.703 229.708 341.28 230.076 341.206 230.759H343.272C343.201 230.053 342.803 229.708 342.251 229.708ZM344.798 233.178V227.584H345.643V233.178H344.798ZM346.997 234.539C346.832 234.539 346.656 234.52 346.554 234.5V233.845C346.621 233.861 346.719 233.876 346.832 233.876C347.232 233.876 347.451 233.772 347.592 233.376L347.662 233.182L346.163 229.1H347.079L348.116 232.418H348.143L349.18 229.1H350.072L348.538 233.368C348.233 234.213 347.803 234.539 346.997 234.539ZM352.193 233.178V229.1H353.038V229.797H353.058C353.191 229.321 353.535 229.022 354.004 229.022C354.126 229.022 354.231 229.041 354.298 229.053V229.832C354.231 229.805 354.083 229.786 353.918 229.786C353.375 229.786 353.038 230.138 353.038 230.747V233.178H352.193ZM355.28 228.471C355.006 228.471 354.787 228.254 354.787 227.99C354.787 227.723 355.006 227.506 355.28 227.506C355.558 227.506 355.773 227.723 355.773 227.99C355.773 228.254 355.558 228.471 355.28 228.471ZM354.857 233.178V229.1H355.702V233.178H354.857ZM358.117 233.26C357.088 233.26 356.485 232.756 356.399 232.011L356.395 231.976H357.233L357.24 232.015C357.319 232.391 357.6 232.612 358.121 232.612C358.629 232.612 358.935 232.403 358.935 232.073V232.069C358.935 231.806 358.786 231.654 358.344 231.55L357.671 231.399C356.888 231.22 356.501 230.848 356.501 230.255V230.251C356.501 229.522 357.142 229.022 358.089 229.022C359.064 229.022 359.651 229.561 359.693 230.255L359.697 230.301H358.903L358.899 230.274C358.848 229.917 358.567 229.669 358.089 229.669C357.635 229.669 357.35 229.883 357.35 230.208V230.212C357.35 230.464 357.518 230.635 357.96 230.739L358.629 230.891C359.471 231.085 359.791 231.414 359.791 232V232.003C359.791 232.748 359.087 233.26 358.117 233.26ZM360.496 233.178V227.584H361.341V230.84H361.361L363.012 229.1H364.005L362.315 230.86L364.072 233.178H363.09L361.693 231.364L361.341 231.709V233.178H360.496ZM364.979 234.539C364.815 234.539 364.639 234.52 364.537 234.5V233.845C364.604 233.861 364.702 233.876 364.815 233.876C365.214 233.876 365.434 233.772 365.574 233.376L365.645 233.182L364.146 229.1H365.062L366.099 232.418H366.126L367.163 229.1H368.055L366.521 233.368C366.216 234.213 365.786 234.539 364.979 234.539ZM370.176 234.535V229.1H371.021V229.801H371.04C371.287 229.316 371.741 229.022 372.328 229.022C373.376 229.022 374.049 229.836 374.049 231.139V231.143C374.049 232.441 373.372 233.26 372.339 233.26C371.756 233.26 371.283 232.965 371.04 232.492H371.021V234.535H370.176ZM372.108 232.538C372.774 232.538 373.188 232.003 373.188 231.143V231.139C373.188 230.27 372.77 229.739 372.108 229.739C371.467 229.739 371.017 230.29 371.017 231.139V231.143C371.017 231.988 371.471 232.538 372.108 232.538ZM376.475 233.26C375.294 233.26 374.523 232.45 374.523 231.139V231.131C374.523 229.828 375.301 229.022 376.471 229.022C377.645 229.022 378.427 229.825 378.427 231.131V231.139C378.427 232.453 377.653 233.26 376.475 233.26ZM376.479 232.558C377.14 232.558 377.563 232.038 377.563 231.139V231.131C377.563 230.239 377.132 229.724 376.471 229.724C375.822 229.724 375.387 230.239 375.387 231.131V231.139C375.387 232.042 375.818 232.558 376.479 232.558ZM379.081 233.178V229.1H379.926V229.797H379.945C380.079 229.321 380.423 229.022 380.893 229.022C381.014 229.022 381.12 229.041 381.186 229.053V229.832C381.12 229.805 380.971 229.786 380.807 229.786C380.263 229.786 379.926 230.138 379.926 230.747V233.178H379.081ZM383.334 233.26C382.52 233.26 382.129 232.918 382.129 232.104V229.766H381.538V229.1H382.129V228.037H382.994V229.1H383.764V229.766H382.994V232.054C382.994 232.469 383.182 232.593 383.538 232.593C383.627 232.593 383.702 232.585 383.764 232.577V233.225C383.667 233.24 383.506 233.26 383.334 233.26ZM384.711 233.178V229.766H384.144V229.1H384.711V228.665C384.711 227.874 385.087 227.502 385.924 227.502C386.096 227.502 386.284 227.517 386.398 227.537V228.157C386.316 228.146 386.21 228.138 386.104 228.138C385.725 228.138 385.545 228.32 385.545 228.681V229.1H386.382V229.766H385.56V233.178H384.711ZM388.456 233.26C387.274 233.26 386.504 232.45 386.504 231.139V231.131C386.504 229.828 387.282 229.022 388.452 229.022C389.626 229.022 390.408 229.825 390.408 231.131V231.139C390.408 232.453 389.633 233.26 388.456 233.26ZM388.46 232.558C389.121 232.558 389.544 232.038 389.544 231.139V231.131C389.544 230.239 389.113 229.724 388.452 229.724C387.802 229.724 387.368 230.239 387.368 231.131V231.139C387.368 232.042 387.798 232.558 388.46 232.558ZM391.093 233.178V227.584H391.938V233.178H391.093ZM393.264 228.471C392.991 228.471 392.772 228.254 392.772 227.99C392.772 227.723 392.991 227.506 393.264 227.506C393.542 227.506 393.757 227.723 393.757 227.99C393.757 228.254 393.542 228.471 393.264 228.471ZM392.842 233.178V229.1H393.687V233.178H392.842ZM396.328 233.26C395.146 233.26 394.376 232.45 394.376 231.139V231.131C394.376 229.828 395.154 229.022 396.324 229.022C397.498 229.022 398.281 229.825 398.281 231.131V231.139C398.281 232.453 397.506 233.26 396.328 233.26ZM396.332 232.558C396.993 232.558 397.416 232.038 397.416 231.139V231.131C397.416 230.239 396.986 229.724 396.324 229.724C395.675 229.724 395.241 230.239 395.241 231.131V231.139C395.241 232.042 395.671 232.558 396.332 232.558Z" fill="white"/>
<path d="M191.601 293.269V283.784H195.19C197.034 283.784 198.241 284.902 198.241 286.611V286.624C198.241 287.938 197.511 288.957 196.317 289.332L198.533 293.269H197.133L195.084 289.516H192.795V293.269H191.601ZM192.795 288.471H195.084C196.311 288.471 197.007 287.814 197.007 286.65V286.637C197.007 285.507 196.258 284.836 195.03 284.836H192.795V288.471ZM200.218 285.276C199.82 285.276 199.495 284.954 199.495 284.56C199.495 284.159 199.82 283.844 200.218 283.844C200.622 283.844 200.941 284.159 200.941 284.56C200.941 284.954 200.622 285.276 200.218 285.276ZM199.64 293.269V286.433H200.795V293.269H199.64ZM204.814 293.401C203.189 293.401 202.207 292.579 202.068 291.356L202.062 291.297H203.216L203.229 291.363C203.368 292.047 203.879 292.448 204.821 292.448C205.756 292.448 206.313 292.06 206.313 291.442V291.436C206.313 290.942 206.055 290.666 205.272 290.476L204.178 290.213C202.877 289.904 202.247 289.306 202.247 288.32V288.313C202.247 287.137 203.289 286.302 204.781 286.302C206.294 286.302 207.256 287.176 207.342 288.32L207.348 288.405H206.247L206.241 288.359C206.148 287.695 205.637 287.255 204.781 287.255C203.945 287.255 203.428 287.656 203.428 288.261V288.267C203.428 288.734 203.74 289.056 204.503 289.24L205.597 289.503C206.99 289.838 207.494 290.384 207.494 291.356V291.363C207.494 292.559 206.353 293.401 204.814 293.401ZM208.788 293.269V283.784H209.942V289.451H209.968L212.993 286.433H214.393L211.401 289.385L214.486 293.269H213.146L210.585 290.081L209.942 290.693V293.269H208.788Z" fill="white" fill-opacity="0.3"/>
<path d="M13.0994 180.81H3.52768V177.432C3.52768 175.651 4.7681 174.388 6.58559 174.388H6.59888C8.41638 174.388 9.68331 175.651 9.68331 177.432V179.627H13.0994V180.81ZM4.589 177.734V179.627H8.622V177.734C8.622 176.38 7.87246 175.598 6.61213 175.598H6.59888C5.33855 175.598 4.589 176.38 4.589 177.734ZM13.0994 173.205H6.20085V172.062H7.36832V172.035C6.57234 171.805 6.0682 171.213 6.0682 170.444C6.0682 170.247 6.10139 170.076 6.11463 169.984H7.23567C7.20248 170.076 7.1693 170.32 7.1693 170.596C7.1693 171.483 7.79284 172.062 8.84091 172.062H13.0994V173.205ZM13.2321 166.547C13.2321 168.446 11.8457 169.715 9.65013 169.715H9.63688C7.44129 169.715 6.0682 168.439 6.0682 166.553C6.0682 164.667 7.43464 163.385 9.63688 163.385H9.65013C11.8524 163.385 13.2321 164.66 13.2321 166.547ZM12.2106 166.54C12.2106 165.337 11.2687 164.555 9.65013 164.555H9.63688C8.01835 164.555 7.08973 165.344 7.08973 166.553C7.08973 167.743 8.025 168.545 9.63688 168.545H9.65013C11.2753 168.545 12.2106 167.75 12.2106 166.54ZM13.0994 161.86H7.15605V162.813H6.20085V161.86H5.3518C4.02518 161.86 3.39502 161.249 3.39502 159.987C3.39502 159.73 3.41492 159.461 3.44146 159.29H4.37674C4.35684 159.428 4.3502 159.605 4.3502 159.783C4.3502 160.414 4.67523 160.729 5.35844 160.729H6.20085V159.323H7.15605V160.716H13.0994V161.86ZM5.03343 157.496C5.03343 157.89 4.7084 158.212 4.3104 158.212C3.90578 158.212 3.58739 157.89 3.58739 157.496C3.58739 157.095 3.90578 156.779 4.3104 156.779C4.7084 156.779 5.03343 157.095 5.03343 157.496ZM13.0994 158.067H6.20085V156.924H13.0994V158.067ZM13.2321 153.144C13.2321 154.4 12.6616 155.017 11.3416 155.017H7.15605V156.017H6.20085V155.017H4.33694V153.835H6.20085V152.533H7.15605V153.835H11.335C12.0713 153.835 12.2769 153.513 12.2769 152.901C12.2769 152.763 12.257 152.632 12.2504 152.533H13.1856C13.2055 152.677 13.2321 152.921 13.2321 153.144ZM13.2321 149.437C13.2321 150.798 12.4029 151.712 11.1493 151.712H11.136C9.9619 151.712 9.2256 150.804 9.13274 149.233L9.01999 147.275H8.44288C7.60047 147.275 7.08973 147.82 7.08973 148.773C7.08973 149.654 7.51426 150.206 8.13115 150.338L8.19083 150.351V151.455L8.11786 151.449C6.98358 151.35 6.0682 150.37 6.0682 148.76C6.0682 147.143 6.95044 146.131 8.33012 146.131H13.0994V147.275H11.9784V147.301C12.7346 147.702 13.2321 148.524 13.2321 149.437ZM11.1493 150.541C11.8126 150.541 12.2305 150.002 12.2305 149.181C12.2305 148.103 11.4809 147.275 10.4793 147.275H9.91547L10.0282 149.102C10.0813 150.015 10.4926 150.541 11.136 150.541H11.1493ZM13.2321 141.28C13.2321 142.259 12.7346 143.022 11.9319 143.449V143.476H13.0994V144.619H3.52768V143.476H7.35507V143.449C6.55905 143.022 6.0682 142.226 6.0682 141.26C6.0682 139.545 7.46782 138.375 9.64348 138.375H9.65013C11.8258 138.375 13.2321 139.532 13.2321 141.28ZM12.2106 141.503C12.2106 140.294 11.2355 139.545 9.65013 139.545H9.64348C8.07143 139.545 7.08973 140.294 7.08973 141.503C7.08973 142.654 8.10461 143.482 9.64348 143.482H9.65013C11.1957 143.482 12.2106 142.66 12.2106 141.503ZM5.03343 136.58C5.03343 136.975 4.70839 137.297 4.3104 137.297C3.90578 137.297 3.58739 136.975 3.58739 136.58C3.58739 136.179 3.90578 135.864 4.3104 135.864C4.70839 135.864 5.03343 136.179 5.03343 136.58ZM13.0994 137.152H6.20085V136.008H13.0994V137.152ZM13.0994 134.391H3.52768V133.248H13.0994V134.391ZM5.03343 131.059C5.03343 131.453 4.70839 131.776 4.3104 131.776C3.90578 131.776 3.58739 131.453 3.58739 131.059C3.58739 130.658 3.90578 130.342 4.3104 130.342C4.70839 130.342 5.03343 130.658 5.03343 131.059ZM13.0994 131.631H6.20085V130.487H13.0994V131.631ZM13.2321 126.708C13.2321 127.963 12.6616 128.581 11.3416 128.581H7.15605V129.58H6.20085V128.581H4.33694V127.398H6.20085V126.096H7.15605V127.398H11.335C12.0713 127.398 12.2769 127.076 12.2769 126.464C12.2769 126.326 12.257 126.195 12.2504 126.096H13.1856C13.2055 126.241 13.2321 126.484 13.2321 126.708ZM15.4211 124.21C15.4211 124.433 15.3945 124.676 15.368 124.821H14.4261C14.446 124.723 14.4658 124.591 14.4658 124.453C14.4658 123.73 14.2801 123.329 13.4974 123.053L13.1061 122.915L6.20085 125.452V124.229L11.9452 122.343V122.317L6.20085 120.424V119.221L13.5306 121.889C14.8506 122.376 15.4211 122.974 15.4211 124.21Z" fill="white" fill-opacity="0.3"/>
<path d="M103.997 165.865H37.8486C32.2187 165.865 27.6548 170.388 27.6548 175.967C27.6548 181.545 32.2187 186.068 37.8486 186.068H103.997C109.627 186.068 114.191 181.545 114.191 175.967C114.191 170.388 109.627 165.865 103.997 165.865Z" fill="#17EC20"/>
<path d="M35.4653 178.851V173.257H36.3418V178.103H38.9711V178.851H35.4653ZM41.2874 178.932C40.1058 178.932 39.335 178.122 39.335 176.812V176.804C39.335 175.501 40.1136 174.695 41.2835 174.695C42.4573 174.695 43.2399 175.497 43.2399 176.804V176.812C43.2399 178.126 42.4652 178.932 41.2874 178.932ZM41.2914 178.231C41.9526 178.231 42.3752 177.711 42.3752 176.812V176.804C42.3752 175.912 41.9448 175.396 41.2835 175.396C40.634 175.396 40.1997 175.912 40.1997 176.804V176.812C40.1997 177.715 40.6301 178.231 41.2914 178.231ZM44.6876 178.851L43.5568 174.772H44.402L45.1532 177.982H45.1689L46.0257 174.772H46.8396L47.7003 177.982H47.7199L48.4711 174.772H49.3085L48.1816 178.851H47.3012L46.4366 175.796H46.417L45.5601 178.851H44.6876ZM51.9104 174.144C51.6363 174.144 51.4175 173.927 51.4175 173.663C51.4175 173.396 51.6363 173.179 51.9104 173.179C52.1884 173.179 52.4034 173.396 52.4034 173.663C52.4034 173.927 52.1884 174.144 51.9104 174.144ZM51.4878 178.851V174.772H52.333V178.851H51.4878ZM53.2054 178.851V174.772H54.0505V175.389H54.0704C54.2853 174.974 54.7079 174.695 55.3299 174.695C56.2338 174.695 56.7544 175.272 56.7544 176.211V178.851H55.9053V176.37C55.9053 175.757 55.6157 175.412 55.0286 175.412C54.4343 175.412 54.0505 175.839 54.0505 176.474V178.851H53.2054ZM59.3408 178.932C58.1396 178.932 57.388 178.114 57.388 176.808V176.804C57.388 175.513 58.1551 174.695 59.3287 174.695C60.3893 174.695 61.0307 175.37 61.1015 176.137L61.1054 176.164H60.2991L60.2913 176.133C60.2015 175.734 59.8886 175.396 59.337 175.396C58.6796 175.396 58.2531 175.939 58.2531 176.812V176.816C58.2531 177.707 58.6873 178.231 59.3408 178.231C59.8609 178.231 60.1938 177.932 60.2952 177.49L60.2991 177.459H61.1132L61.1093 177.486C61.0191 178.305 60.3306 178.932 59.3408 178.932ZM63.4803 178.932C62.2985 178.932 61.528 178.122 61.528 176.812V176.804C61.528 175.501 62.3067 174.695 63.4764 174.695C64.6501 174.695 65.4327 175.497 65.4327 176.804V176.812C65.4327 178.126 64.6578 178.932 63.4803 178.932ZM63.4842 178.231C64.1455 178.231 64.5681 177.711 64.5681 176.812V176.804C64.5681 175.912 64.1377 175.396 63.4764 175.396C62.8268 175.396 62.3926 175.912 62.3926 176.804V176.812C62.3926 177.715 62.8229 178.231 63.4842 178.231ZM66.0862 178.851V174.772H66.9314V175.404H66.9508C67.1269 174.978 67.5456 174.695 68.0856 174.695C68.6527 174.695 69.0676 174.985 69.232 175.497H69.2514C69.463 175.001 69.9482 174.695 70.5347 174.695C71.3488 174.695 71.8811 175.23 71.8811 176.048V178.851H71.0315V176.249C71.0315 175.719 70.7463 175.412 70.2456 175.412C69.7444 175.412 69.3965 175.784 69.3965 176.3V178.851H68.5669V176.187C68.5669 175.715 68.2656 175.412 67.7882 175.412C67.2875 175.412 66.9314 175.804 66.9314 176.331V178.851H66.0862ZM74.4554 178.932C73.2464 178.932 72.5147 178.114 72.5147 176.827V176.823C72.5147 175.548 73.258 174.695 74.4122 174.695C75.5664 174.695 76.2748 175.517 76.2748 176.742V177.025H73.3599C73.3754 177.796 73.8019 178.246 74.4748 178.246C74.976 178.246 75.3083 177.99 75.4141 177.684L75.4258 177.653H76.2277L76.22 177.696C76.087 178.343 75.4529 178.932 74.4554 178.932ZM74.4161 175.381C73.8683 175.381 73.4458 175.749 73.3715 176.432H75.4374C75.367 175.726 74.9677 175.381 74.4161 175.381ZM78.56 180.208V174.772H79.4051V175.474H79.4245C79.671 174.989 80.1251 174.695 80.7117 174.695C81.7606 174.695 82.4336 175.509 82.4336 176.812V176.816C82.4336 178.114 81.7563 178.932 80.7233 178.932C80.1406 178.932 79.6671 178.638 79.4245 178.165H79.4051V180.208H78.56ZM80.4929 178.211C81.1581 178.211 81.5724 177.676 81.5724 176.816V176.812C81.5724 175.943 81.1542 175.412 80.4929 175.412C79.851 175.412 79.4013 175.963 79.4013 176.812V176.816C79.4013 177.661 79.8549 178.211 80.4929 178.211ZM84.8594 178.932C83.6776 178.932 82.9066 178.122 82.9066 176.812V176.804C82.9066 175.501 83.6853 174.695 84.8555 174.695C86.0292 174.695 86.8118 175.497 86.8118 176.804V176.812C86.8118 178.126 86.0369 178.932 84.8594 178.932ZM84.8633 178.231C85.5246 178.231 85.9472 177.711 85.9472 176.812V176.804C85.9472 175.912 85.5164 175.396 84.8555 175.396C84.2059 175.396 83.7717 175.912 83.7717 176.804V176.812C83.7717 177.715 84.202 178.231 84.8633 178.231ZM87.4653 178.851V174.772H88.3105V175.47H88.3299C88.4628 174.994 88.8073 174.695 89.2769 174.695C89.3982 174.695 89.5035 174.714 89.57 174.726V175.505C89.5035 175.478 89.355 175.458 89.1906 175.458C88.6467 175.458 88.3105 175.811 88.3105 176.42V178.851H87.4653ZM91.7183 178.932C90.9042 178.932 90.5131 178.591 90.5131 177.777V175.439H89.9222V174.772H90.5131V173.71H91.3777V174.772H92.1487V175.439H91.3777V177.727C91.3777 178.142 91.5655 178.266 91.9216 178.266C92.0118 178.266 92.0861 178.258 92.1487 178.25V178.898C92.0507 178.913 91.8905 178.932 91.7183 178.932ZM93.0957 178.851V175.439H92.5281V174.772H93.0957V174.338C93.0957 173.547 93.4712 173.175 94.3086 173.175C94.4804 173.175 94.6686 173.19 94.7817 173.21V173.83C94.6997 173.819 94.5939 173.811 94.4886 173.811C94.1088 173.811 93.9288 173.993 93.9288 174.354V174.772H94.7662V175.439H93.9448V178.851H93.0957ZM96.8398 178.932C95.6584 178.932 94.8875 178.122 94.8875 176.812V176.804C94.8875 175.501 95.6662 174.695 96.8359 174.695C98.01 174.695 98.7926 175.497 98.7926 176.804V176.812C98.7926 178.126 98.0178 178.932 96.8398 178.932ZM96.8437 178.231C97.505 178.231 97.9275 177.711 97.9275 176.812V176.804C97.9275 175.912 97.4972 175.396 96.8359 175.396C96.1867 175.396 95.752 175.912 95.752 176.804V176.812C95.752 177.715 96.1824 178.231 96.8437 178.231ZM99.4772 178.851V173.257H100.322V178.851H99.4772ZM101.649 174.144C101.375 174.144 101.156 173.927 101.156 173.663C101.156 173.396 101.375 173.179 101.649 173.179C101.926 173.179 102.142 173.396 102.142 173.663C102.142 173.927 101.926 174.144 101.649 174.144ZM101.226 178.851V174.772H102.071V178.851H101.226ZM104.712 178.932C103.531 178.932 102.76 178.122 102.76 176.812V176.804C102.76 175.501 103.539 174.695 104.708 174.695C105.882 174.695 106.665 175.497 106.665 176.804V176.812C106.665 178.126 105.89 178.932 104.712 178.932ZM104.716 178.231C105.377 178.231 105.8 177.711 105.8 176.812V176.804C105.8 175.912 105.37 175.396 104.708 175.396C104.059 175.396 103.624 175.912 103.624 176.804V176.812C103.624 177.715 104.055 178.231 104.716 178.231Z" fill="#0F141F"/>
<path d="M358.712 32.6924H291.108C285.478 32.6924 280.915 37.2149 280.915 42.7937C280.915 48.3726 285.478 52.8951 291.108 52.8951H358.712C364.342 52.8951 368.906 48.3726 368.906 42.7937C368.906 37.2149 364.342 32.6924 358.712 32.6924Z" fill="#3A65FE"/>
<path d="M288.22 45.6782L290.274 40.0834H291.222L293.272 45.6782H292.352L291.836 44.1661H289.66L289.14 45.6782H288.22ZM290.74 41.01L289.895 43.4682H291.597L290.756 41.01H290.74ZM293.827 45.6782V40.0834H294.673V45.6782H293.827ZM295.573 45.6782V40.0834H296.418V45.6782H295.573ZM298.914 47.0352V41.5994H299.759V42.3011H299.778C300.025 41.8165 300.479 41.5218 301.066 41.5218C302.115 41.5218 302.788 42.336 302.788 43.6388V43.6426C302.788 44.9415 302.11 45.7596 301.077 45.7596C300.495 45.7596 300.021 45.4649 299.778 44.9919H299.759V47.0352H298.914ZM300.847 45.0384C301.512 45.0384 301.926 44.5034 301.926 43.6426V43.6388C301.926 42.7703 301.508 42.2391 300.847 42.2391C300.205 42.2391 299.755 42.7896 299.755 43.6388V43.6426C299.755 44.4879 300.209 45.0384 300.847 45.0384ZM305.213 45.7596C304.031 45.7596 303.261 44.9493 303.261 43.6388V43.631C303.261 42.3283 304.039 41.5218 305.209 41.5218C306.383 41.5218 307.166 42.3244 307.166 43.631V43.6388C307.166 44.9532 306.391 45.7596 305.213 45.7596ZM305.217 45.0578C305.879 45.0578 306.301 44.5383 306.301 43.6388V43.631C306.301 42.7393 305.871 42.2236 305.209 42.2236C304.56 42.2236 304.126 42.7393 304.126 43.631V43.6388C304.126 44.5421 304.556 45.0578 305.217 45.0578ZM309.361 45.7596C308.332 45.7596 307.729 45.2556 307.643 44.5111L307.639 44.4762H308.477L308.484 44.515C308.563 44.8911 308.844 45.1121 309.364 45.1121C309.873 45.1121 310.179 44.9027 310.179 44.5732V44.5693C310.179 44.3057 310.03 44.1545 309.588 44.0497L308.915 43.8985C308.132 43.7202 307.745 43.348 307.745 42.7548V42.7509C307.745 42.022 308.386 41.5218 309.333 41.5218C310.308 41.5218 310.894 42.0608 310.937 42.7548L310.941 42.8013H310.147L310.143 42.7742C310.092 42.4174 309.811 42.1693 309.333 42.1693C308.879 42.1693 308.594 42.3826 308.594 42.7082V42.7121C308.594 42.9642 308.762 43.1347 309.204 43.2394L309.873 43.3907C310.714 43.5845 311.035 43.9141 311.035 44.4995V44.5034C311.035 45.2478 310.331 45.7596 309.361 45.7596ZM313.234 45.7596C312.205 45.7596 311.603 45.2556 311.517 44.5111L311.513 44.4762H312.35L312.358 44.515C312.436 44.8911 312.718 45.1121 313.238 45.1121C313.747 45.1121 314.052 44.9027 314.052 44.5732V44.5693C314.052 44.3057 313.903 44.1545 313.461 44.0497L312.788 43.8985C312.006 43.7202 311.618 43.348 311.618 42.7548V42.7509C311.618 42.022 312.26 41.5218 313.207 41.5218C314.181 41.5218 314.768 42.0608 314.811 42.7548L314.815 42.8013H314.021L314.017 42.7742C313.966 42.4174 313.684 42.1693 313.207 42.1693C312.753 42.1693 312.467 42.3826 312.467 42.7082V42.7121C312.467 42.9642 312.636 43.1347 313.078 43.2394L313.747 43.3907C314.588 43.5845 314.909 43.9141 314.909 44.4995V44.5034C314.909 45.2478 314.205 45.7596 313.234 45.7596ZM316.024 40.9713C315.75 40.9713 315.531 40.7542 315.531 40.4905C315.531 40.223 315.75 40.0058 316.024 40.0058C316.302 40.0058 316.517 40.223 316.517 40.4905C316.517 40.7542 316.302 40.9713 316.024 40.9713ZM315.601 45.6782V41.5994H316.447V45.6782H315.601ZM319.507 45.7596C318.916 45.7596 318.458 45.4649 318.215 44.9881H318.196V45.6782H317.35V40.0834H318.196V42.2934H318.215C318.461 41.8126 318.931 41.5218 319.514 41.5218C320.547 41.5218 321.228 42.336 321.228 43.6349V43.6388C321.228 44.9376 320.551 45.7596 319.507 45.7596ZM319.283 45.0384C319.949 45.0384 320.363 44.5072 320.363 43.6388V43.6349C320.363 42.7742 319.949 42.2391 319.283 42.2391C318.645 42.2391 318.192 42.7896 318.192 43.6349V43.6388C318.192 44.4879 318.641 45.0384 319.283 45.0384ZM321.913 45.6782V40.0834H322.758V45.6782H321.913ZM325.383 45.7596C324.174 45.7596 323.442 44.9415 323.442 43.6543V43.6504C323.442 42.3748 324.186 41.5218 325.34 41.5218C326.494 41.5218 327.203 42.3438 327.203 43.569V43.852H324.287C324.303 44.6236 324.73 45.0733 325.403 45.0733C325.904 45.0733 326.236 44.8174 326.342 44.5111L326.354 44.4801H327.156L327.148 44.5228C327.015 45.1703 326.381 45.7596 325.383 45.7596ZM325.344 42.2081C324.796 42.2081 324.374 42.5764 324.3 43.2588H326.365C326.295 42.5532 325.896 42.2081 325.344 42.2081ZM329.487 47.0352V41.5994H330.333V42.3011H330.352C330.599 41.8165 331.053 41.5218 331.64 41.5218C332.688 41.5218 333.361 42.336 333.361 43.6388V43.6426C333.361 44.9415 332.684 45.7596 331.651 45.7596C331.068 45.7596 330.595 45.4649 330.352 44.9919H330.333V47.0352H329.487ZM331.42 45.0384C332.086 45.0384 332.5 44.5034 332.5 43.6426V43.6388C332.5 42.7703 332.082 42.2391 331.42 42.2391C330.779 42.2391 330.329 42.7896 330.329 43.6388V43.6426C330.329 44.4879 330.783 45.0384 331.42 45.0384ZM335.787 45.7596C334.606 45.7596 333.835 44.9493 333.835 43.6388V43.631C333.835 42.3283 334.613 41.5218 335.783 41.5218C336.957 41.5218 337.739 42.3244 337.739 43.631V43.6388C337.739 44.9532 336.965 45.7596 335.787 45.7596ZM335.791 45.0578C336.452 45.0578 336.875 44.5383 336.875 43.6388V43.631C336.875 42.7393 336.444 42.2236 335.783 42.2236C335.133 42.2236 334.699 42.7393 334.699 43.631V43.6388C334.699 44.5421 335.13 45.0578 335.791 45.0578ZM338.393 45.6782V41.5994H339.238V42.2972H339.257C339.391 41.8204 339.735 41.5218 340.204 41.5218C340.326 41.5218 340.432 41.5412 340.498 41.5529V42.3321C340.432 42.305 340.283 42.2857 340.119 42.2857C339.575 42.2857 339.238 42.6384 339.238 43.2472V45.6782H338.393ZM342.646 45.7596C341.832 45.7596 341.441 45.4184 341.441 44.6042V42.2662H340.85V41.5994H341.441V40.537H342.306V41.5994H343.076V42.2662H342.306V44.5538C342.306 44.9686 342.494 45.0927 342.85 45.0927C342.939 45.0927 343.014 45.085 343.076 45.0772V45.7247C342.979 45.7402 342.818 45.7596 342.646 45.7596ZM344.023 45.6782V42.2662H343.456V41.5994H344.023V41.1651C344.023 40.3742 344.399 40.002 345.236 40.002C345.408 40.002 345.596 40.0175 345.71 40.0369V40.6572C345.628 40.6456 345.522 40.6378 345.416 40.6378C345.037 40.6378 344.857 40.82 344.857 41.1807V41.5994H345.694V42.2662H344.872V45.6782H344.023ZM347.768 45.7596C346.586 45.7596 345.815 44.9493 345.815 43.6388V43.631C345.815 42.3283 346.594 41.5218 347.764 41.5218C348.938 41.5218 349.72 42.3244 349.72 43.631V43.6388C349.72 44.9532 348.945 45.7596 347.768 45.7596ZM347.772 45.0578C348.433 45.0578 348.856 44.5383 348.856 43.6388V43.631C348.856 42.7393 348.425 42.2236 347.764 42.2236C347.114 42.2236 346.68 42.7393 346.68 43.631V43.6388C346.68 44.5421 347.11 45.0578 347.772 45.0578ZM350.405 45.6782V40.0834H351.25V45.6782H350.405ZM352.576 40.9713C352.303 40.9713 352.083 40.7542 352.083 40.4905C352.083 40.223 352.303 40.0058 352.576 40.0058C352.854 40.0058 353.069 40.223 353.069 40.4905C353.069 40.7542 352.854 40.9713 352.576 40.9713ZM352.154 45.6782V41.5994H352.999V45.6782H352.154ZM355.64 45.7596C354.458 45.7596 353.688 44.9493 353.688 43.6388V43.631C353.688 42.3283 354.466 41.5218 355.636 41.5218C356.81 41.5218 357.593 42.3244 357.593 43.631V43.6388C357.593 44.9532 356.818 45.7596 355.64 45.7596ZM355.644 45.0578C356.305 45.0578 356.728 44.5383 356.728 43.6388V43.631C356.728 42.7393 356.298 42.2236 355.636 42.2236C354.987 42.2236 354.552 42.7393 354.552 43.631V43.6388C354.552 44.5421 354.983 45.0578 355.644 45.0578ZM359.787 45.7596C358.758 45.7596 358.156 45.2556 358.07 44.5111L358.066 44.4762H358.903L358.911 44.515C358.989 44.8911 359.271 45.1121 359.791 45.1121C360.3 45.1121 360.605 44.9027 360.605 44.5732V44.5693C360.605 44.3057 360.456 44.1545 360.015 44.0497L359.342 43.8985C358.559 43.7202 358.172 43.348 358.172 42.7548V42.7509C358.172 42.022 358.813 41.5218 359.76 41.5218C360.735 41.5218 361.321 42.0608 361.364 42.7548L361.368 42.8013H360.574L360.57 42.7742C360.519 42.4174 360.238 42.1693 359.76 42.1693C359.306 42.1693 359.021 42.3826 359.021 42.7082V42.7121C359.021 42.9642 359.189 43.1347 359.631 43.2394L360.3 43.3907C361.142 43.5845 361.462 43.9141 361.462 44.4995V44.5034C361.462 45.2478 360.758 45.7596 359.787 45.7596Z" fill="white"/>
</svg>
