<svg width="137" height="40" viewBox="0 0 137 40" fill="none" xmlns="http://www.w3.org/2000/svg">
    <rect width="137" height="40" rx="20" fill="white"/>
    <path d="M21.784 26.24C20.6373 26.24 19.6693 25.9867 18.88 25.48C18.0907 24.968 17.4933 24.2613 17.088 23.36C16.6827 22.4587 16.48 21.4187 16.48 20.24C16.48 19.0613 16.6827 18.0213 17.088 17.12C17.4933 16.2187 18.0907 15.5147 18.88 15.008C19.6693 14.496 20.6373 14.24 21.784 14.24C22.936 14.24 23.904 14.496 24.688 15.008C25.4773 15.5147 26.0747 16.2187 26.48 17.12C26.8907 18.0213 27.096 19.0613 27.096 20.24C27.096 21.4187 26.8907 22.4587 26.48 23.36C26.0747 24.2613 25.4773 24.968 24.688 25.48C23.904 25.9867 22.936 26.24 21.784 26.24ZM21.784 25.112C22.6853 25.112 23.4373 24.9067 24.04 24.496C24.6427 24.0853 25.0933 23.5147 25.392 22.784C25.696 22.048 25.848 21.2 25.848 20.24C25.848 19.28 25.696 18.4347 25.392 17.704C25.0933 16.9733 24.6427 16.4027 24.04 15.992C23.4373 15.5813 22.6853 15.3733 21.784 15.368C20.8827 15.368 20.1333 15.5733 19.536 15.984C18.9387 16.3947 18.488 16.968 18.184 17.704C17.8853 18.4347 17.7333 19.28 17.728 20.24C17.7227 21.2 17.8693 22.0453 18.168 22.776C18.472 23.5013 18.9253 24.072 19.528 24.488C20.1307 24.8987 20.8827 25.1067 21.784 25.112ZM28.6981 26V14.48H33.1461C33.2581 14.48 33.3835 14.4853 33.5221 14.496C33.6661 14.5013 33.8101 14.5173 33.9541 14.544C34.5568 14.6347 35.0661 14.8453 35.4821 15.176C35.9035 15.5013 36.2208 15.912 36.4341 16.408C36.6528 16.904 36.7621 17.4533 36.7621 18.056C36.7621 18.9253 36.5328 19.68 36.0741 20.32C35.6155 20.96 34.9595 21.3627 34.1061 21.528L33.6981 21.624H29.8741V26H28.6981ZM35.6741 26L33.4021 21.312L34.5301 20.88L37.0261 26H35.6741ZM29.8741 20.504H33.1141C33.2101 20.504 33.3221 20.4987 33.4501 20.488C33.5781 20.4773 33.7035 20.4587 33.8261 20.432C34.2208 20.3467 34.5435 20.184 34.7941 19.944C35.0501 19.704 35.2395 19.4187 35.3621 19.088C35.4901 18.7573 35.5541 18.4133 35.5541 18.056C35.5541 17.6987 35.4901 17.3547 35.3621 17.024C35.2395 16.688 35.0501 16.4 34.7941 16.16C34.5435 15.92 34.2208 15.7573 33.8261 15.672C33.7035 15.6453 33.5781 15.6293 33.4501 15.624C33.3221 15.6133 33.2101 15.608 33.1141 15.608H29.8741V20.504ZM37.9919 26L41.9599 14.48H43.5199L47.4879 26H46.2639L42.4959 15.136H42.9599L39.2159 26H37.9919ZM39.7599 23.208V22.104H45.7119V23.208H39.7599ZM47.9725 26L51.9645 20.168L48.0765 14.48H49.5005L52.6605 19.184L55.8205 14.48H57.2525L53.3645 20.168L57.3485 26H55.9245L52.6605 21.16L49.4045 26H47.9725ZM65.0628 26.232C64.0494 26.232 63.2148 26.0133 62.5588 25.576C61.9081 25.1387 61.5081 24.5307 61.3588 23.752L62.5588 23.552C62.6868 24.0427 62.9774 24.4347 63.4308 24.728C63.8894 25.016 64.4548 25.16 65.1267 25.16C65.7828 25.16 66.3001 25.024 66.6788 24.752C67.0574 24.4747 67.2468 24.0987 67.2468 23.624C67.2468 23.3573 67.1854 23.1413 67.0628 22.976C66.9454 22.8053 66.7028 22.648 66.3348 22.504C65.9668 22.36 65.4174 22.1893 64.6868 21.992C63.9028 21.7787 63.2894 21.5653 62.8468 21.352C62.4041 21.1387 62.0894 20.8933 61.9028 20.616C61.7161 20.3333 61.6228 19.9893 61.6228 19.584C61.6228 19.0933 61.7614 18.664 62.0388 18.296C62.3161 17.9227 62.7001 17.6347 63.1908 17.432C63.6814 17.224 64.2521 17.12 64.9028 17.12C65.5534 17.12 66.1348 17.2267 66.6468 17.44C67.1641 17.648 67.5801 17.9413 67.8948 18.32C68.2094 18.6987 68.3961 19.1387 68.4548 19.64L67.2548 19.856C67.1748 19.3493 66.9214 18.9493 66.4948 18.656C66.0734 18.3573 65.5374 18.2027 64.8868 18.192C64.2734 18.176 63.7748 18.2933 63.3908 18.544C63.0068 18.7893 62.8148 19.1173 62.8148 19.528C62.8148 19.7573 62.8841 19.9547 63.0228 20.12C63.1614 20.28 63.4121 20.432 63.7748 20.576C64.1428 20.72 64.6654 20.8773 65.3428 21.048C66.1374 21.2507 66.7614 21.464 67.2148 21.688C67.6681 21.912 67.9908 22.176 68.1828 22.48C68.3748 22.784 68.4708 23.16 68.4708 23.608C68.4708 24.424 68.1668 25.0667 67.5588 25.536C66.9561 26 66.1241 26.232 65.0628 26.232ZM73.853 26.24C72.9943 26.24 72.261 26.0453 71.653 25.656C71.045 25.2667 70.5783 24.728 70.253 24.04C69.9277 23.352 69.765 22.5627 69.765 21.672C69.765 20.7653 69.9303 19.9707 70.261 19.288C70.5917 18.6053 71.061 18.0747 71.669 17.696C72.2823 17.312 73.0103 17.12 73.853 17.12C74.717 17.12 75.453 17.3147 76.061 17.704C76.6743 18.088 77.141 18.624 77.461 19.312C77.7863 19.9947 77.949 20.7813 77.949 21.672C77.949 22.5787 77.7863 23.376 77.461 24.064C77.1357 24.7467 76.6663 25.28 76.053 25.664C75.4397 26.048 74.7063 26.24 73.853 26.24ZM73.853 25.112C74.813 25.112 75.5277 24.7947 75.997 24.16C76.4663 23.52 76.701 22.6907 76.701 21.672C76.701 20.6267 76.4637 19.7947 75.989 19.176C75.5197 18.5573 74.8077 18.248 73.853 18.248C73.2077 18.248 72.6743 18.3947 72.253 18.688C71.837 18.976 71.525 19.3787 71.317 19.896C71.1143 20.408 71.013 21 71.013 21.672C71.013 22.712 71.253 23.5467 71.733 24.176C72.213 24.8 72.9197 25.112 73.853 25.112ZM79.8738 26V14.24H81.0498V26H79.8738ZM86.7521 26.216C86.2348 26.216 85.7815 26.136 85.3921 25.976C85.0081 25.816 84.6801 25.6 84.4081 25.328C84.1415 25.056 83.9255 24.7467 83.7601 24.4C83.5948 24.048 83.4748 23.6773 83.4001 23.288C83.3255 22.8933 83.2881 22.5013 83.2881 22.112V17.36H84.4721V21.768C84.4721 22.2427 84.5175 22.6827 84.6081 23.088C84.6988 23.4933 84.8428 23.848 85.0401 24.152C85.2428 24.4507 85.5015 24.6827 85.8161 24.848C86.1361 25.0133 86.5228 25.096 86.9761 25.096C87.3921 25.096 87.7575 25.024 88.0721 24.88C88.3921 24.736 88.6588 24.5307 88.8721 24.264C89.0908 23.992 89.2561 23.664 89.3681 23.28C89.4801 22.8907 89.5361 22.4533 89.5361 21.968L90.3681 22.152C90.3681 23.0373 90.2135 23.7813 89.9041 24.384C89.5948 24.9867 89.1681 25.4427 88.6241 25.752C88.0801 26.0613 87.4561 26.216 86.7521 26.216ZM89.6561 26V23.872H89.5361V17.36H90.7121V26H89.6561ZM97.6521 26C97.1668 26.1013 96.6868 26.1413 96.2121 26.12C95.7428 26.0987 95.3215 25.9973 94.9481 25.816C94.5801 25.6347 94.3001 25.352 94.1081 24.968C93.9535 24.648 93.8681 24.3253 93.8521 24C93.8415 23.6693 93.8361 23.2933 93.8361 22.872V14.96H95.0041V22.824C95.0041 23.1867 95.0068 23.4907 95.0121 23.736C95.0228 23.976 95.0788 24.1893 95.1801 24.376C95.3721 24.7333 95.6761 24.9467 96.0921 25.016C96.5135 25.0853 97.0335 25.0693 97.6521 24.968V26ZM91.9881 18.368V17.36H97.6521V18.368H91.9881ZM99.5144 15.72V14.4H100.69V15.72H99.5144ZM99.5144 26V17.36H100.69V26H99.5144ZM106.697 26.24C105.838 26.24 105.105 26.0453 104.497 25.656C103.889 25.2667 103.422 24.728 103.097 24.04C102.771 23.352 102.609 22.5627 102.609 21.672C102.609 20.7653 102.774 19.9707 103.105 19.288C103.435 18.6053 103.905 18.0747 104.513 17.696C105.126 17.312 105.854 17.12 106.697 17.12C107.561 17.12 108.297 17.3147 108.905 17.704C109.518 18.088 109.985 18.624 110.305 19.312C110.63 19.9947 110.793 20.7813 110.793 21.672C110.793 22.5787 110.63 23.376 110.305 24.064C109.979 24.7467 109.51 25.28 108.897 25.664C108.283 26.048 107.55 26.24 106.697 26.24ZM106.697 25.112C107.657 25.112 108.371 24.7947 108.841 24.16C109.31 23.52 109.545 22.6907 109.545 21.672C109.545 20.6267 109.307 19.7947 108.833 19.176C108.363 18.5573 107.651 18.248 106.697 18.248C106.051 18.248 105.518 18.3947 105.097 18.688C104.681 18.976 104.369 19.3787 104.161 19.896C103.958 20.408 103.857 21 103.857 21.672C103.857 22.712 104.097 23.5467 104.577 24.176C105.057 24.8 105.763 25.112 106.697 25.112ZM118.798 26V21.592C118.798 21.112 118.752 20.672 118.662 20.272C118.571 19.8667 118.424 19.5147 118.222 19.216C118.024 18.912 117.766 18.6773 117.446 18.512C117.131 18.3467 116.747 18.264 116.294 18.264C115.878 18.264 115.51 18.336 115.19 18.48C114.875 18.624 114.608 18.832 114.39 19.104C114.176 19.3707 114.014 19.696 113.902 20.08C113.79 20.464 113.734 20.9013 113.734 21.392L112.902 21.208C112.902 20.3227 113.056 19.5787 113.366 18.976C113.675 18.3733 114.102 17.9173 114.646 17.608C115.19 17.2987 115.814 17.144 116.518 17.144C117.035 17.144 117.486 17.224 117.87 17.384C118.259 17.544 118.587 17.76 118.854 18.032C119.126 18.304 119.344 18.616 119.51 18.968C119.675 19.3147 119.795 19.6853 119.87 20.08C119.944 20.4693 119.982 20.8587 119.982 21.248V26H118.798ZM112.55 26V17.36H113.614V19.488H113.734V26H112.55Z" fill="#0B0528"/>
</svg>
