<svg width="535" height="132" viewBox="0 0 535 132" fill="none" xmlns="http://www.w3.org/2000/svg">
<path d="M7.17886 18.1332C5.87792 18.1332 5.10596 17.0233 5.10596 15.2521V15.2444C5.10596 13.4732 5.87792 12.3672 7.17886 12.3672C8.47976 12.3672 9.25956 13.4732 9.25956 15.2444V15.2521C9.25956 17.0233 8.47976 18.1332 7.17886 18.1332ZM7.17886 17.5261C8.04092 17.5261 8.55029 16.652 8.55029 15.2521V15.2444C8.55029 13.8445 8.04092 12.9782 7.17886 12.9782C6.3168 12.9782 5.81523 13.8445 5.81523 15.2444V15.2521C5.81523 16.652 6.3168 17.5261 7.17886 17.5261ZM10.3214 18.0945C10.0707 18.0945 9.87472 17.9012 9.87472 17.6537C9.87472 17.4062 10.0707 17.2128 10.3214 17.2128C10.5722 17.2128 10.7681 17.4062 10.7681 17.6537C10.7681 17.9012 10.5722 18.0945 10.3214 18.0945ZM13.6129 18.1332C12.312 18.1332 11.5401 17.0233 11.5401 15.2521V15.2444C11.5401 13.4732 12.312 12.3672 13.6129 12.3672C14.9139 12.3672 15.6937 13.4732 15.6937 15.2444V15.2521C15.6937 17.0233 14.9139 18.1332 13.6129 18.1332ZM13.6129 17.5261C14.475 17.5261 14.9844 16.652 14.9844 15.2521V15.2444C14.9844 13.8445 14.475 12.9782 13.6129 12.9782C12.7509 12.9782 12.2493 13.8445 12.2493 15.2444V15.2521C12.2493 16.652 12.7509 17.5261 13.6129 17.5261Z" fill="white" fill-opacity="0.3"/>
<path opacity="0.7" d="M21.3999 15.4004H528.758" stroke="white" stroke-opacity="0.3" stroke-linecap="round"/>
<path d="M2.09619 36.3306V35.7041H4.60398V36.3306H2.09619ZM7.49976 38.3724C6.19882 38.3724 5.4269 37.2626 5.4269 35.4914V35.4836C5.4269 33.7125 6.19882 32.6064 7.49976 32.6064C8.80066 32.6064 9.58046 33.7125 9.58046 35.4836V35.4914C9.58046 37.2626 8.80066 38.3724 7.49976 38.3724ZM7.49976 37.7653C8.36182 37.7653 8.87119 36.8913 8.87119 35.4914V35.4836C8.87119 34.0837 8.36182 33.2175 7.49976 33.2175C6.63769 33.2175 6.13613 34.0837 6.13613 35.4836V35.4914C6.13613 36.8913 6.63769 37.7653 7.49976 37.7653ZM10.6423 38.3337C10.3916 38.3337 10.1956 38.1404 10.1956 37.8929C10.1956 37.6454 10.3916 37.452 10.6423 37.452C10.8931 37.452 11.089 37.6454 11.089 37.8929C11.089 38.1404 10.8931 38.3337 10.6423 38.3337ZM11.9629 38.2796V37.8001L13.9535 35.7505C14.7175 34.9655 14.8939 34.6638 14.8939 34.1997V34.192C14.8899 33.6235 14.455 33.2136 13.8398 33.2136C13.1345 33.2136 12.6094 33.6932 12.6094 34.2926V34.3119H11.9276V34.2887C11.9276 33.3219 12.774 32.6064 13.8281 32.6064C14.8507 32.6064 15.5992 33.2832 15.5992 34.1572V34.1649C15.5992 34.776 15.3132 35.2361 14.2748 36.2841L12.9307 37.6454V37.6609H15.6932V38.2796H11.9629Z" fill="white" fill-opacity="0.3"/>
<path opacity="0.7" d="M21.3999 35.6396H528.758" stroke="white" stroke-opacity="0.3" stroke-linecap="round"/>
<path d="M1.79053 56.5708V55.9443H4.29834V56.5708H1.79053ZM7.19407 58.6129C5.89317 58.6129 5.12121 57.5028 5.12121 55.7318V55.7243C5.12121 53.9528 5.89317 52.8467 7.19407 52.8467C8.49501 52.8467 9.27478 53.9528 9.27478 55.7243V55.7318C9.27478 57.5028 8.49501 58.6129 7.19407 58.6129ZM7.19407 58.0057C8.05613 58.0057 8.56554 57.1318 8.56554 55.7318V55.7243C8.56554 54.3242 8.05613 53.4578 7.19407 53.4578C6.33201 53.4578 5.83045 54.3242 5.83045 55.7243V55.7318C5.83045 57.1318 6.33201 58.0057 7.19407 58.0057ZM10.3367 58.5742C10.0859 58.5742 9.88998 58.381 9.88998 58.1333C9.88998 57.886 10.0859 57.6924 10.3367 57.6924C10.5874 57.6924 10.7834 57.886 10.7834 58.1333C10.7834 58.381 10.5874 58.5742 10.3367 58.5742ZM14.3453 58.52V57.3598H11.5044V56.7297L13.9848 52.9395H15.0271V56.749H15.8264V57.3598H15.0271V58.52H14.3453ZM12.2018 56.749H14.3453V53.5353H14.3217L12.2018 56.7332V56.749Z" fill="white" fill-opacity="0.3"/>
<path opacity="0.7" d="M21.3999 55.8799H528.758" stroke="white" stroke-opacity="0.3" stroke-linecap="round"/>
<path d="M1.68896 76.8111V76.1845H4.19678V76.8111H1.68896ZM7.09251 78.8531C5.79157 78.8531 5.01966 77.743 5.01966 75.972V75.9645C5.01966 74.1931 5.79157 73.0869 7.09251 73.0869C8.39346 73.0869 9.17322 74.1931 9.17322 75.9645V75.972C9.17322 77.743 8.39346 78.8531 7.09251 78.8531ZM7.09251 78.2459C7.95458 78.2459 8.46399 77.3721 8.46399 75.972V75.9645C8.46399 74.5644 7.95458 73.6981 7.09251 73.6981C6.23045 73.6981 5.72889 74.5644 5.72889 75.9645V75.972C5.72889 77.3721 6.23045 78.2459 7.09251 78.2459ZM10.2351 78.8144C9.98432 78.8144 9.78842 78.6212 9.78842 78.3735C9.78842 78.1262 9.98432 77.9326 10.2351 77.9326C10.4859 77.9326 10.6818 78.1262 10.6818 78.3735C10.6818 78.6212 10.4859 78.8144 10.2351 78.8144ZM13.6011 78.8531C12.5587 78.8531 11.4537 78.1416 11.4537 76.0728V76.0648C11.4537 74.1856 12.2649 73.0869 13.6481 73.0869C14.6081 73.0869 15.3252 73.6286 15.5133 74.4408L15.5251 74.491H14.808L14.7923 74.4483C14.6238 73.988 14.2202 73.702 13.6402 73.702C12.5862 73.702 12.1708 74.7114 12.1395 75.8831C12.1356 75.9218 12.1356 75.9606 12.1356 76.0028H12.1513C12.3785 75.5078 12.9584 75.1056 13.7265 75.1056C14.804 75.1056 15.6034 75.891 15.6034 76.9505V76.958C15.6034 78.0563 14.757 78.8531 13.6011 78.8531ZM12.3041 76.9505C12.3041 77.666 12.8683 78.2345 13.5933 78.2345C14.3142 78.2345 14.8863 77.6774 14.8863 76.9734V76.966C14.8863 76.2391 14.3495 75.7168 13.605 75.7168C12.8644 75.7168 12.3041 76.2351 12.3041 76.9466V76.9505Z" fill="white" fill-opacity="0.3"/>
<path opacity="0.7" d="M21.3999 76.1201H528.758" stroke="white" stroke-opacity="0.3" stroke-linecap="round"/>
<path d="M1.83008 97.0503V96.4238H4.33789V97.0503H1.83008ZM7.23363 99.0924C5.93269 99.0924 5.16077 97.9822 5.16077 96.2112V96.2038C5.16077 94.4323 5.93269 93.3262 7.23363 93.3262C8.53457 93.3262 9.31433 94.4323 9.31433 96.2038V96.2112C9.31433 97.9822 8.53457 99.0924 7.23363 99.0924ZM7.23363 98.4852C8.09569 98.4852 8.6051 97.6113 8.6051 96.2112V96.2038C8.6051 94.8037 8.09569 93.9373 7.23363 93.9373C6.37156 93.9373 5.87 94.8037 5.87 96.2038V96.2112C5.87 97.6113 6.37156 98.4852 7.23363 98.4852ZM10.3762 99.0537C10.1254 99.0537 9.92954 98.8605 9.92954 98.6128C9.92954 98.3655 10.1254 98.1719 10.3762 98.1719C10.627 98.1719 10.8229 98.3655 10.8229 98.6128C10.8229 98.8605 10.627 99.0537 10.3762 99.0537ZM13.6442 99.0924C12.4452 99.0924 11.5909 98.4271 11.5909 97.4912V97.4837C11.5909 96.7951 12.0808 96.2227 12.8057 96.0568V96.041C12.1866 95.8518 11.7947 95.3876 11.7947 94.7997V94.7923C11.7947 93.9488 12.5745 93.3262 13.6442 93.3262C14.714 93.3262 15.4938 93.9488 15.4938 94.7923V94.7997C15.4938 95.3876 15.1019 95.8518 14.4828 96.041V96.0568C15.2077 96.2227 15.6975 96.7951 15.6975 97.4837V97.4912C15.6975 98.4271 14.8433 99.0924 13.6442 99.0924ZM13.6442 95.7823C14.326 95.7823 14.7923 95.399 14.7923 94.8578V94.8499C14.7923 94.3087 14.326 93.9259 13.6442 93.9259C12.9624 93.9259 12.4961 94.3087 12.4961 94.8499V94.8578C12.4961 95.399 12.9624 95.7823 13.6442 95.7823ZM13.6442 98.4852C14.424 98.4852 14.9804 98.0522 14.9804 97.449V97.441C14.9804 96.8299 14.4279 96.393 13.6442 96.393C12.8605 96.393 12.308 96.8299 12.308 97.441V97.449C12.308 98.0522 12.8645 98.4852 13.6442 98.4852Z" fill="white" fill-opacity="0.3"/>
<path opacity="0.7" d="M21.3999 96.3604H528.758" stroke="white" stroke-opacity="0.3" stroke-linecap="round"/>
<path d="M5.58368 117.291H3.01318V116.664H5.58368V117.291ZM7.68401 119.24V114.398H7.66831L6.17147 115.461V114.727L7.67616 113.659H8.36577V119.24H7.68401ZM10.1644 119.278C9.91357 119.278 9.71767 119.085 9.71767 118.838C9.71767 118.59 9.91357 118.397 10.1644 118.397C10.4151 118.397 10.6111 118.59 10.6111 118.838C10.6111 119.085 10.4151 119.278 10.1644 119.278ZM13.6205 119.333C12.2999 119.333 11.5358 118.211 11.5358 116.448C11.5358 114.7 12.3077 113.566 13.6205 113.566C14.9331 113.566 15.6972 114.692 15.6972 116.444C15.6972 118.207 14.937 119.333 13.6205 119.333ZM13.6205 118.725C14.5021 118.725 14.988 117.84 14.988 116.448C14.988 115.075 14.4942 114.178 13.6205 114.178C12.7466 114.178 12.2451 115.083 12.2451 116.444C12.2451 117.836 12.7349 118.725 13.6205 118.725Z" fill="white" fill-opacity="0.3"/>
<path opacity="0.7" d="M21.3999 116.6H528.758" stroke="white" stroke-opacity="0.3" stroke-linecap="round"/>
<path d="M27.1958 13.0736L27.2442 12.7594C27.3023 12.3829 27.8649 12.425 27.8649 12.8057V41.7814L28.5339 30.098L29.4259 54.4663L29.872 41.7814L30.0861 39.2177C30.1167 38.8511 30.655 38.8363 30.7062 39.2006L31.2101 42.7829L31.4482 47.238C31.4685 47.6173 32.0299 47.6318 32.0702 47.2543L32.5482 42.7829L33.1488 36.9397C33.1865 36.5729 33.7268 36.5695 33.7693 36.9357L34.329 41.7532C34.3312 41.772 34.3352 41.7906 34.3408 41.8086L35.8934 46.7888L36.464 49.5643C36.5323 49.8965 37.015 49.8917 37.0768 49.5586L37.616 46.6537C37.6775 46.3215 38.1573 46.3149 38.2282 46.6453L39.902 54.4395C39.9058 54.4575 39.9081 54.4756 39.9086 54.4936L40.2432 64.7584C40.2554 65.1333 40.8074 65.1649 40.8637 64.794L41.4547 60.9022C41.4639 60.8415 41.4915 60.7843 41.534 60.739L42.9651 59.2091C43.0074 59.1638 43.035 59.107 43.0444 59.0463L43.6846 54.8936C43.694 54.8324 43.7216 54.7761 43.7639 54.7308L44.874 53.5437C45.0412 53.365 45.3426 53.4389 45.4054 53.6739L46.5824 58.0783C46.5927 58.1179 46.6114 58.1549 46.6368 58.1874L48.1295 60.1027C48.1495 60.1283 48.1651 60.1564 48.1758 60.1863L49.4897 63.7921C49.495 63.8062 49.4991 63.8203 49.5022 63.8348L50.0835 66.6649C50.1513 66.9936 50.6279 66.9936 50.6952 66.6649L51.2815 63.8133L54.615 52.8982C54.6979 52.6276 55.0747 52.6003 55.1964 52.8555L55.541 53.5784C55.6712 53.8512 56.08 53.7958 56.1313 53.4983L57.9721 42.7829L59.3101 36.1066L59.9793 30.098L60.8714 25.4246L61.9815 19.4435C61.9846 19.4252 61.9864 19.4066 61.9864 19.388V13.7677C61.9864 13.7501 61.9877 13.7324 61.9909 13.715L62.7862 9.19258C62.8464 8.85066 63.3444 8.85272 63.4015 9.19513L64.0912 13.3254C64.15 13.6758 64.6636 13.6664 64.7091 13.3141L65.5201 7.00037C65.5397 6.84646 65.6726 6.73109 65.8295 6.73109H67.9418C68.105 6.73109 68.2406 6.85517 68.2526 7.01572L68.7702 13.7273C68.7965 14.0688 69.2834 14.1192 69.381 13.7905L69.7921 12.4059L70.1064 10.6802C70.1697 10.3341 70.6766 10.3458 70.723 10.6944L71.1273 13.7222C71.1728 14.0623 71.6628 14.0854 71.7412 13.7512L72.4176 10.8575C72.4992 10.5099 73.0141 10.554 73.0333 10.9102L74.0293 29.0966L74.7265 17.6187C74.7488 17.2461 75.2981 17.2268 75.3471 17.5968L76.2593 24.4232L76.3413 25.0968C76.3859 25.4651 76.9307 25.4556 76.9619 25.086L78.0435 12.4059L79.3298 6.30869C79.3601 6.16586 79.4876 6.06348 79.6356 6.06348H80.015C80.1653 6.06348 80.2941 6.1689 80.3217 6.31445L80.9749 9.73558C81.032 10.0352 81.4484 10.0795 81.5687 9.79877L83.0922 6.25127C83.1412 6.13744 83.2544 6.06348 83.3797 6.06348H87.3494C87.5104 6.06348 87.645 6.18439 87.6602 6.34261L87.9196 9.06137C87.9522 9.4022 88.439 9.44417 88.5309 9.11408L89.1314 6.95751C89.1684 6.8238 89.2919 6.73109 89.4323 6.73109H91.1738C91.32 6.73109 91.4471 6.83172 91.4783 6.973L92.2781 10.5636C92.3472 10.875 92.7917 10.89 92.8822 10.5841L93.0703 9.9507C93.1626 9.6409 93.6143 9.66175 93.6762 9.97868L94.5469 14.4088L94.8822 18.4259C94.9139 18.8049 95.4774 18.8019 95.5046 18.4225L95.9643 12.0583C95.9897 11.7071 96.4957 11.666 96.5791 12.0084L97.8858 17.3872C97.8898 17.4044 97.8925 17.422 97.8938 17.4397L98.1511 21.4809C98.1742 21.8502 98.7168 21.8724 98.7712 21.5063L99.7075 15.1998C99.7614 14.8354 100.301 14.855 100.328 15.2224L101.378 29.6359C101.401 29.9491 101.828 30.0318 101.969 29.7504L102.288 29.1129C102.43 28.8313 102.857 28.9144 102.88 29.2277L103.465 37.4078C103.467 37.4305 103.471 37.4528 103.477 37.4745L104.086 39.4787C104.186 39.8074 104.674 39.753 104.696 39.4105L105.025 34.4831C105.028 34.4529 105.034 34.4231 105.045 34.3948L108.521 25.2902C108.567 25.1702 108.683 25.0908 108.813 25.0908H109.4C109.572 25.0908 109.712 25.2287 109.712 25.3988V33.9089C109.712 34.2451 110.18 34.3381 110.312 34.028L110.985 32.4439C111.092 32.1922 111.454 32.1922 111.561 32.4439L112.81 35.3818C112.826 35.4196 112.834 35.4601 112.834 35.501V41.0901C112.834 41.1059 112.835 41.1217 112.838 41.1373L113.721 46.7571C113.724 46.7782 113.73 46.7985 113.738 46.8183L114.169 47.9464C114.284 48.2483 114.731 48.1946 114.77 47.8747L115.418 42.5415C115.452 42.266 115.808 42.1712 115.977 42.3928L117.25 44.0599C117.279 44.0982 117.299 44.1426 117.308 44.1897L118.41 50.1266L118.998 64.222C119.013 64.5718 119.514 64.6299 119.61 64.2929L119.725 63.8933C119.74 63.8405 119.769 63.793 119.808 63.7552L122.161 61.5147C122.187 61.4896 122.209 61.4593 122.225 61.4263L123.963 57.8495C123.978 57.8196 123.987 57.7879 123.992 57.7549L125.097 49.1481C125.099 49.1331 125.102 49.1177 125.107 49.1032L125.291 48.4586C125.386 48.1273 125.876 48.1757 125.902 48.5189L126.416 55.1831C126.428 55.3437 126.564 55.4678 126.728 55.4678H127.066C127.218 55.4678 127.349 55.3587 127.373 55.2099L127.893 52.0991C127.951 51.7515 128.459 51.7568 128.51 52.1057L129.338 57.8046L129.902 63.4393C129.933 63.7451 130.348 63.8229 130.49 63.5493L131.552 61.5072C131.562 61.4865 131.57 61.465 131.576 61.443L132.78 56.8107C132.863 56.4917 133.327 56.5066 133.389 56.83L134.458 62.4295C134.464 62.4616 134.475 62.4924 134.491 62.521L135.134 63.6769C135.278 63.9356 135.673 63.8652 135.717 63.573L135.847 62.6935C135.894 62.3762 136.34 62.3322 136.449 62.6336L137.072 64.3426C137.171 64.6141 137.561 64.6141 137.659 64.3426L140.042 57.8046L144.713 45.1533C144.721 45.1309 144.732 45.1093 144.746 45.0895L144.97 44.7533C145.125 44.5223 145.486 44.5941 145.537 44.866L147.179 53.4649L147.992 58.0897C148.051 58.429 148.544 58.4303 148.606 58.0915L148.938 56.2721C148.954 56.185 149.007 56.1093 149.083 56.0631L150.869 54.9939C151.037 54.8936 151.256 54.9693 151.324 55.151L155.107 65.2837C155.211 65.5614 155.613 65.5491 155.699 65.2657L156.146 63.7948C156.241 63.4797 156.703 63.5123 156.753 63.8375L158.33 74.1612L159.222 79.5023L159.739 85.9532C159.767 86.3017 160.268 86.3421 160.353 86.0029L160.921 83.7343C161 83.4214 161.451 83.4227 161.528 83.7365L162.063 85.9422C162.097 86.0808 162.223 86.1785 162.367 86.1785H163.679C163.814 86.1785 163.933 86.2638 163.976 86.3901L164.751 88.7093C164.842 88.9826 165.23 88.994 165.337 88.7261L165.999 87.0739C166.111 86.7953 166.52 86.8222 166.592 87.1135L166.969 88.6147C167.003 88.7525 167.128 88.8488 167.272 88.8488H169.708C169.839 88.8488 169.957 88.9298 170.002 89.0512L172.996 97.1186C173.094 97.3822 173.469 97.3897 173.577 97.1301L175.267 93.0834C175.364 92.8497 175.69 92.8247 175.822 93.0403L177.9 96.4093C178.024 96.6109 178.323 96.6051 178.439 96.3992L180.326 93.0618C180.451 92.8396 180.78 92.855 180.884 93.0878L181.711 94.9459C181.816 95.1813 182.149 95.1941 182.272 94.9675L184.708 90.4799C184.794 90.3206 185 90.2687 185.153 90.3668L186.323 91.117C186.391 91.161 186.439 91.2301 186.457 91.3089L186.644 92.1457C186.711 92.4471 187.136 92.4744 187.242 92.1836L188.052 89.9603C188.128 89.7513 188.397 89.6879 188.561 89.841L189.75 90.9538C189.884 91.0783 190.096 91.0633 190.21 90.9217L193.676 86.5973C193.826 86.4112 194.123 86.4548 194.211 86.6752L195.941 90.9912C195.988 91.1087 196.103 91.1857 196.232 91.1857H197.833C197.951 91.1857 198.06 91.2521 198.113 91.3573L199.279 93.6849C199.331 93.7896 199.44 93.856 199.559 93.856H202.752C202.864 93.856 202.967 93.7975 203.023 93.702L204.267 91.5737C204.377 91.3863 204.642 91.3656 204.78 91.5333L207.726 95.1162C207.876 95.2992 208.171 95.2548 208.259 95.0357L208.654 94.0509C208.7 93.9335 208.815 93.856 208.943 93.856H212.354C212.46 93.856 212.557 93.8041 212.615 93.7179L212.771 93.4851C212.875 93.3285 213.096 93.2994 213.238 93.4239L215.556 95.4479C215.613 95.4977 215.687 95.5254 215.763 95.5254H217.652H219.922C220.035 95.5254 220.14 95.4647 220.194 95.3674L222.469 91.3436C222.524 91.2459 222.629 91.1857 222.742 91.1857H224.527C224.678 91.1857 224.808 91.293 224.834 91.44L226.304 99.6108C226.33 99.7577 226.46 99.8647 226.611 99.8647H229.692C229.827 99.8647 229.947 99.95 229.988 100.076L230.162 100.595C230.244 100.84 230.575 100.884 230.719 100.669L231.609 99.3358C231.667 99.2491 231.765 99.1972 231.87 99.1972H239.034C239.18 99.1972 239.307 99.2979 239.338 99.4392L239.677 100.958C239.708 101.099 239.835 101.2 239.982 101.2H247.14C247.248 101.2 247.348 101.145 247.405 101.054L250.79 95.671C250.847 95.5804 250.947 95.5254 251.055 95.5254H251.845C251.941 95.5254 252.031 95.4823 252.09 95.4083L253.269 93.9383C253.312 93.8851 253.371 93.8472 253.437 93.8305L255.935 93.2075C255.985 93.1951 256.031 93.1709 256.069 93.1366L257.994 91.4079C258.128 91.2877 258.336 91.3045 258.449 91.4444L259.554 92.8238C259.571 92.8445 259.585 92.8669 259.595 92.8911L259.943 93.6721C259.993 93.7839 260.105 93.856 260.229 93.856H261.216C261.309 93.856 261.398 93.8151 261.457 93.7443L262.385 92.6333C262.444 92.562 262.532 92.5211 262.626 92.5211H264.18C264.234 92.5211 264.287 92.5347 264.334 92.5611L267.798 94.5055C267.82 94.5178 267.84 94.5323 267.858 94.5495L269.589 96.1687C269.606 96.1845 269.622 96.203 269.635 96.2223L270.063 96.8639C270.175 97.0315 270.417 97.0504 270.554 96.9021L274.205 92.9549C274.265 92.8911 274.348 92.8546 274.436 92.8546H277.644H281.734C281.827 92.8546 281.915 92.8137 281.974 92.7428L284.017 90.2964C284.076 90.2256 284.165 90.1842 284.258 90.1842H284.589C284.706 90.1842 284.813 90.2489 284.867 90.3519L286.254 93.0209C286.307 93.1239 286.415 93.1885 286.532 93.1885H291.143C291.211 93.1885 291.277 93.2105 291.331 93.251L292.948 94.461C293.002 94.5019 293.069 94.5239 293.137 94.5239H299.053H301.792C301.892 94.5239 301.987 94.5719 302.046 94.6529L304.758 98.4008C304.817 98.4817 304.911 98.5297 305.012 98.5297H306.926C307.024 98.5297 307.116 98.4839 307.176 98.4069L308.752 96.3425C308.822 96.2505 308.938 96.2047 309.053 96.2241L310.739 96.5044C310.824 96.5185 310.9 96.5673 310.948 96.6386L311.082 96.8388C311.198 97.0139 311.455 97.0249 311.587 96.8603L312.39 95.8593C312.521 95.6948 312.777 95.7058 312.895 95.8809L313.609 96.951C313.701 97.0874 313.884 97.1296 314.028 97.0473L316.517 95.6143C316.613 95.5593 316.671 95.4581 316.671 95.3485V93.1626C316.671 92.9927 316.811 92.8546 316.983 92.8546H319.197C319.292 92.8546 319.382 92.8977 319.441 92.9716L320.592 94.4069C320.651 94.4808 320.741 94.5239 320.837 94.5239H323.257C323.325 94.5239 323.391 94.5459 323.445 94.5864L324.489 95.3674C324.611 95.4585 324.782 95.4493 324.892 95.3454L326.394 93.9405C326.452 93.8864 326.529 93.856 326.609 93.856H328.043C328.177 93.856 328.297 93.9414 328.339 94.0677L329.313 96.9827C329.355 97.1089 329.474 97.1943 329.609 97.1943H334.009C334.047 97.1943 334.085 97.2009 334.12 97.2145L337.596 98.5152C337.622 98.5249 337.649 98.531 337.676 98.5337L344.361 99.1791C344.476 99.1901 344.589 99.1373 344.652 99.0423L345.794 97.3329C345.852 97.2462 345.95 97.1943 346.054 97.1943H348.172C348.276 97.1943 348.375 97.2462 348.432 97.3329L349.139 98.3911C349.197 98.4773 349.295 98.5297 349.4 98.5297H352.402C352.511 98.5297 352.612 98.4738 352.668 98.3823L355.385 94.0034C355.442 93.9119 355.543 93.856 355.651 93.856H356.235C356.32 93.856 356.402 93.8221 356.461 93.7614L359.937 90.1842L362.52 86.6405C362.578 86.5599 362.672 86.5124 362.773 86.5124H364.146C364.293 86.5124 364.419 86.6127 364.451 86.7544L364.652 87.6586C364.716 87.9429 365.106 87.9899 365.237 87.729L365.452 87.2996C365.491 87.223 365.559 87.1658 365.641 87.1412L367.64 86.5428C367.706 86.523 367.764 86.4821 367.804 86.4266L370.837 82.2105C370.855 82.1855 370.87 82.1577 370.879 82.1287L371.909 79.0461C371.951 78.9198 372.071 78.8344 372.205 78.8344H374.642C374.782 78.8344 374.905 78.7425 374.942 78.6096L377.109 70.9448C377.186 70.6707 377.566 70.6377 377.691 70.8942L378.781 73.1377C378.903 73.3877 379.271 73.3643 379.359 73.1008L379.504 72.6656C379.597 72.388 379.992 72.3818 380.094 72.6559L381.707 77.0018C381.808 77.2759 382.204 77.2698 382.296 76.9921L383.014 74.8432C383.112 74.5497 383.538 74.5655 383.614 74.8656L383.917 76.0778C383.969 76.2833 384.21 76.3775 384.39 76.2622L385.28 75.6911C385.44 75.5885 385.655 75.6506 385.734 75.8217L387.379 79.3778C387.476 79.5873 387.763 79.6216 387.908 79.4412L390.173 76.6146C390.233 76.5411 390.323 76.498 390.418 76.498H392.977C393.093 76.498 393.2 76.4342 393.254 76.3321L396.327 70.5052C396.421 70.3275 396.659 70.2839 396.81 70.4168L398.808 72.1609C398.982 72.3127 399.258 72.2305 399.317 72.0087L402.31 60.8089L403.422 51.8193C403.424 51.8039 403.427 51.7881 403.431 51.7731L406.085 42.5046C406.096 42.4679 406.113 42.4334 406.136 42.403L407.378 40.7764C407.553 40.5482 407.921 40.6569 407.939 40.9422L408.435 48.6249C408.458 48.9721 408.955 49.0222 409.048 48.6869L410.773 42.489C410.781 42.4625 410.792 42.4371 410.806 42.4134L412.285 39.9542C412.44 39.695 412.842 39.7882 412.864 40.0889L413.439 47.8382C413.452 47.9992 413.587 48.1237 413.751 48.1237H414.98C415.133 48.1237 415.263 48.0146 415.288 47.8659L415.707 45.3553C415.76 45.0376 416.209 45.0028 416.312 45.3086L416.795 46.7558C416.802 46.7778 416.807 46.8002 416.809 46.8231L417.917 58.4312C417.92 58.4585 417.926 58.4849 417.936 58.5108L418.481 59.9382C418.587 60.2158 418.99 60.1995 419.073 59.9144L420.796 53.9815C420.878 53.7007 421.272 53.6792 421.385 53.9489L424.035 60.2959C424.149 60.5687 424.549 60.5423 424.625 60.2567L425.577 56.6945C425.641 56.456 425.948 56.3843 426.113 56.5695L428.888 59.6843C429.057 59.8739 429.372 59.7934 429.427 59.547L430.856 53.1309L431.202 49.2435C431.23 48.9316 431.657 48.855 431.794 49.1375L432.751 51.1061C432.872 51.356 433.241 51.3327 433.329 51.0695L433.364 50.9626C433.439 50.7387 433.731 50.6775 433.892 50.8522L435.648 52.7644C435.804 52.9334 436.085 52.8828 436.17 52.6707L436.98 50.6502C437.09 50.3752 437.491 50.3968 437.571 50.6819L438.439 53.7989L439.777 57.1367L441.338 60.141L443.897 64.2669C444.034 64.4873 444.368 64.4535 444.457 64.2106L445.554 61.2014C445.568 61.1627 445.59 61.1271 445.618 61.0967L446.663 59.9782C446.845 59.7829 447.18 59.8929 447.202 60.1573L447.884 67.0332C447.915 67.3649 448.388 67.416 448.49 67.1001L448.852 66.0273C448.892 65.9011 449.012 65.8161 449.146 65.8161H450.684C450.827 65.8161 450.951 65.7193 450.987 65.5821L451.598 63.1453L452.267 59.4735L453.76 54.718C453.849 54.4316 454.26 54.4281 454.353 54.7127L455.289 57.516C455.388 57.8046 455.807 57.7958 455.887 57.5032L456.217 56.3597C456.252 56.2268 456.377 56.1353 456.515 56.1353H457.135C457.287 56.1353 457.416 56.2409 457.443 56.3865L457.84 58.4721L458.281 60.1168C458.285 60.1331 458.29 60.1494 458.29 60.1665L458.731 64.8147L459.177 68.4865L459.387 69.7357C459.445 70.063 459.913 70.085 459.997 69.7638L460.51 67.8432C460.515 67.8269 460.519 67.8102 460.519 67.7935L460.755 65.3207C460.791 64.9652 461.308 64.9419 461.375 65.2925L461.656 66.7718C461.705 67.0239 462.066 67.0367 462.129 66.789C462.186 66.5716 462.49 66.5443 462.588 66.7476L463.203 68.0368C463.301 68.2436 463.586 68.2762 463.729 68.0967L466.043 65.2107C466.074 65.1698 466.096 65.1214 466.105 65.0699L466.524 62.5641C466.578 62.2363 467.046 62.2143 467.135 62.5355L468.089 66.1131C468.098 66.1373 468.107 66.1611 468.116 66.1831L470.332 70.1554L471.125 71.8195C471.241 72.0677 471.607 72.0505 471.701 71.7927L472.775 68.8447C472.779 68.8284 472.788 68.8125 472.797 68.7976L473.787 67.064C473.921 66.8352 474.264 66.8629 474.353 67.1097L474.902 68.5837C475.004 68.8653 475.414 68.8486 475.495 68.5595L476.342 65.52C476.346 65.4949 476.36 65.4707 476.373 65.4479L477.898 62.8391C477.907 62.8206 477.915 62.8017 477.924 62.7815L478.763 60.2633C478.856 59.9919 479.24 59.9782 479.347 60.2427L480.131 62.1193C480.14 62.1355 480.145 62.1527 480.149 62.1703L480.59 64.1468L481.027 66.1197C481.032 66.1395 481.041 66.1593 481.045 66.1778L481.134 66.3776C481.255 66.6407 481.638 66.6161 481.723 66.3406L482.218 64.6691C482.285 64.4389 482.583 64.3707 482.748 64.5467L483.542 65.3955C483.711 65.5759 484.014 65.4989 484.072 65.2604L484.603 63.1453L485.2 61.3541C485.245 61.2278 485.361 61.1425 485.499 61.1425H486.199C486.311 61.1425 486.418 61.2098 486.462 61.3145C486.578 61.571 486.961 61.5305 487.015 61.256L487.51 58.8628C487.563 58.6019 487.933 58.5913 488.005 58.8487C488.063 59.0705 488.37 59.1053 488.477 58.902L488.598 58.678C488.74 58.4105 489.146 58.4849 489.182 58.7849L489.271 59.5246C489.315 59.8735 489.819 59.8915 489.891 59.5466L490.412 56.8885C490.47 56.5823 490.903 56.548 491.01 56.841L492.396 60.5766C492.512 60.8824 492.962 60.8279 492.998 60.5045L493.743 53.831C493.747 53.8094 493.751 53.7883 493.756 53.7681L494.848 50.4971C494.857 50.4729 494.862 50.4478 494.866 50.4223L495.62 39.9685C495.633 39.7634 495.936 39.7577 495.958 39.962C495.972 40.0476 496.043 40.1123 496.132 40.1123H496.449C496.56 40.1123 496.654 40.1968 496.663 40.3066C496.685 40.5648 497.068 40.5659 497.091 40.3078L497.314 37.8112C497.314 37.7876 497.318 37.7643 497.327 37.7418L497.965 35.8325C497.978 35.7931 498 35.7567 498.027 35.7256L498.812 34.8455C498.852 34.7973 498.879 34.737 498.887 34.6732L499.32 30.4318L499.94 27.434C500.006 27.1121 500.466 27.1024 500.546 27.4213L500.885 28.7627L501.036 29.8094C501.09 30.1573 501.598 30.1618 501.656 29.8148L501.999 27.7613L502.445 25.4246L502.882 22.1412C502.887 22.105 502.9 22.07 502.918 22.0377L504.674 18.7484L505.053 17.7506C505.174 17.4402 505.637 17.5086 505.66 17.8396L506.079 24.3647C506.106 24.7253 506.627 24.7585 506.698 24.4037L507.042 22.6668C507.104 22.3334 507.59 22.3347 507.653 22.6685L507.715 22.9848C507.755 23.1962 507.996 23.3027 508.183 23.1911L508.468 23.02C508.669 22.8995 508.928 23.034 508.941 23.266L509.579 34.4129C509.579 34.4293 509.583 34.4456 509.587 34.4616L510.14 36.9497C510.212 37.278 510.689 37.2698 510.751 36.9391L511.344 33.7387C511.406 33.4179 511.861 33.3966 511.955 33.7105L512.927 37.1081L513.078 37.5641C513.118 37.6904 513.239 37.7757 513.377 37.7757H513.551C513.707 37.7757 513.836 37.6656 513.859 37.5161L515.374 28.1286C515.379 28.1063 515.383 28.0846 515.392 28.0637L515.553 27.6613C515.673 27.3578 516.128 27.4249 516.155 27.7503L516.716 34.7714L517.06 36.8249C517.118 37.1719 517.626 37.1674 517.675 36.8194L517.715 36.5722C517.755 36.2923 518.125 36.2111 518.281 36.4473L518.299 36.4727C518.455 36.7038 518.816 36.6322 518.865 36.3602L519.168 34.7714L519.619 27.7613L520.065 25.4246L520.274 22.3921C520.301 22.0187 520.854 22.006 520.898 22.3778L520.965 22.962C521.005 23.3015 521.496 23.3259 521.571 22.992C521.603 22.8531 521.728 22.7541 521.87 22.7541H522.887C523.052 22.7541 523.19 22.8839 523.199 23.0486L523.497 29.8104C523.515 30.1802 524.059 30.2122 524.117 29.847L524.3 28.7627" stroke="#E03F00" stroke-width="3" stroke-linecap="round"/>
<path d="M27.1958 13.5806L27.2445 13.2639C27.3024 12.8874 27.8651 12.9293 27.8651 13.3101V42.3664L28.5345 30.6513L29.427 55.0856L29.8732 42.3664L30.0875 39.7944C30.1181 39.4278 30.6565 39.413 30.7077 39.7774L31.2119 43.3706L31.4502 47.8396C31.4705 48.2185 32.032 48.233 32.0722 47.8559L32.5506 43.3706L33.1516 37.5104C33.1892 37.1435 33.7297 37.14 33.7721 37.5064L34.3323 42.3381C34.3344 42.3569 34.3384 42.3755 34.344 42.3935L35.8974 47.3873L36.4683 50.1708C36.5365 50.5034 37.0194 50.4986 37.0812 50.165L37.6207 47.2509C37.6822 46.9192 38.1623 46.9126 38.233 47.2426L39.9078 55.0592C39.9115 55.0768 39.9137 55.0948 39.9144 55.1128L40.2491 65.4071C40.2613 65.7824 40.8134 65.8141 40.8696 65.4432L41.4611 61.539C41.4704 61.4779 41.4979 61.4211 41.5402 61.3758L42.9724 59.8411C43.0146 59.7958 43.0421 59.7394 43.0514 59.6787L43.6921 55.5137C43.7014 55.453 43.7289 55.3962 43.7711 55.3513L44.882 54.1607C45.0492 53.9816 45.3506 54.0555 45.4134 54.2909L46.5909 58.7076C46.6016 58.7472 46.6199 58.7842 46.6453 58.8168L48.1393 60.7378C48.1589 60.7629 48.1745 60.791 48.1852 60.8214L49.5 64.4369C49.5049 64.451 49.5089 64.465 49.512 64.4796L50.0942 67.3176C50.1616 67.6471 50.6382 67.6471 50.7059 67.3176L51.2922 64.458L54.6275 53.513C54.71 53.2424 55.0871 53.2151 55.2088 53.4708L55.5539 54.1954C55.6841 54.4682 56.0929 54.4132 56.1442 54.1158L57.9859 43.3706L59.3248 36.6762L59.994 30.6513L60.8865 25.9652L61.9971 19.9677C62.0002 19.9494 62.002 19.9309 62.002 19.9123V14.25L62.8125 6.71301C62.8518 6.34631 63.3921 6.34539 63.4327 6.71195L64.2606 14.1613C64.2985 14.5047 64.7929 14.5354 64.8741 14.1994L66.2129 8.67633C66.2312 8.6014 66.2771 8.53593 66.3418 8.49276L67.7894 7.52749C67.9913 7.39307 68.2642 7.52802 68.2758 7.76791L68.7283 17.0411C68.7466 17.4202 69.3083 17.4371 69.3502 17.0598L69.8112 12.9112L70.4804 3.53906L71.1082 12.2523C71.1353 12.6291 71.6935 12.636 71.7301 12.26L72.3404 6.0065C72.377 5.62933 72.9374 5.63796 72.9624 6.01609L74.2736 25.9652L74.9428 3.87378L76.1251 22.4984C76.1483 22.8603 76.6753 22.8924 76.7435 22.536L77.1693 20.2986C77.1724 20.2829 77.1742 20.2669 77.1746 20.2509L77.3971 12.9112L78.2094 6.51202C78.2419 6.25682 78.5585 6.15091 78.7413 6.33399L80.1956 7.78819C80.2602 7.853 80.2928 7.94272 80.2839 8.03336L80.1198 9.75574C80.085 10.1226 80.6138 10.2294 80.7279 9.87863L81.6263 7.1131C81.6699 6.97952 81.7992 6.89174 81.941 6.89966L87.456 7.20607C87.6102 7.21465 87.7351 7.3331 87.7493 7.48477L88.2897 13.159C88.3245 13.525 88.8626 13.5339 88.9098 13.1692L90.1149 3.87378L89.764 18.3337C89.7551 18.7135 90.3147 18.7699 90.3833 18.3961L91.448 12.6063C91.4515 12.5865 91.4573 12.567 91.4649 12.5482L91.5608 12.308C91.6856 11.9961 92.1542 12.0778 92.1631 12.413L92.3013 17.5966C92.3102 17.9386 92.793 18.0133 92.9076 17.6905L93.6027 15.7352C93.7164 15.4162 94.1921 15.4844 94.209 15.8221L95.2465 36.6762L95.9157 22.2833L96.0307 21.249C96.0717 20.8805 96.6156 20.8842 96.6517 21.2532L97.8573 33.6896C97.8929 34.0586 98.4373 34.0624 98.4783 33.6939L99.5198 24.3182C99.5617 23.9423 100.12 23.957 100.142 24.3346L101.045 40.3679C101.066 40.7477 101.629 40.7595 101.667 40.3809L102.471 32.2828C102.508 31.907 103.066 31.9145 103.093 32.2911L103.502 38.015L104.158 48.1089C104.183 48.4856 104.74 48.4966 104.78 48.1212L105.177 44.401C105.209 44.0966 105.624 44.0204 105.765 44.2932L106.369 45.4584C106.51 45.7312 106.925 45.6546 106.957 45.3497L107.518 40.0233L108.093 36.7877C108.154 36.4461 108.651 36.4488 108.708 36.7909L110.136 45.3541C110.192 45.6933 110.683 45.6999 110.75 45.3624L111.501 41.5307C111.522 41.426 111.596 41.3392 111.696 41.3013L112.07 41.1614C112.254 41.0922 112.457 41.2072 112.488 41.3993L112.65 42.3664L113.319 47.7217L114.341 57.4312C114.379 57.7999 114.924 57.799 114.962 57.4299L115.736 49.7686C115.755 49.5754 115.949 49.4483 116.137 49.5046L116.846 49.7176C116.874 49.7259 116.901 49.7382 116.926 49.7541L118.311 50.6446C118.398 50.7005 118.451 50.796 118.453 50.899L118.664 67.9965C118.667 68.2798 119.024 68.4083 119.212 68.194L123.316 63.5028C123.345 63.4702 123.366 63.4324 123.379 63.3919L124.91 58.4674C124.918 58.4445 124.922 58.4208 124.923 58.397L125.309 52.6154C125.334 52.2344 125.901 52.2304 125.931 52.611L126.46 59.1534C126.473 59.3135 126.608 59.4372 126.771 59.4372H127.309C127.472 59.4372 127.608 59.3131 127.62 59.1525L128.052 53.5434C128.08 53.176 128.619 53.1584 128.672 53.5231L129.383 58.4331L130.168 67.8526C130.195 68.176 130.645 68.2433 130.768 67.9428L132.05 64.8184C132.057 64.8012 132.062 64.7832 132.066 64.7651L132.881 60.857C132.948 60.5314 133.419 60.5284 133.491 60.8531L134.069 63.4535L134.658 67.8746C134.705 68.2306 135.227 68.2319 135.277 67.8759L135.839 63.8301C135.886 63.4896 136.378 63.4702 136.453 63.8059L137.408 68.1056C137.475 68.407 137.899 68.4347 138.006 68.1448L141.208 59.4372L144.627 51.5924C144.746 51.3196 145.149 51.3548 145.218 51.6439L146.117 55.4204L148.048 64.4004C148.118 64.7246 148.586 64.726 148.658 64.4021L149.41 61.0181C149.442 60.8764 149.568 60.7761 149.715 60.7761H151.268C151.392 60.7761 151.504 60.8482 151.554 60.96L155.065 68.8615C155.19 69.1422 155.608 69.0903 155.659 68.788L156.282 65.0498C156.339 64.7031 156.845 64.7066 156.899 65.0538L158.389 74.8341L159.281 80.1898L159.798 86.6586C159.826 87.0071 160.328 87.0476 160.413 86.7084L160.981 84.4327C161.059 84.1194 161.512 84.1212 161.588 84.4349L162.124 86.6476C162.158 86.7862 162.283 86.8839 162.428 86.8839H163.74C163.875 86.8839 163.995 86.9693 164.037 87.0956L164.717 89.1372C164.817 89.4364 165.254 89.4122 165.319 89.1033L166.028 85.7377C166.1 85.3954 166.603 85.4174 166.644 85.765L166.968 88.5251C167.004 88.83 167.42 88.9009 167.558 88.6259L168.785 86.1711C168.905 85.9313 169.257 85.9463 169.356 86.1958L173.063 95.5638C173.164 95.8194 173.528 95.8265 173.64 95.5752L175.338 91.7547C175.437 91.5308 175.748 91.5048 175.884 91.709L177.985 94.8607C178.109 95.0459 178.383 95.0459 178.507 94.8607L180.356 92.0852C180.498 91.8731 180.824 91.9114 180.911 92.1503L181.778 94.5338C181.873 94.7947 182.241 94.8088 182.356 94.5562L184.745 89.3176C184.837 89.116 185.108 89.0729 185.259 89.2353L186.482 90.5456C186.495 90.5592 186.509 90.5711 186.523 90.5821L187.022 90.9566C187.199 91.089 187.456 91.0019 187.513 90.7894L188.167 88.3337C188.224 88.1216 188.481 88.0341 188.658 88.167L189.855 89.0654C189.979 89.1578 190.153 89.1468 190.264 89.039L194.214 85.1864C194.369 85.0359 194.629 85.0834 194.718 85.2788L196.904 90.0502C196.955 90.1602 197.066 90.231 197.189 90.231H198.158C198.263 90.231 198.361 90.2834 198.419 90.37L199.349 91.7662C199.407 91.8524 199.505 91.9048 199.61 91.9048H202.647C202.737 91.9048 202.822 91.8665 202.882 91.7996L204.345 90.154C204.467 90.0163 204.683 90.0136 204.809 90.1483L207.476 93.0061C207.596 93.1354 207.802 93.139 207.927 93.0136L208.944 91.9963C209.003 91.9378 209.083 91.9048 209.166 91.9048H212.987C213.03 91.9048 213.072 91.9136 213.111 91.9303L214.57 92.5551C214.599 92.5678 214.626 92.5846 214.65 92.6052L216.088 93.8377C216.144 93.8861 216.217 93.9129 216.292 93.9129H217.737H219.561C219.675 93.9129 219.78 93.8518 219.835 93.7532L221.951 89.9432C221.968 89.9124 221.991 89.8843 222.017 89.861L224.282 87.8792C224.454 87.7283 224.727 87.8075 224.789 88.0262L227.268 96.7012C227.305 96.8336 227.428 96.9256 227.568 96.9256H229.524C229.55 96.9256 229.576 96.9221 229.601 96.9159L230.901 96.5908L232.686 96.2559L236.13 95.6104C236.211 95.595 236.294 95.6122 236.363 95.6575L240.221 98.2298C240.255 98.2526 240.284 98.2817 240.307 98.316L240.849 99.1296C240.907 99.2162 241.005 99.2686 241.11 99.2686H246.365C246.462 99.2686 246.554 99.2233 246.613 99.1467L249.866 94.917L251.185 92.6101C251.198 92.5863 251.215 92.5643 251.234 92.545L253.171 90.6081C253.199 90.5804 253.232 90.5579 253.269 90.5421L256.302 89.2419C256.325 89.2318 256.347 89.2194 256.367 89.2045L258.271 87.7758C258.426 87.6601 258.649 87.7102 258.738 87.881L260.065 90.4418C260.106 90.5205 260.179 90.5782 260.267 90.6002L261.156 90.8224C261.327 90.865 261.499 90.7599 261.537 90.59L262.267 87.305C262.313 87.0986 262.551 86.9983 262.734 87.1079L264.562 88.2048C264.582 88.2167 264.6 88.2308 264.617 88.2466L267.046 90.5658L269.249 92.2176C269.268 92.2321 269.285 92.2488 269.301 92.2673L270.168 93.3079C270.287 93.4514 270.507 93.4584 270.636 93.3229L272.624 91.2351L274.541 89.3184C274.599 89.2599 274.679 89.2269 274.763 89.2269H276.863L281.831 88.9031C281.934 88.896 282.027 88.8402 282.079 88.7526L283.912 85.6959C283.969 85.6026 284.071 85.545 284.181 85.545H284.878C285.02 85.545 285.144 85.6392 285.18 85.7747L285.95 88.6624C285.986 88.7979 286.11 88.8921 286.252 88.8921H291.198C291.303 88.8921 291.401 88.9444 291.459 89.0311L292.612 90.7616C292.67 90.8483 292.768 90.9007 292.873 90.9007H298.952H302.337C302.451 90.9007 302.556 90.9618 302.611 91.0604L304.664 94.7573C304.719 94.8558 304.824 94.917 304.938 94.917H306.631C306.714 94.917 306.794 94.884 306.853 94.8255L308.637 93.0413C308.718 92.9599 308.839 92.9295 308.95 92.963L310.861 93.5367C310.95 93.5631 311.045 93.5495 311.122 93.4998L312.485 92.6242C312.535 92.5916 312.594 92.574 312.655 92.574H315.224C315.365 92.574 315.488 92.4807 315.525 92.3465L316.691 88.0979C316.777 87.7868 317.227 87.7974 317.297 88.1124L317.64 89.6542C317.671 89.7958 317.798 89.8966 317.945 89.8966H319.479H321.933H323.283C323.411 89.8966 323.526 89.9736 323.573 90.0911L324.086 91.375C324.133 91.4925 324.248 91.5699 324.377 91.5699H325.601C325.681 91.5699 325.758 91.5396 325.816 91.4854L327.21 90.1791C327.36 90.0374 327.606 90.0783 327.702 90.2609L329.878 94.4158C329.932 94.5184 330.038 94.5826 330.155 94.5826H332.55C332.61 94.5826 332.67 94.565 332.72 94.5324L334.049 93.6784C334.144 93.6168 334.267 93.612 334.368 93.6656L337.259 95.2144C337.304 95.2391 337.355 95.2518 337.408 95.2518H343.064C343.107 95.2518 343.149 95.243 343.189 95.2263L346.193 93.9384C346.232 93.9217 346.275 93.9129 346.317 93.9129H348.272C348.4 93.9129 348.515 93.9904 348.562 94.1078L349.075 95.3918C349.122 95.5092 349.238 95.5867 349.366 95.5867H352.341C352.441 95.5867 352.535 95.5392 352.594 95.4591L354.915 92.2933C354.941 92.2576 354.974 92.2282 355.013 92.2066L356.662 91.2786C356.713 91.2505 356.754 91.2087 356.782 91.1581L359.863 85.545L362.003 82.0131C362.059 81.9203 362.161 81.8631 362.271 81.8631H364.131C364.25 81.8631 364.359 81.9295 364.411 82.0347L364.8 82.8139C364.895 83.004 365.152 83.0449 365.302 82.894L366.242 81.9546C366.3 81.8961 366.38 81.8631 366.464 81.8631H367.524C367.618 81.8631 367.706 81.8217 367.766 81.7509L369.854 79.2442C369.886 79.2055 369.908 79.1597 369.919 79.1109L371.01 73.8727C371.016 73.8445 371.026 73.8168 371.039 73.7913L371.85 72.2702C371.889 72.1972 371.956 72.143 372.036 72.1188L375.098 71.2001C375.198 71.1702 375.276 71.0928 375.306 70.9942L377.403 64.1298C377.493 63.835 377.918 63.8389 378.002 64.135L378.987 67.5807C379.025 67.7131 379.147 67.8051 379.287 67.8051H380.193C380.313 67.8051 380.423 67.8733 380.475 67.9802L382.162 71.4606C382.17 71.4782 382.177 71.4962 382.182 71.5152L382.282 71.8887C382.366 72.2033 382.823 72.191 382.889 71.872L383.585 68.5342C383.64 68.2653 383.998 68.1976 384.151 68.4268L387.306 73.1603L388.12 74.1367C388.262 74.3078 388.536 74.2788 388.639 74.0812L389.862 71.7206C389.932 71.586 390.091 71.5213 390.237 71.5684L392.866 72.4132C393.006 72.4585 393.16 72.4 393.233 72.2733L397.348 65.1743C397.456 64.9886 397.718 64.9653 397.858 65.1286L399.17 66.6598C399.337 66.8542 399.657 66.7759 399.713 66.5269L401.139 60.1064L402.255 50.0647L402.918 38.7928C402.922 38.7227 402.95 38.6561 402.998 38.604L405.328 36.0624C405.361 36.0258 405.386 35.9819 405.398 35.9342L406.365 32.3083C406.45 31.9907 406.912 32.007 406.974 32.3298L408.455 40.107C408.482 40.2526 408.611 40.3581 408.761 40.3581H409.582C409.732 40.3581 409.861 40.2526 409.889 40.107L411.132 33.5801C411.159 33.4345 411.288 33.329 411.439 33.329H412.077C412.208 33.329 412.325 33.2482 412.37 33.1267L412.872 31.7704C412.99 31.4539 413.463 31.5264 413.477 31.8631L413.8 39.3658C413.814 39.6918 414.265 39.7753 414.398 39.4764L415.179 37.7179C415.19 37.693 415.198 37.6667 415.202 37.6397L415.885 33.1289C415.941 32.7644 416.48 32.7859 416.505 33.1537L417.204 43.3706L418.32 49.7303L418.711 51.4947C418.782 51.8106 419.235 51.8199 419.318 51.5075L420.91 45.5367C420.992 45.2287 421.436 45.2313 421.515 45.5406L423.413 53.0466C423.489 53.3467 423.914 53.3621 424.012 53.0686L425.471 48.6915C425.554 48.442 425.896 48.4033 426.034 48.6281L428.103 51.9915C428.222 52.1851 428.505 52.1899 428.631 52.0012L429.669 50.444C429.688 50.4145 429.703 50.3824 429.711 50.3481L431.386 43.6501C431.465 43.3335 431.923 43.3394 431.993 43.6579L432.285 44.97C432.33 45.1728 432.562 45.2744 432.745 45.1715L433.893 44.5256C434.041 44.442 434.23 44.4921 434.317 44.6378L435.63 46.8545C435.76 47.0736 436.088 47.052 436.187 46.818L437.147 44.5564C437.262 44.2836 437.663 44.313 437.737 44.5999L439.731 52.3782C439.736 52.398 439.743 52.4174 439.752 52.4354L441.523 56.0896L443.243 58.991C443.285 59.0623 443.354 59.1138 443.435 59.134L444.455 59.3892C444.572 59.4182 444.696 59.3782 444.773 59.2862L445.694 58.181C445.739 58.1273 445.8 58.0903 445.869 58.0754L447.006 57.8316C447.18 57.7942 447.349 57.9068 447.38 58.0793L448.201 62.6993C448.214 62.7548 448.236 62.8067 448.276 62.8489L448.901 63.5525C449.017 63.6818 449.217 63.6928 449.346 63.5767L450.198 62.8102C450.216 62.793 450.234 62.7732 450.247 62.7521L450.867 61.8242C450.885 61.7951 450.898 61.7626 450.907 61.7287L451.562 59.1023L452.681 54.4163L453.916 50.9702C454.019 50.6878 454.425 50.7001 454.509 50.9878L455.659 54.9329C455.726 55.1551 456.007 55.2303 456.177 55.071L457.198 54.1118C457.371 53.949 457.661 54.0318 457.715 54.2614L458.91 59.0262C458.918 59.0759 458.918 59.1283 458.905 59.1784L458.495 60.7233C458.486 60.758 458.482 60.7941 458.486 60.8302L458.923 65.4326C458.927 65.452 458.927 65.4713 458.936 65.4902L459.413 67.1094C459.507 67.4271 459.975 67.3941 460.024 67.0663L460.626 62.9079C460.675 62.5554 461.192 62.5554 461.246 62.9079L461.683 65.95C461.736 66.3104 462.267 66.299 462.302 65.9368L462.463 64.3392C462.499 63.9766 463.034 63.9656 463.083 64.3264L463.283 65.7212C463.323 65.994 463.676 66.0829 463.841 65.8616L465.356 63.8429C465.383 63.8068 465.401 63.7659 465.41 63.7223L466.498 58.5563C466.565 58.2478 467.001 58.2232 467.1 58.5228L469.191 64.7924L470.528 67.4702L471.54 69.2382C471.669 69.4661 472.008 69.4401 472.102 69.1955L472.762 67.4702L474.005 63.4632C474.099 63.1684 474.523 63.1745 474.607 63.472L475.125 65.3389C475.209 65.6442 475.651 65.6398 475.726 65.3332L476.547 62.1361C476.551 62.122 476.556 62.108 476.56 62.0943L477.67 59.4372L479.079 55.2101C479.177 54.9082 479.619 54.936 479.681 55.2484L481.014 62.1146L481.134 62.6452C481.206 62.973 481.683 62.966 481.745 62.636L482.066 60.9371C482.138 60.564 482.699 60.6234 482.686 61.0031L482.628 63.0025C482.619 63.3483 483.105 63.4451 483.23 63.1222L484.763 59.2123C484.795 59.1415 484.848 59.0834 484.915 59.0491L486.052 58.4802C486.114 58.4494 486.163 58.3996 486.195 58.3385L487.34 55.9752C487.483 55.6796 487.933 55.7803 487.933 56.1086V57.5456C487.933 57.8378 488.303 57.9658 488.491 57.7366L489.249 56.7884C489.262 56.769 489.275 56.7479 489.284 56.7254L490.684 53.6996C490.822 53.3982 491.277 53.4963 491.277 53.8272V56.6946C491.277 56.7373 491.286 56.7796 491.304 56.8183L492.187 58.8036C492.311 59.0856 492.735 59.0315 492.78 58.727L493.511 54.0815L494.402 49.7303L495.294 37.6803L495.816 26.4989C495.833 26.1261 496.382 26.0992 496.435 26.4685L496.462 26.6413C496.516 27.0039 497.051 26.9872 497.082 26.622L497.737 18.7221C497.746 18.6445 497.782 18.5722 497.84 18.5198L498.772 17.6804C498.829 17.627 498.87 17.5532 498.874 17.4741L499.596 7.19226C499.619 6.83335 500.14 6.80092 500.212 7.15389L500.778 9.98225C500.845 10.3158 501.331 10.3124 501.393 9.97798L502.138 5.95322C502.173 5.75068 502.396 5.64077 502.583 5.73383L504.153 6.51826C504.197 6.54013 504.246 6.55153 504.295 6.55153H505.49C505.655 6.55153 505.789 6.67609 505.802 6.83709L506.467 15.7961C506.493 16.1632 507.033 16.1824 507.086 15.8181L507.43 13.486C507.474 13.1936 507.871 13.1234 508.014 13.3825L508.651 14.5264C508.669 14.5649 508.682 14.6074 508.687 14.6511L509.351 23.2875L510.221 28.7601C510.274 29.0942 510.756 29.112 510.831 28.7829L511.059 27.8227C511.143 27.4739 511.661 27.5225 511.674 27.8805L511.799 30.8507C511.803 30.9369 511.843 31.0176 511.91 31.0733L513.399 32.3129C513.582 32.4664 513.863 32.3645 513.908 32.1301L514.648 27.894C514.71 27.5592 515.192 27.5511 515.263 27.8839L517.39 37.9791C517.452 38.2812 517.875 38.3136 517.987 38.0249L519.378 34.369C519.387 34.3452 519.391 34.3204 519.396 34.2951L520.43 25.2521C520.47 24.8887 521.005 24.8869 521.05 25.25L521.607 29.8681C521.616 29.9414 521.652 30.0092 521.71 30.059L522.74 30.986L523.52 31.5731C523.591 31.6255 523.636 31.7046 523.645 31.7908L524.3 39.0192" stroke="#17EC20" stroke-width="3" stroke-linecap="round"/>
<path d="M517.612 104.72H487.296C481.632 104.72 477.042 109.251 477.042 114.84C477.042 120.429 481.632 124.96 487.296 124.96H517.612C523.276 124.96 527.867 120.429 527.867 114.84C527.867 109.251 523.276 104.72 517.612 104.72Z" fill="white"/>
<path d="M484.723 117.48V111.899H486.622C488.299 111.899 489.293 112.928 489.293 114.68V114.688C489.293 116.447 488.303 117.48 486.622 117.48H484.723ZM485.428 116.853H486.578C487.857 116.853 488.571 116.08 488.571 114.696V114.688C488.571 113.296 487.857 112.526 486.578 112.526H485.428V116.853ZM490.064 117.48V113.458H490.746V114.139H490.76C490.898 113.675 491.25 113.381 491.709 113.381C491.83 113.381 491.928 113.4 491.986 113.408V114.061C491.928 114.042 491.785 114.023 491.62 114.023C491.09 114.023 490.746 114.386 490.746 114.997V117.48H490.064ZM493.653 117.557C492.842 117.557 492.298 117.074 492.298 116.343V116.335C492.298 115.651 492.837 115.221 493.774 115.167L494.942 115.102V114.765C494.942 114.274 494.616 113.976 494.05 113.976C493.524 113.976 493.194 114.224 493.118 114.583L493.109 114.618H492.449L492.454 114.575C492.512 113.914 493.096 113.381 494.059 113.381C495.022 113.381 495.624 113.895 495.624 114.7V117.48H494.942V116.827H494.928C494.688 117.267 494.197 117.557 493.653 117.557ZM492.993 116.343C492.993 116.73 493.314 116.973 493.805 116.973C494.447 116.973 494.942 116.536 494.942 115.952V115.624L493.854 115.69C493.31 115.72 492.993 115.96 492.993 116.335V116.343ZM497.296 117.48L496.159 113.458H496.836L497.652 116.73H497.666L498.589 113.458H499.244L500.171 116.73H500.185L501.001 113.458H501.674L500.537 117.48H499.846L498.923 114.367H498.91L497.991 117.48H497.296ZM503.769 117.557C502.726 117.557 502.035 116.737 502.035 115.469V115.465C502.035 114.197 502.73 113.381 503.756 113.381C504.331 113.381 504.803 113.667 505.062 114.131H505.075V111.899H505.758V117.48H505.075V116.799H505.062C504.803 117.267 504.349 117.557 503.769 117.557ZM503.898 116.962C504.589 116.962 505.08 116.37 505.08 115.469V115.465C505.08 114.568 504.585 113.976 503.898 113.976C503.181 113.976 502.73 114.549 502.73 115.465V115.469C502.73 116.393 503.181 116.962 503.898 116.962ZM508.366 117.557C507.233 117.557 506.48 116.749 506.48 115.469V115.461C506.48 114.181 507.238 113.381 508.361 113.381C509.489 113.381 510.252 114.177 510.252 115.461V115.469C510.252 116.753 509.494 117.557 508.366 117.557ZM508.37 116.962C509.088 116.962 509.556 116.412 509.556 115.469V115.461C509.556 114.518 509.083 113.976 508.361 113.976C507.652 113.976 507.175 114.521 507.175 115.461V115.469C507.175 116.416 507.652 116.962 508.37 116.962ZM511.75 117.48L510.608 113.458H511.286L512.102 116.73H512.115L513.038 113.458H513.698L514.621 116.73H514.639L515.45 113.458H516.128L514.991 117.48H514.295L513.377 114.367H513.359L512.441 117.48H511.75ZM516.685 117.48V113.458H517.367V114.03H517.385C517.603 113.655 518.018 113.381 518.638 113.381C519.529 113.381 520.047 113.953 520.047 114.869V117.48H519.364V114.99C519.364 114.336 519.057 113.976 518.428 113.976C517.786 113.976 517.367 114.429 517.367 115.113V117.48H516.685Z" fill="#0B0528"/>
</svg>
