<svg width="535" height="134" viewBox="0 0 535 134" fill="none" xmlns="http://www.w3.org/2000/svg">
<path d="M5.02344 14.2811C5.02344 13.2918 5.82277 12.5537 6.88863 12.5537C7.8996 12.5537 8.69501 13.2407 8.69501 14.1083C8.69501 14.7404 8.40896 15.2115 7.46464 16.189L6.03441 17.669V17.6848H8.78908V18.3129H5.0587V17.8261L7.04926 15.7258C7.80945 14.9249 7.9897 14.6226 7.9897 14.1515C7.9897 13.6058 7.49206 13.1701 6.86901 13.1701C6.20681 13.1701 5.70525 13.649 5.70525 14.2811V14.285H5.02344V14.2811ZM10.1644 18.3521C9.91365 18.3521 9.71775 18.1558 9.71775 17.9046C9.71775 17.6533 9.91365 17.457 10.1644 17.457C10.4152 17.457 10.6112 17.6533 10.6112 17.9046C10.6112 18.1558 10.4152 18.3521 10.1644 18.3521ZM13.6205 18.4071C12.3 18.4071 11.5359 17.2686 11.5359 15.4784C11.5359 13.704 12.3078 12.5537 13.6205 12.5537C14.9332 12.5537 15.6973 13.6962 15.6973 15.4745C15.6973 17.2647 14.9371 18.4071 13.6205 18.4071ZM13.6205 17.7907C14.5022 17.7907 14.9881 16.8917 14.9881 15.4784C14.9881 14.0848 14.4943 13.174 13.6205 13.174C12.7467 13.174 12.2451 14.0927 12.2451 15.4745C12.2451 16.8878 12.735 17.7907 13.6205 17.7907Z" fill="white" fill-opacity="0.3"/>
<path opacity="0.7" d="M21.3999 15.6338H528.758" stroke="white" stroke-opacity="0.3" stroke-linecap="round"/>
<path d="M8.09164 38.8602V33.9451H8.07599L6.5791 34.9894V34.2788L8.08379 33.1953H8.77345V38.8602H8.09164ZM10.4153 38.9151C10.1645 38.9151 9.96859 38.7189 9.96859 38.4676C9.96859 38.2164 10.1645 38.0201 10.4153 38.0201C10.6661 38.0201 10.862 38.2164 10.862 38.4676C10.862 38.7189 10.6661 38.9151 10.4153 38.9151ZM13.7577 38.9544C12.6762 38.9544 11.9043 38.2792 11.822 37.3566L11.8181 37.3134H12.5117L12.5156 37.3448C12.5861 37.9063 13.0877 38.3342 13.7656 38.3342C14.5336 38.3342 15.0665 37.8003 15.0665 37.0387V37.0308C15.0626 36.2849 14.5258 35.751 13.7773 35.751C13.3933 35.751 13.0641 35.8648 12.8134 36.0925C12.7115 36.1867 12.6214 36.2967 12.5469 36.4262H11.9239L12.2139 33.1953H15.4505V33.8234H12.7938L12.6018 35.7274H12.6175C12.8839 35.3466 13.3541 35.1425 13.9027 35.1425C14.9881 35.1425 15.7718 35.9316 15.7718 37.019V37.0269C15.7679 38.1614 14.9333 38.9544 13.7577 38.9544Z" fill="white" fill-opacity="0.3"/>
<path opacity="0.7" d="M21.3999 36.1797H528.758" stroke="white" stroke-opacity="0.3" stroke-linecap="round"/>
<path d="M7.9974 59.4068V54.4917H7.9817L6.48486 55.536V54.8253L7.98955 53.7417H8.67921V59.4068H7.9974ZM10.321 59.4617C10.0703 59.4617 9.87431 59.2656 9.87431 59.0142C9.87431 58.7631 10.0703 58.5666 10.321 58.5666C10.5718 58.5666 10.7677 58.7631 10.7677 59.0142C10.7677 59.2656 10.5718 59.4617 10.321 59.4617ZM13.6125 59.501C12.3116 59.501 11.5397 58.3741 11.5397 56.5763V56.5687C11.5397 54.7704 12.3116 53.6475 13.6125 53.6475C14.9135 53.6475 15.6932 54.7704 15.6932 56.5687V56.5763C15.6932 58.3741 14.9135 59.501 13.6125 59.501ZM13.6125 58.8846C14.4746 58.8846 14.984 57.9975 14.984 56.5763V56.5687C14.984 55.1474 14.4746 54.2679 13.6125 54.2679C12.7505 54.2679 12.2489 55.1474 12.2489 56.5687V56.5763C12.2489 57.9975 12.7505 58.8846 13.6125 58.8846Z" fill="white" fill-opacity="0.3"/>
<path opacity="0.7" d="M21.3999 56.7266H528.758" stroke="white" stroke-opacity="0.3" stroke-linecap="round"/>
<path d="M7.27256 80.0479C5.97162 80.0479 5.19971 78.921 5.19971 77.1231V77.1155C5.19971 75.3173 5.97162 74.1943 7.27256 74.1943C8.57351 74.1943 9.35327 75.3173 9.35327 77.1155V77.1231C9.35327 78.921 8.57351 80.0479 7.27256 80.0479ZM7.27256 79.4315C8.13463 79.4315 8.64404 78.5444 8.64404 77.1231V77.1155C8.64404 75.6942 8.13463 74.8148 7.27256 74.8148C6.4105 74.8148 5.90894 75.6942 5.90894 77.1155V77.1231C5.90894 78.5444 6.4105 79.4315 7.27256 79.4315ZM10.4152 80.0086C10.1644 80.0086 9.96847 79.8125 9.96847 79.561C9.96847 79.31 10.1644 79.1135 10.4152 79.1135C10.6659 79.1135 10.8619 79.31 10.8619 79.561C10.8619 79.8125 10.6659 80.0086 10.4152 80.0086ZM13.7576 80.0479C12.6761 80.0479 11.9042 79.3725 11.8219 78.4502L11.818 78.4068H12.5116L12.5155 78.4381C12.586 78.9996 13.0876 79.4275 13.7655 79.4275C14.5335 79.4275 15.0664 78.8937 15.0664 78.1321V78.1241C15.0625 77.3782 14.5257 76.8444 13.7772 76.8444C13.3932 76.8444 13.064 76.9583 12.8132 77.1861C12.7114 77.2804 12.6213 77.3902 12.5468 77.5198H11.9238L12.2137 74.2886H15.4504V74.917H12.7937L12.6017 76.8207H12.6173C12.8838 76.4402 13.354 76.236 13.9026 76.236C14.988 76.236 15.7717 77.0249 15.7717 78.1125V78.1205C15.7678 79.2551 14.9331 80.0479 13.7576 80.0479Z" fill="white" fill-opacity="0.3"/>
<path opacity="0.7" d="M21.3999 77.2734H528.758" stroke="white" stroke-opacity="0.3" stroke-linecap="round"/>
<path d="M7.17886 100.594C5.87792 100.594 5.10596 99.4669 5.10596 97.669V97.6614C5.10596 95.8632 5.87792 94.7402 7.17886 94.7402C8.47976 94.7402 9.25956 95.8632 9.25956 97.6614V97.669C9.25956 99.4669 8.47976 100.594 7.17886 100.594ZM7.17886 99.9774C8.04092 99.9774 8.55029 99.0903 8.55029 97.669V97.6614C8.55029 96.2401 8.04092 95.3607 7.17886 95.3607C6.3168 95.3607 5.81523 96.2401 5.81523 97.6614V97.669C5.81523 99.0903 6.3168 99.9774 7.17886 99.9774ZM10.3214 100.554C10.0707 100.554 9.87472 100.358 9.87472 100.107C9.87472 99.8559 10.0707 99.6594 10.3214 99.6594C10.5722 99.6594 10.7681 99.8559 10.7681 100.107C10.7681 100.358 10.5722 100.554 10.3214 100.554ZM13.6129 100.594C12.312 100.594 11.5401 99.4669 11.5401 97.669V97.6614C11.5401 95.8632 12.312 94.7402 13.6129 94.7402C14.9139 94.7402 15.6937 95.8632 15.6937 97.6614V97.669C15.6937 99.4669 14.9139 100.594 13.6129 100.594ZM13.6129 99.9774C14.475 99.9774 14.9844 99.0903 14.9844 97.669V97.6614C14.9844 96.2401 14.475 95.3607 13.6129 95.3607C12.7509 95.3607 12.2493 96.2401 12.2493 97.6614V97.669C12.2493 99.0903 12.7509 99.9774 13.6129 99.9774Z" fill="white" fill-opacity="0.3"/>
<path opacity="0.7" d="M21.3999 97.8203H528.758" stroke="white" stroke-opacity="0.3" stroke-linecap="round"/>
<path d="M1.86914 119.068V118.432H4.37695V119.068H1.86914ZM7.27269 121.141C5.97175 121.141 5.19984 120.014 5.19984 118.216V118.208C5.19984 116.41 5.97175 115.287 7.27269 115.287C8.57364 115.287 9.3534 116.41 9.3534 118.208V118.216C9.3534 120.014 8.57364 121.141 7.27269 121.141ZM7.27269 120.524C8.13476 120.524 8.64417 119.637 8.64417 118.216V118.208C8.64417 116.787 8.13476 115.908 7.27269 115.908C6.41063 115.908 5.90907 116.787 5.90907 118.208V118.216C5.90907 119.637 6.41063 120.524 7.27269 120.524ZM10.4153 121.101C10.1645 121.101 9.9686 120.905 9.9686 120.654C9.9686 120.403 10.1645 120.206 10.4153 120.206C10.6661 120.206 10.862 120.403 10.862 120.654C10.862 120.905 10.6661 121.101 10.4153 121.101ZM13.7577 121.141C12.6762 121.141 11.9043 120.465 11.822 119.543L11.8181 119.5H12.5117L12.5156 119.531C12.5861 120.092 13.0877 120.52 13.7656 120.52C14.5336 120.52 15.0665 119.986 15.0665 119.225V119.217C15.0626 118.471 14.5258 117.937 13.7773 117.937C13.3933 117.937 13.0642 118.051 12.8134 118.279C12.7115 118.373 12.6214 118.483 12.5469 118.613H11.9239L12.2139 115.381H15.4505V116.01H12.7938L12.6018 117.914H12.6175C12.8839 117.533 13.3541 117.329 13.9027 117.329C14.9882 117.329 15.7718 118.118 15.7718 119.205V119.213C15.7679 120.348 14.9333 121.141 13.7577 121.141Z" fill="white" fill-opacity="0.3"/>
<path opacity="0.7" d="M21.3999 118.366H528.758" stroke="white" stroke-opacity="0.3" stroke-linecap="round"/>
<path d="M27.1958 92.6809L28.6193 103.031L29.618 106.997C29.703 107.335 30.1914 107.304 30.2337 106.959L30.7972 102.359C30.8388 102.019 31.3149 101.981 31.41 102.309L32.6433 106.572C32.734 106.886 33.1825 106.87 33.2514 106.551L33.8803 103.635L33.9657 102.897C34.0029 102.576 34.4413 102.514 34.5665 102.811L34.6418 102.99C34.7327 103.207 35.025 103.239 35.1609 103.048C35.3059 102.844 35.6216 102.898 35.6915 103.138L36.0526 104.379C36.112 104.582 36.3708 104.643 36.514 104.486C36.6606 104.326 36.9263 104.394 36.9783 104.605L37.3238 106.008C37.3935 106.29 37.7761 106.335 37.9081 106.075L38.288 105.328C38.4161 105.075 38.7852 105.108 38.8677 105.378L39.0187 105.874C39.0591 106.006 39.1808 106.096 39.3188 106.096H39.6648C39.8381 106.096 39.9785 106.237 39.9785 106.41V106.917C39.9785 107.051 40.0627 107.17 40.1885 107.214L40.6793 107.387C40.7957 107.428 40.8774 107.533 40.8881 107.656L41.1953 111.181C41.2244 111.515 41.6853 111.578 41.802 111.264L42.1743 110.261C42.1965 110.201 42.2363 110.15 42.2883 110.113L43.0562 109.574C43.0854 109.553 43.1109 109.528 43.1316 109.499L43.7714 108.6C43.8859 108.439 44.1184 108.422 44.2543 108.566L44.6622 108.995C44.7839 109.124 44.9872 109.126 45.1116 109.001L46.0844 108.025C46.2498 107.859 46.5316 107.926 46.6047 108.148L46.82 108.804C46.8624 108.933 46.9828 109.02 47.1183 109.02H48.4826C48.6007 109.02 48.7086 109.087 48.7621 109.192L49.7171 111.071C49.7625 111.16 49.8486 111.223 49.9485 111.239L50.3096 111.295C50.4037 111.31 50.4861 111.367 50.5338 111.45L51.0381 112.336C51.1665 112.561 51.4968 112.542 51.5989 112.303L51.9997 111.364C52.0131 111.334 52.0309 111.306 52.0528 111.28L55.0787 107.838C55.1197 107.792 55.1732 107.759 55.2334 107.742L56.6052 107.375C56.6685 107.358 56.7247 107.322 56.7661 107.272L57.7456 106.079C57.792 106.022 57.8174 105.952 57.8174 105.879V104.484C57.8174 104.382 57.8669 104.286 57.9507 104.227L58.6248 103.753C58.6797 103.715 58.7207 103.66 58.7421 103.596L59.3172 101.89C59.3546 101.779 59.4505 101.698 59.5664 101.68L59.8156 101.641C59.953 101.62 60.06 101.511 60.0782 101.373L60.2637 99.983C60.2677 99.9508 60.2771 99.9191 60.2913 99.8896L60.6904 99.0481C60.7073 99.0123 60.7309 98.9802 60.7595 98.9534L60.8669 98.8529C60.9137 98.8087 60.9463 98.7515 60.9596 98.689L61.1206 97.9359C61.146 97.8171 61.2374 97.7233 61.356 97.6956L61.8709 97.575C61.9837 97.5486 62.0724 97.462 62.1023 97.3499L62.2708 96.7192C62.2749 96.704 62.278 96.6888 62.2798 96.6732L62.4906 94.7931C62.4969 94.74 62.5161 94.6895 62.5473 94.6457L62.7064 94.422C62.7176 94.4068 62.7296 94.392 62.7434 94.3791L63.5432 93.6023C63.5901 93.5572 63.6213 93.4987 63.6333 93.4348L63.9516 91.7545C63.9574 91.7232 63.9579 91.691 63.9525 91.6593C63.8995 91.3525 64.3248 91.2189 64.4563 91.5008L64.8816 92.412C64.9962 92.6567 65.3453 92.6523 65.4536 92.4048L66.5477 89.8977C66.5843 89.8133 66.7002 89.8048 66.7488 89.8829C66.8094 89.9803 66.9597 89.9374 66.9597 89.8226V87.856C66.9597 87.8314 66.9623 87.8073 66.9681 87.7832L67.6173 85.0464C67.6249 85.0152 67.6369 84.9852 67.6534 84.9575L68.6761 83.2472C68.8335 82.9833 69.237 83.0802 69.2579 83.3871L69.3774 85.1219C69.4015 85.4743 69.8982 85.5248 69.9927 85.184L70.0248 85.0679C70.105 84.7789 70.513 84.7762 70.5968 85.0643C70.686 85.3703 71.13 85.3305 71.1777 85.0152C71.2281 84.6851 71.6989 84.6556 71.7733 84.9812L71.8291 85.2251C71.9008 85.5378 72.3391 85.5547 72.4345 85.2488L73.0074 83.4147C73.1077 83.0945 73.5718 83.1334 73.6177 83.4657L73.8723 85.3126L73.9954 87.7639C74.0052 87.9605 74.1911 88.0998 74.3824 88.0538L75.9624 87.6719C75.9793 87.6684 75.9967 87.6697 76.0123 87.6764C76.0587 87.696 76.0747 87.7537 76.0462 87.7948L75.1577 89.07C75.1211 89.1227 75.1015 89.1852 75.1015 89.25V90.054C75.1015 90.2273 75.2419 90.368 75.4153 90.368H77.5718C77.7453 90.368 77.8857 90.2273 77.8857 90.054V87.7148L78.3266 83.484C78.3302 83.45 78.3391 83.417 78.3534 83.3857L78.9789 82.018C78.9936 81.9863 79.0025 81.9528 79.0061 81.9189L79.208 79.9308C79.2179 79.8338 79.2718 79.7472 79.3543 79.6958L79.7448 79.4519C79.8367 79.3943 79.8929 79.2934 79.8929 79.1853V70.5642C79.8929 70.4494 79.9553 70.3435 80.056 70.2886L81.18 69.6744C81.2134 69.6561 81.2433 69.632 81.2682 69.6025L81.6454 69.1612C81.6659 69.1366 81.6829 69.1094 81.6954 69.0803L81.9165 68.5622C82.0101 68.3438 82.3017 68.304 82.4501 68.4889L83.1421 69.3537C83.2883 69.5359 83.575 69.5006 83.6722 69.288L84.0939 68.3666C84.1171 68.3156 84.1532 68.2719 84.1992 68.2401L84.9294 67.7269C84.9887 67.6849 85.032 67.6242 85.0516 67.5541L85.6838 65.2828C85.6882 65.2676 85.6914 65.2524 85.6931 65.2368L86.1194 61.7438C86.1301 61.6554 86.1778 61.5754 86.2504 61.5245L86.9018 61.0671C86.9816 61.0108 87.0306 60.9211 87.0351 60.8233L87.2513 55.8608L87.6918 53.4867C87.6954 53.468 87.6972 53.4488 87.6972 53.4296V37.6511C87.6972 37.6066 87.7065 37.5626 87.7248 37.522L88.2692 36.3111C88.3851 36.053 88.756 36.068 88.8505 36.3346L89.4809 38.1058L90.596 42.2834L90.8225 43.2873C90.8996 43.6302 91.3949 43.6067 91.4395 43.2579L91.4921 42.8448C91.5367 42.498 92.028 42.4719 92.1087 42.812L92.74 45.4722C92.8167 45.7951 93.2759 45.7938 93.3508 45.4704L93.6134 44.3368C93.6932 43.9916 94.1934 44.0221 94.2308 44.3744L94.3864 45.8345L94.9161 48.9745C94.9642 49.2613 95.3419 49.3341 95.493 49.0862L95.5808 48.9419C95.7226 48.7101 96.0713 48.7552 96.1493 49.0156L97.5086 53.5627M97.5086 53.5627L95.9473 49.3122M97.5086 53.5627L97.9544 55.3382L98.3735 58.4144C98.4212 58.765 98.9215 58.7811 98.9919 58.4345L99.5153 55.8608L100.133 52.9289C100.206 52.5818 100.707 52.6028 100.751 52.9548L101.299 57.3227L101.74 62.9025C101.744 62.9422 101.754 62.9806 101.772 63.0168L102.997 65.5025C103.049 65.6102 103.159 65.6781 103.278 65.6781H103.884C104.057 65.6781 104.198 65.8188 104.198 65.9921V69.3622C104.198 69.4118 104.209 69.4609 104.232 69.5051L104.884 70.7866C105.02 71.0559 105.421 70.9952 105.473 70.6968L105.731 69.1822C105.749 69.0808 105.814 68.9941 105.908 68.9503L107.405 68.2486C107.492 68.208 107.555 68.1303 107.578 68.0369L107.744 67.3365C107.758 67.2767 107.79 67.2222 107.835 67.1798L108.123 66.91C108.18 66.8564 108.215 66.7836 108.222 66.7054L108.65 61.378C108.655 61.3213 108.675 61.2672 108.708 61.2208L108.784 61.114C108.925 60.9157 109.228 60.9465 109.326 61.169L110.424 63.6533C110.436 63.6801 110.444 63.7083 110.448 63.7373L110.884 66.9064C110.886 66.9229 110.89 66.939 110.895 66.9551L111.336 68.4009C111.417 68.6685 111.781 68.7038 111.913 68.4572L112.249 67.8274C112.389 67.5652 112.78 67.6264 112.834 67.919L113.771 73.0101C113.781 73.0646 113.805 73.1155 113.841 73.1575L114.17 73.543C114.211 73.5903 114.236 73.6484 114.243 73.71L114.671 77.3164C114.676 77.3553 114.687 77.3928 114.706 77.4276L114.913 77.8158C115.054 78.0802 115.45 78.015 115.499 77.7193L116.22 73.4161C116.232 73.3424 116.27 73.2754 116.327 73.2276L116.986 72.6729C117.159 72.5264 117.425 72.6072 117.489 72.8252L118.023 74.6596L118.692 77.1663L119.138 80.5083L119.359 86.7312C119.36 86.7603 119.365 86.7889 119.374 86.8161L119.839 88.2669C119.918 88.513 120.243 88.5639 120.393 88.3531L121.097 87.3642C121.128 87.32 121.17 87.2851 121.219 87.2619L121.739 87.0185C121.788 86.9957 121.83 86.9604 121.861 86.9162L122.446 86.0947C122.47 86.0612 122.501 86.0322 122.536 86.0103L123.757 85.2474C123.799 85.2215 123.834 85.1862 123.859 85.1447L124.235 84.5296C124.255 84.4948 124.27 84.4564 124.276 84.4166L124.695 81.867C124.706 81.7987 124.74 81.7362 124.79 81.6884L125.086 81.4119C125.133 81.3677 125.165 81.3101 125.179 81.2466L125.982 77.4089C126.051 77.0797 126.519 77.0748 126.595 77.4026L127.171 79.8865C127.24 80.1822 127.646 80.218 127.765 79.9388L128.294 78.7015C128.418 78.4107 128.844 78.4648 128.892 78.7775L129.379 81.9671C129.389 82.0372 129.423 82.1011 129.474 82.1493L129.988 82.6295C130.037 82.6764 130.071 82.7381 130.082 82.8051L130.765 86.7219C130.819 87.0341 131.249 87.0783 131.366 86.7835L131.828 85.6124C131.926 85.3662 132.264 85.3435 132.394 85.5739L132.718 86.1506C132.866 86.415 133.265 86.336 133.302 86.0345L133.564 83.9043C133.608 83.5532 134.107 83.53 134.182 83.8757L134.727 86.3717C134.74 86.4302 134.769 86.4842 134.811 86.5267L135.882 87.6014C136.062 87.7809 136.369 87.6844 136.413 87.4343L136.506 86.913C136.565 86.5821 137.031 86.5624 137.118 86.8871L137.4 87.9413C137.415 87.998 137.445 88.0494 137.488 88.0896L137.97 88.5411C138.134 88.6944 138.4 88.6314 138.479 88.421L139.19 86.5066C139.201 86.4767 139.216 86.4485 139.236 86.4235L140.077 85.3399C140.091 85.3216 140.104 85.3024 140.113 85.2818L140.99 83.4326L141.868 81.5839C141.878 81.5633 141.889 81.5437 141.903 81.5258L142.729 80.4618C142.759 80.4239 142.779 80.3792 142.789 80.3319L143.205 78.2852C143.215 78.2361 143.236 78.1905 143.268 78.1512L143.889 77.3754L145.204 75.938C145.219 75.9215 145.233 75.9032 145.244 75.884L145.591 75.2872C145.72 75.067 146.042 75.0831 146.148 75.3145L146.546 76.1854C146.559 76.2127 146.567 76.2413 146.571 76.2708L147.181 80.4574C147.209 80.6485 147.4 80.7696 147.585 80.712L148.203 80.519C148.393 80.4596 148.59 80.59 148.609 80.7888L148.874 83.5126C148.907 83.8511 149.378 83.9034 149.484 83.5805L149.765 82.7255C149.834 82.5138 150.095 82.4397 150.265 82.5831L150.661 82.9176C150.833 83.0628 151.098 82.9846 151.163 82.7689L151.454 81.8152C151.538 81.5396 151.918 81.5133 152.039 81.7746L152.789 83.3915C152.802 83.4188 152.819 83.4442 152.838 83.4666L154.339 85.1733C154.359 85.1965 154.376 85.2224 154.388 85.2501L155.022 86.6343C155.033 86.658 155.047 86.6808 155.063 86.7013L157.442 89.6386C157.475 89.6784 157.496 89.7253 157.506 89.7753L159.265 98.6291C159.272 98.6635 159.284 98.6961 159.302 98.7265L159.909 99.7695C159.932 99.8092 159.946 99.8534 159.95 99.8994L160.239 103.076C160.27 103.422 160.756 103.468 160.853 103.134L161.223 101.851C161.309 101.554 161.726 101.547 161.822 101.841L162.236 103.101C162.31 103.324 162.593 103.391 162.758 103.224L163.531 102.438C163.646 102.322 163.831 102.313 163.956 102.419L164.792 103.123C164.83 103.155 164.86 103.195 164.879 103.24L165.385 104.424C165.502 104.699 165.899 104.67 165.976 104.382L166.175 103.638C166.183 103.606 166.197 103.575 166.216 103.547L166.766 102.709C166.902 102.503 167.212 102.527 167.314 102.753L167.808 103.852C167.891 104.037 168.126 104.095 168.286 103.97L169.148 103.297C169.246 103.221 169.38 103.21 169.489 103.268L170.732 103.934C170.819 103.98 170.879 104.065 170.895 104.162L171.846 110.223C171.892 110.517 172.282 110.589 172.429 110.33L172.522 110.167C172.657 109.928 173.011 109.966 173.093 110.227L173.454 111.367C173.548 111.664 173.969 111.658 174.055 111.358L174.184 110.903C174.204 110.834 174.247 110.774 174.306 110.732L175.048 110.21C175.087 110.183 175.119 110.148 175.142 110.107L176.002 108.577C176.109 108.387 176.372 108.361 176.513 108.526L178.262 110.574C178.369 110.699 178.554 110.72 178.686 110.623L180.012 109.647L181.026 108.777C181.187 108.639 181.435 108.697 181.518 108.892L181.797 109.543L182.128 110.318C182.243 110.588 182.631 110.567 182.716 110.287L182.881 109.747C182.901 109.682 182.941 109.626 182.995 109.585L184.383 108.563C184.441 108.521 184.482 108.461 184.501 108.391L185.05 106.334C185.098 106.152 185.295 106.054 185.47 106.124L186.617 106.584C186.673 106.607 186.721 106.645 186.756 106.693L187.248 107.385C187.425 107.634 187.817 107.508 187.817 107.202V106.573C187.817 106.47 187.867 106.374 187.95 106.315L189.006 105.574C189.098 105.509 189.217 105.499 189.32 105.547L190.117 105.92C190.213 105.965 190.324 105.958 190.414 105.904L193.124 104.243C193.154 104.225 193.18 104.203 193.202 104.176L194.484 102.632C194.611 102.479 194.846 102.481 194.97 102.637L196.022 103.95C196.052 103.988 196.073 104.032 196.083 104.079L196.659 106.686C196.7 106.871 196.894 106.979 197.073 106.913L198.443 106.415C198.608 106.354 198.79 106.442 198.847 106.608L199.54 108.638C199.594 108.795 199.759 108.883 199.918 108.84L202.485 108.153C202.64 108.112 202.801 108.194 202.859 108.343L202.992 108.687C203.083 108.92 203.395 108.959 203.54 108.755L204.575 107.302C204.678 107.156 204.881 107.126 205.022 107.235L208.254 109.728C208.41 109.848 208.637 109.797 208.725 109.621L209.324 108.428C209.394 108.288 209.556 108.222 209.704 108.271L212.381 109.167C212.496 109.205 212.621 109.174 212.706 109.088L213.527 108.241C213.621 108.145 213.764 108.119 213.885 108.175L215.348 108.86C215.424 108.896 215.483 108.961 215.511 109.04L215.634 109.386C215.669 109.484 215.75 109.559 215.85 109.585L219.155 110.456C219.222 110.473 219.292 110.468 219.356 110.441L221.37 109.592C221.446 109.56 221.506 109.501 221.537 109.426L222.138 108.02C222.15 107.991 222.158 107.96 222.161 107.928L222.363 105.945C222.373 105.843 222.432 105.753 222.522 105.703L224.392 104.652C224.519 104.58 224.679 104.606 224.778 104.713L225.88 105.918C225.924 105.966 225.951 106.026 225.96 106.091L226.17 107.767L226.537 112.238C226.562 112.541 226.959 112.635 227.118 112.376L227.384 111.939C227.457 111.819 227.601 111.762 227.737 111.8L229.664 112.342C229.712 112.356 229.757 112.381 229.794 112.415L230.778 113.337C230.928 113.477 231.171 113.437 231.268 113.255L231.693 112.459C231.727 112.397 231.78 112.347 231.845 112.319L234.557 111.147C234.613 111.122 234.676 111.115 234.736 111.126L239.823 112.019C239.93 112.038 240.02 112.11 240.06 112.212L240.63 113.634C240.652 113.69 240.691 113.739 240.741 113.774L241.366 114.213C241.479 114.293 241.63 114.289 241.739 114.204L242.14 113.891C242.195 113.848 242.263 113.825 242.333 113.825H243.924C243.98 113.825 244.034 113.839 244.082 113.868L244.828 114.304C244.876 114.332 244.93 114.347 244.986 114.347H246.14C246.204 114.347 246.267 114.327 246.32 114.29L247.533 113.438C247.562 113.417 247.594 113.402 247.628 113.392L248.573 113.127C248.649 113.106 248.715 113.056 248.756 112.988L250.004 110.942C250.021 110.914 250.034 110.884 250.041 110.853L250.602 108.577C250.651 108.379 250.874 108.279 251.054 108.375L252.016 108.89C252.155 108.965 252.328 108.924 252.42 108.796L253.767 106.902C253.802 106.853 253.85 106.815 253.906 106.793L258.385 104.995C258.461 104.964 258.545 104.965 258.62 104.995L260.182 105.636C260.25 105.663 260.306 105.714 260.34 105.778L261.141 107.278C261.256 107.493 261.561 107.501 261.686 107.291L262.913 105.239C262.945 105.185 262.993 105.142 263.05 105.116L263.922 104.707C264.019 104.661 264.132 104.669 264.223 104.727L269.611 108.158C269.638 108.176 269.663 108.198 269.684 108.223L270.899 109.687C271.046 109.863 271.325 109.828 271.424 109.621L272.077 108.243C272.096 108.205 272.121 108.17 272.153 108.142L274.112 106.41L275.273 105.594C275.379 105.519 275.521 105.518 275.629 105.59L277.274 106.703C277.383 106.778 277.528 106.775 277.635 106.696L278.973 105.711C279.002 105.69 279.035 105.673 279.071 105.663L280.758 105.169C280.787 105.16 280.817 105.156 280.846 105.156H282.029C282.101 105.156 282.17 105.132 282.225 105.087L284.927 102.918C285.093 102.785 285.339 102.851 285.416 103.049L286.508 105.861C286.561 105.998 286.702 106.08 286.848 106.057L289.226 105.686C289.258 105.681 289.291 105.681 289.323 105.686L291.865 106.083C291.921 106.092 291.974 106.115 292.017 106.151L293.834 107.665C293.912 107.729 294.015 107.752 294.112 107.728L296.313 107.165C296.376 107.149 296.443 107.153 296.504 107.177L298.934 108.126C299.029 108.163 299.137 108.151 299.222 108.094L300.5 107.239C300.591 107.178 300.708 107.169 300.807 107.215L304.322 108.862C304.396 108.897 304.454 108.959 304.483 109.036L305.061 110.572C305.09 110.648 305.148 110.711 305.222 110.745L306.543 111.364C306.622 111.402 306.714 111.404 306.795 111.37L308.393 110.715C308.431 110.7 308.467 110.676 308.496 110.647L309.822 109.316C309.931 109.206 310.105 109.193 310.229 109.285L311.384 110.135C311.496 110.217 311.649 110.216 311.76 110.132L313.126 109.092C313.256 108.993 313.441 109.011 313.55 109.133L314.238 109.906C314.362 110.046 314.581 110.046 314.706 109.906L315.505 109.008C315.558 108.949 315.631 108.912 315.71 108.905L316.437 108.836C316.59 108.822 316.71 108.699 316.721 108.546L316.895 106.102C316.909 105.891 317.123 105.755 317.32 105.831L320.622 107.105C320.683 107.128 320.749 107.132 320.812 107.116L323.045 106.545C323.124 106.525 323.208 106.536 323.279 106.577L325.071 107.603C325.138 107.642 325.217 107.654 325.292 107.638L327.596 107.147C327.617 107.143 327.639 107.14 327.661 107.14H328.74C328.875 107.14 328.995 107.227 329.037 107.355L330.016 110.288C330.055 110.406 330.16 110.49 330.284 110.502L332.239 110.685C332.286 110.689 332.334 110.683 332.378 110.666L334.379 109.917C334.479 109.879 334.593 109.895 334.678 109.961L336.185 111.107C336.272 111.173 336.387 111.189 336.488 111.15L337.537 110.74C337.617 110.709 337.706 110.712 337.784 110.749L338.703 111.179C338.751 111.201 338.794 111.237 338.825 111.281L339.251 111.88C339.357 112.028 339.565 112.056 339.706 111.941L340.265 111.482C340.313 111.443 340.371 111.419 340.432 111.413L342.292 111.219C342.327 111.216 342.361 111.206 342.393 111.191L343.244 110.793C343.371 110.733 343.523 110.766 343.615 110.873L344.197 111.554C344.289 111.662 344.44 111.695 344.568 111.635L347.984 110.035C348.083 109.988 348.198 109.997 348.289 110.056L350.282 111.363C350.341 111.402 350.41 111.419 350.48 111.413L352.687 111.226C352.775 111.218 352.856 111.173 352.91 111.103L354.998 108.364C355.035 108.316 355.086 108.278 355.144 108.258L356.739 107.698C356.804 107.675 356.859 107.632 356.897 107.574L357.731 106.305L359.069 104.321L359.945 103.191C359.956 103.178 359.967 103.166 359.979 103.155L360.579 102.592C360.613 102.561 360.639 102.523 360.655 102.481L361.35 100.775C361.433 100.571 361.694 100.513 361.854 100.664L362.32 101.1C362.476 101.246 362.729 101.197 362.819 101.003L363.455 99.6328C363.569 99.3862 363.921 99.392 364.028 99.6417L364.832 101.525C364.936 101.768 365.273 101.783 365.397 101.55L366.053 100.322C366.136 100.166 366.33 100.109 366.483 100.196L367.147 100.569C367.252 100.627 367.382 100.621 367.481 100.552L368.587 99.7744C368.633 99.7422 368.669 99.6984 368.693 99.648L369.303 98.3124C369.318 98.2798 369.339 98.2499 369.364 98.2244L370.391 97.1663C370.424 97.1319 370.449 97.0908 370.463 97.0452L370.878 95.7821C370.884 95.7651 370.888 95.7477 370.891 95.7298L371.316 92.843C371.327 92.7688 371.364 92.7009 371.421 92.6514L372.773 91.4753C372.849 91.4092 372.952 91.3837 373.05 91.4065L374.417 91.7268C374.567 91.7621 374.721 91.6826 374.779 91.5392L376.438 87.4584C376.454 87.4209 376.462 87.3803 376.462 87.3396V86.0456C376.462 85.9764 376.484 85.9094 376.526 85.8549L377.244 84.9138C377.391 84.7204 377.692 84.761 377.783 84.9861L378.444 86.6107C378.46 86.65 378.484 86.6857 378.514 86.7156L380.475 88.6546L381.744 89.744C381.789 89.7829 381.822 89.8338 381.84 89.891L382.223 91.1483C382.31 91.4315 382.703 91.4489 382.814 91.1742L383.775 88.7953C383.878 88.5416 384.232 88.5313 384.349 88.7783L384.826 89.7838C384.89 89.9173 385.037 89.9883 385.181 89.9548L385.644 89.8463C385.757 89.8199 385.874 89.8579 385.951 89.9446L387.372 91.5611C387.382 91.5731 387.392 91.5856 387.401 91.599L388.48 93.2843C388.599 93.4697 388.866 93.4786 388.996 93.3017L390.407 91.3927C390.551 91.1975 390.852 91.2332 390.948 91.4561L391.088 91.7839C391.142 91.9103 391.272 91.9872 391.409 91.9729L393.057 91.8014C393.139 91.7929 393.215 91.7522 393.267 91.6884L394.3 90.4301L394.969 89.3858L395.84 88.0596C395.854 88.0386 395.865 88.0159 395.874 87.9922L396.492 86.2542C396.517 86.1854 396.564 86.1278 396.626 86.0903L397.869 85.3417C397.998 85.264 398.163 85.289 398.264 85.4006L399.546 86.8268C399.7 86.9975 399.978 86.9515 400.068 86.7402L400.99 84.5814L401.646 82.839C401.655 82.8171 401.661 82.7943 401.664 82.7711L402.105 79.5685L402.997 71.7353V64.5435C402.997 64.1996 403.469 64.1054 403.6 64.4234L403.93 65.2202C404.049 65.5097 404.471 65.4655 404.528 65.1577L405.221 61.4218C405.225 61.4044 405.229 61.3874 405.236 61.3713L406.228 58.6605C406.332 58.3737 406.744 58.3907 406.825 58.6851L407.456 60.9782L408.125 65.469L408.711 68.2826C408.781 68.6158 409.255 68.6162 409.325 68.283L410.355 63.3804L411.379 60.4056C411.425 60.2738 411.583 60.2225 411.698 60.3024C411.809 60.3806 411.963 60.3337 412.013 60.2068L412.861 58.0226C412.974 57.7287 413.401 57.7672 413.461 58.0767L413.923 60.4561L414.221 63.8083C414.252 64.1545 414.738 64.2018 414.835 63.8686L414.936 63.5207C414.987 63.3451 415.191 63.267 415.346 63.3639C415.515 63.4697 415.737 63.3652 415.764 63.1669L416.333 58.9919C416.349 58.8762 416.497 58.8365 416.568 58.9289C416.584 58.9495 416.593 58.974 416.596 58.9995L416.787 61.4682C416.801 61.6496 417.018 61.734 417.151 61.6098C417.285 61.4839 417.505 61.5728 417.515 61.7568L418.155 73.936C418.158 73.9995 418.18 74.0602 418.218 74.1102L418.887 74.987C419.045 75.1943 419.372 75.1295 419.439 74.8772L420.382 71.344C420.387 71.3266 420.393 71.3092 420.401 71.2927L421.225 69.5181C421.336 69.2773 421.677 69.2751 421.792 69.514L423.511 73.0932L424.337 75.0286C424.446 75.2827 424.806 75.2827 424.914 75.0286L425.959 72.5817C426.057 72.3526 426.37 72.3236 426.509 72.5308L427.272 73.6752C427.292 73.7047 427.316 73.7306 427.345 73.752L428.417 74.5551L429.142 75.167C429.321 75.3176 429.596 75.2269 429.65 74.9991L430.188 72.7305C430.196 72.6939 430.211 72.6595 430.232 72.6282L431.279 71.0591C431.303 71.0229 431.32 70.9822 431.327 70.9394L431.849 68.0079C431.898 67.7296 432.26 67.6528 432.418 67.8868L433.274 69.1567C433.306 69.2041 433.349 69.2416 433.401 69.2657L435.729 70.356C435.88 70.4266 436.06 70.3667 436.139 70.2193L436.972 68.6573C437.105 68.4085 437.472 68.4474 437.551 68.7181L438.439 71.7983C438.447 71.826 438.459 71.8523 438.474 71.8769L440.458 75.0777L441.127 76.4351L442.327 79.3398C442.4 79.5158 442.611 79.5873 442.775 79.4908L442.998 79.3608C443.178 79.2554 443.408 79.3519 443.46 79.5542L443.882 81.1997C443.944 81.4414 444.249 81.5182 444.417 81.3342L446.016 79.5877C446.025 79.5748 446.038 79.5631 446.052 79.5524L446.952 78.852C447.14 78.7046 447.416 78.8145 447.452 79.0513L448.383 84.9812C448.424 85.2416 448.749 85.339 448.927 85.1451L450.492 83.4326L451.326 82.5527C451.366 82.5134 451.393 82.4651 451.406 82.4129L451.83 80.7173L452.409 77.8296C452.449 77.6206 452.695 77.529 452.864 77.6599C453.016 77.7783 453.239 77.7162 453.305 77.5366L454.424 74.6172C454.531 74.3447 454.915 74.3492 455.013 74.6244L456.096 77.6653C456.181 77.9002 456.489 77.9489 456.64 77.7506L457.099 77.1489C457.242 76.9644 457.527 76.9912 457.63 77.1994L458.941 79.8361C458.959 79.8664 458.968 79.8986 458.972 79.9321L459.409 82.9927C459.409 83.0074 459.413 83.0226 459.413 83.0373V86.7558C459.413 87.1015 459.886 87.194 460.015 86.8728L461.232 83.8413C461.357 83.5371 461.803 83.6001 461.834 83.9262L461.99 85.4122C462.021 85.7137 462.418 85.8008 462.57 85.5404L462.935 84.9254C463.056 84.7221 463.35 84.7199 463.475 84.9222L463.845 85.5333C463.965 85.7258 464.237 85.7356 464.371 85.552L464.986 84.686L466.074 82.8484C466.092 82.8202 466.105 82.7899 466.114 82.7582L466.507 81.0291C466.578 80.7155 467.019 80.6999 467.113 81.0077L467.661 82.8059L468.54 84.8575C468.548 84.8825 468.562 84.9057 468.58 84.9267L470.336 87.1927L471.384 88.66C471.518 88.8498 471.803 88.831 471.915 88.6256L473.203 86.2104C473.225 86.1693 473.256 86.1336 473.292 86.1059L475.86 84.2018C475.896 84.1768 475.923 84.145 475.945 84.1089L477.666 81.1832C477.688 81.1515 477.71 81.1229 477.742 81.0997L478.517 80.4623C478.562 80.4243 478.598 80.3734 478.615 80.3162L479.329 78.1155C479.427 77.8064 479.873 77.8336 479.935 78.1521L480.367 80.3805C480.372 80.3962 480.376 80.4114 480.381 80.4261L481.46 83.4585C481.553 83.7207 481.915 83.7408 482.035 83.4902L482.61 82.3066C482.713 82.1007 482.989 82.0676 483.136 82.2445L483.627 82.8417C483.774 83.0195 484.055 82.9851 484.153 82.7769L484.817 81.3726C484.826 81.3534 484.839 81.3355 484.853 81.3185L486.168 79.5685L487.452 77.6791C487.581 77.4888 487.866 77.4973 487.982 77.6952L488.834 79.1281C488.843 79.1433 488.847 79.1589 488.856 79.175L489.391 80.5605C489.503 80.8428 489.908 80.8219 489.989 80.5293L490.782 77.6072C490.867 77.3017 491.299 77.2976 491.389 77.6014L491.955 79.5265C491.964 79.5542 491.977 79.5806 491.99 79.6051L492.713 80.7522C492.855 80.9818 493.203 80.9331 493.279 80.6731L493.742 79.0714C493.747 79.0548 493.751 79.0374 493.756 79.02L494.42 73.3022L495.312 67.6622L495.758 57.2182L496.204 54.5029L497.086 51.3977C497.095 51.3789 497.095 51.3597 497.1 51.3405L497.501 47.0105C497.519 46.7934 497.751 46.663 497.947 46.755C498.094 46.8247 498.272 46.768 498.352 46.6246L499.293 44.9559C499.315 44.9157 499.329 44.8701 499.329 44.8236L499.77 38.5235L500.64 34.1509C500.657 34.0747 500.697 34.0069 500.76 33.9605L501.696 33.2573C501.75 33.2181 501.79 33.1637 501.808 33.1015L502.436 31.1393C502.445 31.1188 502.45 31.0975 502.45 31.076L502.895 26.8263L503.337 18.3358C503.337 18.2874 503.35 18.2403 503.377 18.198L505.035 15.2445C505.192 14.9697 505.606 15.0685 505.619 15.3836L506.155 26.4399C506.172 26.7899 506.663 26.8539 506.765 26.52L507.893 22.9669C507.991 22.6655 508.419 22.6785 508.5 22.9851L508.905 24.6026C508.91 24.6229 508.914 24.6436 508.914 24.6645L509.534 37.5156C509.547 37.8237 509.953 37.9283 510.114 37.6663L511.01 36.2221C511.175 35.9534 511.589 36.0717 511.589 36.388V40.6513C511.589 40.7573 511.643 40.8562 511.732 40.9143L513.435 42.0305C513.618 42.152 513.867 42.0483 513.912 41.8312L514.884 37.1294C514.951 36.8036 515.41 36.7921 515.495 37.1142L516.048 39.2547L516.944 45.3123L517.425 47.6461C517.483 47.94 517.884 47.9896 518.014 47.7198L518.709 46.2838C518.718 46.2628 518.731 46.2427 518.749 46.2244L519.333 45.4905C519.373 45.4423 519.396 45.3838 519.405 45.3226L520.065 38.1058L521.005 33.8876C521.085 33.5213 521.625 33.5808 521.625 33.9562V38.9573C521.625 39.1778 521.866 39.3124 522.053 39.1957C522.187 39.1131 522.361 39.1544 522.441 39.2877L523.092 40.3575C523.15 40.451 523.252 40.5079 523.359 40.5079H523.769C523.943 40.5079 524.081 40.6438 524.086 40.8142L524.3 49.1764" stroke="#17EC20" stroke-width="2.81508" stroke-linecap="round"/>
<path d="M28.9775 93.419L30.6051 106.236L31.0378 108.012C31.1195 108.348 31.6035 108.324 31.6531 107.983L32.3164 103.407C32.3653 103.07 32.839 103.04 32.9294 103.368L34.2941 108.321C34.3768 108.621 34.7987 108.631 34.8949 108.335L35.4472 106.633C35.4533 106.615 35.4575 106.596 35.46 106.576L35.7902 104.03C35.8372 103.667 36.3599 103.664 36.4119 104.026L36.685 105.925C36.7233 106.191 37.0564 106.289 37.2325 106.086L37.7406 105.499C37.9017 105.313 38.2039 105.376 38.2771 105.612L39.0731 108.165C39.1698 108.475 39.615 108.453 39.68 108.134L39.9831 106.652C40.0522 106.313 40.5361 106.318 40.5989 106.657L40.9359 108.476C40.9635 108.625 41.0932 108.733 41.2445 108.733H41.5542C41.7274 108.733 41.8679 108.874 41.8679 109.048V109.348C41.8679 109.488 41.9605 109.611 42.0948 109.65L42.5006 109.767C42.6463 109.809 42.7412 109.95 42.7259 110.101L42.4114 113.21C42.38 113.521 42.7726 113.682 42.9682 113.438L44.0789 112.053L44.7159 111.162C44.7368 111.132 44.7529 111.099 44.7627 111.063L45.1991 109.502C45.2763 109.227 45.6494 109.189 45.7801 109.442L46.4261 110.695C46.5482 110.931 46.8893 110.918 46.9936 110.674L47.6824 109.059C47.7676 108.859 48.0253 108.804 48.1844 108.952L49.4123 110.095L50.4609 111.089C50.4805 111.107 50.4979 111.128 50.5121 111.151L51.5175 112.777C51.567 112.857 51.6503 112.911 51.744 112.923L52.1207 112.971C52.209 112.983 52.2883 113.031 52.3387 113.104L52.5719 113.441C52.7475 113.694 53.1434 113.569 53.1434 113.262V113.008C53.1434 112.941 53.1653 112.875 53.2054 112.821L56.2041 108.775C56.2629 108.695 56.3566 108.648 56.456 108.648H57.3093C57.374 108.648 57.4368 108.628 57.4899 108.591L58.4654 107.904C58.501 107.879 58.5309 107.847 58.5532 107.81L58.9353 107.179C58.954 107.148 58.9669 107.114 58.9741 107.078L59.1773 106.07C59.1827 106.044 59.1916 106.018 59.2037 105.993L59.8309 104.725C59.8448 104.697 59.8546 104.667 59.8595 104.637L60.0588 103.428C60.0686 103.368 60.0958 103.313 60.1363 103.268L61.1346 102.167C61.1675 102.131 61.1916 102.087 61.2046 102.041L61.6214 100.546C61.6263 100.529 61.6326 100.512 61.6406 100.496L62.2688 99.1743C62.2861 99.1381 62.3107 99.1055 62.3401 99.0778L63.5389 97.9764C63.5965 97.9241 63.6321 97.8522 63.6393 97.7749L63.8408 95.6657C63.8466 95.6028 63.872 95.5425 63.9125 95.4938L65.1212 94.0502C65.1613 94.0024 65.1863 93.9438 65.193 93.8818L65.3223 92.6686C65.3521 92.3877 65.7084 92.2863 65.8818 92.5092L66.4369 93.2225C66.5773 93.4034 66.8577 93.3775 66.9629 93.1742L68.2719 90.6421C68.2857 90.6162 68.2951 90.5885 68.3009 90.5599L69.6571 83.8331C69.7284 83.4793 70.2407 83.5053 70.2768 83.8639L70.6776 87.8772C70.7115 88.218 71.1877 88.2667 71.2893 87.9398L71.9277 85.89C72.0245 85.58 72.4699 85.6023 72.535 85.9208L72.9322 87.8634C72.9973 88.1823 73.444 88.2037 73.5394 87.8924L74.4177 85.019C74.5234 84.6742 75.0316 84.7501 75.0316 85.1115V86.0164C75.0316 86.1272 75.09 86.2299 75.185 86.2866L76.1181 86.8414C76.222 86.9035 76.2813 87.0201 76.2702 87.1411L75.8444 91.7047L75.6941 92.5748C75.6344 92.9192 76.0967 93.0889 76.2737 92.7879L77.5336 90.6407C77.6634 90.4201 77.9875 90.4389 78.0909 90.6729L78.9973 92.7213C79.1257 93.0121 79.5555 92.9491 79.5952 92.6333L79.8957 90.2629V89.0712V86.2344C79.8957 86.2085 79.8988 86.1826 79.9055 86.1571L80.7214 82.9282C80.7276 82.9023 80.7374 82.8777 80.7499 82.8545L81.6326 81.2326C81.7749 80.9713 82.1667 81.0361 82.2171 81.3295L82.416 82.481C82.457 82.7182 82.7383 82.8232 82.9242 82.6709L85.3362 80.693C85.375 80.6609 85.4057 80.6202 85.4258 80.5742L86.062 79.094L86.9242 77.4297C86.9416 77.3966 86.9528 77.3609 86.9572 77.3238L87.1917 75.4523L88.0607 71.9924L88.7392 67.7915L89.0446 66.4408C89.1012 66.1893 89.4196 66.1094 89.5876 66.3046L90.0455 66.8348C90.2229 67.0402 90.5591 66.9388 90.5939 66.6695L90.9358 64.0216C90.9452 63.9497 90.9786 63.8836 91.0308 63.834L91.9818 62.9282C92.0317 62.8809 92.0647 62.8179 92.0754 62.7491L92.4196 60.5488C92.4731 60.208 92.9564 60.1897 93.0353 60.5256L93.622 63.0296C93.7031 63.3758 94.206 63.3418 94.2395 62.9876L94.3211 62.1349C94.3541 61.7856 94.8471 61.745 94.9367 62.084L96.745 68.9238C96.8391 69.2798 97.3621 69.2115 97.3621 68.8434V63.1006C97.3621 62.742 97.865 62.6633 97.9742 63.0046L98.9096 65.9191L99.3518 67.3658L99.766 69.8658C99.8222 70.2026 100.298 70.2214 100.38 69.89L100.899 67.7915L101.512 65.401C101.597 65.0695 102.075 65.0936 102.126 65.4318L102.668 68.9832L103.11 73.5794L103.363 75.8217C103.378 75.9494 103.468 76.0553 103.592 76.0892L104.97 76.4694C105.088 76.502 105.177 76.6007 105.196 76.7217L105.542 78.8568L105.924 81.3425C105.98 81.7038 106.503 81.6949 106.546 81.3313L106.925 78.1278C106.935 78.0412 106.98 77.9626 107.051 77.9112L108.847 76.5908C108.907 76.5471 108.949 76.4828 108.967 76.4104L109.946 72.2926C109.958 72.2434 109.981 72.1979 110.014 72.1595L110.108 72.0509C110.252 71.8848 110.518 71.9143 110.622 72.1081L111.708 74.1297C111.725 74.1601 111.736 74.1927 111.742 74.2266L112.169 76.7798C112.173 76.8026 112.174 76.8258 112.173 76.849L112.109 78.0086C112.092 78.3235 112.496 78.4651 112.678 78.2082L113.616 76.8865C113.778 76.6596 114.132 76.7391 114.181 77.013L115.031 81.736C115.043 81.8008 115.075 81.8606 115.123 81.9066L115.414 82.1867C115.464 82.2354 115.497 82.2992 115.507 82.3685L115.934 85.3259L116.051 86.581C116.086 86.9459 116.61 86.9669 116.673 86.606L117.408 82.4248C117.444 82.2166 117.671 82.1036 117.859 82.1992L118.464 82.5087C118.482 82.5177 118.499 82.5284 118.515 82.5405L119.174 83.0537C119.224 83.0921 119.261 83.1448 119.28 83.2046L119.906 85.1329C119.911 85.1481 119.915 85.1637 119.917 85.1794L120.355 87.8795L120.577 92.9866L121.075 99.0421C121.1 99.3481 121.503 99.4401 121.658 99.1757L123.658 95.7689C123.667 95.7533 123.678 95.7386 123.689 95.7243L125.385 93.7294C125.421 93.6866 125.446 93.6348 125.455 93.5789L125.878 91.1191C125.881 91.1017 125.883 91.0838 125.883 91.066V89.0555C125.883 88.9582 125.928 88.8661 126.005 88.8063L126.253 88.6156C126.3 88.5794 126.336 88.5311 126.356 88.4753L126.797 87.2832C126.904 86.9919 127.323 87.0165 127.396 87.318L128.342 91.2187C128.422 91.5519 128.902 91.5332 128.957 91.1946L129.574 87.3671C129.63 87.0192 130.128 87.0134 130.192 87.36L130.504 89.0377C130.518 89.114 130.56 89.1824 130.621 89.2297L131.066 89.5728C131.144 89.6322 131.189 89.7242 131.189 89.822V96.5568C131.189 96.924 131.71 96.9932 131.806 96.6386L132.752 93.1256C132.842 92.791 133.327 92.8272 133.366 93.1711L133.559 94.8452C133.6 95.2075 134.121 95.22 134.18 94.8595L134.735 91.4452C134.787 91.1258 135.228 91.0838 135.34 91.3876L135.823 92.707C135.829 92.7231 135.833 92.7396 135.837 92.7562L136.568 96.5707C136.635 96.9195 137.138 96.9066 137.187 96.5542L137.568 93.7987C137.617 93.448 138.117 93.4324 138.187 93.7795L139.149 98.566C139.212 98.8773 139.644 98.9099 139.752 98.6111L141.787 93.0018C141.804 92.954 141.833 92.9116 141.87 92.8772L143.083 91.7677C143.124 91.7297 143.155 91.6815 143.171 91.6279L143.579 90.2986C143.587 90.2749 143.597 90.2517 143.609 90.2303L144.479 88.7665L144.886 87.82C144.893 87.8031 144.902 87.7865 144.912 87.7709L145.996 86.1303C146.021 86.0923 146.037 86.0495 146.044 86.0048L146.22 84.8725C146.222 84.8564 146.223 84.8403 146.223 84.8243V84.2347C146.223 84.1694 146.243 84.1056 146.281 84.0524L146.599 83.604C146.732 83.4159 147.016 83.4311 147.129 83.633L147.521 84.3392C147.54 84.3727 147.553 84.4089 147.558 84.4468L148.477 90.7256L149.158 93.6522C149.238 93.9983 149.74 93.9657 149.776 93.612L149.917 92.1893C149.943 91.9271 150.26 91.8115 150.448 91.9955L151.619 93.139C151.797 93.3127 152.096 93.2207 152.146 92.9768L152.505 91.2067C152.566 90.9087 152.971 90.8618 153.098 91.1383L154.03 93.1742L154.693 94.3659L155.565 95.9538C155.578 95.978 155.594 96.0003 155.613 96.0204L157.555 98.0425C157.574 98.0617 157.59 98.0836 157.604 98.1072L160.152 102.69L160.757 103.544C160.795 103.598 160.815 103.661 160.815 103.726V107.866L160.693 112.152C160.719 112.38 161.041 112.405 161.1 112.183L161.933 109.053C162.016 108.739 162.463 108.743 162.54 109.059L163.143 111.516C163.214 111.806 163.61 111.843 163.733 111.571L164.192 110.56C164.302 110.317 164.645 110.313 164.76 110.554L166.145 113.438C166.266 113.689 166.628 113.67 166.723 113.409L167.538 111.16C167.634 110.895 168.003 110.881 168.119 111.137L168.871 112.796C168.979 113.033 169.311 113.044 169.433 112.815L169.971 111.808C170.088 111.588 170.403 111.586 170.522 111.806L171.554 113.7C171.569 113.729 171.58 113.76 171.586 113.792L172.435 118.237C172.453 118.329 172.534 118.396 172.628 118.396C172.705 118.396 172.774 118.351 172.806 118.28L173.301 117.184C173.42 116.922 173.799 116.944 173.886 117.218L174.405 118.854C174.455 119.012 174.687 118.976 174.687 118.811C174.687 118.78 174.696 118.75 174.715 118.725L175.835 117.192C175.844 117.179 175.855 117.166 175.867 117.154L176.42 116.603C176.449 116.574 176.472 116.541 176.488 116.504L177.108 115.05C177.209 114.813 177.536 114.792 177.667 115.014L179.503 118.143C179.629 118.358 179.942 118.347 180.054 118.125L181.302 115.631C181.415 115.403 181.738 115.399 181.859 115.623L182.947 117.648C183.085 117.905 183.468 117.851 183.53 117.566L183.939 115.688C183.979 115.501 184.175 115.394 184.354 115.459L184.926 115.67C185.132 115.745 185.348 115.593 185.348 115.375V113.992C185.348 113.798 185.522 113.65 185.713 113.682L187.417 113.963C187.513 113.979 187.597 114.039 187.642 114.125L188.235 115.235C188.377 115.502 188.777 115.433 188.822 115.134L189.068 113.507C189.097 113.312 189.296 113.192 189.482 113.257L191.397 113.929C191.502 113.966 191.62 113.943 191.705 113.87L194.011 111.883L194.938 110.881C195.044 110.767 195.216 110.747 195.345 110.834L195.924 111.229C195.98 111.266 196.022 111.321 196.044 111.385L197.011 114.164C197.07 114.335 197.261 114.42 197.427 114.351L198.655 113.844C198.795 113.786 198.957 113.837 199.039 113.966L200.311 115.97C200.393 116.099 200.555 116.15 200.696 116.092L202.108 115.508C202.186 115.476 202.273 115.476 202.35 115.51L203.978 116.207C204.121 116.269 204.289 116.215 204.37 116.081L205.377 114.415C205.475 114.254 205.692 114.214 205.84 114.332L208.787 116.667C208.951 116.797 209.194 116.732 209.272 116.538L209.48 116.022C209.528 115.903 209.643 115.825 209.771 115.825H213.477C213.53 115.825 213.581 115.812 213.628 115.786L213.871 115.653C213.954 115.608 214.052 115.602 214.139 115.637L217.277 116.904C217.314 116.919 217.354 116.927 217.394 116.927H220.985C221.065 116.927 221.142 116.896 221.2 116.841L223.051 115.087C223.088 115.051 223.117 115.006 223.133 114.956L223.266 114.552C223.305 114.433 223.411 114.348 223.536 114.337L224.594 114.239C224.639 114.235 224.684 114.221 224.723 114.198L225.391 113.809C225.578 113.699 225.816 113.808 225.857 114.022L226.984 119.954C227.033 120.213 227.361 120.3 227.531 120.098L228.539 118.908C228.614 118.819 228.732 118.779 228.846 118.804L230.758 119.226C230.838 119.243 230.907 119.291 230.952 119.36L231.541 120.251C231.656 120.425 231.906 120.44 232.042 120.281L233.232 118.875C233.291 118.804 233.379 118.763 233.471 118.763H238.354C238.407 118.763 238.459 118.777 238.505 118.802L241.251 120.316C241.298 120.342 241.35 120.355 241.403 120.355H243.321H245.764H247.873C247.946 120.355 248.016 120.33 248.072 120.283L249.763 118.886L251.262 117.351C251.299 117.313 251.343 117.286 251.393 117.271L252.824 116.819C252.856 116.81 252.886 116.794 252.913 116.775L253.843 116.107C253.877 116.082 253.916 116.065 253.957 116.056L255.538 115.702L257.093 115.213L258.913 114.432C259.023 114.385 259.149 114.404 259.239 114.481L261.774 116.631C261.892 116.731 262.065 116.73 262.182 116.629L263.497 115.49C263.521 115.469 263.542 115.443 263.559 115.415L264.048 114.607C264.134 114.466 264.314 114.415 264.461 114.491L271.525 118.156C271.657 118.224 271.819 118.19 271.913 118.074L273.472 116.141C273.509 116.094 273.559 116.06 273.616 116.04L275.292 115.474C275.324 115.463 275.358 115.458 275.392 115.458H276.547C276.607 115.458 276.666 115.475 276.716 115.508L277.774 116.188C277.891 116.263 278.044 116.252 278.149 116.161L279.43 115.052C279.492 114.998 279.572 114.971 279.654 114.976L281.449 115.086C281.499 115.089 281.549 115.08 281.595 115.06L283.747 114.111L285.493 113.205C285.636 113.131 285.813 113.178 285.9 113.314L287.383 115.609C287.464 115.735 287.622 115.786 287.761 115.731L289.022 115.235C289.058 115.22 289.098 115.213 289.137 115.213H292.306C292.373 115.213 292.438 115.234 292.492 115.274L294.325 116.621C294.379 116.661 294.444 116.682 294.511 116.682H299.252C299.28 116.682 299.309 116.678 299.336 116.671L300.587 116.326C300.613 116.319 300.642 116.315 300.67 116.315H303.178C303.252 116.315 303.324 116.341 303.38 116.389L306.46 118.992C306.559 119.076 306.7 119.089 306.813 119.027L308.846 117.907L310.254 117.352C310.346 117.316 310.45 117.325 310.534 117.377L311.938 118.247C312.074 118.332 312.252 118.3 312.35 118.173L313.286 116.97C313.404 116.819 313.629 116.807 313.761 116.947L314.931 118.18C315.046 118.301 315.237 118.31 315.363 118.201L316.777 116.983C316.82 116.946 316.852 116.899 316.869 116.846L317.413 115.247C317.467 115.09 317.633 115.001 317.792 115.045L320.174 115.69C320.206 115.698 320.236 115.712 320.264 115.73L321.54 116.559C321.653 116.633 321.8 116.626 321.905 116.543L323.096 115.605C323.207 115.518 323.362 115.516 323.475 115.599L325.121 116.808C325.219 116.881 325.351 116.889 325.458 116.83L327.411 115.754C327.471 115.721 327.54 115.708 327.609 115.718L329.701 116.033C329.845 116.055 329.956 116.173 329.968 116.318L330.132 118.312C330.15 118.53 330.38 118.664 330.578 118.57L331.66 118.059C331.702 118.039 331.748 118.029 331.794 118.029H333.842C333.909 118.029 333.974 118.008 334.028 117.968L334.411 117.686C334.528 117.6 334.69 117.606 334.8 117.701L336.341 119.022C336.484 119.145 336.702 119.114 336.806 118.956L337.29 118.224C337.398 118.059 337.63 118.034 337.771 118.172L339.277 119.649C339.4 119.769 339.596 119.768 339.718 119.648L340.517 118.854C340.576 118.796 340.655 118.763 340.738 118.763H342.163H344.97C345.023 118.763 345.075 118.75 345.121 118.724L346.757 117.823C346.804 117.797 346.856 117.784 346.908 117.784H348.946C349.013 117.784 349.078 117.805 349.132 117.845L350.882 119.131C350.983 119.205 351.118 119.212 351.226 119.148L357.712 115.335L361.266 112.887L363.666 110.681C363.806 110.553 364.027 110.577 364.136 110.734L365.383 112.539C365.524 112.743 365.834 112.711 365.93 112.482L366.285 111.639C366.361 111.459 366.58 111.392 366.744 111.497L367.539 112.011C367.665 112.093 367.832 112.073 367.936 111.964L371.174 108.57C371.23 108.511 371.261 108.434 371.261 108.353V107.165C371.261 107.007 371.379 106.873 371.537 106.853L373.26 106.642L375.308 106.194C375.423 106.168 375.514 106.081 375.544 105.967L376.57 102.071C376.584 102.018 376.612 101.969 376.651 101.93L377.624 100.947C377.773 100.796 378.025 100.834 378.124 101.021L379.256 103.167C379.361 103.364 379.632 103.393 379.774 103.222L380.488 102.366C380.634 102.19 380.913 102.225 381.011 102.432L382.636 105.851C382.763 106.117 383.153 106.078 383.224 105.792L383.725 103.779C383.791 103.515 384.139 103.454 384.291 103.68L385.337 105.245C385.483 105.463 385.817 105.416 385.897 105.166L386.158 104.35C386.24 104.095 386.582 104.052 386.723 104.28L388.726 107.499C388.857 107.711 389.17 107.692 389.276 107.467L390.489 104.888C390.547 104.766 390.675 104.694 390.81 104.71L393.518 105.03C393.628 105.043 393.736 104.997 393.803 104.91L396.71 101.132C396.769 101.055 396.861 101.01 396.959 101.01H398.201C398.301 101.01 398.394 101.057 398.453 101.137L399.44 102.465C399.595 102.673 399.92 102.615 399.993 102.366L403.238 91.3657C403.243 91.3469 403.247 91.3277 403.249 91.3085L403.456 89.2503C403.464 89.1752 403.498 89.1051 403.553 89.0533L404.973 87.7115C405.006 87.6807 405.032 87.6427 405.049 87.6007L405.9 85.4876C405.908 85.4697 405.913 85.4509 405.917 85.4322L406.331 83.3788C406.347 83.3002 406.392 83.231 406.457 83.1845L407.976 82.1054C408.157 81.9763 408.411 82.0719 408.462 82.2885L408.57 82.7406C408.575 82.758 408.577 82.7763 408.578 82.7942L408.918 88.2658C408.939 88.612 409.423 88.6732 409.53 88.3426L411.217 83.1059C411.233 83.0546 411.263 83.0086 411.302 82.9719L412.833 81.5538C413.012 81.3876 413.304 81.4814 413.353 81.7213L414.373 86.6851C414.434 86.9861 414.847 87.0281 414.968 86.7458L415.906 84.5598L415.974 84.3914C416.089 84.1051 416.504 84.1391 416.571 84.4401L418.7 93.9631C418.774 94.2931 419.244 94.29 419.313 93.959L419.674 92.2336C419.68 92.2077 419.688 92.1826 419.7 92.159L420.749 90.0364C420.861 89.8086 421.183 89.8015 421.305 90.0239L423.014 93.1358C423.12 93.3306 423.389 93.356 423.531 93.1845L423.872 92.7705C424.049 92.5556 424.397 92.6601 424.426 92.9371L424.631 94.855C424.667 95.1941 425.141 95.241 425.242 94.9153L425.795 93.1479C425.852 92.967 426.054 92.8772 426.226 92.9563L429.5 94.4669C429.692 94.5549 429.913 94.4334 429.943 94.2248L430.542 89.9547C430.545 89.9332 430.551 89.9118 430.558 89.8912L431.583 87.0625C431.683 86.7878 432.07 86.786 432.172 87.0594L433.141 89.6474C433.246 89.9247 433.64 89.9171 433.733 89.6357L434.129 88.44C434.213 88.1854 434.556 88.1466 434.695 88.3757L435.753 90.1208C435.894 90.3535 436.244 90.3089 436.322 90.048L437.174 87.1929C437.261 86.9008 437.671 86.8919 437.771 87.18L439.586 92.4028C439.603 92.4506 439.631 92.494 439.668 92.5288L440.701 93.4999C440.853 93.6432 441.1 93.5999 441.195 93.4132L441.376 93.0586C441.495 92.8236 441.833 92.8316 441.941 93.0715L444.161 97.9871C444.277 98.243 444.644 98.2305 444.741 97.967L445.631 95.5639C445.728 95.3022 446.092 95.2874 446.208 95.5402L446.988 97.2067C447.122 97.4926 447.545 97.4256 447.581 97.1129L447.693 96.2486C447.733 95.9061 448.219 95.8734 448.303 96.2076L449.208 99.6241C449.284 99.9144 449.685 99.9417 449.801 99.6643L451.852 94.7291C451.879 94.6733 451.915 94.625 451.964 94.5906L452.641 94.1247C452.726 94.0662 452.78 93.9693 452.78 93.8657V93.1193C452.78 93.0746 452.788 93.0309 452.806 92.9902L454.059 90.2093C454.09 90.1342 454.153 90.0762 454.228 90.0467C454.402 89.9806 454.594 90.0802 454.639 90.2602L455.392 93.2135C455.468 93.5209 455.9 93.532 455.994 93.2287L457.042 89.83C457.117 89.5875 457.434 89.5294 457.59 89.7291L457.688 89.8533C457.724 89.8984 457.746 89.9524 457.751 90.0092L459.191 101.888C459.235 102.246 459.748 102.261 459.81 101.907L460.755 96.7154C460.769 96.6426 460.805 96.5765 460.862 96.5292L460.943 96.4635C461.09 96.3424 461.308 96.3782 461.406 96.5394L463.435 99.7862C463.546 99.9676 463.801 99.9855 463.939 99.822L465.869 97.5194C465.905 97.4801 465.927 97.4332 465.936 97.3827L466.333 95.5411C466.395 95.2365 466.814 95.2021 466.93 95.492L468.299 98.9805C468.317 99.0269 468.348 99.0685 468.384 99.1015L471.42 101.78C471.549 101.895 471.75 101.881 471.866 101.749L473.555 99.7813C473.618 99.7072 473.716 99.667 473.814 99.6728L475.428 99.772C475.566 99.78 475.691 99.6996 475.74 99.5723L476.716 97.0669C476.743 97.004 476.788 96.9504 476.846 96.9146L478.41 95.9382C478.482 95.8931 478.535 95.8207 478.553 95.7377L478.937 93.943C479.008 93.6214 479.463 93.6093 479.547 93.9269L480.528 97.5234C480.537 97.5618 480.555 97.5985 480.577 97.6302L481.3 98.5852C481.451 98.7848 481.763 98.7361 481.848 98.4998L482.659 96.1955C482.757 95.9181 483.145 95.915 483.248 96.1901L484.126 98.5499C484.238 98.8523 484.679 98.8085 484.728 98.49L485.321 94.814C485.365 94.5513 485.695 94.4571 485.869 94.6572L486.543 95.4295C486.707 95.6175 487.015 95.5478 487.082 95.3066L487.63 93.3346C487.702 93.0773 488.04 93.021 488.192 93.2417L489.369 94.9663C489.498 95.157 489.784 95.1463 489.9 94.9462L490.947 93.1282C491.068 92.925 491.357 92.9174 491.482 93.1144L492.971 95.4085C493.127 95.6519 493.502 95.5688 493.542 95.2812L494.755 86.7159C494.755 86.6953 494.764 86.6752 494.768 86.6556L496.315 82.2774L496.966 80.5974C496.975 80.5747 496.988 80.5528 497.002 80.5327L498.732 78.0255C498.749 78.0032 498.763 77.9791 498.772 77.9536L499.4 76.2134C499.414 76.175 499.436 76.1397 499.463 76.1098L500.533 74.931L501.616 73.8581C501.634 73.8389 501.652 73.8171 501.665 73.7938L503.493 70.6725C503.502 70.6546 503.511 70.6359 503.515 70.6162L504.746 67.0581C504.853 66.7419 505.317 66.7928 505.352 67.1251L505.967 72.5481C506.003 72.8576 506.418 72.9331 506.56 72.6557L507.737 70.3482C507.867 70.0981 508.232 70.1285 508.317 70.3965L509.855 75.2745C509.86 75.2902 509.864 75.3067 509.864 75.3232L510.51 79.6898C510.564 80.032 511.05 80.053 511.13 79.7166L511.661 77.4797C511.732 77.1947 512.115 77.1496 512.249 77.4109L513.707 80.3049C513.836 80.5639 514.22 80.5224 514.291 80.241L515.776 74.4084C515.856 74.0931 516.306 74.0931 516.387 74.4084L517.724 79.6541C517.809 79.981 518.277 79.9641 518.335 79.6318L519.427 73.5843L520.738 67.2443C520.805 66.9308 521.242 66.904 521.344 67.2073L522.967 71.9924L524.3 76.6449" stroke="#E03F00" stroke-width="2.81508" stroke-linecap="round"/>
</svg>
