<svg width="409" height="208" viewBox="0 0 409 208" fill="none" xmlns="http://www.w3.org/2000/svg">
<g clip-path="url(#clip0_32171_14433)">
<path d="M5.82422 5.56961C5.82422 4.08897 7.025 2.98438 8.62604 2.98438C10.1446 2.98438 11.3395 4.01259 11.3395 5.31107C11.3395 6.25704 10.9098 6.96209 9.49127 8.4251L7.34286 10.6402V10.6637H11.4808V11.6038H5.87722V10.8752L8.86735 7.73178C10.0092 6.5332 10.28 6.08076 10.28 5.3757C10.28 4.559 9.53247 3.90683 8.59659 3.90683C7.60182 3.90683 6.8484 4.62364 6.8484 5.56961V5.5755H5.82422V5.56961ZM13.5468 11.6625C13.1701 11.6625 12.8758 11.3687 12.8758 10.9927C12.8758 10.6167 13.1701 10.3229 13.5468 10.3229C13.9235 10.3229 14.2178 10.6167 14.2178 10.9927C14.2178 11.3687 13.9235 11.6625 13.5468 11.6625ZM18.7383 11.7448C16.7547 11.7448 15.6069 10.0409 15.6069 7.36163C15.6069 4.70589 16.7665 2.98438 18.7383 2.98438C20.7102 2.98438 21.858 4.69416 21.858 7.35574C21.858 10.035 20.7161 11.7448 18.7383 11.7448ZM18.7383 10.8223C20.0627 10.8223 20.7926 9.47683 20.7926 7.36163C20.7926 5.27583 20.051 3.91271 18.7383 3.91271C17.4257 3.91271 16.6723 5.28756 16.6723 7.35574C16.6723 9.47094 17.4081 10.8223 18.7383 10.8223Z" fill="white" fill-opacity="0.3"/>
<path d="M27.5537 7.30566H408.139" stroke="white" stroke-opacity="0.3" stroke-width="1.5" stroke-linecap="round"/>
<path d="M10.4332 50.0663V42.7101H10.4096L8.16113 44.2732V43.2096L10.4214 41.5879H11.4573V50.0663H10.4332ZM13.9236 50.1483C13.5469 50.1483 13.2526 49.8548 13.2526 49.4788C13.2526 49.1028 13.5469 48.8088 13.9236 48.8088C14.3003 48.8088 14.5946 49.1028 14.5946 49.4788C14.5946 49.8548 14.3003 50.1483 13.9236 50.1483ZM18.9445 50.2072C17.3199 50.2072 16.1604 49.1969 16.0367 47.8161L16.0309 47.7512H17.0727L17.0786 47.7985C17.1845 48.6386 17.938 49.2789 18.9562 49.2789C20.1099 49.2789 20.9104 48.48 20.9104 47.3399V47.3283C20.9045 46.2118 20.0981 45.4129 18.9739 45.4129C18.3971 45.4129 17.9026 45.5831 17.5259 45.9239C17.3729 46.0648 17.2375 46.2294 17.1256 46.4232H16.1898L16.6253 41.5879H21.4873V42.528H17.4965L17.2081 45.3777H17.2316C17.6319 44.8078 18.3382 44.5023 19.1622 44.5023C20.7927 44.5023 21.9699 45.6832 21.9699 47.3107V47.3223C21.964 49.0202 20.7103 50.2072 18.9445 50.2072Z" fill="white" fill-opacity="0.3"/>
<path d="M27.5537 45.7686H408.139" stroke="white" stroke-opacity="0.3" stroke-width="1.5" stroke-linecap="round"/>
<path d="M10.2915 88.5287V81.1727H10.268L8.01953 82.7357V81.672L10.2798 80.0501H11.3157V88.5287H10.2915ZM13.782 88.6108C13.4053 88.6108 13.111 88.3173 13.111 87.9412C13.111 87.5652 13.4053 87.2713 13.782 87.2713C14.1587 87.2713 14.453 87.5652 14.453 87.9412C14.453 88.3173 14.1587 88.6108 13.782 88.6108ZM18.7263 88.6697C16.7721 88.6697 15.6126 86.9833 15.6126 84.2927V84.2806C15.6126 81.5899 16.7721 79.9092 18.7263 79.9092C20.6805 79.9092 21.8519 81.5899 21.8519 84.2806V84.2927C21.8519 86.9833 20.6805 88.6697 18.7263 88.6697ZM18.7263 87.7474C20.0213 87.7474 20.7864 86.4195 20.7864 84.2927V84.2806C20.7864 82.1538 20.0213 80.8379 18.7263 80.8379C17.4314 80.8379 16.678 82.1538 16.678 84.2806V84.2927C16.678 86.4195 17.4314 87.7474 18.7263 87.7474Z" fill="white" fill-opacity="0.3"/>
<path d="M27.5537 84.2314H408.139" stroke="white" stroke-opacity="0.3" stroke-width="1.5" stroke-linecap="round"/>
<path d="M9.20261 127.133C7.2484 127.133 6.08887 125.446 6.08887 122.756V122.744C6.08887 120.053 7.2484 118.372 9.20261 118.372C11.1568 118.372 12.3281 120.053 12.3281 122.744V122.756C12.3281 125.446 11.1568 127.133 9.20261 127.133ZM9.20261 126.21C10.4975 126.21 11.2628 124.882 11.2628 122.756V122.744C11.2628 120.617 10.4975 119.301 9.20261 119.301C7.90767 119.301 7.15425 120.617 7.15425 122.744V122.756C7.15425 124.882 7.90767 126.21 9.20261 126.21ZM13.9232 127.074C13.5465 127.074 13.2522 126.78 13.2522 126.404C13.2522 126.028 13.5465 125.734 13.9232 125.734C14.3 125.734 14.5943 126.028 14.5943 126.404C14.5943 126.78 14.3 127.074 13.9232 127.074ZM18.9441 127.133C17.3195 127.133 16.16 126.122 16.0364 124.741L16.0305 124.677H17.0723L17.0782 124.724C17.1842 125.564 17.9376 126.204 18.9559 126.204C20.1096 126.204 20.9101 125.405 20.9101 124.265V124.254C20.9042 123.137 20.0978 122.338 18.9735 122.338C18.3967 122.338 17.9023 122.508 17.5255 122.849C17.3725 122.99 17.2371 123.155 17.1253 123.349H16.1894L16.625 118.513H21.4869V119.453H17.4961L17.2077 122.303H17.2312C17.6315 121.733 18.3379 121.428 19.1619 121.428C20.7923 121.428 21.9696 122.609 21.9696 124.236V124.248C21.9637 125.946 20.7099 127.133 18.9441 127.133Z" fill="white" fill-opacity="0.3"/>
<path d="M27.5537 122.694H408.139" stroke="white" stroke-opacity="0.3" stroke-width="1.5" stroke-linecap="round"/>
<path d="M9.061 165.595C7.1068 165.595 5.94727 163.909 5.94727 161.218V161.206C5.94727 158.516 7.1068 156.835 9.061 156.835C11.0152 156.835 12.1865 158.516 12.1865 161.206V161.218C12.1865 163.909 11.0152 165.595 9.061 165.595ZM9.061 164.673C10.3559 164.673 11.1211 163.345 11.1211 161.218V161.206C11.1211 159.08 10.3559 157.764 9.061 157.764C7.76607 157.764 7.01265 159.08 7.01265 161.206V161.218C7.01265 163.345 7.76607 164.673 9.061 164.673ZM13.7816 165.537C13.4049 165.537 13.1106 165.243 13.1106 164.867C13.1106 164.491 13.4049 164.197 13.7816 164.197C14.1583 164.197 14.4527 164.491 14.4527 164.867C14.4527 165.243 14.1583 165.537 13.7816 165.537ZM18.726 165.595C16.7718 165.595 15.6122 163.909 15.6122 161.218V161.206C15.6122 158.516 16.7718 156.835 18.726 156.835C20.6802 156.835 21.8515 158.516 21.8515 161.206V161.218C21.8515 163.909 20.6802 165.595 18.726 165.595ZM18.726 164.673C20.0209 164.673 20.7861 163.345 20.7861 161.218V161.206C20.7861 159.08 20.0209 157.764 18.726 157.764C17.431 157.764 16.6776 159.08 16.6776 161.206V161.218C16.6776 163.345 17.431 164.673 18.726 164.673Z" fill="white" fill-opacity="0.3"/>
<path d="M27.5537 161.157H408.139" stroke="white" stroke-opacity="0.3" stroke-width="1.5" stroke-linecap="round"/>
<path d="M29.436 174.614L28.2291 161.064C28.2147 160.902 28.0416 160.806 27.8961 160.878C27.8179 160.917 27.7686 160.997 27.7686 161.084V207.482C27.7686 207.649 27.9042 207.785 28.0716 207.785H408.266C408.433 207.785 408.569 207.649 408.569 207.482V78.2145L407.771 63.0482C407.762 62.8874 407.629 62.7615 407.468 62.7615H407.31C407.172 62.7615 407.051 62.6678 407.017 62.5346L406.487 60.4804C406.451 60.342 406.268 60.3102 406.188 60.4288C406.096 60.5642 405.884 60.4993 405.884 60.336V45.8048L404.693 58.4279L404.184 71.5727C404.183 71.6019 404.178 71.6307 404.169 71.6582L403.672 73.1237L403.239 75.2333C403.169 75.575 402.671 75.5466 402.641 75.199L402.311 71.4283L401.631 60.5006L401.285 57.3436C401.245 56.9801 400.714 56.9861 400.682 57.3501L400.006 65.0835C399.981 65.3705 399.606 65.4634 399.45 65.221L398.276 63.4014C398.244 63.3524 398.228 63.2957 398.228 63.2377V55.6912C398.228 55.3367 397.722 55.2714 397.632 55.6147L397.248 57.0772C397.159 57.4167 396.659 57.3578 396.652 57.0067L396.186 34.1232L396.041 32.7665C396.005 32.4334 395.534 32.3966 395.447 32.7199L394.888 34.7922C394.797 35.1277 394.304 35.0711 394.292 34.7239L393.711 17.721C393.699 17.3684 393.195 17.3183 393.113 17.6615L391.94 22.5991C391.935 22.6198 391.932 22.641 391.931 22.6623L391.592 38.0798L391.252 45.8048L390.749 49.5153C390.744 49.5531 390.732 49.59 390.713 49.6231L389.923 51.0224C389.901 51.0607 389.889 51.1023 389.885 51.1457L389.21 59.1817L388.871 70.6436C388.87 70.6642 388.867 70.6849 388.863 70.7046L388.096 73.9312C388.063 74.0679 387.89 74.1121 387.796 74.0077C387.691 73.8912 387.498 73.9613 387.492 74.1173L387.168 82.3561L386.488 88.0082L386.147 92.9069L385.807 111.748L385.126 121.922L384.616 132.284L384.297 134.875C384.256 135.205 383.789 135.237 383.704 134.915L383.255 133.226L382.887 130.27C382.843 129.915 382.326 129.917 382.285 130.273L381.802 134.462C381.762 134.811 381.259 134.823 381.202 134.477L380.873 132.473L380.296 130.174C380.221 129.874 379.797 129.867 379.711 130.164L378.831 133.226L377.811 136.429L377.349 138.731C377.288 139.033 376.866 139.062 376.765 138.771L376.641 138.412C376.54 138.122 376.119 138.149 376.057 138.451L375.771 139.847C375.703 140.177 375.225 140.165 375.174 139.831L374.407 134.734L374.124 131.277C374.094 130.917 373.571 130.903 373.522 131.261L373.053 134.682C373.048 134.716 373.038 134.749 373.023 134.78L372.382 136.021C372.371 136.042 372.363 136.064 372.357 136.087L371.015 141.476C371.008 141.503 370.997 141.529 370.984 141.553L368.985 145.057C368.971 145.083 368.959 145.111 368.953 145.14L368.026 149.248C367.957 149.551 367.53 149.566 367.44 149.268L366.751 146.98L365.39 142.835L364.709 139.067L364.372 136.455C364.326 136.097 363.805 136.105 363.77 136.464L363.521 139.045C363.519 139.06 363.516 139.074 363.513 139.089L362.668 142.459L362.3 143.681C362.211 143.974 361.792 143.966 361.716 143.669L361.618 143.291C361.539 142.984 361.1 142.991 361.03 143.3L360.873 143.989C360.828 144.19 360.599 144.287 360.422 144.181L359.776 143.795C359.729 143.767 359.676 143.752 359.62 143.752H358.916C358.755 143.752 358.622 143.625 358.614 143.464L358.414 139.444L358.075 133.814C358.074 133.799 358.072 133.784 358.069 133.77L357.118 129.254C357.054 128.951 356.628 128.929 356.533 129.224L356.428 129.549C356.33 129.854 355.887 129.817 355.84 129.502L355.13 124.781C355.078 124.44 354.586 124.437 354.531 124.778L353.73 129.718C353.704 129.878 353.489 129.915 353.411 129.772C353.331 129.623 353.106 129.67 353.091 129.839L352.629 135.299L352.293 138.46C352.29 138.488 352.283 138.515 352.273 138.541L351.608 140.198L350.571 142.877C350.454 143.179 350.008 143.111 349.986 142.788L349.296 132.388C349.275 132.085 348.871 131.997 348.727 132.264L348.205 133.226L347.124 136.021C347.009 136.317 346.574 136.26 346.54 135.945L346.229 133.077C346.206 132.865 345.933 132.793 345.807 132.966C345.686 133.133 345.423 133.073 345.388 132.87L344.462 127.574L343.952 125.125L342.42 119.284L341.781 114.047C341.74 113.71 341.26 113.686 341.185 114.017L340.678 116.265C340.623 116.504 340.322 116.583 340.157 116.401L338.554 114.626C338.523 114.592 338.5 114.551 338.488 114.506L337.952 112.628C337.859 112.303 337.384 112.351 337.359 112.688L336.978 117.747C336.976 117.767 336.973 117.787 336.967 117.806L336.132 120.766C336.127 120.783 336.124 120.8 336.122 120.818L335.719 124.84C335.689 125.141 335.282 125.216 335.146 124.945L334.764 124.183L333.931 122.707C333.919 122.686 333.91 122.664 333.903 122.641L333.419 120.924C333.332 120.616 332.886 120.637 332.829 120.953L332.17 124.604C332.11 124.936 331.633 124.936 331.573 124.604L331.021 121.545L329.791 115.495C329.726 115.171 329.261 115.173 329.197 115.497L328.639 118.342L327.946 124.481C327.909 124.805 327.456 124.85 327.356 124.54L326.951 123.283C326.942 123.255 326.937 123.226 326.936 123.197L326.441 100.899C326.438 100.744 326.225 100.701 326.162 100.843C326.098 100.982 325.891 100.944 325.882 100.791L325.576 95.5447L325.093 103.922C325.084 104.077 324.884 104.132 324.797 104.004C324.714 103.88 324.521 103.926 324.502 104.074L324.465 104.377C324.424 104.713 323.928 104.692 323.916 104.353L323.705 98.7477L323.396 94.9865C323.367 94.6306 322.853 94.61 322.795 94.962L322.226 98.4266C322.208 98.5362 322.063 98.5642 322.005 98.4688C321.948 98.3729 321.801 98.4021 321.785 98.513L320.982 104.023L320.264 112.104C320.232 112.472 319.693 112.472 319.661 112.104L319.281 107.791L318.77 99.6897L318.348 96.0682C318.307 95.7179 317.802 95.7085 317.748 96.057L317.069 100.443L316.576 106.72C316.548 107.074 316.034 107.083 315.973 106.733C315.909 106.368 315.367 106.393 315.367 106.763V119.096L314.687 133.226L314.347 139.067L313.836 142.27L313.179 145.907C313.125 146.209 312.707 146.247 312.598 145.961L311.827 143.934C311.741 143.707 311.435 143.669 311.296 143.868L310.474 145.038C310.447 145.076 310.43 145.12 310.423 145.166L309.923 148.488L309.242 150.937L308.732 152.821L307.935 155.115C307.901 155.212 307.821 155.285 307.721 155.309L306.663 155.57C306.493 155.612 306.323 155.502 306.292 155.33L306.229 154.977C306.173 154.666 305.736 154.639 305.641 154.941L304.788 157.67C304.698 157.959 304.286 157.951 304.206 157.659L303.457 154.893L302.389 152.021C302.325 151.847 302.12 151.771 301.958 151.861L301.948 151.867C301.769 151.966 301.545 151.862 301.505 151.661L301.226 150.275C301.16 149.947 300.687 149.953 300.631 150.284L300.055 153.654C299.996 153.997 299.5 153.986 299.456 153.642L299.21 151.74C299.206 151.707 299.196 151.675 299.182 151.645L298.183 149.618L296.665 146.071C296.656 146.049 296.649 146.026 296.646 146.003L296.18 143.296C296.126 142.984 295.69 142.953 295.593 143.254L295.135 144.674C295.125 144.704 295.12 144.735 295.12 144.767V147.331C295.12 147.348 295.119 147.366 295.116 147.382L293.831 154.85C293.796 155.056 293.568 155.165 293.386 155.064L292.678 154.672C292.526 154.587 292.334 154.648 292.259 154.804L291.233 156.912C291.216 156.948 291.206 156.986 291.203 157.025L290.867 162.43L290.532 164.841C290.528 164.866 290.522 164.891 290.512 164.914L289.687 166.924C289.68 166.942 289.674 166.961 289.67 166.981L289.176 169.537C289.169 169.572 289.156 169.605 289.138 169.635L288.376 170.9C288.265 171.084 288.003 171.098 287.874 170.926L287.688 170.678C287.532 170.472 287.206 170.541 287.149 170.793L286.771 172.467C286.699 172.789 286.236 172.779 286.178 172.454L285.708 169.853C285.649 169.524 285.177 169.52 285.112 169.848L284.754 171.672C284.698 171.962 284.302 172.007 284.181 171.738L284.128 171.622C284.005 171.35 283.604 171.401 283.553 171.695L283.047 174.638C283.042 174.664 283.035 174.688 283.024 174.711L282.529 175.807L281.849 177.879L280.828 181.459L280.173 183.817C280.156 183.877 280.122 183.93 280.075 183.969L278.854 184.983C278.81 185.02 278.777 185.068 278.759 185.123L277.139 190.146C277.106 190.25 277.018 190.328 276.911 190.349L275.416 190.65C275.294 190.675 275.169 190.622 275.102 190.518L273.727 188.386C273.618 188.219 273.38 188.199 273.247 188.347L270.958 190.881C270.805 191.051 270.526 190.997 270.448 190.782L270.111 189.847C270.033 189.632 269.754 189.577 269.6 189.747L269.15 190.245C269.11 190.29 269.057 190.322 268.998 190.336L267.691 190.658C267.606 190.679 267.534 190.736 267.494 190.813L267.22 191.344C267.095 191.586 266.739 191.553 266.66 191.293L266.386 190.379C266.373 190.336 266.35 190.297 266.321 190.264L265.721 189.6C265.608 189.475 265.414 189.466 265.29 189.58L264.778 190.053C264.633 190.186 264.403 190.149 264.307 189.978L263.317 188.195C263.223 188.026 262.996 187.987 262.851 188.115L261.547 189.27C261.475 189.334 261.376 189.36 261.281 189.339L259.935 189.041C259.812 189.014 259.719 188.913 259.701 188.788L258.916 183.227C258.895 183.077 258.767 182.966 258.616 182.966H257.931C257.884 182.966 257.837 182.977 257.794 182.999L256.216 183.793C256.084 183.86 255.923 183.822 255.836 183.703L254.62 182.058C254.527 181.932 254.353 181.898 254.219 181.979L252.778 182.849C252.663 182.919 252.516 182.904 252.417 182.814L250.179 180.773C249.988 180.599 249.68 180.729 249.672 180.987L249.529 185.746C249.524 185.884 249.427 186.002 249.292 186.032L248.831 186.134C248.731 186.156 248.649 186.227 248.613 186.323L248.104 187.676C248.006 187.938 247.635 187.938 247.537 187.676L247.2 186.782C247.109 186.54 246.777 186.516 246.652 186.742L245.869 188.15C245.754 188.356 245.459 188.358 245.341 188.154L244.722 187.076C244.597 186.859 244.277 186.879 244.18 187.109L243.25 189.315C243.234 189.353 243.211 189.387 243.182 189.415L242.091 190.473C241.967 190.592 241.77 190.585 241.655 190.458L240.734 189.439C240.695 189.395 240.669 189.342 240.66 189.284L240.178 186.258C240.169 186.2 240.143 186.146 240.104 186.103L237.539 183.263C237.405 183.114 237.165 183.135 237.058 183.304L236.275 184.543C236.174 184.703 235.952 184.732 235.813 184.604L234.206 183.121C234.107 183.029 233.959 183.014 233.843 183.084L232.446 183.928C232.296 184.019 232.099 183.963 232.019 183.806L230.689 181.188C230.655 181.12 230.596 181.068 230.524 181.041L228.699 180.367C228.631 180.343 228.557 180.343 228.489 180.367L226.897 180.955C226.718 181.021 226.524 180.908 226.493 180.72L225.678 175.756C225.631 175.469 225.246 175.407 225.111 175.664L223.234 179.225C223.182 179.324 223.079 179.387 222.967 179.387H222.224C222.162 179.387 222.101 179.405 222.051 179.44L220.823 180.29C220.786 180.315 220.756 180.349 220.733 180.388L219.828 181.963C219.714 182.161 219.43 182.166 219.308 181.973L218.307 180.371C218.187 180.179 217.907 180.181 217.79 180.375L217.024 181.648L215.509 184.817C215.498 184.839 215.491 184.863 215.485 184.887L215.029 187.16C214.969 187.461 214.549 187.491 214.446 187.2L213.634 184.886C213.625 184.862 213.614 184.84 213.601 184.819L209.584 178.77C209.474 178.605 209.238 178.587 209.106 178.734L208.567 179.331C208.535 179.367 208.511 179.412 208.499 179.459L207.636 182.869C207.559 183.178 207.117 183.172 207.047 182.861L206.495 180.416C206.482 180.359 206.453 180.307 206.411 180.266L205.323 179.212C205.207 179.099 205.021 179.098 204.903 179.21L201.6 182.346C201.561 182.382 201.533 182.428 201.518 182.478L200.518 185.801C200.447 186.035 200.141 186.093 199.989 185.901L199.621 185.435C199.453 185.222 199.11 185.321 199.082 185.591L198.651 189.727C198.65 189.742 198.647 189.756 198.643 189.771L197.657 193.594C197.638 193.666 197.594 193.728 197.531 193.77L196.834 194.233C196.797 194.258 196.765 194.291 196.742 194.329L195.844 195.82C195.79 195.911 195.691 195.967 195.585 195.967H194.89C194.793 195.967 194.702 195.92 194.645 195.841L194.145 195.15C194.089 195.071 193.997 195.025 193.9 195.025H192.874C192.763 195.025 192.661 195.086 192.608 195.183L192.436 195.5C192.324 195.706 192.031 195.713 191.91 195.512L191.532 194.885C191.513 194.853 191.499 194.817 191.493 194.78L191.02 191.986C191.003 191.884 190.934 191.798 190.838 191.758L187.098 190.204C186.984 190.157 186.852 190.184 186.765 190.273L184.757 192.326C184.718 192.366 184.69 192.416 184.678 192.471L184.386 193.765C184.322 194.048 183.933 194.087 183.814 193.823L183.201 192.466C183.178 192.414 183.14 192.37 183.093 192.339L181.819 191.492C181.646 191.377 181.41 191.467 181.358 191.669L181.307 191.865C181.22 192.203 180.723 192.149 180.711 191.8L180.443 184.097L180.276 180.942C180.274 180.91 180.267 180.879 180.256 180.849L179.449 178.765C179.363 178.543 179.067 178.502 178.924 178.692L177.607 180.442C177.571 180.491 177.55 180.55 177.547 180.611L177.381 184.474L176.887 187.207C176.876 187.267 176.847 187.323 176.803 187.367L175.339 188.826C175.239 188.925 175.084 188.943 174.965 188.868L172.565 187.374C172.49 187.327 172.439 187.25 172.426 187.162L172.29 186.259C172.281 186.2 172.255 186.146 172.215 186.102L171.238 185.02C171.089 184.854 170.817 184.901 170.733 185.107L170.217 186.363C170.141 186.549 169.907 186.61 169.749 186.485L168.065 185.154C167.889 185.014 167.628 185.108 167.581 185.328L167.172 187.255C167.113 187.53 166.744 187.583 166.609 187.338L164.457 183.412C164.328 183.176 163.978 183.213 163.901 183.47L163.296 185.482C163.203 185.789 162.758 185.76 162.706 185.443L162.652 185.114C162.617 184.9 162.374 184.791 162.191 184.907L160.592 185.919C160.406 186.037 160.161 185.924 160.129 185.707L159.594 182.006C159.56 181.769 159.278 181.664 159.097 181.82L158.429 182.395C158.243 182.555 157.952 182.438 157.93 182.194L157.477 177.349C157.475 177.326 157.47 177.303 157.462 177.281L156.735 175.132C156.642 174.859 156.257 174.857 156.162 175.129L155.275 177.653C155.266 177.678 155.254 177.702 155.239 177.724L153.268 180.578C153.157 180.74 152.924 180.755 152.793 180.609L152.474 180.255C152.337 180.104 152.093 180.128 151.989 180.302L151.222 181.576C151.194 181.623 151.178 181.676 151.178 181.732V182.793C151.178 183.141 150.686 183.214 150.585 182.88L150.351 182.101C150.336 182.051 150.308 182.005 150.27 181.969L149.578 181.313C149.397 181.141 149.096 181.25 149.068 181.499L148.633 185.353C148.629 185.395 148.616 185.434 148.595 185.47L147.465 187.436C147.445 187.47 147.432 187.509 147.428 187.548L147.346 188.183C147.301 188.526 146.808 188.539 146.747 188.198L146.585 187.3L146.408 186.321C146.356 186.034 145.967 185.979 145.838 186.241L145.223 187.488L144.358 188.994C144.23 189.217 143.898 189.189 143.81 188.946L142.676 185.806C142.574 185.523 142.166 185.546 142.096 185.839L141.491 188.384C141.484 188.415 141.472 188.444 141.456 188.47L140.833 189.505C140.811 189.542 140.797 189.583 140.792 189.625L140.744 190.02C140.702 190.373 140.19 190.376 140.143 190.024L139.952 188.595C139.916 188.327 139.536 188.308 139.473 188.57C139.407 188.841 139.011 188.808 138.992 188.529L138.254 177.408C138.25 177.347 138.227 177.288 138.189 177.241L137.342 176.168C137.207 175.997 136.941 176.02 136.837 176.211L136.441 176.943C136.306 177.193 135.93 177.135 135.877 176.856L135.597 175.386C135.537 175.071 135.094 175.053 135.008 175.361L134.681 176.538C134.677 176.553 134.673 176.568 134.672 176.584L134.566 177.521C134.527 177.867 134.029 177.884 133.967 177.541L133.661 175.849C133.656 175.821 133.647 175.794 133.634 175.768L133.099 174.702C132.983 174.47 132.648 174.482 132.549 174.721L132.209 175.536C132.091 175.82 131.672 175.766 131.629 175.461L131.421 173.962C131.372 173.611 130.863 173.616 130.82 173.967L130.709 174.878C130.664 175.247 130.12 175.225 130.106 174.853L129.912 169.808C129.911 169.788 129.908 169.768 129.903 169.748L129.406 167.728C129.402 167.713 129.399 167.697 129.398 167.682L128.042 151.539C128.04 151.515 128.035 151.49 128.027 151.467L126.167 146.038L125.662 143.425C125.659 143.41 125.655 143.396 125.65 143.382L125.648 143.377L124.474 140.22C124.469 140.205 124.464 140.19 124.461 140.174L123.974 137.694C123.908 137.357 123.42 137.373 123.376 137.714L123.227 138.872C123.19 139.158 122.805 139.223 122.675 138.966C122.547 138.709 122.164 138.772 122.124 139.056L122.038 139.681C121.987 140.046 121.45 140.02 121.435 139.651L121.256 135.304C121.247 135.061 120.969 134.928 120.773 135.073L120.661 135.156C120.467 135.299 120.193 135.171 120.178 134.932L119.702 127.197L119.453 125.913C119.392 125.595 118.939 125.584 118.861 125.899L118.681 126.632L117.66 129.27L117.161 130.742C117.154 130.765 117.148 130.789 117.147 130.814L116.813 134.699C116.81 134.722 116.806 134.745 116.798 134.767L116.129 136.806L115.448 140.198L114.768 143.589L114.095 145.638C114.09 145.654 114.086 145.669 114.083 145.686L113.564 148.992C113.517 149.289 113.112 149.343 112.989 149.069L112.745 148.531C112.732 148.502 112.724 148.472 112.72 148.44L112.577 147.167C112.536 146.803 112.001 146.812 111.973 147.179L111.969 147.237C111.945 147.553 111.511 147.624 111.388 147.331L110.703 145.706C110.691 145.676 110.683 145.645 110.68 145.613L110.003 137.56L109.61 144.53C109.591 144.878 109.094 144.922 109.013 144.582L108.989 144.482C108.912 144.16 108.45 144.176 108.395 144.502L108.208 145.625C108.148 145.978 107.633 145.954 107.607 145.597L107.115 138.932C107.112 138.897 107.104 138.862 107.089 138.83L106.623 137.798C106.608 137.765 106.6 137.73 106.597 137.694L106.25 132.31C106.227 131.954 105.713 131.925 105.649 132.276L105.457 133.344C105.394 133.69 104.891 133.67 104.857 133.32L104.536 130.051C104.5 129.685 103.965 129.688 103.933 130.054L103.372 136.378C103.369 136.412 103.361 136.445 103.347 136.476L103.05 137.134C103.035 137.166 103.026 137.201 103.024 137.237L102.689 142.054C102.688 142.072 102.685 142.091 102.681 142.108L102.36 143.35C102.352 143.383 102.337 143.415 102.318 143.444L101.352 144.87C101.335 144.895 101.322 144.923 101.313 144.952L100.835 146.538C100.822 146.581 100.8 146.621 100.77 146.654L100.351 147.118C100.321 147.152 100.299 147.191 100.286 147.234L99.8576 148.656C99.7637 148.968 99.3108 148.932 99.2669 148.61L98.944 146.227L98.774 134.922L98.4339 128.893L97.9232 124.371L97.5353 121.22C97.4987 120.923 97.0979 120.854 96.9636 121.121L96.5895 121.868C96.5714 121.904 96.5606 121.942 96.5581 121.982L96.0268 129.481C96.0022 129.828 95.5058 129.866 95.4292 129.526L95.3771 129.295C95.3732 129.278 95.3707 129.261 95.3698 129.244L95.0331 122.532C95.0318 122.502 95.0258 122.473 95.0155 122.445L94.7046 121.583C94.6952 121.558 94.6896 121.531 94.6874 121.504L93.9956 112.618C93.9689 112.272 93.4746 112.236 93.398 112.575L93.3661 112.715C93.2916 113.046 92.8133 113.023 92.7703 112.688L92.4788 110.429L92.1383 104.588L91.328 100.249C91.2742 99.963 90.8717 99.9415 90.7877 100.22C90.7808 100.243 90.7769 100.267 90.7761 100.291L90.439 110.181C90.4377 110.22 90.4286 110.259 90.4123 110.295L90.1169 110.949C90.1036 110.979 90.095 111.011 90.092 111.043L89.9366 112.591C89.9301 112.655 89.9034 112.715 89.8599 112.764L88.6351 114.12C88.5899 114.17 88.5627 114.233 88.558 114.301L88.378 116.793C88.3526 117.141 87.8528 117.176 87.7796 116.835L87.3814 114.982C87.3766 114.961 87.3745 114.94 87.3745 114.919V108.47C87.3745 108.303 87.2389 108.168 87.0714 108.168H86.77C86.6267 108.168 86.5027 108.067 86.4734 107.927L85.5082 103.295C85.5047 103.278 85.5026 103.26 85.5021 103.243L85.1624 93.0951L84.781 88.5114C84.7517 88.1612 84.248 88.1341 84.1817 88.4796L83.8016 90.4577L83.4825 94.1669C83.4502 94.5408 82.8996 94.5331 82.8781 94.1583L82.6103 89.5153L82.2702 86.3124L81.7596 77.0804V82.2972L81.236 78.1372C81.2029 77.875 80.8318 77.8514 80.7655 78.1071C80.6979 78.3701 80.3134 78.3353 80.2941 78.0646L79.8898 72.3918C79.8885 72.3777 79.8868 72.363 79.8833 72.3493L79.5411 70.7691C79.4984 70.5714 79.2427 70.5155 79.1213 70.6776C78.996 70.8443 78.7312 70.7785 78.699 70.5727L78.2185 67.5373C78.1832 67.3122 77.9201 67.2056 77.7376 67.3422L77.6786 67.3865C77.4969 67.5227 77.2347 67.4174 77.1981 67.1935L76.9958 65.9645L76.1451 58.4279L75.7292 55.6663C75.6784 55.3294 75.1953 55.3199 75.132 55.6547L74.7889 57.4579C74.7855 57.4764 74.7837 57.4953 74.7837 57.5142V86.1241L74.4436 90.4577L74.2749 99.6089C74.274 99.6618 74.2589 99.7133 74.2318 99.7589L73.6317 100.755C73.6063 100.798 73.5916 100.846 73.589 100.896L73.2524 107.414L72.7495 111.683C72.7448 111.726 72.7306 111.767 72.7086 111.804L72.0891 112.832C72.071 112.863 72.0581 112.896 72.0512 112.931L71.7683 114.392C71.7094 114.697 71.2836 114.726 71.1841 114.432L70.9069 113.613C70.8065 113.318 70.3769 113.349 70.3213 113.657L70.1943 114.361C70.1913 114.377 70.187 114.394 70.1814 114.41L69.8659 115.283C69.8551 115.312 69.8396 115.34 69.8206 115.365L68.892 116.565C68.8511 116.618 68.8287 116.683 68.8287 116.75V132.757C68.8287 132.817 68.8106 132.876 68.7766 132.926L68.3663 133.532C68.3349 133.579 68.3168 133.633 68.3147 133.689L68.1489 137.538C68.1485 137.552 68.1468 137.567 68.1437 137.582L67.6418 140.176C67.6392 140.19 67.6374 140.205 67.6366 140.22L67.2973 147.922L67.0132 150.441C66.974 150.786 66.4785 150.804 66.4143 150.463L65.9748 148.128C65.9515 148.004 65.8542 147.908 65.7302 147.886L65.5248 147.849C65.4693 147.84 65.4116 147.846 65.3595 147.867L64.7667 148.103C64.5712 148.181 64.3573 148.041 64.3512 147.831L64.235 143.589L64.08 140.93C64.0585 140.563 63.5251 140.544 63.4768 140.908L63.1608 143.301C63.1217 143.596 62.6916 143.589 62.6627 143.293C62.633 142.986 62.1831 142.993 62.1633 143.3L62.137 143.705C62.1164 144.026 61.6604 144.069 61.5799 143.758L61.2605 142.521C61.2334 142.415 61.0801 142.424 61.0655 142.532C61.0487 142.652 60.873 142.644 60.867 142.523L60.7607 140.34C60.7439 139.993 60.2496 139.944 60.1644 140.281L59.4764 143.002C59.4725 143.016 59.4699 143.031 59.4686 143.046L58.9602 148.111V151.398C58.9602 151.701 58.5632 151.816 58.4014 151.559L58.3041 151.406C58.1439 151.153 57.7521 151.261 57.7448 151.56L57.6665 154.782C57.6574 155.143 57.136 155.187 57.0663 154.833L56.8175 153.573C56.7494 153.23 56.2496 153.257 56.2182 153.605L56.0744 155.201C56.0701 155.247 56.0559 155.291 56.0322 155.33L55.7709 155.764C55.7424 155.811 55.7278 155.864 55.7278 155.919V159.936C55.7278 159.965 55.7235 159.995 55.7149 160.023L55.5681 160.51C55.5612 160.534 55.5569 160.558 55.5556 160.583L55.3872 164.125L55.2348 165.478C55.2236 165.575 55.1664 165.661 55.0807 165.708L54.6769 165.932C54.5891 165.981 54.5314 166.069 54.5223 166.169L54.3712 167.843C54.3682 167.877 54.3596 167.909 54.3454 167.94L54.2106 168.239C54.2011 168.26 54.1943 168.282 54.1895 168.304L53.8559 169.966L53.697 172.783C53.6901 172.903 53.6126 173.008 53.4998 173.05L53.3448 173.106C53.2406 173.145 53.1657 173.237 53.1502 173.347L52.6736 176.688C52.668 176.728 52.6543 176.767 52.6336 176.801L52.0279 177.807C51.9994 177.854 51.9844 177.908 51.9844 177.963V180.843C51.9844 180.877 51.9788 180.91 51.9676 180.942L51.1685 183.243C51.1461 183.308 51.1022 183.363 51.0445 183.4L50.0289 184.042C49.9729 184.078 49.9303 184.13 49.9071 184.192L47.5702 190.477C47.5637 190.494 47.559 190.512 47.556 190.529L47.3063 191.912C47.2477 192.235 46.7901 192.248 46.7134 191.93L46.4073 190.66C46.3841 190.562 46.3126 190.482 46.2179 190.447L46.0156 190.372C45.9183 190.336 45.8459 190.253 45.8244 190.152L45.0598 186.597C45.0301 186.457 44.9065 186.358 44.7636 186.358H43.9111C43.76 186.358 43.6322 186.246 43.6111 186.097L43.4587 184.999C43.4165 184.695 42.9987 184.64 42.8793 184.924L42.4022 186.056C42.2972 186.305 41.9424 186.302 41.8417 186.051L41.7577 185.842C41.6511 185.576 41.2688 185.593 41.1863 185.867L40.7659 187.264C40.7587 187.288 40.7484 187.311 40.7354 187.332L40.1049 188.38C40.0848 188.413 40.0713 188.45 40.0652 188.488L39.8804 189.665C39.8236 190.027 39.2918 189.996 39.2783 189.629L39.0585 183.667C39.0553 183.581 39.0157 183.5 38.9495 183.445L38.4822 183.057C38.413 183 38.3729 182.915 38.3729 182.825V181.385C38.3729 181.218 38.2373 181.082 38.07 181.082H37.9589C37.8065 181.082 37.6778 180.969 37.6583 180.818L37.5779 180.195C37.5344 179.857 37.0526 179.838 36.9811 180.17L36.9017 180.539C36.8293 180.876 36.3397 180.85 36.304 180.507L36.0657 178.22C36.0468 178.039 35.7964 178.005 35.7306 178.175C35.6654 178.344 35.4179 178.313 35.3958 178.134L35.0752 175.53C35.0513 175.336 34.7786 175.313 34.7222 175.5C34.6652 175.689 34.3885 175.663 34.3687 175.466L34.2507 174.289C34.2143 173.927 33.6842 173.927 33.6477 174.289L33.4661 176.1C33.4506 176.254 33.3202 176.372 33.1646 176.372H33.0053C32.8688 176.372 32.7582 176.483 32.7582 176.619C32.7582 176.925 32.3102 176.957 32.2666 176.654L32.1325 175.723C32.0809 175.365 31.5574 175.383 31.5304 175.744L31.2054 180.084C31.1783 180.445 30.6545 180.462 30.6033 180.104L29.8172 174.612C29.8012 174.5 29.6383 174.503 29.6269 174.616C29.6152 174.731 29.4463 174.73 29.436 174.614Z" fill="url(#paint0_linear_32171_14433)"/>
<path d="M27.7686 160.546L29.7059 175.554L30.3842 181.919C30.4236 182.289 30.9676 182.275 30.988 181.903L31.4136 174.149C31.4342 173.774 31.9844 173.765 32.018 174.139L32.4929 179.425C32.5255 179.788 33.0549 179.794 33.0958 179.432L33.4413 176.373L33.6505 174.288C33.687 173.926 34.217 173.926 34.2535 174.288L34.3718 175.466C34.3915 175.663 34.6683 175.69 34.7254 175.501C34.7818 175.313 35.0547 175.336 35.0786 175.53L35.3994 178.134C35.4215 178.314 35.6691 178.344 35.7344 178.176C35.8002 178.006 36.0508 178.039 36.0697 178.22L36.3083 180.509C36.344 180.851 36.8335 180.878 36.9059 180.541L36.9858 180.169C37.0573 179.837 37.539 179.857 37.5826 180.194L37.6632 180.819C37.6827 180.97 37.8114 181.083 37.9637 181.083H38.0752C38.2426 181.083 38.3782 181.218 38.3782 181.385V182.825C38.3782 182.915 38.4183 183 38.4875 183.058L38.9551 183.446C39.0213 183.501 39.061 183.581 39.0641 183.667L39.2841 189.632C39.2976 189.998 39.8294 190.029 39.8863 189.668L40.0714 188.489C40.0775 188.451 40.091 188.413 40.1111 188.38L40.742 187.333C40.755 187.311 40.7652 187.288 40.7725 187.264L41.1933 185.867C41.2758 185.593 41.658 185.576 41.7647 185.842L41.8491 186.052C41.9498 186.303 42.3045 186.306 42.4096 186.057L42.8873 184.923C43.0068 184.64 43.4242 184.695 43.4668 184.999L43.6192 186.097C43.6403 186.247 43.7682 186.358 43.9193 186.358H44.7726C44.9156 186.358 45.0391 186.458 45.0688 186.597L45.8339 190.152C45.8554 190.254 45.9277 190.337 46.025 190.373L46.2278 190.447C46.3225 190.482 46.3936 190.562 46.4172 190.66L46.7233 191.931C46.8 192.249 47.2581 192.236 47.3162 191.914L47.5663 190.53C47.5698 190.512 47.5745 190.495 47.5805 190.478L49.9191 184.193C49.942 184.131 49.985 184.078 50.041 184.043L51.0566 183.4C51.1147 183.364 51.1586 183.308 51.181 183.244L51.9805 180.943C51.9917 180.911 51.9973 180.877 51.9973 180.843V177.964C51.9973 177.909 52.0124 177.855 52.0408 177.808L52.6465 176.802C52.6676 176.767 52.6814 176.729 52.687 176.689L53.1636 173.348C53.1791 173.238 53.254 173.146 53.3586 173.107L53.5136 173.05C53.6268 173.008 53.7043 172.904 53.7108 172.783L53.8701 169.967L54.2037 168.304C54.208 168.282 54.2154 168.261 54.2248 168.24L54.3596 167.94C54.3738 167.91 54.3824 167.877 54.3854 167.843L54.5365 166.17C54.5456 166.07 54.6037 165.981 54.6915 165.932L55.0954 165.709C55.181 165.661 55.2383 165.575 55.2495 165.478L55.4023 164.126L55.5707 160.583C55.5719 160.559 55.5758 160.534 55.5831 160.51L55.73 160.024C55.7381 159.995 55.7429 159.966 55.7429 159.937V155.92C55.7429 155.865 55.7575 155.811 55.7859 155.764L56.0472 155.33C56.0709 155.291 56.0851 155.247 56.0894 155.202L56.2337 153.604C56.2651 153.256 56.7649 153.23 56.833 153.573L57.0822 154.835C57.1524 155.189 57.6738 155.145 57.6824 154.784L57.7612 151.56C57.7685 151.261 58.1603 151.153 58.3204 151.406L58.4182 151.56C58.58 151.817 58.9774 151.702 58.9774 151.399V148.111L59.4859 143.047C59.4872 143.032 59.4897 143.017 59.4936 143.002L60.1463 140.422C60.2324 140.082 60.7327 140.137 60.743 140.487L60.8239 143.279C60.8325 143.574 61.2652 143.593 61.2997 143.3L61.3177 143.146C61.3479 142.888 61.7229 142.887 61.7547 143.145C61.7875 143.41 62.1754 143.399 62.1926 143.133L62.199 143.035C62.2171 142.753 62.6287 142.747 62.6558 143.027L62.6817 143.293C62.7105 143.589 63.141 143.597 63.1798 143.302L63.4966 140.906C63.5449 140.542 64.0783 140.562 64.0994 140.928L64.2548 143.589L64.3525 148.186C64.3573 148.415 64.6061 148.556 64.8059 148.442L65.7931 147.879C65.8387 147.853 65.8955 147.861 65.9321 147.898C65.9485 147.914 65.9593 147.935 65.9636 147.957L66.4354 150.465C66.4996 150.806 66.9955 150.788 67.0343 150.443L67.3189 147.923L67.6585 140.22C67.659 140.205 67.6607 140.191 67.6637 140.176L68.1657 137.582C68.1687 137.568 68.1704 137.553 68.1713 137.538L68.3366 133.689C68.3392 133.633 68.3569 133.579 68.3883 133.533L68.799 132.927C68.833 132.877 68.8511 132.818 68.8511 132.757V116.75C68.8511 116.683 68.8735 116.618 68.9144 116.565L69.8435 115.366C69.8628 115.341 69.8779 115.313 69.8887 115.283L70.2042 114.41C70.2103 114.394 70.2146 114.378 70.2176 114.361L70.345 113.656C70.4006 113.349 70.8298 113.317 70.9301 113.613L71.2078 114.433C71.3077 114.727 71.7335 114.698 71.7925 114.394L72.0753 112.931C72.0822 112.896 72.0951 112.863 72.1132 112.833L72.7332 111.804C72.7551 111.768 72.7693 111.726 72.7741 111.684L73.2773 107.415L73.614 100.896C73.6166 100.847 73.6312 100.798 73.6566 100.756L74.2568 99.7594C74.2843 99.7138 74.2994 99.6622 74.3003 99.609L74.469 90.4582L74.8096 86.1246V57.5147C74.8096 57.4958 74.8113 57.4769 74.8147 57.4584L75.1579 55.6543C75.2216 55.3196 75.7046 55.329 75.7554 55.6655L76.1713 58.4284L77.0225 65.965L77.1551 67.3543C77.1865 67.6822 77.6696 67.6724 77.6872 67.3436C77.7049 67.0153 78.1862 67.0041 78.2189 67.3311L78.59 71.0274C78.6266 71.391 79.1575 71.3901 79.1932 71.0266L79.2337 70.6127C79.2703 70.2388 79.8209 70.2535 79.8381 70.6282L79.9165 72.3708L80.3229 78.0638C80.3423 78.3349 80.7272 78.3698 80.7948 78.1067C80.8611 77.851 81.2326 77.8742 81.2658 78.1364L82.2999 86.3129M82.2999 86.3129L81.1082 78.6448M82.2999 86.3129L82.6404 89.5158L82.9082 94.161C82.9302 94.5357 83.4804 94.5435 83.5127 94.1696L83.8321 90.4582L84.2196 86.1126C84.2527 85.7387 84.8042 85.7486 84.8241 86.1233L85.1943 93.0956L85.5336 103.244C85.5344 103.261 85.5366 103.278 85.54 103.295L86.5057 107.928C86.535 108.068 86.659 108.168 86.8023 108.168H87.1041C87.2716 108.168 87.4072 108.304 87.4072 108.471V114.919C87.4072 114.94 87.4094 114.962 87.4141 114.982L87.8128 116.836C87.8864 117.178 88.3858 117.143 88.4112 116.794L88.5916 114.301C88.5963 114.234 88.6235 114.17 88.6687 114.12L89.8944 112.764C89.9374 112.716 89.9641 112.656 89.9706 112.592L90.126 111.044C90.1294 111.011 90.138 110.979 90.1514 110.95L90.4472 110.296C90.4631 110.259 90.4721 110.221 90.4734 110.181L90.811 100.291C90.8114 100.267 90.8157 100.244 90.8226 100.221C90.9065 99.9416 91.3091 99.9635 91.3629 100.25L92.174 104.589L92.5145 110.429L92.806 112.689C92.8495 113.025 93.3278 113.047 93.4023 112.717L93.4346 112.574C93.5108 112.235 94.005 112.271 94.0321 112.617L94.7244 121.505C94.7266 121.532 94.7322 121.559 94.7412 121.584L95.0525 122.445C95.0628 122.473 95.0689 122.503 95.0702 122.533L95.4073 129.244C95.4081 129.261 95.4103 129.279 95.4141 129.296L95.4667 129.527C95.5433 129.867 96.0397 129.83 96.0642 129.482L96.5959 121.983C96.5985 121.943 96.6093 121.904 96.6274 121.868L97.0024 121.121C97.1367 120.854 97.5371 120.923 97.5737 121.22L97.962 124.372L98.4726 128.894L98.8131 134.923L98.9836 146.227L99.3065 148.611C99.3504 148.934 99.8034 148.969 99.8972 148.658L100.326 147.234C100.339 147.192 100.361 147.152 100.391 147.119L100.81 146.654C100.84 146.621 100.863 146.582 100.876 146.539L101.354 144.953C101.362 144.923 101.376 144.895 101.393 144.87L102.359 143.445C102.378 143.416 102.393 143.384 102.402 143.35L102.722 142.109C102.727 142.091 102.729 142.073 102.731 142.054L103.065 137.238C103.068 137.202 103.077 137.167 103.092 137.134L103.389 136.477C103.403 136.446 103.411 136.412 103.414 136.379L103.975 130.053C104.007 129.686 104.542 129.684 104.578 130.05L104.899 133.322C104.934 133.672 105.437 133.692 105.499 133.346L105.693 132.275C105.756 131.924 106.27 131.953 106.293 132.309L106.641 137.694C106.643 137.73 106.652 137.766 106.667 137.799L107.133 138.83C107.148 138.863 107.156 138.897 107.159 138.933L107.651 145.599C107.677 145.956 108.193 145.98 108.252 145.627L108.44 144.501C108.494 144.176 108.957 144.16 109.034 144.482L109.051 144.552C109.132 144.892 109.63 144.847 109.648 144.498L109.781 141.941C109.801 141.567 110.351 141.555 110.385 141.929L110.726 145.615C110.728 145.646 110.736 145.676 110.748 145.705L111.434 147.333C111.558 147.625 111.992 147.554 112.016 147.238L112.02 147.177C112.048 146.811 112.582 146.801 112.624 147.166L112.767 148.441C112.771 148.472 112.779 148.503 112.792 148.532L113.036 149.07C113.16 149.344 113.565 149.29 113.612 148.993L114.131 145.686C114.133 145.67 114.137 145.654 114.142 145.639L114.816 143.589L115.497 140.198L116.178 136.807L116.848 134.767C116.855 134.745 116.86 134.722 116.862 134.699L117.196 130.814C117.198 130.79 117.203 130.766 117.211 130.743L117.71 129.27L118.731 126.633L118.912 125.898C118.99 125.583 119.442 125.595 119.504 125.913L119.753 127.198L120.229 134.932C120.244 135.172 120.519 135.299 120.712 135.157L120.826 135.073C121.021 134.929 121.298 135.062 121.308 135.304L121.487 139.654C121.502 140.022 122.039 140.048 122.09 139.683L122.177 139.057C122.217 138.773 122.6 138.71 122.728 138.966C122.858 139.224 123.243 139.159 123.28 138.872L123.43 137.713C123.474 137.373 123.961 137.357 124.027 137.694L124.515 140.174C124.518 140.19 124.522 140.206 124.528 140.221L125.703 143.377C125.708 143.393 125.713 143.409 125.716 143.426L126.222 146.039L128.082 151.467C128.09 151.491 128.095 151.515 128.098 151.54L129.455 167.682C129.456 167.698 129.458 167.713 129.462 167.729L129.96 169.748C129.965 169.768 129.967 169.789 129.968 169.809L130.162 174.856C130.177 175.227 130.721 175.25 130.766 174.88L130.877 173.966C130.921 173.615 131.429 173.611 131.478 173.961L131.687 175.462C131.729 175.767 132.148 175.821 132.267 175.537L132.607 174.721C132.707 174.483 133.041 174.47 133.158 174.702L133.693 175.768C133.706 175.794 133.715 175.822 133.72 175.85L134.026 177.542C134.088 177.885 134.586 177.869 134.625 177.523L134.731 176.585C134.733 176.569 134.736 176.553 134.74 176.538L135.067 175.361C135.153 175.053 135.597 175.071 135.657 175.385L135.937 176.856C135.99 177.136 136.365 177.194 136.501 176.944L136.898 176.211C137.002 176.02 137.267 175.997 137.403 176.168L138.251 177.241C138.289 177.289 138.311 177.347 138.315 177.408L139.054 188.529C139.073 188.808 139.469 188.842 139.535 188.571C139.598 188.308 139.978 188.327 140.015 188.595L140.206 190.026C140.253 190.378 140.764 190.374 140.807 190.022L140.854 189.625C140.86 189.583 140.874 189.542 140.896 189.506L141.519 188.471C141.535 188.444 141.547 188.416 141.554 188.385L142.16 185.838C142.229 185.546 142.637 185.523 142.74 185.806L143.875 188.947C143.962 189.189 144.294 189.218 144.423 188.995L145.288 187.489L145.904 186.241C146.032 185.979 146.422 186.034 146.474 186.321L146.651 187.3L146.813 188.2C146.875 188.541 147.367 188.528 147.412 188.185L147.494 187.548C147.499 187.509 147.512 187.471 147.532 187.437L148.662 185.47C148.683 185.435 148.696 185.395 148.7 185.354L149.136 181.499C149.164 181.25 149.464 181.141 149.646 181.313L150.338 181.97C150.376 182.006 150.404 182.051 150.419 182.102L150.654 182.882C150.754 183.215 151.247 183.143 151.247 182.794V181.732C151.247 181.677 151.262 181.623 151.29 181.576L152.058 180.302C152.163 180.128 152.406 180.105 152.542 180.255L152.863 180.61C152.994 180.755 153.226 180.74 153.337 180.579L155.31 177.725C155.325 177.703 155.337 177.679 155.346 177.653L156.233 175.128C156.329 174.857 156.714 174.859 156.806 175.132L157.534 177.281C157.542 177.303 157.547 177.327 157.549 177.35L158.002 182.194C158.025 182.439 158.315 182.556 158.502 182.396L159.17 181.82C159.351 181.664 159.634 181.769 159.668 182.006L160.203 185.708C160.234 185.925 160.48 186.037 160.665 185.92L162.266 184.907C162.45 184.791 162.692 184.9 162.727 185.114L162.782 185.445C162.834 185.761 163.278 185.79 163.371 185.483L163.977 183.47C164.054 183.213 164.404 183.177 164.533 183.412L166.687 187.339C166.822 187.584 167.191 187.531 167.249 187.256L167.659 185.328C167.706 185.109 167.967 185.014 168.143 185.154L169.828 186.486C169.986 186.611 170.22 186.55 170.296 186.363L170.812 185.107C170.897 184.901 171.168 184.854 171.317 185.02L172.296 186.102C172.335 186.146 172.361 186.201 172.37 186.26L172.506 187.162C172.519 187.25 172.57 187.327 172.645 187.374L175.047 188.869C175.166 188.943 175.322 188.926 175.421 188.826L176.886 187.367C176.93 187.324 176.959 187.268 176.97 187.207L177.464 184.474L177.63 180.611C177.633 180.55 177.654 180.491 177.691 180.443L179.009 178.692C179.152 178.502 179.448 178.544 179.533 178.765L180.341 180.849C180.352 180.879 180.359 180.911 180.36 180.943L180.528 184.097L180.796 191.802C180.808 192.151 181.305 192.205 181.392 191.867L181.443 191.669C181.495 191.467 181.731 191.377 181.905 191.493L183.18 192.339C183.227 192.371 183.264 192.415 183.288 192.467L183.901 193.824C184.021 194.089 184.409 194.049 184.473 193.766L184.765 192.471C184.778 192.416 184.805 192.366 184.844 192.326L186.854 190.273C186.941 190.184 187.072 190.158 187.187 190.205L190.929 191.758C191.025 191.798 191.093 191.884 191.111 191.987L191.584 194.78C191.591 194.818 191.604 194.853 191.623 194.886L192.001 195.513C192.122 195.714 192.416 195.707 192.528 195.501L192.7 195.184C192.753 195.086 192.855 195.025 192.966 195.025H193.993C194.09 195.025 194.181 195.072 194.238 195.151L194.738 195.842C194.795 195.92 194.886 195.967 194.983 195.967H195.679C195.785 195.967 195.883 195.912 195.938 195.821L196.836 194.33C196.859 194.292 196.89 194.258 196.928 194.234L197.626 193.77C197.688 193.729 197.733 193.666 197.752 193.594L198.738 189.771C198.742 189.757 198.745 189.742 198.746 189.727L199.177 185.592C199.205 185.321 199.548 185.222 199.716 185.435L200.086 185.902C200.238 186.094 200.543 186.036 200.614 185.802L201.615 182.478C201.63 182.428 201.658 182.383 201.696 182.347L205.002 179.21C205.12 179.098 205.305 179.099 205.422 179.212L206.51 180.267C206.552 180.307 206.582 180.36 206.595 180.417L207.147 182.863C207.218 183.173 207.658 183.179 207.737 182.87L208.6 179.46C208.612 179.412 208.635 179.368 208.668 179.331L209.207 178.734C209.34 178.588 209.576 178.606 209.685 178.77L213.704 184.819C213.718 184.84 213.729 184.863 213.737 184.886L214.551 187.201C214.653 187.492 215.073 187.462 215.134 187.161L215.59 184.888C215.595 184.863 215.603 184.84 215.614 184.817L217.13 181.648L217.896 180.375C218.013 180.182 218.293 180.179 218.413 180.371L219.415 181.974C219.537 182.167 219.821 182.162 219.935 181.964L220.841 180.388C220.863 180.349 220.894 180.316 220.931 180.29L222.159 179.441C222.21 179.406 222.27 179.387 222.332 179.387H223.076C223.188 179.387 223.291 179.325 223.344 179.226L225.221 175.664C225.356 175.407 225.741 175.469 225.788 175.756L226.604 180.721C226.635 180.909 226.829 181.022 227.008 180.956L228.601 180.368C228.669 180.343 228.743 180.343 228.811 180.368L230.637 181.042C230.709 181.068 230.768 181.12 230.803 181.188L232.133 183.807C232.213 183.964 232.41 184.02 232.56 183.929L233.959 183.084C234.074 183.015 234.222 183.03 234.321 183.121L235.929 184.604C236.068 184.733 236.29 184.703 236.391 184.543L237.175 183.304C237.282 183.135 237.521 183.115 237.656 183.263L240.222 186.103C240.261 186.147 240.287 186.201 240.297 186.258L240.779 189.284C240.788 189.342 240.814 189.396 240.853 189.439L241.774 190.459C241.889 190.586 242.087 190.593 242.21 190.473L243.303 189.416C243.331 189.387 243.355 189.354 243.371 189.316L244.301 187.11C244.398 186.879 244.718 186.859 244.843 187.076L245.463 188.155C245.58 188.359 245.876 188.357 245.99 188.151L246.774 186.742C246.899 186.516 247.231 186.541 247.322 186.782L247.659 187.677C247.758 187.939 248.128 187.939 248.227 187.677L248.737 186.323C248.772 186.228 248.855 186.156 248.954 186.134L249.415 186.033C249.551 186.002 249.648 185.885 249.653 185.746L249.796 180.988C249.804 180.729 250.112 180.599 250.303 180.773L252.542 182.815C252.642 182.905 252.789 182.919 252.904 182.85L254.346 181.979C254.48 181.898 254.654 181.933 254.747 182.059L255.963 183.704C256.05 183.822 256.211 183.861 256.343 183.794L257.923 182.999C257.965 182.978 258.012 182.967 258.059 182.967H258.746C258.897 182.967 259.024 183.078 259.046 183.227L259.83 188.788C259.848 188.913 259.942 189.014 260.065 189.041L261.411 189.339C261.506 189.361 261.605 189.335 261.678 189.27L262.982 188.116C263.127 187.987 263.354 188.026 263.448 188.195L264.439 189.978C264.535 190.15 264.766 190.187 264.91 190.054L265.423 189.581C265.547 189.466 265.74 189.475 265.853 189.6L266.454 190.264C266.484 190.298 266.506 190.337 266.519 190.38L266.794 191.294C266.873 191.554 267.229 191.587 267.353 191.345L267.628 190.814C267.668 190.736 267.74 190.68 267.824 190.659L269.133 190.337C269.192 190.323 269.245 190.291 269.285 190.246L269.736 189.747C269.889 189.578 270.168 189.633 270.246 189.847L270.584 190.782C270.661 190.997 270.941 191.052 271.094 190.882L273.384 188.348C273.518 188.199 273.756 188.219 273.864 188.386L275.24 190.518C275.307 190.623 275.432 190.676 275.554 190.651L277.05 190.35C277.158 190.328 277.245 190.25 277.279 190.146L278.9 185.123C278.917 185.069 278.95 185.02 278.994 184.983L280.216 183.969C280.263 183.93 280.298 183.877 280.314 183.818L280.97 181.46L281.991 177.88L282.672 175.807L283.167 174.712C283.177 174.689 283.185 174.664 283.189 174.639L283.696 171.695C283.747 171.401 284.148 171.35 284.271 171.622L284.324 171.739C284.445 172.008 284.841 171.963 284.898 171.674L285.256 169.848C285.321 169.52 285.792 169.523 285.852 169.852L286.322 172.456C286.381 172.78 286.843 172.79 286.916 172.469L287.295 170.793C287.351 170.542 287.677 170.472 287.832 170.678L288.02 170.927C288.149 171.098 288.411 171.085 288.522 170.901L289.284 169.636C289.302 169.605 289.315 169.572 289.321 169.537L289.816 166.982C289.82 166.962 289.826 166.943 289.833 166.924L290.659 164.915C290.668 164.891 290.675 164.867 290.678 164.842L291.014 162.43L291.351 157.026C291.353 156.987 291.363 156.948 291.38 156.913L292.406 154.804C292.482 154.648 292.674 154.588 292.826 154.672L293.535 155.064C293.717 155.165 293.945 155.056 293.98 154.851L295.265 147.383C295.268 147.366 295.27 147.349 295.27 147.332V144.767C295.27 144.736 295.275 144.705 295.284 144.674L295.743 143.254C295.84 142.953 296.276 142.984 296.33 143.295L296.796 146.004C296.8 146.027 296.807 146.05 296.816 146.071L298.334 149.618L299.333 151.646C299.348 151.676 299.357 151.708 299.362 151.741L299.608 153.643C299.652 153.988 300.148 153.998 300.206 153.656L300.783 150.284C300.84 149.953 301.313 149.946 301.379 150.275L301.657 151.662C301.698 151.863 301.922 151.967 302.101 151.867L302.112 151.862C302.274 151.772 302.478 151.847 302.543 152.021L303.612 154.894L304.361 157.66C304.44 157.952 304.853 157.96 304.943 157.671L305.797 154.94C305.891 154.639 306.328 154.666 306.385 154.977L306.448 155.331C306.479 155.502 306.649 155.612 306.819 155.57L307.878 155.31C307.977 155.286 308.058 155.212 308.092 155.115L308.889 152.821L309.4 150.937L310.081 148.488L310.581 145.167C310.588 145.121 310.605 145.077 310.632 145.038L311.454 143.868C311.594 143.67 311.9 143.708 311.986 143.934L312.757 145.962C312.866 146.249 313.284 146.21 313.339 145.908L313.996 142.27L314.507 139.068L314.847 133.227L315.528 119.096V106.761C315.528 106.391 316.07 106.369 316.134 106.733C316.195 107.084 316.709 107.076 316.737 106.721L317.231 100.444L317.91 96.0562C317.964 95.7081 318.47 95.7176 318.511 96.0674L318.933 99.6902L319.444 107.792L319.824 112.107C319.857 112.474 320.395 112.474 320.428 112.107L321.146 104.023L321.949 98.5139C321.965 98.4026 322.112 98.3734 322.17 98.4693C322.227 98.5647 322.373 98.5367 322.391 98.4271L322.96 94.9612C323.018 94.6092 323.532 94.6299 323.561 94.9857L323.87 98.7482L324.081 104.353C324.094 104.692 324.59 104.714 324.631 104.377L324.669 104.075C324.687 103.927 324.88 103.88 324.963 104.004C325.05 104.133 325.251 104.078 325.259 103.923L325.713 96.0614C325.719 95.9535 325.87 95.9337 325.904 96.0364C325.907 96.0455 325.908 96.0545 325.908 96.0635L326.063 100.774C326.068 100.924 326.273 100.965 326.336 100.827C326.398 100.689 326.604 100.731 326.608 100.883L327.104 123.197C327.104 123.226 327.109 123.255 327.118 123.283L327.524 124.541C327.624 124.851 328.077 124.806 328.114 124.482L328.807 118.343L329.366 115.497C329.43 115.172 329.894 115.171 329.96 115.495L331.19 121.546L331.743 124.606C331.803 124.937 332.28 124.937 332.34 124.606L333 120.953C333.057 120.637 333.503 120.615 333.589 120.924L334.075 122.641C334.081 122.664 334.09 122.687 334.102 122.708L334.936 124.183L335.318 124.946C335.455 125.217 335.861 125.142 335.891 124.841L336.295 120.818C336.297 120.801 336.3 120.783 336.305 120.767L337.14 117.806C337.146 117.787 337.15 117.767 337.151 117.747L337.532 112.688C337.557 112.351 338.033 112.303 338.126 112.628L338.662 114.507C338.674 114.551 338.697 114.592 338.728 114.627L340.332 116.402C340.496 116.584 340.798 116.505 340.852 116.266L341.36 114.017C341.435 113.685 341.915 113.71 341.957 114.046L342.596 119.285L344.128 125.125L344.639 127.575L345.565 132.87C345.601 133.073 345.864 133.134 345.985 132.966C346.11 132.793 346.384 132.865 346.407 133.078L346.718 135.946C346.752 136.261 347.188 136.318 347.302 136.022L348.385 133.227L348.906 132.264C349.051 131.997 349.455 132.085 349.475 132.388L350.166 142.789C350.188 143.112 350.634 143.18 350.751 142.878L351.789 140.198L352.455 138.541C352.465 138.515 352.471 138.488 352.475 138.461L352.811 135.299L353.273 129.839C353.287 129.67 353.513 129.623 353.593 129.772C353.671 129.916 353.886 129.879 353.912 129.718L354.714 124.777C354.769 124.436 355.261 124.439 355.312 124.78L356.023 129.503C356.071 129.819 356.513 129.854 356.611 129.55L356.717 129.224C356.812 128.929 357.238 128.951 357.302 129.255L358.254 133.77C358.257 133.785 358.259 133.8 358.259 133.814L358.599 139.444V145.53C358.599 145.901 359.139 145.946 359.201 145.58L359.873 141.619C359.934 141.261 360.459 141.294 360.475 141.656L360.551 143.398C360.566 143.746 361.063 143.797 361.147 143.458L361.203 143.237C361.28 142.932 361.712 142.931 361.79 143.235L361.903 143.67C361.979 143.967 362.398 143.975 362.486 143.682L362.855 142.459L363.7 139.089C363.704 139.075 363.707 139.06 363.708 139.045L363.958 136.463C363.993 136.104 364.514 136.096 364.56 136.453L364.898 139.068L365.578 142.836L366.941 146.981L367.63 149.27C367.719 149.568 368.147 149.553 368.216 149.249L369.144 145.141C369.151 145.112 369.161 145.084 369.176 145.057L371.176 141.553C371.19 141.529 371.2 141.503 371.207 141.476L372.55 136.087C372.556 136.064 372.564 136.042 372.574 136.022L373.216 134.78C373.231 134.75 373.242 134.717 373.247 134.683L373.715 131.26C373.764 130.901 374.288 130.916 374.317 131.276L374.601 134.734L375.369 139.832C375.419 140.166 375.898 140.179 375.965 139.848L376.252 138.451C376.314 138.15 376.735 138.122 376.835 138.412L376.961 138.772C377.061 139.063 377.483 139.034 377.544 138.732L378.006 136.43L379.028 133.227L379.908 130.164C379.994 129.867 380.418 129.874 380.493 130.174L381.071 132.473L381.4 134.479C381.457 134.825 381.96 134.813 382 134.464L382.483 130.272C382.524 129.916 383.041 129.914 383.085 130.269L383.454 133.227L383.903 134.917C383.988 135.238 384.456 135.206 384.497 134.876L384.816 132.285L385.326 121.923L386.007 111.748L386.348 92.9074L386.688 88.0087L387.369 82.3566L387.693 74.1182C387.699 73.9618 387.893 73.8917 387.997 74.0082C388.092 74.1126 388.265 74.0684 388.297 73.9313L389.065 70.7051C389.069 70.6854 389.072 70.6647 389.073 70.6441L389.412 59.1822L390.087 51.1462C390.091 51.1028 390.104 51.0612 390.126 51.0229L390.916 49.6236C390.935 49.5905 390.947 49.5536 390.952 49.5158L391.455 45.8053L391.795 38.0803L392.135 22.6628C392.136 22.6415 392.138 22.6203 392.143 22.5996L393.289 17.7816C393.371 17.436 393.88 17.4902 393.887 17.8453L394.269 36.6025C394.276 36.9758 394.822 37.0066 394.872 36.6366L395.534 31.7138C395.581 31.3593 396.098 31.3663 396.135 31.7219L396.392 34.1237L396.858 57.0085C396.866 57.3596 397.366 57.4185 397.455 57.079L397.839 55.6139C397.929 55.2706 398.435 55.3359 398.435 55.6904V63.2382C398.435 63.2962 398.452 63.3529 398.483 63.4019L399.658 65.2219C399.814 65.4643 400.189 65.3715 400.214 65.0844L400.891 57.3489C400.922 56.9849 401.454 56.9788 401.494 57.3424L401.84 60.5011L402.521 71.4288L402.85 75.2008C402.881 75.548 403.379 75.5768 403.449 75.2351L403.882 73.1242L404.379 71.6587C404.389 71.6312 404.394 71.6024 404.395 71.5732L404.904 58.4284L406.096 45.8053V60.3361C406.096 60.4998 406.308 60.5647 406.4 60.4293C406.48 60.3107 406.663 60.3421 406.698 60.4809L407.229 62.5351C407.263 62.6683 407.384 62.762 407.522 62.762H407.668C407.835 62.762 407.97 62.8952 407.972 63.0611L408.139 78.3998" stroke="#17EC20" stroke-width="2.81508" stroke-linecap="round"/>
</g>
<defs>
<linearGradient id="paint0_linear_32171_14433" x1="266.098" y1="21.7049" x2="265.691" y2="207.786" gradientUnits="userSpaceOnUse">
<stop stop-color="#17EC20" stop-opacity="0.8"/>
<stop offset="1" stop-color="#17EC20" stop-opacity="0"/>
</linearGradient>
<clipPath id="clip0_32171_14433">
<rect width="409" height="208" fill="white"/>
</clipPath>
</defs>
</svg>
