<svg width="34" height="20" viewBox="0 0 34 20" fill="none" xmlns="http://www.w3.org/2000/svg">
<g clip-path="url(#clip0_32168_8701)">
<path d="M24.2857 0H9.71429C4.34923 0 0 4.47715 0 10C0 15.5228 4.34923 20 9.71429 20H24.2857C29.6508 20 34 15.5228 34 10C34 4.47715 29.6508 0 24.2857 0Z" fill="white" fill-opacity="0.15"/>
<path d="M18.4584 10C18.4584 5.02944 14.5441 1 9.71551 1C4.88697 1 0.972656 5.02944 0.972656 10C0.972656 14.9706 4.88697 19 9.71551 19C14.5441 19 18.4584 14.9706 18.4584 10Z" fill="white" fill-opacity="0.3"/>
<path fill-rule="evenodd" clip-rule="evenodd" d="M9.71392 17C13.4694 17 16.5141 13.866 16.5141 10C16.5141 6.134 13.4694 3 9.71392 3C5.95847 3 2.91406 6.134 2.91406 10C2.91406 13.866 5.95847 17 9.71392 17ZM12.0677 4.6323C11.4899 4.6323 11.0216 5.11445 11.0216 5.70925V12.8588C11.0216 13.4536 11.4899 13.9358 12.0677 13.9358C12.6455 13.9358 13.1139 13.4536 13.1139 12.8588V5.70925C13.1139 5.11445 12.6455 4.6323 12.0677 4.6323ZM8.26095 9.3139C8.26095 8.72745 8.72277 8.25195 9.29256 8.25195C9.86225 8.25195 10.3242 8.72745 10.3242 9.3139V15.2669C10.3242 15.8534 9.86225 16.3289 9.29256 16.3289C8.72277 16.3289 8.26095 15.8534 8.26095 15.2669V9.3139ZM6.51738 10.8246C5.93963 10.8246 5.47125 11.3068 5.47125 11.9016V13.9656C5.47125 14.5604 5.93963 15.0426 6.51738 15.0426C7.09519 15.0426 7.56356 14.5604 7.56356 13.9656V11.9016C7.56356 11.3068 7.09519 10.8246 6.51738 10.8246Z" fill="#0B0528"/>
</g>
<defs>
<clipPath id="clip0_32168_8701">
<rect width="34" height="20" fill="white"/>
</clipPath>
</defs>
</svg>
