<svg width="34" height="20" viewBox="0 0 34 20" fill="none" xmlns="http://www.w3.org/2000/svg">
<g clip-path="url(#clip0_32168_8709)">
<path d="M24.2857 0H9.71429C4.34923 0 0 4.47715 0 10C0 15.5228 4.34923 20 9.71429 20H24.2857C29.6508 20 34 15.5228 34 10C34 4.47715 29.6508 0 24.2857 0Z" fill="#17EC20"/>
<path d="M33.0287 10C33.0287 5.02944 29.1144 1 24.2858 1C19.4573 1 15.543 5.02944 15.543 10C15.543 14.9706 19.4573 19 24.2858 19C29.1144 19 33.0287 14.9706 33.0287 10Z" fill="white" fill-opacity="0.3"/>
<path fill-rule="evenodd" clip-rule="evenodd" d="M24.2842 17C28.0397 17 31.0844 13.866 31.0844 10C31.0844 6.134 28.0397 3 24.2842 3C20.5288 3 17.4844 6.134 17.4844 10C17.4844 13.866 20.5288 17 24.2842 17ZM26.638 4.6323C26.0602 4.6323 25.5919 5.11445 25.5919 5.70925V12.8588C25.5919 13.4536 26.0602 13.9358 26.638 13.9358C27.2158 13.9358 27.6842 13.4536 27.6842 12.8588V5.70925C27.6842 5.11445 27.2158 4.6323 26.638 4.6323ZM22.8313 9.3139C22.8313 8.72745 23.2931 8.25195 23.8629 8.25195C24.4326 8.25195 24.8945 8.72745 24.8945 9.3139V15.2669C24.8945 15.8534 24.4326 16.3289 23.8629 16.3289C23.2931 16.3289 22.8313 15.8534 22.8313 15.2669V9.3139ZM21.0877 10.8246C20.5099 10.8246 20.0416 11.3068 20.0416 11.9016V13.9656C20.0416 14.5604 20.5099 15.0426 21.0877 15.0426C21.6655 15.0426 22.1339 14.5604 22.1339 13.9656V11.9016C22.1339 11.3068 21.6655 10.8246 21.0877 10.8246Z" fill="#0B0528"/>
</g>
<defs>
<clipPath id="clip0_32168_8709">
<rect width="34" height="20" fill="white"/>
</clipPath>
</defs>
</svg>
