<svg width="433" height="360" viewBox="0 0 433 360" fill="none" xmlns="http://www.w3.org/2000/svg">
<path d="M325 15C362.861 15 399.21 21.4736 433 33.375V360H0.607422C0.205812 353.385 0 346.716 0 340C0 160.507 145.507 15 325 15Z" fill="url(#paint0_linear_32171_13794)"/>
<path d="M325 131C364.522 131 401.481 141.97 433 161.031V360H116.944C116.319 353.418 116 346.746 116 340C116 224.572 209.572 131 325 131Z" fill="url(#paint1_linear_32171_13794)"/>
<path d="M333.5 250C388.452 250 433 294.548 433 349.5C433 353.046 432.813 356.549 432.451 360H234.549C234.187 356.549 234 353.046 234 349.5C234 294.548 278.548 250 333.5 250Z" fill="url(#paint2_linear_32171_13794)"/>
<rect x="361" width="32" height="32" rx="16" fill="white" fill-opacity="0.1"/>
<path d="M377.244 22.5V14.372L376.54 15.252H373.516L377.1 10.98H379.532V22.5H377.244Z" fill="white"/>
<rect x="361" y="48" width="32" height="32" rx="16" fill="white" fill-opacity="0.2"/>
<path d="M370.912 70.5V66.052C370.912 65.636 371.013 65.2573 371.216 64.916C371.429 64.5747 371.707 64.3027 372.048 64.1C372.389 63.8973 372.768 63.796 373.184 63.796H379.904C379.925 63.796 379.947 63.7853 379.968 63.764C379.989 63.7427 380 63.7213 380 63.7V61.348C380 61.3267 379.989 61.3053 379.968 61.284C379.947 61.2627 379.925 61.252 379.904 61.252H373.28C373.259 61.252 373.237 61.2627 373.216 61.284C373.195 61.3053 373.184 61.3267 373.184 61.348V62.212H370.912V61.236C370.912 60.82 371.013 60.4413 371.216 60.1C371.429 59.7587 371.707 59.4867 372.048 59.284C372.389 59.0813 372.768 58.98 373.184 58.98H380C380.405 58.98 380.779 59.0813 381.12 59.284C381.472 59.4867 381.749 59.7587 381.952 60.1C382.165 60.4413 382.272 60.82 382.272 61.236V63.812C382.272 64.228 382.165 64.6067 381.952 64.948C381.749 65.2893 381.472 65.5667 381.12 65.78C380.779 65.9827 380.405 66.084 380 66.084H373.28C373.259 66.084 373.237 66.0947 373.216 66.116C373.195 66.1373 373.184 66.1587 373.184 66.18V68.132C373.184 68.1533 373.195 68.1747 373.216 68.196C373.237 68.2173 373.259 68.228 373.28 68.228H382.272V70.5H370.912Z" fill="white"/>
<rect x="361" y="96" width="32" height="32" rx="16" fill="white" fill-opacity="0.3"/>
<path d="M373.12 118.5C372.704 118.5 372.325 118.399 371.984 118.196C371.643 117.983 371.365 117.705 371.152 117.364C370.949 117.023 370.848 116.649 370.848 116.244V115.444H373.136V116.132C373.136 116.153 373.141 116.175 373.152 116.196C373.173 116.217 373.195 116.228 373.216 116.228H379.84C379.861 116.228 379.883 116.217 379.904 116.196C379.925 116.175 379.936 116.153 379.936 116.132V113.924C379.936 113.892 379.925 113.871 379.904 113.86C379.883 113.839 379.861 113.828 379.84 113.828H372.784V111.54H379.392C379.424 111.54 379.445 111.535 379.456 111.524C379.477 111.503 379.488 111.481 379.488 111.46V109.348C379.488 109.327 379.477 109.305 379.456 109.284C379.445 109.263 379.424 109.252 379.392 109.252H373.216C373.195 109.252 373.173 109.263 373.152 109.284C373.141 109.305 373.136 109.327 373.136 109.348V110.18H370.848V109.236C370.848 108.82 370.949 108.441 371.152 108.1C371.365 107.759 371.643 107.487 371.984 107.284C372.325 107.081 372.704 106.98 373.12 106.98H379.504C379.92 106.98 380.299 107.081 380.64 107.284C380.981 107.487 381.253 107.759 381.456 108.1C381.659 108.441 381.76 108.82 381.76 109.236V111.556C381.76 111.684 381.749 111.817 381.728 111.956C381.717 112.084 381.691 112.201 381.648 112.308C381.829 112.511 381.968 112.745 382.064 113.012C382.16 113.268 382.208 113.535 382.208 113.812V116.244C382.208 116.649 382.107 117.023 381.904 117.364C381.701 117.705 381.424 117.983 381.072 118.196C380.731 118.399 380.357 118.5 379.952 118.5H373.12Z" fill="white"/>
<rect x="361" y="144" width="32" height="32" rx="16" fill="white" fill-opacity="0.4"/>
<path d="M378.168 166.5V163.62H371.096V161.54L378.36 154.98H380.44V161.332H382.008V163.62H380.44V166.5H378.168ZM374.744 161.332H378.168V158.5L374.744 161.332Z" fill="#0B0528"/>
<rect x="361" y="192" width="32" height="32" rx="16" fill="white" fill-opacity="0.5"/>
<path d="M373.184 214.5C372.768 214.5 372.389 214.399 372.048 214.196C371.707 213.983 371.429 213.705 371.216 213.364C371.013 213.023 370.912 212.649 370.912 212.244V211.412H373.184V212.132C373.184 212.153 373.195 212.175 373.216 212.196C373.237 212.217 373.259 212.228 373.28 212.228H379.904C379.925 212.228 379.947 212.217 379.968 212.196C379.989 212.175 380 212.153 380 212.132V209.892C380 209.86 379.989 209.839 379.968 209.828C379.947 209.807 379.925 209.796 379.904 209.796H370.912V202.98H382.272V205.252H373.28C373.259 205.252 373.237 205.263 373.216 205.284C373.195 205.305 373.184 205.327 373.184 205.348V207.412C373.184 207.433 373.195 207.455 373.216 207.476C373.237 207.487 373.259 207.492 373.28 207.492H380C380.405 207.492 380.779 207.593 381.12 207.796C381.472 207.999 381.749 208.276 381.952 208.628C382.165 208.969 382.272 209.348 382.272 209.764V212.244C382.272 212.649 382.165 213.023 381.952 213.364C381.749 213.705 381.472 213.983 381.12 214.196C380.779 214.399 380.405 214.5 380 214.5H373.184Z" fill="#0B0528"/>
<rect x="361" y="240" width="32" height="32" rx="16" fill="white" fill-opacity="0.6"/>
<path d="M373.184 262.5C372.768 262.5 372.389 262.399 372.048 262.196C371.707 261.983 371.429 261.705 371.216 261.364C371.013 261.023 370.912 260.649 370.912 260.244V253.236C370.912 252.82 371.013 252.441 371.216 252.1C371.429 251.759 371.707 251.487 372.048 251.284C372.389 251.081 372.768 250.98 373.184 250.98H380.48V253.252H373.28C373.259 253.252 373.237 253.263 373.216 253.284C373.195 253.305 373.184 253.327 373.184 253.348V255.396C373.184 255.417 373.195 255.439 373.216 255.46C373.237 255.481 373.259 255.492 373.28 255.492H380C380.405 255.492 380.779 255.593 381.12 255.796C381.472 255.999 381.749 256.271 381.952 256.612C382.165 256.953 382.272 257.332 382.272 257.748V260.244C382.272 260.649 382.165 261.023 381.952 261.364C381.749 261.705 381.472 261.983 381.12 262.196C380.779 262.399 380.405 262.5 380 262.5H373.184ZM373.28 260.228H379.904C379.925 260.228 379.947 260.217 379.968 260.196C379.989 260.175 380 260.153 380 260.132V257.876C380 257.855 379.989 257.833 379.968 257.812C379.947 257.791 379.925 257.78 379.904 257.78H373.184V260.132C373.184 260.153 373.195 260.175 373.216 260.196C373.237 260.217 373.259 260.228 373.28 260.228Z" fill="#0B0528"/>
<rect x="361" y="288" width="32" height="32" rx="16" fill="white" fill-opacity="0.7"/>
<path d="M378.844 310.5V301.332C378.844 301.311 378.833 301.295 378.812 301.284C378.801 301.263 378.78 301.252 378.748 301.252H371.548V298.964H378.86C379.276 298.964 379.655 299.065 379.996 299.268C380.337 299.471 380.609 299.743 380.812 300.084C381.015 300.425 381.116 300.809 381.116 301.236V310.5H378.844Z" fill="#0B0528"/>
<path d="M0 24C0 10.7452 10.7452 0 24 0H154C167.255 0 178 10.7452 178 24V83C178 84.1046 177.105 85 176 85H24C10.7452 85 0 74.2548 0 61V24Z" fill="white" fill-opacity="0.15"/>
<path d="M24.912 33V21.464H27.216V30.68H36.432V33H24.912ZM39.5408 33C39.1354 33 38.7621 32.8987 38.4208 32.696C38.0794 32.4827 37.8021 32.2053 37.5888 31.864C37.3861 31.5227 37.2848 31.1493 37.2848 30.744V25.976C37.2848 25.5707 37.3861 25.1973 37.5888 24.856C37.8021 24.5147 38.0794 24.2427 38.4208 24.04C38.7621 23.8267 39.1354 23.72 39.5408 23.72H44.4368C44.8528 23.72 45.2314 23.8267 45.5728 24.04C45.9141 24.2427 46.1861 24.5147 46.3888 24.856C46.5914 25.1973 46.6928 25.5707 46.6928 25.976V30.744C46.6928 31.1493 46.5914 31.5227 46.3888 31.864C46.1861 32.2053 45.9141 32.4827 45.5728 32.696C45.2314 32.8987 44.8528 33 44.4368 33H39.5408ZM39.6528 30.728H44.3248C44.3461 30.728 44.3674 30.7173 44.3888 30.696C44.4101 30.6747 44.4208 30.6533 44.4208 30.632V26.088C44.4208 26.0667 44.4101 26.0453 44.3888 26.024C44.3674 26.0027 44.3461 25.992 44.3248 25.992H39.6528C39.6314 25.992 39.6101 26.0027 39.5888 26.024C39.5674 26.0453 39.5568 26.0667 39.5568 26.088V30.632C39.5568 30.6533 39.5674 30.6747 39.5888 30.696C39.6101 30.7173 39.6314 30.728 39.6528 30.728ZM50.708 33L47.06 23.72H49.476L51.604 28.84L53.828 23.72H56.1L58.484 28.904L60.452 23.72H62.868L59.38 33H57.636L54.98 27.144L52.452 33H50.708Z" fill="white"/>
<path d="M28.52 63.24C27.9227 63.24 27.3707 63.1173 26.864 62.872C26.3573 62.6267 25.9253 62.288 25.568 61.856C25.2107 61.424 24.9547 60.928 24.8 60.368L25.928 60.064C26.0293 60.48 26.2133 60.84 26.48 61.144C26.7467 61.4427 27.0587 61.6747 27.416 61.84C27.7787 62.0053 28.1573 62.088 28.552 62.088C29.064 62.088 29.5227 61.9653 29.928 61.72C30.3387 61.4693 30.664 61.1387 30.904 60.728C31.144 60.3173 31.264 59.8667 31.264 59.376C31.264 58.8693 31.1387 58.4133 30.888 58.008C30.6373 57.5973 30.3067 57.272 29.896 57.032C29.4853 56.792 29.0373 56.672 28.552 56.672C28.008 56.672 27.5387 56.792 27.144 57.032C26.7493 57.2667 26.4347 57.5627 26.2 57.92L25.128 57.472L25.48 51.48H31.632V52.608H26L26.584 52.056L26.272 57.168L25.976 56.776C26.3067 56.3973 26.7067 56.1013 27.176 55.888C27.6453 55.6747 28.1387 55.568 28.656 55.568C29.3653 55.568 30.0053 55.7387 30.576 56.08C31.1467 56.416 31.6 56.872 31.936 57.448C32.272 58.024 32.44 58.6667 32.44 59.376C32.44 60.08 32.2613 60.7253 31.904 61.312C31.5467 61.8933 31.072 62.36 30.48 62.712C29.888 63.064 29.2347 63.24 28.52 63.24ZM34.1944 57.744V56.736H38.9944V57.744H34.1944ZM40.7531 62.992L40.7611 61.92L45.9691 57.216C46.4171 56.8107 46.7131 56.4267 46.8571 56.064C47.0065 55.696 47.0811 55.312 47.0811 54.912C47.0811 54.4373 46.9691 54.008 46.7451 53.624C46.5211 53.24 46.2198 52.936 45.8411 52.712C45.4625 52.4827 45.0385 52.368 44.5691 52.368C44.0785 52.368 43.6411 52.4853 43.2571 52.72C42.8731 52.9547 42.5691 53.264 42.3451 53.648C42.1265 54.032 42.0198 54.4507 42.0251 54.904H40.8251C40.8251 54.2053 40.9905 53.5787 41.3211 53.024C41.6518 52.4693 42.0998 52.0347 42.6651 51.72C43.2305 51.4 43.8705 51.24 44.5851 51.24C45.2838 51.24 45.9105 51.4053 46.4651 51.736C47.0251 52.0613 47.4651 52.504 47.7851 53.064C48.1105 53.6187 48.2731 54.2373 48.2731 54.92C48.2731 55.4 48.2145 55.824 48.0971 56.192C47.9851 56.5547 47.8065 56.8933 47.5611 57.208C47.3211 57.5173 47.0145 57.8373 46.6411 58.168L42.0171 62.344L41.8331 61.864H48.2731V62.992H40.7531ZM53.9581 63.24C53.2488 63.24 52.6088 63.0747 52.0381 62.744C51.4728 62.4133 51.0248 61.9653 50.6941 61.4C50.3635 60.8293 50.1981 60.1893 50.1981 59.48V55C50.1981 54.2907 50.3635 53.6533 50.6941 53.088C51.0248 52.5173 51.4728 52.0667 52.0381 51.736C52.6088 51.4053 53.2488 51.24 53.9581 51.24C54.6675 51.24 55.3048 51.4053 55.8701 51.736C56.4408 52.0667 56.8915 52.5173 57.2221 53.088C57.5528 53.6533 57.7181 54.2907 57.7181 55V59.48C57.7181 60.1893 57.5528 60.8293 57.2221 61.4C56.8915 61.9653 56.4408 62.4133 55.8701 62.744C55.3048 63.0747 54.6675 63.24 53.9581 63.24ZM53.9581 62.104C54.4328 62.104 54.8648 61.9893 55.2541 61.76C55.6435 61.5253 55.9528 61.2133 56.1821 60.824C56.4115 60.4347 56.5261 60.0053 56.5261 59.536V54.944C56.5261 54.4693 56.4115 54.0373 56.1821 53.648C55.9528 53.2587 55.6435 52.9493 55.2541 52.72C54.8648 52.4853 54.4328 52.368 53.9581 52.368C53.4835 52.368 53.0515 52.4853 52.6621 52.72C52.2728 52.9493 51.9635 53.2587 51.7341 53.648C51.5048 54.0373 51.3901 54.4693 51.3901 54.944V59.536C51.3901 60.0053 51.5048 60.4347 51.7341 60.824C51.9635 61.2133 52.2728 61.5253 52.6621 61.76C53.0515 61.9893 53.4835 62.104 53.9581 62.104ZM61.0838 63L60.2838 62.2L71.0278 51.48L71.8278 52.272L61.0838 63ZM69.4278 63.24C68.8998 63.24 68.4171 63.112 67.9798 62.856C67.5478 62.5947 67.2011 62.248 66.9398 61.816C66.6784 61.3787 66.5478 60.8933 66.5478 60.36C66.5478 59.8373 66.6811 59.3573 66.9478 58.92C67.2144 58.4827 67.5664 58.1333 68.0038 57.872C68.4411 57.6107 68.9158 57.48 69.4278 57.48C69.9558 57.48 70.4384 57.6107 70.8758 57.872C71.3131 58.128 71.6598 58.4747 71.9158 58.912C72.1771 59.344 72.3078 59.8267 72.3078 60.36C72.3078 60.8933 72.1771 61.3787 71.9158 61.816C71.6598 62.248 71.3131 62.5947 70.8758 62.856C70.4384 63.112 69.9558 63.24 69.4278 63.24ZM69.4278 62.176C69.7531 62.176 70.0544 62.0933 70.3318 61.928C70.6091 61.7627 70.8304 61.544 70.9958 61.272C71.1611 60.9947 71.2438 60.6907 71.2438 60.36C71.2438 60.0293 71.1611 59.728 70.9958 59.456C70.8304 59.1787 70.6091 58.9573 70.3318 58.792C70.0544 58.6267 69.7531 58.544 69.4278 58.544C69.0971 58.544 68.7931 58.6267 68.5158 58.792C68.2438 58.9573 68.0224 59.1787 67.8518 59.456C67.6864 59.728 67.6038 60.0293 67.6038 60.36C67.6038 60.6907 67.6864 60.9947 67.8518 61.272C68.0224 61.544 68.2438 61.7627 68.5158 61.928C68.7931 62.0933 69.0971 62.176 69.4278 62.176ZM62.6838 57C62.1558 57 61.6731 56.872 61.2358 56.616C60.7984 56.3547 60.4491 56.008 60.1878 55.576C59.9318 55.1387 59.8038 54.6533 59.8038 54.12C59.8038 53.5973 59.9371 53.1173 60.2038 52.68C60.4704 52.2427 60.8224 51.8933 61.2598 51.632C61.6971 51.3707 62.1718 51.24 62.6838 51.24C63.2118 51.24 63.6918 51.3707 64.1238 51.632C64.5611 51.888 64.9104 52.2347 65.1718 52.672C65.4331 53.104 65.5638 53.5867 65.5638 54.12C65.5638 54.6533 65.4331 55.1387 65.1718 55.576C64.9104 56.008 64.5611 56.3547 64.1238 56.616C63.6918 56.872 63.2118 57 62.6838 57ZM62.6838 55.936C63.0144 55.936 63.3158 55.8533 63.5878 55.688C63.8651 55.5227 64.0864 55.304 64.2518 55.032C64.4171 54.7547 64.4998 54.4507 64.4998 54.12C64.4998 53.7893 64.4171 53.488 64.2518 53.216C64.0864 52.9387 63.8651 52.7173 63.5878 52.552C63.3158 52.3867 63.0144 52.304 62.6838 52.304C62.3531 52.304 62.0491 52.3867 61.7718 52.552C61.4998 52.7173 61.2811 52.9387 61.1158 53.216C60.9504 53.488 60.8678 53.7893 60.8678 54.12C60.8678 54.4507 60.9504 54.7547 61.1158 55.032C61.2811 55.304 61.4998 55.5227 61.7718 55.688C62.0491 55.8533 62.3531 55.936 62.6838 55.936ZM77.5888 63V51.48H81.0848C81.2074 51.48 81.4154 51.4827 81.7088 51.488C82.0074 51.4933 82.2928 51.5147 82.5648 51.552C83.4394 51.6747 84.1701 52 84.7568 52.528C85.3434 53.056 85.7834 53.728 86.0768 54.544C86.3701 55.36 86.5168 56.2587 86.5168 57.24C86.5168 58.2213 86.3701 59.12 86.0768 59.936C85.7834 60.752 85.3434 61.424 84.7568 61.952C84.1701 62.48 83.4394 62.8053 82.5648 62.928C82.2981 62.96 82.0128 62.9813 81.7088 62.992C81.4048 62.9973 81.1968 63 81.0848 63H77.5888ZM78.8048 61.872H81.0848C81.3034 61.872 81.5381 61.8667 81.7888 61.856C82.0448 61.84 82.2634 61.8133 82.4448 61.776C83.1168 61.6587 83.6581 61.3867 84.0688 60.96C84.4848 60.5333 84.7888 60 84.9808 59.36C85.1728 58.7147 85.2688 58.008 85.2688 57.24C85.2688 56.4667 85.1728 55.7573 84.9808 55.112C84.7888 54.4667 84.4848 53.9333 84.0688 53.512C83.6528 53.0907 83.1114 52.8213 82.4448 52.704C82.2634 52.6667 82.0421 52.6427 81.7808 52.632C81.5248 52.616 81.2928 52.608 81.0848 52.608H78.8048V61.872ZM88.3388 63V54.36H89.3948V56.44L89.1868 56.168C89.2828 55.912 89.4081 55.6773 89.5628 55.464C89.7174 55.2453 89.8854 55.0667 90.0668 54.928C90.2908 54.7307 90.5521 54.5813 90.8508 54.48C91.1494 54.3733 91.4508 54.312 91.7548 54.296C92.0588 54.2747 92.3361 54.296 92.5868 54.36V55.464C92.2721 55.384 91.9281 55.3653 91.5548 55.408C91.1814 55.4507 90.8374 55.6 90.5228 55.856C90.2348 56.08 90.0188 56.3493 89.8748 56.664C89.7308 56.9733 89.6348 57.304 89.5868 57.656C89.5388 58.0027 89.5148 58.3467 89.5148 58.688V63H88.3388ZM96.2483 63.24C95.5976 63.24 95.0509 63.1227 94.6083 62.888C94.1709 62.6533 93.8429 62.3413 93.6243 61.952C93.4056 61.5627 93.2963 61.1387 93.2963 60.68C93.2963 60.2107 93.3896 59.8107 93.5763 59.48C93.7683 59.144 94.0269 58.8693 94.3523 58.656C94.6829 58.4427 95.0643 58.28 95.4963 58.168C95.9336 58.0613 96.4163 57.968 96.9443 57.888C97.4776 57.8027 97.9976 57.7307 98.5043 57.672C99.0163 57.608 99.4643 57.5467 99.8483 57.488L99.4323 57.744C99.4483 56.8907 99.2829 56.2587 98.9363 55.848C98.5896 55.4373 97.9869 55.232 97.1283 55.232C96.5363 55.232 96.0349 55.3653 95.6243 55.632C95.2189 55.8987 94.9336 56.32 94.7682 56.896L93.6243 56.56C93.8216 55.7867 94.2189 55.1867 94.8163 54.76C95.4136 54.3333 96.1896 54.12 97.1443 54.12C97.9336 54.12 98.6029 54.2693 99.1523 54.568C99.7069 54.8613 100.099 55.288 100.328 55.848C100.435 56.0987 100.504 56.3787 100.536 56.688C100.568 56.9973 100.584 57.312 100.584 57.632V63H99.5363V60.832L99.8403 60.96C99.5469 61.7013 99.0909 62.2667 98.4723 62.656C97.8536 63.0453 97.1123 63.24 96.2483 63.24ZM96.3843 62.224C96.9336 62.224 97.4136 62.1253 97.8243 61.928C98.2349 61.7307 98.5656 61.4613 98.8163 61.12C99.0669 60.7733 99.2296 60.384 99.3043 59.952C99.3683 59.6747 99.4029 59.3707 99.4083 59.04C99.4136 58.704 99.4163 58.4533 99.4163 58.288L99.8643 58.52C99.4643 58.5733 99.0296 58.6267 98.5603 58.68C98.0963 58.7333 97.6376 58.7947 97.1843 58.864C96.7363 58.9333 96.3309 59.016 95.9683 59.112C95.7229 59.1813 95.4856 59.28 95.2563 59.408C95.0269 59.5307 94.8376 59.696 94.6883 59.904C94.5443 60.112 94.4723 60.3707 94.4723 60.68C94.4723 60.9307 94.5336 61.1733 94.6562 61.408C94.7843 61.6427 94.9869 61.8373 95.2643 61.992C95.5469 62.1467 95.9203 62.224 96.3843 62.224ZM104.194 63L101.554 54.352L102.73 54.36L104.778 61.072L106.834 54.36H107.906L109.962 61.072L112.026 54.36H113.194L110.554 63H109.53L107.37 56.12L105.218 63H104.194ZM117.675 63.24C116.87 63.24 116.182 63.04 115.611 62.64C115.04 62.2347 114.603 61.688 114.299 61C113.995 60.312 113.843 59.536 113.843 58.672C113.843 57.8133 113.992 57.04 114.291 56.352C114.595 55.664 115.03 55.12 115.595 54.72C116.16 54.32 116.838 54.12 117.627 54.12C118.438 54.12 119.12 54.3173 119.675 54.712C120.23 55.1067 120.648 55.648 120.931 56.336C121.219 57.0187 121.363 57.7973 121.363 58.672C121.363 59.5307 121.222 60.3067 120.939 61C120.656 61.688 120.24 62.2347 119.691 62.64C119.142 63.04 118.47 63.24 117.675 63.24ZM117.795 62.144C118.408 62.144 118.915 61.9947 119.315 61.696C119.715 61.3973 120.014 60.9867 120.211 60.464C120.408 59.936 120.507 59.3387 120.507 58.672C120.507 57.9947 120.408 57.3973 120.211 56.88C120.014 56.3573 119.715 55.9493 119.315 55.656C118.92 55.3627 118.422 55.216 117.819 55.216C117.2 55.216 116.688 55.368 116.283 55.672C115.878 55.976 115.576 56.3893 115.379 56.912C115.187 57.4347 115.091 58.0213 115.091 58.672C115.091 59.328 115.19 59.92 115.387 60.448C115.59 60.9707 115.891 61.384 116.291 61.688C116.691 61.992 117.192 62.144 117.795 62.144ZM120.507 63V56.496H120.379V51.48H121.563V63H120.507ZM127.416 63.24C126.557 63.24 125.824 63.0453 125.216 62.656C124.608 62.2667 124.141 61.728 123.816 61.04C123.49 60.352 123.328 59.5627 123.328 58.672C123.328 57.7653 123.493 56.9707 123.824 56.288C124.154 55.6053 124.624 55.0747 125.232 54.696C125.845 54.312 126.573 54.12 127.416 54.12C128.28 54.12 129.016 54.3147 129.624 54.704C130.237 55.088 130.704 55.624 131.024 56.312C131.349 56.9947 131.512 57.7813 131.512 58.672C131.512 59.5787 131.349 60.376 131.024 61.064C130.698 61.7467 130.229 62.28 129.616 62.664C129.002 63.048 128.269 63.24 127.416 63.24ZM127.416 62.112C128.376 62.112 129.09 61.7947 129.56 61.16C130.029 60.52 130.264 59.6907 130.264 58.672C130.264 57.6267 130.026 56.7947 129.552 56.176C129.082 55.5573 128.37 55.248 127.416 55.248C126.77 55.248 126.237 55.3947 125.816 55.688C125.4 55.976 125.088 56.3787 124.88 56.896C124.677 57.408 124.576 58 124.576 58.672C124.576 59.712 124.816 60.5467 125.296 61.176C125.776 61.8 126.482 62.112 127.416 62.112ZM134.804 63L132.164 54.352L133.34 54.36L135.388 61.072L137.444 54.36H138.516L140.572 61.072L142.636 54.36H143.804L141.164 63H140.14L137.98 56.12L135.828 63H134.804ZM151.485 63V58.592C151.485 58.112 151.44 57.672 151.349 57.272C151.258 56.8667 151.112 56.5147 150.909 56.216C150.712 55.912 150.453 55.6773 150.133 55.512C149.818 55.3467 149.434 55.264 148.981 55.264C148.565 55.264 148.197 55.336 147.877 55.48C147.562 55.624 147.296 55.832 147.077 56.104C146.864 56.3707 146.701 56.696 146.589 57.08C146.477 57.464 146.421 57.9013 146.421 58.392L145.589 58.208C145.589 57.3227 145.744 56.5787 146.053 55.976C146.362 55.3733 146.789 54.9173 147.333 54.608C147.877 54.2987 148.501 54.144 149.205 54.144C149.722 54.144 150.173 54.224 150.557 54.384C150.946 54.544 151.274 54.76 151.541 55.032C151.813 55.304 152.032 55.616 152.197 55.968C152.362 56.3147 152.482 56.6853 152.557 57.08C152.632 57.4693 152.669 57.8587 152.669 58.248V63H151.485ZM145.237 63V54.36H146.301V56.488H146.421V63H145.237Z" fill="white"/>
<path d="M56 125C56 111.745 66.7452 101 80 101H221C234.255 101 245 111.745 245 125V184C245 185.105 244.105 186 243 186H80C66.7452 186 56 175.255 56 162V125Z" fill="white" fill-opacity="0.3"/>
<path d="M80.896 134V122.48H83.344L87.376 127.296L91.392 122.48H93.856V134H91.536V125.92L87.376 130.896L83.2 125.936V134H80.896ZM97.9158 134C97.5104 134 97.1371 133.899 96.7958 133.696C96.4544 133.483 96.1771 133.205 95.9638 132.864C95.7611 132.523 95.6598 132.149 95.6598 131.744V126.976C95.6598 126.571 95.7611 126.197 95.9638 125.856C96.1771 125.515 96.4544 125.243 96.7958 125.04C97.1371 124.827 97.5104 124.72 97.9158 124.72H102.812C103.228 124.72 103.606 124.827 103.948 125.04C104.289 125.243 104.561 125.515 104.764 125.856C104.966 126.197 105.068 126.571 105.068 126.976V130.512H97.9318V131.632C97.9318 131.653 97.9424 131.675 97.9638 131.696C97.9851 131.717 98.0064 131.728 98.0278 131.728H105.068V134H97.9158ZM97.9318 128.48H102.796V127.088C102.796 127.067 102.785 127.045 102.764 127.024C102.742 127.003 102.721 126.992 102.7 126.992H98.0278C98.0064 126.992 97.9851 127.003 97.9638 127.024C97.9424 127.045 97.9318 127.067 97.9318 127.088V128.48ZM108.562 134C108.135 134 107.751 133.899 107.41 133.696C107.069 133.483 106.797 133.205 106.594 132.864C106.391 132.523 106.29 132.149 106.29 131.744V126.976C106.29 126.571 106.391 126.197 106.594 125.856C106.797 125.515 107.069 125.243 107.41 125.04C107.751 124.827 108.135 124.72 108.562 124.72H113.442V121.68H115.714V134H108.562ZM108.674 131.728H113.346C113.367 131.728 113.389 131.717 113.41 131.696C113.431 131.675 113.442 131.653 113.442 131.632V127.088C113.442 127.067 113.431 127.045 113.41 127.024C113.389 127.003 113.367 126.992 113.346 126.992H108.674C108.653 126.992 108.631 127.003 108.61 127.024C108.589 127.045 108.578 127.067 108.578 127.088V131.632C108.578 131.653 108.589 131.675 108.61 131.696C108.631 131.717 108.653 131.728 108.674 131.728ZM117.426 134V124.72H119.698V134H117.426ZM117.426 123.968V121.68H119.698V123.968H117.426ZM123.307 134C122.902 134 122.523 133.899 122.171 133.696C121.83 133.483 121.558 133.205 121.355 132.864C121.152 132.523 121.051 132.149 121.051 131.744V124.72H123.323V131.632C123.323 131.653 123.334 131.675 123.355 131.696C123.376 131.717 123.398 131.728 123.419 131.728H128.091C128.112 131.728 128.134 131.717 128.155 131.696C128.176 131.675 128.187 131.653 128.187 131.632V124.72H130.459V131.744C130.459 132.149 130.358 132.523 130.155 132.864C129.952 133.205 129.68 133.483 129.339 133.696C128.998 133.899 128.619 134 128.203 134H123.307ZM131.786 134V124.72H143.114C143.541 124.72 143.925 124.827 144.266 125.04C144.607 125.243 144.879 125.515 145.082 125.856C145.285 126.197 145.386 126.571 145.386 126.976V134H143.114V127.088C143.114 127.067 143.103 127.045 143.082 127.024C143.071 127.003 143.05 126.992 143.018 126.992H139.834C139.802 126.992 139.775 127.003 139.754 127.024C139.743 127.045 139.738 127.067 139.738 127.088V134H137.45V127.088C137.45 127.067 137.439 127.045 137.418 127.024C137.397 127.003 137.375 126.992 137.354 126.992H134.154C134.133 126.992 134.111 127.003 134.09 127.024C134.079 127.045 134.074 127.067 134.074 127.088V134H131.786Z" fill="#0B0528"/>
<path d="M86.192 164V161.768H80.8V160.648L84.656 152.48H85.976L82.12 160.648H86.192V157.288H87.376V160.648H88.632V161.768H87.376V164H86.192ZM94.3175 164.24C93.6082 164.24 92.9682 164.075 92.3975 163.744C91.8322 163.413 91.3842 162.965 91.0535 162.4C90.7228 161.829 90.5575 161.189 90.5575 160.48V156C90.5575 155.291 90.7228 154.653 91.0535 154.088C91.3842 153.517 91.8322 153.067 92.3975 152.736C92.9682 152.405 93.6082 152.24 94.3175 152.24C95.0268 152.24 95.6642 152.405 96.2295 152.736C96.8002 153.067 97.2508 153.517 97.5815 154.088C97.9122 154.653 98.0775 155.291 98.0775 156V160.48C98.0775 161.189 97.9122 161.829 97.5815 162.4C97.2508 162.965 96.8002 163.413 96.2295 163.744C95.6642 164.075 95.0268 164.24 94.3175 164.24ZM94.3175 163.104C94.7922 163.104 95.2242 162.989 95.6135 162.76C96.0028 162.525 96.3122 162.213 96.5415 161.824C96.7708 161.435 96.8855 161.005 96.8855 160.536V155.944C96.8855 155.469 96.7708 155.037 96.5415 154.648C96.3122 154.259 96.0028 153.949 95.6135 153.72C95.2242 153.485 94.7922 153.368 94.3175 153.368C93.8428 153.368 93.4108 153.485 93.0215 153.72C92.6322 153.949 92.3228 154.259 92.0935 154.648C91.8642 155.037 91.7495 155.469 91.7495 155.944V160.536C91.7495 161.005 91.8642 161.435 92.0935 161.824C92.3228 162.213 92.6322 162.525 93.0215 162.76C93.4108 162.989 93.8428 163.104 94.3175 163.104ZM100.163 158.744V157.736H104.963V158.744H100.163ZM110.938 164.24C110.218 164.24 109.562 164.067 108.97 163.72C108.383 163.368 107.914 162.893 107.562 162.296C107.215 161.693 107.042 161.016 107.042 160.264V156.272C107.042 155.499 107.215 154.811 107.562 154.208C107.909 153.6 108.381 153.123 108.978 152.776C109.581 152.424 110.263 152.248 111.026 152.248C111.682 152.248 112.29 152.392 112.85 152.68C113.415 152.968 113.877 153.371 114.234 153.888L113.33 154.632C113.085 154.248 112.759 153.941 112.354 153.712C111.949 153.483 111.506 153.368 111.026 153.368C110.487 153.368 110.007 153.499 109.586 153.76C109.165 154.021 108.834 154.365 108.594 154.792C108.354 155.213 108.234 155.672 108.234 156.168V158.68L107.938 158.344C108.274 157.816 108.714 157.389 109.258 157.064C109.807 156.739 110.405 156.576 111.05 156.576C111.765 156.576 112.407 156.747 112.978 157.088C113.549 157.424 114.002 157.88 114.338 158.456C114.674 159.032 114.842 159.677 114.842 160.392C114.842 161.101 114.663 161.747 114.306 162.328C113.954 162.909 113.482 163.373 112.89 163.72C112.303 164.067 111.653 164.24 110.938 164.24ZM110.938 163.096C111.439 163.096 111.895 162.976 112.306 162.736C112.722 162.496 113.05 162.171 113.29 161.76C113.535 161.349 113.658 160.893 113.658 160.392C113.658 159.891 113.535 159.435 113.29 159.024C113.05 158.608 112.725 158.28 112.314 158.04C111.903 157.795 111.447 157.672 110.946 157.672C110.445 157.672 109.989 157.795 109.578 158.04C109.167 158.28 108.839 158.608 108.594 159.024C108.354 159.435 108.234 159.891 108.234 160.392C108.234 160.888 108.354 161.341 108.594 161.752C108.834 162.163 109.159 162.491 109.57 162.736C109.981 162.976 110.437 163.096 110.938 163.096ZM120.724 164.24C120.014 164.24 119.374 164.075 118.804 163.744C118.238 163.413 117.79 162.965 117.46 162.4C117.129 161.829 116.964 161.189 116.964 160.48V156C116.964 155.291 117.129 154.653 117.46 154.088C117.79 153.517 118.238 153.067 118.804 152.736C119.374 152.405 120.014 152.24 120.724 152.24C121.433 152.24 122.07 152.405 122.636 152.736C123.206 153.067 123.657 153.517 123.988 154.088C124.318 154.653 124.484 155.291 124.484 156V160.48C124.484 161.189 124.318 161.829 123.988 162.4C123.657 162.965 123.206 163.413 122.636 163.744C122.07 164.075 121.433 164.24 120.724 164.24ZM120.724 163.104C121.198 163.104 121.63 162.989 122.02 162.76C122.409 162.525 122.718 162.213 122.948 161.824C123.177 161.435 123.292 161.005 123.292 160.536V155.944C123.292 155.469 123.177 155.037 122.948 154.648C122.718 154.259 122.409 153.949 122.02 153.72C121.63 153.485 121.198 153.368 120.724 153.368C120.249 153.368 119.817 153.485 119.428 153.72C119.038 153.949 118.729 154.259 118.5 154.648C118.27 155.037 118.156 155.469 118.156 155.944V160.536C118.156 161.005 118.27 161.435 118.5 161.824C118.729 162.213 119.038 162.525 119.428 162.76C119.817 162.989 120.249 163.104 120.724 163.104ZM127.849 164L127.049 163.2L137.793 152.48L138.593 153.272L127.849 164ZM136.193 164.24C135.665 164.24 135.183 164.112 134.745 163.856C134.313 163.595 133.967 163.248 133.705 162.816C133.444 162.379 133.313 161.893 133.313 161.36C133.313 160.837 133.447 160.357 133.713 159.92C133.98 159.483 134.332 159.133 134.769 158.872C135.207 158.611 135.681 158.48 136.193 158.48C136.721 158.48 137.204 158.611 137.641 158.872C138.079 159.128 138.425 159.475 138.681 159.912C138.943 160.344 139.073 160.827 139.073 161.36C139.073 161.893 138.943 162.379 138.681 162.816C138.425 163.248 138.079 163.595 137.641 163.856C137.204 164.112 136.721 164.24 136.193 164.24ZM136.193 163.176C136.519 163.176 136.82 163.093 137.097 162.928C137.375 162.763 137.596 162.544 137.761 162.272C137.927 161.995 138.009 161.691 138.009 161.36C138.009 161.029 137.927 160.728 137.761 160.456C137.596 160.179 137.375 159.957 137.097 159.792C136.82 159.627 136.519 159.544 136.193 159.544C135.863 159.544 135.559 159.627 135.281 159.792C135.009 159.957 134.788 160.179 134.617 160.456C134.452 160.728 134.369 161.029 134.369 161.36C134.369 161.691 134.452 161.995 134.617 162.272C134.788 162.544 135.009 162.763 135.281 162.928C135.559 163.093 135.863 163.176 136.193 163.176ZM129.449 158C128.921 158 128.439 157.872 128.001 157.616C127.564 157.355 127.215 157.008 126.953 156.576C126.697 156.139 126.569 155.653 126.569 155.12C126.569 154.597 126.703 154.117 126.969 153.68C127.236 153.243 127.588 152.893 128.025 152.632C128.463 152.371 128.937 152.24 129.449 152.24C129.977 152.24 130.457 152.371 130.889 152.632C131.327 152.888 131.676 153.235 131.937 153.672C132.199 154.104 132.329 154.587 132.329 155.12C132.329 155.653 132.199 156.139 131.937 156.576C131.676 157.008 131.327 157.355 130.889 157.616C130.457 157.872 129.977 158 129.449 158ZM129.449 156.936C129.78 156.936 130.081 156.853 130.353 156.688C130.631 156.523 130.852 156.304 131.017 156.032C131.183 155.755 131.265 155.451 131.265 155.12C131.265 154.789 131.183 154.488 131.017 154.216C130.852 153.939 130.631 153.717 130.353 153.552C130.081 153.387 129.78 153.304 129.449 153.304C129.119 153.304 128.815 153.387 128.537 153.552C128.265 153.717 128.047 153.939 127.881 154.216C127.716 154.488 127.633 154.789 127.633 155.12C127.633 155.451 127.716 155.755 127.881 156.032C128.047 156.304 128.265 156.523 128.537 156.688C128.815 156.853 129.119 156.936 129.449 156.936ZM144.354 164V152.48H147.85C147.973 152.48 148.181 152.483 148.474 152.488C148.773 152.493 149.058 152.515 149.33 152.552C150.205 152.675 150.936 153 151.522 153.528C152.109 154.056 152.549 154.728 152.842 155.544C153.136 156.36 153.282 157.259 153.282 158.24C153.282 159.221 153.136 160.12 152.842 160.936C152.549 161.752 152.109 162.424 151.522 162.952C150.936 163.48 150.205 163.805 149.33 163.928C149.064 163.96 148.778 163.981 148.474 163.992C148.17 163.997 147.962 164 147.85 164H144.354ZM145.57 162.872H147.85C148.069 162.872 148.304 162.867 148.554 162.856C148.81 162.84 149.029 162.813 149.21 162.776C149.882 162.659 150.424 162.387 150.834 161.96C151.25 161.533 151.554 161 151.746 160.36C151.938 159.715 152.034 159.008 152.034 158.24C152.034 157.467 151.938 156.757 151.746 156.112C151.554 155.467 151.25 154.933 150.834 154.512C150.418 154.091 149.877 153.821 149.21 153.704C149.029 153.667 148.808 153.643 148.546 153.632C148.29 153.616 148.058 153.608 147.85 153.608H145.57V162.872ZM155.104 164V155.36H156.16V157.44L155.952 157.168C156.048 156.912 156.174 156.677 156.328 156.464C156.483 156.245 156.651 156.067 156.832 155.928C157.056 155.731 157.318 155.581 157.616 155.48C157.915 155.373 158.216 155.312 158.52 155.296C158.824 155.275 159.102 155.296 159.352 155.36V156.464C159.038 156.384 158.694 156.365 158.32 156.408C157.947 156.451 157.603 156.6 157.288 156.856C157 157.08 156.784 157.349 156.64 157.664C156.496 157.973 156.4 158.304 156.352 158.656C156.304 159.003 156.28 159.347 156.28 159.688V164H155.104ZM163.014 164.24C162.363 164.24 161.817 164.123 161.374 163.888C160.937 163.653 160.609 163.341 160.39 162.952C160.171 162.563 160.062 162.139 160.062 161.68C160.062 161.211 160.155 160.811 160.342 160.48C160.534 160.144 160.793 159.869 161.118 159.656C161.449 159.443 161.83 159.28 162.262 159.168C162.699 159.061 163.182 158.968 163.71 158.888C164.243 158.803 164.763 158.731 165.27 158.672C165.782 158.608 166.23 158.547 166.614 158.488L166.198 158.744C166.214 157.891 166.049 157.259 165.702 156.848C165.355 156.437 164.753 156.232 163.894 156.232C163.302 156.232 162.801 156.365 162.39 156.632C161.985 156.899 161.699 157.32 161.534 157.896L160.39 157.56C160.587 156.787 160.985 156.187 161.582 155.76C162.179 155.333 162.955 155.12 163.91 155.12C164.699 155.12 165.369 155.269 165.918 155.568C166.473 155.861 166.865 156.288 167.094 156.848C167.201 157.099 167.27 157.379 167.302 157.688C167.334 157.997 167.35 158.312 167.35 158.632V164H166.302V161.832L166.606 161.96C166.313 162.701 165.857 163.267 165.238 163.656C164.619 164.045 163.878 164.24 163.014 164.24ZM163.15 163.224C163.699 163.224 164.179 163.125 164.59 162.928C165.001 162.731 165.331 162.461 165.582 162.12C165.833 161.773 165.995 161.384 166.07 160.952C166.134 160.675 166.169 160.371 166.174 160.04C166.179 159.704 166.182 159.453 166.182 159.288L166.63 159.52C166.23 159.573 165.795 159.627 165.326 159.68C164.862 159.733 164.403 159.795 163.95 159.864C163.502 159.933 163.097 160.016 162.734 160.112C162.489 160.181 162.251 160.28 162.022 160.408C161.793 160.531 161.603 160.696 161.454 160.904C161.31 161.112 161.238 161.371 161.238 161.68C161.238 161.931 161.299 162.173 161.422 162.408C161.55 162.643 161.753 162.837 162.03 162.992C162.313 163.147 162.686 163.224 163.15 163.224ZM170.96 164L168.32 155.352L169.496 155.36L171.544 162.072L173.6 155.36H174.672L176.728 162.072L178.792 155.36H179.96L177.32 164H176.296L174.136 157.12L171.984 164H170.96ZM184.441 164.24C183.635 164.24 182.947 164.04 182.377 163.64C181.806 163.235 181.369 162.688 181.065 162C180.761 161.312 180.609 160.536 180.609 159.672C180.609 158.813 180.758 158.04 181.057 157.352C181.361 156.664 181.795 156.12 182.361 155.72C182.926 155.32 183.603 155.12 184.393 155.12C185.203 155.12 185.886 155.317 186.441 155.712C186.995 156.107 187.414 156.648 187.697 157.336C187.985 158.019 188.129 158.797 188.129 159.672C188.129 160.531 187.987 161.307 187.705 162C187.422 162.688 187.006 163.235 186.457 163.64C185.907 164.04 185.235 164.24 184.441 164.24ZM184.561 163.144C185.174 163.144 185.681 162.995 186.081 162.696C186.481 162.397 186.779 161.987 186.977 161.464C187.174 160.936 187.273 160.339 187.273 159.672C187.273 158.995 187.174 158.397 186.977 157.88C186.779 157.357 186.481 156.949 186.081 156.656C185.686 156.363 185.187 156.216 184.585 156.216C183.966 156.216 183.454 156.368 183.049 156.672C182.643 156.976 182.342 157.389 182.145 157.912C181.953 158.435 181.857 159.021 181.857 159.672C181.857 160.328 181.955 160.92 182.153 161.448C182.355 161.971 182.657 162.384 183.057 162.688C183.457 162.992 183.958 163.144 184.561 163.144ZM187.273 164V157.496H187.145V152.48H188.329V164H187.273ZM194.181 164.24C193.322 164.24 192.589 164.045 191.981 163.656C191.373 163.267 190.906 162.728 190.581 162.04C190.256 161.352 190.093 160.563 190.093 159.672C190.093 158.765 190.258 157.971 190.589 157.288C190.92 156.605 191.389 156.075 191.997 155.696C192.61 155.312 193.338 155.12 194.181 155.12C195.045 155.12 195.781 155.315 196.389 155.704C197.002 156.088 197.469 156.624 197.789 157.312C198.114 157.995 198.277 158.781 198.277 159.672C198.277 160.579 198.114 161.376 197.789 162.064C197.464 162.747 196.994 163.28 196.381 163.664C195.768 164.048 195.034 164.24 194.181 164.24ZM194.181 163.112C195.141 163.112 195.856 162.795 196.325 162.16C196.794 161.52 197.029 160.691 197.029 159.672C197.029 158.627 196.792 157.795 196.317 157.176C195.848 156.557 195.136 156.248 194.181 156.248C193.536 156.248 193.002 156.395 192.581 156.688C192.165 156.976 191.853 157.379 191.645 157.896C191.442 158.408 191.341 159 191.341 159.672C191.341 160.712 191.581 161.547 192.061 162.176C192.541 162.8 193.248 163.112 194.181 163.112ZM201.569 164L198.929 155.352L200.105 155.36L202.153 162.072L204.209 155.36H205.281L207.337 162.072L209.401 155.36H210.569L207.929 164H206.905L204.745 157.12L202.593 164H201.569ZM218.251 164V159.592C218.251 159.112 218.205 158.672 218.115 158.272C218.024 157.867 217.877 157.515 217.675 157.216C217.477 156.912 217.219 156.677 216.899 156.512C216.584 156.347 216.2 156.264 215.747 156.264C215.331 156.264 214.963 156.336 214.643 156.48C214.328 156.624 214.061 156.832 213.843 157.104C213.629 157.371 213.467 157.696 213.355 158.08C213.243 158.464 213.187 158.901 213.187 159.392L212.355 159.208C212.355 158.323 212.509 157.579 212.819 156.976C213.128 156.373 213.555 155.917 214.099 155.608C214.643 155.299 215.267 155.144 215.971 155.144C216.488 155.144 216.939 155.224 217.323 155.384C217.712 155.544 218.04 155.76 218.307 156.032C218.579 156.304 218.797 156.616 218.963 156.968C219.128 157.315 219.248 157.685 219.323 158.08C219.397 158.469 219.435 158.859 219.435 159.248V164H218.251ZM212.003 164V155.36H213.067V157.488H213.187V164H212.003Z" fill="#0B0528"/>
<path d="M112 226C112 212.745 122.745 202 136 202H283C296.255 202 307 212.745 307 226V285C307 286.105 306.105 287 305 287H136C122.745 287 112 276.255 112 263V226Z" fill="white" fill-opacity="0.45"/>
<path d="M136.912 235V223.48H139.216V228.072H146.368V223.48H148.672V235H146.368V230.408H139.216V235H136.912ZM150.441 235V225.72H152.713V235H150.441ZM150.441 224.968V222.68H152.713V224.968H150.441ZM155.379 238.664V236.376H160.931C160.952 236.376 160.973 236.365 160.995 236.344C161.016 236.323 161.027 236.301 161.027 236.28V235H156.147C155.731 235 155.352 234.899 155.011 234.696C154.669 234.483 154.392 234.205 154.179 233.864C153.976 233.523 153.875 233.149 153.875 232.744V227.976C153.875 227.571 153.976 227.197 154.179 226.856C154.392 226.515 154.669 226.243 155.011 226.04C155.363 225.827 155.741 225.72 156.147 225.72H161.043C161.459 225.72 161.837 225.827 162.179 226.04C162.52 226.243 162.792 226.515 162.995 226.856C163.197 227.197 163.299 227.571 163.299 227.976V236.392C163.299 236.819 163.197 237.203 162.995 237.544C162.803 237.885 162.531 238.157 162.179 238.36C161.837 238.563 161.459 238.664 161.043 238.664H155.379ZM156.243 232.728H160.931C160.952 232.728 160.973 232.717 160.995 232.696C161.016 232.675 161.027 232.653 161.027 232.632V228.088C161.027 228.067 161.016 228.045 160.995 228.024C160.973 228.003 160.952 227.992 160.931 227.992H156.243C156.221 227.992 156.2 228.003 156.179 228.024C156.157 228.045 156.147 228.067 156.147 228.088V232.632C156.147 232.653 156.157 232.675 156.179 232.696C156.2 232.717 156.221 232.728 156.243 232.728ZM165.005 235V222.68H167.277V225.72H172.157C172.562 225.72 172.935 225.827 173.277 226.04C173.618 226.243 173.89 226.515 174.093 226.856C174.306 227.197 174.413 227.571 174.413 227.976V235H172.141V228.088C172.141 228.067 172.13 228.045 172.109 228.024C172.098 228.003 172.077 227.992 172.045 227.992H167.373C167.351 227.992 167.33 228.003 167.309 228.024C167.287 228.045 167.277 228.067 167.277 228.088V235H165.005Z" fill="#0B0528"/>
<path d="M140.632 265.24C139.912 265.24 139.275 265.096 138.72 264.808C138.171 264.52 137.739 264.117 137.424 263.6C137.115 263.077 136.96 262.467 136.96 261.768C136.96 261.053 137.133 260.419 137.48 259.864C137.827 259.304 138.355 258.88 139.064 258.592L139.048 259.056C138.456 258.837 138.005 258.48 137.696 257.984C137.387 257.488 137.232 256.939 137.232 256.336C137.232 255.696 137.379 255.147 137.672 254.688C137.965 254.224 138.365 253.867 138.872 253.616C139.384 253.365 139.971 253.24 140.632 253.24C141.293 253.24 141.88 253.365 142.392 253.616C142.904 253.867 143.307 254.224 143.6 254.688C143.893 255.147 144.04 255.696 144.04 256.336C144.04 256.939 143.891 257.485 143.592 257.976C143.299 258.467 142.848 258.827 142.24 259.056L142.2 258.592C142.909 258.875 143.44 259.296 143.792 259.856C144.149 260.416 144.328 261.053 144.328 261.768C144.328 262.467 144.171 263.077 143.856 263.6C143.541 264.117 143.107 264.52 142.552 264.808C141.997 265.096 141.357 265.24 140.632 265.24ZM140.632 264.112C141.357 264.112 141.947 263.912 142.4 263.512C142.853 263.107 143.08 262.525 143.08 261.768C143.08 261 142.856 260.419 142.408 260.024C141.96 259.624 141.368 259.424 140.632 259.424C139.896 259.424 139.307 259.624 138.864 260.024C138.421 260.419 138.2 261 138.2 261.768C138.2 262.525 138.424 263.107 138.872 263.512C139.32 263.912 139.907 264.112 140.632 264.112ZM140.632 258.288C141.272 258.288 141.792 258.125 142.192 257.8C142.592 257.469 142.792 256.981 142.792 256.336C142.792 255.691 142.592 255.208 142.192 254.888C141.792 254.563 141.272 254.4 140.632 254.4C139.992 254.4 139.472 254.563 139.072 254.888C138.677 255.208 138.48 255.691 138.48 256.336C138.48 256.981 138.677 257.469 139.072 257.8C139.472 258.125 139.992 258.288 140.632 258.288ZM150.161 265.24C149.452 265.24 148.812 265.075 148.241 264.744C147.676 264.413 147.228 263.965 146.897 263.4C146.567 262.829 146.401 262.189 146.401 261.48V257C146.401 256.291 146.567 255.653 146.897 255.088C147.228 254.517 147.676 254.067 148.241 253.736C148.812 253.405 149.452 253.24 150.161 253.24C150.871 253.24 151.508 253.405 152.073 253.736C152.644 254.067 153.095 254.517 153.425 255.088C153.756 255.653 153.921 256.291 153.921 257V261.48C153.921 262.189 153.756 262.829 153.425 263.4C153.095 263.965 152.644 264.413 152.073 264.744C151.508 265.075 150.871 265.24 150.161 265.24ZM150.161 264.104C150.636 264.104 151.068 263.989 151.457 263.76C151.847 263.525 152.156 263.213 152.385 262.824C152.615 262.435 152.729 262.005 152.729 261.536V256.944C152.729 256.469 152.615 256.037 152.385 255.648C152.156 255.259 151.847 254.949 151.457 254.72C151.068 254.485 150.636 254.368 150.161 254.368C149.687 254.368 149.255 254.485 148.865 254.72C148.476 254.949 148.167 255.259 147.937 255.648C147.708 256.037 147.593 256.469 147.593 256.944V261.536C147.593 262.005 147.708 262.435 147.937 262.824C148.167 263.213 148.476 263.525 148.865 263.76C149.255 263.989 149.687 264.104 150.161 264.104ZM156.007 259.744V258.736H160.807V259.744H156.007ZM164.894 265V254.792L162.726 256.096V254.776L164.894 253.48H166.086V265H164.894ZM172.88 265.24C172.171 265.24 171.531 265.075 170.96 264.744C170.395 264.413 169.947 263.965 169.616 263.4C169.285 262.829 169.12 262.189 169.12 261.48V257C169.12 256.291 169.285 255.653 169.616 255.088C169.947 254.517 170.395 254.067 170.96 253.736C171.531 253.405 172.171 253.24 172.88 253.24C173.589 253.24 174.227 253.405 174.792 253.736C175.363 254.067 175.813 254.517 176.144 255.088C176.475 255.653 176.64 256.291 176.64 257V261.48C176.64 262.189 176.475 262.829 176.144 263.4C175.813 263.965 175.363 264.413 174.792 264.744C174.227 265.075 173.589 265.24 172.88 265.24ZM172.88 264.104C173.355 264.104 173.787 263.989 174.176 263.76C174.565 263.525 174.875 263.213 175.104 262.824C175.333 262.435 175.448 262.005 175.448 261.536V256.944C175.448 256.469 175.333 256.037 175.104 255.648C174.875 255.259 174.565 254.949 174.176 254.72C173.787 254.485 173.355 254.368 172.88 254.368C172.405 254.368 171.973 254.485 171.584 254.72C171.195 254.949 170.885 255.259 170.656 255.648C170.427 256.037 170.312 256.469 170.312 256.944V261.536C170.312 262.005 170.427 262.435 170.656 262.824C170.885 263.213 171.195 263.525 171.584 263.76C171.973 263.989 172.405 264.104 172.88 264.104ZM182.646 265.24C181.936 265.24 181.296 265.075 180.726 264.744C180.16 264.413 179.712 263.965 179.382 263.4C179.051 262.829 178.886 262.189 178.886 261.48V257C178.886 256.291 179.051 255.653 179.382 255.088C179.712 254.517 180.16 254.067 180.726 253.736C181.296 253.405 181.936 253.24 182.646 253.24C183.355 253.24 183.992 253.405 184.558 253.736C185.128 254.067 185.579 254.517 185.91 255.088C186.24 255.653 186.406 256.291 186.406 257V261.48C186.406 262.189 186.24 262.829 185.91 263.4C185.579 263.965 185.128 264.413 184.558 264.744C183.992 265.075 183.355 265.24 182.646 265.24ZM182.646 264.104C183.12 264.104 183.552 263.989 183.942 263.76C184.331 263.525 184.64 263.213 184.87 262.824C185.099 262.435 185.214 262.005 185.214 261.536V256.944C185.214 256.469 185.099 256.037 184.87 255.648C184.64 255.259 184.331 254.949 183.942 254.72C183.552 254.485 183.12 254.368 182.646 254.368C182.171 254.368 181.739 254.485 181.35 254.72C180.96 254.949 180.651 255.259 180.422 255.648C180.192 256.037 180.078 256.469 180.078 256.944V261.536C180.078 262.005 180.192 262.435 180.422 262.824C180.651 263.213 180.96 263.525 181.35 263.76C181.739 263.989 182.171 264.104 182.646 264.104ZM189.771 265L188.971 264.2L199.715 253.48L200.515 254.272L189.771 265ZM198.115 265.24C197.587 265.24 197.105 265.112 196.667 264.856C196.235 264.595 195.889 264.248 195.627 263.816C195.366 263.379 195.235 262.893 195.235 262.36C195.235 261.837 195.369 261.357 195.635 260.92C195.902 260.483 196.254 260.133 196.691 259.872C197.129 259.611 197.603 259.48 198.115 259.48C198.643 259.48 199.126 259.611 199.563 259.872C200.001 260.128 200.347 260.475 200.603 260.912C200.865 261.344 200.995 261.827 200.995 262.36C200.995 262.893 200.865 263.379 200.603 263.816C200.347 264.248 200.001 264.595 199.563 264.856C199.126 265.112 198.643 265.24 198.115 265.24ZM198.115 264.176C198.441 264.176 198.742 264.093 199.019 263.928C199.297 263.763 199.518 263.544 199.683 263.272C199.849 262.995 199.931 262.691 199.931 262.36C199.931 262.029 199.849 261.728 199.683 261.456C199.518 261.179 199.297 260.957 199.019 260.792C198.742 260.627 198.441 260.544 198.115 260.544C197.785 260.544 197.481 260.627 197.203 260.792C196.931 260.957 196.71 261.179 196.539 261.456C196.374 261.728 196.291 262.029 196.291 262.36C196.291 262.691 196.374 262.995 196.539 263.272C196.71 263.544 196.931 263.763 197.203 263.928C197.481 264.093 197.785 264.176 198.115 264.176ZM191.371 259C190.843 259 190.361 258.872 189.923 258.616C189.486 258.355 189.137 258.008 188.875 257.576C188.619 257.139 188.491 256.653 188.491 256.12C188.491 255.597 188.625 255.117 188.891 254.68C189.158 254.243 189.51 253.893 189.947 253.632C190.385 253.371 190.859 253.24 191.371 253.24C191.899 253.24 192.379 253.371 192.811 253.632C193.249 253.888 193.598 254.235 193.859 254.672C194.121 255.104 194.251 255.587 194.251 256.12C194.251 256.653 194.121 257.139 193.859 257.576C193.598 258.008 193.249 258.355 192.811 258.616C192.379 258.872 191.899 259 191.371 259ZM191.371 257.936C191.702 257.936 192.003 257.853 192.275 257.688C192.553 257.523 192.774 257.304 192.939 257.032C193.105 256.755 193.187 256.451 193.187 256.12C193.187 255.789 193.105 255.488 192.939 255.216C192.774 254.939 192.553 254.717 192.275 254.552C192.003 254.387 191.702 254.304 191.371 254.304C191.041 254.304 190.737 254.387 190.459 254.552C190.187 254.717 189.969 254.939 189.803 255.216C189.638 255.488 189.555 255.789 189.555 256.12C189.555 256.451 189.638 256.755 189.803 257.032C189.969 257.304 190.187 257.523 190.459 257.688C190.737 257.853 191.041 257.936 191.371 257.936ZM206.276 265V253.48H209.772C209.895 253.48 210.103 253.483 210.396 253.488C210.695 253.493 210.98 253.515 211.252 253.552C212.127 253.675 212.858 254 213.444 254.528C214.031 255.056 214.471 255.728 214.764 256.544C215.058 257.36 215.204 258.259 215.204 259.24C215.204 260.221 215.058 261.12 214.764 261.936C214.471 262.752 214.031 263.424 213.444 263.952C212.858 264.48 212.127 264.805 211.252 264.928C210.986 264.96 210.7 264.981 210.396 264.992C210.092 264.997 209.884 265 209.772 265H206.276ZM207.492 263.872H209.772C209.991 263.872 210.226 263.867 210.476 263.856C210.732 263.84 210.951 263.813 211.132 263.776C211.804 263.659 212.346 263.387 212.756 262.96C213.172 262.533 213.476 262 213.668 261.36C213.86 260.715 213.956 260.008 213.956 259.24C213.956 258.467 213.86 257.757 213.668 257.112C213.476 256.467 213.172 255.933 212.756 255.512C212.34 255.091 211.799 254.821 211.132 254.704C210.951 254.667 210.73 254.643 210.468 254.632C210.212 254.616 209.98 254.608 209.772 254.608H207.492V263.872ZM217.026 265V256.36H218.082V258.44L217.874 258.168C217.97 257.912 218.096 257.677 218.25 257.464C218.405 257.245 218.573 257.067 218.754 256.928C218.978 256.731 219.24 256.581 219.538 256.48C219.837 256.373 220.138 256.312 220.442 256.296C220.746 256.275 221.024 256.296 221.274 256.36V257.464C220.96 257.384 220.616 257.365 220.242 257.408C219.869 257.451 219.525 257.6 219.21 257.856C218.922 258.08 218.706 258.349 218.562 258.664C218.418 258.973 218.322 259.304 218.274 259.656C218.226 260.003 218.202 260.347 218.202 260.688V265H217.026ZM224.936 265.24C224.285 265.24 223.738 265.123 223.296 264.888C222.858 264.653 222.53 264.341 222.312 263.952C222.093 263.563 221.984 263.139 221.984 262.68C221.984 262.211 222.077 261.811 222.264 261.48C222.456 261.144 222.714 260.869 223.04 260.656C223.37 260.443 223.752 260.28 224.184 260.168C224.621 260.061 225.104 259.968 225.632 259.888C226.165 259.803 226.685 259.731 227.192 259.672C227.704 259.608 228.152 259.547 228.536 259.488L228.12 259.744C228.136 258.891 227.97 258.259 227.624 257.848C227.277 257.437 226.674 257.232 225.816 257.232C225.224 257.232 224.722 257.365 224.312 257.632C223.906 257.899 223.621 258.32 223.456 258.896L222.312 258.56C222.509 257.787 222.906 257.187 223.504 256.76C224.101 256.333 224.877 256.12 225.832 256.12C226.621 256.12 227.29 256.269 227.84 256.568C228.394 256.861 228.786 257.288 229.016 257.848C229.122 258.099 229.192 258.379 229.224 258.688C229.256 258.997 229.272 259.312 229.272 259.632V265H228.224V262.832L228.528 262.96C228.234 263.701 227.778 264.267 227.16 264.656C226.541 265.045 225.8 265.24 224.936 265.24ZM225.072 264.224C225.621 264.224 226.101 264.125 226.512 263.928C226.922 263.731 227.253 263.461 227.504 263.12C227.754 262.773 227.917 262.384 227.992 261.952C228.056 261.675 228.09 261.371 228.096 261.04C228.101 260.704 228.104 260.453 228.104 260.288L228.552 260.52C228.152 260.573 227.717 260.627 227.248 260.68C226.784 260.733 226.325 260.795 225.872 260.864C225.424 260.933 225.018 261.016 224.656 261.112C224.41 261.181 224.173 261.28 223.944 261.408C223.714 261.531 223.525 261.696 223.376 261.904C223.232 262.112 223.16 262.371 223.16 262.68C223.16 262.931 223.221 263.173 223.344 263.408C223.472 263.643 223.674 263.837 223.952 263.992C224.234 264.147 224.608 264.224 225.072 264.224ZM232.882 265L230.242 256.352L231.418 256.36L233.466 263.072L235.522 256.36H236.594L238.65 263.072L240.714 256.36H241.882L239.242 265H238.218L236.058 258.12L233.906 265H232.882ZM246.363 265.24C245.557 265.24 244.869 265.04 244.299 264.64C243.728 264.235 243.291 263.688 242.987 263C242.683 262.312 242.531 261.536 242.531 260.672C242.531 259.813 242.68 259.04 242.979 258.352C243.283 257.664 243.717 257.12 244.283 256.72C244.848 256.32 245.525 256.12 246.315 256.12C247.125 256.12 247.808 256.317 248.363 256.712C248.917 257.107 249.336 257.648 249.619 258.336C249.907 259.019 250.051 259.797 250.051 260.672C250.051 261.531 249.909 262.307 249.627 263C249.344 263.688 248.928 264.235 248.379 264.64C247.829 265.04 247.157 265.24 246.363 265.24ZM246.483 264.144C247.096 264.144 247.603 263.995 248.003 263.696C248.403 263.397 248.701 262.987 248.899 262.464C249.096 261.936 249.195 261.339 249.195 260.672C249.195 259.995 249.096 259.397 248.899 258.88C248.701 258.357 248.403 257.949 248.003 257.656C247.608 257.363 247.109 257.216 246.507 257.216C245.888 257.216 245.376 257.368 244.971 257.672C244.565 257.976 244.264 258.389 244.067 258.912C243.875 259.435 243.779 260.021 243.779 260.672C243.779 261.328 243.877 261.92 244.075 262.448C244.277 262.971 244.579 263.384 244.979 263.688C245.379 263.992 245.88 264.144 246.483 264.144ZM249.195 265V258.496H249.067V253.48H250.251V265H249.195ZM256.103 265.24C255.244 265.24 254.511 265.045 253.903 264.656C253.295 264.267 252.828 263.728 252.503 263.04C252.178 262.352 252.015 261.563 252.015 260.672C252.015 259.765 252.18 258.971 252.511 258.288C252.842 257.605 253.311 257.075 253.919 256.696C254.532 256.312 255.26 256.12 256.103 256.12C256.967 256.12 257.703 256.315 258.311 256.704C258.924 257.088 259.391 257.624 259.711 258.312C260.036 258.995 260.199 259.781 260.199 260.672C260.199 261.579 260.036 262.376 259.711 263.064C259.386 263.747 258.916 264.28 258.303 264.664C257.69 265.048 256.956 265.24 256.103 265.24ZM256.103 264.112C257.063 264.112 257.778 263.795 258.247 263.16C258.716 262.52 258.951 261.691 258.951 260.672C258.951 259.627 258.714 258.795 258.239 258.176C257.77 257.557 257.058 257.248 256.103 257.248C255.458 257.248 254.924 257.395 254.503 257.688C254.087 257.976 253.775 258.379 253.567 258.896C253.364 259.408 253.263 260 253.263 260.672C253.263 261.712 253.503 262.547 253.983 263.176C254.463 263.8 255.17 264.112 256.103 264.112ZM263.491 265L260.851 256.352L262.027 256.36L264.075 263.072L266.131 256.36H267.203L269.259 263.072L271.323 256.36H272.491L269.851 265H268.827L266.667 258.12L264.515 265H263.491ZM280.173 265V260.592C280.173 260.112 280.127 259.672 280.037 259.272C279.946 258.867 279.799 258.515 279.597 258.216C279.399 257.912 279.141 257.677 278.821 257.512C278.506 257.347 278.122 257.264 277.669 257.264C277.253 257.264 276.885 257.336 276.565 257.48C276.25 257.624 275.983 257.832 275.765 258.104C275.551 258.371 275.389 258.696 275.277 259.08C275.165 259.464 275.109 259.901 275.109 260.392L274.277 260.208C274.277 259.323 274.431 258.579 274.741 257.976C275.05 257.373 275.477 256.917 276.021 256.608C276.565 256.299 277.189 256.144 277.893 256.144C278.41 256.144 278.861 256.224 279.245 256.384C279.634 256.544 279.962 256.76 280.229 257.032C280.501 257.304 280.719 257.616 280.885 257.968C281.05 258.315 281.17 258.685 281.245 259.08C281.319 259.469 281.357 259.859 281.357 260.248V265H280.173ZM273.925 265V256.36H274.989V258.488H275.109V265H273.925Z" fill="#0B0528"/>
<defs>
<linearGradient id="paint0_linear_32171_13794" x1="423" y1="349" x2="144.5" y2="71.5" gradientUnits="userSpaceOnUse">
<stop stop-color="#17EC20" stop-opacity="0"/>
<stop offset="1" stop-color="#17EC20"/>
</linearGradient>
<linearGradient id="paint1_linear_32171_13794" x1="433" y1="360" x2="229" y2="156" gradientUnits="userSpaceOnUse">
<stop stop-color="#17EC20" stop-opacity="0"/>
<stop offset="1" stop-color="#17EC20"/>
</linearGradient>
<linearGradient id="paint2_linear_32171_13794" x1="420" y1="354.5" x2="301" y2="256.5" gradientUnits="userSpaceOnUse">
<stop stop-color="#17EC20" stop-opacity="0"/>
<stop offset="1" stop-color="#17EC20"/>
</linearGradient>
</defs>
</svg>
