<svg width="433" height="360" viewBox="0 0 433 360" fill="none" xmlns="http://www.w3.org/2000/svg">
<path d="M325 15C362.861 15 399.21 21.4736 433 33.375V360H0.607422C0.205812 353.385 0 346.716 0 340C0 160.507 145.507 15 325 15Z" fill="url(#paint0_linear_32171_16019)"/>
<path d="M325 131C364.522 131 401.481 141.97 433 161.031V360H116.944C116.319 353.418 116 346.746 116 340C116 224.572 209.572 131 325 131Z" fill="url(#paint1_linear_32171_16019)"/>
<path d="M333.5 250C388.452 250 433 294.548 433 349.5C433 353.046 432.813 356.549 432.451 360H234.549C234.187 356.549 234 353.046 234 349.5C234 294.548 278.548 250 333.5 250Z" fill="url(#paint2_linear_32171_16019)"/>
<rect x="361" width="32" height="32" rx="16" fill="white" fill-opacity="0.1"/>
<path d="M377.244 22.5V14.372L376.54 15.252H373.516L377.1 10.98H379.532V22.5H377.244Z" fill="white"/>
<rect x="361" y="48" width="32" height="32" rx="16" fill="white" fill-opacity="0.2"/>
<path d="M370.912 70.5V66.052C370.912 65.636 371.013 65.2573 371.216 64.916C371.429 64.5747 371.707 64.3027 372.048 64.1C372.389 63.8973 372.768 63.796 373.184 63.796H379.904C379.925 63.796 379.947 63.7853 379.968 63.764C379.989 63.7427 380 63.7213 380 63.7V61.348C380 61.3267 379.989 61.3053 379.968 61.284C379.947 61.2627 379.925 61.252 379.904 61.252H373.28C373.259 61.252 373.237 61.2627 373.216 61.284C373.195 61.3053 373.184 61.3267 373.184 61.348V62.212H370.912V61.236C370.912 60.82 371.013 60.4413 371.216 60.1C371.429 59.7587 371.707 59.4867 372.048 59.284C372.389 59.0813 372.768 58.98 373.184 58.98H380C380.405 58.98 380.779 59.0813 381.12 59.284C381.472 59.4867 381.749 59.7587 381.952 60.1C382.165 60.4413 382.272 60.82 382.272 61.236V63.812C382.272 64.228 382.165 64.6067 381.952 64.948C381.749 65.2893 381.472 65.5667 381.12 65.78C380.779 65.9827 380.405 66.084 380 66.084H373.28C373.259 66.084 373.237 66.0947 373.216 66.116C373.195 66.1373 373.184 66.1587 373.184 66.18V68.132C373.184 68.1533 373.195 68.1747 373.216 68.196C373.237 68.2173 373.259 68.228 373.28 68.228H382.272V70.5H370.912Z" fill="white"/>
<rect x="361" y="96" width="32" height="32" rx="16" fill="white" fill-opacity="0.3"/>
<path d="M373.12 118.5C372.704 118.5 372.325 118.399 371.984 118.196C371.643 117.983 371.365 117.705 371.152 117.364C370.949 117.023 370.848 116.649 370.848 116.244V115.444H373.136V116.132C373.136 116.153 373.141 116.175 373.152 116.196C373.173 116.217 373.195 116.228 373.216 116.228H379.84C379.861 116.228 379.883 116.217 379.904 116.196C379.925 116.175 379.936 116.153 379.936 116.132V113.924C379.936 113.892 379.925 113.871 379.904 113.86C379.883 113.839 379.861 113.828 379.84 113.828H372.784V111.54H379.392C379.424 111.54 379.445 111.535 379.456 111.524C379.477 111.503 379.488 111.481 379.488 111.46V109.348C379.488 109.327 379.477 109.305 379.456 109.284C379.445 109.263 379.424 109.252 379.392 109.252H373.216C373.195 109.252 373.173 109.263 373.152 109.284C373.141 109.305 373.136 109.327 373.136 109.348V110.18H370.848V109.236C370.848 108.82 370.949 108.441 371.152 108.1C371.365 107.759 371.643 107.487 371.984 107.284C372.325 107.081 372.704 106.98 373.12 106.98H379.504C379.92 106.98 380.299 107.081 380.64 107.284C380.981 107.487 381.253 107.759 381.456 108.1C381.659 108.441 381.76 108.82 381.76 109.236V111.556C381.76 111.684 381.749 111.817 381.728 111.956C381.717 112.084 381.691 112.201 381.648 112.308C381.829 112.511 381.968 112.745 382.064 113.012C382.16 113.268 382.208 113.535 382.208 113.812V116.244C382.208 116.649 382.107 117.023 381.904 117.364C381.701 117.705 381.424 117.983 381.072 118.196C380.731 118.399 380.357 118.5 379.952 118.5H373.12Z" fill="white"/>
<rect x="361" y="144" width="32" height="32" rx="16" fill="white" fill-opacity="0.4"/>
<path d="M378.168 166.5V163.62H371.096V161.54L378.36 154.98H380.44V161.332H382.008V163.62H380.44V166.5H378.168ZM374.744 161.332H378.168V158.5L374.744 161.332Z" fill="#0B0528"/>
<rect x="361" y="192" width="32" height="32" rx="16" fill="white" fill-opacity="0.5"/>
<path d="M373.184 214.5C372.768 214.5 372.389 214.399 372.048 214.196C371.707 213.983 371.429 213.705 371.216 213.364C371.013 213.023 370.912 212.649 370.912 212.244V211.412H373.184V212.132C373.184 212.153 373.195 212.175 373.216 212.196C373.237 212.217 373.259 212.228 373.28 212.228H379.904C379.925 212.228 379.947 212.217 379.968 212.196C379.989 212.175 380 212.153 380 212.132V209.892C380 209.86 379.989 209.839 379.968 209.828C379.947 209.807 379.925 209.796 379.904 209.796H370.912V202.98H382.272V205.252H373.28C373.259 205.252 373.237 205.263 373.216 205.284C373.195 205.305 373.184 205.327 373.184 205.348V207.412C373.184 207.433 373.195 207.455 373.216 207.476C373.237 207.487 373.259 207.492 373.28 207.492H380C380.405 207.492 380.779 207.593 381.12 207.796C381.472 207.999 381.749 208.276 381.952 208.628C382.165 208.969 382.272 209.348 382.272 209.764V212.244C382.272 212.649 382.165 213.023 381.952 213.364C381.749 213.705 381.472 213.983 381.12 214.196C380.779 214.399 380.405 214.5 380 214.5H373.184Z" fill="#0B0528"/>
<rect x="361" y="240" width="32" height="32" rx="16" fill="white" fill-opacity="0.6"/>
<path d="M373.184 262.5C372.768 262.5 372.389 262.399 372.048 262.196C371.707 261.983 371.429 261.705 371.216 261.364C371.013 261.023 370.912 260.649 370.912 260.244V253.236C370.912 252.82 371.013 252.441 371.216 252.1C371.429 251.759 371.707 251.487 372.048 251.284C372.389 251.081 372.768 250.98 373.184 250.98H380.48V253.252H373.28C373.259 253.252 373.237 253.263 373.216 253.284C373.195 253.305 373.184 253.327 373.184 253.348V255.396C373.184 255.417 373.195 255.439 373.216 255.46C373.237 255.481 373.259 255.492 373.28 255.492H380C380.405 255.492 380.779 255.593 381.12 255.796C381.472 255.999 381.749 256.271 381.952 256.612C382.165 256.953 382.272 257.332 382.272 257.748V260.244C382.272 260.649 382.165 261.023 381.952 261.364C381.749 261.705 381.472 261.983 381.12 262.196C380.779 262.399 380.405 262.5 380 262.5H373.184ZM373.28 260.228H379.904C379.925 260.228 379.947 260.217 379.968 260.196C379.989 260.175 380 260.153 380 260.132V257.876C380 257.855 379.989 257.833 379.968 257.812C379.947 257.791 379.925 257.78 379.904 257.78H373.184V260.132C373.184 260.153 373.195 260.175 373.216 260.196C373.237 260.217 373.259 260.228 373.28 260.228Z" fill="#0B0528"/>
<rect x="361" y="288" width="32" height="32" rx="16" fill="white" fill-opacity="0.7"/>
<path d="M378.844 310.5V301.332C378.844 301.311 378.833 301.295 378.812 301.284C378.801 301.263 378.78 301.252 378.748 301.252H371.548V298.964H378.86C379.276 298.964 379.655 299.065 379.996 299.268C380.337 299.471 380.609 299.743 380.812 300.084C381.015 300.425 381.116 300.809 381.116 301.236V310.5H378.844Z" fill="#0B0528"/>
<path d="M0 24C0 10.7452 10.7452 0 24 0H132C145.255 0 156 10.7452 156 24V83C156 84.1046 155.105 85 154 85H24C10.7452 85 0 74.2548 0 61V24Z" fill="white" fill-opacity="0.15"/>
<path d="M24.896 33V21.48H27.344L34.08 29.512V21.48H36.416V33H33.968L27.2 24.936V33H24.896ZM38.1445 33V23.72H40.4165V33H38.1445ZM38.1445 22.968V20.68H40.4165V22.968H38.1445ZM44.4928 33C44.0874 33 43.7141 32.8987 43.3728 32.696C43.0314 32.4827 42.7541 32.2053 42.5408 31.864C42.3381 31.5227 42.2368 31.1493 42.2368 30.744V30.328H44.5088V30.632C44.5088 30.6533 44.5194 30.6747 44.5408 30.696C44.5621 30.7173 44.5834 30.728 44.6048 30.728H49.2768C49.2981 30.728 49.3194 30.7173 49.3408 30.696C49.3621 30.6747 49.3728 30.6533 49.3728 30.632V29.592C49.3728 29.5707 49.3621 29.5547 49.3408 29.544C49.3194 29.5227 49.2981 29.512 49.2768 29.512H44.4928C44.0874 29.512 43.7141 29.4107 43.3728 29.208C43.0314 28.9947 42.7541 28.7173 42.5408 28.376C42.3381 28.0347 42.2368 27.656 42.2368 27.24V25.976C42.2368 25.5707 42.3381 25.1973 42.5408 24.856C42.7541 24.5147 43.0314 24.2427 43.3728 24.04C43.7141 23.8267 44.0874 23.72 44.4928 23.72H49.3888C49.8048 23.72 50.1834 23.8267 50.5248 24.04C50.8661 24.2427 51.1381 24.5147 51.3408 24.856C51.5541 25.1973 51.6608 25.5707 51.6608 25.976V26.392H49.3728V26.088C49.3728 26.0667 49.3621 26.0453 49.3408 26.024C49.3194 26.0027 49.2981 25.992 49.2768 25.992H44.6048C44.5834 25.992 44.5621 26.0027 44.5408 26.024C44.5194 26.0453 44.5088 26.0667 44.5088 26.088V27.128C44.5088 27.1493 44.5194 27.1707 44.5408 27.192C44.5621 27.2027 44.5834 27.208 44.6048 27.208H49.3888C49.8048 27.208 50.1834 27.3147 50.5248 27.528C50.8661 27.7307 51.1381 28.0027 51.3408 28.344C51.5541 28.6853 51.6608 29.064 51.6608 29.48V30.744C51.6608 31.1493 51.5541 31.5227 51.3408 31.864C51.1381 32.2053 50.8661 32.4827 50.5248 32.696C50.1834 32.8987 49.8048 33 49.3888 33H44.4928ZM52.9265 33V20.68H55.1985V27.208H56.6545L59.8705 23.72H62.2225V24.424L58.6545 28.36L62.2225 32.296V33H59.8705L56.6545 29.512H55.1985V33H52.9265ZM63.3789 33V23.72H65.6509V33H63.3789ZM63.3789 22.968V20.68H65.6509V22.968H63.3789Z" fill="white"/>
<path d="M28.52 63.24C27.9227 63.24 27.3707 63.1173 26.864 62.872C26.3573 62.6267 25.9253 62.288 25.568 61.856C25.2107 61.424 24.9547 60.928 24.8 60.368L25.928 60.064C26.0293 60.48 26.2133 60.84 26.48 61.144C26.7467 61.4427 27.0587 61.6747 27.416 61.84C27.7787 62.0053 28.1573 62.088 28.552 62.088C29.064 62.088 29.5227 61.9653 29.928 61.72C30.3387 61.4693 30.664 61.1387 30.904 60.728C31.144 60.3173 31.264 59.8667 31.264 59.376C31.264 58.8693 31.1387 58.4133 30.888 58.008C30.6373 57.5973 30.3067 57.272 29.896 57.032C29.4853 56.792 29.0373 56.672 28.552 56.672C28.008 56.672 27.5387 56.792 27.144 57.032C26.7493 57.2667 26.4347 57.5627 26.2 57.92L25.128 57.472L25.48 51.48H31.632V52.608H26L26.584 52.056L26.272 57.168L25.976 56.776C26.3067 56.3973 26.7067 56.1013 27.176 55.888C27.6453 55.6747 28.1387 55.568 28.656 55.568C29.3653 55.568 30.0053 55.7387 30.576 56.08C31.1467 56.416 31.6 56.872 31.936 57.448C32.272 58.024 32.44 58.6667 32.44 59.376C32.44 60.08 32.2613 60.7253 31.904 61.312C31.5467 61.8933 31.072 62.36 30.48 62.712C29.888 63.064 29.2347 63.24 28.52 63.24ZM34.1944 57.744V56.736H38.9944V57.744H34.1944ZM40.7531 62.992L40.7611 61.92L45.9691 57.216C46.4171 56.8107 46.7131 56.4267 46.8571 56.064C47.0065 55.696 47.0811 55.312 47.0811 54.912C47.0811 54.4373 46.9691 54.008 46.7451 53.624C46.5211 53.24 46.2198 52.936 45.8411 52.712C45.4625 52.4827 45.0385 52.368 44.5691 52.368C44.0785 52.368 43.6411 52.4853 43.2571 52.72C42.8731 52.9547 42.5691 53.264 42.3451 53.648C42.1265 54.032 42.0198 54.4507 42.0251 54.904H40.8251C40.8251 54.2053 40.9905 53.5787 41.3211 53.024C41.6518 52.4693 42.0998 52.0347 42.6651 51.72C43.2305 51.4 43.8705 51.24 44.5851 51.24C45.2838 51.24 45.9105 51.4053 46.4651 51.736C47.0251 52.0613 47.4651 52.504 47.7851 53.064C48.1105 53.6187 48.2731 54.2373 48.2731 54.92C48.2731 55.4 48.2145 55.824 48.0971 56.192C47.9851 56.5547 47.8065 56.8933 47.5611 57.208C47.3211 57.5173 47.0145 57.8373 46.6411 58.168L42.0171 62.344L41.8331 61.864H48.2731V62.992H40.7531ZM53.9581 63.24C53.2488 63.24 52.6088 63.0747 52.0381 62.744C51.4728 62.4133 51.0248 61.9653 50.6941 61.4C50.3635 60.8293 50.1981 60.1893 50.1981 59.48V55C50.1981 54.2907 50.3635 53.6533 50.6941 53.088C51.0248 52.5173 51.4728 52.0667 52.0381 51.736C52.6088 51.4053 53.2488 51.24 53.9581 51.24C54.6675 51.24 55.3048 51.4053 55.8701 51.736C56.4408 52.0667 56.8915 52.5173 57.2221 53.088C57.5528 53.6533 57.7181 54.2907 57.7181 55V59.48C57.7181 60.1893 57.5528 60.8293 57.2221 61.4C56.8915 61.9653 56.4408 62.4133 55.8701 62.744C55.3048 63.0747 54.6675 63.24 53.9581 63.24ZM53.9581 62.104C54.4328 62.104 54.8648 61.9893 55.2541 61.76C55.6435 61.5253 55.9528 61.2133 56.1821 60.824C56.4115 60.4347 56.5261 60.0053 56.5261 59.536V54.944C56.5261 54.4693 56.4115 54.0373 56.1821 53.648C55.9528 53.2587 55.6435 52.9493 55.2541 52.72C54.8648 52.4853 54.4328 52.368 53.9581 52.368C53.4835 52.368 53.0515 52.4853 52.6621 52.72C52.2728 52.9493 51.9635 53.2587 51.7341 53.648C51.5048 54.0373 51.3901 54.4693 51.3901 54.944V59.536C51.3901 60.0053 51.5048 60.4347 51.7341 60.824C51.9635 61.2133 52.2728 61.5253 52.6621 61.76C53.0515 61.9893 53.4835 62.104 53.9581 62.104ZM61.0838 63L60.2838 62.2L71.0278 51.48L71.8278 52.272L61.0838 63ZM69.4278 63.24C68.8998 63.24 68.4171 63.112 67.9798 62.856C67.5478 62.5947 67.2011 62.248 66.9398 61.816C66.6784 61.3787 66.5478 60.8933 66.5478 60.36C66.5478 59.8373 66.6811 59.3573 66.9478 58.92C67.2144 58.4827 67.5664 58.1333 68.0038 57.872C68.4411 57.6107 68.9158 57.48 69.4278 57.48C69.9558 57.48 70.4384 57.6107 70.8758 57.872C71.3131 58.128 71.6598 58.4747 71.9158 58.912C72.1771 59.344 72.3078 59.8267 72.3078 60.36C72.3078 60.8933 72.1771 61.3787 71.9158 61.816C71.6598 62.248 71.3131 62.5947 70.8758 62.856C70.4384 63.112 69.9558 63.24 69.4278 63.24ZM69.4278 62.176C69.7531 62.176 70.0544 62.0933 70.3318 61.928C70.6091 61.7627 70.8304 61.544 70.9958 61.272C71.1611 60.9947 71.2438 60.6907 71.2438 60.36C71.2438 60.0293 71.1611 59.728 70.9958 59.456C70.8304 59.1787 70.6091 58.9573 70.3318 58.792C70.0544 58.6267 69.7531 58.544 69.4278 58.544C69.0971 58.544 68.7931 58.6267 68.5158 58.792C68.2438 58.9573 68.0224 59.1787 67.8518 59.456C67.6864 59.728 67.6038 60.0293 67.6038 60.36C67.6038 60.6907 67.6864 60.9947 67.8518 61.272C68.0224 61.544 68.2438 61.7627 68.5158 61.928C68.7931 62.0933 69.0971 62.176 69.4278 62.176ZM62.6838 57C62.1558 57 61.6731 56.872 61.2358 56.616C60.7984 56.3547 60.4491 56.008 60.1878 55.576C59.9318 55.1387 59.8038 54.6533 59.8038 54.12C59.8038 53.5973 59.9371 53.1173 60.2038 52.68C60.4704 52.2427 60.8224 51.8933 61.2598 51.632C61.6971 51.3707 62.1718 51.24 62.6838 51.24C63.2118 51.24 63.6918 51.3707 64.1238 51.632C64.5611 51.888 64.9104 52.2347 65.1718 52.672C65.4331 53.104 65.5638 53.5867 65.5638 54.12C65.5638 54.6533 65.4331 55.1387 65.1718 55.576C64.9104 56.008 64.5611 56.3547 64.1238 56.616C63.6918 56.872 63.2118 57 62.6838 57ZM62.6838 55.936C63.0144 55.936 63.3158 55.8533 63.5878 55.688C63.8651 55.5227 64.0864 55.304 64.2518 55.032C64.4171 54.7547 64.4998 54.4507 64.4998 54.12C64.4998 53.7893 64.4171 53.488 64.2518 53.216C64.0864 52.9387 63.8651 52.7173 63.5878 52.552C63.3158 52.3867 63.0144 52.304 62.6838 52.304C62.3531 52.304 62.0491 52.3867 61.7718 52.552C61.4998 52.7173 61.2811 52.9387 61.1158 53.216C60.9504 53.488 60.8678 53.7893 60.8678 54.12C60.8678 54.4507 60.9504 54.7547 61.1158 55.032C61.2811 55.304 61.4998 55.5227 61.7718 55.688C62.0491 55.8533 62.3531 55.936 62.6838 55.936ZM81.5888 63.24C80.7834 63.24 80.0581 63.1067 79.4128 62.84C78.7728 62.568 78.2421 62.184 77.8208 61.688C77.4048 61.192 77.1328 60.6027 77.0048 59.92L78.2048 59.72C78.3968 60.4667 78.8021 61.0533 79.4208 61.48C80.0394 61.9013 80.7781 62.112 81.6368 62.112C82.2021 62.112 82.7088 62.024 83.1568 61.848C83.6048 61.6667 83.9568 61.4107 84.2128 61.08C84.4688 60.7493 84.5968 60.3573 84.5968 59.904C84.5968 59.6053 84.5434 59.352 84.4368 59.144C84.3301 58.9307 84.1888 58.7547 84.0128 58.616C83.8368 58.4773 83.6448 58.3627 83.4368 58.272C83.2288 58.176 83.0261 58.0987 82.8288 58.04L79.9088 57.168C79.5568 57.0667 79.2314 56.9387 78.9328 56.784C78.6341 56.624 78.3728 56.4347 78.1488 56.216C77.9301 55.992 77.7594 55.7307 77.6368 55.432C77.5141 55.1333 77.4528 54.792 77.4528 54.408C77.4528 53.7573 77.6234 53.1947 77.9648 52.72C78.3061 52.2453 78.7728 51.88 79.3648 51.624C79.9568 51.368 80.6314 51.2427 81.3888 51.248C82.1568 51.248 82.8421 51.384 83.4448 51.656C84.0528 51.928 84.5541 52.3173 84.9488 52.824C85.3434 53.3253 85.6048 53.92 85.7328 54.608L84.5008 54.832C84.4208 54.3307 84.2368 53.896 83.9488 53.528C83.6608 53.16 83.2928 52.8773 82.8448 52.68C82.4021 52.4773 81.9141 52.3733 81.3808 52.368C80.8634 52.368 80.4021 52.456 79.9968 52.632C79.5968 52.8027 79.2794 53.0373 79.0448 53.336C78.8101 53.6347 78.6928 53.976 78.6928 54.36C78.6928 54.7493 78.7994 55.0613 79.0128 55.296C79.2314 55.5307 79.4981 55.7147 79.8128 55.848C80.1328 55.9813 80.4421 56.0907 80.7408 56.176L82.9968 56.84C83.2314 56.904 83.5061 56.9973 83.8208 57.12C84.1408 57.2373 84.4501 57.408 84.7488 57.632C85.0528 57.8507 85.3034 58.1387 85.5008 58.496C85.6981 58.8533 85.7968 59.3067 85.7968 59.856C85.7968 60.3893 85.6901 60.8667 85.4768 61.288C85.2688 61.7093 84.9728 62.064 84.5888 62.352C84.2101 62.64 83.7648 62.8587 83.2528 63.008C82.7461 63.1627 82.1914 63.24 81.5888 63.24ZM91.3281 63.24C90.5335 63.24 89.8615 63.04 89.3121 62.64C88.7628 62.2347 88.3468 61.688 88.0641 61C87.7815 60.3067 87.6401 59.5307 87.6401 58.672C87.6401 57.7973 87.7815 57.0187 88.0641 56.336C88.3521 55.648 88.7735 55.1067 89.3281 54.712C89.8828 54.3173 90.5655 54.12 91.3761 54.12C92.1655 54.12 92.8428 54.32 93.4081 54.72C93.9735 55.12 94.4055 55.664 94.7041 56.352C95.0081 57.04 95.1601 57.8133 95.1601 58.672C95.1601 59.536 95.0081 60.312 94.7041 61C94.4001 61.688 93.9628 62.2347 93.3921 62.64C92.8215 63.04 92.1335 63.24 91.3281 63.24ZM87.4401 66.84V54.36H88.4961V60.864H88.6241V66.84H87.4401ZM91.2081 62.144C91.8108 62.144 92.3121 61.992 92.7121 61.688C93.1121 61.384 93.4108 60.9707 93.6081 60.448C93.8108 59.92 93.9121 59.328 93.9121 58.672C93.9121 58.0213 93.8135 57.4347 93.6161 56.912C93.4188 56.3893 93.1175 55.976 92.7121 55.672C92.3121 55.368 91.8028 55.216 91.1841 55.216C90.5815 55.216 90.0801 55.3627 89.6801 55.656C89.2855 55.9493 88.9895 56.3573 88.7921 56.88C88.5948 57.3973 88.4961 57.9947 88.4961 58.672C88.4961 59.3387 88.5948 59.936 88.7921 60.464C88.9895 60.9867 89.2881 61.3973 89.6881 61.696C90.0881 61.9947 90.5948 62.144 91.2081 62.144ZM99.3889 63.24C98.7382 63.24 98.1915 63.1227 97.7489 62.888C97.3115 62.6533 96.9835 62.3413 96.7649 61.952C96.5462 61.5627 96.4369 61.1387 96.4369 60.68C96.4369 60.2107 96.5302 59.8107 96.7169 59.48C96.9089 59.144 97.1675 58.8693 97.4929 58.656C97.8235 58.4427 98.2049 58.28 98.6369 58.168C99.0742 58.0613 99.5569 57.968 100.085 57.888C100.618 57.8027 101.138 57.7307 101.645 57.672C102.157 57.608 102.605 57.5467 102.989 57.488L102.573 57.744C102.589 56.8907 102.424 56.2587 102.077 55.848C101.73 55.4373 101.128 55.232 100.269 55.232C99.6769 55.232 99.1755 55.3653 98.7649 55.632C98.3595 55.8987 98.0742 56.32 97.9089 56.896L96.7649 56.56C96.9622 55.7867 97.3595 55.1867 97.9569 54.76C98.5542 54.3333 99.3302 54.12 100.285 54.12C101.074 54.12 101.744 54.2693 102.293 54.568C102.848 54.8613 103.24 55.288 103.469 55.848C103.576 56.0987 103.645 56.3787 103.677 56.688C103.709 56.9973 103.725 57.312 103.725 57.632V63H102.677V60.832L102.981 60.96C102.688 61.7013 102.232 62.2667 101.613 62.656C100.994 63.0453 100.253 63.24 99.3889 63.24ZM99.5249 62.224C100.074 62.224 100.554 62.1253 100.965 61.928C101.376 61.7307 101.706 61.4613 101.957 61.12C102.208 60.7733 102.37 60.384 102.445 59.952C102.509 59.6747 102.544 59.3707 102.549 59.04C102.554 58.704 102.557 58.4533 102.557 58.288L103.005 58.52C102.605 58.5733 102.17 58.6267 101.701 58.68C101.237 58.7333 100.778 58.7947 100.325 58.864C99.8769 58.9333 99.4715 59.016 99.1089 59.112C98.8635 59.1813 98.6262 59.28 98.3969 59.408C98.1675 59.5307 97.9782 59.696 97.8289 59.904C97.6849 60.112 97.6129 60.3707 97.6129 60.68C97.6129 60.9307 97.6742 61.1733 97.7969 61.408C97.9249 61.6427 98.1275 61.8373 98.4049 61.992C98.6875 62.1467 99.0609 62.224 99.5249 62.224ZM109.16 63.24C108.354 63.24 107.666 63.04 107.096 62.64C106.525 62.2347 106.088 61.688 105.784 61C105.48 60.312 105.328 59.536 105.328 58.672C105.328 57.8133 105.477 57.04 105.776 56.352C106.08 55.664 106.514 55.12 107.08 54.72C107.645 54.32 108.322 54.12 109.112 54.12C109.922 54.12 110.605 54.3173 111.16 54.712C111.714 55.1067 112.133 55.648 112.416 56.336C112.704 57.0187 112.848 57.7973 112.848 58.672C112.848 59.5307 112.706 60.3067 112.424 61C112.141 61.688 111.725 62.2347 111.176 62.64C110.626 63.04 109.954 63.24 109.16 63.24ZM109.28 62.144C109.893 62.144 110.4 61.9947 110.8 61.696C111.2 61.3973 111.498 60.9867 111.696 60.464C111.893 59.936 111.992 59.3387 111.992 58.672C111.992 57.9947 111.893 57.3973 111.696 56.88C111.498 56.3573 111.2 55.9493 110.8 55.656C110.405 55.3627 109.906 55.216 109.304 55.216C108.685 55.216 108.173 55.368 107.768 55.672C107.362 55.976 107.061 56.3893 106.864 56.912C106.672 57.4347 106.576 58.0213 106.576 58.672C106.576 59.328 106.674 59.92 106.872 60.448C107.074 60.9707 107.376 61.384 107.776 61.688C108.176 61.992 108.677 62.144 109.28 62.144ZM111.992 63V56.496H111.864V51.48H113.048V63H111.992ZM118.948 63.24C118.105 63.24 117.375 63.0533 116.756 62.68C116.143 62.3067 115.665 61.7813 115.324 61.104C114.983 60.4267 114.812 59.632 114.812 58.72C114.812 57.776 114.98 56.96 115.316 56.272C115.652 55.584 116.124 55.0533 116.732 54.68C117.345 54.3067 118.068 54.12 118.9 54.12C119.753 54.12 120.481 54.3173 121.084 54.712C121.687 55.1013 122.143 55.6613 122.452 56.392C122.761 57.1227 122.903 57.9947 122.876 59.008H121.676V58.592C121.655 57.472 121.412 56.6267 120.948 56.056C120.489 55.4853 119.817 55.2 118.932 55.2C118.004 55.2 117.292 55.5013 116.796 56.104C116.305 56.7067 116.06 57.5653 116.06 58.68C116.06 59.768 116.305 60.6133 116.796 61.216C117.292 61.8133 117.993 62.112 118.9 62.112C119.519 62.112 120.057 61.9707 120.516 61.688C120.98 61.4 121.345 60.9867 121.612 60.448L122.708 60.872C122.367 61.624 121.863 62.208 121.196 62.624C120.535 63.0347 119.785 63.24 118.948 63.24ZM115.644 59.008V58.024H122.244V59.008H115.644ZM124.643 63L124.651 51.48H125.835V58.52L129.691 54.36H131.259L127.211 58.68L131.787 63H130.075L125.835 58.84V63H124.643Z" fill="white"/>
<path d="M56 125C56 111.745 66.7452 101 80 101H199C212.255 101 223 111.745 223 125V184C223 185.105 222.105 186 221 186H80C66.7452 186 56 175.255 56 162V125Z" fill="white" fill-opacity="0.3"/>
<path d="M83.152 134C82.736 134 82.352 133.899 82 133.696C81.648 133.483 81.3707 133.205 81.168 132.864C80.9653 132.512 80.864 132.123 80.864 131.696V130.72H83.168V131.584C83.168 131.616 83.1733 131.643 83.184 131.664C83.2053 131.675 83.2267 131.68 83.248 131.68H89.952C89.9733 131.68 89.9947 131.675 90.016 131.664C90.0373 131.643 90.048 131.616 90.048 131.584V129.488C90.048 129.467 90.0373 129.451 90.016 129.44C89.9947 129.419 89.9733 129.408 89.952 129.408H83.152C82.736 129.408 82.352 129.307 82 129.104C81.648 128.891 81.3707 128.608 81.168 128.256C80.9653 127.904 80.864 127.52 80.864 127.104V124.784C80.864 124.357 80.9653 123.973 81.168 123.632C81.3707 123.28 81.648 123.003 82 122.8C82.352 122.587 82.736 122.48 83.152 122.48H90.08C90.496 122.48 90.8747 122.587 91.216 122.8C91.568 123.003 91.8507 123.28 92.064 123.632C92.2773 123.973 92.384 124.357 92.384 124.784V125.76H90.048V124.896C90.048 124.864 90.0373 124.843 90.016 124.832C89.9947 124.811 89.9733 124.8 89.952 124.8H83.248C83.2267 124.8 83.2053 124.811 83.184 124.832C83.1733 124.843 83.168 124.864 83.168 124.896V126.992C83.168 127.013 83.1733 127.035 83.184 127.056C83.2053 127.067 83.2267 127.072 83.248 127.072H90.08C90.496 127.072 90.8747 127.179 91.216 127.392C91.568 127.595 91.8507 127.872 92.064 128.224C92.2773 128.576 92.384 128.96 92.384 129.376V131.696C92.384 132.123 92.2773 132.512 92.064 132.864C91.8507 133.205 91.568 133.483 91.216 133.696C90.8747 133.899 90.496 134 90.08 134H83.152ZM85.361 120.76L86.145 117.672H88.481L87.697 120.76H85.361ZM94.0664 134V126.976C94.0664 126.571 94.1677 126.197 94.3704 125.856C94.5837 125.515 94.861 125.243 95.2024 125.04C95.5544 124.827 95.933 124.72 96.3384 124.72H101.474V126.992H96.4344C96.413 126.992 96.3917 127.003 96.3704 127.024C96.349 127.045 96.3384 127.067 96.3384 127.088V134H94.0664ZM104.838 134C104.432 134 104.059 133.899 103.718 133.696C103.376 133.483 103.099 133.205 102.886 132.864C102.683 132.523 102.582 132.149 102.582 131.744V126.976C102.582 126.571 102.683 126.197 102.886 125.856C103.099 125.515 103.376 125.243 103.718 125.04C104.059 124.827 104.432 124.72 104.838 124.72H109.734C110.15 124.72 110.528 124.827 110.87 125.04C111.211 125.243 111.483 125.515 111.686 125.856C111.888 126.197 111.99 126.571 111.99 126.976V130.512H104.854V131.632C104.854 131.653 104.864 131.675 104.886 131.696C104.907 131.717 104.928 131.728 104.95 131.728H111.99V134H104.838ZM104.854 128.48H109.718V127.088C109.718 127.067 109.707 127.045 109.686 127.024C109.664 127.003 109.643 126.992 109.622 126.992H104.95C104.928 126.992 104.907 127.003 104.886 127.024C104.864 127.045 104.854 127.067 104.854 127.088V128.48ZM115.484 134C115.057 134 114.673 133.899 114.332 133.696C113.99 133.483 113.718 133.205 113.516 132.864C113.313 132.523 113.212 132.149 113.212 131.744V126.976C113.212 126.571 113.313 126.197 113.516 125.856C113.718 125.515 113.99 125.243 114.332 125.04C114.673 124.827 115.057 124.72 115.484 124.72H120.364V121.68H122.636V134H115.484ZM115.596 131.728H120.268C120.289 131.728 120.31 131.717 120.332 131.696C120.353 131.675 120.364 131.653 120.364 131.632V127.088C120.364 127.067 120.353 127.045 120.332 127.024C120.31 127.003 120.289 126.992 120.268 126.992H115.596C115.574 126.992 115.553 127.003 115.532 127.024C115.51 127.045 115.5 127.067 115.5 127.088V131.632C115.5 131.653 115.51 131.675 115.532 131.696C115.553 131.717 115.574 131.728 115.596 131.728ZM124.38 134V124.72H131.532C131.948 124.72 132.326 124.827 132.668 125.04C133.009 125.243 133.281 125.515 133.484 125.856C133.686 126.197 133.788 126.571 133.788 126.976V134H131.516V127.088C131.516 127.067 131.505 127.045 131.484 127.024C131.473 127.003 131.452 126.992 131.42 126.992H126.748C126.726 126.992 126.705 127.003 126.684 127.024C126.662 127.045 126.652 127.067 126.652 127.088V134H124.38ZM135.488 134V124.72H137.76V134H135.488ZM135.488 123.968V121.68H137.76V123.968H135.488Z" fill="#0B0528"/>
<path d="M86.192 164V161.768H80.8V160.648L84.656 152.48H85.976L82.12 160.648H86.192V157.288H87.376V160.648H88.632V161.768H87.376V164H86.192ZM94.3175 164.24C93.6082 164.24 92.9682 164.075 92.3975 163.744C91.8322 163.413 91.3842 162.965 91.0535 162.4C90.7228 161.829 90.5575 161.189 90.5575 160.48V156C90.5575 155.291 90.7228 154.653 91.0535 154.088C91.3842 153.517 91.8322 153.067 92.3975 152.736C92.9682 152.405 93.6082 152.24 94.3175 152.24C95.0268 152.24 95.6642 152.405 96.2295 152.736C96.8002 153.067 97.2508 153.517 97.5815 154.088C97.9122 154.653 98.0775 155.291 98.0775 156V160.48C98.0775 161.189 97.9122 161.829 97.5815 162.4C97.2508 162.965 96.8002 163.413 96.2295 163.744C95.6642 164.075 95.0268 164.24 94.3175 164.24ZM94.3175 163.104C94.7922 163.104 95.2242 162.989 95.6135 162.76C96.0028 162.525 96.3122 162.213 96.5415 161.824C96.7708 161.435 96.8855 161.005 96.8855 160.536V155.944C96.8855 155.469 96.7708 155.037 96.5415 154.648C96.3122 154.259 96.0028 153.949 95.6135 153.72C95.2242 153.485 94.7922 153.368 94.3175 153.368C93.8428 153.368 93.4108 153.485 93.0215 153.72C92.6322 153.949 92.3228 154.259 92.0935 154.648C91.8642 155.037 91.7495 155.469 91.7495 155.944V160.536C91.7495 161.005 91.8642 161.435 92.0935 161.824C92.3228 162.213 92.6322 162.525 93.0215 162.76C93.4108 162.989 93.8428 163.104 94.3175 163.104ZM100.163 158.744V157.736H104.963V158.744H100.163ZM110.938 164.24C110.218 164.24 109.562 164.067 108.97 163.72C108.383 163.368 107.914 162.893 107.562 162.296C107.215 161.693 107.042 161.016 107.042 160.264V156.272C107.042 155.499 107.215 154.811 107.562 154.208C107.909 153.6 108.381 153.123 108.978 152.776C109.581 152.424 110.263 152.248 111.026 152.248C111.682 152.248 112.29 152.392 112.85 152.68C113.415 152.968 113.877 153.371 114.234 153.888L113.33 154.632C113.085 154.248 112.759 153.941 112.354 153.712C111.949 153.483 111.506 153.368 111.026 153.368C110.487 153.368 110.007 153.499 109.586 153.76C109.165 154.021 108.834 154.365 108.594 154.792C108.354 155.213 108.234 155.672 108.234 156.168V158.68L107.938 158.344C108.274 157.816 108.714 157.389 109.258 157.064C109.807 156.739 110.405 156.576 111.05 156.576C111.765 156.576 112.407 156.747 112.978 157.088C113.549 157.424 114.002 157.88 114.338 158.456C114.674 159.032 114.842 159.677 114.842 160.392C114.842 161.101 114.663 161.747 114.306 162.328C113.954 162.909 113.482 163.373 112.89 163.72C112.303 164.067 111.653 164.24 110.938 164.24ZM110.938 163.096C111.439 163.096 111.895 162.976 112.306 162.736C112.722 162.496 113.05 162.171 113.29 161.76C113.535 161.349 113.658 160.893 113.658 160.392C113.658 159.891 113.535 159.435 113.29 159.024C113.05 158.608 112.725 158.28 112.314 158.04C111.903 157.795 111.447 157.672 110.946 157.672C110.445 157.672 109.989 157.795 109.578 158.04C109.167 158.28 108.839 158.608 108.594 159.024C108.354 159.435 108.234 159.891 108.234 160.392C108.234 160.888 108.354 161.341 108.594 161.752C108.834 162.163 109.159 162.491 109.57 162.736C109.981 162.976 110.437 163.096 110.938 163.096ZM120.724 164.24C120.014 164.24 119.374 164.075 118.804 163.744C118.238 163.413 117.79 162.965 117.46 162.4C117.129 161.829 116.964 161.189 116.964 160.48V156C116.964 155.291 117.129 154.653 117.46 154.088C117.79 153.517 118.238 153.067 118.804 152.736C119.374 152.405 120.014 152.24 120.724 152.24C121.433 152.24 122.07 152.405 122.636 152.736C123.206 153.067 123.657 153.517 123.988 154.088C124.318 154.653 124.484 155.291 124.484 156V160.48C124.484 161.189 124.318 161.829 123.988 162.4C123.657 162.965 123.206 163.413 122.636 163.744C122.07 164.075 121.433 164.24 120.724 164.24ZM120.724 163.104C121.198 163.104 121.63 162.989 122.02 162.76C122.409 162.525 122.718 162.213 122.948 161.824C123.177 161.435 123.292 161.005 123.292 160.536V155.944C123.292 155.469 123.177 155.037 122.948 154.648C122.718 154.259 122.409 153.949 122.02 153.72C121.63 153.485 121.198 153.368 120.724 153.368C120.249 153.368 119.817 153.485 119.428 153.72C119.038 153.949 118.729 154.259 118.5 154.648C118.27 155.037 118.156 155.469 118.156 155.944V160.536C118.156 161.005 118.27 161.435 118.5 161.824C118.729 162.213 119.038 162.525 119.428 162.76C119.817 162.989 120.249 163.104 120.724 163.104ZM127.849 164L127.049 163.2L137.793 152.48L138.593 153.272L127.849 164ZM136.193 164.24C135.665 164.24 135.183 164.112 134.745 163.856C134.313 163.595 133.967 163.248 133.705 162.816C133.444 162.379 133.313 161.893 133.313 161.36C133.313 160.837 133.447 160.357 133.713 159.92C133.98 159.483 134.332 159.133 134.769 158.872C135.207 158.611 135.681 158.48 136.193 158.48C136.721 158.48 137.204 158.611 137.641 158.872C138.079 159.128 138.425 159.475 138.681 159.912C138.943 160.344 139.073 160.827 139.073 161.36C139.073 161.893 138.943 162.379 138.681 162.816C138.425 163.248 138.079 163.595 137.641 163.856C137.204 164.112 136.721 164.24 136.193 164.24ZM136.193 163.176C136.519 163.176 136.82 163.093 137.097 162.928C137.375 162.763 137.596 162.544 137.761 162.272C137.927 161.995 138.009 161.691 138.009 161.36C138.009 161.029 137.927 160.728 137.761 160.456C137.596 160.179 137.375 159.957 137.097 159.792C136.82 159.627 136.519 159.544 136.193 159.544C135.863 159.544 135.559 159.627 135.281 159.792C135.009 159.957 134.788 160.179 134.617 160.456C134.452 160.728 134.369 161.029 134.369 161.36C134.369 161.691 134.452 161.995 134.617 162.272C134.788 162.544 135.009 162.763 135.281 162.928C135.559 163.093 135.863 163.176 136.193 163.176ZM129.449 158C128.921 158 128.439 157.872 128.001 157.616C127.564 157.355 127.215 157.008 126.953 156.576C126.697 156.139 126.569 155.653 126.569 155.12C126.569 154.597 126.703 154.117 126.969 153.68C127.236 153.243 127.588 152.893 128.025 152.632C128.463 152.371 128.937 152.24 129.449 152.24C129.977 152.24 130.457 152.371 130.889 152.632C131.327 152.888 131.676 153.235 131.937 153.672C132.199 154.104 132.329 154.587 132.329 155.12C132.329 155.653 132.199 156.139 131.937 156.576C131.676 157.008 131.327 157.355 130.889 157.616C130.457 157.872 129.977 158 129.449 158ZM129.449 156.936C129.78 156.936 130.081 156.853 130.353 156.688C130.631 156.523 130.852 156.304 131.017 156.032C131.183 155.755 131.265 155.451 131.265 155.12C131.265 154.789 131.183 154.488 131.017 154.216C130.852 153.939 130.631 153.717 130.353 153.552C130.081 153.387 129.78 153.304 129.449 153.304C129.119 153.304 128.815 153.387 128.537 153.552C128.265 153.717 128.047 153.939 127.881 154.216C127.716 154.488 127.633 154.789 127.633 155.12C127.633 155.451 127.716 155.755 127.881 156.032C128.047 156.304 128.265 156.523 128.537 156.688C128.815 156.853 129.119 156.936 129.449 156.936ZM148.354 164.24C147.549 164.24 146.824 164.107 146.178 163.84C145.538 163.568 145.008 163.184 144.586 162.688C144.17 162.192 143.898 161.603 143.77 160.92L144.97 160.72C145.162 161.467 145.568 162.053 146.186 162.48C146.805 162.901 147.544 163.112 148.402 163.112C148.968 163.112 149.474 163.024 149.922 162.848C150.37 162.667 150.722 162.411 150.978 162.08C151.234 161.749 151.362 161.357 151.362 160.904C151.362 160.605 151.309 160.352 151.202 160.144C151.096 159.931 150.954 159.755 150.778 159.616C150.602 159.477 150.41 159.363 150.202 159.272C149.994 159.176 149.792 159.099 149.594 159.04L146.674 158.168C146.322 158.067 145.997 157.939 145.698 157.784C145.4 157.624 145.138 157.435 144.914 157.216C144.696 156.992 144.525 156.731 144.402 156.432C144.28 156.133 144.218 155.792 144.218 155.408C144.218 154.757 144.389 154.195 144.73 153.72C145.072 153.245 145.538 152.88 146.13 152.624C146.722 152.368 147.397 152.243 148.154 152.248C148.922 152.248 149.608 152.384 150.21 152.656C150.818 152.928 151.32 153.317 151.714 153.824C152.109 154.325 152.37 154.92 152.498 155.608L151.266 155.832C151.186 155.331 151.002 154.896 150.714 154.528C150.426 154.16 150.058 153.877 149.61 153.68C149.168 153.477 148.68 153.373 148.146 153.368C147.629 153.368 147.168 153.456 146.762 153.632C146.362 153.803 146.045 154.037 145.81 154.336C145.576 154.635 145.458 154.976 145.458 155.36C145.458 155.749 145.565 156.061 145.778 156.296C145.997 156.531 146.264 156.715 146.578 156.848C146.898 156.981 147.208 157.091 147.506 157.176L149.762 157.84C149.997 157.904 150.272 157.997 150.586 158.12C150.906 158.237 151.216 158.408 151.514 158.632C151.818 158.851 152.069 159.139 152.266 159.496C152.464 159.853 152.562 160.307 152.562 160.856C152.562 161.389 152.456 161.867 152.242 162.288C152.034 162.709 151.738 163.064 151.354 163.352C150.976 163.64 150.53 163.859 150.018 164.008C149.512 164.163 148.957 164.24 148.354 164.24ZM158.094 164.24C157.299 164.24 156.627 164.04 156.078 163.64C155.528 163.235 155.112 162.688 154.83 162C154.547 161.307 154.406 160.531 154.406 159.672C154.406 158.797 154.547 158.019 154.83 157.336C155.118 156.648 155.539 156.107 156.094 155.712C156.648 155.317 157.331 155.12 158.142 155.12C158.931 155.12 159.608 155.32 160.174 155.72C160.739 156.12 161.171 156.664 161.47 157.352C161.774 158.04 161.926 158.813 161.926 159.672C161.926 160.536 161.774 161.312 161.47 162C161.166 162.688 160.728 163.235 160.158 163.64C159.587 164.04 158.899 164.24 158.094 164.24ZM154.206 167.84V155.36H155.262V161.864H155.39V167.84H154.206ZM157.974 163.144C158.576 163.144 159.078 162.992 159.478 162.688C159.878 162.384 160.176 161.971 160.374 161.448C160.576 160.92 160.678 160.328 160.678 159.672C160.678 159.021 160.579 158.435 160.382 157.912C160.184 157.389 159.883 156.976 159.478 156.672C159.078 156.368 158.568 156.216 157.95 156.216C157.347 156.216 156.846 156.363 156.446 156.656C156.051 156.949 155.755 157.357 155.558 157.88C155.36 158.397 155.262 158.995 155.262 159.672C155.262 160.339 155.36 160.936 155.558 161.464C155.755 161.987 156.054 162.397 156.454 162.696C156.854 162.995 157.36 163.144 157.974 163.144ZM166.155 164.24C165.504 164.24 164.957 164.123 164.515 163.888C164.077 163.653 163.749 163.341 163.531 162.952C163.312 162.563 163.203 162.139 163.203 161.68C163.203 161.211 163.296 160.811 163.483 160.48C163.675 160.144 163.933 159.869 164.259 159.656C164.589 159.443 164.971 159.28 165.403 159.168C165.84 159.061 166.323 158.968 166.851 158.888C167.384 158.803 167.904 158.731 168.411 158.672C168.923 158.608 169.371 158.547 169.755 158.488L169.339 158.744C169.355 157.891 169.189 157.259 168.843 156.848C168.496 156.437 167.893 156.232 167.035 156.232C166.443 156.232 165.941 156.365 165.531 156.632C165.125 156.899 164.84 157.32 164.674 157.896L163.531 157.56C163.728 156.787 164.125 156.187 164.723 155.76C165.32 155.333 166.096 155.12 167.051 155.12C167.84 155.12 168.509 155.269 169.059 155.568C169.613 155.861 170.005 156.288 170.235 156.848C170.341 157.099 170.411 157.379 170.443 157.688C170.475 157.997 170.491 158.312 170.491 158.632V164H169.443V161.832L169.747 161.96C169.453 162.701 168.997 163.267 168.379 163.656C167.76 164.045 167.019 164.24 166.155 164.24ZM166.291 163.224C166.84 163.224 167.32 163.125 167.731 162.928C168.141 162.731 168.472 162.461 168.723 162.12C168.973 161.773 169.136 161.384 169.211 160.952C169.275 160.675 169.309 160.371 169.315 160.04C169.32 159.704 169.323 159.453 169.323 159.288L169.771 159.52C169.371 159.573 168.936 159.627 168.467 159.68C168.003 159.733 167.544 159.795 167.091 159.864C166.643 159.933 166.237 160.016 165.875 160.112C165.629 160.181 165.392 160.28 165.163 160.408C164.933 160.531 164.744 160.696 164.595 160.904C164.451 161.112 164.379 161.371 164.379 161.68C164.379 161.931 164.44 162.173 164.562 162.408C164.691 162.643 164.893 162.837 165.171 162.992C165.453 163.147 165.827 163.224 166.291 163.224ZM175.925 164.24C175.12 164.24 174.432 164.04 173.861 163.64C173.29 163.235 172.853 162.688 172.549 162C172.245 161.312 172.093 160.536 172.093 159.672C172.093 158.813 172.242 158.04 172.541 157.352C172.845 156.664 173.28 156.12 173.845 155.72C174.41 155.32 175.088 155.12 175.877 155.12C176.688 155.12 177.37 155.317 177.925 155.712C178.48 156.107 178.898 156.648 179.181 157.336C179.469 158.019 179.613 158.797 179.613 159.672C179.613 160.531 179.472 161.307 179.189 162C178.906 162.688 178.49 163.235 177.941 163.64C177.392 164.04 176.72 164.24 175.925 164.24ZM176.045 163.144C176.658 163.144 177.165 162.995 177.565 162.696C177.965 162.397 178.264 161.987 178.461 161.464C178.658 160.936 178.757 160.339 178.757 159.672C178.757 158.995 178.658 158.397 178.461 157.88C178.264 157.357 177.965 156.949 177.565 156.656C177.17 156.363 176.672 156.216 176.069 156.216C175.45 156.216 174.938 156.368 174.533 156.672C174.128 156.976 173.826 157.389 173.629 157.912C173.437 158.435 173.341 159.021 173.341 159.672C173.341 160.328 173.44 160.92 173.637 161.448C173.84 161.971 174.141 162.384 174.541 162.688C174.941 162.992 175.442 163.144 176.045 163.144ZM178.757 164V157.496H178.629V152.48H179.813V164H178.757ZM185.714 164.24C184.871 164.24 184.14 164.053 183.522 163.68C182.908 163.307 182.431 162.781 182.09 162.104C181.748 161.427 181.578 160.632 181.578 159.72C181.578 158.776 181.746 157.96 182.082 157.272C182.418 156.584 182.89 156.053 183.498 155.68C184.111 155.307 184.834 155.12 185.666 155.12C186.519 155.12 187.247 155.317 187.85 155.712C188.452 156.101 188.908 156.661 189.218 157.392C189.527 158.123 189.668 158.995 189.642 160.008H188.442V159.592C188.42 158.472 188.178 157.627 187.714 157.056C187.255 156.485 186.583 156.2 185.698 156.2C184.77 156.2 184.058 156.501 183.562 157.104C183.071 157.707 182.826 158.565 182.826 159.68C182.826 160.768 183.071 161.613 183.562 162.216C184.058 162.813 184.759 163.112 185.666 163.112C186.284 163.112 186.823 162.971 187.282 162.688C187.746 162.4 188.111 161.987 188.378 161.448L189.474 161.872C189.132 162.624 188.628 163.208 187.962 163.624C187.3 164.035 186.551 164.24 185.714 164.24ZM182.41 160.008V159.024H189.01V160.008H182.41ZM191.409 164L191.417 152.48H192.601V159.52L196.457 155.36H198.025L193.977 159.68L198.553 164H196.841L192.601 159.84V164H191.409Z" fill="#0B0528"/>
<path d="M112 226C112 212.745 122.745 202 136 202H261C274.255 202 285 212.745 285 226V285C285 286.105 284.105 287 283 287H136C122.745 287 112 276.255 112 263V226Z" fill="white" fill-opacity="0.45"/>
<path d="M140.752 235L136.56 223.48H139.008L141.648 230.696L144.288 223.48H146.464L149.12 230.696L151.76 223.48H154.208L150.016 235H148.224L145.376 227.224L142.544 235H140.752ZM156.754 238.376V236.088H162.306C162.327 236.088 162.349 236.077 162.37 236.056C162.391 236.035 162.402 236.013 162.402 235.992V235H157.522C157.106 235 156.727 234.899 156.386 234.696C156.045 234.483 155.767 234.205 155.554 233.864C155.351 233.523 155.25 233.149 155.25 232.744V225.752H157.522V232.632C157.522 232.653 157.533 232.675 157.554 232.696C157.575 232.717 157.597 232.728 157.618 232.728H162.306C162.327 232.728 162.349 232.717 162.37 232.696C162.391 232.675 162.402 232.653 162.402 232.632V225.752H164.674V236.12C164.674 236.536 164.573 236.915 164.37 237.256C164.178 237.597 163.906 237.869 163.554 238.072C163.213 238.275 162.834 238.376 162.418 238.376H156.754ZM168.415 235C168.009 235 167.636 234.899 167.295 234.696C166.953 234.483 166.676 234.205 166.463 233.864C166.26 233.523 166.159 233.149 166.159 232.744V232.328H168.431V232.632C168.431 232.653 168.441 232.675 168.463 232.696C168.484 232.717 168.505 232.728 168.527 232.728H173.199C173.22 232.728 173.241 232.717 173.263 232.696C173.284 232.675 173.295 232.653 173.295 232.632V231.592C173.295 231.571 173.284 231.555 173.263 231.544C173.241 231.523 173.22 231.512 173.199 231.512H168.415C168.009 231.512 167.636 231.411 167.295 231.208C166.953 230.995 166.676 230.717 166.463 230.376C166.26 230.035 166.159 229.656 166.159 229.24V227.976C166.159 227.571 166.26 227.197 166.463 226.856C166.676 226.515 166.953 226.243 167.295 226.04C167.636 225.827 168.009 225.72 168.415 225.72H173.311C173.727 225.72 174.105 225.827 174.447 226.04C174.788 226.243 175.06 226.515 175.263 226.856C175.476 227.197 175.583 227.571 175.583 227.976V228.392H173.295V228.088C173.295 228.067 173.284 228.045 173.263 228.024C173.241 228.003 173.22 227.992 173.199 227.992H168.527C168.505 227.992 168.484 228.003 168.463 228.024C168.441 228.045 168.431 228.067 168.431 228.088V229.128C168.431 229.149 168.441 229.171 168.463 229.192C168.484 229.203 168.505 229.208 168.527 229.208H173.311C173.727 229.208 174.105 229.315 174.447 229.528C174.788 229.731 175.06 230.003 175.263 230.344C175.476 230.685 175.583 231.064 175.583 231.48V232.744C175.583 233.149 175.476 233.523 175.263 233.864C175.06 234.205 174.788 234.483 174.447 234.696C174.105 234.899 173.727 235 173.311 235H168.415ZM179.166 235C178.76 235 178.387 234.899 178.046 234.696C177.704 234.483 177.427 234.205 177.214 233.864C177.011 233.523 176.91 233.149 176.91 232.744V227.976C176.91 227.571 177.011 227.197 177.214 226.856C177.427 226.515 177.704 226.243 178.046 226.04C178.387 225.827 178.76 225.72 179.166 225.72H184.062C184.478 225.72 184.856 225.827 185.198 226.04C185.539 226.243 185.811 226.515 186.014 226.856C186.216 227.197 186.318 227.571 186.318 227.976V232.744C186.318 233.149 186.216 233.523 186.014 233.864C185.811 234.205 185.539 234.483 185.198 234.696C184.856 234.899 184.478 235 184.062 235H179.166ZM179.278 232.728H183.95C183.971 232.728 183.992 232.717 184.014 232.696C184.035 232.675 184.046 232.653 184.046 232.632V228.088C184.046 228.067 184.035 228.045 184.014 228.024C183.992 228.003 183.971 227.992 183.95 227.992H179.278C179.256 227.992 179.235 228.003 179.214 228.024C179.192 228.045 179.182 228.067 179.182 228.088V232.632C179.182 232.653 179.192 232.675 179.214 232.696C179.235 232.717 179.256 232.728 179.278 232.728ZM188.036 235V222.68H190.308V229.208H191.764L194.98 225.72H197.332V226.424L193.764 230.36L197.332 234.296V235H194.98L191.764 231.512H190.308V235H188.036ZM198.488 235V225.72H200.76V235H198.488ZM198.488 224.968V222.68H200.76V224.968H198.488Z" fill="#0B0528"/>
<path d="M140.632 265.24C139.912 265.24 139.275 265.096 138.72 264.808C138.171 264.52 137.739 264.117 137.424 263.6C137.115 263.077 136.96 262.467 136.96 261.768C136.96 261.053 137.133 260.419 137.48 259.864C137.827 259.304 138.355 258.88 139.064 258.592L139.048 259.056C138.456 258.837 138.005 258.48 137.696 257.984C137.387 257.488 137.232 256.939 137.232 256.336C137.232 255.696 137.379 255.147 137.672 254.688C137.965 254.224 138.365 253.867 138.872 253.616C139.384 253.365 139.971 253.24 140.632 253.24C141.293 253.24 141.88 253.365 142.392 253.616C142.904 253.867 143.307 254.224 143.6 254.688C143.893 255.147 144.04 255.696 144.04 256.336C144.04 256.939 143.891 257.485 143.592 257.976C143.299 258.467 142.848 258.827 142.24 259.056L142.2 258.592C142.909 258.875 143.44 259.296 143.792 259.856C144.149 260.416 144.328 261.053 144.328 261.768C144.328 262.467 144.171 263.077 143.856 263.6C143.541 264.117 143.107 264.52 142.552 264.808C141.997 265.096 141.357 265.24 140.632 265.24ZM140.632 264.112C141.357 264.112 141.947 263.912 142.4 263.512C142.853 263.107 143.08 262.525 143.08 261.768C143.08 261 142.856 260.419 142.408 260.024C141.96 259.624 141.368 259.424 140.632 259.424C139.896 259.424 139.307 259.624 138.864 260.024C138.421 260.419 138.2 261 138.2 261.768C138.2 262.525 138.424 263.107 138.872 263.512C139.32 263.912 139.907 264.112 140.632 264.112ZM140.632 258.288C141.272 258.288 141.792 258.125 142.192 257.8C142.592 257.469 142.792 256.981 142.792 256.336C142.792 255.691 142.592 255.208 142.192 254.888C141.792 254.563 141.272 254.4 140.632 254.4C139.992 254.4 139.472 254.563 139.072 254.888C138.677 255.208 138.48 255.691 138.48 256.336C138.48 256.981 138.677 257.469 139.072 257.8C139.472 258.125 139.992 258.288 140.632 258.288ZM150.161 265.24C149.452 265.24 148.812 265.075 148.241 264.744C147.676 264.413 147.228 263.965 146.897 263.4C146.567 262.829 146.401 262.189 146.401 261.48V257C146.401 256.291 146.567 255.653 146.897 255.088C147.228 254.517 147.676 254.067 148.241 253.736C148.812 253.405 149.452 253.24 150.161 253.24C150.871 253.24 151.508 253.405 152.073 253.736C152.644 254.067 153.095 254.517 153.425 255.088C153.756 255.653 153.921 256.291 153.921 257V261.48C153.921 262.189 153.756 262.829 153.425 263.4C153.095 263.965 152.644 264.413 152.073 264.744C151.508 265.075 150.871 265.24 150.161 265.24ZM150.161 264.104C150.636 264.104 151.068 263.989 151.457 263.76C151.847 263.525 152.156 263.213 152.385 262.824C152.615 262.435 152.729 262.005 152.729 261.536V256.944C152.729 256.469 152.615 256.037 152.385 255.648C152.156 255.259 151.847 254.949 151.457 254.72C151.068 254.485 150.636 254.368 150.161 254.368C149.687 254.368 149.255 254.485 148.865 254.72C148.476 254.949 148.167 255.259 147.937 255.648C147.708 256.037 147.593 256.469 147.593 256.944V261.536C147.593 262.005 147.708 262.435 147.937 262.824C148.167 263.213 148.476 263.525 148.865 263.76C149.255 263.989 149.687 264.104 150.161 264.104ZM156.007 259.744V258.736H160.807V259.744H156.007ZM164.894 265V254.792L162.726 256.096V254.776L164.894 253.48H166.086V265H164.894ZM172.88 265.24C172.171 265.24 171.531 265.075 170.96 264.744C170.395 264.413 169.947 263.965 169.616 263.4C169.285 262.829 169.12 262.189 169.12 261.48V257C169.12 256.291 169.285 255.653 169.616 255.088C169.947 254.517 170.395 254.067 170.96 253.736C171.531 253.405 172.171 253.24 172.88 253.24C173.589 253.24 174.227 253.405 174.792 253.736C175.363 254.067 175.813 254.517 176.144 255.088C176.475 255.653 176.64 256.291 176.64 257V261.48C176.64 262.189 176.475 262.829 176.144 263.4C175.813 263.965 175.363 264.413 174.792 264.744C174.227 265.075 173.589 265.24 172.88 265.24ZM172.88 264.104C173.355 264.104 173.787 263.989 174.176 263.76C174.565 263.525 174.875 263.213 175.104 262.824C175.333 262.435 175.448 262.005 175.448 261.536V256.944C175.448 256.469 175.333 256.037 175.104 255.648C174.875 255.259 174.565 254.949 174.176 254.72C173.787 254.485 173.355 254.368 172.88 254.368C172.405 254.368 171.973 254.485 171.584 254.72C171.195 254.949 170.885 255.259 170.656 255.648C170.427 256.037 170.312 256.469 170.312 256.944V261.536C170.312 262.005 170.427 262.435 170.656 262.824C170.885 263.213 171.195 263.525 171.584 263.76C171.973 263.989 172.405 264.104 172.88 264.104ZM182.646 265.24C181.936 265.24 181.296 265.075 180.726 264.744C180.16 264.413 179.712 263.965 179.382 263.4C179.051 262.829 178.886 262.189 178.886 261.48V257C178.886 256.291 179.051 255.653 179.382 255.088C179.712 254.517 180.16 254.067 180.726 253.736C181.296 253.405 181.936 253.24 182.646 253.24C183.355 253.24 183.992 253.405 184.558 253.736C185.128 254.067 185.579 254.517 185.91 255.088C186.24 255.653 186.406 256.291 186.406 257V261.48C186.406 262.189 186.24 262.829 185.91 263.4C185.579 263.965 185.128 264.413 184.558 264.744C183.992 265.075 183.355 265.24 182.646 265.24ZM182.646 264.104C183.12 264.104 183.552 263.989 183.942 263.76C184.331 263.525 184.64 263.213 184.87 262.824C185.099 262.435 185.214 262.005 185.214 261.536V256.944C185.214 256.469 185.099 256.037 184.87 255.648C184.64 255.259 184.331 254.949 183.942 254.72C183.552 254.485 183.12 254.368 182.646 254.368C182.171 254.368 181.739 254.485 181.35 254.72C180.96 254.949 180.651 255.259 180.422 255.648C180.192 256.037 180.078 256.469 180.078 256.944V261.536C180.078 262.005 180.192 262.435 180.422 262.824C180.651 263.213 180.96 263.525 181.35 263.76C181.739 263.989 182.171 264.104 182.646 264.104ZM189.771 265L188.971 264.2L199.715 253.48L200.515 254.272L189.771 265ZM198.115 265.24C197.587 265.24 197.105 265.112 196.667 264.856C196.235 264.595 195.889 264.248 195.627 263.816C195.366 263.379 195.235 262.893 195.235 262.36C195.235 261.837 195.369 261.357 195.635 260.92C195.902 260.483 196.254 260.133 196.691 259.872C197.129 259.611 197.603 259.48 198.115 259.48C198.643 259.48 199.126 259.611 199.563 259.872C200.001 260.128 200.347 260.475 200.603 260.912C200.865 261.344 200.995 261.827 200.995 262.36C200.995 262.893 200.865 263.379 200.603 263.816C200.347 264.248 200.001 264.595 199.563 264.856C199.126 265.112 198.643 265.24 198.115 265.24ZM198.115 264.176C198.441 264.176 198.742 264.093 199.019 263.928C199.297 263.763 199.518 263.544 199.683 263.272C199.849 262.995 199.931 262.691 199.931 262.36C199.931 262.029 199.849 261.728 199.683 261.456C199.518 261.179 199.297 260.957 199.019 260.792C198.742 260.627 198.441 260.544 198.115 260.544C197.785 260.544 197.481 260.627 197.203 260.792C196.931 260.957 196.71 261.179 196.539 261.456C196.374 261.728 196.291 262.029 196.291 262.36C196.291 262.691 196.374 262.995 196.539 263.272C196.71 263.544 196.931 263.763 197.203 263.928C197.481 264.093 197.785 264.176 198.115 264.176ZM191.371 259C190.843 259 190.361 258.872 189.923 258.616C189.486 258.355 189.137 258.008 188.875 257.576C188.619 257.139 188.491 256.653 188.491 256.12C188.491 255.597 188.625 255.117 188.891 254.68C189.158 254.243 189.51 253.893 189.947 253.632C190.385 253.371 190.859 253.24 191.371 253.24C191.899 253.24 192.379 253.371 192.811 253.632C193.249 253.888 193.598 254.235 193.859 254.672C194.121 255.104 194.251 255.587 194.251 256.12C194.251 256.653 194.121 257.139 193.859 257.576C193.598 258.008 193.249 258.355 192.811 258.616C192.379 258.872 191.899 259 191.371 259ZM191.371 257.936C191.702 257.936 192.003 257.853 192.275 257.688C192.553 257.523 192.774 257.304 192.939 257.032C193.105 256.755 193.187 256.451 193.187 256.12C193.187 255.789 193.105 255.488 192.939 255.216C192.774 254.939 192.553 254.717 192.275 254.552C192.003 254.387 191.702 254.304 191.371 254.304C191.041 254.304 190.737 254.387 190.459 254.552C190.187 254.717 189.969 254.939 189.803 255.216C189.638 255.488 189.555 255.789 189.555 256.12C189.555 256.451 189.638 256.755 189.803 257.032C189.969 257.304 190.187 257.523 190.459 257.688C190.737 257.853 191.041 257.936 191.371 257.936ZM210.276 265.24C209.471 265.24 208.746 265.107 208.1 264.84C207.46 264.568 206.93 264.184 206.508 263.688C206.092 263.192 205.82 262.603 205.692 261.92L206.892 261.72C207.084 262.467 207.49 263.053 208.108 263.48C208.727 263.901 209.466 264.112 210.324 264.112C210.89 264.112 211.396 264.024 211.844 263.848C212.292 263.667 212.644 263.411 212.9 263.08C213.156 262.749 213.284 262.357 213.284 261.904C213.284 261.605 213.231 261.352 213.124 261.144C213.018 260.931 212.876 260.755 212.7 260.616C212.524 260.477 212.332 260.363 212.124 260.272C211.916 260.176 211.714 260.099 211.516 260.04L208.596 259.168C208.244 259.067 207.919 258.939 207.62 258.784C207.322 258.624 207.06 258.435 206.836 258.216C206.618 257.992 206.447 257.731 206.324 257.432C206.202 257.133 206.14 256.792 206.14 256.408C206.14 255.757 206.311 255.195 206.652 254.72C206.994 254.245 207.46 253.88 208.052 253.624C208.644 253.368 209.319 253.243 210.076 253.248C210.844 253.248 211.53 253.384 212.132 253.656C212.74 253.928 213.242 254.317 213.636 254.824C214.031 255.325 214.292 255.92 214.42 256.608L213.188 256.832C213.108 256.331 212.924 255.896 212.636 255.528C212.348 255.16 211.98 254.877 211.532 254.68C211.09 254.477 210.602 254.373 210.068 254.368C209.551 254.368 209.09 254.456 208.684 254.632C208.284 254.803 207.967 255.037 207.732 255.336C207.498 255.635 207.38 255.976 207.38 256.36C207.38 256.749 207.487 257.061 207.7 257.296C207.919 257.531 208.186 257.715 208.5 257.848C208.82 257.981 209.13 258.091 209.428 258.176L211.684 258.84C211.919 258.904 212.194 258.997 212.508 259.12C212.828 259.237 213.138 259.408 213.436 259.632C213.74 259.851 213.991 260.139 214.188 260.496C214.386 260.853 214.484 261.307 214.484 261.856C214.484 262.389 214.378 262.867 214.164 263.288C213.956 263.709 213.66 264.064 213.276 264.352C212.898 264.64 212.452 264.859 211.94 265.008C211.434 265.163 210.879 265.24 210.276 265.24ZM220.016 265.24C219.221 265.24 218.549 265.04 218 264.64C217.45 264.235 217.034 263.688 216.752 263C216.469 262.307 216.328 261.531 216.328 260.672C216.328 259.797 216.469 259.019 216.752 258.336C217.04 257.648 217.461 257.107 218.016 256.712C218.57 256.317 219.253 256.12 220.064 256.12C220.853 256.12 221.53 256.32 222.096 256.72C222.661 257.12 223.093 257.664 223.392 258.352C223.696 259.04 223.848 259.813 223.848 260.672C223.848 261.536 223.696 262.312 223.392 263C223.088 263.688 222.65 264.235 222.08 264.64C221.509 265.04 220.821 265.24 220.016 265.24ZM216.128 268.84V256.36H217.184V262.864H217.312V268.84H216.128ZM219.896 264.144C220.498 264.144 221 263.992 221.4 263.688C221.8 263.384 222.098 262.971 222.296 262.448C222.498 261.92 222.6 261.328 222.6 260.672C222.6 260.021 222.501 259.435 222.304 258.912C222.106 258.389 221.805 257.976 221.4 257.672C221 257.368 220.49 257.216 219.872 257.216C219.269 257.216 218.768 257.363 218.368 257.656C217.973 257.949 217.677 258.357 217.48 258.88C217.282 259.397 217.184 259.995 217.184 260.672C217.184 261.339 217.282 261.936 217.48 262.464C217.677 262.987 217.976 263.397 218.376 263.696C218.776 263.995 219.282 264.144 219.896 264.144ZM228.076 265.24C227.426 265.24 226.879 265.123 226.436 264.888C225.999 264.653 225.671 264.341 225.452 263.952C225.234 263.563 225.124 263.139 225.124 262.68C225.124 262.211 225.218 261.811 225.404 261.48C225.596 261.144 225.855 260.869 226.18 260.656C226.511 260.443 226.892 260.28 227.324 260.168C227.762 260.061 228.244 259.968 228.772 259.888C229.306 259.803 229.826 259.731 230.332 259.672C230.844 259.608 231.292 259.547 231.676 259.488L231.26 259.744C231.276 258.891 231.111 258.259 230.764 257.848C230.418 257.437 229.815 257.232 228.956 257.232C228.364 257.232 227.863 257.365 227.452 257.632C227.047 257.899 226.762 258.32 226.596 258.896L225.452 258.56C225.65 257.787 226.047 257.187 226.644 256.76C227.242 256.333 228.018 256.12 228.972 256.12C229.762 256.12 230.431 256.269 230.98 256.568C231.535 256.861 231.927 257.288 232.156 257.848C232.263 258.099 232.332 258.379 232.364 258.688C232.396 258.997 232.412 259.312 232.412 259.632V265H231.364V262.832L231.668 262.96C231.375 263.701 230.919 264.267 230.3 264.656C229.682 265.045 228.94 265.24 228.076 265.24ZM228.212 264.224C228.762 264.224 229.242 264.125 229.652 263.928C230.063 263.731 230.394 263.461 230.644 263.12C230.895 262.773 231.058 262.384 231.132 261.952C231.196 261.675 231.231 261.371 231.236 261.04C231.242 260.704 231.244 260.453 231.244 260.288L231.692 260.52C231.292 260.573 230.858 260.627 230.388 260.68C229.924 260.733 229.466 260.795 229.012 260.864C228.564 260.933 228.159 261.016 227.796 261.112C227.551 261.181 227.314 261.28 227.084 261.408C226.855 261.531 226.666 261.696 226.516 261.904C226.372 262.112 226.3 262.371 226.3 262.68C226.3 262.931 226.362 263.173 226.484 263.408C226.612 263.643 226.815 263.837 227.092 263.992C227.375 264.147 227.748 264.224 228.212 264.224ZM237.847 265.24C237.042 265.24 236.354 265.04 235.783 264.64C235.212 264.235 234.775 263.688 234.471 263C234.167 262.312 234.015 261.536 234.015 260.672C234.015 259.813 234.164 259.04 234.463 258.352C234.767 257.664 235.202 257.12 235.767 256.72C236.332 256.32 237.01 256.12 237.799 256.12C238.61 256.12 239.292 256.317 239.847 256.712C240.402 257.107 240.82 257.648 241.103 258.336C241.391 259.019 241.535 259.797 241.535 260.672C241.535 261.531 241.394 262.307 241.111 263C240.828 263.688 240.412 264.235 239.863 264.64C239.314 265.04 238.642 265.24 237.847 265.24ZM237.967 264.144C238.58 264.144 239.087 263.995 239.487 263.696C239.887 263.397 240.186 262.987 240.383 262.464C240.58 261.936 240.679 261.339 240.679 260.672C240.679 259.995 240.58 259.397 240.383 258.88C240.186 258.357 239.887 257.949 239.487 257.656C239.092 257.363 238.594 257.216 237.991 257.216C237.372 257.216 236.86 257.368 236.455 257.672C236.05 257.976 235.748 258.389 235.551 258.912C235.359 259.435 235.263 260.021 235.263 260.672C235.263 261.328 235.362 261.92 235.559 262.448C235.762 262.971 236.063 263.384 236.463 263.688C236.863 263.992 237.364 264.144 237.967 264.144ZM240.679 265V258.496H240.551V253.48H241.735V265H240.679ZM247.635 265.24C246.793 265.24 246.062 265.053 245.443 264.68C244.83 264.307 244.353 263.781 244.011 263.104C243.67 262.427 243.499 261.632 243.499 260.72C243.499 259.776 243.667 258.96 244.003 258.272C244.339 257.584 244.811 257.053 245.419 256.68C246.033 256.307 246.755 256.12 247.587 256.12C248.441 256.12 249.169 256.317 249.771 256.712C250.374 257.101 250.83 257.661 251.139 258.392C251.449 259.123 251.59 259.995 251.563 261.008H250.363V260.592C250.342 259.472 250.099 258.627 249.635 258.056C249.177 257.485 248.505 257.2 247.619 257.2C246.691 257.2 245.979 257.501 245.483 258.104C244.993 258.707 244.747 259.565 244.747 260.68C244.747 261.768 244.993 262.613 245.483 263.216C245.979 263.813 246.681 264.112 247.587 264.112C248.206 264.112 248.745 263.971 249.203 263.688C249.667 263.4 250.033 262.987 250.299 262.448L251.395 262.872C251.054 263.624 250.55 264.208 249.883 264.624C249.222 265.035 248.473 265.24 247.635 265.24ZM244.331 261.008V260.024H250.931V261.008H244.331ZM253.331 265L253.339 253.48H254.523V260.52L258.379 256.36H259.947L255.899 260.68L260.475 265H258.763L254.523 260.84V265H253.331Z" fill="#0B0528"/>
<defs>
<linearGradient id="paint0_linear_32171_16019" x1="423" y1="349" x2="144.5" y2="71.5" gradientUnits="userSpaceOnUse">
<stop stop-color="#17EC20" stop-opacity="0"/>
<stop offset="1" stop-color="#17EC20"/>
</linearGradient>
<linearGradient id="paint1_linear_32171_16019" x1="433" y1="360" x2="229" y2="156" gradientUnits="userSpaceOnUse">
<stop stop-color="#17EC20" stop-opacity="0"/>
<stop offset="1" stop-color="#17EC20"/>
</linearGradient>
<linearGradient id="paint2_linear_32171_16019" x1="420" y1="354.5" x2="301" y2="256.5" gradientUnits="userSpaceOnUse">
<stop stop-color="#17EC20" stop-opacity="0"/>
<stop offset="1" stop-color="#17EC20"/>
</linearGradient>
</defs>
</svg>
