<svg width="310" height="54" viewBox="0 0 310 54" fill="none" xmlns="http://www.w3.org/2000/svg">
<path fill-rule="evenodd" clip-rule="evenodd" d="M83.6124 46.2181V12.3799H74.6918V46.2181H83.6124ZM83.6124 8.32202V0H74.6918V8.32202H83.6124ZM118.291 46.2181V22.7652C118.291 15.406 113.557 11.4858 107.107 11.4858C101.686 11.4858 98.2547 13.5491 96.196 17.3318V12.3799H87.6872V46.2181H96.6078V26.823C96.6078 21.6648 98.8721 19.0512 103.538 19.0512C107.793 19.0512 109.302 20.4955 109.302 25.7226V46.2181H118.291ZM131.119 27.6595V46.2181H122.198V12.3799H130.57V16.4377C133.001 13.0867 136.237 11.6591 139.874 11.6591C142.715 11.6591 144.518 12.373 147.221 13.9831C149.557 12.3915 152.928 11.4858 157.597 11.4858C168.302 11.4858 172.008 16.3002 172.008 24.8285V46.2181H163.704C163.43 45.3927 163.224 44.2236 163.155 43.1919C161.028 45.5304 157.46 47.1123 152.931 47.1123C145.246 47.1123 141.677 43.3294 141.677 37.8273C141.677 28.0611 148.196 26.9605 157.185 25.7226C161.646 25.1036 162.881 24.2095 162.881 21.871C162.881 19.6702 160.685 18.3634 157.185 18.3634C153.137 18.3634 151.49 20.358 151.078 23.3842H142.775C142.481 21.6526 140.348 19.7492 137.741 19.7492C134.186 19.7492 131.119 21.8906 131.119 27.6595ZM163.018 33.3568C162.949 37.3459 159.518 40.716 154.921 40.716C152.108 40.716 150.598 39.4781 150.598 36.9333C150.598 34.0446 152.245 32.6003 157.323 31.6374C160.616 31.0184 162.195 30.537 163.087 29.643L163.018 33.3568ZM189.87 39.3405C193.438 39.3405 195.086 36.9333 195.086 32.7378V25.4497H203.389V33.5632C203.389 40.716 199.271 47.1123 189.733 47.1123C179.852 47.1123 175.94 40.7847 175.94 33.4943V0H184.725V12.3799H203.389V18.7073H184.725V32.6003C184.725 36.8645 186.234 39.3405 189.87 39.3405ZM63.9375 29.4108C63.9375 34.8504 59.5453 39.2602 54.1273 39.2602C48.7093 39.2602 44.3172 34.8504 44.3172 29.4108C44.3172 23.9709 48.7093 19.5612 54.1273 19.5612C59.5453 19.5612 63.9375 23.9709 63.9375 29.4108ZM71.8952 29.4108C71.8952 39.2631 63.9404 47.25 54.1273 47.25C44.3143 47.25 36.3593 39.2631 36.3593 29.4108C36.3593 19.5583 44.3143 11.5714 54.1273 11.5714C63.9404 11.5714 71.8952 19.5583 71.8952 29.4108ZM26.5085 33.8877C24.8847 37.0769 21.5804 39.2602 17.7681 39.2602C12.35 39.2602 7.95789 34.8504 7.95789 29.4108C7.95789 23.9709 12.35 19.5612 17.7681 19.5612C21.5804 19.5612 24.8847 21.7444 26.5085 24.9337H34.9719C32.9934 17.2483 26.041 11.5714 17.7681 11.5714C7.95502 11.5714 0 19.5583 0 29.4108C0 39.2631 7.95502 47.25 17.7681 47.25C26.041 47.25 32.9934 41.5732 34.9719 33.8877H26.5085ZM230.655 36.5052C228.891 38.2111 226.492 39.2602 223.85 39.2602C219.21 39.2602 215.324 36.0276 214.303 31.6837H233.398H238.05H241.475C241.569 30.9393 241.618 30.1808 241.618 29.4108C241.618 19.5583 233.662 11.5714 223.85 11.5714C214.036 11.5714 206.081 19.5583 206.081 29.4108C206.081 39.2631 214.036 47.25 223.85 47.25C231.152 47.25 237.425 42.8277 240.157 36.5052H230.655ZM223.85 19.5612C219.768 19.5612 216.27 22.063 214.791 25.6225H232.908C231.43 22.063 227.931 19.5612 223.85 19.5612Z" fill="#CBEF43"/>
<path d="M308.315 27C308.315 13.0203 297 1.6875 283.043 1.6875C269.086 1.6875 257.771 13.0203 257.771 27C257.771 40.9797 269.086 52.3125 283.043 52.3125C297 52.3125 308.315 40.9797 308.315 27Z" fill="#121724"/>
<path fill-rule="evenodd" clip-rule="evenodd" d="M283.042 54C297.931 54 309.999 41.9118 309.999 27C309.999 12.0883 297.931 0 283.042 0C268.154 0 256.086 12.0883 256.086 27C256.086 41.9118 268.154 54 283.042 54ZM292.373 6.29608C290.083 6.29608 288.227 8.15582 288.227 10.4499V38.0268C288.227 40.321 290.083 42.1808 292.373 42.1808C294.664 42.1808 296.521 40.321 296.521 38.0268V10.4499C296.521 8.15582 294.664 6.29608 292.373 6.29608ZM277.282 24.3537C277.282 22.0916 279.114 20.2576 281.373 20.2576C283.63 20.2576 285.462 22.0916 285.462 24.3537V47.3153C285.462 49.5776 283.63 51.4114 281.373 51.4114C279.114 51.4114 277.282 49.5776 277.282 47.3153V24.3537ZM270.371 30.1806C268.08 30.1806 266.223 32.0404 266.223 34.3345V42.296C266.223 44.5902 268.08 46.45 270.371 46.45C272.661 46.45 274.517 44.5902 274.517 42.296V34.3345C274.517 32.0404 272.661 30.1806 270.371 30.1806Z" fill="#CBEF43"/>
</svg>
