<svg width="265" height="17" viewBox="0 0 265 17" fill="none" xmlns="http://www.w3.org/2000/svg">
<path d="M248.959 16.4998V0.5H252.368L261.747 11.6554V0.5H265V16.4998H261.591L252.168 5.29995V16.4998H248.959Z" fill="#17EC20"/>
<path d="M233.673 16.4998C233.079 16.4998 232.537 16.3591 232.047 16.0776C231.572 15.7813 231.186 15.3961 230.889 14.9221C230.606 14.4332 230.465 13.8924 230.465 13.2999V3.69996C230.465 3.10738 230.606 2.57405 230.889 2.09998C231.186 1.6111 231.572 1.22592 232.047 0.944439C232.537 0.648146 233.079 0.5 233.673 0.5H243.298C243.877 0.5 244.404 0.648146 244.88 0.944439C245.37 1.22592 245.763 1.6111 246.06 2.09998C246.357 2.57405 246.506 3.10738 246.506 3.69996V13.2999C246.506 13.8924 246.357 14.4332 246.06 14.9221C245.763 15.3961 245.37 15.7813 244.88 16.0776C244.404 16.3591 243.877 16.4998 243.298 16.4998H233.673ZM233.807 13.2776H243.12C243.164 13.2776 243.194 13.2702 243.209 13.2554C243.238 13.2258 243.253 13.1887 243.253 13.1443V3.85552C243.253 3.81107 243.238 3.78144 243.209 3.76663C243.194 3.737 243.164 3.72218 243.12 3.72218H233.807C233.763 3.72218 233.725 3.737 233.696 3.76663C233.681 3.78144 233.673 3.81107 233.673 3.85552V13.1443C233.673 13.1887 233.681 13.2258 233.696 13.2554C233.725 13.2702 233.763 13.2776 233.807 13.2776Z" fill="#17EC20"/>
<path d="M225.3 16.4998V0.5H228.486V16.4998H225.3Z" fill="#17EC20"/>
<path d="M214.455 16.4998V3.72218H208.039V0.5H224.079V3.72218H217.685V16.4998H214.455Z" fill="#17EC20"/>
<path d="M190.262 16.4998V3.69996C190.262 3.10738 190.403 2.57405 190.686 2.09998C190.983 1.6111 191.369 1.22592 191.844 0.944439C192.334 0.648146 192.876 0.5 193.47 0.5H203.072C203.666 0.5 204.201 0.648146 204.676 0.944439C205.167 1.22592 205.56 1.6111 205.857 2.09998C206.154 2.57405 206.303 3.10738 206.303 3.69996V16.4998H203.05V11.2332H193.47V16.4998H190.262ZM193.47 8.03325H203.05V3.85552C203.05 3.81107 203.035 3.78144 203.006 3.76663C202.991 3.737 202.961 3.72218 202.916 3.72218H193.604C193.559 3.72218 193.522 3.737 193.493 3.76663C193.478 3.78144 193.47 3.81107 193.47 3.85552V8.03325Z" fill="#17EC20"/>
<path d="M184.443 16.5001L179.697 10.8557H183.908L187.829 15.5001V16.5001H184.443ZM171.833 16.5001V0.522461H184.643C185.237 0.522461 185.772 0.670607 186.247 0.9669C186.737 1.24838 187.131 1.63356 187.428 2.12244C187.725 2.61133 187.874 3.14465 187.874 3.72242V7.9446C187.874 8.52237 187.725 9.0557 187.428 9.54458C187.131 10.0186 186.737 10.4038 186.247 10.7001C185.772 10.9816 185.237 11.1223 184.643 11.1223L175.041 11.1446V16.5001H171.833ZM175.175 7.90016H184.487C184.532 7.90016 184.562 7.89275 184.576 7.87793C184.606 7.8483 184.621 7.81867 184.621 7.78905V3.85576C184.621 3.81131 184.606 3.78168 184.576 3.76687C184.562 3.73724 184.532 3.72242 184.487 3.72242H175.175C175.13 3.72242 175.093 3.73724 175.063 3.76687C175.049 3.78168 175.041 3.81131 175.041 3.85576V7.78905C175.041 7.81867 175.049 7.8483 175.063 7.87793C175.093 7.89275 175.13 7.90016 175.175 7.90016Z" fill="#17EC20"/>
<path d="M156.547 16.4998C155.953 16.4998 155.411 16.3591 154.921 16.0776C154.446 15.7813 154.06 15.3961 153.763 14.9221C153.48 14.4332 153.339 13.8924 153.339 13.2999V3.69996C153.339 3.10738 153.48 2.57405 153.763 2.09998C154.06 1.6111 154.446 1.22592 154.921 0.944439C155.411 0.648146 155.953 0.5 156.547 0.5H166.172C166.751 0.5 167.278 0.648146 167.754 0.944439C168.244 1.22592 168.637 1.6111 168.934 2.09998C169.231 2.57405 169.38 3.10738 169.38 3.69996V13.2999C169.38 13.8924 169.231 14.4332 168.934 14.9221C168.637 15.3961 168.244 15.7813 167.754 16.0776C167.278 16.3591 166.751 16.4998 166.172 16.4998H156.547ZM156.681 13.2776H165.994C166.038 13.2776 166.068 13.2702 166.083 13.2554C166.112 13.2258 166.127 13.1887 166.127 13.1443V3.85552C166.127 3.81107 166.112 3.78144 166.083 3.76663C166.068 3.737 166.038 3.72218 165.994 3.72218H156.681C156.637 3.72218 156.599 3.737 156.57 3.76663C156.555 3.78144 156.547 3.81107 156.547 3.85552V13.1443C156.547 13.1887 156.555 13.2258 156.57 13.2554C156.599 13.2702 156.637 13.2776 156.681 13.2776Z" fill="#17EC20"/>
<path d="M135.761 16.5001V0.522461H148.571C149.166 0.522461 149.7 0.670607 150.175 0.9669C150.666 1.24838 151.059 1.63356 151.356 2.12244C151.653 2.61133 151.802 3.14465 151.802 3.72242V7.9446C151.802 8.52237 151.653 9.0557 151.356 9.54458C151.059 10.0186 150.666 10.4038 150.175 10.7001C149.7 10.9816 149.166 11.1223 148.571 11.1223L138.969 11.1446V16.5001H135.761ZM139.103 7.90016H148.415C148.46 7.90016 148.49 7.89275 148.505 7.87793C148.534 7.8483 148.549 7.81867 148.549 7.78905V3.85576C148.549 3.81131 148.534 3.78168 148.505 3.76687C148.49 3.73724 148.46 3.72242 148.415 3.72242H139.103C139.058 3.72242 139.021 3.73724 138.992 3.76687C138.977 3.78168 138.969 3.81131 138.969 3.85576V7.78905C138.969 7.81867 138.977 7.8483 138.992 7.87793C139.021 7.89275 139.058 7.90016 139.103 7.90016Z" fill="#17EC20"/>
<path d="M129.987 16.5001L125.241 10.8557H129.452L133.373 15.5001V16.5001H129.987ZM117.377 16.5001V0.522461H130.187C130.781 0.522461 131.316 0.670607 131.791 0.9669C132.281 1.24838 132.675 1.63356 132.972 2.12244C133.269 2.61133 133.418 3.14465 133.418 3.72242V7.9446C133.418 8.52237 133.269 9.0557 132.972 9.54458C132.675 10.0186 132.281 10.4038 131.791 10.7001C131.316 10.9816 130.781 11.1223 130.187 11.1223L120.585 11.1446V16.5001H117.377ZM120.719 7.90016H130.031C130.076 7.90016 130.105 7.89275 130.12 7.87793C130.15 7.8483 130.165 7.81867 130.165 7.78905V3.85576C130.165 3.81131 130.15 3.78168 130.12 3.76687C130.105 3.73724 130.076 3.72242 130.031 3.72242H120.719C120.674 3.72242 120.637 3.73724 120.607 3.76687C120.592 3.78168 120.585 3.81131 120.585 3.85576V7.78905C120.585 7.81867 120.592 7.8483 120.607 7.87793C120.637 7.89275 120.674 7.90016 120.719 7.90016Z" fill="#17EC20"/>
<path d="M102.091 16.4998C101.497 16.4998 100.955 16.3591 100.465 16.0776C99.9898 15.7813 99.6036 15.3961 99.3066 14.9221C99.0244 14.4332 98.8833 13.8924 98.8833 13.2999V3.69996C98.8833 3.10738 99.0244 2.57405 99.3066 2.09998C99.6036 1.6111 99.9898 1.22592 100.465 0.944439C100.955 0.648146 101.497 0.5 102.091 0.5H111.716C112.295 0.5 112.822 0.648146 113.298 0.944439C113.788 1.22592 114.181 1.6111 114.478 2.09998C114.775 2.57405 114.924 3.10738 114.924 3.69996V13.2999C114.924 13.8924 114.775 14.4332 114.478 14.9221C114.181 15.3961 113.788 15.7813 113.298 16.0776C112.822 16.3591 112.295 16.4998 111.716 16.4998H102.091ZM102.225 13.2776H111.538C111.582 13.2776 111.612 13.2702 111.627 13.2554C111.656 13.2258 111.671 13.1887 111.671 13.1443V3.85552C111.671 3.81107 111.656 3.78144 111.627 3.76663C111.612 3.737 111.582 3.72218 111.538 3.72218H102.225C102.181 3.72218 102.143 3.737 102.114 3.76663C102.099 3.78144 102.091 3.81107 102.091 3.85552V13.1443C102.091 13.1887 102.099 13.2258 102.114 13.2554C102.143 13.2702 102.181 13.2776 102.225 13.2776Z" fill="#17EC20"/>
<path d="M83.817 16.4998C83.2229 16.4998 82.6808 16.3591 82.1907 16.0776C81.7154 15.7813 81.3292 15.3961 81.0322 14.9221C80.75 14.4332 80.6089 13.8924 80.6089 13.2999V3.69996C80.6089 3.10738 80.75 2.57405 81.0322 2.09998C81.3292 1.6111 81.7154 1.22592 82.1907 0.944439C82.6808 0.648146 83.2229 0.5 83.817 0.5H96.6049V3.72218H84.5745C84.3368 3.72218 84.1512 3.78885 84.0175 3.92218C83.8838 4.0407 83.817 4.22588 83.817 4.47773V12.5221C83.817 12.7591 83.8838 12.9443 84.0175 13.0776C84.1512 13.211 84.3368 13.2776 84.5745 13.2776H96.6049V16.4998H83.817Z" fill="#17EC20"/>
<path d="M55.2788 16.4998V15.4998L61.1604 8.49991L55.2788 1.49999V0.5H58.6874L63.2991 5.9666L67.8885 0.5H71.2748V1.49999L65.3933 8.49991L71.2971 15.4776V16.4998H67.8885L63.2545 11.0554L58.6874 16.4998H55.2788Z" fill="#17EC20"/>
<path d="M36.9229 16.4998V3.69996C36.9229 3.10738 37.0639 2.57405 37.3461 2.09998C37.6432 1.6111 38.0294 1.22592 38.5046 0.944439C38.9948 0.648146 39.5369 0.5 40.131 0.5H49.733C50.3271 0.5 50.8618 0.648146 51.3371 0.944439C51.8272 1.22592 52.2208 1.6111 52.5179 2.09998C52.8149 2.57405 52.9634 3.10738 52.9634 3.69996V16.4998H49.7108V11.2332H40.131V16.4998H36.9229ZM40.131 8.03325H49.7108V3.85552C49.7108 3.81107 49.6959 3.78144 49.6662 3.76663C49.6513 3.737 49.6216 3.72218 49.5771 3.72218H40.2646C40.2201 3.72218 40.1829 3.737 40.1532 3.76663C40.1384 3.78144 40.131 3.81107 40.131 3.85552V8.03325Z" fill="#17EC20"/>
<path d="M31.1033 16.5001L26.358 10.8557H30.5686L34.4897 15.5001V16.5001H31.1033ZM18.4937 16.5001V0.522461H31.3038C31.8979 0.522461 32.4326 0.670607 32.9079 0.9669C33.398 1.24838 33.7916 1.63356 34.0887 2.12244C34.3857 2.61133 34.5342 3.14465 34.5342 3.72242V7.9446C34.5342 8.52237 34.3857 9.0557 34.0887 9.54458C33.7916 10.0186 33.398 10.4038 32.9079 10.7001C32.4326 10.9816 31.8979 11.1223 31.3038 11.1223L21.7018 11.1446V16.5001H18.4937ZM21.8354 7.90016H31.1479C31.1924 7.90016 31.2221 7.89275 31.237 7.87793C31.2667 7.8483 31.2816 7.81867 31.2816 7.78905V3.85576C31.2816 3.81131 31.2667 3.78168 31.237 3.76687C31.2221 3.73724 31.1924 3.72242 31.1479 3.72242H21.8354C21.7909 3.72242 21.7538 3.73724 21.724 3.76687C21.7092 3.78168 21.7018 3.81131 21.7018 3.85576V7.78905C21.7018 7.81867 21.7092 7.8483 21.724 7.87793C21.7538 7.89275 21.7909 7.90016 21.8354 7.90016Z" fill="#17EC20"/>
<path d="M3.20812 16.4998C2.61402 16.4998 2.07191 16.3591 1.58178 16.0776C1.1065 15.7813 0.720341 15.3961 0.423293 14.9221C0.141098 14.4332 0 13.8924 0 13.2999V3.69996C0 3.10738 0.141098 2.57405 0.423293 2.09998C0.720341 1.6111 1.1065 1.22592 1.58178 0.944439C2.07191 0.648146 2.61402 0.5 3.20812 0.5H12.8325C13.4117 0.5 13.939 0.648146 14.4142 0.944439C14.9044 1.22592 15.298 1.6111 15.595 2.09998C15.8921 2.57405 16.0406 3.10738 16.0406 3.69996V13.2999C16.0406 13.8924 15.8921 14.4332 15.595 14.9221C15.298 15.3961 14.9044 15.7813 14.4142 16.0776C13.939 16.3591 13.4117 16.4998 12.8325 16.4998H3.20812ZM3.34179 13.2776H12.6542C12.6988 13.2776 12.7285 13.2702 12.7433 13.2554C12.7731 13.2258 12.7879 13.1887 12.7879 13.1443V3.85552C12.7879 3.81107 12.7731 3.78144 12.7433 3.76663C12.7285 3.737 12.6988 3.72218 12.6542 3.72218H3.34179C3.29723 3.72218 3.2601 3.737 3.23039 3.76663C3.21554 3.78144 3.20812 3.81107 3.20812 3.85552V13.1443C3.20812 13.1887 3.21554 13.2258 3.23039 13.2554C3.2601 13.2702 3.29723 13.2776 3.34179 13.2776Z" fill="#17EC20"/>
</svg>
