<svg width="246" height="128" viewBox="0 0 246 128" fill="none" xmlns="http://www.w3.org/2000/svg">
<g clip-path="url(#clip0_32171_13985)">
<path d="M10.4541 9.26874V3.6709H12.6569C13.7889 3.6709 14.53 4.33038 14.53 5.33901V5.34678C14.53 6.12264 14.0821 6.72393 13.3491 6.94506L14.7091 9.26874H13.85L12.5918 7.05364H11.187V9.26874H10.4541ZM11.187 6.43685H12.5918C13.345 6.43685 13.7726 6.04893 13.7726 5.36227V5.3545C13.7726 4.68727 13.3125 4.29159 12.5592 4.29159H11.187V6.43685ZM17.087 9.34634C15.8696 9.34634 15.1366 8.53557 15.1366 7.267V7.26316C15.1366 6.01401 15.8858 5.15668 17.0422 5.15668C18.1986 5.15668 18.903 5.97522 18.903 7.18557V7.43384H15.8533C15.8696 8.26399 16.35 8.74893 17.1033 8.74893C17.6408 8.74893 18.0195 8.49289 18.1416 8.14764L18.1538 8.11273H18.8501L18.842 8.15153C18.7035 8.81876 18.0113 9.34634 17.087 9.34634ZM17.0381 5.75409C16.4233 5.75409 15.9429 6.15367 15.8655 6.90626H18.1823C18.1131 6.12264 17.6571 5.75409 17.0381 5.75409ZM20.9959 9.34634C20.2182 9.34634 19.8355 9.0127 19.8355 8.24073V5.79288H19.2166V5.23427H19.8355V4.14418H20.5684V5.23427H21.3746V5.79288H20.5684V8.23684C20.5684 8.66745 20.7679 8.78773 21.1466 8.78773C21.2321 8.78773 21.3135 8.77608 21.3746 8.77219V9.31919C21.285 9.3308 21.1343 9.34634 20.9959 9.34634ZM23.5815 9.34634C22.6531 9.34634 22.1157 8.77219 22.1157 7.8528V5.23427H22.8242V7.73252C22.8242 8.38815 23.1458 8.74893 23.7973 8.74893C24.4651 8.74893 24.9007 8.29502 24.9007 7.60841V5.23427H25.6092V9.26874H24.9007V8.6946H24.8844C24.6565 9.07092 24.2248 9.34634 23.5815 9.34634ZM26.5335 9.26874V5.23427H27.242V5.917H27.2583C27.4008 5.45152 27.7673 5.15668 28.2437 5.15668C28.3658 5.15668 28.4717 5.17605 28.5287 5.18382V5.83945C28.4717 5.82003 28.321 5.80065 28.15 5.80065C27.6003 5.80065 27.242 6.16532 27.242 6.77822V9.26874H26.5335ZM29.1069 9.26874V5.23427H29.8154V5.80842H29.8317C30.0597 5.4321 30.4913 5.15668 31.1346 5.15668C32.063 5.15668 32.6005 5.73082 32.6005 6.65022V9.26874H31.892V6.77045C31.892 6.11487 31.5703 5.75409 30.9188 5.75409C30.251 5.75409 29.8154 6.20796 29.8154 6.89461V9.26874H29.1069Z" fill="#0F141F"/>
<path d="M42.3123 6.62093C42.3123 5.15833 41.0678 3.97266 39.5326 3.97266C37.9974 3.97266 36.7529 5.15833 36.7529 6.62093C36.7529 8.08353 37.9974 9.26921 39.5326 9.26921C41.0678 9.26921 42.3123 8.08353 42.3123 6.62093Z" fill="#1A202D"/>
<path d="M54.1533 9.26874V3.6709H56.2459C57.3495 3.6709 58.1315 4.39633 58.1315 5.45924V5.46701C58.1315 6.52994 57.3495 7.27089 56.2459 7.27089H54.8862V9.26874H54.1533ZM56.0588 4.29159H54.8862V6.65022H56.0588C56.8973 6.65022 57.3819 6.21184 57.3819 5.47478V5.46701C57.3819 4.72995 56.8973 4.29159 56.0588 4.29159ZM60.4154 9.34634C59.2387 9.34634 58.453 8.53557 58.453 7.25151V7.24374C58.453 5.95968 59.2429 5.15668 60.4113 5.15668C61.5801 5.15668 62.3742 5.9558 62.3742 7.24374V7.25151C62.3742 8.53945 61.5843 9.34634 60.4154 9.34634ZM60.4196 8.74893C61.1646 8.74893 61.6491 8.19805 61.6491 7.25151V7.24374C61.6491 6.2972 61.1608 5.75409 60.4113 5.75409C59.6747 5.75409 59.1776 6.30109 59.1776 7.24374V7.25151C59.1776 8.20193 59.6705 8.74893 60.4196 8.74893ZM64.5933 9.34634C63.5954 9.34634 62.9931 8.8614 62.9074 8.13987L62.9032 8.10496H63.612L63.6199 8.14376C63.7056 8.54718 64.0193 8.78385 64.5974 8.78385C65.1714 8.78385 65.5133 8.55495 65.5133 8.19028V8.18644C65.5133 7.89548 65.3544 7.73252 64.874 7.62002L64.2023 7.46487C63.404 7.28254 63.0172 6.92952 63.0172 6.34761V6.34372C63.0172 5.64935 63.6565 5.15668 64.5729 5.15668C65.5013 5.15668 66.0915 5.67261 66.1443 6.34761L66.1485 6.39806H65.4726L65.4684 6.37091C65.4114 5.9791 65.0982 5.71917 64.5729 5.71917C64.0596 5.71917 63.7422 5.9558 63.7422 6.3127V6.31658C63.7422 6.592 63.9336 6.7821 64.4019 6.89073L65.0737 7.04591C65.9289 7.24374 66.2384 7.56573 66.2384 8.13987V8.14376C66.2384 8.84979 65.5379 9.34634 64.5933 9.34634ZM67.3743 4.5515C67.1297 4.5515 66.9305 4.36142 66.9305 4.12866C66.9305 3.89202 67.1297 3.70581 67.3743 3.70581C67.6226 3.70581 67.8181 3.89202 67.8181 4.12866C67.8181 4.36142 67.6226 4.5515 67.3743 4.5515ZM67.0199 9.26874V5.23427H67.7283V9.26874H67.0199ZM70.0697 9.34634C69.2918 9.34634 68.9092 9.0127 68.9092 8.24073V5.79288H68.2902V5.23427H68.9092V4.14418H69.6421V5.23427H70.4482V5.79288H69.6421V8.23684C69.6421 8.66745 69.8417 8.78773 70.2202 8.78773C70.3059 8.78773 70.3875 8.77608 70.4482 8.77219V9.31919C70.3587 9.3308 70.2082 9.34634 70.0697 9.34634ZM71.6087 4.5515C71.3645 4.5515 71.1648 4.36142 71.1648 4.12866C71.1648 3.89202 71.3645 3.70581 71.6087 3.70581C71.857 3.70581 72.0525 3.89202 72.0525 4.12866C72.0525 4.36142 71.857 4.5515 71.6087 4.5515ZM71.2547 9.26874V5.23427H71.9631V9.26874H71.2547ZM74.121 9.26874L72.5616 5.23427H73.3066L74.4754 8.55106H74.4916L75.6642 5.23427H76.4013L74.846 9.26874H74.121ZM78.5388 9.34634C77.3213 9.34634 76.5884 8.53557 76.5884 7.267V7.26316C76.5884 6.01401 77.338 5.15668 78.4943 5.15668C79.6507 5.15668 80.3549 5.97522 80.3549 7.18557V7.43384H77.3051C77.3213 8.26399 77.8017 8.74893 78.555 8.74893C79.0929 8.74893 79.4714 8.49289 79.5937 8.14764L79.6058 8.11273H80.3021L80.2937 8.15153C80.1557 8.81876 79.4631 9.34634 78.5388 9.34634ZM78.4902 5.75409C77.8754 5.75409 77.395 6.15367 77.3176 6.90626H79.6345C79.565 6.12264 79.1091 5.75409 78.4902 5.75409Z" fill="#0F141F"/>
<path d="M90.029 6.62093C90.029 5.15833 88.7846 3.97266 87.2494 3.97266C85.7142 3.97266 84.4697 5.15833 84.4697 6.62093C84.4697 8.08353 85.7142 9.26921 87.2494 9.26921C88.7846 9.26921 90.029 8.08353 90.029 6.62093Z" fill="#3A65FE"/>
<path d="M101.758 9.26874V3.6709H102.471L105.704 8.08942H105.724V3.6709H106.448V9.26874H105.736L102.503 4.85023H102.483V9.26874H101.758ZM109.222 9.34634C108.004 9.34634 107.271 8.53557 107.271 7.267V7.26316C107.271 6.01401 108.02 5.15668 109.177 5.15668C110.333 5.15668 111.038 5.97522 111.038 7.18557V7.43384H107.988C108.004 8.26399 108.485 8.74893 109.238 8.74893C109.775 8.74893 110.154 8.49289 110.276 8.14764L110.288 8.11273H110.984L110.977 8.15153C110.838 8.81876 110.146 9.34634 109.222 9.34634ZM109.173 5.75409C108.558 5.75409 108.077 6.15367 108 6.90626H110.317C110.248 6.12264 109.791 5.75409 109.173 5.75409ZM113.2 9.34634C112.271 9.34634 111.734 8.77219 111.734 7.8528V5.23427H112.442V7.73252C112.442 8.38815 112.764 8.74893 113.415 8.74893C114.083 8.74893 114.519 8.29502 114.519 7.60841V5.23427H115.228V9.26874H114.519V8.6946H114.503C114.275 9.07092 113.843 9.34634 113.2 9.34634ZM117.528 9.34634C116.75 9.34634 116.368 9.0127 116.368 8.24073V5.79288H115.749V5.23427H116.368V4.14418H117.101V5.23427H117.907V5.79288H117.101V8.23684C117.101 8.66745 117.3 8.78773 117.679 8.78773C117.764 8.78773 117.846 8.77608 117.907 8.77219V9.31919C117.817 9.3308 117.666 9.34634 117.528 9.34634ZM118.668 9.26874V5.23427H119.377V5.917H119.393C119.535 5.45152 119.902 5.15668 120.378 5.15668C120.5 5.15668 120.606 5.17605 120.663 5.18382V5.83945C120.606 5.82003 120.456 5.80065 120.285 5.80065C119.735 5.80065 119.377 6.16532 119.377 6.77822V9.26874H118.668ZM122.398 9.34634C121.555 9.34634 120.989 8.8614 120.989 8.12822V8.12045C120.989 7.43384 121.551 7.00323 122.524 6.9489L123.738 6.88296V6.54548C123.738 6.05281 123.399 5.75409 122.809 5.75409C122.263 5.75409 121.921 6.00236 121.84 6.36314L121.832 6.39806H121.148L121.152 6.35538C121.213 5.69203 121.82 5.15668 122.817 5.15668C123.819 5.15668 124.446 5.67261 124.446 6.47954V9.26874H123.738V8.61312H123.721C123.473 9.05538 122.964 9.34634 122.398 9.34634ZM121.714 8.12822C121.714 8.51615 122.047 8.76054 122.557 8.76054C123.224 8.76054 123.738 8.32221 123.738 7.73641V7.40665L122.605 7.47264C122.04 7.50367 121.714 7.74418 121.714 8.12045V8.12822ZM125.383 9.26874V3.6709H126.091V9.26874H125.383Z" fill="#0F141F"/>
<path d="M135.894 6.62093C135.894 5.15833 134.65 3.97266 133.115 3.97266C131.579 3.97266 130.335 5.15833 130.335 6.62093C130.335 8.08353 131.579 9.26921 133.115 9.26921C134.65 9.26921 135.894 8.08353 135.894 6.62093Z" fill="#08A667"/>
<path d="M147.711 9.26875V3.6709H148.423L151.656 8.08942H151.677V3.6709H152.402V9.26875H151.689L148.456 4.85023H148.436V9.26875H147.711ZM155.174 9.34634C153.957 9.34634 153.224 8.53557 153.224 7.267V7.26316C153.224 6.01401 153.973 5.15668 155.13 5.15668C156.286 5.15668 156.99 5.97522 156.99 7.18557V7.43384H153.941C153.957 8.26399 154.437 8.74893 155.191 8.74893C155.728 8.74893 156.107 8.49289 156.229 8.14764L156.241 8.11273H156.938L156.929 8.15153C156.791 8.81876 156.099 9.34634 155.174 9.34634ZM155.126 5.75409C154.511 5.75409 154.03 6.15367 153.953 6.90626H156.27C156.2 6.12264 155.745 5.75409 155.126 5.75409ZM159.499 10.7041C158.452 10.7041 157.793 10.2347 157.654 9.6373L157.646 9.60238H158.358L158.375 9.6373C158.509 9.92821 158.913 10.1067 159.491 10.1067C160.236 10.1067 160.659 9.71485 160.659 9.0903V8.57437H160.643C160.39 9.02047 159.902 9.30754 159.295 9.30754C158.228 9.30754 157.5 8.489 157.5 7.22825V7.22436C157.5 5.97133 158.237 5.15668 159.311 5.15668C159.91 5.15668 160.382 5.46701 160.643 5.917H160.659V5.23427H161.367V9.15624C161.367 10.0912 160.647 10.7041 159.499 10.7041ZM159.45 8.71014C160.17 8.71014 160.659 8.12434 160.659 7.22825V7.22436C160.659 6.336 160.167 5.75409 159.45 5.75409C158.697 5.75409 158.224 6.32823 158.224 7.22436V7.22825C158.224 8.14376 158.697 8.71014 159.45 8.71014ZM163.522 9.34634C162.678 9.34634 162.113 8.8614 162.113 8.12822V8.12045C162.113 7.43384 162.675 7.00323 163.648 6.9489L164.861 6.88296V6.54548C164.861 6.05281 164.523 5.75409 163.933 5.75409C163.387 5.75409 163.045 6.00236 162.964 6.36314L162.956 6.39806H162.272L162.275 6.35538C162.337 5.69203 162.943 5.15668 163.941 5.15668C164.943 5.15668 165.57 5.67261 165.57 6.47954V9.26875H164.861V8.61312H164.845C164.596 9.05538 164.087 9.34634 163.522 9.34634ZM162.837 8.12822C162.837 8.51615 163.171 8.76054 163.681 8.76054C164.348 8.76054 164.861 8.32221 164.861 7.73641V7.40665L163.729 7.47264C163.163 7.50367 162.837 7.74418 162.837 8.12045V8.12822ZM167.846 9.34634C167.068 9.34634 166.685 9.0127 166.685 8.24073V5.79288H166.066V5.23427H166.685V4.14418H167.418V5.23427H168.224V5.79288H167.418V8.23684C167.418 8.66745 167.618 8.78773 167.996 8.78773C168.082 8.78773 168.163 8.77608 168.224 8.77219V9.31919C168.135 9.3308 167.984 9.34634 167.846 9.34634ZM169.385 4.5515C169.141 4.5515 168.941 4.36142 168.941 4.12866C168.941 3.89202 169.141 3.70581 169.385 3.70581C169.633 3.70581 169.829 3.89202 169.829 4.12866C169.829 4.36142 169.633 4.5515 169.385 4.5515ZM169.03 9.26875V5.23427H169.739V9.26875H169.03ZM171.897 9.26875L170.338 5.23427H171.083L172.252 8.55106H172.268L173.44 5.23427H174.177L172.622 9.26875H171.897ZM176.315 9.34634C175.098 9.34634 174.365 8.53557 174.365 7.267V7.26316C174.365 6.01401 175.114 5.15668 176.27 5.15668C177.426 5.15668 178.131 5.97522 178.131 7.18557V7.43384H175.081C175.098 8.26399 175.578 8.74893 176.331 8.74893C176.869 8.74893 177.248 8.49289 177.369 8.14764L177.382 8.11273H178.078L178.07 8.15153C177.931 8.81876 177.239 9.34634 176.315 9.34634ZM176.266 5.75409C175.651 5.75409 175.171 6.15367 175.093 6.90626H177.41C177.341 6.12264 176.885 5.75409 176.266 5.75409Z" fill="#0F141F"/>
<path d="M187.781 6.62093C187.781 5.15833 186.537 3.97266 185.001 3.97266C183.466 3.97266 182.222 5.15833 182.222 6.62093C182.222 8.08353 183.466 9.26921 185.001 9.26921C186.537 9.26921 187.781 8.08353 187.781 6.62093Z" fill="#E03F00"/>
<path d="M11.8578 20.7447V15.8878H11.8416L10.2861 16.9197V16.2175L11.8497 15.1468H12.5663V20.7447H11.8578ZM16.0355 20.8378C14.8221 20.8378 14.0363 20.1938 13.9589 19.3093L13.9548 19.2628H14.6592L14.6633 19.3016C14.7244 19.8524 15.2537 20.2326 16.0355 20.2326C16.805 20.2326 17.3303 19.8214 17.3303 19.2279V19.2201C17.3303 18.5335 16.8132 18.1494 15.9907 18.1494H15.2537V17.5598H15.9581C16.6585 17.5598 17.1471 17.1485 17.1471 16.5899V16.5822C17.1471 15.9964 16.744 15.6589 16.0273 15.6589C15.3352 15.6589 14.8425 16.0081 14.7814 16.5744L14.7773 16.6132H14.0729L14.077 16.5744C14.1706 15.6628 14.928 15.0537 16.0273 15.0537C17.1471 15.0537 17.8841 15.6473 17.8841 16.4968V16.5046C17.8841 17.1951 17.371 17.6684 16.6381 17.8158V17.8313C17.4932 17.9011 18.0754 18.4093 18.0754 19.2046V19.2123C18.0754 20.1473 17.2122 20.8378 16.0355 20.8378ZM21.0397 20.8378C19.6879 20.8378 18.8857 19.7244 18.8857 17.9477V17.9399C18.8857 16.1632 19.6879 15.0537 21.0397 15.0537C22.3915 15.0537 23.2018 16.1632 23.2018 17.9399V17.9477C23.2018 19.7244 22.3915 20.8378 21.0397 20.8378ZM21.0397 20.2288C21.9355 20.2288 22.4648 19.352 22.4648 17.9477V17.9399C22.4648 16.5356 21.9355 15.6667 21.0397 15.6667C20.1439 15.6667 19.6227 16.5356 19.6227 17.9399V17.9477C19.6227 19.352 20.1439 20.2288 21.0397 20.2288Z" fill="#0F141F"/>
<path opacity="0.3" d="M29.3398 18.0967H245.227" stroke="#555E6F" stroke-width="1.5" stroke-linecap="round"/>
<path d="M11.8578 42.814V37.9571H11.8416L10.2861 38.989V38.2869L11.8497 37.2162H12.5663V42.814H11.8578ZM14.0566 42.814V42.333L16.1251 40.277C16.9191 39.4895 17.1023 39.1868 17.1023 38.7213V38.7136C17.0982 38.1433 16.6463 37.7321 16.007 37.7321C15.2741 37.7321 14.7284 38.2132 14.7284 38.8145V38.8338H14.02V38.8106C14.02 37.8407 14.8995 37.123 15.9948 37.123C17.0575 37.123 17.8352 37.8019 17.8352 38.6787V38.6864C17.8352 39.2994 17.538 39.761 16.459 40.8123L15.0623 42.1778V42.1933H17.9329V42.814H14.0566ZM20.828 42.9071C19.4762 42.9071 18.674 41.7938 18.674 40.017V40.0093C18.674 38.2325 19.4762 37.123 20.828 37.123C22.1798 37.123 22.9901 38.2325 22.9901 40.0093V40.017C22.9901 41.7938 22.1798 42.9071 20.828 42.9071ZM20.828 42.2981C21.7237 42.2981 22.2531 41.4213 22.2531 40.017V40.0093C22.2531 38.605 21.7237 37.736 20.828 37.736C19.9322 37.736 19.411 38.605 19.411 40.0093V40.017C19.411 41.4213 19.9322 42.2981 20.828 42.2981Z" fill="#0F141F"/>
<path opacity="0.3" d="M29.3398 40.1655H245.227" stroke="#555E6F" stroke-width="1.5" stroke-linecap="round"/>
<path d="M11.8578 64.8825V60.0256H11.8416L10.2861 61.0576V60.3553L11.8497 59.2845H12.5663V64.8825H11.8578ZM15.555 64.8825V60.0256H15.5387L13.9833 61.0576V60.3553L15.5469 59.2845H16.2635V64.8825H15.555ZM19.8019 64.9757C18.45 64.9757 17.6479 63.8621 17.6479 62.0855V62.078C17.6479 60.301 18.45 59.1914 19.8019 59.1914C21.1537 59.1914 21.964 60.301 21.964 62.078V62.0855C21.964 63.8621 21.1537 64.9757 19.8019 64.9757ZM19.8019 64.3666C20.6977 64.3666 21.227 63.49 21.227 62.0855V62.078C21.227 60.6736 20.6977 59.8045 19.8019 59.8045C18.9061 59.8045 18.3849 60.6736 18.3849 62.078V62.0855C18.3849 63.49 18.9061 64.3666 19.8019 64.3666Z" fill="#0F141F"/>
<path opacity="0.3" d="M29.3398 62.2344H245.227" stroke="#555E6F" stroke-width="1.5" stroke-linecap="round"/>
<path d="M11.8578 86.9519V82.0949H11.8416L10.2861 83.1269V82.4247L11.8497 81.3539H12.5663V86.9519H11.8578ZM16.1047 87.045C14.7529 87.045 13.9507 85.9314 13.9507 84.1549V84.1474C13.9507 82.3704 14.7529 81.2607 16.1047 81.2607C17.4565 81.2607 18.2668 82.3704 18.2668 84.1474V84.1549C18.2668 85.9314 17.4565 87.045 16.1047 87.045ZM16.1047 86.4359C17.0005 86.4359 17.5298 85.5593 17.5298 84.1549V84.1474C17.5298 82.7429 17.0005 81.8738 16.1047 81.8738C15.2089 81.8738 14.6877 82.7429 14.6877 84.1474V84.1549C14.6877 85.5593 15.2089 86.4359 16.1047 86.4359ZM21.1618 87.045C19.81 87.045 19.0079 85.9314 19.0079 84.1549V84.1474C19.0079 82.3704 19.81 81.2607 21.1618 81.2607C22.5137 81.2607 23.3239 82.3704 23.3239 84.1474V84.1549C23.3239 85.9314 22.5137 87.045 21.1618 87.045ZM21.1618 86.4359C22.0576 86.4359 22.587 85.5593 22.587 84.1549V84.1474C22.587 82.7429 22.0576 81.8738 21.1618 81.8738C20.266 81.8738 19.7449 82.7429 19.7449 84.1474V84.1549C19.7449 85.5593 20.266 86.4359 21.1618 86.4359Z" fill="#0F141F"/>
<path opacity="0.3" d="M29.3398 84.3032H245.227" stroke="#555E6F" stroke-width="1.5" stroke-linecap="round"/>
<mask id="mask0_32171_13985" style="mask-type:luminance" maskUnits="userSpaceOnUse" x="31" y="8" width="215" height="85">
<path d="M245.227 8.82764H31.6562V92.6897H245.227V8.82764Z" fill="white"/>
</mask>
<g mask="url(#mask0_32171_13985)">
<path d="M87.6031 75.9648L87.3858 75.1668C87.3737 75.1698 87.3617 75.1729 87.3501 75.1765L87.6031 75.9648ZM245.076 20.6303C245.522 20.4658 245.743 19.9884 245.57 19.564C245.397 19.1397 244.896 18.929 244.451 19.0935L245.076 20.6303ZM244.963 40.8832C245.429 40.778 245.716 40.3338 245.605 39.891C245.495 39.4481 245.029 39.1743 244.564 39.2795L244.963 40.8832ZM244.817 64.4284C245.295 64.3997 245.657 64.0087 245.627 63.5545C245.597 63.0999 245.187 62.7547 244.71 62.7834L244.817 64.4284ZM31.5371 83.8068L47.5064 85.9245L47.7446 84.2918L31.7757 82.1741L31.5371 83.8068ZM49.0733 85.755L58.399 82.3679L57.7829 80.8279L48.4571 84.215L49.0733 85.755ZM58.9128 82.2778H68.4188V80.6293H58.9128V82.2778ZM69.3462 82.1454L87.856 76.7526L87.3501 75.1765L68.8403 80.5692L69.3462 82.1454ZM87.8203 76.7623L103.805 72.8102L103.37 71.2151L87.3858 75.1668L87.8203 76.7623ZM103.9 72.7811L245.076 20.6303L244.451 19.0935L103.275 71.2442L103.9 72.7811ZM103.787 72.8142L244.963 40.8832L244.564 39.2795L103.388 71.2107L103.787 72.8142ZM103.642 72.8349L244.817 64.4284L244.71 62.7834L103.534 71.1899L103.642 72.8349ZM68.4188 82.2778C68.7333 82.2778 69.046 82.2332 69.3462 82.1454L68.8403 80.5692C68.7037 80.6094 68.5619 80.6293 68.4188 80.6293V82.2778ZM58.399 82.3679C58.563 82.3083 58.7372 82.2778 58.9128 82.2778V80.6293C58.5264 80.6293 58.1437 80.6968 57.7829 80.8279L58.399 82.3679ZM47.5064 85.9245C48.035 85.9947 48.5743 85.9364 49.0733 85.755L48.4571 84.215C48.2301 84.2976 47.985 84.3241 47.7446 84.2918L47.5064 85.9245Z" fill="#1A202D"/>
<path d="M104.704 71.2078L244.595 19.2137C244.899 19.1008 245.227 19.3143 245.227 19.6249V31.306L176.572 50.9838L141.806 60.9978L123.985 66.1028L115.805 68.4589L111.131 69.8333L102.074 72.3858L104.704 71.2078Z" fill="#3A65FE" fill-opacity="0.7"/>
<path d="M102.074 72.3861L245.227 30.8965V48.2158L173.65 60.3012L137.862 66.3437L119.968 69.3649L111.715 70.8056L102.074 72.3861Z" fill="#08A667" fill-opacity="0.8"/>
<path d="M105.288 72.188L102.074 72.3862L112.884 70.6022L122.232 68.8177L139.761 66.0423L175.111 59.8965L245.227 48.1104V64.2578L105.288 72.188Z" fill="#E03F00" fill-opacity="0.7"/>
</g>
<path d="M118.402 94.0139V93.5328L120.47 91.4768C121.264 90.6894 121.447 90.3866 121.447 89.9214V89.9135C121.444 89.3432 120.992 88.9319 120.352 88.9319C119.619 88.9319 119.074 89.413 119.074 90.0141V90.0335H118.365V90.0106C118.365 89.0404 119.245 88.3228 120.34 88.3228C121.403 88.3228 122.18 89.002 122.18 89.8786V89.8861C122.18 90.4992 121.883 90.9609 120.804 92.0122L119.408 93.3779V93.3933H122.278V94.0139H118.402ZM125.173 94.107C123.821 94.107 123.019 92.9934 123.019 91.2169V91.2094C123.019 89.4324 123.821 88.3228 125.173 88.3228C126.525 88.3228 127.335 89.4324 127.335 91.2094V91.2169C127.335 92.9934 126.525 94.107 125.173 94.107ZM125.173 93.4979C126.069 93.4979 126.599 92.6213 126.599 91.2169V91.2094C126.599 89.8049 126.069 88.9358 125.173 88.9358C124.278 88.9358 123.756 89.8049 123.756 91.2094V91.2169C123.756 92.6213 124.278 93.4979 125.173 93.4979ZM128.101 94.0139V93.5328L130.17 91.4768C130.963 90.6894 131.147 90.3866 131.147 89.9214V89.9135C131.142 89.3432 130.691 88.9319 130.051 88.9319C129.318 88.9319 128.773 89.413 128.773 90.0141V90.0335H128.064V90.0106C128.064 89.0404 128.944 88.3228 130.039 88.3228C131.102 88.3228 131.879 89.002 131.879 89.8786V89.8861C131.879 90.4992 131.582 90.9609 130.503 92.0122L129.107 93.3779V93.3933H131.977V94.0139H128.101ZM135.414 94.0139V92.85H132.462V92.2179L135.039 88.4159H136.122V92.2373H136.953V92.85H136.122V94.0139H135.414ZM133.186 92.2373H135.414V89.0135H135.389L133.186 92.2215V92.2373Z" fill="#0F141F"/>
<path d="M0.570312 105.048V99.4502H2.77314C3.90509 99.4502 4.64614 100.11 4.64614 101.119V101.126C4.64614 101.902 4.19826 102.503 3.46534 102.724L4.82529 105.048H3.96617L2.70799 102.833H1.30323V105.048H0.570312ZM1.30323 102.216H2.70799C3.46127 102.216 3.8888 101.828 3.8888 101.142V101.134C3.8888 100.467 3.42869 100.071 2.67541 100.071H1.30323V102.216ZM5.85956 100.331C5.61523 100.331 5.41574 100.141 5.41574 99.9079C5.41574 99.6713 5.61523 99.4851 5.85956 99.4851C6.10792 99.4851 6.30338 99.6713 6.30338 99.9079C6.30338 100.141 6.10792 100.331 5.85956 100.331ZM5.50529 105.048V101.014H6.21378V105.048H5.50529ZM8.68128 105.126C7.68371 105.126 7.08108 104.641 6.99556 103.919L6.99148 103.884H7.69997L7.70813 103.923C7.79365 104.327 8.10715 104.563 8.68536 104.563C9.25945 104.563 9.60149 104.335 9.60149 103.97V103.966C9.60149 103.675 9.44268 103.512 8.96222 103.4L8.29037 103.244C7.49233 103.062 7.10549 102.709 7.10549 102.127V102.123C7.10549 101.429 7.74477 100.936 8.6609 100.936C9.58926 100.936 10.1797 101.452 10.2326 102.127L10.2367 102.177H9.56077L9.55669 102.151C9.49971 101.759 9.18616 101.499 8.6609 101.499C8.14787 101.499 7.83029 101.735 7.83029 102.092V102.096C7.83029 102.372 8.02167 102.561 8.4899 102.67L9.16175 102.825C10.0168 103.023 10.3263 103.345 10.3263 103.919V103.923C10.3263 104.629 9.62591 105.126 8.68128 105.126ZM11.1203 105.048V99.4502H11.8287V102.795H11.845L13.7018 101.014H14.5609L12.7245 102.756L14.6179 105.048H13.7954L12.2237 103.167L11.8287 103.528V105.048H11.1203ZM16.9307 105.048V99.4502H19.1335C20.2655 99.4502 21.0065 100.11 21.0065 101.119V101.126C21.0065 101.902 20.5586 102.503 19.8257 102.724L21.1857 105.048H20.3265L19.0684 102.833H17.6636V105.048H16.9307ZM17.6636 102.216H19.0684C19.8217 102.216 20.2492 101.828 20.2492 101.142V101.134C20.2492 100.467 19.789 100.071 19.0358 100.071H17.6636V102.216ZM22.9773 105.126C22.1344 105.126 21.5684 104.641 21.5684 103.908V103.9C21.5684 103.213 22.1304 102.783 23.1035 102.728L24.3169 102.663V102.325C24.3169 101.832 23.9789 101.534 23.3885 101.534C22.8429 101.534 22.5009 101.782 22.4194 102.143L22.4113 102.177H21.7272L21.7313 102.135C21.7924 101.471 22.399 100.936 23.3967 100.936C24.3983 100.936 25.0254 101.452 25.0254 102.259V105.048H24.3169V104.393H24.3006C24.0522 104.835 23.5433 105.126 22.9773 105.126ZM22.2932 103.908C22.2932 104.296 22.6271 104.54 23.1361 104.54C23.8038 104.54 24.3169 104.101 24.3169 103.516V103.186L23.1849 103.252C22.6189 103.283 22.2932 103.524 22.2932 103.9V103.908ZM26.3243 100.331C26.0799 100.331 25.8804 100.141 25.8804 99.9079C25.8804 99.6713 26.0799 99.4851 26.3243 99.4851C26.5726 99.4851 26.7681 99.6713 26.7681 99.9079C26.7681 100.141 26.5726 100.331 26.3243 100.331ZM25.97 105.048V101.014H26.6785V105.048H25.97ZM29.0197 105.126C28.242 105.126 27.8593 104.792 27.8593 104.02V101.572H27.2404V101.014H27.8593V99.9238H28.5922V101.014H29.3984V101.572H28.5922V104.016C28.5922 104.447 28.7918 104.567 29.1704 104.567C29.2559 104.567 29.3374 104.556 29.3984 104.552V105.099C29.3089 105.11 29.1582 105.126 29.0197 105.126ZM30.5589 100.331C30.3146 100.331 30.1151 100.141 30.1151 99.9079C30.1151 99.6713 30.3146 99.4851 30.5589 99.4851C30.8072 99.4851 31.0027 99.6713 31.0027 99.9079C31.0027 100.141 30.8072 100.331 30.5589 100.331ZM30.2047 105.048V101.014H30.9132V105.048H30.2047ZM31.8782 105.048V101.014H32.5866V101.588H32.6029C32.8309 101.212 33.2626 100.936 33.9059 100.936C34.8342 100.936 35.3717 101.51 35.3717 102.43V105.048H34.6632V102.55C34.6632 101.894 34.3416 101.534 33.6901 101.534C33.0223 101.534 32.5866 101.987 32.5866 102.674V105.048H31.8782ZM38.0672 106.484C37.0208 106.484 36.3611 106.014 36.2227 105.417L36.2146 105.382H36.9271L36.9434 105.417C37.0778 105.708 37.4809 105.886 38.0591 105.886C38.8042 105.886 39.2277 105.494 39.2277 104.87V104.354H39.2114C38.959 104.8 38.4704 105.087 37.8636 105.087C36.7969 105.087 36.068 104.268 36.068 103.008V103.004C36.068 101.751 36.805 100.936 37.8799 100.936C38.4785 100.936 38.9508 101.247 39.2114 101.696H39.2277V101.014H39.9362V104.936C39.9362 105.87 39.2155 106.484 38.0672 106.484ZM38.0184 104.489C38.7391 104.489 39.2277 103.904 39.2277 103.008V103.004C39.2277 102.115 38.735 101.534 38.0184 101.534C37.2651 101.534 36.7928 102.108 36.7928 103.004V103.008C36.7928 103.923 37.2651 104.489 38.0184 104.489Z" fill="#0F141F"/>
<path d="M44.4748 102.179C44.3469 102.179 44.2432 102.278 44.2432 102.4C44.2432 102.522 44.3469 102.621 44.4748 102.621V102.179ZM52.0512 102.556C52.1416 102.47 52.1416 102.33 52.0512 102.244L50.5771 100.839C50.4863 100.753 50.3399 100.753 50.2491 100.839C50.1587 100.926 50.1587 101.065 50.2491 101.152L51.5597 102.4L50.2491 103.648C50.1587 103.735 50.1587 103.874 50.2491 103.961C50.3399 104.047 50.4863 104.047 50.5771 103.961L52.0512 102.556ZM44.4748 102.621H51.8872V102.179H44.4748V102.621Z" fill="#0F141F"/>
<path d="M10.6554 112.552H5.55932C2.48899 112.552 0 114.923 0 117.848V122.703C0 125.629 2.48899 128 5.55932 128H10.6554C13.7257 128 16.2147 125.629 16.2147 122.703V117.848C16.2147 114.923 13.7257 112.552 10.6554 112.552Z" fill="#2F3849"/>
<path d="M8.22894 122.924V118.067H8.21263L6.65723 119.099V118.397L8.22079 117.326H8.93743V122.924H8.22894Z" fill="white"/>
<path d="M22.6934 124.469V114.517H24.5609V122.972H29.3023V124.469H22.6934ZM33.7106 124.614C31.4522 124.614 29.9972 123.179 29.9972 120.814V120.8C29.9972 118.455 31.4739 117.007 33.7034 117.007C35.9402 117.007 37.4241 118.441 37.4241 120.8V120.814C37.4241 123.186 35.9619 124.614 33.7106 124.614ZM33.7179 123.228C34.8544 123.228 35.5855 122.345 35.5855 120.814V120.8C35.5855 119.276 34.8471 118.4 33.7034 118.4C32.5814 118.4 31.8359 119.283 31.8359 120.8V120.814C31.8359 122.352 32.5669 123.228 33.7179 123.228ZM40.0373 124.469L37.9598 117.159H39.7695L41.0652 122.772H41.1014L42.5998 117.159H44.3298L45.8282 122.772H45.8717L47.1672 117.159H48.948L46.8707 124.469H44.9741L43.4612 119.124H43.425L41.9193 124.469H40.0373Z" fill="#0F141F"/>
<path d="M73.0718 105.71H72.3875V101.397H72.3588L70.4857 105.671H69.8673L67.9942 101.397H67.9655V105.71H67.2812V100.112H68.1323L70.1601 104.783H70.1929L72.2207 100.112H73.0718V105.71ZM75.3761 105.206C76.0441 105.206 76.557 104.76 76.557 104.178V103.848L75.4252 103.914C74.8549 103.949 74.5292 104.19 74.5292 104.57C74.5292 104.954 74.8669 105.206 75.3761 105.206ZM75.2172 105.78C74.3745 105.78 73.8084 105.295 73.8084 104.57C73.8084 103.879 74.3661 103.445 75.3437 103.39L76.557 103.325V102.987C76.557 102.494 76.2151 102.2 75.6286 102.2C75.0828 102.2 74.7409 102.444 74.6515 102.84H73.9673C74.0164 102.141 74.6432 101.606 75.6448 101.606C76.6385 101.606 77.2653 102.118 77.2653 102.921V105.71H76.5936V105.016H76.5774C76.3249 105.478 75.7875 105.78 75.2172 105.78ZM79.6637 104.174H79.6475L78.6255 105.71H77.8398L79.2811 103.693L77.8639 101.676H78.6538L79.6721 103.189H79.6883L80.694 101.676H81.4839L80.0547 103.666L81.4635 105.71H80.6774L79.6637 104.174ZM83.9022 100.112H85.8772C87.62 100.112 88.6499 101.148 88.6499 102.909C88.6499 104.674 87.6242 105.71 85.8772 105.71H83.9022V100.112ZM84.6351 100.741V105.082H85.8285C87.16 105.082 87.9008 104.306 87.9008 102.917C87.9008 101.517 87.1637 100.741 85.8285 100.741H84.6351ZM89.4523 105.71V101.676H90.1199V102.336H90.1361C90.2746 101.889 90.6656 101.606 91.1622 101.606C91.2846 101.606 91.3906 101.625 91.4476 101.633V102.289C91.3906 102.269 91.2396 102.25 91.0687 102.25C90.5192 102.25 90.1606 102.626 90.1606 103.197V105.71H89.4523ZM93.3406 105.206C94.0086 105.206 94.5215 104.76 94.5215 104.178V103.848L93.3897 103.914C92.8194 103.949 92.4937 104.19 92.4937 104.57C92.4937 104.954 92.8319 105.206 93.3406 105.206ZM93.1821 105.78C92.339 105.78 91.7733 105.295 91.7733 104.57C91.7733 103.879 92.3311 103.445 93.3081 103.39L94.5215 103.325V102.987C94.5215 102.494 94.1796 102.2 93.5931 102.2C93.0478 102.2 92.7054 102.444 92.616 102.84H91.9317C91.9809 102.141 92.6077 101.606 93.6097 101.606C94.603 101.606 95.2303 102.118 95.2303 102.921V105.71H94.5581V105.016H94.5419C94.2894 105.478 93.752 105.78 93.1821 105.78ZM101.517 101.676L100.336 105.71H99.6152L98.6585 102.588H98.6423L97.6894 105.71H96.969L95.7839 101.676H96.4881L97.3354 104.958H97.3516L98.3083 101.676H98.9925L99.9534 104.958H99.9696L100.816 101.676H101.517ZM103.704 105.78C102.625 105.78 101.892 104.958 101.892 103.693C101.892 102.428 102.62 101.606 103.687 101.606C104.294 101.606 104.783 101.889 105.035 102.332H105.051V100.112H105.76V105.71H105.084V105.028H105.072C104.799 105.493 104.314 105.78 103.704 105.78ZM103.838 102.2C103.088 102.2 102.616 102.781 102.616 103.693C102.616 104.609 103.088 105.186 103.838 105.186C104.567 105.186 105.055 104.597 105.055 103.693C105.055 102.793 104.567 102.2 103.838 102.2ZM108.472 105.78C107.299 105.78 106.509 104.977 106.509 103.693C106.509 102.405 107.299 101.606 108.472 101.606C109.64 101.606 110.43 102.405 110.43 103.693C110.43 104.977 109.64 105.78 108.472 105.78ZM108.472 105.186C109.221 105.186 109.709 104.644 109.709 103.693C109.709 102.742 109.221 102.2 108.472 102.2C107.722 102.2 107.23 102.742 107.23 103.693C107.23 104.644 107.722 105.186 108.472 105.186ZM116.534 101.676L115.353 105.71H114.632L113.675 102.588H113.659L112.706 105.71H111.986L110.801 101.676H111.505L112.352 104.958H112.368L113.325 101.676H114.009L114.97 104.958H114.986L115.833 101.676H116.534ZM117.116 105.71V101.676H117.784V102.32H117.8C118.036 101.885 118.488 101.606 119.144 101.606C120.072 101.606 120.61 102.176 120.61 103.092V105.71H119.901V103.212C119.901 102.56 119.579 102.204 118.928 102.204C118.26 102.204 117.824 102.653 117.824 103.336V105.71H117.116Z" fill="#0F141F"/>
<path d="M71.931 125.304C69.2815 125.304 67.6309 123.821 67.6309 121.621V115.179H69.4988V121.476C69.4988 122.855 70.3818 123.759 71.931 123.759C73.4797 123.759 74.3558 122.855 74.3558 121.476V115.179H76.2163V121.621C76.2163 123.821 74.5874 125.304 71.931 125.304ZM77.8883 125.131V117.821H79.6909V118.966H79.727C80.125 118.18 80.907 117.669 82.0721 117.669C83.7589 117.669 84.7216 118.704 84.7216 120.4V125.131H82.919V120.745C82.919 119.704 82.4126 119.117 81.3846 119.117C80.3497 119.117 79.6909 119.835 79.6909 120.89V125.131H77.8883ZM89.0213 125.276C87.0815 125.276 85.8506 123.828 85.8506 121.476V121.469C85.8506 119.11 87.0885 117.669 89.0143 117.669C90.0998 117.669 90.9758 118.2 91.4099 119.076H91.4535V115.179H93.2561V125.131H91.4535V123.89H91.4099C90.9758 124.752 90.129 125.276 89.0213 125.276ZM89.5642 123.828C90.6789 123.828 91.4535 122.911 91.4535 121.476V121.469C91.4535 120.042 90.6719 119.117 89.5642 119.117C88.4135 119.117 87.6894 120.014 87.6894 121.469V121.476C87.6894 122.931 88.4061 123.828 89.5642 123.828ZM98.1423 125.276C95.8403 125.276 94.4504 123.821 94.4504 121.497V121.49C94.4504 119.186 95.862 117.669 98.0552 117.669C100.249 117.669 101.609 119.138 101.609 121.345V121.897H96.2382C96.2674 123.179 97.0059 123.938 98.1784 123.938C99.0758 123.938 99.6623 123.483 99.836 122.993L99.8504 122.945H101.537L101.515 123.021C101.276 124.145 100.147 125.276 98.1423 125.276ZM98.077 119.014C97.1217 119.014 96.405 119.628 96.26 120.752H99.8578C99.7276 119.593 99.0327 119.014 98.077 119.014ZM102.775 125.131V117.821H104.577V119.083H104.613C104.852 118.2 105.489 117.669 106.372 117.669C106.597 117.669 106.807 117.704 106.945 117.738V119.29C106.793 119.235 106.517 119.193 106.213 119.193C105.192 119.193 104.577 119.807 104.577 120.89V125.131H102.775ZM114.733 125.304C112.562 125.304 111.085 124.069 110.947 122.421L110.94 122.331H112.692L112.699 122.38C112.851 123.214 113.647 123.855 114.748 123.855C115.993 123.855 116.854 123.042 116.854 121.876V121.862C116.854 120.724 115.978 119.911 114.755 119.911C114.161 119.911 113.647 120.083 113.249 120.4C113.054 120.552 112.88 120.745 112.757 120.965H111.128L111.628 115.179H118.041V116.635H113.119L112.83 119.635H112.866C113.322 118.966 114.183 118.573 115.233 118.573C117.223 118.573 118.657 119.945 118.657 121.835V121.848C118.657 123.897 117.043 125.304 114.733 125.304ZM125.056 120.228C123.615 120.228 122.739 119.241 122.739 117.662V117.655C122.739 116.076 123.615 115.09 125.056 115.09C126.489 115.09 127.357 116.076 127.357 117.655V117.662C127.357 119.241 126.489 120.228 125.056 120.228ZM125.91 125.131H124.448L131.093 115.179H132.541L125.91 125.131ZM125.056 119.193C125.678 119.193 126.026 118.642 126.026 117.662V117.655C126.026 116.676 125.678 116.124 125.056 116.124C124.426 116.124 124.071 116.676 124.071 117.655V117.662C124.071 118.642 124.426 119.193 125.056 119.193ZM131.94 125.221C130.506 125.221 129.63 124.235 129.63 122.648V122.641C129.63 121.069 130.506 120.083 131.94 120.083C133.373 120.083 134.249 121.069 134.249 122.641V122.648C134.249 124.235 133.373 125.221 131.94 125.221ZM131.94 124.186C132.562 124.186 132.917 123.635 132.917 122.656V122.648C132.917 121.669 132.562 121.117 131.94 121.117C131.31 121.117 130.955 121.669 130.955 122.648V122.656C130.955 123.635 131.31 124.186 131.94 124.186Z" fill="#0F141F"/>
</g>
<defs>
<clipPath id="clip0_32171_13985">
<rect width="246" height="128" fill="white"/>
</clipPath>
</defs>
</svg>
