<svg width="408" height="240" viewBox="0 0 408 240" fill="none" xmlns="http://www.w3.org/2000/svg">
<path d="M185.665 0.572266H13.7511C6.15656 0.572266 0 6.72153 0 14.307V167.549C0 175.135 6.15656 181.284 13.7511 181.284H185.665C193.259 181.284 199.416 175.135 199.416 167.549V14.307C199.416 6.72153 193.259 0.572266 185.665 0.572266Z" fill="white" fill-opacity="0.15"/>
<path d="M16.7751 19.1107V24.3298H20.035C21.7831 24.3298 22.7753 23.386 22.7753 21.7155C22.7753 20.0827 21.717 19.1107 19.9594 19.1107H16.7751ZM16.7751 25.8304V31.2195H15.0742V17.6006H20.1862C22.8131 17.6006 24.5328 19.205 24.5328 21.6589C24.5328 23.5559 23.5028 25.0282 21.7925 25.5662L24.9485 31.2195H22.9548L20.035 25.8304H16.7751ZM29.6637 29.9926C31.2133 29.9926 32.4039 28.9072 32.4039 27.4915V26.6893L29.7771 26.8498C28.4542 26.9347 27.6983 27.5198 27.6983 28.4447C27.6983 29.3791 28.4825 29.9926 29.6637 29.9926ZM29.2951 31.3894C27.3391 31.3894 26.0257 30.2096 26.0257 28.4447C26.0257 26.7648 27.3203 25.7078 29.5881 25.5756L32.4039 25.4152V24.5941C32.4039 23.3955 31.6102 22.6782 30.2495 22.6782C28.9833 22.6782 28.1896 23.2728 27.9817 24.2355H26.3943C26.5077 22.5366 27.9628 21.2342 30.2873 21.2342C32.5929 21.2342 34.0481 22.48 34.0481 24.4337V31.2195H32.489V29.5301H32.4512C31.8653 30.6532 30.6181 31.3894 29.2951 31.3894ZM40.9081 21.2342C43.4121 21.2342 45.1129 23.235 45.1129 26.3118C45.1129 29.3885 43.4216 31.3894 40.9459 31.3894C39.538 31.3894 38.4041 30.7004 37.8182 29.6245H37.7805V34.4945H36.1363V21.404H37.6954V23.0651H37.7332C38.338 21.9609 39.4812 21.2342 40.9081 21.2342ZM40.5868 29.9454C42.3349 29.9454 43.431 28.5391 43.431 26.3118C43.431 24.0939 42.3349 22.6782 40.5868 22.6782C38.9049 22.6782 37.771 24.1316 37.771 26.3118C37.771 28.5013 38.9049 29.9454 40.5868 29.9454ZM46.861 31.2195V21.404H48.5051V31.2195H46.861ZM47.6831 19.7525C47.1256 19.7525 46.6626 19.2899 46.6626 18.7331C46.6626 18.1668 47.1256 17.7138 47.6831 17.7138C48.25 17.7138 48.7131 18.1668 48.7131 18.7331C48.7131 19.2899 48.25 19.7525 47.6831 19.7525ZM54.4486 31.3894C51.9447 31.3894 50.2438 29.3885 50.2438 26.3118C50.2438 23.235 51.9352 21.2342 54.4109 21.2342C55.8188 21.2342 56.9527 21.9232 57.5386 22.9991H57.5763V17.6006H59.2205V31.2195H57.6519V29.5584H57.6235C56.9905 30.691 55.8661 31.3894 54.4486 31.3894ZM54.7605 22.6782C53.0219 22.6782 51.9257 24.0939 51.9257 26.3118C51.9257 28.5391 53.0219 29.9454 54.7605 29.9454C56.4519 29.9454 57.5858 28.5108 57.5858 26.3118C57.5858 24.1221 56.4519 22.6782 54.7605 22.6782ZM69.4066 29.851C71.1169 29.851 72.2603 28.4353 72.2603 26.274C72.2603 24.1127 71.1169 22.6782 69.4066 22.6782C67.7153 22.6782 66.6097 24.075 66.6097 26.274C66.6097 28.4731 67.7153 29.851 69.4066 29.851ZM69.4633 34.9192C67.2994 34.9192 65.5892 33.7017 65.3151 32.0312H67.0066C67.3278 32.9277 68.301 33.5223 69.5295 33.5223C71.2303 33.5223 72.2603 32.5408 72.2603 31.078V29.5301H72.2224C71.6177 30.5966 70.4555 31.295 69.0759 31.295C66.5719 31.295 64.9277 29.3225 64.9277 26.274C64.9277 23.1973 66.5719 21.2342 69.1137 21.2342C70.5027 21.2342 71.6555 21.9137 72.3075 23.0557H72.3358V21.404H73.9044V31.0213C73.9044 33.3619 72.1752 34.9192 69.4633 34.9192ZM76.0493 31.2195V21.404H77.599V23.0085H77.6368C77.9581 21.9232 78.8652 21.2342 80.018 21.2342C80.3014 21.2342 80.5471 21.2814 80.6797 21.3002V22.8952C80.5471 22.848 80.1975 22.8009 79.8007 22.8009C78.525 22.8009 77.6935 23.7163 77.6935 25.1037V31.2195H76.0493ZM85.6217 31.3894C82.8996 31.3894 81.0668 29.4357 81.0668 26.3118C81.0668 23.1784 82.8996 21.2342 85.6217 21.2342C88.3334 21.2342 90.1661 23.1784 90.1661 26.3118C90.1661 29.4357 88.3334 31.3894 85.6217 31.3894ZM85.6217 29.9454C87.3601 29.9454 88.4938 28.6241 88.4938 26.3118C88.4938 23.9995 87.3601 22.6782 85.6217 22.6782C83.8825 22.6782 82.7391 23.9995 82.7391 26.3118C82.7391 28.6241 83.8825 29.9454 85.6217 29.9454ZM104.331 21.404L101.59 31.2195H99.9178L97.6972 23.622H97.6593L95.4484 31.2195H93.7761L91.0265 21.404H92.6609L94.6259 29.3885H94.6638L96.8844 21.404H98.4721L100.702 29.3885H100.74L102.705 21.404H104.331ZM106.211 19.0351H107.855V21.404H109.764V22.7537H107.855V28.5863C107.855 29.4829 108.233 29.8887 109.074 29.8887C109.263 29.8887 109.641 29.8604 109.754 29.8416V31.2195C109.556 31.2667 109.103 31.295 108.715 31.295C106.91 31.295 106.211 30.5588 106.211 28.6713V22.7537H104.746V21.404H106.211V19.0351ZM111.606 31.2195V17.6006H113.25V22.9708H113.288C113.837 21.876 114.914 21.2342 116.406 21.2342C118.561 21.2342 119.865 22.6876 119.865 24.8772V31.2195H118.221V25.1792C118.221 23.622 117.437 22.6876 115.896 22.6876C114.262 22.6876 113.25 23.8013 113.25 25.5001V31.2195H111.606Z" fill="white" fill-opacity="0.3"/>
<path d="M51.5703 166.978L61.9549 158.161C62.6582 157.564 63.1876 156.789 63.487 155.917L63.8555 154.842C65.475 150.124 72.3182 150.647 73.2003 155.557L73.7675 158.714C73.8533 159.19 74.2691 159.538 74.7545 159.538C75.2581 159.538 75.6835 159.165 75.7489 158.666L81.8228 112.338C81.8881 111.84 82.3138 111.467 82.817 111.467C83.3024 111.467 83.7185 111.814 83.8039 112.291L87.3566 132.058C87.5356 133.057 88.4072 133.785 89.4248 133.785C90.4069 133.785 91.2584 133.105 91.4745 132.149L94.553 118.531C94.882 117.077 96.1754 116.044 97.6679 116.044C99.1838 116.044 100.491 114.98 100.796 113.496L109.274 72.211C109.37 71.7428 109.783 71.4067 110.261 71.4067C110.772 71.4067 111.203 71.7893 111.262 72.2966L114.969 104.032C115.083 105.008 115.91 105.744 116.894 105.744C117.597 105.744 118.245 105.363 118.587 104.748L120.443 101.411C120.725 100.906 121.257 100.593 121.835 100.593C122.616 100.593 123.282 101.16 123.406 101.929L128.83 135.518C128.881 135.839 129.159 136.075 129.484 136.075C129.817 136.075 130.097 135.827 130.14 135.498L136.586 85.5998C136.804 83.9198 137.964 82.512 139.573 81.9765C141.126 81.4586 142.266 80.1264 142.536 78.5131L145.04 63.5019C145.37 61.528 145.898 59.5924 146.617 57.7245L148.4 53.0938" stroke="#17EC20" stroke-width="7.10582" stroke-linecap="round" stroke-linejoin="round"/>
<path d="M33.7933 128.257C33.3873 128.741 33.4517 129.464 33.9371 129.869C34.4226 130.275 35.1453 130.21 35.5513 129.726L33.7933 128.257ZM88.5259 65.9386C88.4695 65.309 87.9131 64.844 87.2825 64.9001L77.0103 65.8144C76.3799 65.8706 75.9144 66.4264 75.9706 67.0561C76.0268 67.6857 76.5833 68.1506 77.2137 68.0945L86.3448 67.2818L87.1584 76.4021C87.2148 77.0318 87.7712 77.4967 88.4017 77.4406C89.0323 77.3845 89.4975 76.8286 89.4411 76.199L88.5259 65.9386ZM35.5513 129.726L88.2638 66.7745L86.5052 65.3058L33.7933 128.257L35.5513 129.726Z" fill="white" fill-opacity="0.3"/>
<path d="M394.248 0H222.334C214.74 0 208.583 6.14926 208.583 13.7348V168.122C208.583 175.707 214.74 181.856 222.334 181.856H394.248C401.843 181.856 407.999 175.707 407.999 168.122V13.7348C407.999 6.14926 401.843 0 394.248 0Z" fill="white" fill-opacity="0.15"/>
<path d="M223.005 26.9004H224.715C224.877 28.3727 226.275 29.3447 228.221 29.3447C230.064 29.3447 231.405 28.3727 231.405 27.0324C231.405 25.881 230.602 25.1732 228.77 24.7013L227.021 24.2483C224.508 23.6065 223.393 22.5022 223.393 20.6525C223.393 18.3874 225.377 16.8018 228.212 16.8018C230.924 16.8018 232.889 18.4062 232.965 20.6902H231.264C231.113 19.2273 229.931 18.3307 228.155 18.3307C226.388 18.3307 225.16 19.2462 225.16 20.5769C225.16 21.6056 225.916 22.2192 227.768 22.7004L229.194 23.078C232.02 23.7858 233.163 24.8712 233.163 26.8248C233.163 29.3165 231.197 30.8737 228.061 30.8737C225.169 30.8737 223.166 29.307 223.005 26.9004ZM234.977 30.6472V20.8317H236.622V30.6472H234.977ZM235.8 19.1801C235.242 19.1801 234.779 18.7177 234.779 18.1608C234.779 17.5946 235.242 17.1415 235.8 17.1415C236.367 17.1415 236.83 17.5946 236.83 18.1608C236.83 18.7177 236.367 19.1801 235.8 19.1801ZM242.839 29.2787C244.549 29.2787 245.693 27.863 245.693 25.7017C245.693 23.5404 244.549 22.1058 242.839 22.1058C241.147 22.1058 240.042 23.5027 240.042 25.7017C240.042 27.9008 241.147 29.2787 242.839 29.2787ZM242.896 34.3469C240.732 34.3469 239.022 33.1293 238.748 31.4588H240.439C240.76 32.3554 241.734 32.9501 242.962 32.9501C244.663 32.9501 245.693 31.9685 245.693 30.5056V28.9578H245.655C245.05 30.0243 243.888 30.7227 242.508 30.7227C240.004 30.7227 238.36 28.7501 238.36 25.7017C238.36 22.625 240.004 20.6619 242.546 20.6619C243.935 20.6619 245.088 21.3414 245.74 22.4834H245.768V20.8317H247.337V30.449C247.337 32.7896 245.608 34.3469 242.896 34.3469ZM249.482 30.6472V20.8317H251.031V22.3984H251.069C251.618 21.3414 252.666 20.6619 254.187 20.6619C256.342 20.6619 257.589 22.0492 257.589 24.2766V30.6472H255.945V24.5691C255.945 22.9836 255.198 22.1153 253.687 22.1153C252.137 22.1153 251.126 23.2101 251.126 24.8712V30.6472H249.482ZM259.772 30.6472V20.8317H261.416V30.6472H259.772ZM260.594 19.1801C260.036 19.1801 259.574 18.7177 259.574 18.1608C259.574 17.5946 260.036 17.1415 260.594 17.1415C261.161 17.1415 261.624 17.5946 261.624 18.1608C261.624 18.7177 261.161 19.1801 260.594 19.1801ZM264.166 30.6472V22.1814H262.796V20.8317H264.166V19.7369C264.166 17.8494 265.044 16.9528 266.859 16.9528C267.227 16.9528 267.624 16.9905 267.86 17.0283V18.359C267.662 18.3307 267.388 18.3024 267.113 18.3024C266.226 18.3024 265.801 18.7743 265.801 19.7464V20.8317H267.813V22.1814H265.81V30.6472H264.166ZM269.599 30.6472V20.8317H271.243V30.6472H269.599ZM270.421 19.1801C269.864 19.1801 269.4 18.7177 269.4 18.1608C269.4 17.5946 269.864 17.1415 270.421 17.1415C270.988 17.1415 271.451 17.5946 271.451 18.1608C271.451 18.7177 270.988 19.1801 270.421 19.1801ZM281.627 24.0501H280.021C279.785 22.9836 278.954 22.1058 277.508 22.1058C275.807 22.1058 274.654 23.5121 274.654 25.7395C274.654 28.0234 275.826 29.3731 277.527 29.3731C278.869 29.3731 279.747 28.6652 280.031 27.4855H281.647C281.391 29.4391 279.747 30.817 277.517 30.817C274.796 30.817 272.982 28.9011 272.982 25.7395C272.982 22.6438 274.786 20.6619 277.498 20.6619C279.955 20.6619 281.42 22.2852 281.627 24.0501ZM286.399 29.4203C287.949 29.4203 289.14 28.3349 289.14 26.9192V26.117L286.513 26.2774C285.19 26.3624 284.434 26.9476 284.434 27.8724C284.434 28.8068 285.219 29.4203 286.399 29.4203ZM286.031 30.817C284.075 30.817 282.762 29.6373 282.762 27.8724C282.762 26.1925 284.056 25.1355 286.324 25.0033L289.14 24.8429V24.0217C289.14 22.8232 288.346 22.1058 286.985 22.1058C285.719 22.1058 284.925 22.7004 284.717 23.6631H283.13C283.243 21.9643 284.699 20.6619 287.023 20.6619C289.328 20.6619 290.784 21.9076 290.784 23.8613V30.6472H289.224V28.9578H289.187C288.601 30.0809 287.354 30.817 286.031 30.817ZM292.872 30.6472V20.8317H294.422V22.3984H294.46C295.007 21.3414 296.056 20.6619 297.578 20.6619C299.732 20.6619 300.979 22.0492 300.979 24.2766V30.6472H299.335V24.5691C299.335 22.9836 298.589 22.1153 297.077 22.1153C295.528 22.1153 294.516 23.2101 294.516 24.8712V30.6472H292.872ZM303.606 18.4628H305.25V20.8317H307.16V22.1814H305.25V28.014C305.25 28.9106 305.628 29.3165 306.469 29.3165C306.658 29.3165 307.036 29.2881 307.15 29.2693V30.6472C306.952 30.6944 306.498 30.7227 306.111 30.7227C304.305 30.7227 303.606 29.9865 303.606 28.0989V22.1814H302.142V20.8317H303.606V18.4628ZM316.608 30.817C314.104 30.817 312.403 28.8163 312.403 25.7395C312.403 22.6627 314.095 20.6619 316.57 20.6619C317.978 20.6619 319.113 21.3508 319.698 22.4268H319.736V17.0283H321.38V30.6472H319.812V28.9861H319.783C319.15 30.1187 318.026 30.817 316.608 30.817ZM316.92 22.1058C315.182 22.1058 314.085 23.5216 314.085 25.7395C314.085 27.9668 315.182 29.3731 316.92 29.3731C318.612 29.3731 319.745 27.9385 319.745 25.7395C319.745 23.5499 318.612 22.1058 316.92 22.1058ZM323.601 30.6472V20.8317H325.15V22.4362H325.188C325.509 21.3508 326.416 20.6619 327.569 20.6619C327.853 20.6619 328.098 20.7091 328.23 20.7279V22.323C328.098 22.2758 327.749 22.2286 327.352 22.2286C326.076 22.2286 325.245 23.144 325.245 24.5314V30.6472H323.601ZM333.172 30.817C330.451 30.817 328.618 28.8634 328.618 25.7395C328.618 22.6061 330.451 20.6619 333.172 20.6619C335.884 20.6619 337.718 22.6061 337.718 25.7395C337.718 28.8634 335.884 30.817 333.172 30.817ZM333.172 29.3731C334.911 29.3731 336.045 28.0518 336.045 25.7395C336.045 23.4272 334.911 22.1058 333.172 22.1058C331.434 22.1058 330.291 23.4272 330.291 25.7395C330.291 28.0518 331.434 29.3731 333.172 29.3731ZM344.152 20.6619C346.657 20.6619 348.357 22.6627 348.357 25.7395C348.357 28.8163 346.666 30.817 344.19 30.817C342.782 30.817 341.648 30.1281 341.062 29.0521H341.025V33.9221H339.38V20.8317H340.94V22.4928H340.978C341.582 21.3886 342.726 20.6619 344.152 20.6619ZM343.831 29.3731C345.579 29.3731 346.675 27.9668 346.675 25.7395C346.675 23.5216 345.579 22.1058 343.831 22.1058C342.149 22.1058 341.015 23.5593 341.015 25.7395C341.015 27.9291 342.149 29.3731 343.831 29.3731Z" fill="white" fill-opacity="0.3"/>
<path d="M260.153 65.1116L263.936 70.5693C264.708 71.6842 266.215 72.0087 267.38 71.311C267.893 71.003 268.283 70.5256 268.483 69.961L274.803 52.0741C274.951 51.6563 275.347 51.377 275.79 51.377C276.341 51.377 276.797 51.8035 276.834 52.3523L279.689 95.1298C279.923 98.6276 285.037 98.7218 285.399 95.2353L285.586 93.4434C285.839 91.0176 289.146 90.4933 290.137 92.7226L290.205 92.874C290.697 93.9806 291.989 94.4872 293.103 94.0096C294.213 93.5344 295.501 94.0353 295.997 95.1363L299.461 102.824C299.947 103.904 301.023 104.599 302.209 104.599C303.717 104.599 304.994 103.484 305.195 101.991L308.744 75.6636C308.807 75.1922 309.21 74.8404 309.686 74.8404C310.186 74.8404 310.6 75.2268 310.635 75.7246L314.479 131.124C314.538 131.978 315.249 132.641 316.107 132.641C316.886 132.641 317.557 133.192 317.707 133.957L322.968 160.753C323.09 161.377 323.638 161.827 324.275 161.827C324.954 161.827 325.525 161.315 325.599 160.639L329.387 125.503C329.441 125.006 329.86 124.629 330.361 124.629C330.844 124.629 331.255 124.981 331.328 125.457L336.215 156.905C336.296 157.432 336.751 157.821 337.285 157.821C337.756 157.821 338.173 157.517 338.317 157.069L338.805 155.545C339.835 152.329 344.476 152.589 345.14 155.901L345.309 156.749C345.448 157.44 345.836 158.055 346.399 158.477L346.56 158.597C347.33 159.174 348.36 159.266 349.22 158.837C350.378 158.259 351.786 158.642 352.489 159.728L357.556 167.55" stroke="#17EC20" stroke-width="7.10582" stroke-linecap="round" stroke-linejoin="round"/>
<path d="M329.714 78.8554C329.308 78.3705 329.373 77.6488 329.858 77.2432C330.343 76.8377 331.067 76.9019 331.472 77.3869L329.714 78.8554ZM384.447 141.173C384.39 141.803 383.834 142.268 383.204 142.212L372.931 141.297C372.301 141.242 371.835 140.685 371.892 140.056C371.948 139.427 372.504 138.962 373.135 139.017L382.266 139.83L383.079 130.71C383.136 130.08 383.692 129.616 384.323 129.672C384.953 129.728 385.419 130.283 385.362 130.913L384.447 141.173ZM331.472 77.3869L384.185 140.337L382.426 141.806L329.714 78.8554L331.472 77.3869Z" fill="white" fill-opacity="0.3"/>
<path d="M222.653 93.854C222.653 83.74 214.444 75.541 204.318 75.541C194.192 75.541 185.983 83.74 185.983 93.854C185.983 103.968 194.192 112.167 204.318 112.167C214.444 112.167 222.653 103.968 222.653 93.854Z" fill="#0B0528"/>
<path d="M207.587 99.085V88.6224H209.34V90.3934H209.38C209.733 89.1862 210.639 88.4219 211.817 88.4219C212.119 88.4219 212.381 88.4718 212.522 88.4919V90.1921C212.381 90.1413 212.009 90.0914 211.585 90.0914C210.226 90.0914 209.34 91.0369 209.34 92.6267V99.085H207.587Z" fill="white"/>
<path d="M200.97 99.2855C198.059 99.2855 196.116 97.1835 196.116 93.8541V93.834C196.116 90.5038 198.07 88.4219 200.961 88.4219C203.851 88.4219 205.815 90.4941 205.815 93.834V93.8541C205.815 97.1932 203.861 99.2855 200.97 99.2855ZM200.981 97.7368C202.823 97.7368 204.022 96.3081 204.022 93.8541V93.834C204.022 91.3792 202.814 89.9706 200.961 89.9706C199.138 89.9706 197.909 91.3889 197.909 93.834V93.8541C197.909 96.3185 199.127 97.7368 200.981 97.7368Z" fill="white"/>
<path d="M5.77978 216.676C2.64583 216.676 0.661514 214.403 0.661514 210.808C0.661514 207.246 2.66945 204.949 5.77978 204.949C8.25232 204.949 10.1343 206.451 10.4965 208.717H9.06332C8.70112 207.23 7.40188 206.255 5.77978 206.255C3.55924 206.255 2.11825 208.048 2.11825 210.808C2.11825 213.592 3.54349 215.37 5.78765 215.37C7.457 215.37 8.65387 214.568 9.06332 213.184H10.4965C9.97672 215.425 8.29167 216.676 5.77978 216.676ZM15.3549 216.629C13.0871 216.629 11.5595 215 11.5595 212.397C11.5595 209.786 13.0871 208.166 15.3549 208.166C17.6148 208.166 19.1424 209.786 19.1424 212.397C19.1424 215 17.6148 216.629 15.3549 216.629ZM15.3549 215.425C16.8037 215.425 17.7486 214.325 17.7486 212.397C17.7486 210.47 16.8037 209.369 15.3549 209.369C13.906 209.369 12.9533 210.47 12.9533 212.397C12.9533 214.325 13.906 215.425 15.3549 215.425ZM20.5283 216.487V208.308H21.8196V209.613H21.8511C22.3078 208.732 23.1819 208.166 24.4497 208.166C26.245 208.166 27.2844 209.322 27.2844 211.178V216.487H25.9143V211.422C25.9143 210.1 25.2922 209.377 24.0323 209.377C22.7409 209.377 21.8984 210.29 21.8984 211.674V216.487H20.5283ZM28.8907 210.565C28.8907 209.165 30.1427 208.166 31.9459 208.166C33.639 208.166 34.883 209.173 34.946 210.557H33.639C33.5444 209.77 32.9066 209.283 31.8987 209.283C30.8987 209.283 30.2372 209.778 30.2372 210.494C30.2372 211.06 30.6703 211.438 31.5995 211.674L32.8672 211.98C34.5208 212.397 35.1193 212.995 35.1193 214.198C35.1193 215.622 33.7728 216.629 31.8593 216.629C30.064 216.629 28.812 215.653 28.6702 214.206H30.0404C30.19 215.056 30.8357 215.512 31.9459 215.512C33.0562 215.512 33.7413 215.04 33.7413 214.3C33.7413 213.719 33.4027 213.404 32.4814 213.16L31.0404 212.79C29.5994 212.421 28.8907 211.681 28.8907 210.565ZM36.6154 216.487V208.308H37.9855V216.487H36.6154ZM37.3005 206.931C36.8359 206.931 36.45 206.545 36.45 206.082C36.45 205.61 36.8359 205.233 37.3005 205.233C37.7729 205.233 38.1587 205.61 38.1587 206.082C38.1587 206.545 37.7729 206.931 37.3005 206.931ZM42.9384 216.629C40.8518 216.629 39.4343 214.962 39.4343 212.397C39.4343 209.833 40.8439 208.166 42.9069 208.166C44.0802 208.166 45.0251 208.74 45.5133 209.636H45.5448V205.138H46.9149V216.487H45.6078V215.103H45.5842C45.0566 216.046 44.1195 216.629 42.9384 216.629ZM43.1982 209.369C41.7494 209.369 40.836 210.549 40.836 212.397C40.836 214.254 41.7494 215.425 43.1982 215.425C44.6078 215.425 45.5526 214.229 45.5526 212.397C45.5526 210.572 44.6078 209.369 43.1982 209.369ZM52.0489 209.354C50.7654 209.354 49.8678 210.336 49.7812 211.697H54.2301C54.1986 210.329 53.3403 209.354 52.0489 209.354ZM54.1986 214.143H55.5451C55.3089 215.574 53.923 216.629 52.1355 216.629C49.789 216.629 48.3638 215 48.3638 212.429C48.3638 209.889 49.8126 208.166 52.0726 208.166C54.2852 208.166 55.6475 209.77 55.6475 212.248V212.767H49.7733V212.846C49.7733 214.411 50.6946 215.441 52.1671 215.441C53.2064 215.441 53.9702 214.914 54.1986 214.143ZM57.0333 216.487V208.308H58.3247V209.645H58.3562C58.624 208.74 59.3799 208.166 60.3405 208.166C60.5768 208.166 60.7815 208.205 60.8917 208.221V209.55C60.7815 209.511 60.4901 209.471 60.1594 209.471C59.0964 209.471 58.4034 210.235 58.4034 211.391V216.487H57.0333ZM64.5533 215.465C65.8447 215.465 66.8368 214.56 66.8368 213.381V212.712L64.6478 212.846C63.5453 212.917 62.9154 213.404 62.9154 214.175C62.9154 214.954 63.569 215.465 64.5533 215.465ZM64.2461 216.629C62.6161 216.629 61.5216 215.645 61.5216 214.175C61.5216 212.775 62.6004 211.894 64.4903 211.784L66.8368 211.65V210.966C66.8368 209.967 66.1753 209.369 65.0415 209.369C63.9863 209.369 63.3249 209.865 63.1516 210.667H61.8288C61.9233 209.252 63.1359 208.166 65.0729 208.166C66.9942 208.166 68.2069 209.204 68.2069 210.832V216.487H66.9076V215.079H66.8762C66.388 216.015 65.3485 216.629 64.2461 216.629ZM74.0181 216.629C72.8212 216.629 71.8842 216.046 71.3566 215.103H71.3251V216.487H70.018V205.138H71.3881V209.676H71.4196C71.9314 208.74 72.8842 208.166 74.0418 208.166C76.1048 208.166 77.4985 209.833 77.4985 212.397C77.4985 214.969 76.1126 216.629 74.0181 216.629ZM73.7503 209.369C72.3645 209.369 71.3802 210.58 71.3802 212.397C71.3802 214.222 72.3645 215.425 73.7503 215.425C75.1992 215.425 76.0969 214.269 76.0969 212.397C76.0969 210.541 75.1992 209.369 73.7503 209.369ZM78.9632 216.487V205.138H80.3333V216.487H78.9632ZM85.4672 209.354C84.1835 209.354 83.2861 210.336 83.1998 211.697H87.6483C87.6169 210.329 86.7589 209.354 85.4672 209.354ZM87.6169 214.143H88.9634C88.7272 215.574 87.3411 216.629 85.5543 216.629C83.2071 216.629 81.7823 215 81.7823 212.429C81.7823 209.889 83.2313 208.166 85.4906 208.166C87.7039 208.166 89.0658 209.77 89.0658 212.248V212.767H83.1918V212.846C83.1918 214.411 84.1126 215.441 85.5857 215.441C86.6251 215.441 87.3887 214.914 87.6169 214.143ZM93.7586 216.487V208.308H95.0504V209.613H95.0818C95.4672 208.748 96.3026 208.166 97.4048 208.166C98.5232 208.166 99.3497 208.732 99.7037 209.723H99.7351C100.192 208.748 101.153 208.166 102.302 208.166C103.925 208.166 104.972 209.22 104.972 210.84V216.487H103.601V211.155C103.601 210.038 102.98 209.377 101.901 209.377C100.814 209.377 100.05 210.179 100.05 211.288V216.487H98.6804V211.006C98.6804 210.022 98.0184 209.377 97.0033 209.377C95.9164 209.377 95.1294 210.227 95.1294 211.359V216.487H93.7586ZM109.421 215.465C110.712 215.465 111.704 214.56 111.704 213.381V212.712L109.515 212.846C108.413 212.917 107.783 213.404 107.783 214.175C107.783 214.954 108.436 215.465 109.421 215.465ZM109.113 216.629C107.484 216.629 106.389 215.645 106.389 214.175C106.389 212.775 107.468 211.894 109.358 211.784L111.704 211.65V210.966C111.704 209.967 111.043 209.369 109.909 209.369C108.854 209.369 108.193 209.865 108.019 210.667H106.696C106.79 209.252 108.003 208.166 109.941 208.166C111.861 208.166 113.074 209.204 113.074 210.832V216.487H111.775V215.079H111.744C111.256 216.015 110.216 216.629 109.113 216.629ZM114.815 216.487V208.308H116.106V209.645H116.137C116.405 208.74 117.161 208.166 118.122 208.166C118.358 208.166 118.563 208.205 118.673 208.221V209.55C118.563 209.511 118.272 209.471 117.941 209.471C116.878 209.471 116.185 210.235 116.185 211.391V216.487H114.815ZM121.233 211.941L124.855 208.308H126.516L122.965 211.839L126.626 216.487H125.035L121.996 212.681L121.233 213.404V216.487H119.862V205.138H121.233V211.941ZM130.508 209.354C129.225 209.354 128.327 210.336 128.24 211.697H132.69C132.657 210.329 131.799 209.354 130.508 209.354ZM132.657 214.143H134.004C133.768 215.574 132.382 216.629 130.595 216.629C128.248 216.629 126.823 215 126.823 212.429C126.823 209.889 128.272 208.166 130.532 208.166C132.744 208.166 134.106 209.77 134.106 212.248V212.767H128.232V212.846C128.232 214.411 129.154 215.441 130.626 215.441C131.666 215.441 132.429 214.914 132.657 214.143ZM135.933 206.334H137.303V208.308H138.894V209.432H137.303V214.293C137.303 215.04 137.619 215.378 138.319 215.378C138.477 215.378 138.792 215.355 138.886 215.338V216.487C138.721 216.526 138.343 216.55 138.02 216.55C136.516 216.55 135.933 215.937 135.933 214.363V209.432H134.713V208.308H135.933V206.334ZM144.107 216.487V209.432H142.965V208.308H144.107V207.395C144.107 205.822 144.839 205.075 146.351 205.075C146.658 205.075 146.989 205.106 147.186 205.138V206.247C147.02 206.223 146.792 206.2 146.564 206.2C145.824 206.2 145.469 206.593 145.469 207.403V208.308H147.146V209.432H145.477V216.487H144.107ZM148.635 216.487V205.138H150.005V216.487H148.635ZM158.58 208.308V216.487H157.281V215.158H157.249C156.761 216.102 155.91 216.629 154.651 216.629C152.863 216.629 151.816 215.472 151.816 213.617V208.308H153.186V213.373C153.186 214.701 153.808 215.417 155.076 215.417C156.407 215.417 157.21 214.505 157.21 213.113V208.308H158.58ZM167.162 210.989H165.824C165.627 210.1 164.934 209.369 163.73 209.369C162.312 209.369 161.351 210.541 161.351 212.397C161.351 214.3 162.328 215.425 163.745 215.425C164.864 215.425 165.596 214.835 165.832 213.853H167.178C166.966 215.48 165.596 216.629 163.737 216.629C161.47 216.629 159.958 215.032 159.958 212.397C159.958 209.818 161.462 208.166 163.722 208.166C165.769 208.166 166.99 209.519 167.162 210.989ZM168.879 206.334H170.25V208.308H171.84V209.432H170.25V214.293C170.25 215.04 170.564 215.378 171.265 215.378C171.423 215.378 171.737 215.355 171.832 215.338V216.487C171.666 216.526 171.289 216.55 170.966 216.55C169.462 216.55 168.879 215.937 168.879 214.363V209.432H167.659V208.308H168.879V206.334ZM180.029 208.308V216.487H178.73V215.158H178.698C178.211 216.102 177.36 216.629 176.1 216.629C174.313 216.629 173.265 215.472 173.265 213.617V208.308H174.635V213.373C174.635 214.701 175.258 215.417 176.525 215.417C177.856 215.417 178.659 214.505 178.659 213.113V208.308H180.029ZM184.51 215.465C185.801 215.465 186.793 214.56 186.793 213.381V212.712L184.604 212.846C183.502 212.917 182.872 213.404 182.872 214.175C182.872 214.954 183.525 215.465 184.51 215.465ZM184.202 216.629C182.573 216.629 181.478 215.645 181.478 214.175C181.478 212.775 182.557 211.894 184.447 211.784L186.793 211.65V210.966C186.793 209.967 186.132 209.369 184.998 209.369C183.943 209.369 183.282 209.865 183.108 210.667H181.785C181.879 209.252 183.092 208.166 185.03 208.166C186.95 208.166 188.163 209.204 188.163 210.832V216.487H186.864V215.079H186.833C186.345 216.015 185.305 216.629 184.202 216.629ZM190.344 206.334H191.715V208.308H193.305V209.432H191.715V214.293C191.715 215.04 192.029 215.378 192.73 215.378C192.888 215.378 193.203 215.355 193.298 215.338V216.487C193.132 216.526 192.754 216.55 192.431 216.55C190.927 216.55 190.344 215.937 190.344 214.363V209.432H189.124V208.308H190.344V206.334ZM194.841 216.487V208.308H196.211V216.487H194.841ZM195.526 206.931C195.061 206.931 194.676 206.545 194.676 206.082C194.676 205.61 195.061 205.233 195.526 205.233C195.998 205.233 196.384 205.61 196.384 206.082C196.384 206.545 195.998 206.931 195.526 206.931ZM201.455 216.629C199.187 216.629 197.66 215 197.66 212.397C197.66 209.786 199.187 208.166 201.455 208.166C203.715 208.166 205.243 209.786 205.243 212.397C205.243 215 203.715 216.629 201.455 216.629ZM201.455 215.425C202.904 215.425 203.848 214.325 203.848 212.397C203.848 210.47 202.904 209.369 201.455 209.369C200.006 209.369 199.053 210.47 199.053 212.397C199.053 214.325 200.006 215.425 201.455 215.425ZM206.629 216.487V208.308H207.92V209.613H207.951C208.408 208.732 209.282 208.166 210.55 208.166C212.346 208.166 213.385 209.322 213.385 211.178V216.487H212.014V211.422C212.014 210.1 211.392 209.377 210.132 209.377C208.841 209.377 207.999 210.29 207.999 211.674V216.487H206.629ZM214.991 210.565C214.991 209.165 216.243 208.166 218.046 208.166C219.74 208.166 220.983 209.173 221.047 210.557H219.74C219.644 209.77 219.007 209.283 217.999 209.283C216.999 209.283 216.338 209.778 216.338 210.494C216.338 211.06 216.771 211.438 217.7 211.674L218.967 211.98C220.621 212.397 221.219 212.995 221.219 214.198C221.219 215.622 219.873 216.629 217.959 216.629C216.164 216.629 214.912 215.653 214.77 214.206H216.141C216.29 215.056 216.936 215.512 218.046 215.512C219.157 215.512 219.841 215.04 219.841 214.3C219.841 213.719 219.503 213.404 218.582 213.16L217.141 212.79C215.7 212.421 214.991 211.681 214.991 210.565ZM226.022 216.487V205.138H227.393V216.487H226.022ZM232.527 209.354C231.243 209.354 230.346 210.336 230.259 211.697H234.708C234.677 210.329 233.818 209.354 232.527 209.354ZM234.677 214.143H236.023C235.787 215.574 234.401 216.629 232.613 216.629C230.267 216.629 228.842 215 228.842 212.429C228.842 209.889 230.29 208.166 232.55 208.166C234.763 208.166 236.126 209.77 236.126 212.248V212.767H230.252V212.846C230.252 214.411 231.172 215.441 232.645 215.441C233.684 215.441 234.448 214.914 234.677 214.143ZM240.212 215.465C241.504 215.465 242.496 214.56 242.496 213.381V212.712L240.306 212.846C239.204 212.917 238.574 213.404 238.574 214.175C238.574 214.954 239.228 215.465 240.212 215.465ZM239.905 216.629C238.275 216.629 237.18 215.645 237.18 214.175C237.18 212.775 238.259 211.894 240.149 211.784L242.496 211.65V210.966C242.496 209.967 241.834 209.369 240.701 209.369C239.645 209.369 238.984 209.865 238.811 210.667H237.488C237.582 209.252 238.795 208.166 240.732 208.166C242.654 208.166 243.866 209.204 243.866 210.832V216.487H242.567V215.079H242.535C242.047 216.015 241.007 216.629 239.905 216.629ZM248.708 216.629C246.622 216.629 245.205 214.962 245.205 212.397C245.205 209.833 246.614 208.166 248.677 208.166C249.85 208.166 250.795 208.74 251.284 209.636H251.315V205.138H252.685V216.487H251.378V215.103H251.355C250.827 216.046 249.89 216.629 248.708 216.629ZM248.969 209.369C247.52 209.369 246.606 210.549 246.606 212.397C246.606 214.254 247.52 215.425 248.969 215.425C250.378 215.425 251.322 214.229 251.322 212.397C251.322 210.572 250.378 209.369 248.969 209.369ZM258.283 206.334H259.653V208.308H261.244V209.432H259.653V214.293C259.653 215.04 259.969 215.378 260.669 215.378C260.827 215.378 261.142 215.355 261.236 215.338V216.487C261.071 216.526 260.694 216.55 260.37 216.55C258.866 216.55 258.283 215.937 258.283 214.363V209.432H257.063V208.308H258.283V206.334ZM265.867 216.629C263.599 216.629 262.072 215 262.072 212.397C262.072 209.786 263.599 208.166 265.867 208.166C268.126 208.166 269.654 209.786 269.654 212.397C269.654 215 268.126 216.629 265.867 216.629ZM265.867 215.425C267.315 215.425 268.26 214.325 268.26 212.397C268.26 210.47 267.315 209.369 265.867 209.369C264.418 209.369 263.465 210.47 263.465 212.397C263.465 214.325 264.418 215.425 265.867 215.425ZM274.347 216.487V208.308H275.639V209.613H275.67C276.127 208.732 277.001 208.166 278.268 208.166C280.064 208.166 281.103 209.322 281.103 211.178V216.487H279.733V211.422C279.733 210.1 279.111 209.377 277.851 209.377C276.56 209.377 275.717 210.29 275.717 211.674V216.487H274.347ZM289.576 208.308V216.487H288.277V215.158H288.245C287.757 216.102 286.906 216.629 285.647 216.629C283.859 216.629 282.812 215.472 282.812 213.617V208.308H284.182V213.373C284.182 214.701 284.804 215.417 286.072 215.417C287.403 215.417 288.206 214.505 288.206 213.113V208.308H289.576ZM291.356 216.487V208.308H292.647V209.613H292.679C293.064 208.748 293.899 208.166 295.001 208.166C296.119 208.166 296.946 208.732 297.301 209.723H297.332C297.788 208.748 298.75 208.166 299.899 208.166C301.521 208.166 302.568 209.22 302.568 210.84V216.487H301.198V211.155C301.198 210.038 300.576 209.377 299.498 209.377C298.411 209.377 297.647 210.179 297.647 211.288V216.487H296.277V211.006C296.277 210.022 295.615 209.377 294.599 209.377C293.513 209.377 292.726 210.227 292.726 211.359V216.487H291.356ZM307.6 209.354C306.317 209.354 305.419 210.336 305.332 211.697H309.781C309.749 210.329 308.892 209.354 307.6 209.354ZM309.749 214.143H311.096C310.86 215.574 309.475 216.629 307.687 216.629C305.34 216.629 303.915 215 303.915 212.429C303.915 209.889 305.364 208.166 307.624 208.166C309.837 208.166 311.198 209.77 311.198 212.248V212.767H305.324V212.846C305.324 214.411 306.246 215.441 307.718 215.441C308.758 215.441 309.521 214.914 309.749 214.143ZM312.585 216.487V208.308H313.876V209.645H313.908C314.175 208.74 314.931 208.166 315.892 208.166C316.128 208.166 316.332 208.205 316.443 208.221V209.55C316.332 209.511 316.041 209.471 315.711 209.471C314.648 209.471 313.954 210.235 313.954 211.391V216.487H312.585ZM320.561 216.629C318.293 216.629 316.766 215 316.766 212.397C316.766 209.786 318.293 208.166 320.561 208.166C322.821 208.166 324.349 209.786 324.349 212.397C324.349 215 322.821 216.629 320.561 216.629ZM320.561 215.425C322.01 215.425 322.955 214.325 322.955 212.397C322.955 210.47 322.01 209.369 320.561 209.369C319.112 209.369 318.159 210.47 318.159 212.397C318.159 214.325 319.112 215.425 320.561 215.425ZM332.459 208.308V216.487H331.16V215.158H331.128C330.641 216.102 329.79 216.629 328.53 216.629C326.743 216.629 325.695 215.472 325.695 213.617V208.308H327.065V213.373C327.065 214.701 327.687 215.417 328.955 215.417C330.286 215.417 331.089 214.505 331.089 213.113V208.308H332.459ZM334.097 210.565C334.097 209.165 335.349 208.166 337.152 208.166C338.845 208.166 340.089 209.173 340.152 210.557H338.845C338.751 209.77 338.113 209.283 337.105 209.283C336.105 209.283 335.444 209.778 335.444 210.494C335.444 211.06 335.877 211.438 336.806 211.674L338.073 211.98C339.727 212.397 340.325 212.995 340.325 214.198C340.325 215.622 338.979 216.629 337.065 216.629C335.27 216.629 334.018 215.653 333.876 214.206H335.246C335.396 215.056 336.042 215.512 337.152 215.512C338.263 215.512 338.947 215.04 338.947 214.3C338.947 213.719 338.609 213.404 337.688 213.16L336.247 212.79C334.806 212.421 334.097 211.681 334.097 210.565ZM347.759 215.465C349.051 215.465 350.042 214.56 350.042 213.381V212.712L347.853 212.846C346.751 212.917 346.121 213.404 346.121 214.175C346.121 214.954 346.774 215.465 347.759 215.465ZM347.452 216.629C345.822 216.629 344.727 215.645 344.727 214.175C344.727 212.775 345.806 211.894 347.696 211.784L350.042 211.65V210.966C350.042 209.967 349.381 209.369 348.247 209.369C347.192 209.369 346.531 209.865 346.357 210.667H345.034C345.129 209.252 346.341 208.166 348.279 208.166C350.2 208.166 351.412 209.204 351.412 210.832V216.487H350.113V215.079H350.082C349.593 216.015 348.554 216.629 347.452 216.629ZM353.153 216.487V208.308H354.444V209.645H354.475C354.743 208.74 355.499 208.166 356.46 208.166C356.696 208.166 356.901 208.205 357.011 208.221V209.55C356.901 209.511 356.61 209.471 356.278 209.471C355.216 209.471 354.523 210.235 354.523 211.391V216.487H353.153ZM362.2 216.629C361.003 216.629 360.067 216.046 359.538 215.103H359.507V216.487H358.2V205.138H359.571V209.676H359.602C360.113 208.74 361.066 208.166 362.224 208.166C364.287 208.166 365.681 209.833 365.681 212.397C365.681 214.969 364.295 216.629 362.2 216.629ZM361.932 209.369C360.546 209.369 359.563 210.58 359.563 212.397C359.563 214.222 360.546 215.425 361.932 215.425C363.381 215.425 364.279 214.269 364.279 212.397C364.279 210.541 363.381 209.369 361.932 209.369ZM367.145 216.487V208.308H368.515V216.487H367.145ZM367.831 206.931C367.365 206.931 366.98 206.545 366.98 206.082C366.98 205.61 367.365 205.233 367.831 205.233C368.303 205.233 368.689 205.61 368.689 206.082C368.689 206.545 368.303 206.931 367.831 206.931ZM370.807 206.334H372.177V208.308H373.768V209.432H372.177V214.293C372.177 215.04 372.492 215.378 373.193 215.378C373.35 215.378 373.665 215.355 373.759 215.338V216.487C373.594 216.526 373.216 216.55 372.894 216.55C371.39 216.55 370.807 215.937 370.807 214.363V209.432H369.586V208.308H370.807V206.334ZM375.232 216.487V208.308H376.524V209.645H376.555C376.823 208.74 377.578 208.166 378.539 208.166C378.776 208.166 378.98 208.205 379.09 208.221V209.55C378.98 209.511 378.689 209.471 378.358 209.471C377.295 209.471 376.603 210.235 376.603 211.391V216.487H375.232ZM382.752 215.465C384.043 215.465 385.036 214.56 385.036 213.381V212.712L382.847 212.846C381.745 212.917 381.114 213.404 381.114 214.175C381.114 214.954 381.768 215.465 382.752 215.465ZM382.445 216.629C380.815 216.629 379.721 215.645 379.721 214.175C379.721 212.775 380.8 211.894 382.689 211.784L385.036 211.65V210.966C385.036 209.967 384.374 209.369 383.24 209.369C382.185 209.369 381.524 209.865 381.35 210.667H380.028C380.122 209.252 381.335 208.166 383.272 208.166C385.193 208.166 386.406 209.204 386.406 210.832V216.487H385.106V215.079H385.075C384.587 216.015 383.547 216.629 382.445 216.629ZM391.477 215.347C392.902 215.347 393.855 214.167 393.855 212.366C393.855 210.565 392.902 209.369 391.477 209.369C390.067 209.369 389.146 210.534 389.146 212.366C389.146 214.198 390.067 215.347 391.477 215.347ZM391.524 219.57C389.721 219.57 388.295 218.556 388.067 217.163H389.476C389.744 217.911 390.555 218.406 391.579 218.406C392.997 218.406 393.855 217.588 393.855 216.369V215.079H393.823C393.319 215.968 392.351 216.55 391.201 216.55C389.114 216.55 387.744 214.906 387.744 212.366C387.744 209.802 389.114 208.166 391.233 208.166C392.39 208.166 393.351 208.732 393.894 209.684H393.918V208.308H395.225V216.322C395.225 218.272 393.784 219.57 391.524 219.57ZM400.296 209.354C399.013 209.354 398.115 210.336 398.028 211.697H402.477C402.445 210.329 401.587 209.354 400.296 209.354ZM402.445 214.143H403.792C403.556 215.574 402.17 216.629 400.383 216.629C398.036 216.629 396.611 215 396.611 212.429C396.611 209.889 398.06 208.166 400.32 208.166C402.532 208.166 403.894 209.77 403.894 212.248V212.767H398.02V212.846C398.02 214.411 398.942 215.441 400.414 215.441C401.454 215.441 402.217 214.914 402.445 214.143ZM4.28367 235.958C2.01589 235.958 0.488281 234.329 0.488281 231.726C0.488281 229.115 2.01589 227.495 4.28367 227.495C6.54358 227.495 8.07122 229.115 8.07122 231.726C8.07122 234.329 6.54358 235.958 4.28367 235.958ZM4.28367 234.754C5.73254 234.754 6.67745 233.653 6.67745 231.726C6.67745 229.799 5.73254 228.698 4.28367 228.698C2.83481 228.698 1.88202 229.799 1.88202 231.726C1.88202 233.653 2.83481 234.754 4.28367 234.754ZM13.4336 227.495C15.5202 227.495 16.9376 229.162 16.9376 231.726C16.9376 234.29 15.5281 235.958 13.465 235.958C12.2918 235.958 11.3469 235.383 10.8587 234.487H10.8272V238.545H9.45705V227.636H10.7563V229.021H10.7878C11.2918 228.1 12.2445 227.495 13.4336 227.495ZM13.1658 234.754C14.6226 234.754 15.536 233.582 15.536 231.726C15.536 229.878 14.6226 228.698 13.1658 228.698C11.7642 228.698 10.8193 229.909 10.8193 231.726C10.8193 233.551 11.7642 234.754 13.1658 234.754ZM22.2999 227.495C24.3866 227.495 25.8041 229.162 25.8041 231.726C25.8041 234.29 24.3945 235.958 22.3315 235.958C21.1582 235.958 20.2133 235.383 19.7251 234.487H19.6936V238.545H18.3235V227.636H19.6227V229.021H19.6542C20.1582 228.1 21.1109 227.495 22.2999 227.495ZM22.0322 234.754C23.489 234.754 24.4024 233.582 24.4024 231.726C24.4024 229.878 23.489 228.698 22.0322 228.698C20.6306 228.698 19.6858 229.909 19.6858 231.726C19.6858 233.551 20.6306 234.754 22.0322 234.754ZM30.5837 235.958C28.3159 235.958 26.7883 234.329 26.7883 231.726C26.7883 229.115 28.3159 227.495 30.5837 227.495C32.8436 227.495 34.3713 229.115 34.3713 231.726C34.3713 234.329 32.8436 235.958 30.5837 235.958ZM30.5837 234.754C32.0326 234.754 32.9774 233.653 32.9774 231.726C32.9774 229.799 32.0326 228.698 30.5837 228.698C29.1348 228.698 28.1821 229.799 28.1821 231.726C28.1821 233.653 29.1348 234.754 30.5837 234.754ZM35.7571 235.816V227.636H37.0485V228.973H37.0799C37.3477 228.069 38.1036 227.495 39.0643 227.495C39.3005 227.495 39.5052 227.534 39.6155 227.55V228.879C39.5052 228.84 39.2139 228.8 38.8832 228.8C37.8201 228.8 37.1272 229.564 37.1272 230.719V235.816H35.7571ZM41.1746 225.663H42.5447V227.636H44.1353V228.761H42.5447V233.622C42.5447 234.369 42.8597 234.707 43.5604 234.707C43.718 234.707 44.033 234.683 44.1275 234.667V235.816C43.9621 235.855 43.5841 235.879 43.2612 235.879C41.7573 235.879 41.1746 235.266 41.1746 233.692V228.761H39.9541V227.636H41.1746V225.663ZM52.3245 227.636V235.816H51.0252V234.487H50.9938C50.5056 235.431 49.6551 235.958 48.3952 235.958C46.6078 235.958 45.5605 234.801 45.5605 232.945V227.636H46.9306V232.701C46.9306 234.03 47.5527 234.746 48.8205 234.746C50.1513 234.746 50.9544 233.834 50.9544 232.442V227.636H52.3245ZM54.1041 235.816V227.636H55.3955V228.942H55.427C55.8837 228.061 56.7577 227.495 58.0255 227.495C59.8209 227.495 60.8602 228.651 60.8602 230.507V235.816H59.4901V230.751C59.4901 229.429 58.868 228.706 57.6081 228.706C56.3168 228.706 55.4742 229.618 55.4742 231.003V235.816H54.1041ZM62.6792 235.816V227.636H64.0493V235.816H62.6792ZM63.3642 226.26C62.8996 226.26 62.5138 225.874 62.5138 225.41C62.5138 224.938 62.8996 224.562 63.3642 224.562C63.8367 224.562 64.2225 224.938 64.2225 225.41C64.2225 225.874 63.8367 226.26 63.3642 226.26ZM66.3407 225.663H67.7108V227.636H69.3015V228.761H67.7108V233.622C67.7108 234.369 68.0258 234.707 68.7266 234.707C68.8841 234.707 69.1991 234.683 69.2935 234.667V235.816C69.1282 235.855 68.7502 235.879 68.4274 235.879C66.9234 235.879 66.3407 235.266 66.3407 233.692V228.761H65.1202V227.636H66.3407V225.663ZM70.8369 235.816V227.636H72.207V235.816H70.8369ZM71.522 226.26C71.0574 226.26 70.6716 225.874 70.6716 225.41C70.6716 224.938 71.0574 224.562 71.522 224.562C71.9944 224.562 72.3802 224.938 72.3802 225.41C72.3802 225.874 71.9944 226.26 71.522 226.26ZM77.3411 228.683C76.0576 228.683 75.1599 229.665 75.0733 231.026H79.5222C79.4907 229.658 78.6324 228.683 77.3411 228.683ZM79.4907 233.472H80.8373C80.601 234.903 79.2151 235.958 77.4277 235.958C75.0811 235.958 73.6559 234.329 73.6559 231.758C73.6559 229.217 75.1047 227.495 77.3647 227.495C79.5773 227.495 80.9397 229.099 80.9397 231.577V232.096H75.0654V232.175C75.0654 233.74 75.9867 234.77 77.4592 234.77C78.4985 234.77 79.2624 234.243 79.4907 233.472ZM82.1839 229.894C82.1839 228.493 83.4361 227.495 85.239 227.495C86.9315 227.495 88.1756 228.501 88.2393 229.886H86.9315C86.8371 229.099 86.1993 228.612 85.1914 228.612C84.1916 228.612 83.5304 229.107 83.5304 229.823C83.5304 230.389 83.9634 230.767 84.8923 231.003L86.1598 231.309C87.8136 231.726 88.4119 232.324 88.4119 233.527C88.4119 234.951 87.0661 235.958 85.1519 235.958C83.3571 235.958 82.1048 234.982 81.9629 233.535H83.3337C83.4828 234.385 84.1287 234.84 85.239 234.84C86.3493 234.84 87.0339 234.369 87.0339 233.629C87.0339 233.048 86.696 232.733 85.7744 232.489L84.3335 232.119C82.8926 231.749 82.1839 231.01 82.1839 229.894Z" fill="white" fill-opacity="0.3"/>
</svg>
