<svg width="408" height="240" viewBox="0 0 408 240" fill="none" xmlns="http://www.w3.org/2000/svg">
<path d="M185.665 0.572266H13.7511C6.15656 0.572266 0 6.72153 0 14.307V167.549C0 175.135 6.15656 181.284 13.7511 181.284H185.665C193.259 181.284 199.416 175.135 199.416 167.549V14.307C199.416 6.72153 193.259 0.572266 185.665 0.572266Z" fill="white" fill-opacity="0.15"/>
<path d="M14.4229 27.4726H16.1331C16.2938 28.9449 17.6923 29.9171 19.6388 29.9171C21.4813 29.9171 22.8231 28.9449 22.8231 27.6048C22.8231 26.4534 22.02 25.7455 20.1869 25.2736L18.4387 24.8205C15.9253 24.1788 14.8103 23.0746 14.8103 21.2247C14.8103 18.9596 16.7946 17.374 19.6294 17.374C22.3412 17.374 24.3066 18.9785 24.3822 21.2625H22.6814C22.5302 19.7996 21.3491 18.903 19.5726 18.903C17.8056 18.903 16.5773 19.8185 16.5773 21.1492C16.5773 22.178 17.3332 22.7914 19.1852 23.2728L20.612 23.6503C23.4373 24.3581 24.5807 25.4435 24.5807 27.3972C24.5807 29.8887 22.6153 31.446 19.4781 31.446C16.5867 31.446 14.5835 29.8793 14.4229 27.4726ZM26.839 19.0351H28.4831V21.404H30.3919V22.7536H28.4831V28.5863C28.4831 29.4829 28.8611 29.8887 29.702 29.8887C29.891 29.8887 30.2691 29.8604 30.3824 29.8415V31.2194C30.184 31.2666 29.7304 31.295 29.343 31.295C27.5382 31.295 26.839 30.5588 26.839 28.6713V22.7536H25.3744V21.404H26.839V19.0351ZM35.8062 22.6593C34.266 22.6593 33.1888 23.839 33.0848 25.4718H38.4236C38.3858 23.8296 37.3558 22.6593 35.8062 22.6593ZM38.3858 28.407H40.0016C39.7181 30.1247 38.0551 31.3894 35.9102 31.3894C33.0943 31.3894 31.384 29.4357 31.384 26.3495C31.384 23.3011 33.1226 21.2342 35.8345 21.2342C38.4898 21.2342 40.1244 23.1595 40.1244 26.1324V26.7554H33.0754V26.8498C33.0754 28.7279 34.1809 29.9643 35.9479 29.9643C37.1952 29.9643 38.1118 29.3319 38.3858 28.407ZM45.5104 31.3894C43.0064 31.3894 41.3056 29.3885 41.3056 26.3118C41.3056 23.235 42.997 21.2342 45.4726 21.2342C46.8805 21.2342 48.0145 21.9232 48.6003 22.999H48.6381V17.6006H50.2823V31.2194H48.7137V29.5584H48.6853C48.0523 30.691 46.9278 31.3894 45.5104 31.3894ZM45.8222 22.6782C44.0836 22.6782 42.9875 24.0939 42.9875 26.3118C42.9875 28.5391 44.0836 29.9454 45.8222 29.9454C47.5137 29.9454 48.6475 28.5108 48.6475 26.3118C48.6475 24.1221 47.5137 22.6782 45.8222 22.6782ZM52.5879 31.2194V21.404H54.232V31.2194H52.5879ZM53.4099 19.7524C52.8524 19.7524 52.3894 19.2899 52.3894 18.7331C52.3894 18.1668 52.8524 17.7138 53.4099 17.7138C53.9768 17.7138 54.4398 18.1668 54.4398 18.7331C54.4398 19.2899 53.9768 19.7524 53.4099 19.7524ZM59.6935 29.9925C61.2432 29.9925 62.4338 28.9072 62.4338 27.4915V26.6892L59.807 26.8498C58.484 26.9346 57.7282 27.5198 57.7282 28.4447C57.7282 29.3791 58.5124 29.9925 59.6935 29.9925ZM59.325 31.3894C57.369 31.3894 56.0556 30.2096 56.0556 28.4447C56.0556 26.7648 57.3502 25.7077 59.618 25.5756L62.4338 25.4152V24.5941C62.4338 23.3954 61.6401 22.6782 60.2794 22.6782C59.0132 22.6782 58.2195 23.2728 58.0116 24.2354H56.4242C56.5376 22.5366 57.9927 21.2342 60.3172 21.2342C62.6228 21.2342 64.078 22.48 64.078 24.4336V31.2194H62.5189V29.5301H62.4811C61.8952 30.6532 60.6479 31.3894 59.325 31.3894ZM66.2513 31.2194V17.6006H67.8954V31.2194H66.2513ZM74.0845 31.2194V21.404H75.6342V23.0085H75.672C75.9933 21.9232 76.9004 21.2342 78.0532 21.2342C78.3366 21.2342 78.5823 21.2814 78.7146 21.3002V22.8952C78.5823 22.848 78.2327 22.8008 77.8358 22.8008C76.5602 22.8008 75.7287 23.7163 75.7287 25.1037V31.2194H74.0845ZM80.1414 31.2194V21.404H81.7858V31.2194H80.1414ZM80.9634 19.7524C80.406 19.7524 79.943 19.2899 79.943 18.7331C79.943 18.1668 80.406 17.7138 80.9634 17.7138C81.5302 17.7138 81.9939 18.1668 81.9939 18.7331C81.9939 19.2899 81.5302 19.7524 80.9634 19.7524ZM83.8363 24.1127C83.8363 22.4328 85.3385 21.2342 87.5027 21.2342C89.5338 21.2342 91.0271 22.4422 91.1021 24.1033H89.5338C89.4201 23.1595 88.6549 22.5744 87.4454 22.5744C86.2456 22.5744 85.4522 23.169 85.4522 24.0278C85.4522 24.7073 85.9715 25.1603 87.0866 25.4435L88.6081 25.8116C90.5925 26.3118 91.3101 27.029 91.3101 28.4731C91.3101 30.1813 89.6943 31.3894 87.3987 31.3894C85.2441 31.3894 83.7412 30.2191 83.5718 28.4825H85.2159C85.3949 29.5018 86.1698 30.0492 87.5027 30.0492C88.8347 30.0492 89.6564 29.4829 89.6564 28.5957C89.6564 27.8973 89.2508 27.5198 88.1445 27.2272L86.4157 26.7836C84.6862 26.3401 83.8363 25.4529 83.8363 24.1127ZM96.9608 22.6593C95.4208 22.6593 94.3435 23.839 94.2395 25.4718H99.5782C99.5403 23.8296 98.5106 22.6593 96.9608 22.6593ZM99.5403 28.407H101.156C100.873 30.1247 99.2097 31.3894 97.0649 31.3894C94.2492 31.3894 92.539 29.4357 92.539 26.3495C92.539 23.3011 94.2774 21.2342 96.9891 21.2342C99.6443 21.2342 101.279 23.1595 101.279 26.1324V26.7554H94.2298V26.8498C94.2298 28.7279 95.3353 29.9643 97.1028 29.9643C98.3501 29.9643 99.2661 29.3319 99.5403 28.407Z" fill="white" fill-opacity="0.3"/>
<path d="M52.9111 102.746C52.4205 102.916 52.1604 103.451 52.3303 103.941C52.5002 104.431 53.0356 104.69 53.5263 104.521L52.9111 102.746ZM117.76 82.0169C117.987 81.5506 117.792 80.9884 117.325 80.7621L109.714 77.0701C109.247 76.8436 108.685 77.0382 108.458 77.5046C108.231 77.9711 108.426 78.5329 108.893 78.7595L115.658 82.041L112.372 88.7981C112.146 89.2644 112.341 89.8265 112.808 90.0528C113.275 90.2791 113.837 90.0851 114.064 89.6187L117.76 82.0169ZM53.5263 104.521L117.222 82.4936L116.607 80.7194L52.9111 102.746L53.5263 104.521Z" fill="white" fill-opacity="0.3"/>
<path d="M20.9648 136.679L31.8539 133.752C35.0054 132.904 37.9467 131.414 40.492 129.373L41.2305 128.781C46.0981 124.879 52.4216 123.279 58.562 124.396L60.2585 124.704C60.4023 124.731 60.5483 124.744 60.6946 124.744C61.4184 124.744 62.1047 124.421 62.5672 123.866L64.6377 121.376C65.4528 120.395 66.6624 119.828 67.9381 119.828C69.2479 119.828 70.486 120.427 71.2999 121.451L74.975 126.081C75.7125 127.011 76.8345 127.552 78.0215 127.552C79.003 127.552 79.9482 127.181 80.6675 126.514L87.4584 120.215C91.1803 116.762 95.8627 114.518 100.888 113.778C102.1 113.6 103.325 113.509 104.551 113.509H107.478C110.099 113.509 112.616 112.489 114.497 110.666L121.757 103.623C122.647 102.759 123.84 102.276 125.081 102.276C126.827 102.276 128.434 103.229 129.27 104.76L133.252 112.057C133.741 112.952 134.681 113.509 135.702 113.509C136.772 113.509 137.747 112.899 138.213 111.937L145.985 95.9162C146.182 95.5119 146.593 95.255 147.042 95.255C147.434 95.255 147.8 95.4491 148.018 95.7745L153.001 103.194C153.5 103.936 154.337 104.382 155.233 104.382C156.049 104.382 156.822 104.012 157.332 103.376L166.291 92.197C168.396 89.5707 170.897 87.2867 173.703 85.4271L179.004 81.9141" stroke="#17EC20" stroke-width="5.25" stroke-linecap="round" stroke-linejoin="round"/>
<path d="M394.248 0H222.334C214.74 0 208.583 6.14926 208.583 13.7348V168.122C208.583 175.707 214.74 181.856 222.334 181.856H394.248C401.843 181.856 407.999 175.707 407.999 168.122V13.7348C407.999 6.14926 401.843 0 394.248 0Z" fill="white" fill-opacity="0.15"/>
<path d="M225.339 30.6472H223.657V17.0283H225.311L232.776 27.7214H232.861V17.0283H234.543V30.6472H232.889L225.424 19.9918H225.339V30.6472ZM240.873 22.087C239.333 22.087 238.256 23.2667 238.152 24.8995H243.491C243.454 23.2573 242.423 22.087 240.873 22.087ZM243.454 27.8347H245.069C244.786 29.5524 243.123 30.817 240.977 30.817C238.162 30.817 236.451 28.8635 236.451 25.7772C236.451 22.7288 238.19 20.6619 240.902 20.6619C243.558 20.6619 245.192 22.5872 245.192 25.5602V26.183H238.143V26.2774C238.143 28.1556 239.249 29.3919 241.015 29.3919C242.263 29.3919 243.179 28.7596 243.454 27.8347ZM250.852 29.2787C252.563 29.2787 253.706 27.863 253.706 25.7017C253.706 23.5405 252.563 22.1059 250.852 22.1059C249.161 22.1059 248.055 23.5027 248.055 25.7017C248.055 27.9008 249.161 29.2787 250.852 29.2787ZM250.909 34.3469C248.745 34.3469 247.034 33.1293 246.76 31.4588H248.452C248.773 32.3555 249.746 32.9501 250.975 32.9501C252.675 32.9501 253.706 31.9685 253.706 30.5056V28.9578H253.668C253.063 30.0243 251.901 30.7227 250.521 30.7227C248.017 30.7227 246.373 28.7501 246.373 25.7017C246.373 22.625 248.017 20.6619 250.559 20.6619C251.948 20.6619 253.101 21.3414 253.753 22.4834H253.781V20.8318H255.35V30.449C255.35 32.7896 253.62 34.3469 250.909 34.3469ZM257.58 30.6472V17.0283H259.224V30.6472H257.58ZM261.53 30.6472V20.8318H263.174V30.6472H261.53ZM262.351 19.1801C261.794 19.1801 261.331 18.7177 261.331 18.1608C261.331 17.5946 261.794 17.1416 262.351 17.1416C262.918 17.1416 263.382 17.5946 263.382 18.1608C263.382 18.7177 262.918 19.1801 262.351 19.1801ZM269.391 29.2787C271.102 29.2787 272.245 27.863 272.245 25.7017C272.245 23.5405 271.102 22.1059 269.391 22.1059C267.7 22.1059 266.594 23.5027 266.594 25.7017C266.594 27.9008 267.7 29.2787 269.391 29.2787ZM269.448 34.3469C267.284 34.3469 265.573 33.1293 265.299 31.4588H266.991C267.313 32.3555 268.286 32.9501 269.514 32.9501C271.214 32.9501 272.245 31.9685 272.245 30.5056V28.9578H272.207C271.602 30.0243 270.44 30.7227 269.061 30.7227C266.556 30.7227 264.912 28.7501 264.912 25.7017C264.912 22.625 266.556 20.6619 269.098 20.6619C270.487 20.6619 271.64 21.3414 272.292 22.4834H272.32V20.8318H273.889V30.449C273.889 32.7896 272.159 34.3469 269.448 34.3469ZM279.274 29.4203C280.824 29.4203 282.015 28.3349 282.015 26.9192V26.117L279.388 26.2774C278.065 26.3624 277.309 26.9476 277.309 27.8725C277.309 28.8068 278.094 29.4203 279.274 29.4203ZM278.906 30.817C276.951 30.817 275.637 29.6373 275.637 27.8725C275.637 26.1925 276.931 25.1355 279.199 25.0033L282.015 24.8429V24.0217C282.015 22.8232 281.222 22.1059 279.861 22.1059C278.595 22.1059 277.801 22.7005 277.593 23.6631H276.006C276.119 21.9643 277.574 20.6619 279.899 20.6619C282.204 20.6619 283.659 21.9076 283.659 23.8613V30.6472H282.1V28.9578H282.062C281.477 30.0809 280.229 30.817 278.906 30.817ZM290.632 30.817C289.196 30.817 288.072 30.1187 287.439 28.9861H287.401V30.6472H285.832V17.0283H287.476V22.474H287.514C288.129 21.3508 289.272 20.6619 290.661 20.6619C293.137 20.6619 294.809 22.6627 294.809 25.7395C294.809 28.8257 293.146 30.817 290.632 30.817ZM290.311 22.1059C288.648 22.1059 287.468 23.5593 287.468 25.7395C287.468 27.9291 288.648 29.3731 290.311 29.3731C292.05 29.3731 293.127 27.9857 293.127 25.7395C293.127 23.5121 292.05 22.1059 290.311 22.1059ZM296.567 30.6472V17.0283H298.211V30.6472H296.567ZM304.371 22.087C302.831 22.087 301.754 23.2667 301.65 24.8995H306.989C306.952 23.2573 305.921 22.087 304.371 22.087ZM306.952 27.8347H308.567C308.284 29.5524 306.621 30.817 304.475 30.817C301.66 30.817 299.949 28.8635 299.949 25.7772C299.949 22.7288 301.688 20.6619 304.4 20.6619C307.056 20.6619 308.69 22.5872 308.69 25.5602V26.183H301.641V26.2774C301.641 28.1556 302.747 29.3919 304.513 29.3919C305.761 29.3919 306.677 28.7596 306.952 27.8347ZM318.045 30.817C315.541 30.817 313.84 28.8163 313.84 25.7395C313.84 22.6627 315.531 20.6619 318.007 20.6619C319.415 20.6619 320.549 21.3508 321.135 22.4268H321.172V17.0283H322.816V30.6472H321.248V28.9861H321.219C320.587 30.1187 319.462 30.817 318.045 30.817ZM318.356 22.1059C316.618 22.1059 315.522 23.5216 315.522 25.7395C315.522 27.9668 316.618 29.3731 318.356 29.3731C320.048 29.3731 321.182 27.9385 321.182 25.7395C321.182 23.5499 320.048 22.1059 318.356 22.1059ZM328.977 22.087C327.437 22.087 326.36 23.2667 326.256 24.8995H331.594C331.557 23.2573 330.527 22.087 328.977 22.087ZM331.557 27.8347H333.172C332.889 29.5524 331.226 30.817 329.081 30.817C326.265 30.817 324.555 28.8635 324.555 25.7772C324.555 22.7288 326.294 20.6619 329.005 20.6619C331.661 20.6619 333.296 22.5872 333.296 25.5602V26.183H326.246V26.2774C326.246 28.1556 327.352 29.3919 329.119 29.3919C330.366 29.3919 331.282 28.7596 331.557 27.8347ZM343.122 24.0501H341.516C341.28 22.9836 340.449 22.1059 339.003 22.1059C337.302 22.1059 336.149 23.5121 336.149 25.7395C336.149 28.0235 337.321 29.3731 339.021 29.3731C340.363 29.3731 341.242 28.6653 341.526 27.4855H343.141C342.886 29.4391 341.242 30.817 339.012 30.817C336.29 30.817 334.476 28.9012 334.476 25.7395C334.476 22.6438 336.282 20.6619 338.993 20.6619C341.45 20.6619 342.914 22.2852 343.122 24.0501ZM344.654 30.6472V20.8318H346.203V22.4362H346.241C346.562 21.3508 347.469 20.6619 348.622 20.6619C348.905 20.6619 349.151 20.7091 349.284 20.7279V22.323C349.151 22.2758 348.801 22.2286 348.405 22.2286C347.129 22.2286 346.298 23.1441 346.298 24.5315V30.6472H344.654ZM354.093 22.087C352.552 22.087 351.475 23.2667 351.372 24.8995H356.711C356.673 23.2573 355.642 22.087 354.093 22.087ZM356.673 27.8347H358.289C358.005 29.5524 356.342 30.817 354.197 30.817C351.381 30.817 349.671 28.8635 349.671 25.7772C349.671 22.7288 351.409 20.6619 354.122 20.6619C356.777 20.6619 358.411 22.5872 358.411 25.5602V26.183H351.362V26.2774C351.362 28.1556 352.468 29.3919 354.234 29.3919C355.482 29.3919 356.399 28.7596 356.673 27.8347ZM363.315 29.4203C364.865 29.4203 366.055 28.3349 366.055 26.9192V26.117L363.429 26.2774C362.106 26.3624 361.35 26.9476 361.35 27.8725C361.35 28.8068 362.134 29.4203 363.315 29.4203ZM362.947 30.817C360.991 30.817 359.677 29.6373 359.677 27.8725C359.677 26.1925 360.972 25.1355 363.239 25.0033L366.055 24.8429V24.0217C366.055 22.8232 365.262 22.1059 363.901 22.1059C362.635 22.1059 361.841 22.7005 361.633 23.6631H360.046C360.159 21.9643 361.615 20.6619 363.939 20.6619C366.245 20.6619 367.7 21.9076 367.7 23.8613V30.6472H366.141V28.9578H366.103C365.516 30.0809 364.27 30.817 362.947 30.817ZM369.617 23.5405C369.617 21.8605 371.12 20.6619 373.284 20.6619C375.316 20.6619 376.808 21.87 376.884 23.531H375.316C375.202 22.5872 374.437 22.002 373.227 22.002C372.028 22.002 371.233 22.5966 371.233 23.4555C371.233 24.1351 371.753 24.5881 372.869 24.8712L374.389 25.2393C376.374 25.7395 377.092 26.4568 377.092 27.9008C377.092 29.609 375.476 30.817 373.18 30.817C371.026 30.817 369.523 29.6468 369.353 27.9102H370.997C371.177 28.9295 371.952 29.4769 373.284 29.4769C374.617 29.4769 375.438 28.9107 375.438 28.0235C375.438 27.325 375.032 26.9476 373.926 26.655L372.198 26.2114C370.468 25.7678 369.617 24.8807 369.617 23.5405ZM382.743 22.087C381.203 22.087 380.125 23.2667 380.021 24.8995H385.36C385.322 23.2573 384.293 22.087 382.743 22.087ZM385.322 27.8347H386.938C386.654 29.5524 384.992 30.817 382.847 30.817C380.03 30.817 378.32 28.8635 378.32 25.7772C378.32 22.7288 380.059 20.6619 382.771 20.6619C385.426 20.6619 387.061 22.5872 387.061 25.5602V26.183H380.012V26.2774C380.012 28.1556 381.117 29.3919 382.885 29.3919C384.131 29.3919 385.048 28.7596 385.322 27.8347Z" fill="white" fill-opacity="0.3"/>
<path d="M232.222 81.9141L237.727 89.1632C238.924 90.7385 240.97 91.4094 242.868 90.848C243.913 90.5396 245.033 90.5984 246.04 91.0147L246.224 91.0912C247.304 91.5382 248.207 92.3275 248.793 93.3382L253.393 101.27C253.781 101.939 254.496 102.35 255.27 102.35C256.16 102.35 256.96 101.807 257.287 100.98L257.946 99.3149C259.603 95.1245 265.606 95.3186 266.987 99.6072L271.958 115.034C272.244 115.922 272.932 116.624 273.815 116.928C275.316 117.446 276.96 116.691 277.544 115.215L281.441 105.359C282.159 103.544 283.915 102.35 285.87 102.35C287.272 102.35 288.602 102.968 289.507 104.038L294.54 109.988C296.491 112.295 299.362 113.625 302.386 113.625C303.739 113.625 305.082 113.851 306.361 114.292L306.473 114.33C307.826 114.797 309.247 115.035 310.679 115.035H310.832C314.576 115.035 318.16 116.555 320.761 119.245L323.627 122.211C323.993 122.589 324.444 122.877 324.943 123.048C325.767 123.333 326.67 123.284 327.458 122.913L340.856 116.613C341.092 116.502 341.35 116.444 341.611 116.444C342.213 116.444 342.774 116.75 343.1 117.256L345.301 120.672C347 123.308 349.923 124.901 353.061 124.901H353.613C354.873 124.901 356.123 125.133 357.299 125.587L390.261 138.29" stroke="#17EC20" stroke-width="5.25" stroke-linecap="round" stroke-linejoin="round"/>
<path d="M284.324 82.4942C283.833 82.3251 283.573 81.7903 283.742 81.2999C283.912 80.8102 284.448 80.5501 284.938 80.72L284.324 82.4942ZM349.172 103.224C349.399 103.691 349.204 104.252 348.737 104.479L341.126 108.17C340.659 108.397 340.097 108.202 339.87 107.736C339.643 107.27 339.838 106.708 340.305 106.481L347.07 103.199L343.784 96.4424C343.558 95.9761 343.753 95.414 344.22 95.1876C344.687 94.9613 345.249 95.1554 345.476 95.6225L349.172 103.224ZM284.938 80.72L348.634 102.747L348.019 104.522L284.324 82.4942L284.938 80.72Z" fill="white" fill-opacity="0.3"/>
<path d="M222.653 93.854C222.653 83.74 214.444 75.541 204.318 75.541C194.192 75.541 185.983 83.74 185.983 93.854C185.983 103.968 194.192 112.167 204.318 112.167C214.444 112.167 222.653 103.968 222.653 93.854Z" fill="#0B0528"/>
<path d="M207.587 99.085V88.6224H209.34V90.3934H209.38C209.733 89.1862 210.639 88.4219 211.817 88.4219C212.119 88.4219 212.381 88.4718 212.522 88.4919V90.1921C212.381 90.1413 212.009 90.0914 211.585 90.0914C210.226 90.0914 209.34 91.0369 209.34 92.6267V99.085H207.587Z" fill="white"/>
<path d="M200.97 99.2855C198.059 99.2855 196.116 97.1835 196.116 93.8541V93.834C196.116 90.5038 198.07 88.4219 200.961 88.4219C203.851 88.4219 205.815 90.4941 205.815 93.834V93.8541C205.815 97.1932 203.861 99.2855 200.97 99.2855ZM200.981 97.7368C202.823 97.7368 204.022 96.3081 204.022 93.8541V93.834C204.022 91.3792 202.814 89.9706 200.961 89.9706C199.138 89.9706 197.909 91.3889 197.909 93.834V93.8541C197.909 96.3185 199.127 97.7368 200.981 97.7368Z" fill="white"/>
<path d="M12.2995 216.487H10.9767V207.742H10.9215L7.29935 216.409H6.10247L2.48031 207.742H2.42519V216.487H1.10232V205.138H2.74803L6.66941 214.608H6.73241L10.6538 205.138H12.2995V216.487ZM16.7563 215.465C18.0477 215.465 19.0399 214.561 19.0399 213.381V212.713L16.8508 212.846C15.7484 212.917 15.1185 213.404 15.1185 214.175C15.1185 214.954 15.772 215.465 16.7563 215.465ZM16.4493 216.629C14.8193 216.629 13.7248 215.646 13.7248 214.175C13.7248 212.775 14.8035 211.894 16.6933 211.784L19.0399 211.65V210.966C19.0399 209.967 18.3785 209.369 17.2445 209.369C16.1894 209.369 15.5279 209.866 15.3547 210.668H14.0318C14.1263 209.252 15.3389 208.166 17.2761 208.166C19.1974 208.166 20.41 209.204 20.41 210.833V216.487H19.1108V215.08H19.0792C18.591 216.015 17.5517 216.629 16.4493 216.629ZM22.1502 216.487V208.308H23.4416V209.645H23.4731C23.7408 208.74 24.4968 208.166 25.4574 208.166C25.6936 208.166 25.8983 208.206 26.0086 208.222V209.551C25.8983 209.511 25.607 209.472 25.2763 209.472C24.2133 209.472 23.5203 210.235 23.5203 211.391V216.487H22.1502ZM28.5677 211.942L32.1899 208.308H33.8513L30.3 211.839L33.9616 216.487H32.371L29.3316 212.681L28.5677 213.404V216.487H27.1976V205.138H28.5677V211.942ZM37.8436 209.354C36.5601 209.354 35.6624 210.337 35.5758 211.698H40.0248C39.9933 210.329 39.135 209.354 37.8436 209.354ZM39.9933 214.144H41.3398C41.1036 215.575 39.7177 216.629 37.9302 216.629C35.5837 216.629 34.1585 215.001 34.1585 212.429C34.1585 209.889 35.6074 208.166 37.8672 208.166C40.0799 208.166 41.4422 209.77 41.4422 212.249V212.767H35.5679V212.846C35.5679 214.411 36.4892 215.441 37.9617 215.441C39.0011 215.441 39.7649 214.914 39.9933 214.144ZM43.269 206.334H44.6391V208.308H46.2297V209.432H44.6391V214.293C44.6391 215.04 44.9541 215.378 45.6549 215.378C45.8124 215.378 46.1273 215.355 46.2218 215.339V216.487C46.0564 216.527 45.6785 216.55 45.3557 216.55C43.8517 216.55 43.269 215.937 43.269 214.364V209.432H42.0484V208.308H43.269V206.334ZM50.8598 210.565C50.8598 209.165 52.1118 208.166 53.9149 208.166C55.6079 208.166 56.8521 209.173 56.915 210.557H55.6079C55.5135 209.77 54.8756 209.283 53.8677 209.283C52.8677 209.283 52.2063 209.779 52.2063 210.495C52.2063 211.061 52.6393 211.438 53.5685 211.674L54.8363 211.98C56.4899 212.398 57.0883 212.995 57.0883 214.198C57.0883 215.622 55.7418 216.629 53.8283 216.629C52.033 216.629 50.781 215.654 50.6393 214.206H52.0094C52.159 215.056 52.8047 215.512 53.9149 215.512C55.0252 215.512 55.7103 215.04 55.7103 214.301C55.7103 213.719 55.3717 213.404 54.4504 213.16L53.0094 212.791C51.5685 212.421 50.8598 211.682 50.8598 210.565ZM58.5844 216.487V205.138H59.9546V216.487H58.5844ZM65.1988 216.629C62.931 216.629 61.4034 215.001 61.4034 212.398C61.4034 209.787 62.931 208.166 65.1988 208.166C67.4587 208.166 68.9863 209.787 68.9863 212.398C68.9863 215.001 67.4587 216.629 65.1988 216.629ZM65.1988 215.426C66.6476 215.426 67.5925 214.325 67.5925 212.398C67.5925 210.47 66.6476 209.369 65.1988 209.369C63.7499 209.369 62.7972 210.47 62.7972 212.398C62.7972 214.325 63.7499 215.426 65.1988 215.426ZM80.7896 208.308L78.5063 216.487H77.1126L75.2621 210.156H75.2306L73.388 216.487H71.9943L69.7029 208.308H71.0651L72.7029 214.962H72.7345L74.5849 208.308H75.9078L77.7661 214.962H77.7976L79.4354 208.308H80.7896ZM81.987 216.487V208.308H83.3569V216.487H81.987ZM82.6715 206.932C82.2071 206.932 81.8217 206.546 81.8217 206.082C81.8217 205.61 82.2071 205.233 82.6715 205.233C83.144 205.233 83.5303 205.61 83.5303 206.082C83.5303 206.546 83.144 206.932 82.6715 206.932ZM85.2074 216.487V208.308H86.4983V209.613H86.5298C86.987 208.732 87.861 208.166 89.1286 208.166C90.9243 208.166 91.9636 209.323 91.9636 211.178V216.487H90.5937V211.422C90.5937 210.101 89.9712 209.377 88.7117 209.377C87.42 209.377 86.5774 210.29 86.5774 211.674V216.487H85.2074ZM97.0426 215.347C98.4674 215.347 99.4205 214.167 99.4205 212.366C99.4205 210.565 98.4674 209.369 97.0426 209.369C95.6332 209.369 94.7116 210.534 94.7116 212.366C94.7116 214.198 95.6332 215.347 97.0426 215.347ZM97.0894 219.57C95.2865 219.57 93.8609 218.556 93.6327 217.164H95.0422C95.3099 217.911 96.121 218.406 97.145 218.406C98.5618 218.406 99.4205 217.588 99.4205 216.37V215.08H99.389C98.8851 215.969 97.9167 216.55 96.7669 216.55C94.6801 216.55 93.3102 214.906 93.3102 212.366C93.3102 209.802 94.6801 208.166 96.7983 208.166C97.9554 208.166 98.9165 208.732 99.46 209.684H99.4834V208.308H100.79V216.322C100.79 218.273 99.3495 219.57 97.0894 219.57ZM108.988 216.629C106.901 216.629 105.483 214.962 105.483 212.398C105.483 209.833 106.893 208.166 108.956 208.166C110.129 208.166 111.074 208.74 111.562 209.637H111.594V205.138H112.964V216.487H111.657V215.103H111.633C111.106 216.047 110.169 216.629 108.988 216.629ZM109.247 209.369C107.798 209.369 106.885 210.549 106.885 212.398C106.885 214.254 107.798 215.426 109.247 215.426C110.657 215.426 111.602 214.23 111.602 212.398C111.602 210.573 110.657 209.369 109.247 209.369ZM118.209 216.629C115.94 216.629 114.413 215.001 114.413 212.398C114.413 209.787 115.94 208.166 118.209 208.166C120.468 208.166 121.996 209.787 121.996 212.398C121.996 215.001 120.468 216.629 118.209 216.629ZM118.209 215.426C119.657 215.426 120.602 214.325 120.602 212.398C120.602 210.47 119.657 209.369 118.209 209.369C116.76 209.369 115.807 210.47 115.807 212.398C115.807 214.325 116.76 215.426 118.209 215.426ZM133.8 208.308L131.515 216.487H130.122L128.272 210.156H128.24L126.398 216.487H125.004L122.713 208.308H124.075L125.712 214.962H125.744L127.594 208.308H128.917L130.776 214.962H130.807L132.445 208.308H133.8ZM134.925 216.487V208.308H136.217V209.613H136.249C136.705 208.732 137.579 208.166 138.847 208.166C140.642 208.166 141.682 209.323 141.682 211.178V216.487H140.312V211.422C140.312 210.101 139.689 209.377 138.43 209.377C137.138 209.377 136.295 210.29 136.295 211.674V216.487H134.925ZM146.807 216.487V208.308H148.178V216.487H146.807ZM147.493 206.932C147.028 206.932 146.642 206.546 146.642 206.082C146.642 205.61 147.028 205.233 147.493 205.233C147.965 205.233 148.351 205.61 148.351 206.082C148.351 206.546 147.965 206.932 147.493 206.932ZM149.887 210.565C149.887 209.165 151.138 208.166 152.942 208.166C154.634 208.166 155.878 209.173 155.941 210.557H154.634C154.54 209.77 153.902 209.283 152.894 209.283C151.894 209.283 151.233 209.779 151.233 210.495C151.233 211.061 151.666 211.438 152.595 211.674L153.863 211.98C155.516 212.398 156.115 212.995 156.115 214.198C156.115 215.622 154.768 216.629 152.855 216.629C151.06 216.629 149.808 215.654 149.666 214.206H151.036C151.186 215.056 151.832 215.512 152.942 215.512C154.052 215.512 154.737 215.04 154.737 214.301C154.737 213.719 154.398 213.404 153.477 213.16L152.036 212.791C150.595 212.421 149.887 211.682 149.887 210.565ZM163.548 215.465C164.84 215.465 165.832 214.561 165.832 213.381V212.713L163.643 212.846C162.54 212.917 161.911 213.404 161.911 214.175C161.911 214.954 162.564 215.465 163.548 215.465ZM163.241 216.629C161.611 216.629 160.516 215.646 160.516 214.175C160.516 212.775 161.595 211.894 163.485 211.784L165.832 211.65V210.966C165.832 209.967 165.171 209.369 164.037 209.369C162.981 209.369 162.32 209.866 162.147 210.668H160.824C160.918 209.252 162.131 208.166 164.068 208.166C165.989 208.166 167.202 209.204 167.202 210.833V216.487H165.903V215.08H165.871C165.383 216.015 164.343 216.629 163.241 216.629ZM172.249 216.487V208.308H173.541V209.645H173.572C173.84 208.74 174.596 208.166 175.557 208.166C175.793 208.166 175.997 208.206 176.108 208.222V209.551C175.997 209.511 175.706 209.472 175.375 209.472C174.313 209.472 173.619 210.235 173.619 211.391V216.487H172.249ZM180.116 209.354C178.832 209.354 177.935 210.337 177.848 211.698H182.297C182.265 210.329 181.407 209.354 180.116 209.354ZM182.265 214.144H183.612C183.376 215.575 181.99 216.629 180.202 216.629C177.856 216.629 176.431 215.001 176.431 212.429C176.431 209.889 177.879 208.166 180.139 208.166C182.352 208.166 183.714 209.77 183.714 212.249V212.767H177.84V212.846C177.84 214.411 178.761 215.441 180.234 215.441C181.273 215.441 182.037 214.914 182.265 214.144ZM187.801 215.465C189.093 215.465 190.084 214.561 190.084 213.381V212.713L187.895 212.846C186.793 212.917 186.163 213.404 186.163 214.175C186.163 214.954 186.816 215.465 187.801 215.465ZM187.494 216.629C185.864 216.629 184.769 215.646 184.769 214.175C184.769 212.775 185.848 211.894 187.738 211.784L190.084 211.65V210.966C190.084 209.967 189.423 209.369 188.29 209.369C187.234 209.369 186.573 209.866 186.399 210.668H185.076C185.171 209.252 186.383 208.166 188.321 208.166C190.242 208.166 191.454 209.204 191.454 210.833V216.487H190.155V215.08H190.124C189.636 216.015 188.596 216.629 187.494 216.629ZM193.053 210.565C193.053 209.165 194.305 208.166 196.108 208.166C197.801 208.166 199.045 209.173 199.109 210.557H197.801C197.707 209.77 197.069 209.283 196.061 209.283C195.061 209.283 194.4 209.779 194.4 210.495C194.4 211.061 194.833 211.438 195.762 211.674L197.029 211.98C198.683 212.398 199.281 212.995 199.281 214.198C199.281 215.622 197.936 216.629 196.021 216.629C194.226 216.629 192.974 215.654 192.832 214.206H194.203C194.352 215.056 194.998 215.512 196.108 215.512C197.219 215.512 197.903 215.04 197.903 214.301C197.903 213.719 197.565 213.404 196.644 213.16L195.203 212.791C193.762 212.421 193.053 211.682 193.053 210.565ZM204.101 216.629C201.833 216.629 200.305 215.001 200.305 212.398C200.305 209.787 201.833 208.166 204.101 208.166C206.361 208.166 207.888 209.787 207.888 212.398C207.888 215.001 206.361 216.629 204.101 216.629ZM204.101 215.426C205.55 215.426 206.495 214.325 206.495 212.398C206.495 210.47 205.55 209.369 204.101 209.369C202.652 209.369 201.699 210.47 201.699 212.398C201.699 214.325 202.652 215.426 204.101 215.426ZM209.274 216.487V208.308H210.566V209.613H210.597C211.054 208.732 211.928 208.166 213.195 208.166C214.991 208.166 216.03 209.323 216.03 211.178V216.487H214.66V211.422C214.66 210.101 214.038 209.377 212.778 209.377C211.487 209.377 210.644 210.29 210.644 211.674V216.487H209.274ZM224.479 216.629C222.212 216.629 220.684 215.001 220.684 212.398C220.684 209.787 222.212 208.166 224.479 208.166C226.739 208.166 228.267 209.787 228.267 212.398C228.267 215.001 226.739 216.629 224.479 216.629ZM224.479 215.426C225.928 215.426 226.873 214.325 226.873 212.398C226.873 210.47 225.928 209.369 224.479 209.369C223.031 209.369 222.078 210.47 222.078 212.398C222.078 214.325 223.031 215.426 224.479 215.426ZM230.093 216.487V209.432H228.952V208.308H230.093V207.395C230.093 205.823 230.826 205.075 232.338 205.075C232.645 205.075 232.976 205.107 233.173 205.138V206.247C233.007 206.224 232.778 206.2 232.55 206.2C231.81 206.2 231.456 206.593 231.456 207.404V208.308H233.133V209.432H231.464V216.487H230.093ZM237.928 216.487V205.138H239.298V216.487H237.928ZM244.543 216.629C242.275 216.629 240.747 215.001 240.747 212.398C240.747 209.787 242.275 208.166 244.543 208.166C246.803 208.166 248.331 209.787 248.331 212.398C248.331 215.001 246.803 216.629 244.543 216.629ZM244.543 215.426C245.992 215.426 246.937 214.325 246.937 212.398C246.937 210.47 245.992 209.369 244.543 209.369C243.094 209.369 242.141 210.47 242.141 212.398C242.141 214.325 243.094 215.426 244.543 215.426ZM260.134 208.308L257.85 216.487H256.457L254.606 210.156H254.575L252.733 216.487H251.338L249.047 208.308H250.41L252.047 214.962H252.079L253.929 208.308H255.252L257.11 214.962H257.142L258.78 208.308H260.134ZM264.638 216.487V208.308H266.008V216.487H264.638ZM265.323 206.932C264.859 206.932 264.473 206.546 264.473 206.082C264.473 205.61 264.859 205.233 265.323 205.233C265.796 205.233 266.181 205.61 266.181 206.082C266.181 206.546 265.796 206.932 265.323 206.932ZM267.858 216.487V208.308H269.15V209.613H269.182C269.638 208.732 270.512 208.166 271.78 208.166C273.575 208.166 274.615 209.323 274.615 211.178V216.487H273.245V211.422C273.245 210.101 272.622 209.377 271.363 209.377C270.071 209.377 269.228 210.29 269.228 211.674V216.487H267.858ZM276.804 206.334H278.174V208.308H279.765V209.432H278.174V214.293C278.174 215.04 278.489 215.378 279.19 215.378C279.347 215.378 279.662 215.355 279.757 215.339V216.487C279.591 216.527 279.213 216.55 278.891 216.55C277.387 216.55 276.804 215.937 276.804 214.364V209.432H275.583V208.308H276.804V206.334ZM284.277 209.354C282.993 209.354 282.096 210.337 282.009 211.698H286.458C286.426 210.329 285.568 209.354 284.277 209.354ZM286.426 214.144H287.773C287.537 215.575 286.151 216.629 284.363 216.629C282.017 216.629 280.591 215.001 280.591 212.429C280.591 209.889 282.04 208.166 284.3 208.166C286.513 208.166 287.875 209.77 287.875 212.249V212.767H282V212.846C282 214.411 282.922 215.441 284.394 215.441C285.434 215.441 286.197 214.914 286.426 214.144ZM289.261 216.487V208.308H290.552V209.645H290.584C290.852 208.74 291.607 208.166 292.568 208.166C292.804 208.166 293.009 208.206 293.119 208.222V209.551C293.009 209.511 292.717 209.472 292.387 209.472C291.324 209.472 290.631 210.235 290.631 211.391V216.487H289.261ZM297.127 209.354C295.843 209.354 294.946 210.337 294.86 211.698H299.308C299.277 210.329 298.419 209.354 297.127 209.354ZM299.277 214.144H300.623C300.387 215.575 299.001 216.629 297.214 216.629C294.867 216.629 293.442 215.001 293.442 212.429C293.442 209.889 294.891 208.166 297.151 208.166C299.364 208.166 300.726 209.77 300.726 212.249V212.767H294.852V212.846C294.852 214.411 295.773 215.441 297.246 215.441C298.285 215.441 299.049 214.914 299.277 214.144ZM301.97 210.565C301.97 209.165 303.222 208.166 305.025 208.166C306.718 208.166 307.963 209.173 308.025 210.557H306.718C306.623 209.77 305.985 209.283 304.978 209.283C303.978 209.283 303.316 209.779 303.316 210.495C303.316 211.061 303.749 211.438 304.678 211.674L305.947 211.98C307.6 212.398 308.199 212.995 308.199 214.198C308.199 215.622 306.852 216.629 304.939 216.629C303.143 216.629 301.891 215.654 301.75 214.206H303.12C303.269 215.056 303.915 215.512 305.025 215.512C306.135 215.512 306.821 215.04 306.821 214.301C306.821 213.719 306.482 213.404 305.56 213.16L304.12 212.791C302.679 212.421 301.97 211.682 301.97 210.565ZM310.065 206.334H311.435V208.308H313.025V209.432H311.435V214.293C311.435 215.04 311.75 215.378 312.451 215.378C312.608 215.378 312.923 215.355 313.017 215.339V216.487C312.852 216.527 312.474 216.55 312.151 216.55C310.648 216.55 310.065 215.937 310.065 214.364V209.432H308.844V208.308H310.065V206.334ZM317.797 216.487V208.308H319.088V209.645H319.12C319.388 208.74 320.144 208.166 321.104 208.166C321.34 208.166 321.545 208.206 321.656 208.222V209.551C321.545 209.511 321.254 209.472 320.923 209.472C319.86 209.472 319.167 210.235 319.167 211.391V216.487H317.797ZM325.317 215.465C326.609 215.465 327.601 214.561 327.601 213.381V212.713L325.411 212.846C324.309 212.917 323.679 213.404 323.679 214.175C323.679 214.954 324.333 215.465 325.317 215.465ZM325.01 216.629C323.38 216.629 322.285 215.646 322.285 214.175C322.285 212.775 323.364 211.894 325.254 211.784L327.601 211.65V210.966C327.601 209.967 326.939 209.369 325.805 209.369C324.75 209.369 324.089 209.866 323.916 210.668H322.592C322.687 209.252 323.9 208.166 325.837 208.166C327.758 208.166 328.97 209.204 328.97 210.833V216.487H327.672V215.08H327.64C327.151 216.015 326.112 216.629 325.01 216.629ZM331.152 206.334H332.522V208.308H334.112V209.432H332.522V214.293C332.522 215.04 332.837 215.378 333.538 215.378C333.696 215.378 334.01 215.355 334.104 215.339V216.487C333.939 216.527 333.562 216.55 333.238 216.55C331.735 216.55 331.152 215.937 331.152 214.364V209.432H329.932V208.308H331.152V206.334ZM338.625 209.354C337.341 209.354 336.444 210.337 336.356 211.698H340.806C340.774 210.329 339.916 209.354 338.625 209.354ZM340.774 214.144H342.121C341.885 215.575 340.499 216.629 338.711 216.629C336.364 216.629 334.94 215.001 334.94 212.429C334.94 209.889 336.389 208.166 338.648 208.166C340.861 208.166 342.223 209.77 342.223 212.249V212.767H336.349V212.846C336.349 214.411 337.27 215.441 338.742 215.441C339.782 215.441 340.546 214.914 340.774 214.144ZM343.467 210.565C343.467 209.165 344.72 208.166 346.523 208.166C348.215 208.166 349.459 209.173 349.523 210.557H348.215C348.121 209.77 347.483 209.283 346.475 209.283C345.475 209.283 344.814 209.779 344.814 210.495C344.814 211.061 345.247 211.438 346.176 211.674L347.443 211.98C349.097 212.398 349.695 212.995 349.695 214.198C349.695 215.622 348.349 216.629 346.435 216.629C344.641 216.629 343.388 215.654 343.246 214.206H344.617C344.766 215.056 345.412 215.512 346.523 215.512C347.633 215.512 348.317 215.04 348.317 214.301C348.317 213.719 347.979 213.404 347.058 213.16L345.617 212.791C344.176 212.421 343.467 211.682 343.467 210.565ZM357.129 215.465C358.421 215.465 359.412 214.561 359.412 213.381V212.713L357.223 212.846C356.121 212.917 355.491 213.404 355.491 214.175C355.491 214.954 356.144 215.465 357.129 215.465ZM356.822 216.629C355.192 216.629 354.097 215.646 354.097 214.175C354.097 212.775 355.176 211.894 357.066 211.784L359.412 211.65V210.966C359.412 209.967 358.751 209.369 357.618 209.369C356.562 209.369 355.901 209.866 355.728 210.668H354.404C354.499 209.252 355.711 208.166 357.649 208.166C359.57 208.166 360.782 209.204 360.782 210.833V216.487H359.483V215.08H359.452C358.964 216.015 357.924 216.629 356.822 216.629ZM362.523 216.487V208.308H363.814V209.613H363.846C364.303 208.732 365.177 208.166 366.444 208.166C368.239 208.166 369.279 209.323 369.279 211.178V216.487H367.909V211.422C367.909 210.101 367.287 209.377 366.027 209.377C364.736 209.377 363.893 210.29 363.893 211.674V216.487H362.523ZM374.129 216.629C372.043 216.629 370.625 214.962 370.625 212.398C370.625 209.833 372.035 208.166 374.098 208.166C375.271 208.166 376.216 208.74 376.705 209.637H376.736V205.138H378.106V216.487H376.799V215.103H376.775C376.248 216.047 375.311 216.629 374.129 216.629ZM374.389 209.369C372.941 209.369 372.027 210.549 372.027 212.398C372.027 214.254 372.941 215.426 374.389 215.426C375.799 215.426 376.744 214.23 376.744 212.398C376.744 210.573 375.799 209.369 374.389 209.369ZM7.61433 227.637V235.816H6.31507V234.487H6.28358C5.79537 235.431 4.94495 235.958 3.68507 235.958C1.89762 235.958 0.850342 234.801 0.850342 232.946V227.637H2.22046V232.702C2.22046 234.031 2.84253 234.747 4.11029 234.747C5.44104 234.747 6.24421 233.834 6.24421 232.442V227.637H7.61433ZM9.39392 235.816V227.637H10.6853V228.942H10.7168C11.1735 228.061 12.0475 227.495 13.3153 227.495C15.1106 227.495 16.15 228.652 16.15 230.507V235.816H14.7799V230.751C14.7799 229.43 14.1578 228.706 12.898 228.706C11.6066 228.706 10.764 229.619 10.764 231.003V235.816H9.39392ZM17.969 235.816V224.467H19.3391V235.816H17.969ZM21.2604 235.816V227.637H22.6305V235.816H21.2604ZM21.9455 226.26C21.4809 226.26 21.0951 225.875 21.0951 225.411C21.0951 224.939 21.4809 224.562 21.9455 224.562C22.4179 224.562 22.8037 224.939 22.8037 225.411C22.8037 225.875 22.4179 226.26 21.9455 226.26ZM25.9219 231.271L29.5441 227.637H31.2056L27.6543 231.168L31.3159 235.816H29.7252L26.6858 232.01L25.9219 232.733V235.816H24.5518V224.467H25.9219V231.271ZM35.1978 228.683C33.9143 228.683 33.0167 229.666 32.93 231.027H37.379C37.3476 229.658 36.4892 228.683 35.1978 228.683ZM37.3476 233.473H38.694C38.4578 234.904 37.072 235.958 35.2845 235.958C32.9379 235.958 31.5127 234.329 31.5127 231.758C31.5127 229.218 32.9616 227.495 35.2214 227.495C37.4342 227.495 38.7964 229.099 38.7964 231.577V232.096H32.9222V232.175C32.9222 233.74 33.8435 234.77 35.3159 234.77C36.3554 234.77 37.1192 234.243 37.3476 233.473ZM40.2532 235.816V224.467H41.6233V235.816H40.2532ZM44.1509 238.876C43.9855 238.876 43.7099 238.86 43.5603 238.828V237.681C43.7099 237.712 43.9226 237.719 44.0958 237.719C44.8596 237.719 45.2848 237.35 45.5997 236.398L45.7887 235.824L42.765 227.637H44.2296L46.4974 234.448H46.521L48.7888 227.637H50.2298L47.0093 236.39C46.3084 238.302 45.6313 238.876 44.1509 238.876ZM54.6945 235.816V227.637H56.0646V235.816H54.6945ZM55.3796 226.26C54.915 226.26 54.5292 225.875 54.5292 225.411C54.5292 224.939 54.915 224.562 55.3796 224.562C55.8521 224.562 56.2379 224.939 56.2379 225.411C56.2379 225.875 55.8521 226.26 55.3796 226.26ZM57.9151 235.816V227.637H59.2064V228.942H59.238C59.6947 228.061 60.5687 227.495 61.8365 227.495C63.6318 227.495 64.6712 228.652 64.6712 230.507V235.816H63.3011V230.751C63.3011 229.43 62.679 228.706 61.4192 228.706C60.1278 228.706 59.2852 229.619 59.2852 231.003V235.816H57.9151ZM73.2226 230.319H71.884C71.6871 229.43 70.9943 228.698 69.7895 228.698C68.3721 228.698 67.4114 229.87 67.4114 231.726C67.4114 233.63 68.3879 234.755 69.8053 234.755C70.9234 234.755 71.6557 234.164 71.8919 233.182H73.2384C73.0258 234.809 71.6557 235.958 69.7974 235.958C67.5296 235.958 66.0177 234.362 66.0177 231.726C66.0177 229.147 67.5217 227.495 69.7816 227.495C71.8289 227.495 73.0494 228.848 73.2226 230.319ZM74.4983 235.816V227.637H75.7896V228.974H75.8212C76.0889 228.069 76.8448 227.495 77.8054 227.495C78.0417 227.495 78.2464 227.535 78.3566 227.551V228.879C78.2464 228.84 77.9551 228.801 77.6243 228.801C76.5614 228.801 75.8684 229.564 75.8684 230.72V235.816H74.4983ZM82.3643 228.683C81.0815 228.683 80.1835 229.666 80.0969 231.027H84.5462C84.514 229.658 83.6561 228.683 82.3643 228.683ZM84.514 233.473H85.8605C85.6243 234.904 84.239 235.958 82.4514 235.958C80.1048 235.958 78.6795 234.329 78.6795 231.758C78.6795 229.218 80.1284 227.495 82.3885 227.495C84.6011 227.495 85.9629 229.099 85.9629 231.577V232.096H80.089V232.175C80.089 233.74 81.0105 234.77 82.4828 234.77C83.5222 234.77 84.2858 234.243 84.514 233.473ZM90.0502 234.794C91.3411 234.794 92.3337 233.89 92.3337 232.71V232.041L90.1445 232.175C89.0423 232.246 88.4118 232.733 88.4118 233.504C88.4118 234.283 89.0657 234.794 90.0502 234.794ZM89.743 235.958C88.1126 235.958 87.0184 234.975 87.0184 233.504C87.0184 232.104 88.0973 231.223 89.9873 231.113L92.3337 230.979V230.295C92.3337 229.296 91.6717 228.698 90.538 228.698C89.4834 228.698 88.8214 229.194 88.648 229.997H87.3256C87.42 228.581 88.6327 227.495 90.5695 227.495C92.4909 227.495 93.7037 228.533 93.7037 230.162V235.816H92.4047V234.408H92.3732C91.8846 235.344 90.8452 235.958 89.743 235.958ZM95.3018 229.894C95.3018 228.494 96.554 227.495 98.357 227.495C100.05 227.495 101.294 228.502 101.357 229.886H100.05C99.9559 229.099 99.3181 228.612 98.3102 228.612C97.3103 228.612 96.6483 229.107 96.6483 229.823C96.6483 230.39 97.0813 230.767 98.011 231.003L99.2786 231.309C100.932 231.726 101.531 232.324 101.531 233.527C101.531 234.951 100.184 235.958 98.2707 235.958C96.475 235.958 95.2236 234.983 95.0817 233.535H96.4516C96.6016 234.385 97.2466 234.841 98.357 234.841C99.4673 234.841 100.153 234.369 100.153 233.63C100.153 233.048 99.814 232.733 98.8924 232.489L97.4514 232.119C96.0106 231.75 95.3018 231.01 95.3018 229.894ZM106.24 228.683C104.956 228.683 104.058 229.666 103.971 231.027H108.421C108.389 229.658 107.53 228.683 106.24 228.683ZM108.389 233.473H109.736C109.5 234.904 108.113 235.958 106.326 235.958C103.979 235.958 102.555 234.329 102.555 231.758C102.555 229.218 104.003 227.495 106.263 227.495C108.476 227.495 109.838 229.099 109.838 231.577V232.096H103.964V232.175C103.964 233.74 104.885 234.77 106.357 234.77C107.397 234.77 108.161 234.243 108.389 233.473ZM117.925 235.958C115.657 235.958 114.129 234.329 114.129 231.726C114.129 229.115 115.657 227.495 117.925 227.495C120.185 227.495 121.712 229.115 121.712 231.726C121.712 234.329 120.185 235.958 117.925 235.958ZM117.925 234.755C119.374 234.755 120.319 233.654 120.319 231.726C120.319 229.799 119.374 228.698 117.925 228.698C116.476 228.698 115.523 229.799 115.523 231.726C115.523 233.654 116.476 234.755 117.925 234.755ZM123.539 235.816V228.761H122.397V227.637H123.539V226.724C123.539 225.151 124.271 224.404 125.783 224.404C126.09 224.404 126.421 224.435 126.618 224.467V225.576C126.453 225.553 126.224 225.529 125.996 225.529C125.256 225.529 124.901 225.922 124.901 226.732V227.637H126.578V228.761H124.909V235.816H123.539ZM131.744 225.663H133.114V227.637H134.705V228.761H133.114V233.622C133.114 234.369 133.43 234.707 134.13 234.707C134.288 234.707 134.603 234.684 134.697 234.668V235.816C134.532 235.856 134.154 235.879 133.831 235.879C132.327 235.879 131.744 235.266 131.744 233.692V228.761H130.524V227.637H131.744V225.663ZM136.24 235.816V224.467H137.61V228.942H137.642C138.099 228.03 138.996 227.495 140.241 227.495C142.036 227.495 143.122 228.706 143.122 230.531V235.816H141.753V230.783C141.753 229.485 141.099 228.706 139.815 228.706C138.453 228.706 137.61 229.634 137.61 231.05V235.816H136.24ZM148.146 228.683C146.863 228.683 145.965 229.666 145.878 231.027H150.328C150.296 229.658 149.438 228.683 148.146 228.683ZM150.296 233.473H151.642C151.406 234.904 150.021 235.958 148.233 235.958C145.887 235.958 144.461 234.329 144.461 231.758C144.461 229.218 145.91 227.495 148.17 227.495C150.383 227.495 151.744 229.099 151.744 231.577V232.096H145.87V232.175C145.87 233.74 146.792 234.77 148.264 234.77C149.304 234.77 150.067 234.243 150.296 233.473ZM156.296 229.894C156.296 228.494 157.548 227.495 159.351 227.495C161.045 227.495 162.289 228.502 162.352 229.886H161.045C160.949 229.099 160.312 228.612 159.304 228.612C158.304 228.612 157.643 229.107 157.643 229.823C157.643 230.39 158.076 230.767 159.005 231.003L160.273 231.309C161.926 231.726 162.524 232.324 162.524 233.527C162.524 234.951 161.178 235.958 159.265 235.958C157.469 235.958 156.217 234.983 156.075 233.535H157.446C157.595 234.385 158.241 234.841 159.351 234.841C160.462 234.841 161.147 234.369 161.147 233.63C161.147 233.048 160.808 232.733 159.887 232.489L158.446 232.119C157.005 231.75 156.296 231.01 156.296 229.894ZM167.927 227.495C170.013 227.495 171.43 229.162 171.43 231.726C171.43 234.291 170.021 235.958 167.958 235.958C166.785 235.958 165.84 235.384 165.351 234.487H165.32V238.546H163.95V227.637H165.249V229.021H165.28C165.784 228.101 166.737 227.495 167.927 227.495ZM167.659 234.755C169.115 234.755 170.029 233.583 170.029 231.726C170.029 229.878 169.115 228.698 167.659 228.698C166.257 228.698 165.312 229.91 165.312 231.726C165.312 233.551 166.257 234.755 167.659 234.755ZM172.816 235.816V227.637H174.108V228.974H174.139C174.407 228.069 175.163 227.495 176.124 227.495C176.36 227.495 176.565 227.535 176.674 227.551V228.879C176.565 228.84 176.273 228.801 175.942 228.801C174.88 228.801 174.186 229.564 174.186 230.72V235.816H172.816ZM180.683 228.683C179.399 228.683 178.502 229.666 178.415 231.027H182.864C182.832 229.658 181.974 228.683 180.683 228.683ZM182.832 233.473H184.179C183.943 234.904 182.557 235.958 180.769 235.958C178.423 235.958 176.998 234.329 176.998 231.758C176.998 229.218 178.447 227.495 180.706 227.495C182.919 227.495 184.281 229.099 184.281 231.577V232.096H178.407V232.175C178.407 233.74 179.328 234.77 180.801 234.77C181.841 234.77 182.604 234.243 182.832 233.473ZM188.368 234.794C189.659 234.794 190.651 233.89 190.651 232.71V232.041L188.462 232.175C187.36 232.246 186.73 232.733 186.73 233.504C186.73 234.283 187.384 234.794 188.368 234.794ZM188.061 235.958C186.431 235.958 185.337 234.975 185.337 233.504C185.337 232.104 186.415 231.223 188.305 231.113L190.651 230.979V230.295C190.651 229.296 189.99 228.698 188.856 228.698C187.801 228.698 187.14 229.194 186.966 229.997H185.643C185.738 228.581 186.95 227.495 188.888 227.495C190.809 227.495 192.022 228.533 192.022 230.162V235.816H190.722V234.408H190.691C190.203 235.344 189.164 235.958 188.061 235.958ZM196.864 235.958C194.777 235.958 193.36 234.291 193.36 231.726C193.36 229.162 194.77 227.495 196.833 227.495C198.006 227.495 198.951 228.069 199.439 228.966H199.471V224.467H200.841V235.816H199.534V234.432H199.51C198.982 235.376 198.045 235.958 196.864 235.958ZM197.124 228.698C195.675 228.698 194.762 229.878 194.762 231.726C194.762 233.583 195.675 234.755 197.124 234.755C198.534 234.755 199.479 233.559 199.479 231.726C199.479 229.902 198.534 228.698 197.124 228.698Z" fill="white" fill-opacity="0.3"/>
</svg>
