<svg width="410" height="242" viewBox="0 0 410 242" fill="none" xmlns="http://www.w3.org/2000/svg">
<g clip-path="url(#clip0_32171_14259)">
<path d="M186.62 0.577148H14.2848C6.67165 0.577148 0.5 6.77765 0.5 14.4264V168.946C0.5 176.594 6.67165 182.795 14.2848 182.795H186.62C194.233 182.795 200.405 176.594 200.405 168.946V14.4264C200.405 6.77765 194.233 0.577148 186.62 0.577148Z" fill="white" fill-opacity="0.15"/>
<path d="M27.1392 25.799C27.1392 29.5105 24.989 31.7088 21.3422 31.7088C17.5249 31.7088 15.0811 28.9109 15.0811 24.5428C15.0811 20.2508 17.5154 17.5195 21.3422 17.5195C24.2975 17.5195 26.5425 19.2801 27.054 22.0114H25.2637C24.6954 20.1556 23.2651 19.0994 21.3422 19.0994C18.5289 19.0994 16.8334 21.1359 16.8334 24.5333C16.8334 27.9878 18.5573 30.129 21.3422 30.129C23.7671 30.129 25.4343 28.5493 25.4343 26.2462V25.9988H21.579V24.4952H27.1392V25.799ZM29.0716 31.4803V21.5831H30.625V23.2009H30.6629C30.9849 22.1066 31.8943 21.4118 33.0499 21.4118C33.3341 21.4118 33.5804 21.4594 33.7129 21.4784V23.0867C33.5804 23.0392 33.2299 22.9916 32.8321 22.9916C31.5533 22.9916 30.7197 23.9147 30.7197 25.3136V31.4803H29.0716ZM38.1176 30.2432C39.671 30.2432 40.8645 29.1488 40.8645 27.7213V26.9124L38.2313 27.0742C36.9052 27.1598 36.1474 27.7499 36.1474 28.6825C36.1474 29.6246 36.9335 30.2432 38.1176 30.2432ZM37.7481 31.6517C35.7874 31.6517 34.4707 30.4621 34.4707 28.6825C34.4707 26.9886 35.7685 25.9227 38.0418 25.7894L40.8645 25.6277V24.7998C40.8645 23.5911 40.0689 22.8679 38.7048 22.8679C37.4356 22.8679 36.6399 23.4675 36.4315 24.4381H34.8402C34.9538 22.7251 36.4126 21.4118 38.7428 21.4118C41.054 21.4118 42.5128 22.668 42.5128 24.638V31.4803H40.9498V29.7769H40.9119C40.3246 30.9094 39.0743 31.6517 37.7481 31.6517ZM48.3382 31.6517C45.828 31.6517 44.123 29.6341 44.123 26.5318C44.123 23.4294 45.8185 21.4118 48.3003 21.4118C49.7116 21.4118 50.8483 22.1066 51.4356 23.1914H51.4735V17.748H53.1217V31.4803H51.5492V29.8054H51.5209C50.8862 30.9474 49.759 31.6517 48.3382 31.6517ZM48.6507 22.8679C46.9079 22.8679 45.8091 24.2954 45.8091 26.5318C45.8091 28.7776 46.9079 30.1956 48.6507 30.1956C50.3463 30.1956 51.4829 28.7491 51.4829 26.5318C51.4829 24.3239 50.3463 22.8679 48.6507 22.8679ZM63.437 21.5831V31.4803H61.8741V29.8721H61.8361C61.2488 31.014 60.2258 31.6517 58.7103 31.6517C56.5601 31.6517 55.3003 30.2527 55.3003 28.0068V21.5831H56.9484V27.7118C56.9484 29.3201 57.6968 30.1861 59.2218 30.1861C60.8226 30.1861 61.7888 29.0822 61.7888 27.3978V21.5831H63.437ZM68.8266 30.2432C70.3801 30.2432 71.5737 29.1488 71.5737 27.7213V26.9124L68.9404 27.0742C67.6142 27.1598 66.8565 27.7499 66.8565 28.6825C66.8565 29.6246 67.6426 30.2432 68.8266 30.2432ZM68.4573 31.6517C66.4965 31.6517 65.1798 30.4621 65.1798 28.6825C65.1798 26.9886 66.4776 25.9227 68.7509 25.7894L71.5737 25.6277V24.7998C71.5737 23.5911 70.778 22.8679 69.414 22.8679C68.1447 22.8679 67.349 23.4675 67.1406 24.4381H65.5493C65.663 22.7251 67.1217 21.4118 69.4519 21.4118C71.7631 21.4118 73.2219 22.668 73.2219 24.638V31.4803H71.6589V29.7769H71.621C71.0337 30.9094 69.7834 31.6517 68.4573 31.6517ZM75.4005 31.4803V17.748H77.0486V31.4803H75.4005ZM87.2598 30.1004C88.9742 30.1004 90.1204 28.673 90.1204 26.4937C90.1204 24.3144 88.9742 22.8679 87.2598 22.8679C85.564 22.8679 84.4558 24.2764 84.4558 26.4937C84.4558 28.7111 85.564 30.1004 87.2598 30.1004ZM87.3164 35.2109C85.1477 35.2109 83.4333 33.9832 83.1585 32.2988H84.8535C85.176 33.2028 86.1516 33.8024 87.3826 33.8024C89.0882 33.8024 90.1204 32.8127 90.1204 31.3377V29.7769H90.0824C89.4761 30.8523 88.3114 31.5565 86.9284 31.5565C84.4178 31.5565 82.7697 29.5676 82.7697 26.4937C82.7697 23.3913 84.4178 21.4118 86.9664 21.4118C88.3583 21.4118 89.5141 22.0971 90.168 23.2485H90.1963V21.5831H91.7685V31.2806C91.7685 33.6406 90.0355 35.2109 87.3164 35.2109ZM93.9186 31.4803V21.5831H95.4721V23.2009H95.5101C95.8318 22.1066 96.7411 21.4118 97.897 21.4118C98.1815 21.4118 98.4273 21.4594 98.5598 21.4784V23.0867C98.4273 23.0392 98.0773 22.9916 97.6796 22.9916C96.4008 22.9916 95.5667 23.9147 95.5667 25.3136V31.4803H93.9186ZM103.514 31.6517C100.786 31.6517 98.9486 29.6817 98.9486 26.5318C98.9486 23.3723 100.786 21.4118 103.514 21.4118C106.233 21.4118 108.07 23.3723 108.07 26.5318C108.07 29.6817 106.233 31.6517 103.514 31.6517ZM103.514 30.1956C105.257 30.1956 106.394 28.8633 106.394 26.5318C106.394 24.2002 105.257 22.8679 103.514 22.8679C101.771 22.8679 100.625 24.2002 100.625 26.5318C100.625 28.8633 101.771 30.1956 103.514 30.1956ZM122.269 21.5831L119.522 31.4803H117.846L115.62 23.8196H115.582L113.365 31.4803H111.689L108.932 21.5831H110.571L112.541 29.6341H112.579L114.805 21.5831H116.397L118.632 29.6341H118.67L120.64 21.5831H122.269ZM124.154 19.1944H125.803V21.5831H127.716V22.944H125.803V28.8252C125.803 29.7293 126.181 30.1385 127.024 30.1385C127.214 30.1385 127.592 30.1099 127.706 30.0909V31.4803C127.507 31.5279 127.052 31.5565 126.664 31.5565C124.855 31.5565 124.154 30.8142 124.154 28.9109V22.944H122.686V21.5831H124.154V19.1944ZM129.563 31.4803V17.748H131.211V23.1629H131.249C131.799 22.059 132.878 21.4118 134.375 21.4118C136.535 21.4118 137.842 22.8774 137.842 25.0852V31.4803H136.193V25.3897C136.193 23.8196 135.407 22.8774 133.863 22.8774C132.225 22.8774 131.211 24.0003 131.211 25.7133V31.4803H129.563Z" fill="white" fill-opacity="0.3"/>
<path d="M51.7702 116.093C51.3167 116.35 51.1558 116.927 51.4111 117.383C51.6663 117.839 52.2409 118 52.6945 117.744L51.7702 116.093ZM112.028 83.883C112.168 83.3795 111.876 82.8573 111.375 82.7168L103.207 80.42C102.705 80.2791 102.186 80.5731 102.045 81.0767C101.905 81.5799 102.198 82.1029 102.699 82.2434L109.959 84.285L107.927 91.5791C107.787 92.0826 108.08 92.6047 108.581 92.746C109.082 92.8865 109.602 92.5925 109.743 92.0891L112.028 83.883ZM52.6945 117.744L111.582 84.4531L110.658 82.8029L51.7702 116.093L52.6945 117.744Z" fill="white" fill-opacity="0.3"/>
<path d="M22.3242 158.473L34.1386 154.861C37.0775 153.962 39.8016 152.467 42.1423 150.468L48.9135 144.685C51.2586 142.683 54.5301 142.186 57.3591 143.405L57.6133 143.514C60.6271 144.812 64.128 144.055 66.3436 141.626L67.4635 140.399C69.2035 138.491 72.0138 138.022 74.2745 139.261C76.5737 140.521 79.4351 140.012 81.164 138.036L96.3556 120.668C97.7322 119.094 100.021 118.71 101.832 119.749C102.995 120.417 104.397 120.515 105.641 120.016L106.201 119.79C106.867 119.523 107.578 119.385 108.296 119.385H110.039C111.368 119.385 112.612 118.73 113.369 117.632L123.688 102.658C124.443 101.561 125.686 100.908 127.012 100.908C127.93 100.908 128.821 101.221 129.538 101.798L130.45 102.53C131.445 103.33 132.216 104.374 132.69 105.563L133.107 106.613C133.29 107.071 133.532 107.503 133.826 107.898L134.745 109.129C135.224 109.769 135.974 110.146 136.77 110.146C137.728 110.146 138.605 109.602 139.033 108.741L144.465 97.8265C145.388 95.9717 147.6 95.1743 149.487 96.0164C151.214 96.7879 153.243 96.1894 154.282 94.6018L166.738 75.5565C168.075 73.5127 169.651 71.6365 171.43 69.9679L179.362 62.5303" stroke="#17EC20" stroke-width="5.25084" stroke-linecap="round" stroke-linejoin="round"/>
<path d="M395.715 0H223.379C215.766 0 209.594 6.20051 209.594 13.8492V169.523C209.594 177.171 215.766 183.372 223.379 183.372H395.715C403.328 183.372 409.499 177.171 409.499 169.523V13.8492C409.499 6.20051 403.328 0 395.715 0Z" fill="white" fill-opacity="0.15"/>
<path d="M224.052 27.1242H225.766C225.928 28.6087 227.329 29.5889 229.281 29.5889C231.128 29.5889 232.473 28.6087 232.473 27.2573C232.473 26.0963 231.668 25.3826 229.83 24.9068L228.078 24.45C225.558 23.8028 224.441 22.6894 224.441 20.8242C224.441 18.5402 226.43 16.9414 229.271 16.9414C231.99 16.9414 233.96 18.5592 234.036 20.8622H232.33C232.179 19.3871 230.995 18.4831 229.214 18.4831C227.443 18.4831 226.212 19.4062 226.212 20.748C226.212 21.7853 226.97 22.4039 228.826 22.8892L230.256 23.2699C233.089 23.9837 234.235 25.078 234.235 27.048C234.235 29.5604 232.264 31.1306 229.12 31.1306C226.221 31.1306 224.213 29.5508 224.052 27.1242ZM236.053 30.9022V17.1698H237.702V30.9022H236.053ZM240.012 30.9022V21.005H241.661V30.9022H240.012ZM240.837 19.3396C240.278 19.3396 239.814 18.8733 239.814 18.3118C239.814 17.7408 240.278 17.284 240.837 17.284C241.405 17.284 241.869 17.7408 241.869 18.3118C241.869 18.8733 241.405 19.3396 240.837 19.3396ZM247.893 29.5223C249.609 29.5223 250.754 28.0948 250.754 25.9155C250.754 23.7362 249.609 22.2897 247.893 22.2897C246.198 22.2897 245.09 23.6982 245.09 25.9155C245.09 28.1329 246.198 29.5223 247.893 29.5223ZM247.951 34.6327C245.781 34.6327 244.067 33.405 243.792 31.7206H245.488C245.81 32.6247 246.785 33.2243 248.017 33.2243C249.722 33.2243 250.754 32.2345 250.754 30.7594V29.1988H250.717C250.111 30.2741 248.945 30.9784 247.562 30.9784C245.052 30.9784 243.404 28.9894 243.404 25.9155C243.404 22.8132 245.052 20.8337 247.6 20.8337C248.993 20.8337 250.148 21.5189 250.802 22.6704H250.83V21.005H252.403V30.7024C252.403 33.0625 250.669 34.6327 247.951 34.6327ZM254.638 30.9022V17.1698H256.286V22.5847H256.324C256.874 21.4808 257.953 20.8337 259.45 20.8337C261.609 20.8337 262.916 22.2993 262.916 24.5071V30.9022H261.268V24.8116C261.268 23.2414 260.483 22.2993 258.938 22.2993C257.3 22.2993 256.286 23.4222 256.286 25.1351V30.9022H254.638ZM265.54 18.6163H267.189V21.005H269.102V22.3659H267.189V28.2471C267.189 29.1512 267.567 29.5604 268.41 29.5604C268.6 29.5604 268.979 29.5318 269.093 29.5128V30.9022C268.894 30.9498 268.439 30.9784 268.051 30.9784C266.242 30.9784 265.54 30.2361 265.54 28.3327V22.3659H264.072V21.005H265.54V18.6163ZM278.574 31.0735C276.064 31.0735 274.36 29.056 274.36 25.9536C274.36 22.8512 276.055 20.8337 278.537 20.8337C279.948 20.8337 281.085 21.5284 281.671 22.6133H281.709V17.1698H283.358V30.9022H281.785V29.2273H281.757C281.123 30.3693 279.995 31.0735 278.574 31.0735ZM278.887 22.2897C277.144 22.2897 276.046 23.7172 276.046 25.9536C276.046 28.1995 277.144 29.6175 278.887 29.6175C280.583 29.6175 281.719 28.1709 281.719 25.9536C281.719 23.7457 280.583 22.2897 278.887 22.2897ZM289.534 22.2707C287.99 22.2707 286.91 23.4602 286.806 25.1066H292.158C292.12 23.4507 291.087 22.2707 289.534 22.2707ZM292.12 28.0663H293.739C293.456 29.7983 291.788 31.0735 289.638 31.0735C286.815 31.0735 285.101 29.1036 285.101 25.9916C285.101 22.9178 286.844 20.8337 289.562 20.8337C292.224 20.8337 293.863 22.7751 293.863 25.7728V26.4008H286.796V26.496C286.796 28.3899 287.904 29.6365 289.676 29.6365C290.926 29.6365 291.845 28.9989 292.12 28.0663ZM303.714 24.2501H302.104C301.867 23.1748 301.033 22.2897 299.584 22.2897C297.879 22.2897 296.724 23.7077 296.724 25.9536C296.724 28.2566 297.898 29.6175 299.603 29.6175C300.948 29.6175 301.829 28.9038 302.113 27.7141H303.732C303.477 29.6841 301.829 31.0735 299.593 31.0735C296.865 31.0735 295.046 29.1416 295.046 25.9536C295.046 22.8322 296.856 20.8337 299.574 20.8337C302.037 20.8337 303.505 22.4705 303.714 24.2501ZM305.334 30.9022V17.1698H306.982V30.9022H305.334ZM309.293 30.9022V21.005H310.941V30.9022H309.293ZM310.117 19.3396C309.558 19.3396 309.094 18.8733 309.094 18.3118C309.094 17.7408 309.558 17.284 310.117 17.284C310.685 17.284 311.149 17.7408 311.149 18.3118C311.149 18.8733 310.685 19.3396 310.117 19.3396ZM313.167 30.9022V21.005H314.72V22.5847H314.758C315.308 21.5189 316.36 20.8337 317.884 20.8337C320.044 20.8337 321.294 22.2326 321.294 24.4786V30.9022H319.646V24.7735C319.646 23.1748 318.898 22.2993 317.382 22.2993C315.829 22.2993 314.815 23.4031 314.815 25.078V30.9022H313.167ZM327.347 22.2707C325.803 22.2707 324.723 23.4602 324.619 25.1066H329.971C329.933 23.4507 328.9 22.2707 327.347 22.2707ZM329.933 28.0663H331.552C331.269 29.7983 329.601 31.0735 327.451 31.0735C324.629 31.0735 322.914 29.1036 322.914 25.9916C322.914 22.9178 324.657 20.8337 327.375 20.8337C330.037 20.8337 331.676 22.7751 331.676 25.7728V26.4008H324.61V26.496C324.61 28.3899 325.718 29.6365 327.489 29.6365C328.74 29.6365 329.659 28.9989 329.933 28.0663Z" fill="white" fill-opacity="0.3"/>
<path d="M232.482 66.3879L240.378 65.1675C241.214 65.0382 242.069 65.228 242.773 65.6997C243.436 66.1442 243.923 66.8097 244.146 67.579L248.662 83.1336C248.721 83.3374 248.83 83.5226 248.98 83.6728C249.572 84.2689 250.569 84.1243 250.97 83.3845L254.115 77.5939C254.297 77.2575 254.648 77.0482 255.03 77.0482C255.499 77.0482 255.912 77.3643 256.035 77.8197L261.431 97.6958C261.805 99.0756 263.415 99.6814 264.6 98.888C265.597 98.2204 266.947 98.5315 267.555 99.5693L272.807 108.538C273.242 109.283 274.038 109.74 274.898 109.74C275.376 109.74 275.845 109.597 276.244 109.331L276.792 108.963C277.424 108.54 277.941 107.966 278.299 107.292L282.906 98.6143C283.218 98.0255 283.828 97.6577 284.492 97.6577C285.137 97.6577 285.733 98.0052 286.053 98.568L296.261 116.517C296.647 117.195 297.225 117.744 297.921 118.094L298.268 118.268C299.159 118.715 300.207 118.715 301.098 118.268C301.988 117.821 303.036 117.821 303.927 118.268L304.435 118.522C305.031 118.823 305.689 118.979 306.357 118.979H307.014C307.755 118.979 308.466 118.682 308.99 118.156C310.095 117.046 311.891 117.062 312.977 118.191L329.545 135.432C330.352 136.271 331.464 136.746 332.626 136.746C333.291 136.746 333.947 136.59 334.541 136.292L335.179 135.971C337.695 134.707 340.71 135.007 342.929 136.742L344.69 138.118C345.32 138.611 346.096 138.878 346.894 138.878C347.911 138.878 348.881 138.444 349.561 137.684L353.536 133.248C354.377 132.308 355.577 131.771 356.836 131.771C358.259 131.771 359.597 132.457 360.432 133.616L368.004 144.122C371.864 149.476 377.382 153.392 383.695 155.259L385.983 155.934" stroke="#17EC20" stroke-width="5.25084" stroke-linecap="round" stroke-linejoin="round"/>
<path d="M290.219 77.9567C289.766 77.7003 289.605 77.123 289.859 76.6672C290.115 76.2116 290.689 76.05 291.143 76.3064L290.219 77.9567ZM350.477 110.167C350.617 110.67 350.324 111.193 349.823 111.334L341.655 113.63C341.154 113.771 340.634 113.477 340.494 112.973C340.354 112.47 340.647 111.948 341.148 111.806L348.408 109.766L346.376 102.472C346.236 101.968 346.528 101.445 347.03 101.305C347.531 101.163 348.051 101.457 348.191 101.961L350.477 110.167ZM291.143 76.3064L350.031 109.597L349.107 111.247L290.219 77.9567L291.143 76.3064Z" fill="white" fill-opacity="0.3"/>
<path d="M223.699 94.6365C223.699 84.4382 215.47 76.1709 205.319 76.1709C195.168 76.1709 186.939 84.4382 186.939 94.6365C186.939 104.835 195.168 113.102 205.319 113.102C215.47 113.102 223.699 104.835 223.699 94.6365Z" fill="#0B0528"/>
<path d="M208.596 99.9111V89.3614H210.353V91.1472H210.394C210.747 89.9298 211.656 89.1592 212.837 89.1592C213.14 89.1592 213.402 89.2095 213.544 89.2298V90.9441C213.402 90.893 213.029 90.8426 212.605 90.8426C211.242 90.8426 210.353 91.796 210.353 93.3991V99.9111H208.596Z" fill="white"/>
<path d="M201.963 100.113C199.045 100.113 197.097 97.9938 197.097 94.6367V94.6164C197.097 91.2584 199.056 89.1592 201.953 89.1592C204.851 89.1592 206.819 91.2487 206.819 94.6164V94.6367C206.819 98.0036 204.861 100.113 201.963 100.113ZM201.974 98.5517C203.821 98.5517 205.023 97.1111 205.023 94.6367V94.6164C205.023 92.1411 203.811 90.7208 201.953 90.7208C200.126 90.7208 198.894 92.1509 198.894 94.6164V94.6367C198.894 97.1216 200.115 98.5517 201.974 98.5517Z" fill="white"/>
<path d="M3.01009 218.291H1.60504V206.848H2.98641L9.22231 215.833H9.29336V206.848H10.6984V218.291H9.31704L3.08113 209.338H3.01009V218.291ZM16.0976 218.434C13.8243 218.434 12.2929 216.792 12.2929 214.168C12.2929 211.535 13.8243 209.901 16.0976 209.901C18.3631 209.901 19.8944 211.535 19.8944 214.168C19.8944 216.792 18.3631 218.434 16.0976 218.434ZM16.0976 217.221C17.5501 217.221 18.4972 216.111 18.4972 214.168C18.4972 212.224 17.5501 211.114 16.0976 211.114C14.6452 211.114 13.6901 212.224 13.6901 214.168C13.6901 216.111 14.6452 217.221 16.0976 217.221ZM21.2837 218.291V210.044H22.5783V211.392H22.6098C22.8781 210.48 23.6359 209.901 24.599 209.901C24.8358 209.901 25.041 209.941 25.1515 209.957V211.297C25.041 211.257 24.7489 211.217 24.4174 211.217C23.3518 211.217 22.6571 211.987 22.6571 213.153V218.291H21.2837ZM26.2724 218.291V210.044H27.5669V211.36H27.5985C27.9853 210.488 28.8221 209.901 29.9271 209.901C31.048 209.901 31.8769 210.472 32.232 211.472H32.2636C32.7215 210.488 33.6845 209.901 34.8369 209.901C36.463 209.901 37.5128 210.964 37.5128 212.597V218.291H36.1394V212.915C36.1394 211.788 35.5158 211.122 34.4343 211.122C33.3451 211.122 32.5794 211.931 32.5794 213.049V218.291H31.2059V212.764C31.2059 211.773 30.5428 211.122 29.5245 211.122C28.4352 211.122 27.6459 211.979 27.6459 213.121V218.291H26.2724ZM41.9727 217.261C43.2673 217.261 44.2618 216.349 44.2618 215.159V214.485L42.0674 214.62C40.9623 214.691 40.3308 215.183 40.3308 215.96C40.3308 216.745 40.986 217.261 41.9727 217.261ZM41.6648 218.434C40.0308 218.434 38.9337 217.443 38.9337 215.96C38.9337 214.548 40.0151 213.66 41.9096 213.549L44.2618 213.414V212.725C44.2618 211.717 43.5988 211.114 42.4621 211.114C41.4044 211.114 40.7413 211.614 40.5676 212.423H39.2415C39.3363 210.996 40.5519 209.901 42.4936 209.901C44.4197 209.901 45.6353 210.948 45.6353 212.59V218.291H44.3329V216.872H44.3013C43.8119 217.815 42.7699 218.434 41.6648 218.434ZM47.4508 218.291V206.848H48.8243V218.291H47.4508ZM53.9945 218.291V210.044H55.2891V211.36H55.3207C55.7075 210.488 56.5442 209.901 57.6493 209.901C58.7701 209.901 59.599 210.472 59.9542 211.472H59.9858C60.4437 210.488 61.4067 209.901 62.5591 209.901C64.1852 209.901 65.235 210.964 65.235 212.597V218.291H63.8616V212.915C63.8616 211.788 63.2379 211.122 62.1565 211.122C61.0672 211.122 60.3016 211.931 60.3016 213.049V218.291H58.9281V212.764C58.9281 211.773 58.265 211.122 57.2467 211.122C56.1574 211.122 55.3681 211.979 55.3681 213.121V218.291H53.9945ZM69.6949 217.261C70.9894 217.261 71.984 216.349 71.984 215.159V214.485L69.7896 214.62C68.6845 214.691 68.053 215.183 68.053 215.96C68.053 216.745 68.7082 217.261 69.6949 217.261ZM69.387 218.434C67.753 218.434 66.6558 217.443 66.6558 215.96C66.6558 214.548 67.7373 213.66 69.6317 213.549L71.984 213.414V212.725C71.984 211.717 71.321 211.114 70.1842 211.114C69.1265 211.114 68.4634 211.614 68.2898 212.423H66.9637C67.0585 210.996 68.2741 209.901 70.2158 209.901C72.1419 209.901 73.3575 210.948 73.3575 212.59V218.291H72.055V216.872H72.0234C71.5341 217.815 70.4921 218.434 69.387 218.434ZM75.1019 218.291V210.044H76.3965V211.392H76.428C76.6965 210.48 77.4543 209.901 78.4173 209.901C78.6541 209.901 78.8593 209.941 78.9698 209.957V211.297C78.8593 211.257 78.5672 211.217 78.2357 211.217C77.1701 211.217 76.4754 211.987 76.4754 213.153V218.291H75.1019ZM81.5353 213.708L85.1662 210.044H86.8321L83.2715 213.605L86.942 218.291H85.348L82.3007 214.453L81.5353 215.183V218.291H80.1617V206.848H81.5353V213.708ZM90.834 211.099C89.5472 211.099 88.6475 212.09 88.5602 213.462H93.0204C92.9889 212.082 92.1281 211.099 90.834 211.099ZM92.9889 215.928H94.3388C94.1019 217.371 92.7125 218.434 90.9205 218.434C88.5683 218.434 87.14 216.792 87.14 214.199C87.14 211.638 88.5917 209.901 90.8574 209.901C93.0754 209.901 94.4414 211.519 94.4414 214.017V214.54H88.5529V214.62C88.5529 216.198 89.476 217.236 90.952 217.236C91.9939 217.236 92.7601 216.705 92.9889 215.928ZM96.2722 208.053H97.6463V210.044H99.2403V211.178H97.6463V216.079C97.6463 216.832 97.9616 217.173 98.664 217.173C98.8224 217.173 99.1376 217.15 99.2322 217.133V218.291C99.0665 218.331 98.6882 218.355 98.3641 218.355C96.8566 218.355 96.2722 217.737 96.2722 216.15V211.178H95.0493V210.044H96.2722V208.053ZM110.757 210.044L107.742 218.291H106.337L103.313 210.044H104.758L107.023 216.825H107.055L109.329 210.044H110.757ZM115.004 218.434C112.731 218.434 111.199 216.792 111.199 214.168C111.199 211.535 112.731 209.901 115.004 209.901C117.269 209.901 118.8 211.535 118.8 214.168C118.8 216.792 117.269 218.434 115.004 218.434ZM115.004 217.221C116.456 217.221 117.404 216.111 117.404 214.168C117.404 212.224 116.456 211.114 115.004 211.114C113.551 211.114 112.597 212.224 112.597 214.168C112.597 216.111 113.551 217.221 115.004 217.221ZM120.261 218.291V206.848H121.634V218.291H120.261ZM126.197 217.261C127.491 217.261 128.486 216.349 128.486 215.159V214.485L126.292 214.62C125.187 214.691 124.555 215.183 124.555 215.96C124.555 216.745 125.21 217.261 126.197 217.261ZM125.889 218.434C124.255 218.434 123.158 217.443 123.158 215.96C123.158 214.548 124.239 213.66 126.134 213.549L128.486 213.414V212.725C128.486 211.717 127.823 211.114 126.686 211.114C125.629 211.114 124.965 211.614 124.792 212.423H123.466C123.56 210.996 124.776 209.901 126.718 209.901C128.644 209.901 129.86 210.948 129.86 212.59V218.291H128.557V216.872H128.526C128.036 217.815 126.994 218.434 125.889 218.434ZM132.046 208.053H133.419V210.044H135.014V211.178H133.419V216.079C133.419 216.832 133.735 217.173 134.438 217.173C134.595 217.173 134.911 217.15 135.006 217.133V218.291C134.84 218.331 134.461 218.355 134.138 218.355C132.63 218.355 132.046 217.737 132.046 216.15V211.178H130.822V210.044H132.046V208.053ZM136.553 218.291V210.044H137.927V218.291H136.553ZM137.24 208.656C136.775 208.656 136.387 208.267 136.387 207.799C136.387 207.323 136.775 206.943 137.24 206.943C137.714 206.943 138.1 207.323 138.1 207.799C138.1 208.267 137.714 208.656 137.24 208.656ZM139.853 218.291V206.848H141.227V218.291H139.853ZM143.152 218.291V210.044H144.526V218.291H143.152ZM143.839 208.656C143.373 208.656 142.986 208.267 142.986 207.799C142.986 207.323 143.373 206.943 143.839 206.943C144.313 206.943 144.699 207.323 144.699 207.799C144.699 208.267 144.313 208.656 143.839 208.656ZM146.822 208.053H148.197V210.044H149.791V211.178H148.197V216.079C148.197 216.832 148.512 217.173 149.214 217.173C149.373 217.173 149.688 217.15 149.783 217.133V218.291C149.617 218.331 149.239 218.355 148.914 218.355C147.407 218.355 146.822 217.737 146.822 216.15V211.178H145.6V210.044H146.822V208.053ZM151.938 221.376C151.772 221.376 151.496 221.36 151.346 221.329V220.171C151.496 220.203 151.709 220.21 151.882 220.21C152.648 220.21 153.075 219.838 153.39 218.879L153.58 218.299L150.549 210.044H152.017L154.29 216.912H154.314L156.587 210.044H158.032L154.803 218.87C154.1 220.797 153.421 221.376 151.938 221.376ZM162.508 218.291V210.044H163.881V218.291H162.508ZM163.194 208.656C162.728 208.656 162.342 208.267 162.342 207.799C162.342 207.323 162.728 206.943 163.194 206.943C163.667 206.943 164.055 207.323 164.055 207.799C164.055 208.267 163.667 208.656 163.194 208.656ZM165.594 212.32C165.594 210.908 166.849 209.901 168.656 209.901C170.354 209.901 171.601 210.916 171.664 212.312H170.354C170.259 211.519 169.62 211.027 168.609 211.027C167.606 211.027 166.944 211.527 166.944 212.249C166.944 212.82 167.378 213.2 168.309 213.438L169.58 213.747C171.237 214.168 171.838 214.77 171.838 215.983C171.838 217.419 170.488 218.434 168.57 218.434C166.77 218.434 165.514 217.451 165.373 215.992H166.746C166.896 216.848 167.543 217.308 168.656 217.308C169.769 217.308 170.456 216.832 170.456 216.087C170.456 215.5 170.117 215.183 169.193 214.937L167.749 214.564C166.304 214.191 165.594 213.446 165.594 212.32ZM177.024 208.053H178.397V210.044H179.992V211.178H178.397V216.079C178.397 216.832 178.713 217.173 179.416 217.173C179.573 217.173 179.889 217.15 179.984 217.133V218.291C179.818 218.331 179.439 218.355 179.116 218.355C177.607 218.355 177.024 217.737 177.024 216.15V211.178H175.8V210.044H177.024V208.053ZM181.531 218.291V206.848H182.904V211.36H182.936C183.394 210.44 184.294 209.901 185.541 209.901C187.34 209.901 188.43 211.122 188.43 212.963V218.291H187.056V213.216C187.056 211.908 186.401 211.122 185.114 211.122C183.749 211.122 182.904 212.058 182.904 213.485V218.291H181.531ZM193.465 211.099C192.179 211.099 191.279 212.09 191.193 213.462H195.653C195.62 212.082 194.76 211.099 193.465 211.099ZM195.62 215.928H196.97C196.733 217.371 195.345 218.434 193.553 218.434C191.201 218.434 189.772 216.792 189.772 214.199C189.772 211.638 191.224 209.901 193.49 209.901C195.708 209.901 197.073 211.519 197.073 214.017V214.54H191.184V214.62C191.184 216.198 192.108 217.236 193.584 217.236C194.626 217.236 195.392 216.705 195.62 215.928ZM201.778 218.291V210.044H203.072V211.36H203.104C203.562 210.472 204.438 209.901 205.709 209.901C207.509 209.901 208.551 211.067 208.551 212.938V218.291H207.177V213.184C207.177 211.852 206.553 211.122 205.29 211.122C203.996 211.122 203.151 212.042 203.151 213.438V218.291H201.778ZM213.595 211.099C212.308 211.099 211.408 212.09 211.321 213.462H215.781C215.75 212.082 214.889 211.099 213.595 211.099ZM215.75 215.928H217.099C216.863 217.371 215.473 218.434 213.681 218.434C211.329 218.434 209.9 216.792 209.9 214.199C209.9 211.638 211.352 209.901 213.618 209.901C215.836 209.901 217.202 211.519 217.202 214.017V214.54H211.314V214.62C211.314 216.198 212.237 217.236 213.713 217.236C214.754 217.236 215.521 216.705 215.75 215.928ZM225.332 210.044V218.291H224.03V216.951H223.998C223.508 217.903 222.656 218.434 221.393 218.434C219.601 218.434 218.552 217.268 218.552 215.397V210.044H219.925V215.151C219.925 216.491 220.548 217.213 221.82 217.213C223.154 217.213 223.959 216.293 223.959 214.89V210.044H225.332ZM227.558 208.053H228.931V210.044H230.526V211.178H228.931V216.079C228.931 216.832 229.247 217.173 229.95 217.173C230.107 217.173 230.423 217.15 230.518 217.133V218.291C230.352 218.331 229.973 218.355 229.65 218.355C228.142 218.355 227.558 217.737 227.558 216.15V211.178H226.335V210.044H227.558V208.053ZM231.994 218.291V210.044H233.289V211.392H233.32C233.589 210.48 234.347 209.901 235.31 209.901C235.546 209.901 235.752 209.941 235.862 209.957V211.297C235.752 211.257 235.46 211.217 235.128 211.217C234.062 211.217 233.368 211.987 233.368 213.153V218.291H231.994ZM239.533 217.261C240.827 217.261 241.822 216.349 241.822 215.159V214.485L239.628 214.62C238.523 214.691 237.89 215.183 237.89 215.96C237.89 216.745 238.546 217.261 239.533 217.261ZM239.225 218.434C237.591 218.434 236.494 217.443 236.494 215.96C236.494 214.548 237.575 213.66 239.47 213.549L241.822 213.414V212.725C241.822 211.717 241.158 211.114 240.022 211.114C238.965 211.114 238.301 211.614 238.127 212.423H236.802C236.896 210.996 238.112 209.901 240.053 209.901C241.98 209.901 243.195 210.948 243.195 212.59V218.291H241.893V216.872H241.862C241.372 217.815 240.33 218.434 239.225 218.434ZM245.011 218.291V206.848H246.384V218.291H245.011ZM251.413 212.32C251.413 210.908 252.668 209.901 254.475 209.901C256.173 209.901 257.42 210.916 257.483 212.312H256.173C256.077 211.519 255.438 211.027 254.427 211.027C253.425 211.027 252.762 211.527 252.762 212.249C252.762 212.82 253.196 213.2 254.128 213.438L255.399 213.747C257.056 214.168 257.657 214.77 257.657 215.983C257.657 217.419 256.307 218.434 254.389 218.434C252.589 218.434 251.333 217.451 251.191 215.992H252.565C252.715 216.848 253.362 217.308 254.475 217.308C255.588 217.308 256.275 216.832 256.275 216.087C256.275 215.5 255.936 215.183 255.012 214.937L253.567 214.564C252.123 214.191 251.413 213.446 251.413 212.32ZM265.905 212.748H264.563C264.366 211.852 263.671 211.114 262.464 211.114C261.043 211.114 260.08 212.296 260.08 214.168C260.08 216.087 261.059 217.221 262.479 217.221C263.6 217.221 264.334 216.626 264.571 215.635H265.921C265.707 217.276 264.334 218.434 262.472 218.434C260.198 218.434 258.682 216.825 258.682 214.168C258.682 211.567 260.19 209.901 262.456 209.901C264.508 209.901 265.732 211.265 265.905 212.748ZM270.475 211.099C269.189 211.099 268.289 212.09 268.202 213.462H272.662C272.63 212.082 271.77 211.099 270.475 211.099ZM272.63 215.928H273.98C273.743 217.371 272.354 218.434 270.562 218.434C268.21 218.434 266.782 216.792 266.782 214.199C266.782 211.638 268.233 209.901 270.499 209.901C272.717 209.901 274.083 211.519 274.083 214.017V214.54H268.194V214.62C268.194 216.198 269.118 217.236 270.593 217.236C271.635 217.236 272.402 216.705 272.63 215.928ZM275.472 218.291V210.044H276.766V211.36H276.798C277.256 210.472 278.133 209.901 279.403 209.901C281.202 209.901 282.244 211.067 282.244 212.938V218.291H280.871V213.184C280.871 211.852 280.248 211.122 278.984 211.122C277.69 211.122 276.846 212.042 276.846 213.438V218.291H275.472ZM286.705 217.261C287.999 217.261 288.994 216.349 288.994 215.159V214.485L286.799 214.62C285.694 214.691 285.063 215.183 285.063 215.96C285.063 216.745 285.718 217.261 286.705 217.261ZM286.397 218.434C284.763 218.434 283.665 217.443 283.665 215.96C283.665 214.548 284.747 213.66 286.641 213.549L288.994 213.414V212.725C288.994 211.717 288.331 211.114 287.194 211.114C286.136 211.114 285.473 211.614 285.3 212.423H283.973C284.068 210.996 285.284 209.901 287.226 209.901C289.151 209.901 290.367 210.948 290.367 212.59V218.291H289.065V216.872H289.033C288.543 217.815 287.501 218.434 286.397 218.434ZM292.111 218.291V210.044H293.406V211.392H293.438C293.706 210.48 294.464 209.901 295.427 209.901C295.664 209.901 295.869 209.941 295.98 209.957V211.297C295.869 211.257 295.577 211.217 295.245 211.217C294.18 211.217 293.485 211.987 293.485 213.153V218.291H292.111ZM297.171 218.291V210.044H298.545V218.291H297.171ZM297.858 208.656C297.393 208.656 297.005 208.267 297.005 207.799C297.005 207.323 297.393 206.943 297.858 206.943C298.332 206.943 298.718 207.323 298.718 207.799C298.718 208.267 298.332 208.656 297.858 208.656ZM303.802 218.434C301.529 218.434 299.997 216.792 299.997 214.168C299.997 211.535 301.529 209.901 303.802 209.901C306.067 209.901 307.599 211.535 307.599 214.168C307.599 216.792 306.067 218.434 303.802 218.434ZM303.802 217.221C305.254 217.221 306.202 216.111 306.202 214.168C306.202 212.224 305.254 211.114 303.802 211.114C302.35 211.114 301.395 212.224 301.395 214.168C301.395 216.111 302.35 217.221 303.802 217.221ZM315.706 218.434C313.432 218.434 311.901 216.792 311.901 214.168C311.901 211.535 313.432 209.901 315.706 209.901C317.971 209.901 319.502 211.535 319.502 214.168C319.502 216.792 317.971 218.434 315.706 218.434ZM315.706 217.221C317.158 217.221 318.105 216.111 318.105 214.168C318.105 212.224 317.158 211.114 315.706 211.114C314.253 211.114 313.298 212.224 313.298 214.168C313.298 216.111 314.253 217.221 315.706 217.221ZM321.334 218.291V211.178H320.189V210.044H321.334V209.124C321.334 207.538 322.068 206.784 323.583 206.784C323.891 206.784 324.223 206.816 324.42 206.848V207.966C324.254 207.942 324.025 207.919 323.797 207.919C323.055 207.919 322.699 208.315 322.699 209.132V210.044H324.38V211.178H322.707V218.291H321.334ZM329.559 208.053H330.932V210.044H332.526V211.178H330.932V216.079C330.932 216.832 331.248 217.173 331.951 217.173C332.108 217.173 332.424 217.15 332.519 217.133V218.291C332.353 218.331 331.974 218.355 331.651 218.355C330.143 218.355 329.559 217.737 329.559 216.15V211.178H328.335V210.044H329.559V208.053ZM334.066 218.291V206.848H335.439V211.36H335.471C335.928 210.44 336.829 209.901 338.076 209.901C339.875 209.901 340.965 211.122 340.965 212.963V218.291H339.592V213.216C339.592 211.908 338.936 211.122 337.649 211.122C336.284 211.122 335.439 212.058 335.439 213.485V218.291H334.066ZM346.001 211.099C344.715 211.099 343.814 212.09 343.728 213.462H348.187C348.156 212.082 347.296 211.099 346.001 211.099ZM348.156 215.928H349.505C349.269 217.371 347.88 218.434 346.088 218.434C343.736 218.434 342.307 216.792 342.307 214.199C342.307 211.638 343.759 209.901 346.025 209.901C348.243 209.901 349.608 211.519 349.608 214.017V214.54H343.72V214.62C343.72 216.198 344.644 217.236 346.119 217.236C347.161 217.236 347.927 216.705 348.156 215.928ZM1.24983 231.81C1.24983 230.398 2.50491 229.391 4.31253 229.391C6.00965 229.391 7.25683 230.406 7.31997 231.802H6.00965C5.91492 231.009 5.27554 230.517 4.26516 230.517C3.26269 230.517 2.59963 231.017 2.59963 231.739C2.59963 232.31 3.03378 232.69 3.96521 232.928L5.23608 233.237C6.89372 233.658 7.49363 234.26 7.49363 235.473C7.49363 236.909 6.14383 237.924 4.2257 237.924C2.42597 237.924 1.17089 236.941 1.02881 235.481H2.40229C2.55226 236.338 3.19953 236.798 4.31253 236.798C5.42552 236.798 6.11226 236.322 6.11226 235.576C6.11226 234.99 5.77284 234.673 4.84929 234.427L3.40477 234.054C1.96025 233.681 1.24983 232.936 1.24983 231.81ZM9.36441 227.543H10.7379V229.534H12.3324V230.667H10.7379V235.569C10.7379 236.322 11.0536 236.663 11.7562 236.663C11.914 236.663 12.2298 236.64 12.3245 236.623V237.781C12.1587 237.821 11.7799 237.845 11.4562 237.845C9.94857 237.845 9.36441 237.227 9.36441 235.64V230.667H8.1409V229.534H9.36441V227.543ZM13.8006 237.781V229.534H15.0951V230.882H15.1267C15.3951 229.97 16.1528 229.391 17.1158 229.391C17.3527 229.391 17.5579 229.431 17.6684 229.447V230.787C17.5579 230.747 17.2659 230.707 16.9343 230.707C15.8687 230.707 15.1741 231.477 15.1741 232.642V237.781H13.8006ZM21.3389 236.751C22.6335 236.751 23.6281 235.839 23.6281 234.649V233.975L21.4336 234.11C20.3285 234.181 19.6971 234.673 19.6971 235.45C19.6971 236.235 20.3522 236.751 21.3389 236.751ZM21.0311 237.924C19.3971 237.924 18.2999 236.933 18.2999 235.45C18.2999 234.038 19.3814 233.15 21.2758 233.039L23.6281 232.904V232.214C23.6281 231.207 22.965 230.604 21.8283 230.604C20.7706 230.604 20.1075 231.104 19.9339 231.913H18.6077C18.7025 230.486 19.9181 229.391 21.8599 229.391C23.7859 229.391 25.0015 230.438 25.0015 232.08V237.781H23.6991V236.362H23.6675C23.1781 237.305 22.1362 237.924 21.0311 237.924ZM27.1881 227.543H28.5615V229.534H30.1561V230.667H28.5615V235.569C28.5615 236.322 28.8773 236.663 29.5798 236.663C29.7377 236.663 30.0534 236.64 30.1482 236.623V237.781C29.9824 237.821 29.6035 237.845 29.2799 237.845C27.7722 237.845 27.1881 237.227 27.1881 235.64V230.667H25.9646V229.534H27.1881V227.543ZM34.6791 230.589C33.3924 230.589 32.4925 231.579 32.4057 232.952H36.8655C36.834 231.572 35.9736 230.589 34.6791 230.589ZM36.834 235.418H38.1838C37.947 236.861 36.5577 237.924 34.7659 237.924C32.4136 237.924 30.9848 236.282 30.9848 233.689C30.9848 231.128 32.4373 229.391 34.7028 229.391C36.9208 229.391 38.2864 231.009 38.2864 233.507V234.03H32.3978V234.11C32.3978 235.688 33.3214 236.726 34.7974 236.726C35.8394 236.726 36.6051 236.195 36.834 235.418ZM43.0147 236.631C44.4433 236.631 45.3985 235.442 45.3985 233.626C45.3985 231.81 44.4433 230.604 43.0147 230.604C41.6017 230.604 40.6781 231.778 40.6781 233.626C40.6781 235.473 41.6017 236.631 43.0147 236.631ZM43.062 240.89C41.2544 240.89 39.8256 239.868 39.5967 238.463H41.0097C41.278 239.217 42.0911 239.716 43.1173 239.716C44.5381 239.716 45.3985 238.891 45.3985 237.663V236.362H45.3669C44.8617 237.258 43.8908 237.845 42.7384 237.845C40.6466 237.845 39.2731 236.187 39.2731 233.626C39.2731 231.04 40.6466 229.391 42.7699 229.391C43.9303 229.391 44.8933 229.962 45.438 230.922H45.4616V229.534H46.772V237.615C46.772 239.582 45.3275 240.89 43.062 240.89ZM49.2426 240.866C49.0769 240.866 48.8007 240.85 48.6506 240.818V239.661C48.8007 239.693 49.0137 239.7 49.1874 239.7C49.953 239.7 50.3793 239.328 50.6951 238.368L50.8845 237.789L47.8534 229.534H49.3216L51.5949 236.402H51.6186L53.892 229.534H55.3365L52.1081 238.36C51.4055 240.287 50.7267 240.866 49.2426 240.866ZM56.1811 240.058H55.0365L55.8022 236.021H57.2625L56.1811 240.058ZM72.3156 229.534L70.0264 237.781H68.6292L66.7743 231.398H66.7427L64.8956 237.781H63.4985L61.2014 229.534H62.567L64.2089 236.243H64.2404L66.0954 229.534H67.4215L69.2844 236.243H69.316L70.9579 229.534H72.3156ZM73.5153 237.781V226.337H74.8888V230.85H74.9204C75.3782 229.93 76.2781 229.391 77.5253 229.391C79.325 229.391 80.4143 230.612 80.4143 232.452V237.781H79.0409V232.706C79.0409 231.398 78.3857 230.612 77.099 230.612C75.7335 230.612 74.8888 231.548 74.8888 232.975V237.781H73.5153ZM82.2296 237.781V229.534H83.6029V237.781H82.2296ZM82.9167 228.146C82.4511 228.146 82.0639 227.757 82.0639 227.289C82.0639 226.813 82.4511 226.433 82.9167 226.433C83.3903 226.433 83.7767 226.813 83.7767 227.289C83.7767 227.757 83.3903 228.146 82.9167 228.146ZM92.2784 232.238H90.9366C90.7394 231.341 90.0443 230.604 88.8367 230.604C87.4157 230.604 86.453 231.786 86.453 233.658C86.453 235.576 87.4318 236.711 88.8528 236.711C89.9731 236.711 90.7079 236.116 90.9447 235.125H92.2938C92.0812 236.766 90.7079 237.924 88.8447 237.924C86.571 237.924 85.0554 236.315 85.0554 233.658C85.0554 231.056 86.5637 229.391 88.8286 229.391C90.8809 229.391 92.1046 230.755 92.2784 232.238ZM93.6283 237.781V226.337H95.0016V230.85H95.0331C95.4914 229.93 96.391 229.391 97.6382 229.391C99.4375 229.391 100.527 230.612 100.527 232.452V237.781H99.1538V232.706C99.1538 231.398 98.4983 230.612 97.2115 230.612C95.8462 230.612 95.0016 231.548 95.0016 232.975V237.781H93.6283ZM105.658 237.781V226.337H107.031V237.781H105.658ZM112.178 230.589C110.891 230.589 109.991 231.579 109.905 232.952H114.364C114.333 231.572 113.473 230.589 112.178 230.589ZM114.333 235.418H115.683C115.446 236.861 114.056 237.924 112.264 237.924C109.912 237.924 108.484 236.282 108.484 233.689C108.484 231.128 109.937 229.391 112.201 229.391C114.42 229.391 115.785 231.009 115.785 233.507V234.03H109.897V234.11C109.897 235.688 110.82 236.726 112.297 236.726C113.339 236.726 114.104 236.195 114.333 235.418ZM119.882 236.751C121.177 236.751 122.171 235.839 122.171 234.649V233.975L119.976 234.11C118.871 234.181 118.24 234.673 118.24 235.45C118.24 236.235 118.896 236.751 119.882 236.751ZM119.574 237.924C117.94 237.924 116.843 236.933 116.843 235.45C116.843 234.038 117.924 233.15 119.819 233.039L122.171 232.904V232.214C122.171 231.207 121.508 230.604 120.372 230.604C119.314 230.604 118.651 231.104 118.477 231.913H117.151C117.246 230.486 118.462 229.391 120.403 229.391C122.329 229.391 123.545 230.438 123.545 232.08V237.781H122.242V236.362H122.211C121.722 237.305 120.68 237.924 119.574 237.924ZM128.399 237.924C126.308 237.924 124.887 236.243 124.887 233.658C124.887 231.072 126.3 229.391 128.367 229.391C129.543 229.391 130.491 229.97 130.981 230.874H131.012V226.337H132.385V237.781H131.075V236.385H131.052C130.522 237.337 129.583 237.924 128.399 237.924ZM128.66 230.604C127.207 230.604 126.292 231.794 126.292 233.658C126.292 235.529 127.207 236.711 128.66 236.711C130.073 236.711 131.02 235.505 131.02 233.658C131.02 231.817 130.073 230.604 128.66 230.604ZM134.098 231.81C134.098 230.398 135.354 229.391 137.161 229.391C138.858 229.391 140.106 230.406 140.169 231.802H138.858C138.764 231.009 138.124 230.517 137.114 230.517C136.111 230.517 135.448 231.017 135.448 231.739C135.448 232.31 135.882 232.69 136.814 232.928L138.085 233.237C139.743 233.658 140.342 234.26 140.342 235.473C140.342 236.909 138.992 237.924 137.074 237.924C135.274 237.924 134.02 236.941 133.878 235.481H135.251C135.401 236.338 136.048 236.798 137.161 236.798C138.274 236.798 138.961 236.322 138.961 235.576C138.961 234.99 138.621 234.673 137.698 234.427L136.253 234.054C134.809 233.681 134.098 232.936 134.098 231.81ZM145.528 227.543H146.902V229.534H148.496V230.667H146.902V235.569C146.902 236.322 147.218 236.663 147.92 236.663C148.078 236.663 148.394 236.64 148.488 236.623V237.781C148.323 237.821 147.944 237.845 147.62 237.845C146.112 237.845 145.528 237.227 145.528 235.64V230.667H144.305V229.534H145.528V227.543ZM153.13 237.924C150.857 237.924 149.325 236.282 149.325 233.658C149.325 231.025 150.857 229.391 153.13 229.391C155.395 229.391 156.926 231.025 156.926 233.658C156.926 236.282 155.395 237.924 153.13 237.924ZM153.13 236.711C154.582 236.711 155.53 235.601 155.53 233.658C155.53 231.714 154.582 230.604 153.13 230.604C151.677 230.604 150.723 231.714 150.723 233.658C150.723 235.601 151.677 236.711 153.13 236.711ZM164.338 236.751C165.633 236.751 166.627 235.839 166.627 234.649V233.975L164.433 234.11C163.328 234.181 162.697 234.673 162.697 235.45C162.697 236.235 163.352 236.751 164.338 236.751ZM164.03 237.924C162.397 237.924 161.3 236.933 161.3 235.45C161.3 234.038 162.381 233.15 164.275 233.039L166.627 232.904V232.214C166.627 231.207 165.965 230.604 164.828 230.604C163.77 230.604 163.107 231.104 162.934 231.913H161.607C161.702 230.486 162.918 229.391 164.86 229.391C166.786 229.391 168.002 230.438 168.002 232.08V237.781H166.699V236.362H166.667C166.178 237.305 165.136 237.924 164.03 237.924ZM176.566 232.238H175.224C175.027 231.341 174.332 230.604 173.124 230.604C171.704 230.604 170.74 231.786 170.74 233.658C170.74 235.576 171.719 236.711 173.14 236.711C174.261 236.711 174.995 236.116 175.232 235.125H176.582C176.368 236.766 174.995 237.924 173.132 237.924C170.859 237.924 169.343 236.315 169.343 233.658C169.343 231.056 170.851 229.391 173.117 229.391C175.169 229.391 176.392 230.755 176.566 232.238ZM177.915 237.781V226.337H179.289V230.85H179.32C179.779 229.93 180.678 229.391 181.925 229.391C183.725 229.391 184.814 230.612 184.814 232.452V237.781H183.441V232.706C183.441 231.398 182.786 230.612 181.499 230.612C180.133 230.612 179.289 231.548 179.289 232.975V237.781H177.915ZM186.63 237.781V229.534H188.004V237.781H186.63ZM187.317 228.146C186.851 228.146 186.464 227.757 186.464 227.289C186.464 226.813 186.851 226.433 187.317 226.433C187.79 226.433 188.178 226.813 188.178 227.289C188.178 227.757 187.79 228.146 187.317 228.146ZM193.15 230.589C191.863 230.589 190.964 231.579 190.876 232.952H195.337C195.305 231.572 194.444 230.589 193.15 230.589ZM195.305 235.418H196.655C196.418 236.861 195.029 237.924 193.237 237.924C190.885 237.924 189.456 236.282 189.456 233.689C189.456 231.128 190.908 229.391 193.174 229.391C195.392 229.391 196.758 231.009 196.758 233.507V234.03H190.869V234.11C190.869 235.688 191.792 236.726 193.268 236.726C194.31 236.726 195.076 236.195 195.305 235.418ZM204.88 229.534L201.865 237.781H200.46L197.437 229.534H198.881L201.146 236.315H201.177L203.451 229.534H204.88ZM209.016 230.589C207.73 230.589 206.83 231.579 206.743 232.952H211.203C211.171 231.572 210.31 230.589 209.016 230.589ZM211.171 235.418H212.521C212.284 236.861 210.895 237.924 209.103 237.924C206.751 237.924 205.322 236.282 205.322 233.689C205.322 231.128 206.774 229.391 209.04 229.391C211.258 229.391 212.624 231.009 212.624 233.507V234.03H206.735V234.11C206.735 235.688 207.658 236.726 209.134 236.726C210.176 236.726 210.943 236.195 211.171 235.418ZM214.012 237.781V229.534H215.307V230.85H215.339C215.726 229.978 216.563 229.391 217.668 229.391C218.789 229.391 219.617 229.962 219.972 230.961H220.004C220.462 229.978 221.425 229.391 222.577 229.391C224.204 229.391 225.254 230.454 225.254 232.087V237.781H223.879V232.405C223.879 231.278 223.256 230.612 222.175 230.612C221.085 230.612 220.32 231.421 220.32 232.539V237.781H218.946V232.254C218.946 231.263 218.284 230.612 217.265 230.612C216.175 230.612 215.387 231.469 215.387 232.611V237.781H214.012ZM230.297 230.589C229.01 230.589 228.111 231.579 228.024 232.952H232.484C232.452 231.572 231.591 230.589 230.297 230.589ZM232.452 235.418H233.802C233.565 236.861 232.176 237.924 230.384 237.924C228.032 237.924 226.603 236.282 226.603 233.689C226.603 231.128 228.055 229.391 230.321 229.391C232.539 229.391 233.905 231.009 233.905 233.507V234.03H228.016V234.11C228.016 235.688 228.939 236.726 230.415 236.726C231.457 236.726 232.223 236.195 232.452 235.418ZM235.294 237.781V229.534H236.588V230.85H236.62C237.078 229.962 237.954 229.391 239.225 229.391C241.024 229.391 242.066 230.557 242.066 232.428V237.781H240.693V232.674C240.693 231.341 240.07 230.612 238.806 230.612C237.512 230.612 236.668 231.532 236.668 232.928V237.781H235.294ZM244.261 227.543H245.634V229.534H247.229V230.667H245.634V235.569C245.634 236.322 245.95 236.663 246.652 236.663C246.811 236.663 247.126 236.64 247.221 236.623V237.781C247.055 237.821 246.677 237.845 246.353 237.845C244.845 237.845 244.261 237.227 244.261 235.64V230.667H243.038V229.534H244.261V227.543ZM252.083 237.781V229.534H253.457V237.781H252.083ZM252.77 228.146C252.304 228.146 251.918 227.757 251.918 227.289C251.918 226.813 252.304 226.433 252.77 226.433C253.244 226.433 253.631 226.813 253.631 227.289C253.631 227.757 253.244 228.146 252.77 228.146ZM255.312 237.781V229.534H256.607V230.85H256.638C257.096 229.962 257.972 229.391 259.243 229.391C261.043 229.391 262.085 230.557 262.085 232.428V237.781H260.711V232.674C260.711 231.341 260.087 230.612 258.825 230.612C257.53 230.612 256.685 231.532 256.685 232.928V237.781H255.312ZM270.57 229.534L267.555 237.781H266.149L263.126 229.534H264.571L266.837 236.315H266.868L269.142 229.534H270.57ZM274.706 230.589C273.419 230.589 272.52 231.579 272.433 232.952H276.893C276.861 231.572 276.001 230.589 274.706 230.589ZM276.861 235.418H278.211C277.974 236.861 276.585 237.924 274.793 237.924C272.441 237.924 271.012 236.282 271.012 233.689C271.012 231.128 272.465 229.391 274.73 229.391C276.948 229.391 278.314 231.009 278.314 233.507V234.03H272.425V234.11C272.425 235.688 273.349 236.726 274.825 236.726C275.867 236.726 276.632 236.195 276.861 235.418ZM279.561 231.81C279.561 230.398 280.816 229.391 282.623 229.391C284.321 229.391 285.568 230.406 285.631 231.802H284.321C284.226 231.009 283.587 230.517 282.577 230.517C281.573 230.517 280.911 231.017 280.911 231.739C280.911 232.31 281.345 232.69 282.277 232.928L283.547 233.237C285.205 233.658 285.805 234.26 285.805 235.473C285.805 236.909 284.455 237.924 282.537 237.924C280.737 237.924 279.482 236.941 279.34 235.481H280.713C280.863 236.338 281.51 236.798 282.623 236.798C283.736 236.798 284.424 236.322 284.424 235.576C284.424 234.99 284.084 234.673 283.16 234.427L281.716 234.054C280.271 233.681 279.561 232.936 279.561 231.81ZM287.675 227.543H289.049V229.534H290.643V230.667H289.049V235.569C289.049 236.322 289.365 236.663 290.067 236.663C290.225 236.663 290.541 236.64 290.635 236.623V237.781C290.47 237.821 290.091 237.845 289.767 237.845C288.26 237.845 287.675 237.227 287.675 235.64V230.667H286.452V229.534H287.675V227.543ZM292.111 237.781V229.534H293.406V230.85H293.438C293.825 229.978 294.661 229.391 295.766 229.391C296.888 229.391 297.716 229.962 298.072 230.961H298.103C298.561 229.978 299.523 229.391 300.676 229.391C302.302 229.391 303.352 230.454 303.352 232.087V237.781H301.979V232.405C301.979 231.278 301.355 230.612 300.273 230.612C299.184 230.612 298.418 231.421 298.418 232.539V237.781H297.045V232.254C297.045 231.263 296.382 230.612 295.364 230.612C294.274 230.612 293.485 231.469 293.485 232.611V237.781H292.111ZM308.396 230.589C307.109 230.589 306.21 231.579 306.122 232.952H310.583C310.551 231.572 309.691 230.589 308.396 230.589ZM310.551 235.418H311.901C311.664 236.861 310.275 237.924 308.483 237.924C306.13 237.924 304.702 236.282 304.702 233.689C304.702 231.128 306.155 229.391 308.42 229.391C310.637 229.391 312.004 231.009 312.004 233.507V234.03H306.115V234.11C306.115 235.688 307.038 236.726 308.514 236.726C309.557 236.726 310.322 236.195 310.551 235.418ZM313.393 237.781V229.534H314.687V230.85H314.719C315.177 229.962 316.053 229.391 317.324 229.391C319.123 229.391 320.166 230.557 320.166 232.428V237.781H318.792V232.674C318.792 231.341 318.168 230.612 316.905 230.612C315.611 230.612 314.766 231.532 314.766 232.928V237.781H313.393ZM322.359 227.543H323.734V229.534H325.328V230.667H323.734V235.569C323.734 236.322 324.049 236.663 324.751 236.663C324.91 236.663 325.225 236.64 325.319 236.623V237.781C325.154 237.821 324.775 237.845 324.451 237.845C322.944 237.845 322.359 237.227 322.359 235.64V230.667H321.137V229.534H322.359V227.543ZM333.45 236.631C334.879 236.631 335.834 235.442 335.834 233.626C335.834 231.81 334.879 230.604 333.45 230.604C332.037 230.604 331.113 231.778 331.113 233.626C331.113 235.473 332.037 236.631 333.45 236.631ZM333.498 240.89C331.69 240.89 330.261 239.868 330.033 238.463H331.446C331.714 239.217 332.526 239.716 333.553 239.716C334.974 239.716 335.834 238.891 335.834 237.663V236.362H335.802C335.297 237.258 334.326 237.845 333.174 237.845C331.082 237.845 329.709 236.187 329.709 233.626C329.709 231.04 331.082 229.391 333.205 229.391C334.366 229.391 335.329 229.962 335.873 230.922H335.897V229.534H337.207V237.615C337.207 239.582 335.763 240.89 333.498 240.89ZM342.401 237.924C340.128 237.924 338.597 236.282 338.597 233.658C338.597 231.025 340.128 229.391 342.401 229.391C344.667 229.391 346.199 231.025 346.199 233.658C346.199 236.282 344.667 237.924 342.401 237.924ZM342.401 236.711C343.854 236.711 344.801 235.601 344.801 233.658C344.801 231.714 343.854 230.604 342.401 230.604C340.949 230.604 339.994 231.714 339.994 233.658C339.994 235.601 340.949 236.711 342.401 236.711ZM350.295 236.751C351.589 236.751 352.584 235.839 352.584 234.649V233.975L350.39 234.11C349.285 234.181 348.653 234.673 348.653 235.45C348.653 236.235 349.308 236.751 350.295 236.751ZM349.987 237.924C348.354 237.924 347.256 236.933 347.256 235.45C347.256 234.038 348.337 233.15 350.232 233.039L352.584 232.904V232.214C352.584 231.207 351.921 230.604 350.784 230.604C349.727 230.604 349.063 231.104 348.89 231.913H347.564C347.658 230.486 348.874 229.391 350.816 229.391C352.742 229.391 353.958 230.438 353.958 232.08V237.781H352.655V236.362H352.624C352.134 237.305 351.092 237.924 349.987 237.924ZM355.773 237.781V226.337H357.146V237.781H355.773ZM358.86 231.81C358.86 230.398 360.114 229.391 361.923 229.391C363.619 229.391 364.866 230.406 364.929 231.802H363.619C363.525 231.009 362.885 230.517 361.875 230.517C360.873 230.517 360.21 231.017 360.21 231.739C360.21 232.31 360.644 232.69 361.575 232.928L362.846 233.237C364.503 233.658 365.103 234.26 365.103 235.473C365.103 236.909 363.753 237.924 361.835 237.924C360.036 237.924 358.781 236.941 358.638 235.481H360.012C360.162 236.338 360.81 236.798 361.923 236.798C363.036 236.798 363.722 236.322 363.722 235.576C363.722 234.99 363.382 234.673 362.459 234.427L361.015 234.054C359.57 233.681 358.86 232.936 358.86 231.81Z" fill="white" fill-opacity="0.3"/>
</g>
<defs>
<clipPath id="clip0_32171_14259">
<rect width="409" height="242" fill="white" transform="translate(0.5)"/>
</clipPath>
</defs>
</svg>
