<svg width="409" height="231" viewBox="0 0 409 231" fill="none" xmlns="http://www.w3.org/2000/svg">
<g clip-path="url(#clip0_32171_14287)">
<path d="M397.219 0H11.7811C5.55073 0 0.5 5.07705 0.5 11.3399V141.357C0.5 147.62 5.55073 152.697 11.7811 152.697H397.219C403.449 152.697 408.5 147.62 408.5 141.357V11.3399C408.5 5.07705 403.449 0 397.219 0Z" fill="white" fill-opacity="0.15"/>
<path d="M21.3824 26.8227V28.3614H13.105V14.6553H14.8058V26.8227H21.3824ZM26.7873 28.5324C24.066 28.5324 22.2328 26.5662 22.2328 23.4222C22.2328 20.2687 24.066 18.3121 26.7873 18.3121C29.4992 18.3121 31.3323 20.2687 31.3323 23.4222C31.3323 26.5662 29.4992 28.5324 26.7873 28.5324ZM26.7873 27.0791C28.5259 27.0791 29.6599 25.7494 29.6599 23.4222C29.6599 21.0951 28.5259 19.7654 26.7873 19.7654C25.0487 19.7654 23.9053 21.0951 23.9053 23.4222C23.9053 25.7494 25.0487 27.0791 26.7873 27.0791ZM45.4966 18.4831L42.7563 28.3614H41.0838L38.8632 20.7152H38.8254L36.6144 28.3614H34.9419L32.1922 18.4831H33.8269L35.7923 26.5187H35.8301L38.0506 18.4831H39.6381L41.8681 26.5187H41.9059L43.8713 18.4831H45.4966ZM58.8765 18.4831L55.2669 28.3614H53.5849L49.966 18.4831H51.6952L54.4071 26.6042H54.4448L57.1662 18.4831H58.8765ZM63.9601 28.5324C61.2387 28.5324 59.4056 26.5662 59.4056 23.4222C59.4056 20.2687 61.2387 18.3121 63.9601 18.3121C66.672 18.3121 68.5051 20.2687 68.5051 23.4222C68.5051 26.5662 66.672 28.5324 63.9601 28.5324ZM63.9601 27.0791C65.6988 27.0791 66.8326 25.7494 66.8326 23.4222C66.8326 21.0951 65.6988 19.7654 63.9601 19.7654C62.2215 19.7654 61.0781 21.0951 61.0781 23.4222C61.0781 25.7494 62.2215 27.0791 63.9601 27.0791ZM70.2532 28.3614V14.6553H71.8974V28.3614H70.2532ZM77.3589 27.1266C78.9086 27.1266 80.0992 26.0343 80.0992 24.6095V23.8021L77.4723 23.9636C76.1494 24.0491 75.3935 24.638 75.3935 25.5688C75.3935 26.5092 76.1778 27.1266 77.3589 27.1266ZM76.9904 28.5324C75.0345 28.5324 73.721 27.345 73.721 25.5688C73.721 23.8782 75.0156 22.8144 77.2834 22.6813L80.0992 22.5199V21.6936C80.0992 20.4873 79.3055 19.7654 77.9448 19.7654C76.6786 19.7654 75.8849 20.3637 75.677 21.3326H74.0895C74.2029 19.6229 75.6581 18.3121 77.9826 18.3121C80.2882 18.3121 81.7435 19.5659 81.7435 21.532V28.3614H80.1842V26.6612H80.1464C79.5606 27.7915 78.3133 28.5324 76.9904 28.5324ZM84.3608 16.099H86.0049V18.4831H87.9135V19.8413H86.0049V25.7113C86.0049 26.6137 86.3831 27.0221 87.2241 27.0221C87.4128 27.0221 87.7909 26.9936 87.9038 26.9746V28.3614C87.7054 28.4089 87.2523 28.4374 86.8644 28.4374C85.0599 28.4374 84.3608 27.6965 84.3608 25.7968V19.8413H82.8965V18.4831H84.3608V16.099ZM89.7559 28.3614V18.4831H91.4V28.3614H89.7559ZM90.5784 16.8208C90.0204 16.8208 89.5576 16.3554 89.5576 15.795C89.5576 15.2252 90.0204 14.7692 90.5784 14.7692C91.1452 14.7692 91.6081 15.2252 91.6081 15.795C91.6081 16.3554 91.1452 16.8208 90.5784 16.8208ZM93.7061 28.3614V14.6553H95.3502V28.3614H93.7061ZM97.6555 28.3614V18.4831H99.2996V28.3614H97.6555ZM98.4779 16.8208C97.92 16.8208 97.4571 16.3554 97.4571 15.795C97.4571 15.2252 97.92 14.7692 98.4779 14.7692C99.0448 14.7692 99.5076 15.2252 99.5076 15.795C99.5076 16.3554 99.0448 16.8208 98.4779 16.8208ZM102.049 16.099H103.693V18.4831H105.603V19.8413H103.693V25.7113C103.693 26.6137 104.071 27.0221 104.912 27.0221C105.102 27.0221 105.479 26.9936 105.593 26.9746V28.3614C105.395 28.4089 104.941 28.4374 104.554 28.4374C102.749 28.4374 102.049 27.6965 102.049 25.7968V19.8413H100.585V18.4831H102.049V16.099ZM108.172 32.0562C107.974 32.0562 107.643 32.0373 107.464 31.9992V30.6125C107.643 30.6504 107.898 30.66 108.106 30.66C109.023 30.66 109.533 30.2136 109.911 29.0642L110.138 28.3708L106.51 18.4831H108.267L110.988 26.7087H111.016L113.738 18.4831H115.467L111.602 29.0548C110.761 31.3628 109.949 32.0562 108.172 32.0562ZM120.74 28.3614V18.4831H122.289V20.0598H122.327C122.79 19.015 123.792 18.3121 125.115 18.3121C126.457 18.3121 127.448 18.996 127.874 20.1928H127.912C128.459 19.015 129.613 18.3121 130.992 18.3121C132.939 18.3121 134.196 19.5849 134.196 21.5416V28.3614H132.552V21.9215C132.552 20.5727 131.805 19.7749 130.51 19.7749C129.206 19.7749 128.289 20.7437 128.289 22.0829V28.3614H126.645V21.7411C126.645 20.5537 125.852 19.7749 124.633 19.7749C123.329 19.7749 122.384 20.8007 122.384 22.1684V28.3614H120.74ZM139.534 27.1266C141.084 27.1266 142.274 26.0343 142.274 24.6095V23.8021L139.647 23.9636C138.325 24.0491 137.569 24.638 137.569 25.5688C137.569 26.5092 138.353 27.1266 139.534 27.1266ZM139.166 28.5324C137.21 28.5324 135.896 27.345 135.896 25.5688C135.896 23.8782 137.19 22.8144 139.459 22.6813L142.274 22.5199V21.6936C142.274 20.4873 141.481 19.7654 140.12 19.7654C138.854 19.7654 138.06 20.3637 137.852 21.3326H136.265C136.378 19.6229 137.833 18.3121 140.158 18.3121C142.463 18.3121 143.918 19.5659 143.918 21.532V28.3614H142.36V26.6612H142.322C141.736 27.7915 140.488 28.5324 139.166 28.5324ZM146.007 28.3614V18.4831H147.556V20.0978H147.594C147.915 19.0055 148.822 18.3121 149.975 18.3121C150.258 18.3121 150.504 18.3596 150.637 18.3786V19.9838C150.504 19.9363 150.155 19.8888 149.758 19.8888C148.482 19.8888 147.651 20.8102 147.651 22.2065V28.3614H146.007ZM153.708 22.8713L158.054 18.4831H160.048L155.787 22.7478L160.18 28.3614H158.272L154.625 23.7641L153.708 24.638V28.3614H152.064V14.6553H153.708V22.8713ZM164.838 19.7464C163.298 19.7464 162.221 20.9337 162.118 22.5769H167.457C167.419 20.9241 166.388 19.7464 164.838 19.7464ZM167.419 25.5308H169.035C168.751 27.2595 167.088 28.5324 164.942 28.5324C162.127 28.5324 160.417 26.5662 160.417 23.4602C160.417 20.3923 162.155 18.3121 164.867 18.3121C167.523 18.3121 169.157 20.2498 169.157 23.2417V23.8687H162.108V23.9636C162.108 25.8538 163.214 27.0981 164.98 27.0981C166.228 27.0981 167.144 26.4617 167.419 25.5308ZM171.349 16.099H172.994V18.4831H174.902V19.8413H172.994V25.7113C172.994 26.6137 173.372 27.0221 174.213 27.0221C174.401 27.0221 174.78 26.9936 174.892 26.9746V28.3614C174.694 28.4089 174.241 28.4374 173.853 28.4374C172.049 28.4374 171.349 27.6965 171.349 25.7968V19.8413H169.884V18.4831H171.349V16.099Z" fill="white" fill-opacity="0.3"/>
<path d="M170.535 78.4168C170.015 78.4177 169.595 78.8414 169.596 79.3634C169.597 79.8853 170.018 80.3076 170.538 80.3068L170.535 78.4168ZM238.607 79.92C238.974 79.5504 238.973 78.952 238.605 78.5837L232.613 72.5794C232.245 72.211 231.65 72.2119 231.283 72.5815C230.917 72.9511 230.918 73.5496 231.285 73.9179L236.612 79.255L231.302 84.609C230.935 84.9786 230.937 85.5776 231.305 85.9456C231.672 86.3144 232.267 86.3136 232.634 85.944L238.607 79.92ZM170.538 80.3068L237.942 80.1979L237.94 78.3079L170.535 78.4168L170.538 80.3068Z" fill="white" fill-opacity="0.3"/>
<path d="M11.7886 98.0442L35.8379 101.226C37.4913 101.226 39.1104 100.751 40.5052 99.859L47.8901 95.1352C50.6215 93.3877 54.0646 93.2094 56.9604 94.6651C58.8538 95.6167 61.0153 95.8841 63.0818 95.4221L72.5845 93.2994C75.3395 92.6842 78.2204 93.4453 80.3181 95.3435C82.2129 97.0578 84.7593 97.8537 87.2871 97.5222L122.089 92.9589C125.205 92.5504 128.352 93.4534 130.784 95.4537C132.821 97.1291 135.372 98.0442 138.004 98.0442H175.371C177.255 98.0442 179.122 97.5992 180.806 96.7522C184.682 94.8045 189.321 95.0825 192.927 97.4995C196.387 99.8176 200.79 100.184 204.582 98.4689L206.503 97.5992C209.523 96.2343 212.891 95.8509 216.137 96.5034L219.198 97.1186C222.242 97.7305 225.373 97.7816 228.436 97.2685L251.984 93.3229C255.952 92.6582 260.003 92.6696 263.966 93.3569L271.914 94.734C274.774 95.23 277.717 94.734 280.259 93.3285L283.821 91.3598C286.86 89.6787 290.647 90.2875 293.014 92.8366C295.736 95.7682 300.251 96.077 303.343 93.545L314.102 84.7321C314.642 84.2904 315.318 84.0488 316.014 84.0488C316.934 84.0488 317.803 84.4687 318.377 85.19L322.373 90.2113C324.137 92.4264 326.441 94.1456 329.062 95.1992L341.431 100.173C347.243 102.509 353.647 102.913 359.703 101.325L363.01 100.458C364.282 100.124 365.483 99.5591 366.554 98.7907L368.102 97.6786C368.923 97.0894 369.907 96.7725 370.916 96.7725C371.963 96.7725 372.982 97.1137 373.82 97.7451L375.061 98.6805C376.704 99.9197 378.702 100.589 380.757 100.589H397.212" stroke="#17EC20" stroke-width="4.70936" stroke-linecap="round" stroke-linejoin="round"/>
<path d="M3.01977 187.549H1.60241V176.127H8.50026V177.409H3.01977V181.335H8.05142V182.601H3.01977V187.549ZM9.98061 187.549V176.127H11.3507V187.549H9.98061ZM15.9021 186.52C17.1934 186.52 18.1856 185.609 18.1856 184.422V183.749L15.9966 183.884C14.8942 183.955 14.2642 184.445 14.2642 185.222C14.2642 186.005 14.9178 186.52 15.9021 186.52ZM15.595 187.691C13.965 187.691 12.8705 186.702 12.8705 185.222C12.8705 183.812 13.9493 182.926 15.839 182.815L18.1856 182.681V181.992C18.1856 180.987 17.5242 180.386 16.3902 180.386C15.3351 180.386 14.6737 180.884 14.5005 181.691H13.1776C13.272 180.266 14.4847 179.175 16.4218 179.175C18.3431 179.175 19.5557 180.219 19.5557 181.857V187.549H18.2565V186.132H18.225C17.7368 187.074 16.6974 187.691 15.595 187.691ZM21.7369 177.33H23.107V179.316H24.6976V180.449H23.107V185.34C23.107 186.092 23.422 186.433 24.1228 186.433C24.2803 186.433 24.5952 186.409 24.6897 186.393V187.549C24.5244 187.588 24.1464 187.612 23.8236 187.612C22.3195 187.612 21.7369 186.995 21.7369 185.412V180.449H20.5164V179.316H21.7369V177.33ZM29.4694 187.549V179.316H30.7608V180.63H30.7923C31.1781 179.76 32.0128 179.175 33.1152 179.175C34.2333 179.175 35.0601 179.744 35.4145 180.741H35.4459C35.9026 179.76 36.8634 179.175 38.013 179.175C39.6351 179.175 40.6824 180.235 40.6824 181.866V187.549H39.3123V182.182C39.3123 181.058 38.6902 180.393 37.6114 180.393C36.5247 180.393 35.761 181.201 35.761 182.317V187.549H34.3908V182.032C34.3908 181.042 33.7294 180.393 32.7136 180.393C31.6269 180.393 30.8396 181.248 30.8396 182.388V187.549H29.4694ZM45.1313 186.52C46.4227 186.52 47.4149 185.609 47.4149 184.422V183.749L45.2258 183.884C44.1234 183.955 43.4935 184.445 43.4935 185.222C43.4935 186.005 44.1471 186.52 45.1313 186.52ZM44.8242 187.691C43.1942 187.691 42.0997 186.702 42.0997 185.222C42.0997 183.812 43.1785 182.926 45.0683 182.815L47.4149 182.681V181.992C47.4149 180.987 46.7534 180.386 45.6195 180.386C44.5643 180.386 43.9029 180.884 43.7297 181.691H42.4069C42.5013 180.266 43.714 179.175 45.651 179.175C47.5723 179.175 48.785 180.219 48.785 181.857V187.549H47.4857V186.132H47.4542C46.9661 187.074 45.9266 187.691 44.8242 187.691ZM50.5252 187.549V179.316H51.8166V180.663H51.848C52.1158 179.752 52.8717 179.175 53.8324 179.175C54.0686 179.175 54.2734 179.213 54.3836 179.23V180.567C54.2734 180.527 53.982 180.488 53.6513 180.488C52.5882 180.488 51.8953 181.256 51.8953 182.419V187.549H50.5252ZM56.9427 182.974L60.5649 179.316H62.2263L58.675 182.871L62.3366 187.549H60.746L57.7065 183.718L56.9427 184.445V187.549H55.5726V176.127H56.9427V182.974ZM66.2186 180.369C64.9351 180.369 64.0374 181.359 63.9508 182.728H68.3998C68.3682 181.351 67.51 180.369 66.2186 180.369ZM68.3682 185.189H69.7147C69.4785 186.631 68.0926 187.691 66.3052 187.691C63.9587 187.691 62.5334 186.053 62.5334 183.465C62.5334 180.907 63.9823 179.175 66.2422 179.175C68.4548 179.175 69.8171 180.789 69.8171 183.282V183.804H63.9429V183.884C63.9429 185.459 64.8642 186.496 66.3367 186.496C67.3761 186.496 68.1399 185.965 68.3682 185.189ZM71.6439 177.33H73.014V179.316H74.6047V180.449H73.014V185.34C73.014 186.092 73.3291 186.433 74.0298 186.433C74.1873 186.433 74.5023 186.409 74.5968 186.393V187.549C74.4315 187.588 74.0535 187.612 73.7306 187.612C72.2267 187.612 71.6439 186.995 71.6439 185.412V180.449H70.4235V179.316H71.6439V177.33ZM79.4474 187.549V179.316H80.8175V187.549H79.4474ZM80.1324 177.931C79.6678 177.931 79.282 177.544 79.282 177.077C79.282 176.602 79.6678 176.222 80.1324 176.222C80.6049 176.222 80.9907 176.602 80.9907 177.077C80.9907 177.544 80.6049 177.931 80.1324 177.931ZM82.5266 181.588C82.5266 180.18 83.778 179.175 85.5817 179.175C87.2742 179.175 88.5184 180.188 88.5813 181.58H87.2742C87.1799 180.789 86.5421 180.298 85.5341 180.298C84.5343 180.298 83.8723 180.797 83.8723 181.517C83.8723 182.087 84.3061 182.467 85.235 182.704L86.5025 183.013C88.1563 183.432 88.7546 184.034 88.7546 185.245C88.7546 186.678 87.4081 187.691 85.4946 187.691C83.6998 187.691 82.4475 186.709 82.3056 185.254H83.6756C83.8256 186.108 84.4714 186.567 85.5817 186.567C86.692 186.567 87.3766 186.092 87.3766 185.348C87.3766 184.762 87.0379 184.445 86.1171 184.201L84.6762 183.829C83.2345 183.457 82.5266 182.713 82.5266 181.588ZM96.1881 186.52C97.479 186.52 98.4716 185.609 98.4716 184.422V183.749L96.2825 183.884C95.1802 183.955 94.5505 184.445 94.5505 185.222C94.5505 186.005 95.2036 186.52 96.1881 186.52ZM95.8809 187.691C94.2513 187.691 93.1563 186.702 93.1563 185.222C93.1563 183.812 94.2352 182.926 96.1252 182.815L98.4716 182.681V181.992C98.4716 180.987 97.8104 180.386 96.6759 180.386C95.6213 180.386 94.9593 180.884 94.7867 181.691H93.4635C93.5579 180.266 94.7706 179.175 96.7074 179.175C98.6289 179.175 99.8416 180.219 99.8416 181.857V187.549H98.5426V186.132H98.5111C98.0225 187.074 96.9831 187.691 95.8809 187.691ZM104.889 187.549V179.316H106.18V180.663H106.212C106.48 179.752 107.236 179.175 108.196 179.175C108.432 179.175 108.637 179.213 108.747 179.23V180.567C108.637 180.527 108.346 180.488 108.015 180.488C106.952 180.488 106.259 181.256 106.259 182.419V187.549H104.889ZM112.409 186.52C113.701 186.52 114.692 185.609 114.692 184.422V183.749L112.503 183.884C111.401 183.955 110.771 184.445 110.771 185.222C110.771 186.005 111.424 186.52 112.409 186.52ZM112.102 187.691C110.472 187.691 109.377 186.702 109.377 185.222C109.377 183.812 110.456 182.926 112.346 182.815L114.692 182.681V181.992C114.692 180.987 114.031 180.386 112.898 180.386C111.842 180.386 111.181 180.884 111.008 181.691H109.684C109.779 180.266 110.991 179.175 112.929 179.175C114.85 179.175 116.062 180.219 116.062 181.857V187.549H114.763V186.132H114.732C114.243 187.074 113.204 187.691 112.102 187.691ZM117.803 187.549V179.316H119.094V180.663H119.126C119.393 179.752 120.15 179.175 121.11 179.175C121.346 179.175 121.551 179.213 121.662 179.23V180.567C121.551 180.527 121.26 180.488 120.929 180.488C119.866 180.488 119.173 181.256 119.173 182.419V187.549H117.803ZM125.669 180.369C124.386 180.369 123.488 181.359 123.402 182.728H127.85C127.819 181.351 126.961 180.369 125.669 180.369ZM127.819 185.189H129.165C128.929 186.631 127.544 187.691 125.756 187.691C123.41 187.691 121.984 186.053 121.984 183.465C121.984 180.907 123.433 179.175 125.693 179.175C127.906 179.175 129.268 180.789 129.268 183.282V183.804H123.393V183.884C123.393 185.459 124.315 186.496 125.787 186.496C126.827 186.496 127.59 185.965 127.819 185.189ZM133.819 181.588C133.819 180.18 135.071 179.175 136.874 179.175C138.567 179.175 139.811 180.188 139.875 181.58H138.567C138.473 180.789 137.835 180.298 136.827 180.298C135.827 180.298 135.166 180.797 135.166 181.517C135.166 182.087 135.599 182.467 136.528 182.704L137.795 183.013C139.449 183.432 140.047 184.034 140.047 185.245C140.047 186.678 138.701 187.691 136.787 187.691C134.992 187.691 133.74 186.709 133.598 185.254H134.969C135.118 186.108 135.764 186.567 136.874 186.567C137.985 186.567 138.669 186.092 138.669 185.348C138.669 184.762 138.331 184.445 137.41 184.201L135.969 183.829C134.528 183.457 133.819 182.713 133.819 181.588ZM141.544 187.549V179.316H142.914V187.549H141.544ZM142.228 177.931C141.764 177.931 141.379 177.544 141.379 177.077C141.379 176.602 141.764 176.222 142.228 176.222C142.701 176.222 143.087 176.602 143.087 177.077C143.087 177.544 142.701 177.931 142.228 177.931ZM145.205 177.33H146.575V179.316H148.166V180.449H146.575V185.34C146.575 186.092 146.891 186.433 147.591 186.433C147.749 186.433 148.064 186.409 148.158 186.393V187.549C147.993 187.588 147.615 187.612 147.292 187.612C145.788 187.612 145.205 186.995 145.205 185.412V180.449H143.985V179.316H145.205V177.33ZM156.355 179.316V187.549H155.056V186.211H155.025C154.536 187.161 153.685 187.691 152.426 187.691C150.638 187.691 149.591 186.528 149.591 184.659V179.316H150.962V184.414C150.962 185.752 151.583 186.472 152.851 186.472C154.182 186.472 154.985 185.554 154.985 184.153V179.316H156.355ZM160.836 186.52C162.127 186.52 163.119 185.609 163.119 184.422V183.749L160.93 183.884C159.828 183.955 159.198 184.445 159.198 185.222C159.198 186.005 159.851 186.52 160.836 186.52ZM160.529 187.691C158.898 187.691 157.804 186.702 157.804 185.222C157.804 183.812 158.883 182.926 160.773 182.815L163.119 182.681V181.992C163.119 180.987 162.457 180.386 161.324 180.386C160.269 180.386 159.607 180.884 159.434 181.691H158.111C158.206 180.266 159.418 179.175 161.355 179.175C163.277 179.175 164.489 180.219 164.489 181.857V187.549H163.19V186.132H163.159C162.67 187.074 161.631 187.691 160.529 187.691ZM166.671 177.33H168.04V179.316H169.631V180.449H168.04V185.34C168.04 186.092 168.356 186.433 169.056 186.433C169.214 186.433 169.529 186.409 169.623 186.393V187.549C169.458 187.588 169.08 187.612 168.757 187.612C167.253 187.612 166.671 186.995 166.671 185.412V180.449H165.45V179.316H166.671V177.33ZM171.167 187.549V179.316H172.537V187.549H171.167ZM171.852 177.931C171.388 177.931 171.001 177.544 171.001 177.077C171.001 176.602 171.388 176.222 171.852 176.222C172.324 176.222 172.71 176.602 172.71 177.077C172.71 177.544 172.324 177.931 171.852 177.931ZM177.781 187.691C175.513 187.691 173.986 186.053 173.986 183.432C173.986 180.805 175.513 179.175 177.781 179.175C180.041 179.175 181.569 180.805 181.569 183.432C181.569 186.053 180.041 187.691 177.781 187.691ZM177.781 186.48C179.23 186.48 180.175 185.372 180.175 183.432C180.175 181.493 179.23 180.386 177.781 180.386C176.332 180.386 175.38 181.493 175.38 183.432C175.38 185.372 176.332 186.48 177.781 186.48ZM182.954 187.549V179.316H184.246V180.63H184.277C184.734 179.744 185.608 179.175 186.876 179.175C188.671 179.175 189.71 180.338 189.71 182.206V187.549H188.34V182.452C188.34 181.121 187.719 180.393 186.459 180.393C185.167 180.393 184.325 181.311 184.325 182.704V187.549H182.954ZM201.569 182.015H200.231C200.034 181.121 199.341 180.386 198.136 180.386C196.719 180.386 195.758 181.565 195.758 183.432C195.758 185.348 196.734 186.48 198.152 186.48C199.27 186.48 200.002 185.887 200.239 184.897H201.585C201.372 186.536 200.002 187.691 198.144 187.691C195.876 187.691 194.365 186.084 194.365 183.432C194.365 180.836 195.868 179.175 198.128 179.175C200.176 179.175 201.396 180.535 201.569 182.015ZM206.238 187.691C203.971 187.691 202.443 186.053 202.443 183.432C202.443 180.805 203.971 179.175 206.238 179.175C208.499 179.175 210.027 180.805 210.027 183.432C210.027 186.053 208.499 187.691 206.238 187.691ZM206.238 186.48C207.687 186.48 208.632 185.372 208.632 183.432C208.632 181.493 207.687 180.386 206.238 180.386C204.79 180.386 203.837 181.493 203.837 183.432C203.837 185.372 204.79 186.48 206.238 186.48ZM211.412 187.549V179.316H212.704V180.63H212.735C213.12 179.76 213.956 179.175 215.058 179.175C216.176 179.175 217.003 179.744 217.357 180.741H217.388C217.846 179.76 218.806 179.175 219.956 179.175C221.578 179.175 222.625 180.235 222.625 181.866V187.549H221.255V182.182C221.255 181.058 220.633 180.393 219.554 180.393C218.467 180.393 217.704 181.201 217.704 182.317V187.549H216.334V182.032C216.334 181.042 215.672 180.393 214.656 180.393C213.57 180.393 212.782 181.248 212.782 182.388V187.549H211.412ZM224.373 187.549V179.316H225.664V180.63H225.696C226.082 179.76 226.917 179.175 228.019 179.175C229.137 179.175 229.964 179.744 230.319 180.741H230.35C230.806 179.76 231.767 179.175 232.917 179.175C234.539 179.175 235.586 180.235 235.586 181.866V187.549H234.216V182.182C234.216 181.058 233.594 180.393 232.515 180.393C231.428 180.393 230.664 181.201 230.664 182.317V187.549H229.294V182.032C229.294 181.042 228.633 180.393 227.617 180.393C226.53 180.393 225.743 181.248 225.743 182.388V187.549H224.373ZM240.728 187.691C238.46 187.691 236.933 186.053 236.933 183.432C236.933 180.805 238.46 179.175 240.728 179.175C242.987 179.175 244.515 180.805 244.515 183.432C244.515 186.053 242.987 187.691 240.728 187.691ZM240.728 186.48C242.177 186.48 243.121 185.372 243.121 183.432C243.121 181.493 242.177 180.386 240.728 180.386C239.279 180.386 238.326 181.493 238.326 183.432C238.326 185.372 239.279 186.48 240.728 186.48ZM245.902 187.549V179.316H247.192V180.63H247.224C247.681 179.744 248.555 179.175 249.823 179.175C251.618 179.175 252.658 180.338 252.658 182.206V187.549H251.287V182.452C251.287 181.121 250.665 180.393 249.405 180.393C248.114 180.393 247.271 181.311 247.271 182.704V187.549H245.902ZM258.154 187.549V180.449H257.012V179.316H258.154V178.399C258.154 176.815 258.886 176.064 260.398 176.064C260.705 176.064 261.035 176.095 261.232 176.127V177.243C261.067 177.219 260.839 177.195 260.611 177.195C259.87 177.195 259.516 177.591 259.516 178.406V179.316H261.193V180.449H259.524V187.549H258.154ZM265.611 187.691C263.343 187.691 261.815 186.053 261.815 183.432C261.815 180.805 263.343 179.175 265.611 179.175C267.871 179.175 269.398 180.805 269.398 183.432C269.398 186.053 267.871 187.691 265.611 187.691ZM265.611 186.48C267.06 186.48 268.005 185.372 268.005 183.432C268.005 181.493 267.06 180.386 265.611 180.386C264.162 180.386 263.209 181.493 263.209 183.432C263.209 185.372 264.162 186.48 265.611 186.48ZM270.784 187.549V179.316H272.076V180.663H272.107C272.375 179.752 273.13 179.175 274.091 179.175C274.328 179.175 274.533 179.213 274.642 179.23V180.567C274.533 180.527 274.241 180.488 273.91 180.488C272.847 180.488 272.154 181.256 272.154 182.419V187.549H270.784ZM282.17 187.691C280.083 187.691 278.666 186.013 278.666 183.432C278.666 180.852 280.076 179.175 282.139 179.175C283.312 179.175 284.257 179.752 284.745 180.655H284.777V176.127H286.147V187.549H284.84V186.156H284.816C284.288 187.106 283.351 187.691 282.17 187.691ZM282.43 180.386C280.982 180.386 280.068 181.573 280.068 183.432C280.068 185.301 280.982 186.48 282.43 186.48C283.839 186.48 284.784 185.277 284.784 183.432C284.784 181.596 283.839 180.386 282.43 180.386ZM291.281 180.369C289.997 180.369 289.1 181.359 289.012 182.728H293.462C293.43 181.351 292.572 180.369 291.281 180.369ZM293.43 185.189H294.777C294.541 186.631 293.155 187.691 291.367 187.691C289.021 187.691 287.596 186.053 287.596 183.465C287.596 180.907 289.045 179.175 291.304 179.175C293.517 179.175 294.879 180.789 294.879 183.282V183.804H289.005V183.884C289.005 185.459 289.926 186.496 291.398 186.496C292.439 186.496 293.202 185.965 293.43 185.189ZM298.966 186.52C300.257 186.52 301.249 185.609 301.249 184.422V183.749L299.06 183.884C297.958 183.955 297.328 184.445 297.328 185.222C297.328 186.005 297.982 186.52 298.966 186.52ZM298.659 187.691C297.029 187.691 295.934 186.702 295.934 185.222C295.934 183.812 297.013 182.926 298.903 182.815L301.249 182.681V181.992C301.249 180.987 300.588 180.386 299.454 180.386C298.399 180.386 297.738 180.884 297.564 181.691H296.241C296.336 180.266 297.548 179.175 299.486 179.175C301.407 179.175 302.62 180.219 302.62 181.857V187.549H301.32V186.132H301.289C300.801 187.074 299.762 187.691 298.659 187.691ZM307.462 187.691C305.375 187.691 303.958 186.013 303.958 183.432C303.958 180.852 305.368 179.175 307.431 179.175C308.604 179.175 309.549 179.752 310.037 180.655H310.069V176.127H311.439V187.549H310.132V186.156H310.108C309.58 187.106 308.643 187.691 307.462 187.691ZM307.722 180.386C306.273 180.386 305.36 181.573 305.36 183.432C305.36 185.301 306.273 186.48 307.722 186.48C309.132 186.48 310.077 185.277 310.077 183.432C310.077 181.596 309.132 180.386 307.722 180.386ZM323.4 182.015H322.061C321.865 181.121 321.171 180.386 319.966 180.386C318.549 180.386 317.589 181.565 317.589 183.432C317.589 185.348 318.565 186.48 319.983 186.48C321.1 186.48 321.833 185.887 322.069 184.897H323.416C323.203 186.536 321.833 187.691 319.975 187.691C317.706 187.691 316.194 186.084 316.194 183.432C316.194 180.836 317.699 179.175 319.958 179.175C322.006 179.175 323.226 180.535 323.4 182.015ZM328.069 187.691C325.802 187.691 324.274 186.053 324.274 183.432C324.274 180.805 325.802 179.175 328.069 179.175C330.329 179.175 331.857 180.805 331.857 183.432C331.857 186.053 330.329 187.691 328.069 187.691ZM328.069 186.48C329.518 186.48 330.463 185.372 330.463 183.432C330.463 181.493 329.518 180.386 328.069 180.386C326.62 180.386 325.667 181.493 325.667 183.432C325.667 185.372 326.62 186.48 328.069 186.48ZM333.314 187.549V179.316H334.684V187.549H333.314ZM333.999 177.931C333.534 177.931 333.148 177.544 333.148 177.077C333.148 176.602 333.534 176.222 333.999 176.222C334.471 176.222 334.857 176.602 334.857 177.077C334.857 177.544 334.471 177.931 333.999 177.931ZM336.534 187.549V179.316H337.826V180.63H337.857C338.314 179.744 339.188 179.175 340.455 179.175C342.251 179.175 343.29 180.338 343.29 182.206V187.549H341.92V182.452C341.92 181.121 341.298 180.393 340.038 180.393C338.747 180.393 337.904 181.311 337.904 182.704V187.549H336.534ZM344.896 181.588C344.896 180.18 346.149 179.175 347.952 179.175C349.645 179.175 350.889 180.188 350.952 181.58H349.645C349.55 180.789 348.913 180.298 347.905 180.298C346.904 180.298 346.243 180.797 346.243 181.517C346.243 182.087 346.676 182.467 347.606 182.704L348.873 183.013C350.527 183.432 351.125 184.034 351.125 185.245C351.125 186.678 349.779 187.691 347.865 187.691C346.07 187.691 344.817 186.709 344.676 185.254H346.046C346.195 186.108 346.841 186.567 347.952 186.567C349.062 186.567 349.747 186.092 349.747 185.348C349.747 184.762 349.409 184.445 348.487 184.201L347.046 183.829C345.605 183.457 344.896 182.713 344.896 181.588ZM353.708 187.628C353.204 187.628 352.81 187.232 352.81 186.725C352.81 186.219 353.204 185.823 353.708 185.823C354.212 185.823 354.605 186.219 354.605 186.725C354.605 187.232 354.212 187.628 353.708 187.628ZM358.834 184.407H360.259C360.393 185.641 361.558 186.456 363.181 186.456C364.716 186.456 365.834 185.641 365.834 184.517C365.834 183.551 365.165 182.958 363.637 182.562L362.181 182.182C360.086 181.643 359.157 180.718 359.157 179.166C359.157 177.267 360.81 175.937 363.173 175.937C365.433 175.937 367.07 177.283 367.133 179.198H365.716C365.59 177.971 364.605 177.219 363.126 177.219C361.653 177.219 360.629 177.987 360.629 179.103C360.629 179.966 361.259 180.48 362.802 180.884L363.992 181.201C366.346 181.794 367.298 182.704 367.298 184.343C367.298 186.433 365.661 187.739 363.047 187.739C360.637 187.739 358.968 186.425 358.834 184.407ZM368.739 187.549V179.316H370.031V180.63H370.063C370.449 179.76 371.283 179.175 372.386 179.175C373.504 179.175 374.33 179.744 374.684 180.741H374.717C375.173 179.76 376.133 179.175 377.283 179.175C378.906 179.175 379.953 180.235 379.953 181.866V187.549H378.582V182.182C378.582 181.058 377.961 180.393 376.882 180.393C375.795 180.393 375.031 181.201 375.031 182.317V187.549H373.661V182.032C373.661 181.042 373 180.393 371.984 180.393C370.897 180.393 370.11 181.248 370.11 182.388V187.549H368.739ZM384.401 186.52C385.693 186.52 386.685 185.609 386.685 184.422V183.749L384.496 183.884C383.394 183.955 382.764 184.445 382.764 185.222C382.764 186.005 383.418 186.52 384.401 186.52ZM384.094 187.691C382.465 187.691 381.37 186.702 381.37 185.222C381.37 183.812 382.449 182.926 384.339 182.815L386.685 182.681V181.992C386.685 180.987 386.024 180.386 384.89 180.386C383.835 180.386 383.173 180.884 383 181.691H381.677C381.772 180.266 382.984 179.175 384.922 179.175C386.843 179.175 388.056 180.219 388.056 181.857V187.549H386.756V186.132H386.724C386.237 187.074 385.197 187.691 384.094 187.691ZM389.867 187.549V176.127H391.237V187.549H389.867ZM393.158 187.549V176.127H394.528V187.549H393.158ZM4.09067 205.972C5.38205 205.972 6.37421 205.062 6.37421 203.875V203.202L4.18516 203.336C3.08276 203.408 2.45283 203.898 2.45283 204.675C2.45283 205.458 3.10639 205.972 4.09067 205.972ZM3.78358 207.143C2.1536 207.143 1.05908 206.155 1.05908 204.675C1.05908 203.265 2.13786 202.378 4.02768 202.268L6.37421 202.134V201.445C6.37421 200.44 5.71277 199.838 4.57887 199.838C3.52373 199.838 2.86229 200.337 2.68905 201.144H1.36618C1.46067 199.719 2.6733 198.627 4.61038 198.627C6.53169 198.627 7.74433 199.672 7.74433 201.31V207.002H6.44508V205.585H6.41358C5.92538 206.527 4.88597 207.143 3.78358 207.143ZM9.48456 207.002V198.769H10.7759V200.083H10.8074C11.1932 199.212 12.0279 198.627 13.1304 198.627C14.2485 198.627 15.0753 199.197 15.4296 200.194H15.4611C15.9178 199.212 16.8785 198.627 18.0281 198.627C19.6502 198.627 20.6975 199.687 20.6975 201.318V207.002H19.3274V201.635C19.3274 200.511 18.7053 199.845 17.6265 199.845C16.5399 199.845 15.7761 200.654 15.7761 201.77V207.002H14.406V201.484C14.406 200.495 13.7445 199.845 12.7287 199.845C11.6421 199.845 10.8547 200.701 10.8547 201.84V207.002H9.48456ZM25.8394 207.143C23.5716 207.143 22.044 205.505 22.044 202.885C22.044 200.257 23.5716 198.627 25.8394 198.627C28.0993 198.627 29.6269 200.257 29.6269 202.885C29.6269 205.505 28.0993 207.143 25.8394 207.143ZM25.8394 205.932C27.2883 205.932 28.2331 204.824 28.2331 202.885C28.2331 200.946 27.2883 199.838 25.8394 199.838C24.3905 199.838 23.4378 200.946 23.4378 202.885C23.4378 204.824 24.3905 205.932 25.8394 205.932ZM37.7374 198.769V207.002H36.4381V205.663H36.4066C35.9184 206.613 35.068 207.143 33.8081 207.143C32.0207 207.143 30.9734 205.98 30.9734 204.112V198.769H32.3435V203.866C32.3435 205.205 32.9656 205.924 34.2333 205.924C35.5641 205.924 36.3672 205.007 36.3672 203.605V198.769H37.7374ZM39.517 207.002V198.769H40.8083V200.083H40.8398C41.2965 199.197 42.1706 198.627 43.4384 198.627C45.2337 198.627 46.2731 199.79 46.2731 201.659V207.002H44.903V201.904C44.903 200.574 44.2809 199.845 43.021 199.845C41.7296 199.845 40.8871 200.764 40.8871 202.157V207.002H39.517ZM48.4621 196.782H49.8322V198.769H51.4228V199.901H49.8322V204.793C49.8322 205.545 50.1472 205.885 50.848 205.885C51.0055 205.885 51.3204 205.861 51.4149 205.846V207.002C51.2497 207.04 50.8716 207.065 50.5488 207.065C49.0448 207.065 48.4621 206.447 48.4621 204.864V199.901H47.2417V198.769H48.4621V196.782ZM59.5884 207.143C57.3207 207.143 55.793 205.505 55.793 202.885C55.793 200.257 57.3207 198.627 59.5884 198.627C61.8484 198.627 63.376 200.257 63.376 202.885C63.376 205.505 61.8484 207.143 59.5884 207.143ZM59.5884 205.932C61.0373 205.932 61.9822 204.824 61.9822 202.885C61.9822 200.946 61.0373 199.838 59.5884 199.838C58.1396 199.838 57.1868 200.946 57.1868 202.885C57.1868 204.824 58.1396 205.932 59.5884 205.932ZM65.2028 207.002V199.901H64.061V198.769H65.2028V197.852C65.2028 196.268 65.9351 195.516 67.4469 195.516C67.7541 195.516 68.0848 195.548 68.2816 195.58V196.696C68.1163 196.671 67.8879 196.648 67.6596 196.648C66.9193 196.648 66.5651 197.043 66.5651 197.859V198.769H68.2423V199.901H66.573V207.002H65.2028ZM72.9668 207.002V198.769H74.2582V200.083H74.2897C74.6755 199.212 75.5102 198.627 76.6126 198.627C77.7307 198.627 78.5575 199.197 78.9119 200.194H78.9434C79.4001 199.212 80.3608 198.627 81.5106 198.627C83.1321 198.627 84.1795 199.687 84.1795 201.318V207.002H82.8096V201.635C82.8096 200.511 82.1879 199.845 81.1088 199.845C80.0221 199.845 79.2584 200.654 79.2584 201.77V207.002H77.8883V201.484C77.8883 200.495 77.2268 199.845 76.211 199.845C75.1243 199.845 74.337 200.701 74.337 201.84V207.002H72.9668ZM88.6288 205.972C89.9197 205.972 90.9123 205.062 90.9123 203.875V203.202L88.7232 203.336C87.6209 203.408 86.9912 203.898 86.9912 204.675C86.9912 205.458 87.6443 205.972 88.6288 205.972ZM88.3216 207.143C86.692 207.143 85.597 206.155 85.597 204.675C85.597 203.265 86.6759 202.378 88.5659 202.268L90.9123 202.134V201.445C90.9123 200.44 90.2512 199.838 89.1167 199.838C88.062 199.838 87.4 200.337 87.2274 201.144H85.9043C85.9986 199.719 87.2113 198.627 89.1481 198.627C91.0696 198.627 92.2823 199.672 92.2823 201.31V207.002H90.9833V205.585H90.9518C90.4632 206.527 89.4239 207.143 88.3216 207.143ZM94.0223 207.002V198.769H95.3141V200.115H95.3455C95.6132 199.204 96.3687 198.627 97.3299 198.627C97.5661 198.627 97.7709 198.666 97.8806 198.682V200.02C97.7709 199.98 97.479 199.941 97.1484 199.941C96.0857 199.941 95.3931 200.709 95.3931 201.872V207.002H94.0223ZM100.44 202.426L104.063 198.769H105.724L102.173 202.323L105.834 207.002H104.243L101.204 203.17L100.44 203.898V207.002H99.0699V195.58H100.44V202.426ZM109.716 199.822C108.432 199.822 107.535 200.812 107.448 202.181H111.897C111.865 200.803 111.008 199.822 109.716 199.822ZM111.865 204.642H113.212C112.976 206.083 111.59 207.143 109.803 207.143C107.456 207.143 106.031 205.505 106.031 202.917C106.031 200.36 107.48 198.627 109.74 198.627C111.953 198.627 113.314 200.242 113.314 202.735V203.257H107.44V203.336C107.44 204.911 108.362 205.949 109.834 205.949C110.874 205.949 111.637 205.418 111.865 204.642ZM115.142 196.782H116.512V198.769H118.102V199.901H116.512V204.793C116.512 205.545 116.827 205.885 117.527 205.885C117.685 205.885 118 205.861 118.094 205.846V207.002C117.929 207.04 117.551 207.065 117.228 207.065C115.724 207.065 115.142 206.447 115.142 204.864V199.901H113.921V198.769H115.142V196.782ZM126.85 198.627C128.937 198.627 130.354 200.305 130.354 202.885C130.354 205.466 128.945 207.143 126.882 207.143C125.708 207.143 124.763 206.565 124.276 205.663H124.244V209.748H122.874V198.769H124.173V200.162H124.205C124.709 199.237 125.662 198.627 126.85 198.627ZM126.583 205.932C128.04 205.932 128.953 204.753 128.953 202.885C128.953 201.026 128.04 199.838 126.583 199.838C125.181 199.838 124.236 201.057 124.236 202.885C124.236 204.722 125.181 205.932 126.583 205.932ZM134.441 205.972C135.733 205.972 136.724 205.062 136.724 203.875V203.202L134.535 203.336C133.433 203.408 132.803 203.898 132.803 204.675C132.803 205.458 133.457 205.972 134.441 205.972ZM134.134 207.143C132.504 207.143 131.41 206.155 131.41 204.675C131.41 203.265 132.488 202.378 134.378 202.268L136.724 202.134V201.445C136.724 200.44 136.063 199.838 134.93 199.838C133.874 199.838 133.213 200.337 133.04 201.144H131.716C131.812 199.719 133.023 198.627 134.961 198.627C136.882 198.627 138.095 199.672 138.095 201.31V207.002H136.795V205.585H136.764C136.276 206.527 135.237 207.143 134.134 207.143ZM139.835 207.002V198.769H141.126V200.115H141.158C141.425 199.204 142.182 198.627 143.142 198.627C143.378 198.627 143.583 198.666 143.694 198.682V200.02C143.583 199.98 143.292 199.941 142.961 199.941C141.898 199.941 141.205 200.709 141.205 201.872V207.002H139.835ZM145.252 196.782H146.623V198.769H148.213V199.901H146.623V204.793C146.623 205.545 146.937 205.885 147.638 205.885C147.796 205.885 148.111 205.861 148.206 205.846V207.002C148.04 207.04 147.662 207.065 147.339 207.065C145.835 207.065 145.252 206.447 145.252 204.864V199.901H144.032V198.769H145.252V196.782ZM149.749 207.002V198.769H151.119V207.002H149.749ZM150.434 197.384C149.969 197.384 149.584 196.996 149.584 196.53C149.584 196.055 149.969 195.674 150.434 195.674C150.906 195.674 151.292 196.055 151.292 196.53C151.292 196.996 150.906 197.384 150.434 197.384ZM159.772 201.468H158.434C158.237 200.574 157.545 199.838 156.339 199.838C154.922 199.838 153.961 201.017 153.961 202.885C153.961 204.801 154.938 205.932 156.355 205.932C157.474 205.932 158.206 205.339 158.442 204.35H159.789C159.576 205.988 158.206 207.143 156.347 207.143C154.08 207.143 152.568 205.537 152.568 202.885C152.568 200.289 154.072 198.627 156.332 198.627C158.379 198.627 159.599 199.988 159.772 201.468ZM161.119 207.002V198.769H162.489V207.002H161.119ZM161.804 197.384C161.34 197.384 160.954 196.996 160.954 196.53C160.954 196.055 161.34 195.674 161.804 195.674C162.277 195.674 162.662 196.055 162.662 196.53C162.662 196.996 162.277 197.384 161.804 197.384ZM168.316 198.627C170.403 198.627 171.821 200.305 171.821 202.885C171.821 205.466 170.411 207.143 168.348 207.143C167.174 207.143 166.229 206.565 165.742 205.663H165.71V209.748H164.339V198.769H165.639V200.162H165.671C166.175 199.237 167.127 198.627 168.316 198.627ZM168.049 205.932C169.506 205.932 170.418 204.753 170.418 202.885C170.418 201.026 169.506 199.838 168.049 199.838C166.647 199.838 165.702 201.057 165.702 202.885C165.702 204.722 166.647 205.932 168.049 205.932ZM175.907 205.972C177.199 205.972 178.19 205.062 178.19 203.875V203.202L176.001 203.336C174.899 203.408 174.269 203.898 174.269 204.675C174.269 205.458 174.922 205.972 175.907 205.972ZM175.6 207.143C173.97 207.143 172.875 206.155 172.875 204.675C172.875 203.265 173.954 202.378 175.844 202.268L178.19 202.134V201.445C178.19 200.44 177.529 199.838 176.396 199.838C175.34 199.838 174.679 200.337 174.506 201.144H173.182C173.277 199.719 174.489 198.627 176.427 198.627C178.348 198.627 179.56 199.672 179.56 201.31V207.002H178.261V205.585H178.23C177.741 206.527 176.702 207.143 175.6 207.143ZM181.301 207.002V198.769H182.592V200.083H182.624C183.081 199.197 183.955 198.627 185.222 198.627C187.017 198.627 188.057 199.79 188.057 201.659V207.002H186.687V201.904C186.687 200.574 186.065 199.845 184.805 199.845C183.514 199.845 182.671 200.764 182.671 202.157V207.002H181.301ZM190.246 196.782H191.616V198.769H193.207V199.901H191.616V204.793C191.616 205.545 191.931 205.885 192.632 205.885C192.79 205.885 193.104 205.861 193.199 205.846V207.002C193.033 207.04 192.656 207.065 192.333 207.065C190.829 207.065 190.246 206.447 190.246 204.864V199.901H189.026V198.769H190.246V196.782ZM194.53 201.041C194.53 199.632 195.782 198.627 197.585 198.627C199.277 198.627 200.522 199.64 200.585 201.033H199.277C199.183 200.242 198.545 199.751 197.537 199.751C196.538 199.751 195.876 200.25 195.876 200.97C195.876 201.539 196.309 201.92 197.238 202.157L198.506 202.466C200.16 202.885 200.758 203.487 200.758 204.698C200.758 206.13 199.411 207.143 197.498 207.143C195.703 207.143 194.451 206.162 194.309 204.706H195.68C195.829 205.56 196.475 206.02 197.585 206.02C198.695 206.02 199.38 205.545 199.38 204.801C199.38 204.215 199.041 203.898 198.12 203.653L196.679 203.281C195.239 202.909 194.53 202.165 194.53 201.041ZM208.593 207.143C206.506 207.143 205.089 205.466 205.089 202.885C205.089 200.305 206.499 198.627 208.561 198.627C209.735 198.627 210.68 199.204 211.168 200.107H211.2V195.58H212.57V207.002H211.263V205.608H211.238C210.711 206.558 209.774 207.143 208.593 207.143ZM208.853 199.838C207.404 199.838 206.491 201.026 206.491 202.885C206.491 204.753 207.404 205.932 208.853 205.932C210.262 205.932 211.207 204.73 211.207 202.885C211.207 201.049 210.262 199.838 208.853 199.838ZM217.814 207.143C215.546 207.143 214.019 205.505 214.019 202.885C214.019 200.257 215.546 198.627 217.814 198.627C220.073 198.627 221.601 200.257 221.601 202.885C221.601 205.505 220.073 207.143 217.814 207.143ZM217.814 205.932C219.263 205.932 220.207 204.824 220.207 202.885C220.207 200.946 219.263 199.838 217.814 199.838C216.365 199.838 215.412 200.946 215.412 202.885C215.412 204.824 216.365 205.932 217.814 205.932ZM226.294 207.002V198.769H227.586V200.083H227.617C228.074 199.197 228.948 198.627 230.216 198.627C232.011 198.627 233.05 199.79 233.05 201.659V207.002H231.68V201.904C231.68 200.574 231.059 199.845 229.798 199.845C228.507 199.845 227.665 200.764 227.665 202.157V207.002H226.294ZM238.192 207.143C235.925 207.143 234.397 205.505 234.397 202.885C234.397 200.257 235.925 198.627 238.192 198.627C240.452 198.627 241.98 200.257 241.98 202.885C241.98 205.505 240.452 207.143 238.192 207.143ZM238.192 205.932C239.641 205.932 240.586 204.824 240.586 202.885C240.586 200.946 239.641 199.838 238.192 199.838C236.743 199.838 235.791 200.946 235.791 202.885C235.791 204.824 236.743 205.932 238.192 205.932ZM243.807 196.782H245.177V198.769H246.768V199.901H245.177V204.793C245.177 205.545 245.492 205.885 246.193 205.885C246.35 205.885 246.665 205.861 246.759 205.846V207.002C246.594 207.04 246.216 207.065 245.893 207.065C244.39 207.065 243.807 206.447 243.807 204.864V199.901H242.586V198.769H243.807V196.782ZM254.241 205.972C255.531 205.972 256.524 205.062 256.524 203.875V203.202L254.335 203.336C253.233 203.408 252.602 203.898 252.602 204.675C252.602 205.458 253.256 205.972 254.241 205.972ZM253.933 207.143C252.303 207.143 251.209 206.155 251.209 204.675C251.209 203.265 252.288 202.378 254.177 202.268L256.524 202.134V201.445C256.524 200.44 255.862 199.838 254.728 199.838C253.673 199.838 253.012 200.337 252.838 201.144H251.516C251.61 199.719 252.823 198.627 254.76 198.627C256.681 198.627 257.894 199.672 257.894 201.31V207.002H256.594V205.585H256.563C256.075 206.527 255.036 207.143 253.933 207.143ZM259.705 207.002V195.58H261.075V207.002H259.705ZM262.996 207.002V195.58H264.366V207.002H262.996ZM269.611 207.143C267.343 207.143 265.815 205.505 265.815 202.885C265.815 200.257 267.343 198.627 269.611 198.627C271.871 198.627 273.398 200.257 273.398 202.885C273.398 205.505 271.871 207.143 269.611 207.143ZM269.611 205.932C271.06 205.932 272.005 204.824 272.005 202.885C272.005 200.946 271.06 199.838 269.611 199.838C268.162 199.838 267.209 200.946 267.209 202.885C267.209 204.824 268.162 205.932 269.611 205.932ZM285.202 198.769L282.918 207.002H281.524L279.674 200.629H279.642L277.8 207.002H276.406L274.115 198.769H275.477L277.115 205.466H277.147L278.997 198.769H280.319L282.178 205.466H282.21L283.847 198.769H285.202ZM290.076 196.782H291.446V198.769H293.037V199.901H291.446V204.793C291.446 205.545 291.761 205.885 292.462 205.885C292.619 205.885 292.934 205.861 293.029 205.846V207.002C292.863 207.04 292.485 207.065 292.163 207.065C290.659 207.065 290.076 206.447 290.076 204.864V199.901H288.855V198.769H290.076V196.782ZM297.659 207.143C295.391 207.143 293.863 205.505 293.863 202.885C293.863 200.257 295.391 198.627 297.659 198.627C299.919 198.627 301.446 200.257 301.446 202.885C301.446 205.505 299.919 207.143 297.659 207.143ZM297.659 205.932C299.108 205.932 300.053 204.824 300.053 202.885C300.053 200.946 299.108 199.838 297.659 199.838C296.21 199.838 295.257 200.946 295.257 202.885C295.257 204.824 296.21 205.932 297.659 205.932ZM306.14 207.002V198.769H307.431V200.083H307.462C307.848 199.212 308.683 198.627 309.785 198.627C310.903 198.627 311.73 199.197 312.085 200.194H312.116C312.572 199.212 313.534 198.627 314.683 198.627C316.305 198.627 317.352 199.687 317.352 201.318V207.002H315.982V201.635C315.982 200.511 315.36 199.845 314.281 199.845C313.195 199.845 312.431 200.654 312.431 201.77V207.002H311.061V201.484C311.061 200.495 310.399 199.845 309.383 199.845C308.297 199.845 307.51 200.701 307.51 201.84V207.002H306.14ZM321.802 205.972C323.093 205.972 324.085 205.062 324.085 203.875V203.202L321.896 203.336C320.794 203.408 320.163 203.898 320.163 204.675C320.163 205.458 320.817 205.972 321.802 205.972ZM321.494 207.143C319.864 207.143 318.77 206.155 318.77 204.675C318.77 203.265 319.849 202.378 321.738 202.268L324.085 202.134V201.445C324.085 200.44 323.423 199.838 322.289 199.838C321.234 199.838 320.573 200.337 320.399 201.144H319.077C319.171 199.719 320.384 198.627 322.321 198.627C324.242 198.627 325.455 199.672 325.455 201.31V207.002H324.155V205.585H324.124C323.636 206.527 322.597 207.143 321.494 207.143ZM328.636 202.426L332.258 198.769H333.92L330.369 202.323L334.03 207.002H332.439L329.4 203.17L328.636 203.898V207.002H327.266V195.58H328.636V202.426ZM337.912 199.822C336.628 199.822 335.731 200.812 335.645 202.181H340.093C340.062 200.803 339.204 199.822 337.912 199.822ZM340.062 204.642H341.408C341.172 206.083 339.786 207.143 337.998 207.143C335.652 207.143 334.227 205.505 334.227 202.917C334.227 200.36 335.676 198.627 337.935 198.627C340.148 198.627 341.511 200.242 341.511 202.735V203.257H335.637V203.336C335.637 204.911 336.557 205.949 338.031 205.949C339.07 205.949 339.833 205.418 340.062 204.642ZM349.306 207.143C347.219 207.143 345.802 205.466 345.802 202.885C345.802 200.305 347.211 198.627 349.275 198.627C350.448 198.627 351.393 199.204 351.881 200.107H351.912V195.58H353.283V207.002H351.975V205.608H351.952C351.424 206.558 350.487 207.143 349.306 207.143ZM349.566 199.838C348.117 199.838 347.203 201.026 347.203 202.885C347.203 204.753 348.117 205.932 349.566 205.932C350.975 205.932 351.92 204.73 351.92 202.885C351.92 201.049 350.975 199.838 349.566 199.838ZM358.417 199.822C357.133 199.822 356.236 200.812 356.149 202.181H360.598C360.566 200.803 359.708 199.822 358.417 199.822ZM360.566 204.642H361.913C361.677 206.083 360.291 207.143 358.503 207.143C356.157 207.143 354.731 205.505 354.731 202.917C354.731 200.36 356.18 198.627 358.44 198.627C360.653 198.627 362.015 200.242 362.015 202.735V203.257H356.141V203.336C356.141 204.911 357.062 205.949 358.535 205.949C359.574 205.949 360.338 205.418 360.566 204.642ZM366.102 205.972C367.394 205.972 368.385 205.062 368.385 203.875V203.202L366.196 203.336C365.094 203.408 364.464 203.898 364.464 204.675C364.464 205.458 365.117 205.972 366.102 205.972ZM365.795 207.143C364.165 207.143 363.07 206.155 363.07 204.675C363.07 203.265 364.149 202.378 366.039 202.268L368.385 202.134V201.445C368.385 200.44 367.724 199.838 366.59 199.838C365.535 199.838 364.874 200.337 364.701 201.144H363.377C363.472 199.719 364.684 198.627 366.621 198.627C368.543 198.627 369.755 199.672 369.755 201.31V207.002H368.456V205.585H368.425C367.936 206.527 366.897 207.143 365.795 207.143ZM371.566 207.002V195.58H372.937V207.002H371.566ZM374.646 201.041C374.646 199.632 375.897 198.627 377.701 198.627C379.393 198.627 380.638 199.64 380.7 201.033H379.393C379.299 200.242 378.661 199.751 377.653 199.751C376.653 199.751 375.992 200.25 375.992 200.97C375.992 201.539 376.425 201.92 377.354 202.157L378.622 202.466C380.275 202.885 380.874 203.487 380.874 204.698C380.874 206.13 379.527 207.143 377.614 207.143C375.819 207.143 374.567 206.162 374.425 204.706H375.795C375.945 205.56 376.591 206.02 377.701 206.02C378.811 206.02 379.496 205.545 379.496 204.801C379.496 204.215 379.157 203.898 378.236 203.653L376.795 203.281C375.354 202.909 374.646 202.165 374.646 201.041ZM4.09067 225.425C5.38205 225.425 6.37421 224.515 6.37421 223.327V222.654L4.18516 222.789C3.08276 222.86 2.45283 223.351 2.45283 224.127C2.45283 224.91 3.10639 225.425 4.09067 225.425ZM3.78358 226.596C2.1536 226.596 1.05908 225.607 1.05908 224.127C1.05908 222.718 2.13786 221.831 4.02768 221.721L6.37421 221.586V220.897C6.37421 219.892 5.71277 219.291 4.57887 219.291C3.52373 219.291 2.86229 219.789 2.68905 220.597H1.36618C1.46067 219.172 2.6733 218.08 4.61038 218.08C6.53169 218.08 7.74433 219.125 7.74433 220.763V226.454H6.44508V225.037H6.41358C5.92538 225.979 4.88597 226.596 3.78358 226.596ZM9.48456 226.454V218.222H10.7759V219.536H10.8074C11.2641 218.65 12.1382 218.08 13.406 218.08C15.2012 218.08 16.2407 219.243 16.2407 221.111V226.454H14.8706V221.357C14.8706 220.027 14.2485 219.298 12.9886 219.298C11.6972 219.298 10.8547 220.216 10.8547 221.61V226.454H9.48456ZM21.0912 226.596C19.0045 226.596 17.5871 224.918 17.5871 222.338C17.5871 219.758 18.9967 218.08 21.0597 218.08C22.2329 218.08 23.1779 218.657 23.6661 219.56H23.6976V215.032H25.0677V226.454H23.7606V225.061H23.737C23.2094 226.011 22.2724 226.596 21.0912 226.596ZM21.3511 219.291C19.9022 219.291 18.9888 220.478 18.9888 222.338C18.9888 224.206 19.9022 225.385 21.3511 225.385C22.7605 225.385 23.7055 224.182 23.7055 222.338C23.7055 220.502 22.7605 219.291 21.3511 219.291ZM30.2962 226.454V215.032H31.6663V219.536H31.6978C32.1545 218.618 33.0522 218.08 34.2964 218.08C36.0916 218.08 37.1783 219.298 37.1783 221.135V226.454H35.8082V221.388C35.8082 220.082 35.1546 219.298 33.8711 219.298C32.5089 219.298 31.6663 220.233 31.6663 221.657V226.454H30.2962ZM41.6194 225.425C42.9108 225.425 43.9029 224.515 43.9029 223.327V222.654L41.7139 222.789C40.6115 222.86 39.9815 223.351 39.9815 224.127C39.9815 224.91 40.6351 225.425 41.6194 225.425ZM41.3123 226.596C39.6824 226.596 38.5878 225.607 38.5878 224.127C38.5878 222.718 39.6666 221.831 41.5564 221.721L43.9029 221.586V220.897C43.9029 219.892 43.2415 219.291 42.1076 219.291C41.0525 219.291 40.391 219.789 40.2178 220.597H38.8949C38.9894 219.172 40.202 218.08 42.1391 218.08C44.0604 218.08 45.273 219.125 45.273 220.763V226.454H43.9738V225.037H43.9423C43.4541 225.979 42.4147 226.596 41.3123 226.596ZM53.73 218.222L50.7221 226.454H49.3204L46.3045 218.222H47.7456L50.0055 224.99H50.0369L52.3047 218.222H53.73ZM57.8561 219.275C56.5726 219.275 55.6749 220.264 55.5883 221.633H60.0373C60.0058 220.256 59.1475 219.275 57.8561 219.275ZM60.0058 224.095H61.3523C61.1161 225.536 59.7302 226.596 57.9427 226.596C55.5962 226.596 54.171 224.958 54.171 222.37C54.171 219.813 55.6199 218.08 57.8797 218.08C60.0924 218.08 61.4547 219.694 61.4547 222.188V222.71H55.5804V222.789C55.5804 224.364 56.5017 225.401 57.9742 225.401C59.0137 225.401 59.7774 224.87 60.0058 224.095ZM68.8486 225.425C70.14 225.425 71.1322 224.515 71.1322 223.327V222.654L68.9431 222.789C67.8407 222.86 67.2108 223.351 67.2108 224.127C67.2108 224.91 67.8643 225.425 68.8486 225.425ZM68.5415 226.596C66.9115 226.596 65.817 225.607 65.817 224.127C65.817 222.718 66.8958 221.831 68.7856 221.721L71.1322 221.586V220.897C71.1322 219.892 70.4706 219.291 69.3368 219.291C68.2816 219.291 67.6202 219.789 67.4469 220.597H66.1241C66.2186 219.172 67.4312 218.08 69.3683 218.08C71.2896 218.08 72.5023 219.125 72.5023 220.763V226.454H71.2029V225.037H71.1715C70.6833 225.979 69.6439 226.596 68.5415 226.596ZM74.2425 226.454V218.222H75.5338V219.568H75.5653C75.833 218.657 76.589 218.08 77.5496 218.08C77.7859 218.08 77.9906 218.119 78.1008 218.135V219.472C77.9906 219.433 77.6993 219.394 77.3685 219.394C76.3055 219.394 75.6126 220.161 75.6126 221.324V226.454H74.2425ZM83.2902 226.596C82.0928 226.596 81.1558 226.011 80.6285 225.061H80.5969V226.454H79.2898V215.032H80.66V219.6H80.6915C81.2034 218.657 82.1565 218.08 83.3135 218.08C85.3769 218.08 86.7702 219.758 86.7702 222.338C86.7702 224.926 85.3842 226.596 83.2902 226.596ZM83.0225 219.291C81.6364 219.291 80.6521 220.51 80.6521 222.338C80.6521 224.174 81.6364 225.385 83.0225 225.385C84.4714 225.385 85.3689 224.222 85.3689 222.338C85.3689 220.47 84.4714 219.291 83.0225 219.291ZM88.2353 226.454V218.222H89.6053V226.454H88.2353ZM88.9199 216.836C88.4555 216.836 88.07 216.449 88.07 215.982C88.07 215.507 88.4555 215.127 88.9199 215.127C89.3924 215.127 89.7786 215.507 89.7786 215.982C89.7786 216.449 89.3924 216.836 88.9199 216.836ZM91.8969 216.235H93.2668V218.222H94.8569V219.354H93.2668V224.246C93.2668 224.998 93.5813 225.338 94.2828 225.338C94.44 225.338 94.7553 225.314 94.8496 225.298V226.454C94.6843 226.493 94.3062 226.517 93.9836 226.517C92.479 226.517 91.8969 225.9 91.8969 224.317V219.354H90.6761V218.222H91.8969V216.235ZM96.322 226.454V218.222H97.6129V219.568H97.6451C97.9128 218.657 98.6684 218.08 99.6287 218.08C99.865 218.08 100.07 218.119 100.18 218.135V219.472C100.07 219.433 99.7787 219.394 99.4481 219.394C98.3845 219.394 97.6919 220.161 97.6919 221.324V226.454H96.322ZM103.842 225.425C105.133 225.425 106.125 224.515 106.125 223.327V222.654L103.936 222.789C102.834 222.86 102.204 223.351 102.204 224.127C102.204 224.91 102.857 225.425 103.842 225.425ZM103.535 226.596C101.905 226.596 100.81 225.607 100.81 224.127C100.81 222.718 101.889 221.831 103.779 221.721L106.125 221.586V220.897C106.125 219.892 105.464 219.291 104.33 219.291C103.275 219.291 102.614 219.789 102.44 220.597H101.117C101.212 219.172 102.424 218.08 104.362 218.08C106.282 218.08 107.495 219.125 107.495 220.763V226.454H106.196V225.037H106.165C105.676 225.979 104.637 226.596 103.535 226.596ZM112.566 225.306C113.992 225.306 114.945 224.119 114.945 222.306C114.945 220.494 113.992 219.291 112.566 219.291C111.157 219.291 110.236 220.462 110.236 222.306C110.236 224.151 111.157 225.306 112.566 225.306ZM112.614 229.557C110.811 229.557 109.385 228.536 109.157 227.134H110.566C110.834 227.886 111.645 228.385 112.669 228.385C114.086 228.385 114.945 227.562 114.945 226.335V225.037H114.913C114.409 225.931 113.44 226.517 112.291 226.517C110.204 226.517 108.834 224.863 108.834 222.306C108.834 219.726 110.204 218.08 112.323 218.08C113.48 218.08 114.441 218.65 114.984 219.607H115.008V218.222H116.315V226.288C116.315 228.25 114.874 229.557 112.614 229.557ZM121.386 219.275C120.102 219.275 119.205 220.264 119.118 221.633H123.567C123.535 220.256 122.677 219.275 121.386 219.275ZM123.535 224.095H124.882C124.646 225.536 123.26 226.596 121.472 226.596C119.126 226.596 117.701 224.958 117.701 222.37C117.701 219.813 119.149 218.08 121.409 218.08C123.622 218.08 124.984 219.694 124.984 222.188V222.71H119.11V222.789C119.11 224.364 120.031 225.401 121.503 225.401C122.543 225.401 123.307 224.87 123.535 224.095ZM133.071 226.596C130.804 226.596 129.276 224.958 129.276 222.338C129.276 219.71 130.804 218.08 133.071 218.08C135.331 218.08 136.858 219.71 136.858 222.338C136.858 224.958 135.331 226.596 133.071 226.596ZM133.071 225.385C134.52 225.385 135.465 224.277 135.465 222.338C135.465 220.399 134.52 219.291 133.071 219.291C131.622 219.291 130.67 220.399 130.67 222.338C130.67 224.277 131.622 225.385 133.071 225.385ZM142.221 218.08C144.308 218.08 145.725 219.758 145.725 222.338C145.725 224.918 144.315 226.596 142.253 226.596C141.079 226.596 140.134 226.018 139.646 225.116H139.614V229.2H138.244V218.222H139.543V219.615H139.575C140.079 218.689 141.032 218.08 142.221 218.08ZM141.953 225.385C143.41 225.385 144.323 224.206 144.323 222.338C144.323 220.478 143.41 219.291 141.953 219.291C140.551 219.291 139.607 220.51 139.607 222.338C139.607 224.174 140.551 225.385 141.953 225.385ZM150.394 219.275C149.111 219.275 148.213 220.264 148.127 221.633H152.576C152.544 220.256 151.686 219.275 150.394 219.275ZM152.544 224.095H153.89C153.654 225.536 152.269 226.596 150.481 226.596C148.135 226.596 146.709 224.958 146.709 222.37C146.709 219.813 148.158 218.08 150.418 218.08C152.631 218.08 153.993 219.694 153.993 222.188V222.71H148.119V222.789C148.119 224.364 149.04 225.401 150.513 225.401C151.552 225.401 152.316 224.87 152.544 224.095ZM155.379 226.454V218.222H156.671V219.568H156.702C156.97 218.657 157.725 218.08 158.686 218.08C158.923 218.08 159.127 218.119 159.237 218.135V219.472C159.127 219.433 158.835 219.394 158.505 219.394C157.442 219.394 156.749 220.161 156.749 221.324V226.454H155.379ZM162.899 225.425C164.19 225.425 165.182 224.515 165.182 223.327V222.654L162.993 222.789C161.891 222.86 161.261 223.351 161.261 224.127C161.261 224.91 161.915 225.425 162.899 225.425ZM162.591 226.596C160.962 226.596 159.867 225.607 159.867 224.127C159.867 222.718 160.946 221.831 162.836 221.721L165.182 221.586V220.897C165.182 219.892 164.521 219.291 163.387 219.291C162.332 219.291 161.671 219.789 161.497 220.597H160.174C160.269 219.172 161.481 218.08 163.419 218.08C165.34 218.08 166.553 219.125 166.553 220.763V226.454H165.253V225.037H165.222C164.734 225.979 163.694 226.596 162.591 226.596ZM168.734 216.235H170.104V218.222H171.694V219.354H170.104V224.246C170.104 224.998 170.418 225.338 171.12 225.338C171.277 225.338 171.592 225.314 171.687 225.298V226.454C171.521 226.493 171.143 226.517 170.82 226.517C169.316 226.517 168.734 225.9 168.734 224.317V219.354H167.513V218.222H168.734V216.235ZM173.23 226.454V218.222H174.6V226.454H173.23ZM173.915 216.836C173.45 216.836 173.065 216.449 173.065 215.982C173.065 215.507 173.45 215.127 173.915 215.127C174.387 215.127 174.773 215.507 174.773 215.982C174.773 216.449 174.387 216.836 173.915 216.836ZM179.844 226.596C177.576 226.596 176.049 224.958 176.049 222.338C176.049 219.71 177.576 218.08 179.844 218.08C182.104 218.08 183.632 219.71 183.632 222.338C183.632 224.958 182.104 226.596 179.844 226.596ZM179.844 225.385C181.293 225.385 182.238 224.277 182.238 222.338C182.238 220.399 181.293 219.291 179.844 219.291C178.395 219.291 177.442 220.399 177.442 222.338C177.442 224.277 178.395 225.385 179.844 225.385ZM185.018 226.454V218.222H186.309V219.536H186.341C186.797 218.65 187.671 218.08 188.939 218.08C190.734 218.08 191.774 219.243 191.774 221.111V226.454H190.404V221.357C190.404 220.027 189.781 219.298 188.522 219.298C187.23 219.298 186.388 220.216 186.388 221.61V226.454H185.018ZM193.38 220.494C193.38 219.085 194.632 218.08 196.435 218.08C198.128 218.08 199.373 219.093 199.436 220.485H198.128C198.033 219.694 197.396 219.203 196.388 219.203C195.388 219.203 194.727 219.703 194.727 220.422C194.727 220.992 195.16 221.372 196.088 221.61L197.357 221.918C199.01 222.338 199.609 222.94 199.609 224.151C199.609 225.583 198.262 226.596 196.349 226.596C194.553 226.596 193.301 225.614 193.16 224.159H194.53C194.679 225.013 195.325 225.473 196.435 225.473C197.545 225.473 198.231 224.998 198.231 224.254C198.231 223.668 197.892 223.351 196.971 223.106L195.53 222.734C194.089 222.362 193.38 221.618 193.38 220.494Z" fill="white" fill-opacity="0.3"/>
</g>
<defs>
<clipPath id="clip0_32171_14287">
<rect width="408" height="231" fill="white" transform="translate(0.5)"/>
</clipPath>
</defs>
</svg>
