<svg width="408" height="189" viewBox="0 0 408 189" fill="none" xmlns="http://www.w3.org/2000/svg">
<path d="M20.3246 22.5909V20.7312H15.8496V19.7207C16.6088 18.3074 17.652 16.6771 19.7567 13.6459H21.3985V19.7518H22.6577V20.7312H21.3985V22.5909H20.3246ZM16.9483 19.727V19.7518H20.3246V14.5757H20.306C18.621 16.9933 17.652 18.4872 16.9483 19.727ZM26.861 22.7396C24.7809 22.7396 23.5773 20.9419 23.5773 18.1153C23.5773 15.3134 24.7933 13.4971 26.861 13.4971C28.9287 13.4971 30.1323 15.301 30.1323 18.1091C30.1323 20.9357 28.9349 22.7396 26.861 22.7396ZM26.861 21.7664C28.2498 21.7664 29.0151 20.3469 29.0151 18.1153C29.0151 15.9147 28.2374 14.4765 26.861 14.4765C25.4846 14.4765 24.6945 15.927 24.6945 18.1091C24.6945 20.3407 25.466 21.7664 26.861 21.7664ZM37.3292 15.7597C37.3292 17.111 36.5885 17.9851 35.459 17.9851C34.3295 17.9851 33.5888 17.111 33.5888 15.7597C33.5888 14.4083 34.3295 13.5343 35.459 13.5343C36.5885 13.5343 37.3292 14.4083 37.3292 15.7597ZM35.459 17.2288C36.0022 17.2288 36.3416 16.6709 36.3416 15.7597C36.3416 14.8485 36.0022 14.2906 35.459 14.2906C34.9158 14.2906 34.5763 14.8485 34.5763 15.7597C34.5763 16.6709 34.9158 17.2288 35.459 17.2288ZM35.1874 22.5909H34.1134L37.5514 17.8735L40.6314 13.6459H41.693L38.3476 18.2455L35.1874 22.5909ZM42.2238 20.4584C42.2238 21.8098 41.4831 22.6838 40.3536 22.6838C39.2241 22.6838 38.4834 21.8098 38.4834 20.4584C38.4834 19.1071 39.2241 18.233 40.3536 18.233C41.4831 18.233 42.2238 19.1071 42.2238 20.4584ZM40.3536 21.9276C40.8968 21.9276 41.2363 21.3697 41.2363 20.4584C41.2363 19.5472 40.8968 18.9893 40.3536 18.9893C39.8104 18.9893 39.471 19.5472 39.471 20.4584C39.471 21.3697 39.8104 21.9276 40.3536 21.9276Z" fill="white" fill-opacity="0.3"/>
<path d="M48.2163 18.1064H392.787" stroke="#0B0528" stroke-width="1.06154" stroke-linecap="round"/>
<path d="M54.6857 184.949H53.5747V176.004H58.9816V177.008H54.6857V180.083H58.6298V181.075H54.6857V184.949ZM62.4134 179.327C61.4074 179.327 60.7037 180.102 60.6358 181.174H64.1232C64.0985 180.095 63.4257 179.327 62.4134 179.327ZM64.0985 183.102H65.1537C64.9687 184.23 63.8824 185.061 62.4813 185.061C60.642 185.061 59.5248 183.777 59.5248 181.75C59.5248 179.748 60.6605 178.391 62.4319 178.391C64.1663 178.391 65.2341 179.655 65.2341 181.608V182.017H60.6297V182.079C60.6297 183.312 61.3518 184.125 62.506 184.125C63.3208 184.125 63.9195 183.71 64.0985 183.102ZM69.5114 185.061C68.5737 185.061 67.8388 184.602 67.4254 183.858H67.4005V184.949H66.376V176.004H67.4503V179.581H67.4745C67.8758 178.843 68.6228 178.391 69.5299 178.391C71.1471 178.391 72.2399 179.705 72.2399 181.726C72.2399 183.752 71.1535 185.061 69.5114 185.061ZM69.3016 179.339C68.2152 179.339 67.4439 180.293 67.4439 181.726C67.4439 183.164 68.2152 184.113 69.3016 184.113C70.4377 184.113 71.1414 183.201 71.1414 181.726C71.1414 180.263 70.4377 179.339 69.3016 179.339ZM75.8939 178.583C75.8939 177.021 77.1526 175.855 78.8316 175.855C80.4239 175.855 81.6774 176.94 81.6774 178.31C81.6774 179.308 81.2264 180.052 79.7387 181.595L77.4862 183.932V183.957H81.8254V184.949H75.9494V184.18L79.0849 180.864C80.2823 179.6 80.5661 179.122 80.5661 178.378C80.5661 177.517 79.7821 176.829 78.801 176.829C77.758 176.829 76.9676 177.585 76.9676 178.583V178.589H75.8939V178.583ZM86.2259 185.098C84.1462 185.098 82.9424 183.3 82.9424 180.473C82.9424 177.672 84.1583 175.855 86.2259 175.855C88.294 175.855 89.4972 177.659 89.4972 180.467C89.4972 183.294 88.2998 185.098 86.2259 185.098ZM86.2259 184.125C87.6146 184.125 88.3802 182.705 88.3802 180.473C88.3802 178.273 87.6025 176.835 86.2259 176.835C84.8498 176.835 84.0595 178.286 84.0595 180.467C84.0595 182.699 84.8314 184.125 86.2259 184.125ZM90.5963 178.583C90.5963 177.021 91.855 175.855 93.534 175.855C95.1263 175.855 96.3798 176.94 96.3798 178.31C96.3798 179.308 95.9288 180.052 94.4411 181.595L92.1886 183.932V183.957H96.5278V184.949H90.6518V184.18L93.7873 180.864C94.9847 179.6 95.2685 179.122 95.2685 178.378C95.2685 177.517 94.4845 176.829 93.5034 176.829C92.4604 176.829 91.67 177.585 91.67 178.583V178.589H90.5963V178.583ZM101.737 184.949V183.089H97.2621V182.079C98.0212 180.666 99.0642 179.035 101.169 176.004H102.811V182.11H104.07V183.089H102.811V184.949H101.737ZM98.3606 182.085V182.11H101.737V176.934H101.719C100.033 179.352 99.0642 180.846 98.3606 182.085Z" fill="white"/>
<path d="M345.753 184.949H344.716V178.056H344.673L341.834 184.887H340.896L338.056 178.056H338.013V184.949H336.976V176.004H338.266L341.34 183.467H341.389L344.463 176.004H345.753V184.949ZM349.247 184.143C350.259 184.143 351.037 183.43 351.037 182.501V181.974L349.321 182.079C348.456 182.135 347.963 182.519 347.963 183.127C347.963 183.74 348.475 184.143 349.247 184.143ZM349.006 185.061C347.728 185.061 346.87 184.286 346.87 183.127C346.87 182.023 347.716 181.329 349.197 181.242L351.037 181.137V180.598C351.037 179.81 350.518 179.339 349.629 179.339C348.802 179.339 348.284 179.73 348.148 180.362H347.111C347.185 179.246 348.135 178.391 349.654 178.391C351.16 178.391 352.11 179.209 352.11 180.492V184.949H351.092V183.84H351.067C350.685 184.577 349.87 185.061 349.006 185.061ZM354.006 187.361C353.876 187.361 353.66 187.348 353.543 187.323V186.418C353.66 186.443 353.826 186.449 353.962 186.449C354.561 186.449 354.894 186.158 355.141 185.408L355.289 184.955L352.919 178.502H354.067L355.845 183.87H355.863L357.641 178.502H358.77L356.246 185.402C355.697 186.908 355.166 187.361 354.006 187.361ZM362.184 178.583C362.184 177.021 363.443 175.855 365.122 175.855C366.715 175.855 367.967 176.94 367.967 178.31C367.967 179.308 367.516 180.052 366.029 181.595L363.776 183.932V183.957H368.115V184.949H362.239V184.18L365.375 180.864C366.572 179.6 366.856 179.122 366.856 178.378C366.856 177.517 366.072 176.829 365.091 176.829C364.048 176.829 363.258 177.585 363.258 178.583V178.589H362.184V178.583ZM372.516 185.098C370.436 185.098 369.232 183.3 369.232 180.473C369.232 177.672 370.448 175.855 372.516 175.855C374.584 175.855 375.787 177.659 375.787 180.467C375.787 183.294 374.59 185.098 372.516 185.098ZM372.516 184.125C373.905 184.125 374.67 182.705 374.67 180.473C374.67 178.273 373.893 176.835 372.516 176.835C371.14 176.835 370.349 178.286 370.349 180.467C370.349 182.699 371.121 184.125 372.516 184.125ZM376.886 178.583C376.886 177.021 378.145 175.855 379.824 175.855C381.416 175.855 382.67 176.94 382.67 178.31C382.67 179.308 382.219 180.052 380.732 181.595L378.479 183.932V183.957H382.818V184.949H376.942V184.18L380.077 180.864C381.275 179.6 381.559 179.122 381.559 178.378C381.559 177.517 380.775 176.829 379.793 176.829C378.75 176.829 377.96 177.585 377.96 178.583V178.589H376.886V178.583ZM387.163 185.098C385.459 185.098 384.2 184.032 384.108 182.507H385.2C385.299 183.462 386.108 184.118 387.176 184.118C388.385 184.118 389.225 183.275 389.225 182.073C389.225 180.87 388.379 180.008 387.194 180.008C386.361 180.008 385.651 180.387 385.287 181.013H384.244L384.731 176.004H389.829V176.996H385.644L385.373 179.91H385.398C385.799 179.37 386.54 179.048 387.391 179.048C389.101 179.048 390.336 180.306 390.336 182.042C390.336 183.84 389.021 185.098 387.163 185.098Z" fill="white"/>
<path d="M53.29 36.4894C53.29 36.3642 53.3911 36.2627 53.5157 36.2627C53.6404 36.2627 53.7414 36.3642 53.7414 36.4894V166.843H53.29V36.4894Z" fill="url(#paint0_linear_32171_14097)" fill-opacity="0.8"/>
<path d="M55.6191 36.4894C55.6191 36.3642 55.7202 36.2627 55.8449 36.2627C55.9696 36.2627 56.0706 36.3642 56.0706 36.4894V166.843H55.6191V36.4894Z" fill="url(#paint1_linear_32171_14097)" fill-opacity="0.8"/>
<path d="M57.9482 36.716C57.9482 36.4657 58.1504 36.2627 58.3997 36.2627C58.6491 36.2627 58.8512 36.4657 58.8512 36.716V166.843H57.9482V36.716Z" fill="url(#paint2_linear_32171_14097)" fill-opacity="0.8"/>
<path d="M60.729 30.1418C60.729 30.0166 60.8301 29.915 60.9547 29.915C61.0794 29.915 61.1805 30.0166 61.1805 30.1418V166.843H60.729V30.1418Z" fill="url(#paint3_linear_32171_14097)" fill-opacity="0.8"/>
<path d="M63.0586 26.9679C63.0586 26.8428 63.1596 26.7412 63.2843 26.7412C63.4089 26.7412 63.51 26.8427 63.51 26.9679V166.842H63.0586V26.9679Z" fill="url(#paint4_linear_32171_14097)" fill-opacity="0.8"/>
<path d="M65.3872 78.8823C65.3872 78.6318 65.5894 78.4287 65.8389 78.4287C66.0877 78.4287 66.2899 78.6318 66.2899 78.8823V166.842H65.3872V78.8823Z" fill="url(#paint5_linear_32171_14097)" fill-opacity="0.8"/>
<path d="M68.1675 79.5627C68.1675 79.4372 68.2689 79.3359 68.3933 79.3359C68.5183 79.3359 68.6191 79.4372 68.6191 79.5627V166.842H68.1675V79.5627Z" fill="url(#paint6_linear_32171_14097)" fill-opacity="0.8"/>
<path d="M70.4971 92.2581C70.4971 92.1325 70.5979 92.0312 70.7223 92.0312C70.8473 92.0312 70.9481 92.1325 70.9481 92.2581V166.843H70.4971V92.2581Z" fill="url(#paint7_linear_32171_14097)" fill-opacity="0.8"/>
<path d="M72.8262 105.633C72.8262 105.383 73.0284 105.18 73.2778 105.18C73.5273 105.18 73.7288 105.383 73.7288 105.633V166.842H72.8262V105.633Z" fill="url(#paint8_linear_32171_14097)" fill-opacity="0.8"/>
<path d="M75.606 105.406C75.606 105.282 75.7074 105.18 75.8318 105.18C75.9568 105.18 76.0576 105.282 76.0576 105.406V166.842H75.606V105.406Z" fill="url(#paint9_linear_32171_14097)" fill-opacity="0.8"/>
<path d="M77.936 118.101C77.936 117.976 78.0368 117.875 78.1619 117.875C78.2863 117.875 78.3871 117.976 78.3871 118.101V166.842H77.936V118.101Z" fill="url(#paint10_linear_32171_14097)" fill-opacity="0.8"/>
<path d="M80.2642 44.4231C80.2642 44.1728 80.4664 43.9697 80.7158 43.9697C80.9652 43.9697 81.1675 44.1728 81.1675 44.4231V166.842H80.2642V44.4231Z" fill="url(#paint11_linear_32171_14097)" fill-opacity="0.8"/>
<path d="M83.0459 92.2581C83.0459 92.1325 83.1467 92.0312 83.2711 92.0312C83.3961 92.0312 83.4969 92.1325 83.4969 92.2581V166.843H83.0459V92.2581Z" fill="url(#paint12_linear_32171_14097)" fill-opacity="0.8"/>
<path d="M85.375 52.8117C85.375 52.6864 85.4758 52.585 85.6008 52.585C85.7252 52.585 85.8267 52.6864 85.8267 52.8117V166.842H85.375V52.8117Z" fill="url(#paint13_linear_32171_14097)" fill-opacity="0.8"/>
<path d="M87.7031 105.633C87.7031 105.383 87.9053 105.18 88.1548 105.18C88.4042 105.18 88.6064 105.383 88.6064 105.633V166.842H87.7031V105.633Z" fill="url(#paint14_linear_32171_14097)" fill-opacity="0.8"/>
<path d="M90.4849 118.101C90.4849 117.976 90.5857 117.875 90.7101 117.875C90.8351 117.875 90.9359 117.976 90.9359 118.101V166.842H90.4849V118.101Z" fill="url(#paint15_linear_32171_14097)" fill-opacity="0.8"/>
<path d="M92.813 118.328C92.813 118.077 93.0152 117.875 93.2646 117.875C93.5141 117.875 93.7157 118.077 93.7157 118.328V166.842H92.813V118.328Z" fill="url(#paint16_linear_32171_14097)" fill-opacity="0.8"/>
<path d="M95.5938 49.8645C95.5938 49.6142 95.796 49.4111 96.0454 49.4111C96.2948 49.4111 96.4971 49.6142 96.4971 49.8645V166.842H95.5938V49.8645Z" fill="url(#paint17_linear_32171_14097)" fill-opacity="0.8"/>
<path d="M98.3745 105.406C98.3745 105.282 98.4753 105.18 98.6003 105.18C98.7247 105.18 98.8255 105.282 98.8255 105.406V166.842H98.3745V105.406Z" fill="url(#paint18_linear_32171_14097)" fill-opacity="0.8"/>
<path d="M100.704 118.328C100.704 118.077 100.906 117.875 101.155 117.875C101.405 117.875 101.607 118.077 101.607 118.328V166.842H100.704V118.328Z" fill="url(#paint19_linear_32171_14097)" fill-opacity="0.8"/>
<path d="M103.484 118.328C103.484 118.077 103.686 117.875 103.935 117.875C104.185 117.875 104.387 118.077 104.387 118.328V166.842H103.484V118.328Z" fill="url(#paint20_linear_32171_14097)" fill-opacity="0.8"/>
<path d="M106.265 69.134C106.265 69.0085 106.365 68.9072 106.49 68.9072C106.615 68.9072 106.716 69.0085 106.716 69.134V166.842H106.265V69.134Z" fill="url(#paint21_linear_32171_14097)" fill-opacity="0.8"/>
<path d="M108.594 105.633C108.594 105.383 108.796 105.18 109.045 105.18C109.295 105.18 109.497 105.383 109.497 105.633V166.842H108.594V105.633Z" fill="url(#paint22_linear_32171_14097)" fill-opacity="0.8"/>
<path d="M111.375 49.8645C111.375 49.6142 111.577 49.4111 111.826 49.4111C112.075 49.4111 112.277 49.6142 112.277 49.8645V166.842H111.375V49.8645Z" fill="url(#paint23_linear_32171_14097)" fill-opacity="0.8"/>
<path d="M114.155 105.406C114.155 105.282 114.257 105.18 114.381 105.18C114.506 105.18 114.607 105.282 114.607 105.406V166.842H114.155V105.406Z" fill="url(#paint24_linear_32171_14097)" fill-opacity="0.8"/>
<path d="M116.483 47.1438C116.483 46.8934 116.686 46.6904 116.935 46.6904C117.184 46.6904 117.387 46.8934 117.387 47.1438V166.842H116.483V47.1438Z" fill="url(#paint25_linear_32171_14097)" fill-opacity="0.8"/>
<path d="M119.265 105.633C119.265 105.383 119.467 105.18 119.716 105.18C119.965 105.18 120.167 105.383 120.167 105.633V166.842H119.265V105.633Z" fill="url(#paint26_linear_32171_14097)" fill-opacity="0.8"/>
<path d="M122.045 105.406C122.045 105.282 122.146 105.18 122.271 105.18C122.396 105.18 122.497 105.282 122.497 105.406V166.842H122.045V105.406Z" fill="url(#paint27_linear_32171_14097)" fill-opacity="0.8"/>
<path d="M124.375 51.2249C124.375 50.9744 124.576 50.7715 124.826 50.7715C125.075 50.7715 125.277 50.9744 125.277 51.2249V166.842H124.375V51.2249Z" fill="url(#paint28_linear_32171_14097)" fill-opacity="0.8"/>
<path d="M127.155 118.328C127.155 118.077 127.357 117.875 127.606 117.875C127.856 117.875 128.057 118.077 128.057 118.328V166.842H127.155V118.328Z" fill="url(#paint29_linear_32171_14097)" fill-opacity="0.8"/>
<path d="M129.935 6.56461C129.935 6.43942 130.036 6.33789 130.161 6.33789C130.286 6.33789 130.387 6.43942 130.387 6.56461V166.842H129.935V6.56461Z" fill="url(#paint30_linear_32171_14097)" fill-opacity="0.8"/>
<path d="M132.265 6.79128C132.265 6.5409 132.467 6.33789 132.716 6.33789C132.965 6.33789 133.167 6.5409 133.167 6.79128V166.842H132.265V6.79128Z" fill="url(#paint31_linear_32171_14097)" fill-opacity="0.8"/>
<path d="M135.045 118.101C135.045 117.976 135.146 117.875 135.271 117.875C135.395 117.875 135.497 117.976 135.497 118.101V166.842H135.045V118.101Z" fill="url(#paint32_linear_32171_14097)" fill-opacity="0.8"/>
<path d="M137.375 68.6809C137.375 68.556 137.475 68.4541 137.6 68.4541C137.725 68.4541 137.826 68.556 137.826 68.6809V166.842H137.375V68.6809Z" fill="url(#paint33_linear_32171_14097)" fill-opacity="0.8"/>
<path d="M139.704 35.8089C139.704 35.5584 139.906 35.3555 140.155 35.3555C140.404 35.3555 140.606 35.5584 140.606 35.8089V166.842H139.704V35.8089Z" fill="url(#paint34_linear_32171_14097)" fill-opacity="0.8"/>
<path d="M142.484 118.101C142.484 117.976 142.585 117.875 142.71 117.875C142.835 117.875 142.936 117.976 142.936 118.101V166.842H142.484V118.101Z" fill="url(#paint35_linear_32171_14097)" fill-opacity="0.8"/>
<path d="M144.813 66.4137C144.813 66.2887 144.914 66.1875 145.039 66.1875C145.164 66.1875 145.264 66.2887 145.264 66.4137V166.843H144.813V66.4137Z" fill="url(#paint36_linear_32171_14097)" fill-opacity="0.8"/>
<path d="M147.143 105.633C147.143 105.383 147.345 105.18 147.594 105.18C147.844 105.18 148.045 105.383 148.045 105.633V166.842H147.143V105.633Z" fill="url(#paint37_linear_32171_14097)" fill-opacity="0.8"/>
<path d="M149.922 36.4894C149.922 36.3642 150.024 36.2627 150.148 36.2627C150.273 36.2627 150.374 36.3642 150.374 36.4894V166.843H149.922V36.4894Z" fill="url(#paint38_linear_32171_14097)" fill-opacity="0.8"/>
<path d="M152.251 105.86C152.251 105.734 152.352 105.633 152.477 105.633C152.602 105.633 152.703 105.734 152.703 105.86V166.842H152.251V105.86Z" fill="url(#paint39_linear_32171_14097)" fill-opacity="0.8"/>
<path d="M154.581 106.086C154.581 105.836 154.783 105.633 155.032 105.633C155.282 105.633 155.484 105.836 155.484 106.086V166.842H154.581V106.086Z" fill="url(#paint40_linear_32171_14097)" fill-opacity="0.8"/>
<path d="M157.361 73.6676C157.361 73.5426 157.462 73.4414 157.587 73.4414C157.712 73.4414 157.812 73.5426 157.812 73.6676V166.842H157.361V73.6676Z" fill="url(#paint41_linear_32171_14097)" fill-opacity="0.8"/>
<path d="M159.69 94.0715C159.69 93.9459 159.791 93.8447 159.916 93.8447C160.041 93.8447 160.142 93.9459 160.142 94.0715V166.842H159.69V94.0715Z" fill="url(#paint42_linear_32171_14097)" fill-opacity="0.8"/>
<path d="M162.02 88.4038C162.02 88.1533 162.222 87.9502 162.471 87.9502C162.721 87.9502 162.923 88.1533 162.923 88.4038V166.842H162.02V88.4038Z" fill="url(#paint43_linear_32171_14097)" fill-opacity="0.8"/>
<path d="M164.8 55.9855C164.8 55.8603 164.901 55.7588 165.026 55.7588C165.151 55.7588 165.251 55.8603 165.251 55.9855V166.842H164.8V55.9855Z" fill="url(#paint44_linear_32171_14097)" fill-opacity="0.8"/>
<path d="M167.129 40.7962C167.129 40.5458 167.332 40.3428 167.581 40.3428C167.83 40.3428 168.033 40.5458 168.033 40.7962V166.842H167.129V40.7962Z" fill="url(#paint45_linear_32171_14097)" fill-opacity="0.8"/>
<path d="M169.91 18.5794C169.91 18.329 170.112 18.126 170.361 18.126C170.611 18.126 170.813 18.329 170.813 18.5794V166.842H169.91V18.5794Z" fill="url(#paint46_linear_32171_14097)" fill-opacity="0.8"/>
<path d="M172.69 118.101C172.69 117.976 172.791 117.875 172.916 117.875C173.041 117.875 173.142 117.976 173.142 118.101V166.842H172.69V118.101Z" fill="url(#paint47_linear_32171_14097)" fill-opacity="0.8"/>
<path d="M175.02 39.8899C175.02 39.6396 175.222 39.4365 175.471 39.4365C175.721 39.4365 175.923 39.6396 175.923 39.8899V166.843H175.02V39.8899Z" fill="url(#paint48_linear_32171_14097)" fill-opacity="0.8"/>
<path d="M177.801 6.79128C177.801 6.5409 178.003 6.33789 178.252 6.33789C178.501 6.33789 178.703 6.5409 178.703 6.79128V166.842H177.801V6.79128Z" fill="url(#paint49_linear_32171_14097)" fill-opacity="0.8"/>
<path d="M180.581 118.101C180.581 117.976 180.682 117.875 180.807 117.875C180.931 117.875 181.033 117.976 181.033 118.101V166.842H180.581V118.101Z" fill="url(#paint50_linear_32171_14097)" fill-opacity="0.8"/>
<path d="M182.909 19.4866C182.909 19.2362 183.111 19.0332 183.361 19.0332C183.61 19.0332 183.812 19.2362 183.812 19.4866V166.842H182.909V19.4866Z" fill="url(#paint51_linear_32171_14097)" fill-opacity="0.8"/>
<path d="M185.691 108.353C185.691 108.103 185.893 107.899 186.143 107.899C186.391 107.899 186.594 108.103 186.594 108.353V166.842H185.691V108.353Z" fill="url(#paint52_linear_32171_14097)" fill-opacity="0.8"/>
<path d="M188.471 118.101C188.471 117.976 188.572 117.875 188.697 117.875C188.821 117.875 188.922 117.976 188.922 118.101V166.842H188.471V118.101Z" fill="url(#paint53_linear_32171_14097)" fill-opacity="0.8"/>
<path d="M190.801 39.8899C190.801 39.6396 191.002 39.4365 191.252 39.4365C191.501 39.4365 191.703 39.6396 191.703 39.8899V166.843H190.801V39.8899Z" fill="url(#paint54_linear_32171_14097)" fill-opacity="0.8"/>
<path d="M193.581 83.4165C193.581 83.166 193.783 82.9629 194.032 82.9629C194.282 82.9629 194.483 83.166 194.483 83.4165V166.842H193.581V83.4165Z" fill="url(#paint55_linear_32171_14097)" fill-opacity="0.8"/>
<path d="M196.361 105.406C196.361 105.282 196.463 105.18 196.587 105.18C196.712 105.18 196.813 105.282 196.813 105.406V166.842H196.361V105.406Z" fill="url(#paint56_linear_32171_14097)" fill-opacity="0.8"/>
<path d="M198.69 118.328C198.69 118.077 198.893 117.875 199.141 117.875C199.391 117.875 199.593 118.077 199.593 118.328V166.842H198.69V118.328Z" fill="url(#paint57_linear_32171_14097)" fill-opacity="0.8"/>
<path d="M201.471 72.9878C201.471 72.7373 201.673 72.5342 201.923 72.5342C202.172 72.5342 202.374 72.7373 202.374 72.9878V166.842H201.471V72.9878Z" fill="url(#paint58_linear_32171_14097)" fill-opacity="0.8"/>
<path d="M204.252 114.021C204.252 113.896 204.353 113.794 204.477 113.794C204.602 113.794 204.703 113.896 204.703 114.021V166.842H204.252V114.021Z" fill="url(#paint59_linear_32171_14097)" fill-opacity="0.8"/>
<path d="M206.581 40.7962C206.581 40.5458 206.783 40.3428 207.033 40.3428C207.282 40.3428 207.484 40.5458 207.484 40.7962V166.842H206.581V40.7962Z" fill="url(#paint60_linear_32171_14097)" fill-opacity="0.8"/>
<path d="M209.361 118.101C209.361 117.976 209.463 117.875 209.587 117.875C209.712 117.875 209.813 117.976 209.813 118.101V166.842H209.361V118.101Z" fill="url(#paint61_linear_32171_14097)" fill-opacity="0.8"/>
<path d="M211.69 118.101C211.69 117.976 211.791 117.875 211.916 117.875C212.041 117.875 212.141 117.976 212.141 118.101V166.842H211.69V118.101Z" fill="url(#paint62_linear_32171_14097)" fill-opacity="0.8"/>
<path d="M214.02 72.9878C214.02 72.7373 214.222 72.5342 214.471 72.5342C214.721 72.5342 214.922 72.7373 214.922 72.9878V166.842H214.02V72.9878Z" fill="url(#paint63_linear_32171_14097)" fill-opacity="0.8"/>
<path d="M216.8 72.761C216.8 72.636 216.902 72.5342 217.026 72.5342C217.151 72.5342 217.252 72.636 217.252 72.761V166.842H216.8V72.761Z" fill="url(#paint64_linear_32171_14097)" fill-opacity="0.8"/>
<path d="M219.129 118.101C219.129 117.976 219.23 117.875 219.355 117.875C219.48 117.875 219.581 117.976 219.581 118.101V166.842H219.129V118.101Z" fill="url(#paint65_linear_32171_14097)" fill-opacity="0.8"/>
<path d="M221.458 118.328C221.458 118.077 221.661 117.875 221.91 117.875C222.16 117.875 222.362 118.077 222.362 118.328V166.842H221.458V118.328Z" fill="url(#paint66_linear_32171_14097)" fill-opacity="0.8"/>
<path d="M224.239 112.66C224.239 112.535 224.34 112.434 224.464 112.434C224.589 112.434 224.69 112.535 224.69 112.66V166.842H224.239V112.66Z" fill="url(#paint67_linear_32171_14097)" fill-opacity="0.8"/>
<path d="M226.568 40.5695C226.568 40.4443 226.669 40.3428 226.794 40.3428C226.918 40.3428 227.02 40.4443 227.02 40.5695V166.842H226.568V40.5695Z" fill="url(#paint68_linear_32171_14097)" fill-opacity="0.8"/>
<path d="M228.897 39.8899C228.897 39.6396 229.099 39.4365 229.349 39.4365C229.598 39.4365 229.8 39.6396 229.8 39.8899V166.843H228.897V39.8899Z" fill="url(#paint69_linear_32171_14097)" fill-opacity="0.8"/>
<path d="M231.678 118.101C231.678 117.976 231.779 117.875 231.904 117.875C232.028 117.875 232.129 117.976 232.129 118.101V166.842H231.678V118.101Z" fill="url(#paint70_linear_32171_14097)" fill-opacity="0.8"/>
<path d="M234.007 72.761C234.007 72.636 234.108 72.5342 234.233 72.5342C234.357 72.5342 234.458 72.636 234.458 72.761V166.842H234.007V72.761Z" fill="url(#paint71_linear_32171_14097)" fill-opacity="0.8"/>
<path d="M236.335 93.3914C236.335 93.1409 236.538 92.9385 236.787 92.9385C237.037 92.9385 237.239 93.1409 237.239 93.3914V166.843H236.335V93.3914Z" fill="url(#paint72_linear_32171_14097)" fill-opacity="0.8"/>
<path d="M239.117 88.177C239.117 88.0514 239.217 87.9502 239.343 87.9502C239.467 87.9502 239.568 88.0514 239.568 88.177V166.842H239.117V88.177Z" fill="url(#paint73_linear_32171_14097)" fill-opacity="0.8"/>
<path d="M241.446 56.2121C241.446 55.9618 241.648 55.7588 241.897 55.7588C242.147 55.7588 242.349 55.9618 242.349 56.2122V166.842H241.446V56.2121Z" fill="url(#paint74_linear_32171_14097)" fill-opacity="0.8"/>
<path d="M244.227 40.7962C244.227 40.5458 244.428 40.3428 244.678 40.3428C244.927 40.3428 245.129 40.5458 245.129 40.7962V166.842H244.227V40.7962Z" fill="url(#paint75_linear_32171_14097)" fill-opacity="0.8"/>
<path d="M247.007 50.091C247.007 49.9657 247.108 49.8643 247.233 49.8643C247.357 49.8643 247.458 49.9657 247.458 50.091V166.842H247.007V50.091Z" fill="url(#paint76_linear_32171_14097)" fill-opacity="0.8"/>
<path d="M249.336 96.5649C249.336 96.3144 249.538 96.1113 249.788 96.1113C250.037 96.1113 250.239 96.3144 250.239 96.5649V166.842H249.336V96.5649Z" fill="url(#paint77_linear_32171_14097)" fill-opacity="0.8"/>
<path d="M252.117 40.7962C252.117 40.5458 252.319 40.3428 252.568 40.3428C252.817 40.3428 253.019 40.5458 253.019 40.7962V166.842H252.117V40.7962Z" fill="url(#paint78_linear_32171_14097)" fill-opacity="0.8"/>
<path d="M254.897 118.101C254.897 117.976 254.999 117.875 255.123 117.875C255.248 117.875 255.349 117.976 255.349 118.101V166.842H254.897V118.101Z" fill="url(#paint79_linear_32171_14097)" fill-opacity="0.8"/>
<path d="M257.227 118.328C257.227 118.077 257.428 117.875 257.678 117.875C257.927 117.875 258.129 118.077 258.129 118.328V166.842H257.227V118.328Z" fill="url(#paint80_linear_32171_14097)" fill-opacity="0.8"/>
<path d="M260.007 38.9827C260.007 38.7323 260.21 38.5293 260.459 38.5293C260.708 38.5293 260.91 38.7323 260.91 38.9827V166.842H260.007V38.9827Z" fill="url(#paint81_linear_32171_14097)" fill-opacity="0.8"/>
<path d="M262.787 118.101C262.787 117.976 262.889 117.875 263.013 117.875C263.138 117.875 263.239 117.976 263.239 118.101V166.842H262.787V118.101Z" fill="url(#paint82_linear_32171_14097)" fill-opacity="0.8"/>
<path d="M265.117 118.328C265.117 118.077 265.319 117.875 265.568 117.875C265.818 117.875 266.02 118.077 266.02 118.328V166.842H265.117V118.328Z" fill="url(#paint83_linear_32171_14097)" fill-opacity="0.8"/>
<path d="M267.897 83.8696C267.897 83.6191 268.099 83.416 268.349 83.416C268.598 83.416 268.8 83.6191 268.8 83.8696V166.842H267.897V83.8696Z" fill="url(#paint84_linear_32171_14097)" fill-opacity="0.8"/>
<path d="M270.677 0.67007C270.677 0.544865 270.779 0.443359 270.903 0.443359C271.028 0.443359 271.129 0.544857 271.129 0.670057V166.842H270.677V0.67007Z" fill="url(#paint85_linear_32171_14097)" fill-opacity="0.8"/>
<path d="M273.007 109.26C273.007 109.01 273.209 108.807 273.458 108.807C273.707 108.807 273.91 109.01 273.91 109.26V166.842H273.007V109.26Z" fill="url(#paint86_linear_32171_14097)" fill-opacity="0.8"/>
<path d="M275.787 118.328C275.787 118.077 275.989 117.875 276.239 117.875C276.488 117.875 276.69 118.077 276.69 118.328V166.842H275.787V118.328Z" fill="url(#paint87_linear_32171_14097)" fill-opacity="0.8"/>
<path d="M278.568 118.101C278.568 117.976 278.669 117.875 278.794 117.875C278.919 117.875 279.019 117.976 279.019 118.101V166.842H278.568V118.101Z" fill="url(#paint88_linear_32171_14097)" fill-opacity="0.8"/>
<path d="M280.897 103.366C280.897 103.116 281.099 102.913 281.349 102.913C281.598 102.913 281.8 103.116 281.8 103.366V166.843H280.897V103.366Z" fill="url(#paint89_linear_32171_14097)" fill-opacity="0.8"/>
<path d="M283.678 118.101C283.678 117.976 283.779 117.875 283.904 117.875C284.029 117.875 284.129 117.976 284.129 118.101V166.842H283.678V118.101Z" fill="url(#paint90_linear_32171_14097)" fill-opacity="0.8"/>
<path d="M286.007 70.0413C286.007 69.9163 286.108 69.8145 286.233 69.8145C286.357 69.8145 286.458 69.9163 286.458 70.0413V166.843H286.007V70.0413Z" fill="url(#paint91_linear_32171_14097)" fill-opacity="0.8"/>
<path d="M288.336 40.7962C288.336 40.5458 288.538 40.3428 288.788 40.3428C289.037 40.3428 289.239 40.5458 289.239 40.7962V166.842H288.336V40.7962Z" fill="url(#paint92_linear_32171_14097)" fill-opacity="0.8"/>
<path d="M291.568 118.101C291.568 117.976 291.467 117.875 291.343 117.875C291.217 117.875 291.117 117.976 291.117 118.101V166.842H291.568V118.101Z" fill="url(#paint93_linear_32171_14097)" fill-opacity="0.8"/>
<path d="M293.446 46.9171C293.446 46.7919 293.547 46.6904 293.672 46.6904C293.796 46.6904 293.897 46.7919 293.897 46.9171V166.842H293.446V46.9171Z" fill="url(#paint94_linear_32171_14097)" fill-opacity="0.8"/>
<path d="M295.774 40.7962C295.774 40.5458 295.977 40.3428 296.226 40.3428C296.476 40.3428 296.678 40.5458 296.678 40.7962V166.842H295.774V40.7962Z" fill="url(#paint95_linear_32171_14097)" fill-opacity="0.8"/>
<path d="M298.556 40.5695C298.556 40.4443 298.656 40.3428 298.781 40.3428C298.906 40.3428 299.007 40.4443 299.007 40.5695V166.842H298.556V40.5695Z" fill="url(#paint96_linear_32171_14097)" fill-opacity="0.8"/>
<path d="M300.884 65.0533C300.884 64.9284 300.985 64.8271 301.11 64.8271C301.235 64.8271 301.336 64.9284 301.336 65.0533V166.842H300.884V65.0533Z" fill="url(#paint97_linear_32171_14097)" fill-opacity="0.8"/>
<path d="M303.213 118.328C303.213 118.077 303.416 117.875 303.665 117.875C303.914 117.875 304.117 118.077 304.117 118.328V166.842H303.213V118.328Z" fill="url(#paint98_linear_32171_14097)" fill-opacity="0.8"/>
<path d="M305.994 32.8614C305.994 32.7363 306.095 32.6348 306.22 32.6348C306.344 32.6348 306.446 32.7363 306.446 32.8614V166.842H305.994V32.8614Z" fill="url(#paint99_linear_32171_14097)" fill-opacity="0.8"/>
<path d="M308.323 119.915C308.323 119.79 308.425 119.688 308.549 119.688C308.673 119.688 308.775 119.79 308.775 119.915V166.842H308.323V119.915Z" fill="url(#paint100_linear_32171_14097)" fill-opacity="0.8"/>
<path d="M310.652 70.2681C310.652 70.0175 310.854 69.8145 311.103 69.8145C311.353 69.8145 311.555 70.0175 311.555 70.2681V166.843H310.652V70.2681Z" fill="url(#paint101_linear_32171_14097)" fill-opacity="0.8"/>
<path d="M313.433 118.101C313.433 117.976 313.534 117.875 313.659 117.875C313.783 117.875 313.885 117.976 313.885 118.101V166.842H313.433V118.101Z" fill="url(#paint102_linear_32171_14097)" fill-opacity="0.8"/>
<path d="M315.762 6.79128C315.762 6.5409 315.964 6.33789 316.213 6.33789C316.463 6.33789 316.665 6.5409 316.665 6.79128V166.842H315.762V6.79128Z" fill="url(#paint103_linear_32171_14097)" fill-opacity="0.8"/>
<path d="M318.543 6.79128C318.543 6.5409 318.745 6.33789 318.994 6.33789C319.243 6.33789 319.446 6.5409 319.446 6.79128V166.842H318.543V6.79128Z" fill="url(#paint104_linear_32171_14097)" fill-opacity="0.8"/>
<path d="M321.323 6.56461C321.323 6.43942 321.425 6.33789 321.549 6.33789C321.673 6.33789 321.775 6.43942 321.775 6.56461V166.842H321.323V6.56461Z" fill="url(#paint105_linear_32171_14097)" fill-opacity="0.8"/>
<path d="M323.652 118.328C323.652 118.077 323.855 117.875 324.104 117.875C324.353 117.875 324.556 118.077 324.556 118.328V166.842H323.652V118.328Z" fill="url(#paint106_linear_32171_14097)" fill-opacity="0.8"/>
<path d="M326.433 66.6405C326.433 66.39 326.635 66.1875 326.885 66.1875C327.134 66.1875 327.336 66.39 327.336 66.6405V166.843H326.433V66.6405Z" fill="url(#paint107_linear_32171_14097)" fill-opacity="0.8"/>
<path d="M329.213 38.756C329.213 38.6308 329.314 38.5293 329.439 38.5293C329.564 38.5293 329.665 38.6308 329.665 38.756V166.842H329.213V38.756Z" fill="url(#paint108_linear_32171_14097)" fill-opacity="0.8"/>
<path d="M331.543 71.6274C331.543 71.3769 331.745 71.1738 331.994 71.1738C332.243 71.1738 332.446 71.3769 332.446 71.6274V166.842H331.543V71.6274Z" fill="url(#paint109_linear_32171_14097)" fill-opacity="0.8"/>
<path d="M334.323 48.5042C334.323 48.2537 334.525 48.0508 334.774 48.0508C335.024 48.0508 335.225 48.2537 335.225 48.5042V166.842H334.323V48.5042Z" fill="url(#paint110_linear_32171_14097)" fill-opacity="0.8"/>
<path d="M337.104 46.9171C337.104 46.7919 337.205 46.6904 337.329 46.6904C337.454 46.6904 337.555 46.7919 337.555 46.9171V166.842H337.104V46.9171Z" fill="url(#paint111_linear_32171_14097)" fill-opacity="0.8"/>
<path d="M339.433 48.5042C339.433 48.2537 339.635 48.0508 339.884 48.0508C340.133 48.0508 340.335 48.2537 340.335 48.5042V166.842H339.433V48.5042Z" fill="url(#paint112_linear_32171_14097)" fill-opacity="0.8"/>
<path d="M342.213 3.16435C342.213 2.91394 342.416 2.71094 342.665 2.71094C342.914 2.71094 343.117 2.91394 343.117 3.16435V166.843H342.213V3.16435Z" fill="url(#paint113_linear_32171_14097)" fill-opacity="0.8"/>
<path d="M344.994 86.8166C344.994 86.6911 345.095 86.5898 345.219 86.5898C345.344 86.5898 345.445 86.6911 345.445 86.8166V166.842H344.994V86.8166Z" fill="url(#paint114_linear_32171_14097)" fill-opacity="0.8"/>
<path d="M347.323 65.2801C347.323 65.0296 347.525 64.8271 347.775 64.8271C348.024 64.8271 348.226 65.0296 348.226 65.2801V166.842H347.323V65.2801Z" fill="url(#paint115_linear_32171_14097)" fill-opacity="0.8"/>
<path d="M350.104 118.328C350.104 118.077 350.306 117.875 350.555 117.875C350.805 117.875 351.007 118.077 351.007 118.328V166.842H350.104V118.328Z" fill="url(#paint116_linear_32171_14097)" fill-opacity="0.8"/>
<path d="M352.884 16.0861C352.884 15.9609 352.985 15.8594 353.11 15.8594C353.235 15.8594 353.335 15.9609 353.335 16.0861V166.842H352.884V16.0861Z" fill="url(#paint117_linear_32171_14097)" fill-opacity="0.8"/>
<path d="M355.213 86.5903C355.213 86.3398 355.416 86.1367 355.665 86.1367C355.914 86.1367 356.116 86.3398 356.116 86.5903V166.842H355.213V86.5903Z" fill="url(#paint118_linear_32171_14097)" fill-opacity="0.8"/>
<path d="M357.994 49.6379C357.994 49.5127 358.095 49.4111 358.219 49.4111C358.344 49.4111 358.445 49.5127 358.445 49.6379V166.842H357.994V49.6379Z" fill="url(#paint119_linear_32171_14097)" fill-opacity="0.8"/>
<path d="M360.323 118.101C360.323 117.976 360.424 117.875 360.549 117.875C360.673 117.875 360.775 117.976 360.775 118.101V166.842H360.323V118.101Z" fill="url(#paint120_linear_32171_14097)" fill-opacity="0.8"/>
<path d="M362.652 118.328C362.652 118.077 362.855 117.875 363.104 117.875C363.353 117.875 363.556 118.077 363.556 118.328V166.842H362.652V118.328Z" fill="url(#paint121_linear_32171_14097)" fill-opacity="0.8"/>
<path d="M365.433 87.7239C365.433 87.5989 365.534 87.4971 365.658 87.4971C365.783 87.4971 365.884 87.5989 365.884 87.7239V166.842H365.433V87.7239Z" fill="url(#paint122_linear_32171_14097)" fill-opacity="0.8"/>
<path d="M367.762 48.2775C367.762 48.1523 367.863 48.0508 367.988 48.0508C368.112 48.0508 368.214 48.1523 368.214 48.2775V166.842H367.762V48.2775Z" fill="url(#paint123_linear_32171_14097)" fill-opacity="0.8"/>
<path d="M370.091 48.5042C370.091 48.2537 370.293 48.0508 370.542 48.0508C370.792 48.0508 370.994 48.2537 370.994 48.5042V166.842H370.091V48.5042Z" fill="url(#paint124_linear_32171_14097)" fill-opacity="0.8"/>
<path d="M372.872 2.93764C372.872 2.81244 372.973 2.71094 373.098 2.71094C373.222 2.71094 373.323 2.81244 373.323 2.93764V166.843H372.872V2.93764Z" fill="url(#paint125_linear_32171_14097)" fill-opacity="0.8"/>
<path d="M375.201 118.101C375.201 117.976 375.303 117.875 375.427 117.875C375.551 117.875 375.653 117.976 375.653 118.101V166.842H375.201V118.101Z" fill="url(#paint126_linear_32171_14097)" fill-opacity="0.8"/>
<path d="M377.53 43.5169C377.53 43.2665 377.732 43.0635 377.981 43.0635C378.231 43.0635 378.433 43.2665 378.433 43.5169V166.842H377.53V43.5169Z" fill="url(#paint127_linear_32171_14097)" fill-opacity="0.8"/>
<path d="M380.311 5.65737C380.311 5.53217 380.411 5.43066 380.536 5.43066C380.661 5.43066 380.762 5.53216 380.762 5.65736V166.842H380.311V5.65737Z" fill="url(#paint128_linear_32171_14097)" fill-opacity="0.8"/>
<path d="M382.639 38.756C382.639 38.6308 382.741 38.5293 382.865 38.5293C382.99 38.5293 383.091 38.6308 383.091 38.756V166.842H382.639V38.756Z" fill="url(#paint129_linear_32171_14097)" fill-opacity="0.8"/>
<path d="M384.969 71.6274C384.969 71.3769 385.171 71.1738 385.42 71.1738C385.669 71.1738 385.871 71.3769 385.871 71.6274V166.842H384.969V71.6274Z" fill="url(#paint130_linear_32171_14097)" fill-opacity="0.8"/>
<path d="M387.749 48.2775C387.749 48.1523 387.85 48.0508 387.975 48.0508C388.099 48.0508 388.201 48.1523 388.201 48.2775V166.842H387.749V48.2775Z" fill="url(#paint131_linear_32171_14097)" fill-opacity="0.8"/>
<path d="M390.078 47.1438C390.078 46.8934 390.28 46.6904 390.53 46.6904C390.779 46.6904 390.981 46.8934 390.981 47.1438V166.842H390.078V47.1438Z" fill="url(#paint132_linear_32171_14097)" fill-opacity="0.8"/>
<path d="M49.2275 62.0869H392.788" stroke="#17EC20" stroke-width="3.53846" stroke-linecap="round"/>
<path d="M147.978 37.3955H104.756C100.019 37.3955 96.1782 41.2524 96.1782 46.0102C96.1782 50.7679 100.019 54.6248 104.756 54.6248H147.978C152.716 54.6248 156.556 50.7679 156.556 46.0102C156.556 41.2524 152.716 37.3955 147.978 37.3955Z" fill="#17EC20"/>
<path d="M104.019 44.1723C104.019 42.5606 105.309 41.3828 107.08 41.3828C108.778 41.3828 110.043 42.4676 110.043 43.8872C110.043 44.9286 109.488 45.7034 108.185 47.0424L105.957 49.2926V49.3236H110.185V50.4952H104.093V49.5529L107.309 46.2613C108.395 45.1269 108.679 44.6558 108.679 43.9554C108.679 43.1619 107.963 42.5296 107.038 42.5296C106.062 42.5296 105.327 43.2363 105.327 44.1661V44.1847H104.019V44.1723ZM111.339 44.1723C111.339 42.5606 112.63 41.3828 114.401 41.3828C116.098 41.3828 117.364 42.4676 117.364 43.8872C117.364 44.9286 116.808 45.7034 115.506 47.0424L113.277 49.2926V49.3236H117.506V50.4952H111.413V49.5529L114.629 46.2613C115.716 45.1269 115.999 44.6558 115.999 43.9554C115.999 43.1619 115.284 42.5296 114.358 42.5296C113.383 42.5296 112.648 43.2363 112.648 44.1661V44.1847H111.339V44.1723ZM119.648 52.3362H118.586L119.141 49.0632H120.487L119.648 52.3362ZM126.338 50.4952V48.7285H121.882V47.5135C122.647 46.0692 123.66 44.4636 125.665 41.5502H127.665V47.5631H128.888V48.7285H127.665V50.4952H126.338ZM123.172 47.5507V47.5817H126.35V42.6226H126.326C124.783 44.8604 123.882 46.2552 123.172 47.5507ZM134.189 50.4952V48.7285H129.733V47.5135C130.498 46.0692 131.511 44.4636 133.516 41.5502H135.516V47.5631H136.739V48.7285H135.516V50.4952H134.189ZM131.023 47.5507V47.5817H134.201V42.6226H134.177C132.634 44.8604 131.733 46.2552 131.023 47.5507ZM143.837 43.6764C143.837 45.0526 143.078 45.9328 141.911 45.9328C140.738 45.9328 139.979 45.0526 139.979 43.6764C139.979 42.3003 140.738 41.42 141.911 41.42C143.078 41.42 143.837 42.3003 143.837 43.6764ZM141.911 45.0588C142.398 45.0588 142.707 44.5319 142.707 43.6702C142.707 42.8148 142.398 42.2878 141.911 42.2878C141.417 42.2878 141.108 42.8148 141.108 43.6702C141.108 44.5319 141.417 45.0588 141.911 45.0588ZM141.855 50.4952H140.633L144.077 45.7654L147.145 41.5502H148.361L145.009 46.1621L141.855 50.4952ZM149.015 48.3442C149.015 49.7203 148.262 50.6006 147.09 50.6006C145.916 50.6006 145.164 49.7203 145.164 48.3442C145.164 46.9618 145.916 46.0815 147.09 46.0815C148.262 46.0815 149.015 46.9618 149.015 48.3442ZM147.09 49.7203C147.583 49.7203 147.886 49.1996 147.886 48.3379C147.886 47.4763 147.583 46.9556 147.09 46.9556C146.596 46.9556 146.293 47.4763 146.293 48.3379C146.293 49.1996 146.596 49.7203 147.09 49.7203Z" fill="white"/>
<path d="M19.207 171.722C17.127 171.722 15.9233 169.924 15.9233 167.097C15.9233 164.296 17.1393 162.479 19.207 162.479C21.2748 162.479 22.4783 164.283 22.4783 167.091C22.4783 169.918 21.2809 171.722 19.207 171.722ZM19.207 170.749C20.5958 170.749 21.3611 169.329 21.3611 167.097C21.3611 164.897 20.5834 163.459 19.207 163.459C17.8306 163.459 17.0405 164.91 17.0405 167.091C17.0405 169.323 17.8121 170.749 19.207 170.749ZM29.6752 164.742C29.6752 166.094 28.9345 166.967 27.805 166.967C26.6755 166.967 25.9348 166.094 25.9348 164.742C25.9348 163.391 26.6755 162.517 27.805 162.517C28.9345 162.517 29.6752 163.391 29.6752 164.742ZM27.805 166.211C28.3482 166.211 28.6876 165.653 28.6876 164.742C28.6876 163.831 28.3482 163.273 27.805 163.273C27.2619 163.273 26.9224 163.831 26.9224 164.742C26.9224 165.653 27.2619 166.211 27.805 166.211ZM27.5334 171.573H26.4595L29.8974 166.856L32.9774 162.628H34.039L30.6937 167.228L27.5334 171.573ZM34.5699 169.44C34.5699 170.792 33.8292 171.666 32.6996 171.666C31.5701 171.666 30.8294 170.792 30.8294 169.44C30.8294 168.089 31.5701 167.215 32.6996 167.215C33.8292 167.215 34.5699 168.089 34.5699 169.44ZM32.6996 170.91C33.2428 170.91 33.5823 170.352 33.5823 169.44C33.5823 168.529 33.2428 167.971 32.6996 167.971C32.1565 167.971 31.817 168.529 31.817 169.44C31.817 170.352 32.1565 170.91 32.6996 170.91Z" fill="white" fill-opacity="0.3"/>
<path d="M49.2275 167.089H392.788" stroke="#0B0528" stroke-width="1.06154" stroke-linecap="round"/>
<path d="M16.0347 90.5828C16.0347 89.0209 17.2938 87.8555 18.9727 87.8555C20.5651 87.8555 21.8181 88.9401 21.8181 90.3105C21.8181 91.3081 21.3675 92.0519 19.88 93.5959L17.6271 95.9325V95.9575H21.9662V96.9493H16.0902V96.1804L19.2257 92.8643C20.4232 91.5996 20.7071 91.1223 20.7071 90.3785C20.7071 89.5167 19.9232 88.8287 18.9418 88.8287C17.8987 88.8287 17.1086 89.5853 17.1086 90.5828V90.5892H16.0347V90.5828ZM26.367 97.0979C24.287 97.0979 23.0834 95.3002 23.0834 92.4735C23.0834 89.6718 24.2994 87.8555 26.367 87.8555C28.4348 87.8555 29.6384 89.6596 29.6384 92.4677C29.6384 95.2944 28.441 97.0979 26.367 97.0979ZM26.367 96.1247C27.7558 96.1247 28.5212 94.705 28.5212 92.4735C28.5212 90.2734 27.7435 88.8351 26.367 88.8351C24.9906 88.8351 24.2006 90.2856 24.2006 92.4677C24.2006 94.6992 24.9721 96.1247 26.367 96.1247ZM36.8353 90.1183C36.8353 91.4695 36.0946 92.3434 34.9651 92.3434C33.8356 92.3434 33.0949 91.4695 33.0949 90.1183C33.0949 88.7665 33.8356 87.8926 34.9651 87.8926C36.0946 87.8926 36.8353 88.7665 36.8353 90.1183ZM34.9651 91.5874C35.5082 91.5874 35.8477 91.0294 35.8477 90.1183C35.8477 89.2067 35.5082 88.6493 34.9651 88.6493C34.4219 88.6493 34.0824 89.2067 34.0824 90.1183C34.0824 91.0294 34.4219 91.5874 34.9651 91.5874ZM34.6935 96.9493H33.6195L37.0575 92.2319L40.1374 88.0041H41.1991L37.8537 92.6035L34.6935 96.9493ZM41.7299 94.8171C41.7299 96.1683 40.9893 97.0422 39.8597 97.0422C38.7301 97.0422 37.9895 96.1683 37.9895 94.8171C37.9895 93.4652 38.7301 92.5914 39.8597 92.5914C40.9893 92.5914 41.7299 93.4652 41.7299 94.8171ZM39.8597 96.2861C40.4029 96.2861 40.7423 95.7281 40.7423 94.8171C40.7423 93.9054 40.4029 93.348 39.8597 93.348C39.3165 93.348 38.9771 93.9054 38.9771 94.8171C38.9771 95.7281 39.3165 96.2861 39.8597 96.2861Z" fill="white" fill-opacity="0.3"/>
<path d="M49.2275 92.4648H392.788" stroke="#0B0528" stroke-width="1.06154" stroke-linecap="round"/>
<defs>
<linearGradient id="paint0_linear_32171_14097" x1="53.5157" y1="36.2627" x2="53.5157" y2="166.843" gradientUnits="userSpaceOnUse">
<stop stop-color="#17EC20"/>
<stop offset="1" stop-color="#1A202D"/>
</linearGradient>
<linearGradient id="paint1_linear_32171_14097" x1="55.8449" y1="36.2627" x2="55.8449" y2="166.843" gradientUnits="userSpaceOnUse">
<stop stop-color="#17EC20"/>
<stop offset="1" stop-color="#1A202D"/>
</linearGradient>
<linearGradient id="paint2_linear_32171_14097" x1="58.3997" y1="36.2627" x2="58.3997" y2="166.843" gradientUnits="userSpaceOnUse">
<stop stop-color="#17EC20"/>
<stop offset="1" stop-color="#1A202D"/>
</linearGradient>
<linearGradient id="paint3_linear_32171_14097" x1="60.9547" y1="29.915" x2="60.9547" y2="166.843" gradientUnits="userSpaceOnUse">
<stop stop-color="#17EC20"/>
<stop offset="1" stop-color="#1A202D"/>
</linearGradient>
<linearGradient id="paint4_linear_32171_14097" x1="63.2843" y1="26.7412" x2="63.2843" y2="166.842" gradientUnits="userSpaceOnUse">
<stop stop-color="#17EC20"/>
<stop offset="1" stop-color="#1A202D"/>
</linearGradient>
<linearGradient id="paint5_linear_32171_14097" x1="65.8389" y1="78.4287" x2="65.8389" y2="166.842" gradientUnits="userSpaceOnUse">
<stop stop-color="#17EC20"/>
<stop offset="1" stop-color="#1A202D"/>
</linearGradient>
<linearGradient id="paint6_linear_32171_14097" x1="68.3933" y1="79.3359" x2="68.3933" y2="166.842" gradientUnits="userSpaceOnUse">
<stop stop-color="#17EC20"/>
<stop offset="1" stop-color="#1A202D"/>
</linearGradient>
<linearGradient id="paint7_linear_32171_14097" x1="70.7223" y1="92.0312" x2="70.7223" y2="166.843" gradientUnits="userSpaceOnUse">
<stop stop-color="#17EC20"/>
<stop offset="1" stop-color="#1A202D"/>
</linearGradient>
<linearGradient id="paint8_linear_32171_14097" x1="73.2778" y1="105.18" x2="73.2778" y2="166.842" gradientUnits="userSpaceOnUse">
<stop stop-color="#17EC20"/>
<stop offset="1" stop-color="#1A202D"/>
</linearGradient>
<linearGradient id="paint9_linear_32171_14097" x1="75.8318" y1="105.18" x2="75.8318" y2="166.842" gradientUnits="userSpaceOnUse">
<stop stop-color="#17EC20"/>
<stop offset="1" stop-color="#1A202D"/>
</linearGradient>
<linearGradient id="paint10_linear_32171_14097" x1="78.1619" y1="117.875" x2="78.1619" y2="166.842" gradientUnits="userSpaceOnUse">
<stop stop-color="#17EC20"/>
<stop offset="1" stop-color="#1A202D"/>
</linearGradient>
<linearGradient id="paint11_linear_32171_14097" x1="80.7158" y1="43.9697" x2="80.7158" y2="166.842" gradientUnits="userSpaceOnUse">
<stop stop-color="#17EC20"/>
<stop offset="1" stop-color="#1A202D"/>
</linearGradient>
<linearGradient id="paint12_linear_32171_14097" x1="83.2711" y1="92.0312" x2="83.2711" y2="166.843" gradientUnits="userSpaceOnUse">
<stop stop-color="#17EC20"/>
<stop offset="1" stop-color="#1A202D"/>
</linearGradient>
<linearGradient id="paint13_linear_32171_14097" x1="85.6008" y1="52.585" x2="85.6008" y2="166.842" gradientUnits="userSpaceOnUse">
<stop stop-color="#17EC20"/>
<stop offset="1" stop-color="#1A202D"/>
</linearGradient>
<linearGradient id="paint14_linear_32171_14097" x1="88.1548" y1="105.18" x2="88.1548" y2="166.842" gradientUnits="userSpaceOnUse">
<stop stop-color="#17EC20"/>
<stop offset="1" stop-color="#1A202D"/>
</linearGradient>
<linearGradient id="paint15_linear_32171_14097" x1="90.7101" y1="117.875" x2="90.7101" y2="166.842" gradientUnits="userSpaceOnUse">
<stop stop-color="#17EC20"/>
<stop offset="1" stop-color="#1A202D"/>
</linearGradient>
<linearGradient id="paint16_linear_32171_14097" x1="93.2646" y1="117.875" x2="93.2646" y2="166.842" gradientUnits="userSpaceOnUse">
<stop stop-color="#17EC20"/>
<stop offset="1" stop-color="#1A202D"/>
</linearGradient>
<linearGradient id="paint17_linear_32171_14097" x1="96.0454" y1="49.4111" x2="96.0454" y2="166.842" gradientUnits="userSpaceOnUse">
<stop stop-color="#17EC20"/>
<stop offset="1" stop-color="#1A202D"/>
</linearGradient>
<linearGradient id="paint18_linear_32171_14097" x1="98.6003" y1="105.18" x2="98.6003" y2="166.842" gradientUnits="userSpaceOnUse">
<stop stop-color="#17EC20"/>
<stop offset="1" stop-color="#1A202D"/>
</linearGradient>
<linearGradient id="paint19_linear_32171_14097" x1="101.155" y1="117.875" x2="101.155" y2="166.842" gradientUnits="userSpaceOnUse">
<stop stop-color="#17EC20"/>
<stop offset="1" stop-color="#1A202D"/>
</linearGradient>
<linearGradient id="paint20_linear_32171_14097" x1="103.935" y1="117.875" x2="103.935" y2="166.842" gradientUnits="userSpaceOnUse">
<stop stop-color="#17EC20"/>
<stop offset="1" stop-color="#1A202D"/>
</linearGradient>
<linearGradient id="paint21_linear_32171_14097" x1="106.49" y1="68.9072" x2="106.49" y2="166.842" gradientUnits="userSpaceOnUse">
<stop stop-color="#17EC20"/>
<stop offset="1" stop-color="#1A202D"/>
</linearGradient>
<linearGradient id="paint22_linear_32171_14097" x1="109.045" y1="105.18" x2="109.045" y2="166.842" gradientUnits="userSpaceOnUse">
<stop stop-color="#17EC20"/>
<stop offset="1" stop-color="#1A202D"/>
</linearGradient>
<linearGradient id="paint23_linear_32171_14097" x1="111.826" y1="49.4111" x2="111.826" y2="166.842" gradientUnits="userSpaceOnUse">
<stop stop-color="#17EC20"/>
<stop offset="1" stop-color="#1A202D"/>
</linearGradient>
<linearGradient id="paint24_linear_32171_14097" x1="114.381" y1="105.18" x2="114.381" y2="166.842" gradientUnits="userSpaceOnUse">
<stop stop-color="#17EC20"/>
<stop offset="1" stop-color="#1A202D"/>
</linearGradient>
<linearGradient id="paint25_linear_32171_14097" x1="116.935" y1="46.6904" x2="116.935" y2="166.842" gradientUnits="userSpaceOnUse">
<stop stop-color="#17EC20"/>
<stop offset="1" stop-color="#1A202D"/>
</linearGradient>
<linearGradient id="paint26_linear_32171_14097" x1="119.716" y1="105.18" x2="119.716" y2="166.842" gradientUnits="userSpaceOnUse">
<stop stop-color="#17EC20"/>
<stop offset="1" stop-color="#1A202D"/>
</linearGradient>
<linearGradient id="paint27_linear_32171_14097" x1="122.271" y1="105.18" x2="122.271" y2="166.842" gradientUnits="userSpaceOnUse">
<stop stop-color="#17EC20"/>
<stop offset="1" stop-color="#1A202D"/>
</linearGradient>
<linearGradient id="paint28_linear_32171_14097" x1="124.826" y1="50.7715" x2="124.826" y2="166.842" gradientUnits="userSpaceOnUse">
<stop stop-color="#17EC20"/>
<stop offset="1" stop-color="#1A202D"/>
</linearGradient>
<linearGradient id="paint29_linear_32171_14097" x1="127.606" y1="117.875" x2="127.606" y2="166.842" gradientUnits="userSpaceOnUse">
<stop stop-color="#17EC20"/>
<stop offset="1" stop-color="#1A202D"/>
</linearGradient>
<linearGradient id="paint30_linear_32171_14097" x1="130.161" y1="6.33789" x2="130.161" y2="166.842" gradientUnits="userSpaceOnUse">
<stop stop-color="#17EC20"/>
<stop offset="1" stop-color="#1A202D"/>
</linearGradient>
<linearGradient id="paint31_linear_32171_14097" x1="132.716" y1="6.33789" x2="132.716" y2="166.842" gradientUnits="userSpaceOnUse">
<stop stop-color="#17EC20"/>
<stop offset="1" stop-color="#1A202D"/>
</linearGradient>
<linearGradient id="paint32_linear_32171_14097" x1="135.271" y1="117.875" x2="135.271" y2="166.842" gradientUnits="userSpaceOnUse">
<stop stop-color="#17EC20"/>
<stop offset="1" stop-color="#1A202D"/>
</linearGradient>
<linearGradient id="paint33_linear_32171_14097" x1="137.6" y1="68.4541" x2="137.6" y2="166.842" gradientUnits="userSpaceOnUse">
<stop stop-color="#17EC20"/>
<stop offset="1" stop-color="#1A202D"/>
</linearGradient>
<linearGradient id="paint34_linear_32171_14097" x1="140.155" y1="35.3555" x2="140.155" y2="166.842" gradientUnits="userSpaceOnUse">
<stop stop-color="#17EC20"/>
<stop offset="1" stop-color="#1A202D"/>
</linearGradient>
<linearGradient id="paint35_linear_32171_14097" x1="142.71" y1="117.875" x2="142.71" y2="166.842" gradientUnits="userSpaceOnUse">
<stop stop-color="#17EC20"/>
<stop offset="1" stop-color="#1A202D"/>
</linearGradient>
<linearGradient id="paint36_linear_32171_14097" x1="145.039" y1="66.1875" x2="145.039" y2="166.842" gradientUnits="userSpaceOnUse">
<stop stop-color="#17EC20"/>
<stop offset="1" stop-color="#1A202D"/>
</linearGradient>
<linearGradient id="paint37_linear_32171_14097" x1="147.594" y1="105.18" x2="147.594" y2="166.842" gradientUnits="userSpaceOnUse">
<stop stop-color="#17EC20"/>
<stop offset="1" stop-color="#1A202D"/>
</linearGradient>
<linearGradient id="paint38_linear_32171_14097" x1="150.148" y1="36.2627" x2="150.148" y2="166.843" gradientUnits="userSpaceOnUse">
<stop stop-color="#17EC20"/>
<stop offset="1" stop-color="#1A202D"/>
</linearGradient>
<linearGradient id="paint39_linear_32171_14097" x1="152.477" y1="105.633" x2="152.477" y2="166.842" gradientUnits="userSpaceOnUse">
<stop stop-color="#17EC20"/>
<stop offset="1" stop-color="#1A202D"/>
</linearGradient>
<linearGradient id="paint40_linear_32171_14097" x1="155.032" y1="105.633" x2="155.032" y2="166.842" gradientUnits="userSpaceOnUse">
<stop stop-color="#17EC20"/>
<stop offset="1" stop-color="#1A202D"/>
</linearGradient>
<linearGradient id="paint41_linear_32171_14097" x1="157.587" y1="73.4414" x2="157.587" y2="166.842" gradientUnits="userSpaceOnUse">
<stop stop-color="#17EC20"/>
<stop offset="1" stop-color="#1A202D"/>
</linearGradient>
<linearGradient id="paint42_linear_32171_14097" x1="159.916" y1="93.8447" x2="159.916" y2="166.842" gradientUnits="userSpaceOnUse">
<stop stop-color="#17EC20"/>
<stop offset="1" stop-color="#1A202D"/>
</linearGradient>
<linearGradient id="paint43_linear_32171_14097" x1="162.471" y1="87.9502" x2="162.471" y2="166.842" gradientUnits="userSpaceOnUse">
<stop stop-color="#17EC20"/>
<stop offset="1" stop-color="#1A202D"/>
</linearGradient>
<linearGradient id="paint44_linear_32171_14097" x1="165.026" y1="55.7588" x2="165.026" y2="166.842" gradientUnits="userSpaceOnUse">
<stop stop-color="#17EC20"/>
<stop offset="1" stop-color="#1A202D"/>
</linearGradient>
<linearGradient id="paint45_linear_32171_14097" x1="167.581" y1="40.3428" x2="167.581" y2="166.842" gradientUnits="userSpaceOnUse">
<stop stop-color="#17EC20"/>
<stop offset="1" stop-color="#1A202D"/>
</linearGradient>
<linearGradient id="paint46_linear_32171_14097" x1="170.361" y1="18.126" x2="170.361" y2="166.842" gradientUnits="userSpaceOnUse">
<stop stop-color="#17EC20"/>
<stop offset="1" stop-color="#1A202D"/>
</linearGradient>
<linearGradient id="paint47_linear_32171_14097" x1="172.916" y1="117.875" x2="172.916" y2="166.842" gradientUnits="userSpaceOnUse">
<stop stop-color="#17EC20"/>
<stop offset="1" stop-color="#1A202D"/>
</linearGradient>
<linearGradient id="paint48_linear_32171_14097" x1="175.471" y1="39.4365" x2="175.471" y2="166.843" gradientUnits="userSpaceOnUse">
<stop stop-color="#17EC20"/>
<stop offset="1" stop-color="#1A202D"/>
</linearGradient>
<linearGradient id="paint49_linear_32171_14097" x1="178.252" y1="6.33789" x2="178.252" y2="166.842" gradientUnits="userSpaceOnUse">
<stop stop-color="#17EC20"/>
<stop offset="1" stop-color="#1A202D"/>
</linearGradient>
<linearGradient id="paint50_linear_32171_14097" x1="180.807" y1="117.875" x2="180.807" y2="166.842" gradientUnits="userSpaceOnUse">
<stop stop-color="#17EC20"/>
<stop offset="1" stop-color="#1A202D"/>
</linearGradient>
<linearGradient id="paint51_linear_32171_14097" x1="183.361" y1="19.0332" x2="183.361" y2="166.842" gradientUnits="userSpaceOnUse">
<stop stop-color="#17EC20"/>
<stop offset="1" stop-color="#1A202D"/>
</linearGradient>
<linearGradient id="paint52_linear_32171_14097" x1="186.143" y1="107.899" x2="186.143" y2="166.842" gradientUnits="userSpaceOnUse">
<stop stop-color="#17EC20"/>
<stop offset="1" stop-color="#1A202D"/>
</linearGradient>
<linearGradient id="paint53_linear_32171_14097" x1="188.697" y1="117.875" x2="188.697" y2="166.842" gradientUnits="userSpaceOnUse">
<stop stop-color="#17EC20"/>
<stop offset="1" stop-color="#1A202D"/>
</linearGradient>
<linearGradient id="paint54_linear_32171_14097" x1="191.252" y1="39.4365" x2="191.252" y2="166.843" gradientUnits="userSpaceOnUse">
<stop stop-color="#17EC20"/>
<stop offset="1" stop-color="#1A202D"/>
</linearGradient>
<linearGradient id="paint55_linear_32171_14097" x1="194.032" y1="82.9629" x2="194.032" y2="166.842" gradientUnits="userSpaceOnUse">
<stop stop-color="#17EC20"/>
<stop offset="1" stop-color="#1A202D"/>
</linearGradient>
<linearGradient id="paint56_linear_32171_14097" x1="196.587" y1="105.18" x2="196.587" y2="166.842" gradientUnits="userSpaceOnUse">
<stop stop-color="#17EC20"/>
<stop offset="1" stop-color="#1A202D"/>
</linearGradient>
<linearGradient id="paint57_linear_32171_14097" x1="199.141" y1="117.875" x2="199.141" y2="166.842" gradientUnits="userSpaceOnUse">
<stop stop-color="#17EC20"/>
<stop offset="1" stop-color="#1A202D"/>
</linearGradient>
<linearGradient id="paint58_linear_32171_14097" x1="201.923" y1="72.5342" x2="201.923" y2="166.842" gradientUnits="userSpaceOnUse">
<stop stop-color="#17EC20"/>
<stop offset="1" stop-color="#1A202D"/>
</linearGradient>
<linearGradient id="paint59_linear_32171_14097" x1="204.477" y1="113.794" x2="204.477" y2="166.842" gradientUnits="userSpaceOnUse">
<stop stop-color="#17EC20"/>
<stop offset="1" stop-color="#1A202D"/>
</linearGradient>
<linearGradient id="paint60_linear_32171_14097" x1="207.033" y1="40.3428" x2="207.033" y2="166.842" gradientUnits="userSpaceOnUse">
<stop stop-color="#17EC20"/>
<stop offset="1" stop-color="#1A202D"/>
</linearGradient>
<linearGradient id="paint61_linear_32171_14097" x1="209.587" y1="117.875" x2="209.587" y2="166.842" gradientUnits="userSpaceOnUse">
<stop stop-color="#17EC20"/>
<stop offset="1" stop-color="#1A202D"/>
</linearGradient>
<linearGradient id="paint62_linear_32171_14097" x1="211.916" y1="117.875" x2="211.916" y2="166.842" gradientUnits="userSpaceOnUse">
<stop stop-color="#17EC20"/>
<stop offset="1" stop-color="#1A202D"/>
</linearGradient>
<linearGradient id="paint63_linear_32171_14097" x1="214.471" y1="72.5342" x2="214.471" y2="166.842" gradientUnits="userSpaceOnUse">
<stop stop-color="#17EC20"/>
<stop offset="1" stop-color="#1A202D"/>
</linearGradient>
<linearGradient id="paint64_linear_32171_14097" x1="217.026" y1="72.5342" x2="217.026" y2="166.842" gradientUnits="userSpaceOnUse">
<stop stop-color="#17EC20"/>
<stop offset="1" stop-color="#1A202D"/>
</linearGradient>
<linearGradient id="paint65_linear_32171_14097" x1="219.355" y1="117.875" x2="219.355" y2="166.842" gradientUnits="userSpaceOnUse">
<stop stop-color="#17EC20"/>
<stop offset="1" stop-color="#1A202D"/>
</linearGradient>
<linearGradient id="paint66_linear_32171_14097" x1="221.91" y1="117.875" x2="221.91" y2="166.842" gradientUnits="userSpaceOnUse">
<stop stop-color="#17EC20"/>
<stop offset="1" stop-color="#1A202D"/>
</linearGradient>
<linearGradient id="paint67_linear_32171_14097" x1="224.464" y1="112.434" x2="224.464" y2="166.842" gradientUnits="userSpaceOnUse">
<stop stop-color="#17EC20"/>
<stop offset="1" stop-color="#1A202D"/>
</linearGradient>
<linearGradient id="paint68_linear_32171_14097" x1="226.794" y1="40.3428" x2="226.794" y2="166.842" gradientUnits="userSpaceOnUse">
<stop stop-color="#17EC20"/>
<stop offset="1" stop-color="#1A202D"/>
</linearGradient>
<linearGradient id="paint69_linear_32171_14097" x1="229.349" y1="39.4365" x2="229.349" y2="166.843" gradientUnits="userSpaceOnUse">
<stop stop-color="#17EC20"/>
<stop offset="1" stop-color="#1A202D"/>
</linearGradient>
<linearGradient id="paint70_linear_32171_14097" x1="231.904" y1="117.875" x2="231.904" y2="166.842" gradientUnits="userSpaceOnUse">
<stop stop-color="#17EC20"/>
<stop offset="1" stop-color="#1A202D"/>
</linearGradient>
<linearGradient id="paint71_linear_32171_14097" x1="234.233" y1="72.5342" x2="234.233" y2="166.842" gradientUnits="userSpaceOnUse">
<stop stop-color="#17EC20"/>
<stop offset="1" stop-color="#1A202D"/>
</linearGradient>
<linearGradient id="paint72_linear_32171_14097" x1="236.787" y1="92.9385" x2="236.787" y2="166.843" gradientUnits="userSpaceOnUse">
<stop stop-color="#17EC20"/>
<stop offset="1" stop-color="#1A202D"/>
</linearGradient>
<linearGradient id="paint73_linear_32171_14097" x1="239.343" y1="87.9502" x2="239.343" y2="166.842" gradientUnits="userSpaceOnUse">
<stop stop-color="#17EC20"/>
<stop offset="1" stop-color="#1A202D"/>
</linearGradient>
<linearGradient id="paint74_linear_32171_14097" x1="241.897" y1="55.7588" x2="241.897" y2="166.842" gradientUnits="userSpaceOnUse">
<stop stop-color="#17EC20"/>
<stop offset="1" stop-color="#1A202D"/>
</linearGradient>
<linearGradient id="paint75_linear_32171_14097" x1="244.678" y1="40.3428" x2="244.678" y2="166.842" gradientUnits="userSpaceOnUse">
<stop stop-color="#17EC20"/>
<stop offset="1" stop-color="#1A202D"/>
</linearGradient>
<linearGradient id="paint76_linear_32171_14097" x1="247.233" y1="49.8643" x2="247.233" y2="166.842" gradientUnits="userSpaceOnUse">
<stop stop-color="#17EC20"/>
<stop offset="1" stop-color="#1A202D"/>
</linearGradient>
<linearGradient id="paint77_linear_32171_14097" x1="249.788" y1="96.1113" x2="249.788" y2="166.842" gradientUnits="userSpaceOnUse">
<stop stop-color="#17EC20"/>
<stop offset="1" stop-color="#1A202D"/>
</linearGradient>
<linearGradient id="paint78_linear_32171_14097" x1="252.568" y1="40.3428" x2="252.568" y2="166.842" gradientUnits="userSpaceOnUse">
<stop stop-color="#17EC20"/>
<stop offset="1" stop-color="#1A202D"/>
</linearGradient>
<linearGradient id="paint79_linear_32171_14097" x1="255.123" y1="117.875" x2="255.123" y2="166.842" gradientUnits="userSpaceOnUse">
<stop stop-color="#17EC20"/>
<stop offset="1" stop-color="#1A202D"/>
</linearGradient>
<linearGradient id="paint80_linear_32171_14097" x1="257.678" y1="117.875" x2="257.678" y2="166.842" gradientUnits="userSpaceOnUse">
<stop stop-color="#17EC20"/>
<stop offset="1" stop-color="#1A202D"/>
</linearGradient>
<linearGradient id="paint81_linear_32171_14097" x1="260.459" y1="38.5293" x2="260.459" y2="166.842" gradientUnits="userSpaceOnUse">
<stop stop-color="#17EC20"/>
<stop offset="1" stop-color="#1A202D"/>
</linearGradient>
<linearGradient id="paint82_linear_32171_14097" x1="263.013" y1="117.875" x2="263.013" y2="166.842" gradientUnits="userSpaceOnUse">
<stop stop-color="#17EC20"/>
<stop offset="1" stop-color="#1A202D"/>
</linearGradient>
<linearGradient id="paint83_linear_32171_14097" x1="265.568" y1="117.875" x2="265.568" y2="166.842" gradientUnits="userSpaceOnUse">
<stop stop-color="#17EC20"/>
<stop offset="1" stop-color="#1A202D"/>
</linearGradient>
<linearGradient id="paint84_linear_32171_14097" x1="268.349" y1="83.416" x2="268.349" y2="166.842" gradientUnits="userSpaceOnUse">
<stop stop-color="#17EC20"/>
<stop offset="1" stop-color="#1A202D"/>
</linearGradient>
<linearGradient id="paint85_linear_32171_14097" x1="270.903" y1="0.443359" x2="270.903" y2="166.842" gradientUnits="userSpaceOnUse">
<stop stop-color="#17EC20"/>
<stop offset="1" stop-color="#1A202D"/>
</linearGradient>
<linearGradient id="paint86_linear_32171_14097" x1="273.458" y1="108.807" x2="273.458" y2="166.842" gradientUnits="userSpaceOnUse">
<stop stop-color="#17EC20"/>
<stop offset="1" stop-color="#1A202D"/>
</linearGradient>
<linearGradient id="paint87_linear_32171_14097" x1="276.239" y1="117.875" x2="276.239" y2="166.842" gradientUnits="userSpaceOnUse">
<stop stop-color="#17EC20"/>
<stop offset="1" stop-color="#1A202D"/>
</linearGradient>
<linearGradient id="paint88_linear_32171_14097" x1="278.794" y1="117.875" x2="278.794" y2="166.842" gradientUnits="userSpaceOnUse">
<stop stop-color="#17EC20"/>
<stop offset="1" stop-color="#1A202D"/>
</linearGradient>
<linearGradient id="paint89_linear_32171_14097" x1="281.349" y1="102.913" x2="281.349" y2="166.843" gradientUnits="userSpaceOnUse">
<stop stop-color="#17EC20"/>
<stop offset="1" stop-color="#1A202D"/>
</linearGradient>
<linearGradient id="paint90_linear_32171_14097" x1="283.904" y1="117.875" x2="283.904" y2="166.842" gradientUnits="userSpaceOnUse">
<stop stop-color="#17EC20"/>
<stop offset="1" stop-color="#1A202D"/>
</linearGradient>
<linearGradient id="paint91_linear_32171_14097" x1="286.233" y1="69.8145" x2="286.233" y2="166.843" gradientUnits="userSpaceOnUse">
<stop stop-color="#17EC20"/>
<stop offset="1" stop-color="#1A202D"/>
</linearGradient>
<linearGradient id="paint92_linear_32171_14097" x1="288.788" y1="40.3428" x2="288.788" y2="166.842" gradientUnits="userSpaceOnUse">
<stop stop-color="#17EC20"/>
<stop offset="1" stop-color="#1A202D"/>
</linearGradient>
<linearGradient id="paint93_linear_32171_14097" x1="291.343" y1="117.875" x2="291.343" y2="166.842" gradientUnits="userSpaceOnUse">
<stop stop-color="#17EC20"/>
<stop offset="1" stop-color="#1A202D"/>
</linearGradient>
<linearGradient id="paint94_linear_32171_14097" x1="293.672" y1="46.6904" x2="293.672" y2="166.842" gradientUnits="userSpaceOnUse">
<stop stop-color="#17EC20"/>
<stop offset="1" stop-color="#1A202D"/>
</linearGradient>
<linearGradient id="paint95_linear_32171_14097" x1="296.226" y1="40.3428" x2="296.226" y2="166.842" gradientUnits="userSpaceOnUse">
<stop stop-color="#17EC20"/>
<stop offset="1" stop-color="#1A202D"/>
</linearGradient>
<linearGradient id="paint96_linear_32171_14097" x1="298.781" y1="40.3428" x2="298.781" y2="166.842" gradientUnits="userSpaceOnUse">
<stop stop-color="#17EC20"/>
<stop offset="1" stop-color="#1A202D"/>
</linearGradient>
<linearGradient id="paint97_linear_32171_14097" x1="301.11" y1="64.8271" x2="301.11" y2="166.842" gradientUnits="userSpaceOnUse">
<stop stop-color="#17EC20"/>
<stop offset="1" stop-color="#1A202D"/>
</linearGradient>
<linearGradient id="paint98_linear_32171_14097" x1="303.665" y1="117.875" x2="303.665" y2="166.842" gradientUnits="userSpaceOnUse">
<stop stop-color="#17EC20"/>
<stop offset="1" stop-color="#1A202D"/>
</linearGradient>
<linearGradient id="paint99_linear_32171_14097" x1="306.22" y1="32.6348" x2="306.22" y2="166.842" gradientUnits="userSpaceOnUse">
<stop stop-color="#17EC20"/>
<stop offset="1" stop-color="#1A202D"/>
</linearGradient>
<linearGradient id="paint100_linear_32171_14097" x1="308.549" y1="119.688" x2="308.549" y2="166.842" gradientUnits="userSpaceOnUse">
<stop stop-color="#17EC20"/>
<stop offset="1" stop-color="#1A202D"/>
</linearGradient>
<linearGradient id="paint101_linear_32171_14097" x1="311.103" y1="69.8145" x2="311.103" y2="166.843" gradientUnits="userSpaceOnUse">
<stop stop-color="#17EC20"/>
<stop offset="1" stop-color="#1A202D"/>
</linearGradient>
<linearGradient id="paint102_linear_32171_14097" x1="313.659" y1="117.875" x2="313.659" y2="166.842" gradientUnits="userSpaceOnUse">
<stop stop-color="#17EC20"/>
<stop offset="1" stop-color="#1A202D"/>
</linearGradient>
<linearGradient id="paint103_linear_32171_14097" x1="316.213" y1="6.33789" x2="316.213" y2="166.842" gradientUnits="userSpaceOnUse">
<stop stop-color="#17EC20"/>
<stop offset="1" stop-color="#1A202D"/>
</linearGradient>
<linearGradient id="paint104_linear_32171_14097" x1="318.994" y1="6.33789" x2="318.994" y2="166.842" gradientUnits="userSpaceOnUse">
<stop stop-color="#17EC20"/>
<stop offset="1" stop-color="#1A202D"/>
</linearGradient>
<linearGradient id="paint105_linear_32171_14097" x1="321.549" y1="6.33789" x2="321.549" y2="166.842" gradientUnits="userSpaceOnUse">
<stop stop-color="#17EC20"/>
<stop offset="1" stop-color="#1A202D"/>
</linearGradient>
<linearGradient id="paint106_linear_32171_14097" x1="324.104" y1="117.875" x2="324.104" y2="166.842" gradientUnits="userSpaceOnUse">
<stop stop-color="#17EC20"/>
<stop offset="1" stop-color="#1A202D"/>
</linearGradient>
<linearGradient id="paint107_linear_32171_14097" x1="326.885" y1="66.1875" x2="326.885" y2="166.842" gradientUnits="userSpaceOnUse">
<stop stop-color="#17EC20"/>
<stop offset="1" stop-color="#1A202D"/>
</linearGradient>
<linearGradient id="paint108_linear_32171_14097" x1="329.439" y1="38.5293" x2="329.439" y2="166.842" gradientUnits="userSpaceOnUse">
<stop stop-color="#17EC20"/>
<stop offset="1" stop-color="#1A202D"/>
</linearGradient>
<linearGradient id="paint109_linear_32171_14097" x1="331.994" y1="71.1738" x2="331.994" y2="166.842" gradientUnits="userSpaceOnUse">
<stop stop-color="#17EC20"/>
<stop offset="1" stop-color="#1A202D"/>
</linearGradient>
<linearGradient id="paint110_linear_32171_14097" x1="334.774" y1="48.0508" x2="334.774" y2="166.842" gradientUnits="userSpaceOnUse">
<stop stop-color="#17EC20"/>
<stop offset="1" stop-color="#1A202D"/>
</linearGradient>
<linearGradient id="paint111_linear_32171_14097" x1="337.329" y1="46.6904" x2="337.329" y2="166.842" gradientUnits="userSpaceOnUse">
<stop stop-color="#17EC20"/>
<stop offset="1" stop-color="#1A202D"/>
</linearGradient>
<linearGradient id="paint112_linear_32171_14097" x1="339.884" y1="48.0508" x2="339.884" y2="166.842" gradientUnits="userSpaceOnUse">
<stop stop-color="#17EC20"/>
<stop offset="1" stop-color="#1A202D"/>
</linearGradient>
<linearGradient id="paint113_linear_32171_14097" x1="342.665" y1="2.71094" x2="342.665" y2="166.843" gradientUnits="userSpaceOnUse">
<stop stop-color="#17EC20"/>
<stop offset="1" stop-color="#1A202D"/>
</linearGradient>
<linearGradient id="paint114_linear_32171_14097" x1="345.219" y1="86.5898" x2="345.219" y2="166.842" gradientUnits="userSpaceOnUse">
<stop stop-color="#17EC20"/>
<stop offset="1" stop-color="#1A202D"/>
</linearGradient>
<linearGradient id="paint115_linear_32171_14097" x1="347.775" y1="64.8271" x2="347.775" y2="166.842" gradientUnits="userSpaceOnUse">
<stop stop-color="#17EC20"/>
<stop offset="1" stop-color="#1A202D"/>
</linearGradient>
<linearGradient id="paint116_linear_32171_14097" x1="350.555" y1="117.875" x2="350.555" y2="166.842" gradientUnits="userSpaceOnUse">
<stop stop-color="#17EC20"/>
<stop offset="1" stop-color="#1A202D"/>
</linearGradient>
<linearGradient id="paint117_linear_32171_14097" x1="353.11" y1="15.8594" x2="353.11" y2="166.842" gradientUnits="userSpaceOnUse">
<stop stop-color="#17EC20"/>
<stop offset="1" stop-color="#1A202D"/>
</linearGradient>
<linearGradient id="paint118_linear_32171_14097" x1="355.665" y1="86.1367" x2="355.665" y2="166.842" gradientUnits="userSpaceOnUse">
<stop stop-color="#17EC20"/>
<stop offset="1" stop-color="#1A202D"/>
</linearGradient>
<linearGradient id="paint119_linear_32171_14097" x1="358.219" y1="49.4111" x2="358.219" y2="166.842" gradientUnits="userSpaceOnUse">
<stop stop-color="#17EC20"/>
<stop offset="1" stop-color="#1A202D"/>
</linearGradient>
<linearGradient id="paint120_linear_32171_14097" x1="360.549" y1="117.875" x2="360.549" y2="166.842" gradientUnits="userSpaceOnUse">
<stop stop-color="#17EC20"/>
<stop offset="1" stop-color="#1A202D"/>
</linearGradient>
<linearGradient id="paint121_linear_32171_14097" x1="363.104" y1="117.875" x2="363.104" y2="166.842" gradientUnits="userSpaceOnUse">
<stop stop-color="#17EC20"/>
<stop offset="1" stop-color="#1A202D"/>
</linearGradient>
<linearGradient id="paint122_linear_32171_14097" x1="365.658" y1="87.4971" x2="365.658" y2="166.842" gradientUnits="userSpaceOnUse">
<stop stop-color="#17EC20"/>
<stop offset="1" stop-color="#1A202D"/>
</linearGradient>
<linearGradient id="paint123_linear_32171_14097" x1="367.988" y1="48.0508" x2="367.988" y2="166.842" gradientUnits="userSpaceOnUse">
<stop stop-color="#17EC20"/>
<stop offset="1" stop-color="#1A202D"/>
</linearGradient>
<linearGradient id="paint124_linear_32171_14097" x1="370.542" y1="48.0508" x2="370.542" y2="166.842" gradientUnits="userSpaceOnUse">
<stop stop-color="#17EC20"/>
<stop offset="1" stop-color="#1A202D"/>
</linearGradient>
<linearGradient id="paint125_linear_32171_14097" x1="373.098" y1="2.71094" x2="373.098" y2="166.843" gradientUnits="userSpaceOnUse">
<stop stop-color="#17EC20"/>
<stop offset="1" stop-color="#1A202D"/>
</linearGradient>
<linearGradient id="paint126_linear_32171_14097" x1="375.427" y1="117.875" x2="375.427" y2="166.842" gradientUnits="userSpaceOnUse">
<stop stop-color="#17EC20"/>
<stop offset="1" stop-color="#1A202D"/>
</linearGradient>
<linearGradient id="paint127_linear_32171_14097" x1="377.981" y1="43.0635" x2="377.981" y2="166.842" gradientUnits="userSpaceOnUse">
<stop stop-color="#17EC20"/>
<stop offset="1" stop-color="#1A202D"/>
</linearGradient>
<linearGradient id="paint128_linear_32171_14097" x1="380.536" y1="5.43066" x2="380.536" y2="166.842" gradientUnits="userSpaceOnUse">
<stop stop-color="#17EC20"/>
<stop offset="1" stop-color="#1A202D"/>
</linearGradient>
<linearGradient id="paint129_linear_32171_14097" x1="382.865" y1="38.5293" x2="382.865" y2="166.842" gradientUnits="userSpaceOnUse">
<stop stop-color="#17EC20"/>
<stop offset="1" stop-color="#1A202D"/>
</linearGradient>
<linearGradient id="paint130_linear_32171_14097" x1="385.42" y1="71.1738" x2="385.42" y2="166.842" gradientUnits="userSpaceOnUse">
<stop stop-color="#17EC20"/>
<stop offset="1" stop-color="#1A202D"/>
</linearGradient>
<linearGradient id="paint131_linear_32171_14097" x1="387.975" y1="48.0508" x2="387.975" y2="166.842" gradientUnits="userSpaceOnUse">
<stop stop-color="#17EC20"/>
<stop offset="1" stop-color="#1A202D"/>
</linearGradient>
<linearGradient id="paint132_linear_32171_14097" x1="390.53" y1="46.6904" x2="390.53" y2="166.842" gradientUnits="userSpaceOnUse">
<stop stop-color="#17EC20"/>
<stop offset="1" stop-color="#1A202D"/>
</linearGradient>
</defs>
</svg>
