<svg width="408" height="329" viewBox="0 0 408 329" fill="none" xmlns="http://www.w3.org/2000/svg">
<g clip-path="url(#clip0_32171_14085)">
<path d="M5.02458 14.5283H4.13254V13.6341C2.33516 13.5006 1.15021 12.4662 1.14355 10.978H2.2819C2.35513 11.8722 3.03414 12.4662 4.13254 12.5997V9.12948L3.59998 8.98263C2.17539 8.60894 1.37655 7.73471 1.37655 6.49347C1.37655 5.03198 2.43501 4.03764 4.13254 3.8708V2.93652H5.02458V3.86413C6.68883 4.00427 7.7806 5.03865 7.82718 6.48012H6.69549C6.66886 5.65262 6.00982 5.01864 5.02458 4.89852V8.16186L5.59042 8.30194C7.2147 8.73571 7.99361 9.54324 7.99361 10.8912C7.99361 12.4729 6.89518 13.4739 5.02458 13.6274V14.5283ZM6.84194 10.9847C6.84194 10.1038 6.28275 9.57663 5.02458 9.30963V12.6197C6.1829 12.5596 6.84194 11.959 6.84194 10.9847ZM2.52155 6.42673C2.52155 7.22086 3.08074 7.74809 4.13254 7.96832V4.89852C3.20056 4.9519 2.52155 5.58588 2.52155 6.42673ZM14.7238 13.614V5.25888H14.6972L12.1543 7.09409V5.82612L14.7105 3.98425H15.8821V13.614H14.7238ZM20.2757 9.16955V8.15517H21.4274C22.5324 8.15517 23.3047 7.44109 23.3047 6.46677C23.3047 5.51247 22.659 4.86515 21.4408 4.86515C20.3356 4.86515 19.6034 5.49912 19.4969 6.50682H18.3453C18.4784 4.87182 19.6899 3.82409 21.494 3.82409C23.2115 3.82409 24.5096 4.85847 24.5096 6.30661C24.5096 7.51448 23.7374 8.38202 22.5391 8.59563V8.62232C23.9904 8.70902 24.9223 9.60994 24.9223 10.9647C24.9223 12.6197 23.4179 13.7742 21.5339 13.7742C19.5235 13.7742 18.2387 12.6597 18.1522 11.0648H19.3038C19.4103 12.0525 20.2291 12.7332 21.5206 12.7332C22.7921 12.7332 23.7041 12.0124 23.7041 11.0047C23.7041 9.87024 22.852 9.16955 21.4807 9.16955H20.2757ZM29.7487 13.7742C27.5052 13.7742 26.2071 11.8389 26.2071 8.79579C26.2071 5.77941 27.5186 3.82409 29.7487 3.82409C31.9787 3.82409 33.2769 5.76606 33.2769 8.78917C33.2769 11.8322 31.9854 13.7742 29.7487 13.7742ZM29.7487 12.7265C31.2464 12.7265 32.0719 11.1982 32.0719 8.79579C32.0719 6.42673 31.2332 4.87849 29.7487 4.87849C28.2641 4.87849 27.4121 6.44008 27.4121 8.78917C27.4121 11.1916 28.2442 12.7265 29.7487 12.7265ZM38.8022 13.614H37.6039V3.98425H38.8022V8.68233H38.8688L43.1092 3.98425H44.6204L40.6728 8.24856L44.9732 13.614H43.4421L39.8407 9.10278L38.8022 10.2506V13.614Z" fill="#ABB2BE"/>
<path d="M51.0098 8.78613H407.503" stroke="#0B0528" stroke-width="1.06154" stroke-linecap="round"/>
<path d="M51.6973 82.3193H407.502" stroke="#0B0528" stroke-width="1.06154" stroke-linecap="round"/>
<path d="M51.6973 155.853H407.502" stroke="#0B0528" stroke-width="1.06154" stroke-linecap="round"/>
<path d="M51.6973 229.385H407.502" stroke="#0B0528" stroke-width="1.06154" stroke-linecap="round"/>
<path d="M5.02458 308.66H4.13254V307.766C2.33516 307.632 1.15021 306.598 1.14355 305.11H2.2819C2.35513 306.004 3.03414 306.598 4.13254 306.731V303.261L3.59998 303.115C2.17539 302.741 1.37655 301.866 1.37655 300.625C1.37655 299.164 2.43501 298.169 4.13254 298.002V297.068H5.02458V297.996C6.68883 298.136 7.7806 299.171 7.82718 300.611H6.69549C6.66886 299.785 6.00982 299.151 5.02458 299.03V302.294L5.59043 302.434C7.2147 302.868 7.99361 303.675 7.99361 305.023C7.99361 306.605 6.89518 307.605 5.02458 307.759V308.66ZM6.84194 305.116C6.84194 304.235 6.28275 303.708 5.02458 303.441V306.751C6.1829 306.691 6.84194 306.091 6.84194 305.116ZM2.52155 300.558C2.52155 301.352 3.08074 301.88 4.13254 302.1V299.03C3.20056 299.084 2.52155 299.718 2.52155 300.558ZM14.7238 307.746V299.391H14.6972L12.1543 301.226V299.958L14.7105 298.116H15.8821V307.746H14.7238ZM21.6804 307.906C19.4369 307.906 18.1388 305.971 18.1388 302.928C18.1388 299.911 19.4503 297.956 21.6804 297.956C23.9105 297.956 25.2086 299.898 25.2086 302.921C25.2086 305.964 23.9171 307.906 21.6804 307.906ZM21.6804 306.858C23.1782 306.858 24.0037 305.33 24.0037 302.928C24.0037 300.558 23.1649 299.01 21.6804 299.01C20.1958 299.01 19.3438 300.571 19.3438 302.921C19.3438 305.323 20.1759 306.858 21.6804 306.858ZM29.9483 307.906C27.705 307.906 26.4069 305.971 26.4069 302.928C26.4069 299.911 27.7182 297.956 29.9483 297.956C32.1784 297.956 33.4766 299.898 33.4766 302.921C33.4766 305.964 32.1851 307.906 29.9483 307.906ZM29.9483 306.858C31.4462 306.858 32.2717 305.33 32.2717 302.928C32.2717 300.558 31.4328 299.01 29.9483 299.01C28.4639 299.01 27.6117 300.571 27.6117 302.921C27.6117 305.323 28.4439 306.858 29.9483 306.858ZM39.0019 307.746H37.8036V298.116H39.0019V302.814H39.0684L43.3089 298.116H44.8201L40.8725 302.38L45.1729 307.746H43.6418L40.0403 303.235L39.0019 304.382V307.746Z" fill="#ABB2BE"/>
<path d="M51.6973 302.918H407.502" stroke="#0B0528" stroke-width="1.06154" stroke-linecap="round"/>
<path d="M60.8653 325.275H59.667V315.645H65.4985V316.727H60.8653V320.037H65.1191V321.105H60.8653V325.275ZM69.1999 319.222C68.1147 319.222 67.3558 320.057 67.2826 321.211H71.0439C71.017 320.05 70.2918 319.222 69.1999 319.222ZM71.017 323.287H72.1557C71.9555 324.501 70.7845 325.395 69.2729 325.395C67.2892 325.395 66.0844 324.014 66.0844 321.832C66.0844 319.676 67.3093 318.215 69.2199 318.215C71.0906 318.215 72.2417 319.576 72.2417 321.678V322.118H67.2759V322.185C67.2759 323.514 68.0548 324.388 69.2997 324.388C70.1783 324.388 70.8244 323.941 71.017 323.287ZM76.8556 325.395C75.8435 325.395 75.0516 324.902 74.6051 324.101H74.5789V325.275H73.4733V315.645H74.6319V319.496H74.6588C75.0915 318.702 75.8965 318.215 76.8756 318.215C78.6197 318.215 79.7976 319.629 79.7976 321.805C79.7976 323.987 78.6259 325.395 76.8556 325.395ZM76.6293 319.236C75.4576 319.236 74.625 320.264 74.625 321.805C74.625 323.353 75.4576 324.375 76.6293 324.375C77.854 324.375 78.6128 323.393 78.6128 321.805C78.6128 320.23 77.854 319.236 76.6293 319.236ZM83.7386 318.422C83.7386 316.74 85.0968 315.485 86.9077 315.485C88.625 315.485 89.9763 316.653 89.9763 318.128C89.9763 319.202 89.4906 320.003 87.8861 321.665L85.456 324.181V324.208H90.1359V325.275H83.7985V324.448L87.1802 320.878C88.4716 319.516 88.7778 319.002 88.7778 318.201C88.7778 317.274 87.9329 316.533 86.874 316.533C85.7491 316.533 84.8973 317.347 84.8973 318.422V318.428H83.7386V318.422ZM94.8826 325.435C92.639 325.435 91.3407 323.5 91.3407 320.457C91.3407 317.441 92.6527 315.485 94.8826 315.485C97.1125 315.485 98.4108 317.427 98.4108 320.45C98.4108 323.493 97.1194 325.435 94.8826 325.435ZM94.8826 324.388C96.3805 324.388 97.2061 322.859 97.2061 320.457C97.2061 318.088 96.3667 316.54 94.8826 316.54C93.3979 316.54 92.5461 318.101 92.5461 320.45C92.5461 322.853 93.3779 324.388 94.8826 324.388ZM99.5956 318.422C99.5956 316.74 100.954 315.485 102.765 315.485C104.482 315.485 105.833 316.653 105.833 318.128C105.833 319.202 105.348 320.003 103.743 321.665L101.313 324.181V324.208H105.993V325.275H99.6555V324.448L103.037 320.878C104.329 319.516 104.635 319.002 104.635 318.201C104.635 317.274 103.79 316.533 102.731 316.533C101.606 316.533 100.754 317.347 100.754 318.422V318.428H99.5956V318.422ZM111.611 325.275V323.273H106.785V322.185C107.604 320.664 108.729 318.908 110.999 315.645H112.77V322.218H114.128V323.273H112.77V325.275H111.611ZM107.97 322.192V322.218H111.611V316.646H111.591C109.774 319.249 108.729 320.858 107.97 322.192Z" fill="white"/>
<path d="M356.774 325.275H355.656V317.855H355.61L352.547 325.208H351.536L348.473 317.855H348.427V325.275H347.309V315.645H348.7L352.015 323.68H352.068L355.383 315.645H356.774V325.275ZM360.543 324.408C361.635 324.408 362.473 323.64 362.473 322.639V322.072L360.623 322.185C359.69 322.245 359.158 322.659 359.158 323.313C359.158 323.974 359.71 324.408 360.543 324.408ZM360.283 325.395C358.905 325.395 357.98 324.561 357.98 323.313C357.98 322.125 358.892 321.378 360.489 321.285L362.473 321.171V320.591C362.473 319.743 361.914 319.236 360.956 319.236C360.063 319.236 359.504 319.656 359.357 320.337H358.239C358.319 319.135 359.344 318.215 360.982 318.215C362.606 318.215 363.631 319.095 363.631 320.477V325.275H362.533V324.081H362.506C362.094 324.875 361.215 325.395 360.283 325.395ZM365.675 327.871C365.535 327.871 365.303 327.858 365.176 327.831V326.857C365.303 326.884 365.482 326.89 365.629 326.89C366.274 326.89 366.634 326.577 366.9 325.769L367.06 325.282L364.504 318.335H365.742L367.659 324.114H367.679L369.596 318.335H370.814L368.092 325.762C367.499 327.384 366.927 327.871 365.675 327.871ZM374.496 318.422C374.496 316.74 375.853 315.485 377.664 315.485C379.382 315.485 380.733 316.653 380.733 318.128C380.733 319.202 380.247 320.003 378.643 321.665L376.213 324.181V324.208H380.893V325.275H374.556V324.448L377.938 320.878C379.229 319.516 379.535 319.002 379.535 318.201C379.535 317.274 378.69 316.533 377.631 316.533C376.506 316.533 375.654 317.347 375.654 318.422V318.428H374.496V318.422ZM385.639 325.435C383.396 325.435 382.098 323.5 382.098 320.457C382.098 317.441 383.409 315.485 385.639 315.485C387.87 315.485 389.167 317.427 389.167 320.45C389.167 323.493 387.876 325.435 385.639 325.435ZM385.639 324.388C387.137 324.388 387.963 322.859 387.963 320.457C387.963 318.088 387.124 316.54 385.639 316.54C384.155 316.54 383.303 318.101 383.303 320.45C383.303 322.853 384.135 324.388 385.639 324.388ZM390.353 318.422C390.353 316.74 391.71 315.485 393.521 315.485C395.239 315.485 396.59 316.653 396.59 318.128C396.59 319.202 396.104 320.003 394.5 321.665L392.07 324.181V324.208H396.75V325.275H390.413V324.448L393.794 320.878C395.086 319.516 395.392 319.002 395.392 318.201C395.392 317.274 394.546 316.533 393.488 316.533C392.363 316.533 391.511 317.347 391.511 318.422V318.428H390.353V318.422ZM401.436 325.435C399.599 325.435 398.241 324.288 398.141 322.646H399.319C399.426 323.674 400.298 324.381 401.45 324.381C402.755 324.381 403.66 323.473 403.66 322.178C403.66 320.884 402.748 319.956 401.47 319.956C400.571 319.956 399.806 320.364 399.413 321.038H398.288L398.814 315.645H404.312V316.713H399.799L399.506 319.85H399.533C399.965 319.269 400.764 318.922 401.683 318.922C403.527 318.922 404.858 320.277 404.858 322.145C404.858 324.081 403.441 325.435 401.436 325.435Z" fill="white"/>
<path d="M54.0049 297.485L97.8266 274.543L112.678 264.049L122.903 251.602L128.746 246.965L135.927 245.866L148.952 240.131L207.504 216.214L247.065 202.79L259.481 197.909L265.325 191.32L294.052 160.08L301.356 148.61L327.162 137.139L337.387 121.763L359.785 78.077L369.767 69.0471L382.913 63.5555L396.547 58.0642L403.575 51.3795C404.506 50.4943 406.042 51.1558 406.042 52.4419V297.485H54.0049Z" fill="url(#paint0_linear_32171_14085)"/>
<path d="M54.9785 296.02L68.1173 291.761C68.5523 291.619 68.9543 291.392 69.3003 291.092L70.4941 290.055C70.7782 289.809 71.1002 289.611 71.4484 289.47L78.7167 286.524C79.0222 286.401 79.2527 286.141 79.34 285.822C79.4439 285.445 79.746 285.155 80.1265 285.069L82.9205 284.432C83.8707 284.215 84.6826 283.601 85.1518 282.746L85.8144 281.537C86.1027 281.013 86.523 280.573 87.0342 280.262L88.8259 279.173C89.1527 278.974 89.4444 278.721 89.688 278.425L90.5913 277.327C90.9643 276.873 91.4472 276.524 91.9935 276.313L103.519 271.854C104.251 271.571 104.864 271.043 105.253 270.36L106.722 267.78C107.164 267.004 107.89 266.433 108.747 266.188L111.213 265.483C112.114 265.225 112.868 264.607 113.301 263.775L116.137 258.315C116.247 258.103 116.379 257.903 116.531 257.719L118.265 255.61C118.589 255.217 118.994 254.902 119.454 254.687L121.868 253.559C122.439 253.292 122.926 252.871 123.273 252.343L125.787 248.522C126.198 247.897 126.804 247.425 127.509 247.178L148.26 239.921C148.62 239.794 149 239.73 149.382 239.73H151.101C151.608 239.73 152.109 239.616 152.567 239.398L160.456 235.629L182.558 228.004C182.947 227.87 183.308 227.666 183.625 227.403L188.496 223.351C188.811 223.089 189.17 222.886 189.556 222.752L201.557 218.583C201.752 218.516 201.94 218.43 202.12 218.328L206.121 216.058C206.34 215.934 206.571 215.835 206.811 215.762L210.129 214.753L260.055 198.398C260.877 198.128 261.567 197.556 261.983 196.795L265.004 191.287C265.406 190.554 266.061 189.995 266.846 189.714L270.436 188.43C270.704 188.335 270.96 188.205 271.196 188.046L273.189 186.699C273.461 186.515 273.706 186.293 273.915 186.039L276.052 183.44L280.133 177.156C280.472 176.634 280.953 176.22 281.518 175.962C282.51 175.51 283.211 174.592 283.388 173.514L283.552 172.519C283.661 171.861 283.958 171.249 284.409 170.76L289.236 165.509C289.433 165.295 289.709 165.173 289.999 165.173C290.457 165.173 290.861 164.872 290.992 164.432L291.653 162.221C291.857 161.539 292.483 161.073 293.193 161.073C293.779 161.073 294.319 160.753 294.601 160.238L298.656 152.843C298.914 152.373 299.049 151.845 299.049 151.307C299.049 150.001 299.844 148.827 301.055 148.343L318.673 141.315L325.167 138.569C325.537 138.413 325.875 138.193 326.168 137.919L329.711 134.605L334.06 129.318C334.227 129.116 334.369 128.895 334.485 128.659L337.99 121.558L340.75 115.966L342.389 111.316C342.521 110.94 342.719 110.589 342.973 110.281L344.672 108.215C344.917 107.917 345.11 107.58 345.243 107.217L347.495 101.054L349.066 96.9174C349.243 96.4504 349.521 96.0283 349.878 95.6807L351.966 93.6494C352.254 93.3694 352.49 93.0411 352.664 92.6783L354.369 89.1262C354.488 88.8779 354.636 88.6455 354.81 88.433L356.035 86.9446C356.268 86.6611 356.455 86.3411 356.586 85.9976L360.29 76.3483C360.544 75.6876 360.996 75.122 361.584 74.7302L369.888 69.1931C370.086 69.062 370.296 68.9511 370.517 68.8633L388.89 61.5397L396.25 58.4418C396.654 58.2719 397.021 58.0258 397.332 57.7168L403.607 51.4746" stroke="url(#paint1_linear_32171_14085)" stroke-width="7.07692" stroke-linecap="round"/>
</g>
<defs>
<linearGradient id="paint0_linear_32171_14085" x1="274.332" y1="57.088" x2="273.598" y2="297.485" gradientUnits="userSpaceOnUse">
<stop stop-color="#17EC20" stop-opacity="0.8"/>
<stop offset="1" stop-color="#17EC20" stop-opacity="0"/>
</linearGradient>
<linearGradient id="paint1_linear_32171_14085" x1="403.607" y1="51.4745" x2="59.5504" y2="302.291" gradientUnits="userSpaceOnUse">
<stop stop-color="#17EC20"/>
<stop offset="1" stop-color="#18BC1F"/>
</linearGradient>
<clipPath id="clip0_32171_14085">
<rect width="408" height="329" fill="white"/>
</clipPath>
</defs>
</svg>
